G75*
%MOIN*%
%OFA0B0*%
%FSLAX25Y25*%
%IPPOS*%
%LPD*%
%AMOC8*
5,1,8,0,0,1.08239X$1,22.5*
%
%ADD10C,0.06024*%
%ADD11C,0.04800*%
%ADD12C,0.05906*%
%ADD13C,0.05315*%
%ADD14C,0.06000*%
%ADD15C,0.03543*%
%ADD16C,0.08858*%
%ADD17C,0.02400*%
%ADD18C,0.01200*%
%ADD19C,0.01600*%
D10*
X0080909Y0023075D03*
X0094689Y0023075D03*
X0253299Y0147295D03*
X0253299Y0161075D03*
X0253299Y0174854D03*
D11*
X0170299Y0068075D03*
X0156299Y0068075D03*
X0132799Y0032075D03*
X0118799Y0032075D03*
D12*
X0061528Y0019768D03*
X0040071Y0019768D03*
X0016157Y0050217D03*
X0016157Y0067933D03*
X0012299Y0112075D03*
X0022299Y0112075D03*
X0032299Y0112075D03*
X0042299Y0112075D03*
X0042299Y0139075D03*
X0032299Y0139075D03*
X0022299Y0139075D03*
X0012299Y0139075D03*
X0012299Y0166075D03*
X0022299Y0166075D03*
X0032299Y0166075D03*
X0032299Y0193075D03*
X0022299Y0193075D03*
X0012299Y0193075D03*
X0196299Y0026075D03*
X0206299Y0026075D03*
X0216299Y0026075D03*
X0226299Y0026075D03*
X0238299Y0054075D03*
X0248299Y0054075D03*
X0258299Y0054075D03*
X0258299Y0081075D03*
X0248299Y0081075D03*
X0238299Y0081075D03*
X0238299Y0108075D03*
X0248299Y0108075D03*
X0258299Y0108075D03*
D13*
X0173699Y0025075D03*
X0166999Y0025075D03*
X0160299Y0025075D03*
X0153599Y0025075D03*
X0146899Y0025075D03*
D14*
X0126299Y0064075D03*
X0126299Y0084075D03*
D15*
X0060346Y0031697D03*
X0041252Y0031697D03*
D16*
X0026000Y0045295D03*
X0026000Y0072854D03*
D17*
X0025299Y0082075D03*
X0028799Y0086575D03*
X0025299Y0094075D03*
X0013799Y0088575D03*
X0036799Y0072575D03*
X0032299Y0055075D03*
X0043299Y0037075D03*
X0059299Y0044075D03*
X0062299Y0044075D03*
X0062299Y0047075D03*
X0059299Y0047075D03*
X0055299Y0054075D03*
X0089299Y0036075D03*
X0108299Y0042075D03*
X0132299Y0050075D03*
X0133299Y0043075D03*
X0148299Y0042075D03*
X0158299Y0055075D03*
X0158299Y0058075D03*
X0161299Y0058075D03*
X0161299Y0055075D03*
X0164299Y0055075D03*
X0164299Y0058075D03*
X0153299Y0057075D03*
X0169299Y0082075D03*
X0161299Y0104075D03*
X0164299Y0109075D03*
X0164299Y0119075D03*
X0164299Y0129075D03*
X0162299Y0135075D03*
X0159799Y0137575D03*
X0152299Y0134075D03*
X0152299Y0129075D03*
X0149299Y0129075D03*
X0146299Y0129075D03*
X0143299Y0129075D03*
X0140299Y0129075D03*
X0138299Y0139075D03*
X0123299Y0134075D03*
X0120299Y0141075D03*
X0121299Y0147075D03*
X0120299Y0150075D03*
X0120299Y0157075D03*
X0120299Y0161075D03*
X0125299Y0161075D03*
X0130299Y0157075D03*
X0109299Y0156075D03*
X0104299Y0161075D03*
X0105299Y0172075D03*
X0109299Y0172075D03*
X0107299Y0179075D03*
X0099299Y0188575D03*
X0099799Y0197075D03*
X0106299Y0198075D03*
X0109799Y0198075D03*
X0105299Y0209075D03*
X0095299Y0209075D03*
X0089299Y0215575D03*
X0089299Y0221075D03*
X0085299Y0225075D03*
X0075299Y0221075D03*
X0067299Y0219075D03*
X0064299Y0223575D03*
X0060299Y0219075D03*
X0065799Y0210575D03*
X0064799Y0207575D03*
X0062299Y0202075D03*
X0067799Y0200575D03*
X0080299Y0198075D03*
X0087799Y0195075D03*
X0087799Y0192075D03*
X0080299Y0188575D03*
X0077799Y0186575D03*
X0072799Y0186575D03*
X0086799Y0179075D03*
X0090299Y0182575D03*
X0092299Y0177075D03*
X0080299Y0172075D03*
X0076299Y0172075D03*
X0080799Y0161075D03*
X0076799Y0155575D03*
X0085799Y0147575D03*
X0089799Y0142075D03*
X0093799Y0139575D03*
X0097299Y0139575D03*
X0105299Y0144075D03*
X0109299Y0144075D03*
X0107299Y0133075D03*
X0092299Y0131075D03*
X0092299Y0127075D03*
X0081299Y0126575D03*
X0077799Y0126575D03*
X0077299Y0116075D03*
X0072299Y0113575D03*
X0064299Y0123075D03*
X0064299Y0128075D03*
X0064299Y0131575D03*
X0058299Y0132575D03*
X0052299Y0146575D03*
X0047299Y0147075D03*
X0051799Y0153075D03*
X0056799Y0152075D03*
X0061299Y0150075D03*
X0075299Y0144075D03*
X0079299Y0144075D03*
X0092299Y0157075D03*
X0092299Y0161075D03*
X0064299Y0165575D03*
X0062799Y0174075D03*
X0041299Y0182075D03*
X0031799Y0180575D03*
X0039299Y0194075D03*
X0054799Y0208075D03*
X0040299Y0219075D03*
X0045299Y0225075D03*
X0045299Y0228075D03*
X0045299Y0231075D03*
X0045299Y0234075D03*
X0064299Y0231075D03*
X0075299Y0231075D03*
X0095299Y0231075D03*
X0095299Y0225075D03*
X0100299Y0223575D03*
X0106299Y0225075D03*
X0108299Y0222575D03*
X0115299Y0227575D03*
X0116799Y0222575D03*
X0119799Y0223575D03*
X0120299Y0215075D03*
X0126299Y0233075D03*
X0140299Y0223075D03*
X0143299Y0223075D03*
X0146299Y0223075D03*
X0149299Y0223075D03*
X0152299Y0223075D03*
X0159299Y0218075D03*
X0164299Y0215075D03*
X0164299Y0223075D03*
X0184799Y0233075D03*
X0187299Y0218075D03*
X0204299Y0233075D03*
X0233299Y0217075D03*
X0233299Y0194075D03*
X0187299Y0171075D03*
X0164299Y0176075D03*
X0164299Y0166075D03*
X0164299Y0156075D03*
X0152299Y0155575D03*
X0152299Y0160075D03*
X0152299Y0176075D03*
X0149299Y0176075D03*
X0146299Y0176075D03*
X0143299Y0176075D03*
X0140299Y0176075D03*
X0147299Y0186075D03*
X0152299Y0202575D03*
X0164299Y0203075D03*
X0129299Y0185075D03*
X0122299Y0196075D03*
X0094622Y0218752D03*
X0036799Y0155575D03*
X0021299Y0120575D03*
X0042299Y0101075D03*
X0051299Y0107075D03*
X0074799Y0089075D03*
X0098299Y0116075D03*
X0102299Y0116075D03*
X0112799Y0089075D03*
X0107799Y0069575D03*
X0107799Y0064575D03*
X0152299Y0113075D03*
X0152299Y0122075D03*
X0187299Y0122075D03*
X0190299Y0128575D03*
X0195799Y0137575D03*
X0189299Y0150075D03*
X0198299Y0089075D03*
X0219299Y0090075D03*
X0214299Y0056075D03*
D18*
X0014702Y0016233D02*
X0012243Y0018019D01*
X0010458Y0020477D01*
X0009519Y0023367D01*
X0009399Y0024886D01*
X0009399Y0108819D01*
X0009834Y0108385D01*
X0011433Y0107722D01*
X0013165Y0107722D01*
X0014765Y0108385D01*
X0015989Y0109609D01*
X0016652Y0111209D01*
X0016652Y0112941D01*
X0015989Y0114540D01*
X0014765Y0115765D01*
X0013165Y0116428D01*
X0011433Y0116428D01*
X0009834Y0115765D01*
X0009399Y0115331D01*
X0009399Y0135819D01*
X0009834Y0135385D01*
X0011433Y0134722D01*
X0013165Y0134722D01*
X0014765Y0135385D01*
X0015989Y0136609D01*
X0016652Y0138209D01*
X0016652Y0139941D01*
X0015989Y0141540D01*
X0014765Y0142765D01*
X0013165Y0143428D01*
X0011433Y0143428D01*
X0009834Y0142765D01*
X0009399Y0142331D01*
X0009399Y0162819D01*
X0009834Y0162385D01*
X0011433Y0161722D01*
X0013165Y0161722D01*
X0014765Y0162385D01*
X0015989Y0163609D01*
X0016652Y0165209D01*
X0016652Y0166941D01*
X0015989Y0168540D01*
X0014765Y0169765D01*
X0013165Y0170428D01*
X0011433Y0170428D01*
X0009834Y0169765D01*
X0009399Y0169331D01*
X0009399Y0189819D01*
X0009834Y0189385D01*
X0011433Y0188722D01*
X0013165Y0188722D01*
X0014765Y0189385D01*
X0015989Y0190609D01*
X0016652Y0192209D01*
X0016652Y0193941D01*
X0015989Y0195540D01*
X0014765Y0196765D01*
X0013165Y0197428D01*
X0011433Y0197428D01*
X0009834Y0196765D01*
X0009399Y0196331D01*
X0009399Y0221736D01*
X0009524Y0223646D01*
X0010513Y0227336D01*
X0012423Y0230644D01*
X0015124Y0233345D01*
X0018432Y0235255D01*
X0022122Y0236243D01*
X0024031Y0236369D01*
X0246472Y0236369D01*
X0248382Y0236243D01*
X0252072Y0235255D01*
X0255380Y0233345D01*
X0258081Y0230644D01*
X0259991Y0227336D01*
X0260980Y0223646D01*
X0261105Y0221736D01*
X0261105Y0111425D01*
X0260765Y0111765D01*
X0259165Y0112428D01*
X0257433Y0112428D01*
X0255834Y0111765D01*
X0254609Y0110540D01*
X0253946Y0108941D01*
X0253946Y0107209D01*
X0254609Y0105609D01*
X0255834Y0104385D01*
X0257433Y0103722D01*
X0259165Y0103722D01*
X0260765Y0104385D01*
X0261105Y0104725D01*
X0261105Y0084425D01*
X0260765Y0084765D01*
X0259165Y0085428D01*
X0257433Y0085428D01*
X0255834Y0084765D01*
X0254609Y0083540D01*
X0253946Y0081941D01*
X0253946Y0080209D01*
X0254609Y0078609D01*
X0255834Y0077385D01*
X0257433Y0076722D01*
X0259165Y0076722D01*
X0260765Y0077385D01*
X0261105Y0077725D01*
X0261105Y0057425D01*
X0260765Y0057765D01*
X0259165Y0058428D01*
X0257433Y0058428D01*
X0255834Y0057765D01*
X0254609Y0056540D01*
X0253946Y0054941D01*
X0253946Y0053209D01*
X0254609Y0051609D01*
X0255834Y0050385D01*
X0257433Y0049722D01*
X0259165Y0049722D01*
X0260765Y0050385D01*
X0261105Y0050725D01*
X0261105Y0024886D01*
X0260985Y0023367D01*
X0260046Y0020477D01*
X0258260Y0018019D01*
X0255802Y0016233D01*
X0252913Y0015294D01*
X0251394Y0015175D01*
X0193520Y0015175D01*
X0193161Y0015210D01*
X0192499Y0015484D01*
X0191992Y0015991D01*
X0191718Y0016653D01*
X0191683Y0017012D01*
X0191683Y0089079D01*
X0190764Y0091298D01*
X0189065Y0092996D01*
X0186847Y0093915D01*
X0182083Y0093915D01*
X0179864Y0092996D01*
X0178166Y0091298D01*
X0177246Y0089079D01*
X0177246Y0027114D01*
X0177139Y0027373D01*
X0175998Y0028515D01*
X0174506Y0029132D01*
X0172892Y0029132D01*
X0171401Y0028515D01*
X0170349Y0027463D01*
X0169298Y0028515D01*
X0167806Y0029132D01*
X0166192Y0029132D01*
X0164701Y0028515D01*
X0163649Y0027463D01*
X0162598Y0028515D01*
X0161106Y0029132D01*
X0159492Y0029132D01*
X0158001Y0028515D01*
X0156949Y0027463D01*
X0155898Y0028515D01*
X0154406Y0029132D01*
X0152792Y0029132D01*
X0151301Y0028515D01*
X0150249Y0027463D01*
X0149198Y0028515D01*
X0147706Y0029132D01*
X0146092Y0029132D01*
X0144601Y0028515D01*
X0143459Y0027373D01*
X0142842Y0025882D01*
X0142842Y0024268D01*
X0143459Y0022776D01*
X0144601Y0021635D01*
X0146092Y0021017D01*
X0147706Y0021017D01*
X0149198Y0021635D01*
X0150249Y0022687D01*
X0151301Y0021635D01*
X0152792Y0021017D01*
X0154406Y0021017D01*
X0155898Y0021635D01*
X0156949Y0022687D01*
X0158001Y0021635D01*
X0159492Y0021017D01*
X0161106Y0021017D01*
X0162598Y0021635D01*
X0163649Y0022687D01*
X0164701Y0021635D01*
X0166192Y0021017D01*
X0167806Y0021017D01*
X0169298Y0021635D01*
X0170349Y0022687D01*
X0171401Y0021635D01*
X0172892Y0021017D01*
X0174506Y0021017D01*
X0175998Y0021635D01*
X0177139Y0022776D01*
X0177246Y0023036D01*
X0177246Y0017012D01*
X0177211Y0016653D01*
X0176937Y0015991D01*
X0176430Y0015484D01*
X0175768Y0015210D01*
X0175409Y0015175D01*
X0019110Y0015175D01*
X0017591Y0015294D01*
X0014702Y0016233D01*
X0014100Y0016670D02*
X0037013Y0016670D01*
X0037605Y0016078D02*
X0039205Y0015415D01*
X0040937Y0015415D01*
X0042537Y0016078D01*
X0043761Y0017302D01*
X0044424Y0018902D01*
X0044424Y0020634D01*
X0043761Y0022233D01*
X0042537Y0023458D01*
X0040937Y0024120D01*
X0039205Y0024120D01*
X0037605Y0023458D01*
X0036381Y0022233D01*
X0035718Y0020634D01*
X0035718Y0018902D01*
X0036381Y0017302D01*
X0037605Y0016078D01*
X0039068Y0015472D02*
X0017045Y0015472D01*
X0019565Y0019243D02*
X0022593Y0019243D01*
X0025390Y0020401D01*
X0027532Y0022543D01*
X0028691Y0025340D01*
X0028691Y0028368D01*
X0027532Y0031166D01*
X0025390Y0033307D01*
X0022593Y0034466D01*
X0019565Y0034466D01*
X0016767Y0033307D01*
X0014626Y0031166D01*
X0013467Y0028368D01*
X0013467Y0025340D01*
X0014626Y0022543D01*
X0016767Y0020401D01*
X0019565Y0019243D01*
X0017094Y0020266D02*
X0010611Y0020266D01*
X0010137Y0021464D02*
X0015704Y0021464D01*
X0014576Y0022663D02*
X0009747Y0022663D01*
X0009480Y0023861D02*
X0014079Y0023861D01*
X0013583Y0025060D02*
X0009399Y0025060D01*
X0009399Y0026258D02*
X0013467Y0026258D01*
X0013467Y0027457D02*
X0009399Y0027457D01*
X0009399Y0028655D02*
X0013586Y0028655D01*
X0014082Y0029854D02*
X0009399Y0029854D01*
X0009399Y0031052D02*
X0014579Y0031052D01*
X0015711Y0032251D02*
X0009399Y0032251D01*
X0009399Y0033449D02*
X0017110Y0033449D01*
X0022698Y0040354D02*
X0024841Y0039466D01*
X0027159Y0039466D01*
X0029302Y0040354D01*
X0030942Y0041993D01*
X0031829Y0044136D01*
X0031829Y0046455D01*
X0030942Y0048597D01*
X0029302Y0050237D01*
X0027159Y0051124D01*
X0024841Y0051124D01*
X0022698Y0050237D01*
X0021058Y0048597D01*
X0020171Y0046455D01*
X0020171Y0044136D01*
X0021058Y0041993D01*
X0022698Y0040354D01*
X0022411Y0040641D02*
X0009399Y0040641D01*
X0009399Y0041839D02*
X0021213Y0041839D01*
X0020626Y0043038D02*
X0009399Y0043038D01*
X0009399Y0044236D02*
X0020171Y0044236D01*
X0020171Y0045435D02*
X0009399Y0045435D01*
X0009399Y0046633D02*
X0013585Y0046633D01*
X0013692Y0046526D02*
X0015292Y0045864D01*
X0017023Y0045864D01*
X0018623Y0046526D01*
X0019848Y0047751D01*
X0020510Y0049351D01*
X0020510Y0051082D01*
X0019848Y0052682D01*
X0018623Y0053907D01*
X0017023Y0054569D01*
X0015292Y0054569D01*
X0013692Y0053907D01*
X0012467Y0052682D01*
X0011805Y0051082D01*
X0011805Y0049351D01*
X0012467Y0047751D01*
X0013692Y0046526D01*
X0012434Y0047832D02*
X0009399Y0047832D01*
X0009399Y0049030D02*
X0011937Y0049030D01*
X0011805Y0050229D02*
X0009399Y0050229D01*
X0009399Y0051427D02*
X0011948Y0051427D01*
X0012444Y0052626D02*
X0009399Y0052626D01*
X0009399Y0053824D02*
X0013609Y0053824D01*
X0009399Y0055023D02*
X0052999Y0055023D01*
X0052999Y0055027D02*
X0052999Y0053122D01*
X0054347Y0051775D01*
X0055171Y0051775D01*
X0042771Y0039375D01*
X0042347Y0039375D01*
X0040999Y0038027D01*
X0040999Y0036122D01*
X0042347Y0034775D01*
X0044252Y0034775D01*
X0045599Y0036122D01*
X0045599Y0036546D01*
X0056999Y0047946D01*
X0056999Y0046122D01*
X0057547Y0045575D01*
X0056999Y0045027D01*
X0056999Y0043122D01*
X0058347Y0041775D01*
X0060252Y0041775D01*
X0060799Y0042322D01*
X0061347Y0041775D01*
X0063252Y0041775D01*
X0064599Y0043122D01*
X0064599Y0045027D01*
X0064052Y0045575D01*
X0064599Y0046122D01*
X0064599Y0048027D01*
X0063252Y0049375D01*
X0061347Y0049375D01*
X0060799Y0048827D01*
X0060252Y0049375D01*
X0058428Y0049375D01*
X0122299Y0113246D01*
X0122299Y0131822D01*
X0122347Y0131775D01*
X0124252Y0131775D01*
X0125599Y0133122D01*
X0125599Y0135027D01*
X0124252Y0136375D01*
X0122347Y0136375D01*
X0122299Y0136327D01*
X0122299Y0139822D01*
X0122599Y0140122D01*
X0122599Y0142027D01*
X0121252Y0143375D01*
X0119347Y0143375D01*
X0117999Y0142027D01*
X0117999Y0140122D01*
X0118299Y0139822D01*
X0118299Y0114903D01*
X0097299Y0093903D01*
X0097299Y0113822D01*
X0097347Y0113775D01*
X0099252Y0113775D01*
X0100599Y0115122D01*
X0100599Y0117027D01*
X0099252Y0118375D01*
X0097347Y0118375D01*
X0097299Y0118327D01*
X0097299Y0136246D01*
X0098128Y0137075D01*
X0099299Y0138246D01*
X0099299Y0138322D01*
X0099599Y0138622D01*
X0099599Y0140527D01*
X0098252Y0141875D01*
X0096347Y0141875D01*
X0095549Y0141077D01*
X0094752Y0141875D01*
X0092847Y0141875D01*
X0092099Y0141127D01*
X0092099Y0143027D01*
X0090752Y0144375D01*
X0088847Y0144375D01*
X0087799Y0143327D01*
X0087799Y0146322D01*
X0088099Y0146622D01*
X0088099Y0148075D01*
X0119047Y0148075D01*
X0118999Y0148027D01*
X0118999Y0146122D01*
X0120347Y0144775D01*
X0122252Y0144775D01*
X0123599Y0146122D01*
X0123599Y0148027D01*
X0122552Y0149075D01*
X0122599Y0149122D01*
X0122599Y0151027D01*
X0121252Y0152375D01*
X0119347Y0152375D01*
X0119047Y0152075D01*
X0062552Y0152075D01*
X0062252Y0152375D01*
X0060347Y0152375D01*
X0059099Y0151127D01*
X0059099Y0153027D01*
X0057752Y0154375D01*
X0057328Y0154375D01*
X0038799Y0172903D01*
X0038799Y0189403D01*
X0036459Y0191743D01*
X0036652Y0192209D01*
X0036652Y0193941D01*
X0035989Y0195540D01*
X0034765Y0196765D01*
X0033165Y0197428D01*
X0031433Y0197428D01*
X0029834Y0196765D01*
X0028609Y0195540D01*
X0027946Y0193941D01*
X0027946Y0192209D01*
X0028609Y0190609D01*
X0029834Y0189385D01*
X0031433Y0188722D01*
X0033165Y0188722D01*
X0033631Y0188915D01*
X0034799Y0187746D01*
X0034799Y0171246D01*
X0035971Y0170075D01*
X0050759Y0155287D01*
X0049499Y0154027D01*
X0049499Y0152122D01*
X0050847Y0150775D01*
X0052752Y0150775D01*
X0054011Y0152034D01*
X0054499Y0151546D01*
X0054499Y0151122D01*
X0055847Y0149775D01*
X0057752Y0149775D01*
X0058999Y0151022D01*
X0058999Y0149122D01*
X0060347Y0147775D01*
X0062252Y0147775D01*
X0062552Y0148075D01*
X0083499Y0148075D01*
X0083499Y0146622D01*
X0083799Y0146322D01*
X0083799Y0131903D01*
X0080771Y0128875D01*
X0080347Y0128875D01*
X0079549Y0128077D01*
X0078752Y0128875D01*
X0076847Y0128875D01*
X0075499Y0127527D01*
X0075499Y0125622D01*
X0076847Y0124275D01*
X0078752Y0124275D01*
X0079549Y0125072D01*
X0080347Y0124275D01*
X0082252Y0124275D01*
X0083599Y0125622D01*
X0083599Y0126046D01*
X0086628Y0129075D01*
X0087799Y0130246D01*
X0087799Y0140822D01*
X0088847Y0139775D01*
X0090752Y0139775D01*
X0091499Y0140522D01*
X0091499Y0138622D01*
X0092847Y0137275D01*
X0093299Y0137275D01*
X0093299Y0133327D01*
X0093252Y0133375D01*
X0091347Y0133375D01*
X0089999Y0132027D01*
X0089999Y0130122D01*
X0091347Y0128775D01*
X0093252Y0128775D01*
X0093299Y0128822D01*
X0093299Y0092903D01*
X0056511Y0056115D01*
X0056252Y0056375D01*
X0054347Y0056375D01*
X0052999Y0055027D01*
X0052999Y0053824D02*
X0018706Y0053824D01*
X0019871Y0052626D02*
X0053496Y0052626D01*
X0054823Y0051427D02*
X0020367Y0051427D01*
X0020510Y0050229D02*
X0022690Y0050229D01*
X0021491Y0049030D02*
X0020377Y0049030D01*
X0020741Y0047832D02*
X0019881Y0047832D01*
X0020245Y0046633D02*
X0018730Y0046633D01*
X0009399Y0039442D02*
X0042838Y0039442D01*
X0044037Y0040641D02*
X0029589Y0040641D01*
X0030787Y0041839D02*
X0045235Y0041839D01*
X0046434Y0043038D02*
X0031374Y0043038D01*
X0031829Y0044236D02*
X0047632Y0044236D01*
X0048831Y0045435D02*
X0031829Y0045435D01*
X0031755Y0046633D02*
X0050029Y0046633D01*
X0051228Y0047832D02*
X0031259Y0047832D01*
X0030509Y0049030D02*
X0052426Y0049030D01*
X0053625Y0050229D02*
X0029310Y0050229D01*
X0041215Y0038244D02*
X0009399Y0038244D01*
X0009399Y0037045D02*
X0040999Y0037045D01*
X0041275Y0035847D02*
X0009399Y0035847D01*
X0009399Y0034648D02*
X0040089Y0034648D01*
X0040621Y0034868D02*
X0039455Y0034386D01*
X0038563Y0033493D01*
X0038080Y0032328D01*
X0038080Y0031066D01*
X0038563Y0029900D01*
X0039455Y0029008D01*
X0040621Y0028525D01*
X0041883Y0028525D01*
X0043049Y0029008D01*
X0043941Y0029900D01*
X0044424Y0031066D01*
X0044424Y0032328D01*
X0043941Y0033493D01*
X0043049Y0034386D01*
X0041883Y0034868D01*
X0040621Y0034868D01*
X0042415Y0034648D02*
X0059183Y0034648D01*
X0059716Y0034868D02*
X0058550Y0034386D01*
X0057658Y0033493D01*
X0057175Y0032328D01*
X0057175Y0031066D01*
X0057658Y0029900D01*
X0058550Y0029008D01*
X0059716Y0028525D01*
X0060977Y0028525D01*
X0062143Y0029008D01*
X0063035Y0029900D01*
X0063518Y0031066D01*
X0063518Y0032328D01*
X0063035Y0033493D01*
X0062143Y0034386D01*
X0060977Y0034868D01*
X0059716Y0034868D01*
X0061510Y0034648D02*
X0087473Y0034648D01*
X0086999Y0035122D02*
X0088347Y0033775D01*
X0090252Y0033775D01*
X0091599Y0035122D01*
X0091599Y0037027D01*
X0090252Y0038375D01*
X0088347Y0038375D01*
X0086999Y0037027D01*
X0086999Y0035122D01*
X0086999Y0035847D02*
X0045324Y0035847D01*
X0046098Y0037045D02*
X0087017Y0037045D01*
X0088215Y0038244D02*
X0047296Y0038244D01*
X0048495Y0039442D02*
X0177246Y0039442D01*
X0177246Y0038244D02*
X0090383Y0038244D01*
X0091582Y0037045D02*
X0177246Y0037045D01*
X0177246Y0035847D02*
X0133623Y0035847D01*
X0133555Y0035875D02*
X0132043Y0035875D01*
X0130647Y0035296D01*
X0129578Y0034227D01*
X0128999Y0032831D01*
X0128999Y0031319D01*
X0129578Y0029922D01*
X0130647Y0028853D01*
X0132043Y0028275D01*
X0133555Y0028275D01*
X0134952Y0028853D01*
X0136021Y0029922D01*
X0136599Y0031319D01*
X0136599Y0032831D01*
X0136021Y0034227D01*
X0134952Y0035296D01*
X0133555Y0035875D01*
X0131975Y0035847D02*
X0119623Y0035847D01*
X0119555Y0035875D02*
X0118043Y0035875D01*
X0116647Y0035296D01*
X0115578Y0034227D01*
X0114999Y0032831D01*
X0114999Y0031319D01*
X0115578Y0029922D01*
X0116647Y0028853D01*
X0118043Y0028275D01*
X0119555Y0028275D01*
X0120952Y0028853D01*
X0122021Y0029922D01*
X0122599Y0031319D01*
X0122599Y0032831D01*
X0122021Y0034227D01*
X0120952Y0035296D01*
X0119555Y0035875D01*
X0117975Y0035847D02*
X0091599Y0035847D01*
X0091125Y0034648D02*
X0115998Y0034648D01*
X0115256Y0033449D02*
X0063053Y0033449D01*
X0063518Y0032251D02*
X0114999Y0032251D01*
X0115110Y0031052D02*
X0108407Y0031052D01*
X0108286Y0031174D02*
X0105850Y0032183D01*
X0103213Y0032183D01*
X0100777Y0031174D01*
X0098913Y0029309D01*
X0097904Y0026873D01*
X0097904Y0026099D01*
X0097188Y0026815D01*
X0095567Y0027487D01*
X0093811Y0027487D01*
X0092190Y0026815D01*
X0090949Y0025574D01*
X0090277Y0023952D01*
X0090277Y0022197D01*
X0090949Y0020576D01*
X0092190Y0019335D01*
X0093811Y0018663D01*
X0095567Y0018663D01*
X0097188Y0019335D01*
X0098429Y0020576D01*
X0098930Y0021784D01*
X0100777Y0019937D01*
X0103213Y0018928D01*
X0105850Y0018928D01*
X0108286Y0019937D01*
X0110150Y0021801D01*
X0111159Y0024237D01*
X0111159Y0026873D01*
X0110150Y0029309D01*
X0108286Y0031174D01*
X0109605Y0029854D02*
X0115646Y0029854D01*
X0117124Y0028655D02*
X0110421Y0028655D01*
X0110917Y0027457D02*
X0143543Y0027457D01*
X0142998Y0026258D02*
X0111159Y0026258D01*
X0111159Y0025060D02*
X0142842Y0025060D01*
X0143010Y0023861D02*
X0111004Y0023861D01*
X0110507Y0022663D02*
X0143573Y0022663D01*
X0145013Y0021464D02*
X0109814Y0021464D01*
X0108615Y0020266D02*
X0177246Y0020266D01*
X0177246Y0021464D02*
X0175586Y0021464D01*
X0177025Y0022663D02*
X0177246Y0022663D01*
X0177246Y0019067D02*
X0106187Y0019067D01*
X0102876Y0019067D02*
X0096543Y0019067D01*
X0098119Y0020266D02*
X0100448Y0020266D01*
X0099249Y0021464D02*
X0098797Y0021464D01*
X0097904Y0026258D02*
X0097745Y0026258D01*
X0098146Y0027457D02*
X0095638Y0027457D01*
X0093740Y0027457D02*
X0081859Y0027457D01*
X0081787Y0027487D02*
X0080032Y0027487D01*
X0078410Y0026815D01*
X0077694Y0026099D01*
X0077694Y0026873D01*
X0076685Y0029309D01*
X0074821Y0031174D01*
X0072385Y0032183D01*
X0069749Y0032183D01*
X0067313Y0031174D01*
X0065448Y0029309D01*
X0064439Y0026873D01*
X0064439Y0024237D01*
X0065448Y0021801D01*
X0067313Y0019937D01*
X0069749Y0018928D01*
X0072385Y0018928D01*
X0074821Y0019937D01*
X0076669Y0021784D01*
X0077169Y0020576D01*
X0078410Y0019335D01*
X0080032Y0018663D01*
X0081787Y0018663D01*
X0083409Y0019335D01*
X0084650Y0020576D01*
X0085321Y0022197D01*
X0085321Y0023952D01*
X0084650Y0025574D01*
X0083409Y0026815D01*
X0081787Y0027487D01*
X0079960Y0027457D02*
X0077453Y0027457D01*
X0077694Y0026258D02*
X0077854Y0026258D01*
X0076956Y0028655D02*
X0098642Y0028655D01*
X0099458Y0029854D02*
X0076141Y0029854D01*
X0074942Y0031052D02*
X0100656Y0031052D01*
X0091633Y0026258D02*
X0083965Y0026258D01*
X0084862Y0025060D02*
X0090736Y0025060D01*
X0090277Y0023861D02*
X0085321Y0023861D01*
X0085321Y0022663D02*
X0090277Y0022663D01*
X0090581Y0021464D02*
X0085018Y0021464D01*
X0084340Y0020266D02*
X0091259Y0020266D01*
X0092835Y0019067D02*
X0082763Y0019067D01*
X0079056Y0019067D02*
X0072723Y0019067D01*
X0075150Y0020266D02*
X0077479Y0020266D01*
X0076801Y0021464D02*
X0076349Y0021464D01*
X0069411Y0019067D02*
X0065880Y0019067D01*
X0065880Y0018902D02*
X0065218Y0017302D01*
X0063993Y0016078D01*
X0062393Y0015415D01*
X0060662Y0015415D01*
X0059062Y0016078D01*
X0057837Y0017302D01*
X0057175Y0018902D01*
X0057175Y0020634D01*
X0057837Y0022233D01*
X0059062Y0023458D01*
X0060662Y0024120D01*
X0062393Y0024120D01*
X0063993Y0023458D01*
X0065218Y0022233D01*
X0065880Y0020634D01*
X0065880Y0018902D01*
X0065452Y0017869D02*
X0177246Y0017869D01*
X0177213Y0016670D02*
X0064586Y0016670D01*
X0062531Y0015472D02*
X0176400Y0015472D01*
X0171813Y0021464D02*
X0168886Y0021464D01*
X0170325Y0022663D02*
X0170373Y0022663D01*
X0165113Y0021464D02*
X0162186Y0021464D01*
X0163625Y0022663D02*
X0163673Y0022663D01*
X0158413Y0021464D02*
X0155486Y0021464D01*
X0156925Y0022663D02*
X0156973Y0022663D01*
X0151713Y0021464D02*
X0148786Y0021464D01*
X0150225Y0022663D02*
X0150273Y0022663D01*
X0151641Y0028655D02*
X0148857Y0028655D01*
X0144941Y0028655D02*
X0134474Y0028655D01*
X0135952Y0029854D02*
X0177246Y0029854D01*
X0177246Y0031052D02*
X0136489Y0031052D01*
X0136599Y0032251D02*
X0177246Y0032251D01*
X0177246Y0033449D02*
X0136343Y0033449D01*
X0135600Y0034648D02*
X0177246Y0034648D01*
X0177246Y0040641D02*
X0150118Y0040641D01*
X0150599Y0041122D02*
X0149252Y0039775D01*
X0147347Y0039775D01*
X0145999Y0041122D01*
X0145999Y0043027D01*
X0147347Y0044375D01*
X0149252Y0044375D01*
X0150599Y0043027D01*
X0150599Y0041122D01*
X0150599Y0041839D02*
X0177246Y0041839D01*
X0177246Y0043038D02*
X0150589Y0043038D01*
X0149391Y0044236D02*
X0177246Y0044236D01*
X0177246Y0045435D02*
X0064192Y0045435D01*
X0064599Y0046633D02*
X0177246Y0046633D01*
X0177246Y0047832D02*
X0133309Y0047832D01*
X0133252Y0047775D02*
X0134599Y0049122D01*
X0134599Y0051027D01*
X0133252Y0052375D01*
X0131347Y0052375D01*
X0129999Y0051027D01*
X0129999Y0049122D01*
X0131347Y0047775D01*
X0133252Y0047775D01*
X0134507Y0049030D02*
X0177246Y0049030D01*
X0177246Y0050229D02*
X0134599Y0050229D01*
X0134200Y0051427D02*
X0177246Y0051427D01*
X0177246Y0052626D02*
X0061678Y0052626D01*
X0060480Y0051427D02*
X0130399Y0051427D01*
X0129999Y0050229D02*
X0059281Y0050229D01*
X0060597Y0049030D02*
X0061002Y0049030D01*
X0063597Y0049030D02*
X0130091Y0049030D01*
X0131290Y0047832D02*
X0064599Y0047832D01*
X0064599Y0044236D02*
X0107208Y0044236D01*
X0107347Y0044375D02*
X0105999Y0043027D01*
X0105999Y0041122D01*
X0107347Y0039775D01*
X0109252Y0039775D01*
X0110599Y0041122D01*
X0110599Y0043027D01*
X0109252Y0044375D01*
X0107347Y0044375D01*
X0106009Y0043038D02*
X0064515Y0043038D01*
X0063316Y0041839D02*
X0105999Y0041839D01*
X0106481Y0040641D02*
X0049693Y0040641D01*
X0050892Y0041839D02*
X0058282Y0041839D01*
X0057084Y0043038D02*
X0052090Y0043038D01*
X0053289Y0044236D02*
X0056999Y0044236D01*
X0057406Y0045435D02*
X0054487Y0045435D01*
X0055686Y0046633D02*
X0056999Y0046633D01*
X0056999Y0047832D02*
X0056884Y0047832D01*
X0057299Y0054075D02*
X0095299Y0092075D01*
X0095299Y0137075D01*
X0097299Y0139075D01*
X0097299Y0139575D01*
X0095787Y0141316D02*
X0095311Y0141316D01*
X0092287Y0141316D02*
X0092099Y0141316D01*
X0092099Y0142514D02*
X0107607Y0142514D01*
X0106999Y0143122D02*
X0108347Y0141775D01*
X0110252Y0141775D01*
X0111599Y0143122D01*
X0111599Y0145027D01*
X0110252Y0146375D01*
X0108347Y0146375D01*
X0106999Y0145027D01*
X0106999Y0143122D01*
X0106999Y0143713D02*
X0091414Y0143713D01*
X0088184Y0143713D02*
X0087799Y0143713D01*
X0087799Y0144911D02*
X0106999Y0144911D01*
X0108081Y0146110D02*
X0087799Y0146110D01*
X0088099Y0147308D02*
X0118999Y0147308D01*
X0119012Y0146110D02*
X0110517Y0146110D01*
X0111599Y0144911D02*
X0120210Y0144911D01*
X0122388Y0144911D02*
X0249511Y0144911D01*
X0249559Y0144796D02*
X0250275Y0144080D01*
X0249501Y0144080D01*
X0247065Y0143071D01*
X0245200Y0141207D01*
X0244191Y0138771D01*
X0244191Y0136134D01*
X0245200Y0133699D01*
X0247065Y0131834D01*
X0249501Y0130825D01*
X0252137Y0130825D01*
X0254573Y0131834D01*
X0256437Y0133699D01*
X0257446Y0136134D01*
X0257446Y0138771D01*
X0256437Y0141207D01*
X0254590Y0143055D01*
X0255798Y0143555D01*
X0257039Y0144796D01*
X0257711Y0146418D01*
X0257711Y0148173D01*
X0257039Y0149794D01*
X0255798Y0151035D01*
X0254177Y0151707D01*
X0252422Y0151707D01*
X0250800Y0151035D01*
X0249559Y0149794D01*
X0248887Y0148173D01*
X0248887Y0146418D01*
X0249559Y0144796D01*
X0249015Y0146110D02*
X0123587Y0146110D01*
X0123599Y0147308D02*
X0248887Y0147308D01*
X0249026Y0148507D02*
X0190984Y0148507D01*
X0191599Y0149122D02*
X0191599Y0151027D01*
X0190252Y0152375D01*
X0189828Y0152375D01*
X0188299Y0153903D01*
X0188299Y0153903D01*
X0187128Y0155075D01*
X0166552Y0155075D01*
X0166599Y0155122D01*
X0166599Y0157027D01*
X0165252Y0158375D01*
X0163347Y0158375D01*
X0163047Y0158075D01*
X0157128Y0158075D01*
X0154599Y0160603D01*
X0154599Y0161027D01*
X0153252Y0162375D01*
X0151347Y0162375D01*
X0149999Y0161027D01*
X0149999Y0159122D01*
X0151297Y0157825D01*
X0149999Y0156527D01*
X0149999Y0155075D01*
X0135128Y0155075D01*
X0132599Y0157603D01*
X0132599Y0158027D01*
X0131252Y0159375D01*
X0129347Y0159375D01*
X0127999Y0158027D01*
X0127999Y0156122D01*
X0129347Y0154775D01*
X0129771Y0154775D01*
X0132299Y0152246D01*
X0133471Y0151075D01*
X0185471Y0151075D01*
X0186999Y0149546D01*
X0186999Y0149122D01*
X0188347Y0147775D01*
X0190252Y0147775D01*
X0191599Y0149122D01*
X0191599Y0149705D02*
X0249522Y0149705D01*
X0250668Y0150904D02*
X0191599Y0150904D01*
X0190525Y0152102D02*
X0261105Y0152102D01*
X0261105Y0150904D02*
X0255930Y0150904D01*
X0257076Y0149705D02*
X0261105Y0149705D01*
X0261105Y0148507D02*
X0257573Y0148507D01*
X0257711Y0147308D02*
X0261105Y0147308D01*
X0261105Y0146110D02*
X0257583Y0146110D01*
X0257087Y0144911D02*
X0261105Y0144911D01*
X0261105Y0143713D02*
X0255956Y0143713D01*
X0255130Y0142514D02*
X0261105Y0142514D01*
X0261105Y0141316D02*
X0256329Y0141316D01*
X0256889Y0140117D02*
X0261105Y0140117D01*
X0261105Y0138918D02*
X0257385Y0138918D01*
X0257446Y0137720D02*
X0261105Y0137720D01*
X0261105Y0136521D02*
X0257446Y0136521D01*
X0257110Y0135323D02*
X0261105Y0135323D01*
X0261105Y0134124D02*
X0256614Y0134124D01*
X0255665Y0132926D02*
X0261105Y0132926D01*
X0261105Y0131727D02*
X0254315Y0131727D01*
X0261105Y0130529D02*
X0191598Y0130529D01*
X0191252Y0130875D02*
X0192599Y0129527D01*
X0192599Y0127622D01*
X0191252Y0126275D01*
X0189347Y0126275D01*
X0187999Y0127622D01*
X0187999Y0129527D01*
X0189347Y0130875D01*
X0191252Y0130875D01*
X0192599Y0129330D02*
X0261105Y0129330D01*
X0261105Y0128132D02*
X0192599Y0128132D01*
X0191910Y0126933D02*
X0261105Y0126933D01*
X0261105Y0125735D02*
X0158788Y0125735D01*
X0159299Y0126246D02*
X0159299Y0129246D01*
X0162828Y0132775D01*
X0163252Y0132775D01*
X0164599Y0134122D01*
X0164599Y0136027D01*
X0163252Y0137375D01*
X0162099Y0137375D01*
X0162099Y0138527D01*
X0160752Y0139875D01*
X0158847Y0139875D01*
X0157499Y0138527D01*
X0157499Y0136622D01*
X0158847Y0135275D01*
X0159671Y0135275D01*
X0156471Y0132075D01*
X0155299Y0130903D01*
X0155299Y0127903D01*
X0151771Y0124375D01*
X0151347Y0124375D01*
X0149999Y0123027D01*
X0149999Y0121122D01*
X0151347Y0119775D01*
X0153252Y0119775D01*
X0154599Y0121122D01*
X0154599Y0121546D01*
X0159299Y0126246D01*
X0159299Y0126933D02*
X0163188Y0126933D01*
X0163347Y0126775D02*
X0165252Y0126775D01*
X0166599Y0128122D01*
X0166599Y0130027D01*
X0165252Y0131375D01*
X0163347Y0131375D01*
X0161999Y0130027D01*
X0161999Y0128122D01*
X0163347Y0126775D01*
X0161999Y0128132D02*
X0159299Y0128132D01*
X0159383Y0129330D02*
X0161999Y0129330D01*
X0162501Y0130529D02*
X0160582Y0130529D01*
X0161780Y0131727D02*
X0247322Y0131727D01*
X0245973Y0132926D02*
X0163403Y0132926D01*
X0164599Y0134124D02*
X0245024Y0134124D01*
X0244527Y0135323D02*
X0196800Y0135323D01*
X0196752Y0135275D02*
X0198099Y0136622D01*
X0198099Y0138527D01*
X0196752Y0139875D01*
X0194847Y0139875D01*
X0193499Y0138527D01*
X0193499Y0136622D01*
X0194847Y0135275D01*
X0196752Y0135275D01*
X0197999Y0136521D02*
X0244191Y0136521D01*
X0244191Y0137720D02*
X0198099Y0137720D01*
X0197708Y0138918D02*
X0244252Y0138918D01*
X0244749Y0140117D02*
X0140510Y0140117D01*
X0140599Y0140027D02*
X0139252Y0141375D01*
X0137347Y0141375D01*
X0135999Y0140027D01*
X0135999Y0138122D01*
X0137347Y0136775D01*
X0139252Y0136775D01*
X0140599Y0138122D01*
X0140599Y0140027D01*
X0140599Y0138918D02*
X0157890Y0138918D01*
X0157499Y0137720D02*
X0140197Y0137720D01*
X0136401Y0137720D02*
X0122299Y0137720D01*
X0122299Y0138918D02*
X0135999Y0138918D01*
X0136089Y0140117D02*
X0122594Y0140117D01*
X0122599Y0141316D02*
X0137287Y0141316D01*
X0139311Y0141316D02*
X0245309Y0141316D01*
X0246507Y0142514D02*
X0122113Y0142514D01*
X0120299Y0141075D02*
X0120299Y0114075D01*
X0043299Y0037075D01*
X0043959Y0033449D02*
X0057639Y0033449D01*
X0057175Y0032251D02*
X0044424Y0032251D01*
X0044418Y0031052D02*
X0057180Y0031052D01*
X0057704Y0029854D02*
X0043894Y0029854D01*
X0042197Y0028655D02*
X0059401Y0028655D01*
X0061292Y0028655D02*
X0065178Y0028655D01*
X0064681Y0027457D02*
X0028691Y0027457D01*
X0028691Y0026258D02*
X0064439Y0026258D01*
X0064439Y0025060D02*
X0028574Y0025060D01*
X0028078Y0023861D02*
X0038580Y0023861D01*
X0036810Y0022663D02*
X0027582Y0022663D01*
X0026454Y0021464D02*
X0036062Y0021464D01*
X0035718Y0020266D02*
X0025063Y0020266D01*
X0028572Y0028655D02*
X0040307Y0028655D01*
X0038609Y0029854D02*
X0028075Y0029854D01*
X0027579Y0031052D02*
X0038086Y0031052D01*
X0038080Y0032251D02*
X0026447Y0032251D01*
X0025047Y0033449D02*
X0038545Y0033449D01*
X0041562Y0023861D02*
X0060036Y0023861D01*
X0058267Y0022663D02*
X0043331Y0022663D01*
X0044079Y0021464D02*
X0057519Y0021464D01*
X0057175Y0020266D02*
X0044424Y0020266D01*
X0044424Y0019067D02*
X0057175Y0019067D01*
X0057603Y0017869D02*
X0043996Y0017869D01*
X0043129Y0016670D02*
X0058469Y0016670D01*
X0060524Y0015472D02*
X0041074Y0015472D01*
X0036146Y0017869D02*
X0012450Y0017869D01*
X0011482Y0019067D02*
X0035718Y0019067D01*
X0060316Y0041839D02*
X0061282Y0041839D01*
X0063513Y0031052D02*
X0067191Y0031052D01*
X0065993Y0029854D02*
X0062989Y0029854D01*
X0063019Y0023861D02*
X0064595Y0023861D01*
X0064788Y0022663D02*
X0065091Y0022663D01*
X0065536Y0021464D02*
X0065785Y0021464D01*
X0065880Y0020266D02*
X0066983Y0020266D01*
X0062877Y0053824D02*
X0177246Y0053824D01*
X0177246Y0055023D02*
X0154500Y0055023D01*
X0154252Y0054775D02*
X0155599Y0056122D01*
X0155599Y0058027D01*
X0154252Y0059375D01*
X0152347Y0059375D01*
X0150999Y0058027D01*
X0150999Y0056122D01*
X0152347Y0054775D01*
X0154252Y0054775D01*
X0155599Y0056221D02*
X0177246Y0056221D01*
X0177246Y0057420D02*
X0155599Y0057420D01*
X0155008Y0058618D02*
X0177246Y0058618D01*
X0177246Y0059817D02*
X0127517Y0059817D01*
X0127174Y0059675D02*
X0128792Y0060345D01*
X0130029Y0061582D01*
X0130699Y0063200D01*
X0130699Y0064950D01*
X0130029Y0066567D01*
X0128792Y0067805D01*
X0127174Y0068475D01*
X0125424Y0068475D01*
X0123807Y0067805D01*
X0122569Y0066567D01*
X0121899Y0064950D01*
X0121899Y0063200D01*
X0122569Y0061582D01*
X0123807Y0060345D01*
X0125424Y0059675D01*
X0127174Y0059675D01*
X0125081Y0059817D02*
X0068870Y0059817D01*
X0070068Y0061015D02*
X0123136Y0061015D01*
X0122308Y0062214D02*
X0071267Y0062214D01*
X0072465Y0063412D02*
X0105709Y0063412D01*
X0105499Y0063622D02*
X0106847Y0062275D01*
X0108752Y0062275D01*
X0110099Y0063622D01*
X0110099Y0065527D01*
X0109799Y0065827D01*
X0109799Y0068322D01*
X0110099Y0068622D01*
X0110099Y0070527D01*
X0108752Y0071875D01*
X0106847Y0071875D01*
X0105499Y0070527D01*
X0105499Y0068622D01*
X0105799Y0068322D01*
X0105799Y0065827D01*
X0105499Y0065527D01*
X0105499Y0063622D01*
X0105499Y0064611D02*
X0073664Y0064611D01*
X0074862Y0065809D02*
X0105781Y0065809D01*
X0105799Y0067008D02*
X0076061Y0067008D01*
X0077259Y0068206D02*
X0105799Y0068206D01*
X0105499Y0069405D02*
X0078458Y0069405D01*
X0079656Y0070603D02*
X0105575Y0070603D01*
X0106774Y0071802D02*
X0080855Y0071802D01*
X0082053Y0073000D02*
X0177246Y0073000D01*
X0177246Y0071802D02*
X0171231Y0071802D01*
X0171055Y0071875D02*
X0169543Y0071875D01*
X0168147Y0071296D01*
X0167078Y0070227D01*
X0166499Y0068831D01*
X0166499Y0067319D01*
X0167078Y0065922D01*
X0168147Y0064853D01*
X0169543Y0064275D01*
X0171055Y0064275D01*
X0172452Y0064853D01*
X0173521Y0065922D01*
X0174099Y0067319D01*
X0174099Y0068831D01*
X0173521Y0070227D01*
X0172452Y0071296D01*
X0171055Y0071875D01*
X0169367Y0071802D02*
X0157231Y0071802D01*
X0157055Y0071875D02*
X0155543Y0071875D01*
X0154147Y0071296D01*
X0153078Y0070227D01*
X0152499Y0068831D01*
X0152499Y0067319D01*
X0153078Y0065922D01*
X0154147Y0064853D01*
X0155543Y0064275D01*
X0157055Y0064275D01*
X0158452Y0064853D01*
X0159521Y0065922D01*
X0160099Y0067319D01*
X0160099Y0068831D01*
X0159521Y0070227D01*
X0158452Y0071296D01*
X0157055Y0071875D01*
X0155367Y0071802D02*
X0108825Y0071802D01*
X0110023Y0070603D02*
X0153454Y0070603D01*
X0152737Y0069405D02*
X0110099Y0069405D01*
X0109799Y0068206D02*
X0124776Y0068206D01*
X0123010Y0067008D02*
X0109799Y0067008D01*
X0109817Y0065809D02*
X0122255Y0065809D01*
X0121899Y0064611D02*
X0110099Y0064611D01*
X0109889Y0063412D02*
X0121899Y0063412D01*
X0127823Y0068206D02*
X0152499Y0068206D01*
X0152628Y0067008D02*
X0129589Y0067008D01*
X0130343Y0065809D02*
X0153191Y0065809D01*
X0154732Y0064611D02*
X0130699Y0064611D01*
X0130699Y0063412D02*
X0177246Y0063412D01*
X0177246Y0062214D02*
X0130291Y0062214D01*
X0129462Y0061015D02*
X0177246Y0061015D01*
X0177246Y0064611D02*
X0171866Y0064611D01*
X0173408Y0065809D02*
X0177246Y0065809D01*
X0177246Y0067008D02*
X0173970Y0067008D01*
X0174099Y0068206D02*
X0177246Y0068206D01*
X0177246Y0069405D02*
X0173861Y0069405D01*
X0173145Y0070603D02*
X0177246Y0070603D01*
X0177246Y0074199D02*
X0083252Y0074199D01*
X0084450Y0075397D02*
X0177246Y0075397D01*
X0177246Y0076596D02*
X0085649Y0076596D01*
X0086847Y0077794D02*
X0177246Y0077794D01*
X0177246Y0078993D02*
X0088046Y0078993D01*
X0089244Y0080191D02*
X0124177Y0080191D01*
X0123807Y0080345D02*
X0125424Y0079675D01*
X0127174Y0079675D01*
X0128792Y0080345D01*
X0130029Y0081582D01*
X0130699Y0083200D01*
X0130699Y0084950D01*
X0130029Y0086567D01*
X0128792Y0087805D01*
X0127174Y0088475D01*
X0125424Y0088475D01*
X0123807Y0087805D01*
X0122569Y0086567D01*
X0121899Y0084950D01*
X0121899Y0083200D01*
X0122569Y0081582D01*
X0123807Y0080345D01*
X0122762Y0081390D02*
X0090443Y0081390D01*
X0091641Y0082588D02*
X0122152Y0082588D01*
X0121899Y0083787D02*
X0092840Y0083787D01*
X0094038Y0084985D02*
X0121914Y0084985D01*
X0122410Y0086184D02*
X0095237Y0086184D01*
X0096435Y0087383D02*
X0111239Y0087383D01*
X0111847Y0086775D02*
X0113752Y0086775D01*
X0115099Y0088122D01*
X0115099Y0090027D01*
X0113752Y0091375D01*
X0111847Y0091375D01*
X0110499Y0090027D01*
X0110499Y0088122D01*
X0111847Y0086775D01*
X0110499Y0088581D02*
X0097634Y0088581D01*
X0098832Y0089780D02*
X0110499Y0089780D01*
X0111450Y0090978D02*
X0100031Y0090978D01*
X0101229Y0092177D02*
X0179044Y0092177D01*
X0179864Y0092996D02*
X0179864Y0092996D01*
X0180779Y0093375D02*
X0102428Y0093375D01*
X0103626Y0094574D02*
X0261105Y0094574D01*
X0261105Y0095772D02*
X0104825Y0095772D01*
X0106023Y0096971D02*
X0261105Y0096971D01*
X0261105Y0098169D02*
X0107222Y0098169D01*
X0108420Y0099368D02*
X0261105Y0099368D01*
X0261105Y0100566D02*
X0109619Y0100566D01*
X0110817Y0101765D02*
X0261105Y0101765D01*
X0261105Y0102963D02*
X0163440Y0102963D01*
X0163599Y0103122D02*
X0162252Y0101775D01*
X0160347Y0101775D01*
X0158999Y0103122D01*
X0158999Y0105027D01*
X0160347Y0106375D01*
X0162252Y0106375D01*
X0163599Y0105027D01*
X0163599Y0103122D01*
X0163599Y0104162D02*
X0236372Y0104162D01*
X0235834Y0104385D02*
X0237433Y0103722D01*
X0239165Y0103722D01*
X0240765Y0104385D01*
X0241989Y0105609D01*
X0242652Y0107209D01*
X0242652Y0108941D01*
X0241989Y0110540D01*
X0240765Y0111765D01*
X0239165Y0112428D01*
X0237433Y0112428D01*
X0235834Y0111765D01*
X0234609Y0110540D01*
X0233946Y0108941D01*
X0233946Y0107209D01*
X0234609Y0105609D01*
X0235834Y0104385D01*
X0234858Y0105360D02*
X0163267Y0105360D01*
X0163347Y0106775D02*
X0163047Y0107075D01*
X0155471Y0107075D01*
X0151771Y0110775D01*
X0151347Y0110775D01*
X0149999Y0112122D01*
X0149999Y0114027D01*
X0151347Y0115375D01*
X0153252Y0115375D01*
X0154599Y0114027D01*
X0154599Y0113603D01*
X0157128Y0111075D01*
X0163047Y0111075D01*
X0163347Y0111375D01*
X0165252Y0111375D01*
X0166599Y0110027D01*
X0166599Y0108122D01*
X0165252Y0106775D01*
X0163347Y0106775D01*
X0164299Y0109075D02*
X0156299Y0109075D01*
X0152299Y0113075D01*
X0150769Y0111353D02*
X0120406Y0111353D01*
X0121604Y0112551D02*
X0149999Y0112551D01*
X0149999Y0113750D02*
X0122299Y0113750D01*
X0122299Y0114948D02*
X0150920Y0114948D01*
X0153678Y0114948D02*
X0261105Y0114948D01*
X0261105Y0113750D02*
X0154599Y0113750D01*
X0155651Y0112551D02*
X0247459Y0112551D01*
X0247233Y0112515D02*
X0246552Y0112294D01*
X0245913Y0111969D01*
X0245333Y0111547D01*
X0244827Y0111041D01*
X0244405Y0110461D01*
X0244080Y0109822D01*
X0243859Y0109141D01*
X0243751Y0108459D01*
X0247915Y0108459D01*
X0247915Y0107691D01*
X0243751Y0107691D01*
X0243859Y0107009D01*
X0244080Y0106327D01*
X0244405Y0105689D01*
X0244827Y0105109D01*
X0245333Y0104602D01*
X0245913Y0104181D01*
X0246552Y0103856D01*
X0247233Y0103634D01*
X0247915Y0103526D01*
X0247915Y0107690D01*
X0248683Y0107690D01*
X0248683Y0103526D01*
X0249365Y0103634D01*
X0250047Y0103856D01*
X0250685Y0104181D01*
X0251265Y0104602D01*
X0251772Y0105109D01*
X0252193Y0105689D01*
X0252518Y0106327D01*
X0252740Y0107009D01*
X0252848Y0107691D01*
X0248684Y0107691D01*
X0248684Y0108459D01*
X0252848Y0108459D01*
X0252740Y0109141D01*
X0252518Y0109822D01*
X0252193Y0110461D01*
X0251772Y0111041D01*
X0251265Y0111547D01*
X0250685Y0111969D01*
X0250047Y0112294D01*
X0249365Y0112515D01*
X0248683Y0112623D01*
X0248683Y0108459D01*
X0247915Y0108459D01*
X0247915Y0112623D01*
X0247233Y0112515D01*
X0247915Y0112551D02*
X0248683Y0112551D01*
X0249139Y0112551D02*
X0261105Y0112551D01*
X0261105Y0116147D02*
X0122299Y0116147D01*
X0122299Y0117345D02*
X0162776Y0117345D01*
X0163347Y0116775D02*
X0161999Y0118122D01*
X0161999Y0120027D01*
X0163347Y0121375D01*
X0165252Y0121375D01*
X0166599Y0120027D01*
X0166599Y0118122D01*
X0165252Y0116775D01*
X0163347Y0116775D01*
X0161999Y0118544D02*
X0122299Y0118544D01*
X0122299Y0119742D02*
X0161999Y0119742D01*
X0162913Y0120941D02*
X0154418Y0120941D01*
X0155192Y0122139D02*
X0184999Y0122139D01*
X0184999Y0123027D02*
X0184999Y0121122D01*
X0186347Y0119775D01*
X0188252Y0119775D01*
X0189599Y0121122D01*
X0189599Y0123027D01*
X0188252Y0124375D01*
X0186347Y0124375D01*
X0184999Y0123027D01*
X0185310Y0123338D02*
X0156391Y0123338D01*
X0157589Y0124536D02*
X0261105Y0124536D01*
X0261105Y0123338D02*
X0189289Y0123338D01*
X0189599Y0122139D02*
X0261105Y0122139D01*
X0261105Y0120941D02*
X0189418Y0120941D01*
X0185180Y0120941D02*
X0165686Y0120941D01*
X0166599Y0119742D02*
X0261105Y0119742D01*
X0261105Y0118544D02*
X0166599Y0118544D01*
X0165822Y0117345D02*
X0261105Y0117345D01*
X0255421Y0111353D02*
X0251460Y0111353D01*
X0252349Y0110154D02*
X0254449Y0110154D01*
X0253953Y0108956D02*
X0252769Y0108956D01*
X0253946Y0107757D02*
X0248684Y0107757D01*
X0247915Y0107757D02*
X0242652Y0107757D01*
X0242646Y0108956D02*
X0243829Y0108956D01*
X0244249Y0110154D02*
X0242149Y0110154D01*
X0241177Y0111353D02*
X0245139Y0111353D01*
X0247915Y0111353D02*
X0248683Y0111353D01*
X0248683Y0110154D02*
X0247915Y0110154D01*
X0247915Y0108956D02*
X0248683Y0108956D01*
X0248683Y0106559D02*
X0247915Y0106559D01*
X0247915Y0105360D02*
X0248683Y0105360D01*
X0248683Y0104162D02*
X0247915Y0104162D01*
X0245951Y0104162D02*
X0240226Y0104162D01*
X0241740Y0105360D02*
X0244644Y0105360D01*
X0244005Y0106559D02*
X0242383Y0106559D01*
X0235421Y0111353D02*
X0165274Y0111353D01*
X0166472Y0110154D02*
X0234449Y0110154D01*
X0233953Y0108956D02*
X0166599Y0108956D01*
X0166234Y0107757D02*
X0233946Y0107757D01*
X0234216Y0106559D02*
X0115612Y0106559D01*
X0116810Y0107757D02*
X0154788Y0107757D01*
X0153590Y0108956D02*
X0118009Y0108956D01*
X0119207Y0110154D02*
X0152391Y0110154D01*
X0156850Y0111353D02*
X0163324Y0111353D01*
X0159332Y0105360D02*
X0114413Y0105360D01*
X0113214Y0104162D02*
X0158999Y0104162D01*
X0159158Y0102963D02*
X0112016Y0102963D01*
X0108756Y0105360D02*
X0097299Y0105360D01*
X0097299Y0104162D02*
X0107558Y0104162D01*
X0106359Y0102963D02*
X0097299Y0102963D01*
X0097299Y0101765D02*
X0105161Y0101765D01*
X0103962Y0100566D02*
X0097299Y0100566D01*
X0097299Y0099368D02*
X0102764Y0099368D01*
X0101565Y0098169D02*
X0097299Y0098169D01*
X0097299Y0096971D02*
X0100367Y0096971D01*
X0099168Y0095772D02*
X0097299Y0095772D01*
X0097299Y0094574D02*
X0097970Y0094574D01*
X0093299Y0094574D02*
X0027599Y0094574D01*
X0027599Y0095027D02*
X0026252Y0096375D01*
X0024347Y0096375D01*
X0022999Y0095027D01*
X0022999Y0093122D01*
X0024347Y0091775D01*
X0026252Y0091775D01*
X0027599Y0093122D01*
X0027599Y0095027D01*
X0026855Y0095772D02*
X0093299Y0095772D01*
X0093299Y0096971D02*
X0009399Y0096971D01*
X0009399Y0098169D02*
X0093299Y0098169D01*
X0093299Y0099368D02*
X0043845Y0099368D01*
X0043252Y0098775D02*
X0044599Y0100122D01*
X0044599Y0102027D01*
X0043252Y0103375D01*
X0041347Y0103375D01*
X0039999Y0102027D01*
X0039999Y0100122D01*
X0041347Y0098775D01*
X0043252Y0098775D01*
X0044599Y0100566D02*
X0093299Y0100566D01*
X0093299Y0101765D02*
X0044599Y0101765D01*
X0043664Y0102963D02*
X0093299Y0102963D01*
X0093299Y0104162D02*
X0009399Y0104162D01*
X0009399Y0105360D02*
X0093299Y0105360D01*
X0093299Y0106559D02*
X0009399Y0106559D01*
X0009399Y0107757D02*
X0011349Y0107757D01*
X0013250Y0107757D02*
X0020854Y0107757D01*
X0020552Y0107856D02*
X0021233Y0107634D01*
X0021915Y0107526D01*
X0021915Y0111690D01*
X0022683Y0111690D01*
X0022683Y0107526D01*
X0023365Y0107634D01*
X0024047Y0107856D01*
X0024685Y0108181D01*
X0025265Y0108602D01*
X0025772Y0109109D01*
X0026193Y0109689D01*
X0026518Y0110327D01*
X0026740Y0111009D01*
X0026848Y0111691D01*
X0022684Y0111691D01*
X0022684Y0112459D01*
X0026848Y0112459D01*
X0026740Y0113141D01*
X0026518Y0113822D01*
X0026193Y0114461D01*
X0025772Y0115041D01*
X0025265Y0115547D01*
X0024685Y0115969D01*
X0024047Y0116294D01*
X0023365Y0116515D01*
X0022683Y0116623D01*
X0022683Y0112459D01*
X0021915Y0112459D01*
X0021915Y0111691D01*
X0017751Y0111691D01*
X0017859Y0111009D01*
X0018080Y0110327D01*
X0018405Y0109689D01*
X0018827Y0109109D01*
X0019333Y0108602D01*
X0019913Y0108181D01*
X0020552Y0107856D01*
X0021915Y0107757D02*
X0022683Y0107757D01*
X0023744Y0107757D02*
X0031349Y0107757D01*
X0031433Y0107722D02*
X0033165Y0107722D01*
X0034765Y0108385D01*
X0035989Y0109609D01*
X0036652Y0111209D01*
X0036652Y0112941D01*
X0035989Y0114540D01*
X0034765Y0115765D01*
X0033165Y0116428D01*
X0031433Y0116428D01*
X0029834Y0115765D01*
X0028609Y0114540D01*
X0027946Y0112941D01*
X0027946Y0111209D01*
X0028609Y0109609D01*
X0029834Y0108385D01*
X0031433Y0107722D01*
X0033250Y0107757D02*
X0041349Y0107757D01*
X0041433Y0107722D02*
X0043165Y0107722D01*
X0044765Y0108385D01*
X0045989Y0109609D01*
X0046652Y0111209D01*
X0046652Y0112941D01*
X0045989Y0114540D01*
X0044765Y0115765D01*
X0043165Y0116428D01*
X0041433Y0116428D01*
X0039834Y0115765D01*
X0038609Y0114540D01*
X0037946Y0112941D01*
X0037946Y0111209D01*
X0038609Y0109609D01*
X0039834Y0108385D01*
X0041433Y0107722D01*
X0043250Y0107757D02*
X0093299Y0107757D01*
X0093299Y0108956D02*
X0045336Y0108956D01*
X0046215Y0110154D02*
X0093299Y0110154D01*
X0093299Y0111353D02*
X0073330Y0111353D01*
X0073252Y0111275D02*
X0074599Y0112622D01*
X0074599Y0114527D01*
X0073252Y0115875D01*
X0071347Y0115875D01*
X0069999Y0114527D01*
X0069999Y0112622D01*
X0071347Y0111275D01*
X0073252Y0111275D01*
X0074528Y0112551D02*
X0093299Y0112551D01*
X0093299Y0113750D02*
X0074599Y0113750D01*
X0074178Y0114948D02*
X0075173Y0114948D01*
X0074999Y0115122D02*
X0076347Y0113775D01*
X0078252Y0113775D01*
X0079599Y0115122D01*
X0079599Y0117027D01*
X0078252Y0118375D01*
X0076347Y0118375D01*
X0074999Y0117027D01*
X0074999Y0115122D01*
X0074999Y0116147D02*
X0043843Y0116147D01*
X0045581Y0114948D02*
X0070420Y0114948D01*
X0069999Y0113750D02*
X0046317Y0113750D01*
X0046652Y0112551D02*
X0070070Y0112551D01*
X0071269Y0111353D02*
X0046652Y0111353D01*
X0040756Y0116147D02*
X0033843Y0116147D01*
X0035581Y0114948D02*
X0039017Y0114948D01*
X0038282Y0113750D02*
X0036317Y0113750D01*
X0036652Y0112551D02*
X0037946Y0112551D01*
X0037946Y0111353D02*
X0036652Y0111353D01*
X0036215Y0110154D02*
X0038383Y0110154D01*
X0039263Y0108956D02*
X0035336Y0108956D01*
X0029263Y0108956D02*
X0025619Y0108956D01*
X0026430Y0110154D02*
X0028383Y0110154D01*
X0027946Y0111353D02*
X0026794Y0111353D01*
X0026833Y0112551D02*
X0027946Y0112551D01*
X0028282Y0113750D02*
X0026542Y0113750D01*
X0025839Y0114948D02*
X0029017Y0114948D01*
X0030756Y0116147D02*
X0024336Y0116147D01*
X0022683Y0116147D02*
X0021915Y0116147D01*
X0021915Y0116623D02*
X0021233Y0116515D01*
X0020552Y0116294D01*
X0019913Y0115969D01*
X0019333Y0115547D01*
X0018827Y0115041D01*
X0018405Y0114461D01*
X0018080Y0113822D01*
X0017859Y0113141D01*
X0017751Y0112459D01*
X0021915Y0112459D01*
X0021915Y0116623D01*
X0021915Y0114948D02*
X0022683Y0114948D01*
X0022683Y0113750D02*
X0021915Y0113750D01*
X0021915Y0112551D02*
X0022683Y0112551D01*
X0022683Y0111353D02*
X0021915Y0111353D01*
X0021915Y0110154D02*
X0022683Y0110154D01*
X0022683Y0108956D02*
X0021915Y0108956D01*
X0018980Y0108956D02*
X0015336Y0108956D01*
X0016215Y0110154D02*
X0018168Y0110154D01*
X0017804Y0111353D02*
X0016652Y0111353D01*
X0016652Y0112551D02*
X0017765Y0112551D01*
X0018056Y0113750D02*
X0016317Y0113750D01*
X0015581Y0114948D02*
X0018759Y0114948D01*
X0020263Y0116147D02*
X0013843Y0116147D01*
X0009399Y0119742D02*
X0018999Y0119742D01*
X0018999Y0119622D02*
X0020347Y0118275D01*
X0022252Y0118275D01*
X0023599Y0119622D01*
X0023599Y0121527D01*
X0022252Y0122875D01*
X0020347Y0122875D01*
X0018999Y0121527D01*
X0018999Y0119622D01*
X0018999Y0120941D02*
X0009399Y0120941D01*
X0009399Y0122139D02*
X0019611Y0122139D01*
X0022987Y0122139D02*
X0061999Y0122139D01*
X0061999Y0122122D02*
X0063347Y0120775D01*
X0065252Y0120775D01*
X0066599Y0122122D01*
X0066599Y0124027D01*
X0065252Y0125375D01*
X0063347Y0125375D01*
X0061999Y0124027D01*
X0061999Y0122122D01*
X0061999Y0123338D02*
X0009399Y0123338D01*
X0009399Y0124536D02*
X0062508Y0124536D01*
X0063347Y0125775D02*
X0065252Y0125775D01*
X0066599Y0127122D01*
X0066599Y0129027D01*
X0065252Y0130375D01*
X0063347Y0130375D01*
X0061999Y0129027D01*
X0061999Y0127122D01*
X0063347Y0125775D01*
X0062188Y0126933D02*
X0009399Y0126933D01*
X0009399Y0125735D02*
X0075499Y0125735D01*
X0075499Y0126933D02*
X0066410Y0126933D01*
X0066599Y0128132D02*
X0076104Y0128132D01*
X0079495Y0128132D02*
X0079604Y0128132D01*
X0081226Y0129330D02*
X0066296Y0129330D01*
X0062302Y0129330D02*
X0009399Y0129330D01*
X0009399Y0128132D02*
X0061999Y0128132D01*
X0059506Y0130529D02*
X0082425Y0130529D01*
X0083623Y0131727D02*
X0060599Y0131727D01*
X0060599Y0131622D02*
X0059252Y0130275D01*
X0057347Y0130275D01*
X0055999Y0131622D01*
X0055999Y0133527D01*
X0057347Y0134875D01*
X0059252Y0134875D01*
X0060599Y0133527D01*
X0060599Y0131622D01*
X0060599Y0132926D02*
X0083799Y0132926D01*
X0083799Y0134124D02*
X0060002Y0134124D01*
X0056596Y0134124D02*
X0009399Y0134124D01*
X0009399Y0132926D02*
X0055999Y0132926D01*
X0055999Y0131727D02*
X0009399Y0131727D01*
X0009399Y0130529D02*
X0057092Y0130529D01*
X0066090Y0124536D02*
X0076585Y0124536D01*
X0079013Y0124536D02*
X0080085Y0124536D01*
X0081299Y0126575D02*
X0085799Y0131075D01*
X0085799Y0147575D01*
X0083499Y0147308D02*
X0054599Y0147308D01*
X0054599Y0147527D02*
X0053252Y0148875D01*
X0051347Y0148875D01*
X0049999Y0147527D01*
X0049999Y0145622D01*
X0051347Y0144275D01*
X0053252Y0144275D01*
X0054599Y0145622D01*
X0054599Y0147527D01*
X0053620Y0148507D02*
X0059615Y0148507D01*
X0058999Y0149705D02*
X0009399Y0149705D01*
X0009399Y0148507D02*
X0045478Y0148507D01*
X0044999Y0148027D02*
X0044999Y0146122D01*
X0046347Y0144775D01*
X0048252Y0144775D01*
X0049599Y0146122D01*
X0049599Y0148027D01*
X0048252Y0149375D01*
X0046347Y0149375D01*
X0044999Y0148027D01*
X0044999Y0147308D02*
X0009399Y0147308D01*
X0009399Y0146110D02*
X0045012Y0146110D01*
X0046210Y0144911D02*
X0009399Y0144911D01*
X0009399Y0143713D02*
X0076999Y0143713D01*
X0076999Y0143122D02*
X0078347Y0141775D01*
X0080252Y0141775D01*
X0081599Y0143122D01*
X0081599Y0145027D01*
X0080252Y0146375D01*
X0078347Y0146375D01*
X0076999Y0145027D01*
X0076999Y0143122D01*
X0077607Y0142514D02*
X0045016Y0142514D01*
X0044765Y0142765D02*
X0043165Y0143428D01*
X0041433Y0143428D01*
X0039834Y0142765D01*
X0038609Y0141540D01*
X0037946Y0139941D01*
X0037946Y0138209D01*
X0038609Y0136609D01*
X0039834Y0135385D01*
X0041433Y0134722D01*
X0043165Y0134722D01*
X0044765Y0135385D01*
X0045989Y0136609D01*
X0046652Y0138209D01*
X0046652Y0139941D01*
X0045989Y0141540D01*
X0044765Y0142765D01*
X0046082Y0141316D02*
X0083799Y0141316D01*
X0083799Y0142514D02*
X0080991Y0142514D01*
X0081599Y0143713D02*
X0083799Y0143713D01*
X0083799Y0144911D02*
X0081599Y0144911D01*
X0080517Y0146110D02*
X0083799Y0146110D01*
X0078081Y0146110D02*
X0054599Y0146110D01*
X0053888Y0144911D02*
X0076999Y0144911D01*
X0083799Y0140117D02*
X0046579Y0140117D01*
X0046652Y0138918D02*
X0083799Y0138918D01*
X0083799Y0137720D02*
X0046449Y0137720D01*
X0045902Y0136521D02*
X0083799Y0136521D01*
X0083799Y0135323D02*
X0044616Y0135323D01*
X0039983Y0135323D02*
X0034616Y0135323D01*
X0034765Y0135385D02*
X0035989Y0136609D01*
X0036652Y0138209D01*
X0036652Y0139941D01*
X0035989Y0141540D01*
X0034765Y0142765D01*
X0033165Y0143428D01*
X0031433Y0143428D01*
X0029834Y0142765D01*
X0028609Y0141540D01*
X0027946Y0139941D01*
X0027946Y0138209D01*
X0028609Y0136609D01*
X0029834Y0135385D01*
X0031433Y0134722D01*
X0033165Y0134722D01*
X0034765Y0135385D01*
X0035902Y0136521D02*
X0038697Y0136521D01*
X0038149Y0137720D02*
X0036449Y0137720D01*
X0036652Y0138918D02*
X0037946Y0138918D01*
X0038020Y0140117D02*
X0036579Y0140117D01*
X0036082Y0141316D02*
X0038516Y0141316D01*
X0039583Y0142514D02*
X0035016Y0142514D01*
X0029583Y0142514D02*
X0025016Y0142514D01*
X0024765Y0142765D02*
X0025989Y0141540D01*
X0026652Y0139941D01*
X0026652Y0138209D01*
X0025989Y0136609D01*
X0024765Y0135385D01*
X0023165Y0134722D01*
X0021433Y0134722D01*
X0019834Y0135385D01*
X0018609Y0136609D01*
X0017946Y0138209D01*
X0017946Y0139941D01*
X0018609Y0141540D01*
X0019834Y0142765D01*
X0021433Y0143428D01*
X0023165Y0143428D01*
X0024765Y0142765D01*
X0026082Y0141316D02*
X0028516Y0141316D01*
X0028020Y0140117D02*
X0026579Y0140117D01*
X0026652Y0138918D02*
X0027946Y0138918D01*
X0028149Y0137720D02*
X0026449Y0137720D01*
X0025902Y0136521D02*
X0028697Y0136521D01*
X0029983Y0135323D02*
X0024616Y0135323D01*
X0019983Y0135323D02*
X0014616Y0135323D01*
X0015902Y0136521D02*
X0018697Y0136521D01*
X0018149Y0137720D02*
X0016449Y0137720D01*
X0016652Y0138918D02*
X0017946Y0138918D01*
X0018020Y0140117D02*
X0016579Y0140117D01*
X0016082Y0141316D02*
X0018516Y0141316D01*
X0019583Y0142514D02*
X0015016Y0142514D01*
X0009583Y0142514D02*
X0009399Y0142514D01*
X0009399Y0135323D02*
X0009983Y0135323D01*
X0023599Y0120941D02*
X0063180Y0120941D01*
X0065418Y0120941D02*
X0093299Y0120941D01*
X0093299Y0122139D02*
X0066599Y0122139D01*
X0066599Y0123338D02*
X0093299Y0123338D01*
X0093299Y0124536D02*
X0082513Y0124536D01*
X0083599Y0125735D02*
X0093299Y0125735D01*
X0093299Y0126933D02*
X0084486Y0126933D01*
X0085685Y0128132D02*
X0093299Y0128132D01*
X0090791Y0129330D02*
X0086883Y0129330D01*
X0087799Y0130529D02*
X0089999Y0130529D01*
X0089999Y0131727D02*
X0087799Y0131727D01*
X0087799Y0132926D02*
X0090898Y0132926D01*
X0093299Y0134124D02*
X0087799Y0134124D01*
X0087799Y0135323D02*
X0093299Y0135323D01*
X0093299Y0136521D02*
X0087799Y0136521D01*
X0087799Y0137720D02*
X0092401Y0137720D01*
X0091499Y0138918D02*
X0087799Y0138918D01*
X0087799Y0140117D02*
X0088504Y0140117D01*
X0091094Y0140117D02*
X0091499Y0140117D01*
X0097574Y0136521D02*
X0118299Y0136521D01*
X0118299Y0135323D02*
X0108304Y0135323D01*
X0108252Y0135375D02*
X0106347Y0135375D01*
X0104999Y0134027D01*
X0104999Y0132122D01*
X0106347Y0130775D01*
X0108252Y0130775D01*
X0109599Y0132122D01*
X0109599Y0134027D01*
X0108252Y0135375D01*
X0109502Y0134124D02*
X0118299Y0134124D01*
X0118299Y0132926D02*
X0109599Y0132926D01*
X0109205Y0131727D02*
X0118299Y0131727D01*
X0118299Y0130529D02*
X0097299Y0130529D01*
X0097299Y0131727D02*
X0105394Y0131727D01*
X0104999Y0132926D02*
X0097299Y0132926D01*
X0097299Y0134124D02*
X0105096Y0134124D01*
X0106295Y0135323D02*
X0097299Y0135323D01*
X0098773Y0137720D02*
X0118299Y0137720D01*
X0118299Y0138918D02*
X0099599Y0138918D01*
X0099599Y0140117D02*
X0118004Y0140117D01*
X0117999Y0141316D02*
X0098811Y0141316D01*
X0097299Y0129330D02*
X0118299Y0129330D01*
X0118299Y0128132D02*
X0097299Y0128132D01*
X0097299Y0126933D02*
X0118299Y0126933D01*
X0118299Y0125735D02*
X0097299Y0125735D01*
X0097299Y0124536D02*
X0118299Y0124536D01*
X0118299Y0123338D02*
X0097299Y0123338D01*
X0097299Y0122139D02*
X0118299Y0122139D01*
X0118299Y0120941D02*
X0097299Y0120941D01*
X0097299Y0119742D02*
X0118299Y0119742D01*
X0118299Y0118544D02*
X0097299Y0118544D01*
X0100281Y0117345D02*
X0118299Y0117345D01*
X0118299Y0116147D02*
X0100599Y0116147D01*
X0100425Y0114948D02*
X0118299Y0114948D01*
X0117146Y0113750D02*
X0097299Y0113750D01*
X0097299Y0112551D02*
X0115947Y0112551D01*
X0114749Y0111353D02*
X0097299Y0111353D01*
X0097299Y0110154D02*
X0113550Y0110154D01*
X0112352Y0108956D02*
X0097299Y0108956D01*
X0097299Y0107757D02*
X0111153Y0107757D01*
X0109955Y0106559D02*
X0097299Y0106559D01*
X0093299Y0114948D02*
X0079425Y0114948D01*
X0079599Y0116147D02*
X0093299Y0116147D01*
X0093299Y0117345D02*
X0079281Y0117345D01*
X0075317Y0117345D02*
X0009399Y0117345D01*
X0009399Y0116147D02*
X0010756Y0116147D01*
X0009399Y0118544D02*
X0020078Y0118544D01*
X0022521Y0118544D02*
X0093299Y0118544D01*
X0093299Y0119742D02*
X0023599Y0119742D01*
X0009399Y0102963D02*
X0040935Y0102963D01*
X0039999Y0101765D02*
X0009399Y0101765D01*
X0009399Y0100566D02*
X0039999Y0100566D01*
X0040754Y0099368D02*
X0009399Y0099368D01*
X0009399Y0095772D02*
X0023744Y0095772D01*
X0022999Y0094574D02*
X0009399Y0094574D01*
X0009399Y0093375D02*
X0022999Y0093375D01*
X0023945Y0092177D02*
X0009399Y0092177D01*
X0009399Y0090978D02*
X0073450Y0090978D01*
X0073847Y0091375D02*
X0072499Y0090027D01*
X0072499Y0088122D01*
X0073847Y0086775D01*
X0075752Y0086775D01*
X0077099Y0088122D01*
X0077099Y0090027D01*
X0075752Y0091375D01*
X0073847Y0091375D01*
X0072499Y0089780D02*
X0015847Y0089780D01*
X0016099Y0089527D02*
X0014752Y0090875D01*
X0012847Y0090875D01*
X0011499Y0089527D01*
X0011499Y0087622D01*
X0012847Y0086275D01*
X0014752Y0086275D01*
X0016099Y0087622D01*
X0016099Y0089527D01*
X0016099Y0088581D02*
X0027553Y0088581D01*
X0027847Y0088875D02*
X0026499Y0087527D01*
X0026499Y0085622D01*
X0027847Y0084275D01*
X0029752Y0084275D01*
X0031099Y0085622D01*
X0031099Y0087527D01*
X0029752Y0088875D01*
X0027847Y0088875D01*
X0026499Y0087383D02*
X0015860Y0087383D01*
X0011739Y0087383D02*
X0009399Y0087383D01*
X0009399Y0088581D02*
X0011499Y0088581D01*
X0011751Y0089780D02*
X0009399Y0089780D01*
X0009399Y0086184D02*
X0026499Y0086184D01*
X0027136Y0084985D02*
X0009399Y0084985D01*
X0009399Y0083787D02*
X0023759Y0083787D01*
X0024347Y0084375D02*
X0022999Y0083027D01*
X0022999Y0081122D01*
X0024347Y0079775D01*
X0026252Y0079775D01*
X0027599Y0081122D01*
X0027599Y0083027D01*
X0026252Y0084375D01*
X0024347Y0084375D01*
X0022999Y0082588D02*
X0009399Y0082588D01*
X0009399Y0081390D02*
X0022999Y0081390D01*
X0023930Y0080191D02*
X0009399Y0080191D01*
X0009399Y0078993D02*
X0079389Y0078993D01*
X0080587Y0080191D02*
X0026669Y0080191D01*
X0027599Y0081390D02*
X0081786Y0081390D01*
X0082984Y0082588D02*
X0027599Y0082588D01*
X0026840Y0083787D02*
X0084183Y0083787D01*
X0085381Y0084985D02*
X0030463Y0084985D01*
X0031099Y0086184D02*
X0086580Y0086184D01*
X0087779Y0087383D02*
X0076360Y0087383D01*
X0077099Y0088581D02*
X0088977Y0088581D01*
X0090176Y0089780D02*
X0077099Y0089780D01*
X0076149Y0090978D02*
X0091374Y0090978D01*
X0092573Y0092177D02*
X0026654Y0092177D01*
X0027599Y0093375D02*
X0093299Y0093375D01*
X0078190Y0077794D02*
X0029304Y0077794D01*
X0029302Y0077796D02*
X0027159Y0078683D01*
X0024841Y0078683D01*
X0022698Y0077796D01*
X0021058Y0076156D01*
X0020171Y0074014D01*
X0020171Y0071695D01*
X0021058Y0069552D01*
X0022698Y0067913D01*
X0024841Y0067025D01*
X0027159Y0067025D01*
X0029302Y0067913D01*
X0030942Y0069552D01*
X0031829Y0071695D01*
X0031829Y0074014D01*
X0030942Y0076156D01*
X0029302Y0077796D01*
X0030502Y0076596D02*
X0076992Y0076596D01*
X0075793Y0075397D02*
X0031256Y0075397D01*
X0031752Y0074199D02*
X0035171Y0074199D01*
X0034499Y0073527D02*
X0035847Y0074875D01*
X0037752Y0074875D01*
X0039099Y0073527D01*
X0039099Y0071622D01*
X0037752Y0070275D01*
X0035847Y0070275D01*
X0034499Y0071622D01*
X0034499Y0073527D01*
X0034499Y0073000D02*
X0031829Y0073000D01*
X0031829Y0071802D02*
X0034499Y0071802D01*
X0035518Y0070603D02*
X0031377Y0070603D01*
X0030794Y0069405D02*
X0069801Y0069405D01*
X0070999Y0070603D02*
X0038080Y0070603D01*
X0039099Y0071802D02*
X0072198Y0071802D01*
X0073396Y0073000D02*
X0039099Y0073000D01*
X0038428Y0074199D02*
X0074595Y0074199D01*
X0068602Y0068206D02*
X0029596Y0068206D01*
X0022404Y0068206D02*
X0020510Y0068206D01*
X0020510Y0068799D02*
X0019848Y0070399D01*
X0018623Y0071623D01*
X0017023Y0072286D01*
X0015292Y0072286D01*
X0013692Y0071623D01*
X0012467Y0070399D01*
X0011805Y0068799D01*
X0011805Y0067067D01*
X0012467Y0065467D01*
X0013692Y0064243D01*
X0015292Y0063580D01*
X0017023Y0063580D01*
X0018623Y0064243D01*
X0019848Y0065467D01*
X0020510Y0067067D01*
X0020510Y0068799D01*
X0020259Y0069405D02*
X0021206Y0069405D01*
X0020623Y0070603D02*
X0019643Y0070603D01*
X0020171Y0071802D02*
X0018192Y0071802D01*
X0020171Y0073000D02*
X0009399Y0073000D01*
X0009399Y0071802D02*
X0014123Y0071802D01*
X0012672Y0070603D02*
X0009399Y0070603D01*
X0009399Y0069405D02*
X0012056Y0069405D01*
X0011805Y0068206D02*
X0009399Y0068206D01*
X0009399Y0067008D02*
X0011829Y0067008D01*
X0012326Y0065809D02*
X0009399Y0065809D01*
X0009399Y0064611D02*
X0013324Y0064611D01*
X0009399Y0063412D02*
X0063808Y0063412D01*
X0062610Y0062214D02*
X0009399Y0062214D01*
X0009399Y0061015D02*
X0061411Y0061015D01*
X0060213Y0059817D02*
X0009399Y0059817D01*
X0009399Y0058618D02*
X0059014Y0058618D01*
X0057816Y0057420D02*
X0009399Y0057420D01*
X0009399Y0056221D02*
X0054193Y0056221D01*
X0056405Y0056221D02*
X0056617Y0056221D01*
X0057299Y0054075D02*
X0055299Y0054075D01*
X0064076Y0055023D02*
X0152099Y0055023D01*
X0150999Y0056221D02*
X0065274Y0056221D01*
X0066473Y0057420D02*
X0150999Y0057420D01*
X0151590Y0058618D02*
X0067671Y0058618D01*
X0065007Y0064611D02*
X0018991Y0064611D01*
X0019989Y0065809D02*
X0066205Y0065809D01*
X0067404Y0067008D02*
X0020486Y0067008D01*
X0020248Y0074199D02*
X0009399Y0074199D01*
X0009399Y0075397D02*
X0020744Y0075397D01*
X0021498Y0076596D02*
X0009399Y0076596D01*
X0009399Y0077794D02*
X0022696Y0077794D01*
X0031099Y0087383D02*
X0073239Y0087383D01*
X0072499Y0088581D02*
X0030046Y0088581D01*
X0048388Y0144911D02*
X0050710Y0144911D01*
X0049999Y0146110D02*
X0049587Y0146110D01*
X0049599Y0147308D02*
X0049999Y0147308D01*
X0049120Y0148507D02*
X0050978Y0148507D01*
X0050718Y0150904D02*
X0009399Y0150904D01*
X0009399Y0152102D02*
X0049519Y0152102D01*
X0049499Y0153301D02*
X0037778Y0153301D01*
X0037752Y0153275D02*
X0039099Y0154622D01*
X0039099Y0156527D01*
X0037752Y0157875D01*
X0035847Y0157875D01*
X0034499Y0156527D01*
X0034499Y0154622D01*
X0035847Y0153275D01*
X0037752Y0153275D01*
X0038976Y0154499D02*
X0049971Y0154499D01*
X0050348Y0155698D02*
X0039099Y0155698D01*
X0038731Y0156896D02*
X0049149Y0156896D01*
X0047951Y0158095D02*
X0009399Y0158095D01*
X0009399Y0159293D02*
X0046752Y0159293D01*
X0045554Y0160492D02*
X0009399Y0160492D01*
X0009399Y0161690D02*
X0021061Y0161690D01*
X0021233Y0161634D02*
X0020552Y0161856D01*
X0019913Y0162181D01*
X0019333Y0162602D01*
X0018827Y0163109D01*
X0018405Y0163689D01*
X0018080Y0164327D01*
X0017859Y0165009D01*
X0017751Y0165691D01*
X0021915Y0165691D01*
X0021915Y0166459D01*
X0017751Y0166459D01*
X0017859Y0167141D01*
X0018080Y0167822D01*
X0018405Y0168461D01*
X0018827Y0169041D01*
X0019333Y0169547D01*
X0019913Y0169969D01*
X0020552Y0170294D01*
X0021233Y0170515D01*
X0021915Y0170623D01*
X0021915Y0166459D01*
X0022683Y0166459D01*
X0022683Y0170623D01*
X0023365Y0170515D01*
X0024047Y0170294D01*
X0024685Y0169969D01*
X0025265Y0169547D01*
X0025772Y0169041D01*
X0026193Y0168461D01*
X0026518Y0167822D01*
X0026740Y0167141D01*
X0026848Y0166459D01*
X0022684Y0166459D01*
X0022684Y0165691D01*
X0026848Y0165691D01*
X0026740Y0165009D01*
X0026518Y0164327D01*
X0026193Y0163689D01*
X0025772Y0163109D01*
X0025265Y0162602D01*
X0024685Y0162181D01*
X0024047Y0161856D01*
X0023365Y0161634D01*
X0022683Y0161526D01*
X0022683Y0165690D01*
X0021915Y0165690D01*
X0021915Y0161526D01*
X0021233Y0161634D01*
X0021915Y0161690D02*
X0022683Y0161690D01*
X0023538Y0161690D02*
X0044355Y0161690D01*
X0043157Y0162889D02*
X0035269Y0162889D01*
X0034765Y0162385D02*
X0035989Y0163609D01*
X0036652Y0165209D01*
X0036652Y0166941D01*
X0035989Y0168540D01*
X0034765Y0169765D01*
X0033165Y0170428D01*
X0031433Y0170428D01*
X0029834Y0169765D01*
X0028609Y0168540D01*
X0027946Y0166941D01*
X0027946Y0165209D01*
X0028609Y0163609D01*
X0029834Y0162385D01*
X0031433Y0161722D01*
X0033165Y0161722D01*
X0034765Y0162385D01*
X0036187Y0164087D02*
X0041958Y0164087D01*
X0040760Y0165286D02*
X0036652Y0165286D01*
X0036652Y0166484D02*
X0039561Y0166484D01*
X0038363Y0167683D02*
X0036345Y0167683D01*
X0035648Y0168881D02*
X0037164Y0168881D01*
X0035966Y0170080D02*
X0034005Y0170080D01*
X0034799Y0171278D02*
X0009399Y0171278D01*
X0009399Y0170080D02*
X0010594Y0170080D01*
X0009399Y0172477D02*
X0034799Y0172477D01*
X0034799Y0173675D02*
X0009399Y0173675D01*
X0009399Y0174874D02*
X0034799Y0174874D01*
X0034799Y0176072D02*
X0009399Y0176072D01*
X0009399Y0177271D02*
X0034799Y0177271D01*
X0034799Y0178469D02*
X0032946Y0178469D01*
X0032752Y0178275D02*
X0034099Y0179622D01*
X0034099Y0181527D01*
X0032752Y0182875D01*
X0030847Y0182875D01*
X0029499Y0181527D01*
X0029499Y0179622D01*
X0030847Y0178275D01*
X0032752Y0178275D01*
X0034099Y0179668D02*
X0034799Y0179668D01*
X0034799Y0180866D02*
X0034099Y0180866D01*
X0033562Y0182065D02*
X0034799Y0182065D01*
X0034799Y0183263D02*
X0009399Y0183263D01*
X0009399Y0182065D02*
X0030037Y0182065D01*
X0029499Y0180866D02*
X0009399Y0180866D01*
X0009399Y0179668D02*
X0029499Y0179668D01*
X0030652Y0178469D02*
X0009399Y0178469D01*
X0009399Y0184462D02*
X0034799Y0184462D01*
X0034799Y0185660D02*
X0009399Y0185660D01*
X0009399Y0186859D02*
X0034799Y0186859D01*
X0034488Y0188057D02*
X0009399Y0188057D01*
X0009399Y0189256D02*
X0010144Y0189256D01*
X0014454Y0189256D02*
X0019810Y0189256D01*
X0019913Y0189181D02*
X0020552Y0188856D01*
X0021233Y0188634D01*
X0021915Y0188526D01*
X0021915Y0192690D01*
X0022683Y0192690D01*
X0022683Y0188526D01*
X0023365Y0188634D01*
X0024047Y0188856D01*
X0024685Y0189181D01*
X0025265Y0189602D01*
X0025772Y0190109D01*
X0026193Y0190689D01*
X0026518Y0191327D01*
X0026740Y0192009D01*
X0026848Y0192691D01*
X0022684Y0192691D01*
X0022684Y0193459D01*
X0026848Y0193459D01*
X0026740Y0194141D01*
X0026518Y0194822D01*
X0026193Y0195461D01*
X0025772Y0196041D01*
X0025265Y0196547D01*
X0024685Y0196969D01*
X0024047Y0197294D01*
X0023365Y0197515D01*
X0022683Y0197623D01*
X0022683Y0193459D01*
X0021915Y0193459D01*
X0021915Y0192691D01*
X0017751Y0192691D01*
X0017859Y0192009D01*
X0018080Y0191327D01*
X0018405Y0190689D01*
X0018827Y0190109D01*
X0019333Y0189602D01*
X0019913Y0189181D01*
X0018575Y0190454D02*
X0015835Y0190454D01*
X0016422Y0191653D02*
X0017974Y0191653D01*
X0016652Y0192852D02*
X0021915Y0192852D01*
X0021915Y0193459D02*
X0017751Y0193459D01*
X0017859Y0194141D01*
X0018080Y0194822D01*
X0018405Y0195461D01*
X0018827Y0196041D01*
X0019333Y0196547D01*
X0019913Y0196969D01*
X0020552Y0197294D01*
X0021233Y0197515D01*
X0021915Y0197623D01*
X0021915Y0193459D01*
X0021915Y0194050D02*
X0022683Y0194050D01*
X0022684Y0192852D02*
X0027946Y0192852D01*
X0027992Y0194050D02*
X0026754Y0194050D01*
X0026301Y0195249D02*
X0028488Y0195249D01*
X0029516Y0196447D02*
X0025366Y0196447D01*
X0022683Y0196447D02*
X0021915Y0196447D01*
X0021915Y0195249D02*
X0022683Y0195249D01*
X0022683Y0191653D02*
X0021915Y0191653D01*
X0021915Y0190454D02*
X0022683Y0190454D01*
X0022683Y0189256D02*
X0021915Y0189256D01*
X0024789Y0189256D02*
X0030144Y0189256D01*
X0028764Y0190454D02*
X0026023Y0190454D01*
X0026624Y0191653D02*
X0028177Y0191653D01*
X0032299Y0193075D02*
X0036799Y0188575D01*
X0036799Y0172075D01*
X0056799Y0152075D01*
X0059099Y0152102D02*
X0060074Y0152102D01*
X0058999Y0150904D02*
X0058881Y0150904D01*
X0058826Y0153301D02*
X0075821Y0153301D01*
X0075847Y0153275D02*
X0077752Y0153275D01*
X0079099Y0154622D01*
X0079099Y0156527D01*
X0077752Y0157875D01*
X0075847Y0157875D01*
X0074499Y0156527D01*
X0074499Y0154622D01*
X0075847Y0153275D01*
X0074622Y0154499D02*
X0057203Y0154499D01*
X0056005Y0155698D02*
X0074499Y0155698D01*
X0074868Y0156896D02*
X0054806Y0156896D01*
X0053608Y0158095D02*
X0090066Y0158095D01*
X0089999Y0158027D02*
X0089999Y0156122D01*
X0091347Y0154775D01*
X0093252Y0154775D01*
X0094599Y0156122D01*
X0094599Y0158027D01*
X0093252Y0159375D01*
X0091347Y0159375D01*
X0089999Y0158027D01*
X0089999Y0156896D02*
X0078731Y0156896D01*
X0079099Y0155698D02*
X0090424Y0155698D01*
X0091265Y0159293D02*
X0082270Y0159293D01*
X0081752Y0158775D02*
X0083099Y0160122D01*
X0083099Y0162027D01*
X0081752Y0163375D01*
X0081328Y0163375D01*
X0075799Y0168903D01*
X0075799Y0183246D01*
X0076128Y0183575D01*
X0076837Y0184284D01*
X0076847Y0184275D01*
X0078752Y0184275D01*
X0080099Y0185622D01*
X0080099Y0186275D01*
X0081252Y0186275D01*
X0082599Y0187622D01*
X0082599Y0189527D01*
X0081252Y0190875D01*
X0079347Y0190875D01*
X0077999Y0189527D01*
X0077999Y0188875D01*
X0077299Y0188875D01*
X0077299Y0219822D01*
X0077599Y0220122D01*
X0077599Y0222027D01*
X0076252Y0223375D01*
X0074347Y0223375D01*
X0072999Y0222027D01*
X0072999Y0220122D01*
X0073299Y0219822D01*
X0073299Y0188875D01*
X0071847Y0188875D01*
X0070499Y0187527D01*
X0070499Y0185622D01*
X0071799Y0184322D01*
X0071799Y0167246D01*
X0072971Y0166075D01*
X0078499Y0160546D01*
X0078499Y0160122D01*
X0079847Y0158775D01*
X0081752Y0158775D01*
X0083099Y0160492D02*
X0101999Y0160492D01*
X0101999Y0160122D02*
X0101999Y0162027D01*
X0103347Y0163375D01*
X0104771Y0163375D01*
X0126999Y0185603D01*
X0126999Y0186027D01*
X0128347Y0187375D01*
X0130252Y0187375D01*
X0131599Y0186027D01*
X0131599Y0184122D01*
X0130252Y0182775D01*
X0129828Y0182775D01*
X0106128Y0159075D01*
X0105552Y0159075D01*
X0105252Y0158775D01*
X0103347Y0158775D01*
X0101999Y0160122D01*
X0102828Y0159293D02*
X0093334Y0159293D01*
X0094532Y0158095D02*
X0108066Y0158095D01*
X0108347Y0158375D02*
X0106999Y0157027D01*
X0106999Y0155122D01*
X0108347Y0153775D01*
X0110252Y0153775D01*
X0111599Y0155122D01*
X0111599Y0157027D01*
X0110252Y0158375D01*
X0108347Y0158375D01*
X0106999Y0156896D02*
X0094599Y0156896D01*
X0094175Y0155698D02*
X0106999Y0155698D01*
X0107622Y0154499D02*
X0078976Y0154499D01*
X0077778Y0153301D02*
X0131245Y0153301D01*
X0130046Y0154499D02*
X0110976Y0154499D01*
X0111599Y0155698D02*
X0128424Y0155698D01*
X0127999Y0156896D02*
X0111599Y0156896D01*
X0110532Y0158095D02*
X0128066Y0158095D01*
X0129265Y0159293D02*
X0126770Y0159293D01*
X0126252Y0158775D02*
X0127599Y0160122D01*
X0127599Y0162027D01*
X0126252Y0163375D01*
X0124347Y0163375D01*
X0122999Y0162027D01*
X0122999Y0160122D01*
X0124347Y0158775D01*
X0126252Y0158775D01*
X0127599Y0160492D02*
X0149999Y0160492D01*
X0149999Y0159293D02*
X0131334Y0159293D01*
X0132532Y0158095D02*
X0151027Y0158095D01*
X0150368Y0156896D02*
X0133306Y0156896D01*
X0134505Y0155698D02*
X0149999Y0155698D01*
X0152299Y0160075D02*
X0156299Y0156075D01*
X0164299Y0156075D01*
X0166599Y0155698D02*
X0261105Y0155698D01*
X0261105Y0156896D02*
X0254740Y0156896D01*
X0254177Y0156663D02*
X0255798Y0157335D01*
X0257039Y0158576D01*
X0257711Y0160197D01*
X0257711Y0161952D01*
X0257039Y0163574D01*
X0255798Y0164815D01*
X0254177Y0165487D01*
X0252422Y0165487D01*
X0250800Y0164815D01*
X0249559Y0163574D01*
X0248887Y0161952D01*
X0248887Y0160197D01*
X0249559Y0158576D01*
X0250800Y0157335D01*
X0252422Y0156663D01*
X0254177Y0156663D01*
X0251859Y0156896D02*
X0166599Y0156896D01*
X0165532Y0158095D02*
X0250040Y0158095D01*
X0249262Y0159293D02*
X0155909Y0159293D01*
X0154711Y0160492D02*
X0248887Y0160492D01*
X0248887Y0161690D02*
X0153936Y0161690D01*
X0150662Y0161690D02*
X0127599Y0161690D01*
X0126738Y0162889D02*
X0249275Y0162889D01*
X0250072Y0164087D02*
X0165564Y0164087D01*
X0165252Y0163775D02*
X0166599Y0165122D01*
X0166599Y0167027D01*
X0165252Y0168375D01*
X0163347Y0168375D01*
X0161999Y0167027D01*
X0161999Y0165122D01*
X0163347Y0163775D01*
X0165252Y0163775D01*
X0166599Y0165286D02*
X0251937Y0165286D01*
X0254662Y0165286D02*
X0261105Y0165286D01*
X0261105Y0166484D02*
X0166599Y0166484D01*
X0165944Y0167683D02*
X0261105Y0167683D01*
X0261105Y0168881D02*
X0188358Y0168881D01*
X0188252Y0168775D02*
X0189599Y0170122D01*
X0189599Y0172027D01*
X0188252Y0173375D01*
X0186347Y0173375D01*
X0184999Y0172027D01*
X0184999Y0170122D01*
X0186347Y0168775D01*
X0188252Y0168775D01*
X0189557Y0170080D02*
X0261105Y0170080D01*
X0261105Y0171278D02*
X0255962Y0171278D01*
X0255798Y0171114D02*
X0257039Y0172355D01*
X0257711Y0173977D01*
X0257711Y0175732D01*
X0257039Y0177353D01*
X0255798Y0178594D01*
X0254590Y0179095D01*
X0256437Y0180943D01*
X0257446Y0183379D01*
X0257446Y0186015D01*
X0256437Y0188451D01*
X0254573Y0190315D01*
X0252137Y0191324D01*
X0249501Y0191324D01*
X0247065Y0190315D01*
X0245200Y0188451D01*
X0244191Y0186015D01*
X0244191Y0183379D01*
X0245200Y0180943D01*
X0247065Y0179078D01*
X0249501Y0178069D01*
X0250275Y0178069D01*
X0249559Y0177353D01*
X0248887Y0175732D01*
X0248887Y0173977D01*
X0249559Y0172355D01*
X0250800Y0171114D01*
X0252422Y0170443D01*
X0254177Y0170443D01*
X0255798Y0171114D01*
X0257090Y0172477D02*
X0261105Y0172477D01*
X0261105Y0173675D02*
X0257586Y0173675D01*
X0257711Y0174874D02*
X0261105Y0174874D01*
X0261105Y0176072D02*
X0257570Y0176072D01*
X0257074Y0177271D02*
X0261105Y0177271D01*
X0261105Y0178469D02*
X0255923Y0178469D01*
X0255163Y0179668D02*
X0261105Y0179668D01*
X0261105Y0180866D02*
X0256361Y0180866D01*
X0256902Y0182065D02*
X0261105Y0182065D01*
X0261105Y0183263D02*
X0257399Y0183263D01*
X0257446Y0184462D02*
X0261105Y0184462D01*
X0261105Y0185660D02*
X0257446Y0185660D01*
X0257097Y0186859D02*
X0261105Y0186859D01*
X0261105Y0188057D02*
X0256601Y0188057D01*
X0255633Y0189256D02*
X0261105Y0189256D01*
X0261105Y0190454D02*
X0254237Y0190454D01*
X0247400Y0190454D02*
X0100672Y0190454D01*
X0100252Y0190875D02*
X0098347Y0190875D01*
X0096999Y0189527D01*
X0096999Y0187622D01*
X0098347Y0186275D01*
X0100252Y0186275D01*
X0101599Y0187622D01*
X0101599Y0189527D01*
X0100252Y0190875D01*
X0101599Y0189256D02*
X0246005Y0189256D01*
X0245037Y0188057D02*
X0148569Y0188057D01*
X0148252Y0188375D02*
X0146347Y0188375D01*
X0144999Y0187027D01*
X0144999Y0185122D01*
X0146347Y0183775D01*
X0148252Y0183775D01*
X0149599Y0185122D01*
X0149599Y0187027D01*
X0148252Y0188375D01*
X0149599Y0186859D02*
X0244541Y0186859D01*
X0244191Y0185660D02*
X0149599Y0185660D01*
X0148939Y0184462D02*
X0244191Y0184462D01*
X0244239Y0183263D02*
X0130741Y0183263D01*
X0131599Y0184462D02*
X0145659Y0184462D01*
X0144999Y0185660D02*
X0131599Y0185660D01*
X0130768Y0186859D02*
X0144999Y0186859D01*
X0146029Y0188057D02*
X0101599Y0188057D01*
X0100836Y0186859D02*
X0127831Y0186859D01*
X0126999Y0185660D02*
X0080099Y0185660D01*
X0078939Y0184462D02*
X0088934Y0184462D01*
X0089347Y0184875D02*
X0087999Y0183527D01*
X0087999Y0183103D01*
X0086271Y0181375D01*
X0085847Y0181375D01*
X0084499Y0180027D01*
X0084499Y0178122D01*
X0085847Y0176775D01*
X0087752Y0176775D01*
X0089099Y0178122D01*
X0089099Y0178546D01*
X0090828Y0180275D01*
X0091252Y0180275D01*
X0092599Y0181622D01*
X0092599Y0183527D01*
X0091252Y0184875D01*
X0089347Y0184875D01*
X0087999Y0183263D02*
X0075816Y0183263D01*
X0075799Y0182065D02*
X0086961Y0182065D01*
X0085338Y0180866D02*
X0075799Y0180866D01*
X0075799Y0179668D02*
X0084499Y0179668D01*
X0084499Y0178469D02*
X0075799Y0178469D01*
X0075799Y0177271D02*
X0085350Y0177271D01*
X0086799Y0179075D02*
X0090299Y0182575D01*
X0091843Y0180866D02*
X0105838Y0180866D01*
X0106347Y0181375D02*
X0104999Y0180027D01*
X0104999Y0178122D01*
X0106347Y0176775D01*
X0108252Y0176775D01*
X0109599Y0178122D01*
X0109599Y0180027D01*
X0108252Y0181375D01*
X0106347Y0181375D01*
X0104999Y0179668D02*
X0090221Y0179668D01*
X0091347Y0179375D02*
X0089999Y0178027D01*
X0089999Y0176122D01*
X0091347Y0174775D01*
X0093252Y0174775D01*
X0094599Y0176122D01*
X0094599Y0178027D01*
X0093252Y0179375D01*
X0091347Y0179375D01*
X0090441Y0178469D02*
X0089099Y0178469D01*
X0088248Y0177271D02*
X0089999Y0177271D01*
X0090049Y0176072D02*
X0075799Y0176072D01*
X0075799Y0174874D02*
X0091247Y0174874D01*
X0093351Y0174874D02*
X0116270Y0174874D01*
X0117468Y0176072D02*
X0094549Y0176072D01*
X0094599Y0177271D02*
X0105850Y0177271D01*
X0104999Y0178469D02*
X0094157Y0178469D01*
X0092599Y0182065D02*
X0123461Y0182065D01*
X0124659Y0183263D02*
X0092599Y0183263D01*
X0091665Y0184462D02*
X0125858Y0184462D01*
X0129299Y0185075D02*
X0105299Y0161075D01*
X0104299Y0161075D01*
X0102860Y0162889D02*
X0082238Y0162889D01*
X0083099Y0161690D02*
X0101999Y0161690D01*
X0105483Y0164087D02*
X0080615Y0164087D01*
X0079417Y0165286D02*
X0106682Y0165286D01*
X0107880Y0166484D02*
X0078218Y0166484D01*
X0077020Y0167683D02*
X0109079Y0167683D01*
X0110277Y0168881D02*
X0075821Y0168881D01*
X0075799Y0170080D02*
X0079042Y0170080D01*
X0079347Y0169775D02*
X0081252Y0169775D01*
X0082599Y0171122D01*
X0082599Y0173027D01*
X0081252Y0174375D01*
X0079347Y0174375D01*
X0077999Y0173027D01*
X0077999Y0171122D01*
X0079347Y0169775D01*
X0077999Y0171278D02*
X0075799Y0171278D01*
X0075799Y0172477D02*
X0077999Y0172477D01*
X0078647Y0173675D02*
X0075799Y0173675D01*
X0071799Y0173675D02*
X0065099Y0173675D01*
X0065099Y0173122D02*
X0063752Y0171775D01*
X0061847Y0171775D01*
X0060499Y0173122D01*
X0060499Y0175027D01*
X0061847Y0176375D01*
X0063752Y0176375D01*
X0065099Y0175027D01*
X0065099Y0173122D01*
X0064454Y0172477D02*
X0071799Y0172477D01*
X0071799Y0171278D02*
X0040424Y0171278D01*
X0041623Y0170080D02*
X0071799Y0170080D01*
X0071799Y0168881D02*
X0042821Y0168881D01*
X0044020Y0167683D02*
X0063154Y0167683D01*
X0063347Y0167875D02*
X0061999Y0166527D01*
X0061999Y0164622D01*
X0063347Y0163275D01*
X0065252Y0163275D01*
X0066599Y0164622D01*
X0066599Y0166527D01*
X0065252Y0167875D01*
X0063347Y0167875D01*
X0061999Y0166484D02*
X0045218Y0166484D01*
X0046417Y0165286D02*
X0061999Y0165286D01*
X0062534Y0164087D02*
X0047615Y0164087D01*
X0048814Y0162889D02*
X0076157Y0162889D01*
X0074958Y0164087D02*
X0066064Y0164087D01*
X0066599Y0165286D02*
X0073760Y0165286D01*
X0072561Y0166484D02*
X0066599Y0166484D01*
X0065444Y0167683D02*
X0071799Y0167683D01*
X0073799Y0168075D02*
X0073799Y0184075D01*
X0075299Y0185575D01*
X0075299Y0221075D01*
X0073786Y0222814D02*
X0066799Y0222814D01*
X0066799Y0223903D02*
X0066599Y0224103D01*
X0066599Y0224527D01*
X0065252Y0225875D01*
X0063347Y0225875D01*
X0061999Y0224527D01*
X0061999Y0222622D01*
X0062799Y0221822D01*
X0062799Y0214246D01*
X0064509Y0212537D01*
X0063499Y0211527D01*
X0063499Y0209622D01*
X0063547Y0209575D01*
X0062499Y0208527D01*
X0062499Y0206622D01*
X0063847Y0205275D01*
X0065752Y0205275D01*
X0066299Y0205822D01*
X0066299Y0202327D01*
X0065499Y0201527D01*
X0065499Y0199622D01*
X0066847Y0198275D01*
X0068752Y0198275D01*
X0070099Y0199622D01*
X0070099Y0200046D01*
X0070299Y0200246D01*
X0070299Y0212403D01*
X0069128Y0213575D01*
X0066799Y0215903D01*
X0066799Y0223903D01*
X0066690Y0224013D02*
X0083109Y0224013D01*
X0082999Y0224122D02*
X0084347Y0222775D01*
X0086252Y0222775D01*
X0086552Y0223075D01*
X0088047Y0223075D01*
X0086999Y0222027D01*
X0086999Y0220122D01*
X0088299Y0218822D01*
X0088299Y0217827D01*
X0086999Y0216527D01*
X0086999Y0214622D01*
X0088347Y0213275D01*
X0090252Y0213275D01*
X0091599Y0214622D01*
X0091599Y0215046D01*
X0092299Y0215746D01*
X0092299Y0217246D01*
X0092587Y0217534D01*
X0093669Y0216452D01*
X0095575Y0216452D01*
X0095675Y0216552D01*
X0100888Y0216552D01*
X0105999Y0221664D01*
X0105999Y0221622D01*
X0107347Y0220275D01*
X0109252Y0220275D01*
X0110599Y0221622D01*
X0110599Y0221664D01*
X0117999Y0214264D01*
X0117999Y0214122D01*
X0119347Y0212775D01*
X0121252Y0212775D01*
X0122599Y0214122D01*
X0122599Y0214264D01*
X0133210Y0224875D01*
X0138847Y0224875D01*
X0137999Y0224027D01*
X0137999Y0222122D01*
X0139347Y0220775D01*
X0141252Y0220775D01*
X0141799Y0221322D01*
X0142347Y0220775D01*
X0144252Y0220775D01*
X0144799Y0221322D01*
X0145347Y0220775D01*
X0147252Y0220775D01*
X0147799Y0221322D01*
X0148347Y0220775D01*
X0150252Y0220775D01*
X0150799Y0221322D01*
X0151347Y0220775D01*
X0153252Y0220775D01*
X0154599Y0222122D01*
X0154599Y0224027D01*
X0153752Y0224875D01*
X0162847Y0224875D01*
X0161999Y0224027D01*
X0161999Y0222122D01*
X0163347Y0220775D01*
X0165252Y0220775D01*
X0166599Y0222122D01*
X0166599Y0224027D01*
X0165752Y0224875D01*
X0199388Y0224875D01*
X0230999Y0193264D01*
X0230999Y0193122D01*
X0232347Y0191775D01*
X0234252Y0191775D01*
X0235599Y0193122D01*
X0235599Y0195027D01*
X0234252Y0196375D01*
X0234110Y0196375D01*
X0202499Y0227986D01*
X0201210Y0229275D01*
X0131388Y0229275D01*
X0120299Y0218186D01*
X0117981Y0220504D01*
X0118799Y0221322D01*
X0118847Y0221275D01*
X0120752Y0221275D01*
X0122099Y0222622D01*
X0122099Y0224527D01*
X0120752Y0225875D01*
X0118847Y0225875D01*
X0117799Y0224827D01*
X0117752Y0224875D01*
X0115847Y0224875D01*
X0114728Y0223757D01*
X0112499Y0225986D01*
X0111210Y0227275D01*
X0107352Y0227275D01*
X0107252Y0227375D01*
X0105347Y0227375D01*
X0103999Y0226027D01*
X0103999Y0225886D01*
X0102599Y0224486D01*
X0102599Y0224527D01*
X0101252Y0225875D01*
X0099347Y0225875D01*
X0097999Y0224527D01*
X0097999Y0224103D01*
X0096971Y0223075D01*
X0096552Y0223075D01*
X0097599Y0224122D01*
X0097599Y0226027D01*
X0096252Y0227375D01*
X0094347Y0227375D01*
X0094047Y0227075D01*
X0086552Y0227075D01*
X0086252Y0227375D01*
X0084347Y0227375D01*
X0082999Y0226027D01*
X0082999Y0224122D01*
X0082999Y0225211D02*
X0065915Y0225211D01*
X0064299Y0223575D02*
X0064799Y0223075D01*
X0064799Y0215075D01*
X0068299Y0211575D01*
X0068299Y0201075D01*
X0067799Y0200575D01*
X0066277Y0198844D02*
X0009399Y0198844D01*
X0009399Y0197646D02*
X0073299Y0197646D01*
X0073299Y0198844D02*
X0069321Y0198844D01*
X0070099Y0200043D02*
X0073299Y0200043D01*
X0073299Y0201241D02*
X0070299Y0201241D01*
X0070299Y0202440D02*
X0073299Y0202440D01*
X0073299Y0203638D02*
X0070299Y0203638D01*
X0070299Y0204837D02*
X0073299Y0204837D01*
X0073299Y0206035D02*
X0070299Y0206035D01*
X0070299Y0207234D02*
X0073299Y0207234D01*
X0073299Y0208432D02*
X0070299Y0208432D01*
X0070299Y0209631D02*
X0073299Y0209631D01*
X0073299Y0210829D02*
X0070299Y0210829D01*
X0070299Y0212028D02*
X0073299Y0212028D01*
X0073299Y0213226D02*
X0069476Y0213226D01*
X0068278Y0214425D02*
X0073299Y0214425D01*
X0073299Y0215623D02*
X0067079Y0215623D01*
X0066799Y0216822D02*
X0073299Y0216822D01*
X0073299Y0218020D02*
X0066799Y0218020D01*
X0066799Y0219219D02*
X0073299Y0219219D01*
X0072999Y0220417D02*
X0066799Y0220417D01*
X0066799Y0221616D02*
X0072999Y0221616D01*
X0076812Y0222814D02*
X0084307Y0222814D01*
X0086291Y0222814D02*
X0087786Y0222814D01*
X0086999Y0221616D02*
X0077599Y0221616D01*
X0077599Y0220417D02*
X0086999Y0220417D01*
X0087903Y0219219D02*
X0077299Y0219219D01*
X0077299Y0218020D02*
X0088299Y0218020D01*
X0087293Y0216822D02*
X0077299Y0216822D01*
X0077299Y0215623D02*
X0086999Y0215623D01*
X0087197Y0214425D02*
X0077299Y0214425D01*
X0077299Y0213226D02*
X0118895Y0213226D01*
X0117838Y0214425D02*
X0091402Y0214425D01*
X0092176Y0215623D02*
X0116640Y0215623D01*
X0115441Y0216822D02*
X0101157Y0216822D01*
X0102356Y0218020D02*
X0114242Y0218020D01*
X0113044Y0219219D02*
X0103554Y0219219D01*
X0104753Y0220417D02*
X0107204Y0220417D01*
X0106006Y0221616D02*
X0105951Y0221616D01*
X0109394Y0220417D02*
X0111845Y0220417D01*
X0110647Y0221616D02*
X0110593Y0221616D01*
X0114472Y0224013D02*
X0114985Y0224013D01*
X0114347Y0225275D02*
X0112999Y0226622D01*
X0112999Y0228527D01*
X0114347Y0229875D01*
X0116252Y0229875D01*
X0117599Y0228527D01*
X0117599Y0226622D01*
X0116252Y0225275D01*
X0114347Y0225275D01*
X0113274Y0225211D02*
X0118183Y0225211D01*
X0117387Y0226410D02*
X0128523Y0226410D01*
X0129721Y0227608D02*
X0117599Y0227608D01*
X0117320Y0228807D02*
X0130920Y0228807D01*
X0127681Y0231204D02*
X0183417Y0231204D01*
X0183847Y0230775D02*
X0185752Y0230775D01*
X0187099Y0232122D01*
X0187099Y0234027D01*
X0185752Y0235375D01*
X0183847Y0235375D01*
X0182499Y0234027D01*
X0182499Y0232122D01*
X0183847Y0230775D01*
X0182499Y0232402D02*
X0128599Y0232402D01*
X0128599Y0232122D02*
X0127252Y0230775D01*
X0125347Y0230775D01*
X0123999Y0232122D01*
X0123999Y0234027D01*
X0125347Y0235375D01*
X0127252Y0235375D01*
X0128599Y0234027D01*
X0128599Y0232122D01*
X0128599Y0233601D02*
X0182499Y0233601D01*
X0183271Y0234799D02*
X0127827Y0234799D01*
X0124771Y0234799D02*
X0017643Y0234799D01*
X0015567Y0233601D02*
X0123999Y0233601D01*
X0123999Y0232402D02*
X0066224Y0232402D01*
X0066599Y0232027D02*
X0065252Y0233375D01*
X0063347Y0233375D01*
X0061999Y0232027D01*
X0061999Y0230122D01*
X0063347Y0228775D01*
X0065252Y0228775D01*
X0066599Y0230122D01*
X0066599Y0232027D01*
X0066599Y0231204D02*
X0124917Y0231204D01*
X0127324Y0225211D02*
X0121415Y0225211D01*
X0122099Y0224013D02*
X0126126Y0224013D01*
X0124927Y0222814D02*
X0122099Y0222814D01*
X0121093Y0221616D02*
X0123729Y0221616D01*
X0122530Y0220417D02*
X0118068Y0220417D01*
X0119267Y0219219D02*
X0121332Y0219219D01*
X0123959Y0215623D02*
X0161999Y0215623D01*
X0161999Y0216027D02*
X0161999Y0214122D01*
X0163347Y0212775D01*
X0165252Y0212775D01*
X0166599Y0214122D01*
X0166599Y0216027D01*
X0165252Y0217375D01*
X0163347Y0217375D01*
X0161999Y0216027D01*
X0161299Y0216822D02*
X0162793Y0216822D01*
X0161599Y0217122D02*
X0160252Y0215775D01*
X0158347Y0215775D01*
X0156999Y0217122D01*
X0156999Y0219027D01*
X0158347Y0220375D01*
X0160252Y0220375D01*
X0161599Y0219027D01*
X0161599Y0217122D01*
X0161599Y0218020D02*
X0184999Y0218020D01*
X0184999Y0217122D02*
X0186347Y0215775D01*
X0188252Y0215775D01*
X0189599Y0217122D01*
X0189599Y0219027D01*
X0188252Y0220375D01*
X0186347Y0220375D01*
X0184999Y0219027D01*
X0184999Y0217122D01*
X0185300Y0216822D02*
X0165805Y0216822D01*
X0166599Y0215623D02*
X0208640Y0215623D01*
X0209838Y0214425D02*
X0166599Y0214425D01*
X0165703Y0213226D02*
X0211037Y0213226D01*
X0212235Y0212028D02*
X0077299Y0212028D01*
X0077299Y0210829D02*
X0093801Y0210829D01*
X0094347Y0211375D02*
X0092999Y0210027D01*
X0092999Y0208122D01*
X0094347Y0206775D01*
X0096252Y0206775D01*
X0097599Y0208122D01*
X0097599Y0210027D01*
X0096252Y0211375D01*
X0094347Y0211375D01*
X0092999Y0209631D02*
X0077299Y0209631D01*
X0077299Y0208432D02*
X0092999Y0208432D01*
X0093888Y0207234D02*
X0077299Y0207234D01*
X0077299Y0206035D02*
X0218228Y0206035D01*
X0219426Y0204837D02*
X0165790Y0204837D01*
X0165252Y0205375D02*
X0163347Y0205375D01*
X0163047Y0205075D01*
X0151971Y0205075D01*
X0151771Y0204875D01*
X0151347Y0204875D01*
X0149999Y0203527D01*
X0149999Y0201622D01*
X0151347Y0200275D01*
X0153252Y0200275D01*
X0154052Y0201075D01*
X0163047Y0201075D01*
X0163347Y0200775D01*
X0165252Y0200775D01*
X0166599Y0202122D01*
X0166599Y0204027D01*
X0165252Y0205375D01*
X0166599Y0203638D02*
X0220625Y0203638D01*
X0221823Y0202440D02*
X0166599Y0202440D01*
X0165718Y0201241D02*
X0223022Y0201241D01*
X0224220Y0200043D02*
X0111084Y0200043D01*
X0110752Y0200375D02*
X0108847Y0200375D01*
X0108049Y0199577D01*
X0107252Y0200375D01*
X0105347Y0200375D01*
X0103999Y0199027D01*
X0103999Y0197122D01*
X0105347Y0195775D01*
X0107252Y0195775D01*
X0108049Y0196572D01*
X0108847Y0195775D01*
X0110752Y0195775D01*
X0112099Y0197122D01*
X0112099Y0199027D01*
X0110752Y0200375D01*
X0112099Y0198844D02*
X0225419Y0198844D01*
X0226617Y0197646D02*
X0123981Y0197646D01*
X0124599Y0197027D02*
X0123252Y0198375D01*
X0121347Y0198375D01*
X0119999Y0197027D01*
X0119999Y0195122D01*
X0121347Y0193775D01*
X0123252Y0193775D01*
X0124599Y0195122D01*
X0124599Y0197027D01*
X0124599Y0196447D02*
X0227816Y0196447D01*
X0229014Y0195249D02*
X0124599Y0195249D01*
X0123527Y0194050D02*
X0230213Y0194050D01*
X0231270Y0192852D02*
X0090099Y0192852D01*
X0090099Y0193027D02*
X0089552Y0193575D01*
X0090099Y0194122D01*
X0090099Y0196027D01*
X0088752Y0197375D01*
X0086847Y0197375D01*
X0085499Y0196027D01*
X0085499Y0194122D01*
X0086047Y0193575D01*
X0085499Y0193027D01*
X0085499Y0191122D01*
X0086847Y0189775D01*
X0088752Y0189775D01*
X0090099Y0191122D01*
X0090099Y0193027D01*
X0090027Y0194050D02*
X0121071Y0194050D01*
X0119999Y0195249D02*
X0101226Y0195249D01*
X0100752Y0194775D02*
X0102099Y0196122D01*
X0102099Y0198027D01*
X0100752Y0199375D01*
X0098847Y0199375D01*
X0097499Y0198027D01*
X0097499Y0196122D01*
X0098847Y0194775D01*
X0100752Y0194775D01*
X0102099Y0196447D02*
X0104674Y0196447D01*
X0103999Y0197646D02*
X0102099Y0197646D01*
X0101283Y0198844D02*
X0103999Y0198844D01*
X0105014Y0200043D02*
X0081584Y0200043D01*
X0081252Y0200375D02*
X0079347Y0200375D01*
X0077999Y0199027D01*
X0077999Y0197122D01*
X0079347Y0195775D01*
X0081252Y0195775D01*
X0082599Y0197122D01*
X0082599Y0199027D01*
X0081252Y0200375D01*
X0082599Y0198844D02*
X0098316Y0198844D01*
X0097499Y0197646D02*
X0082599Y0197646D01*
X0081924Y0196447D02*
X0085919Y0196447D01*
X0085499Y0195249D02*
X0077299Y0195249D01*
X0077299Y0196447D02*
X0078674Y0196447D01*
X0077999Y0197646D02*
X0077299Y0197646D01*
X0077299Y0198844D02*
X0077999Y0198844D01*
X0077299Y0200043D02*
X0079014Y0200043D01*
X0077299Y0201241D02*
X0150380Y0201241D01*
X0149999Y0202440D02*
X0077299Y0202440D01*
X0077299Y0203638D02*
X0150110Y0203638D01*
X0151308Y0204837D02*
X0077299Y0204837D01*
X0073299Y0196447D02*
X0035083Y0196447D01*
X0036110Y0195249D02*
X0037220Y0195249D01*
X0036999Y0195027D02*
X0036999Y0193122D01*
X0038347Y0191775D01*
X0040252Y0191775D01*
X0041599Y0193122D01*
X0041599Y0195027D01*
X0040252Y0196375D01*
X0038347Y0196375D01*
X0036999Y0195027D01*
X0036999Y0194050D02*
X0036607Y0194050D01*
X0036652Y0192852D02*
X0037270Y0192852D01*
X0036549Y0191653D02*
X0073299Y0191653D01*
X0073299Y0192852D02*
X0041329Y0192852D01*
X0041599Y0194050D02*
X0073299Y0194050D01*
X0073299Y0195249D02*
X0041378Y0195249D01*
X0037748Y0190454D02*
X0073299Y0190454D01*
X0073299Y0189256D02*
X0038799Y0189256D01*
X0038799Y0188057D02*
X0071029Y0188057D01*
X0070499Y0186859D02*
X0038799Y0186859D01*
X0038799Y0185660D02*
X0070499Y0185660D01*
X0071659Y0184462D02*
X0038799Y0184462D01*
X0038799Y0183263D02*
X0039235Y0183263D01*
X0038999Y0183027D02*
X0038999Y0181122D01*
X0040347Y0179775D01*
X0042252Y0179775D01*
X0043599Y0181122D01*
X0043599Y0183027D01*
X0042252Y0184375D01*
X0040347Y0184375D01*
X0038999Y0183027D01*
X0038999Y0182065D02*
X0038799Y0182065D01*
X0038799Y0180866D02*
X0039255Y0180866D01*
X0038799Y0179668D02*
X0071799Y0179668D01*
X0071799Y0180866D02*
X0043343Y0180866D01*
X0043599Y0182065D02*
X0071799Y0182065D01*
X0071799Y0183263D02*
X0043363Y0183263D01*
X0038799Y0178469D02*
X0071799Y0178469D01*
X0071799Y0177271D02*
X0038799Y0177271D01*
X0038799Y0176072D02*
X0061544Y0176072D01*
X0060499Y0174874D02*
X0038799Y0174874D01*
X0038799Y0173675D02*
X0060499Y0173675D01*
X0061145Y0172477D02*
X0039226Y0172477D01*
X0030594Y0170080D02*
X0024467Y0170080D01*
X0022683Y0170080D02*
X0021915Y0170080D01*
X0021915Y0168881D02*
X0022683Y0168881D01*
X0022683Y0167683D02*
X0021915Y0167683D01*
X0021915Y0166484D02*
X0022683Y0166484D01*
X0022683Y0165286D02*
X0021915Y0165286D01*
X0021915Y0164087D02*
X0022683Y0164087D01*
X0022683Y0162889D02*
X0021915Y0162889D01*
X0019047Y0162889D02*
X0015269Y0162889D01*
X0016187Y0164087D02*
X0018202Y0164087D01*
X0017815Y0165286D02*
X0016652Y0165286D01*
X0016652Y0166484D02*
X0017755Y0166484D01*
X0018035Y0167683D02*
X0016345Y0167683D01*
X0015648Y0168881D02*
X0018711Y0168881D01*
X0020131Y0170080D02*
X0014005Y0170080D01*
X0025888Y0168881D02*
X0028950Y0168881D01*
X0028254Y0167683D02*
X0026564Y0167683D01*
X0026844Y0166484D02*
X0027946Y0166484D01*
X0027946Y0165286D02*
X0026784Y0165286D01*
X0026396Y0164087D02*
X0028411Y0164087D01*
X0029330Y0162889D02*
X0025552Y0162889D01*
X0034868Y0156896D02*
X0009399Y0156896D01*
X0009399Y0155698D02*
X0034499Y0155698D01*
X0034622Y0154499D02*
X0009399Y0154499D01*
X0009399Y0153301D02*
X0035821Y0153301D01*
X0050012Y0161690D02*
X0077355Y0161690D01*
X0078499Y0160492D02*
X0051211Y0160492D01*
X0052409Y0159293D02*
X0079328Y0159293D01*
X0080799Y0161075D02*
X0073799Y0168075D01*
X0071799Y0174874D02*
X0065099Y0174874D01*
X0064054Y0176072D02*
X0071799Y0176072D01*
X0081951Y0173675D02*
X0103647Y0173675D01*
X0102999Y0173027D02*
X0102999Y0171122D01*
X0104347Y0169775D01*
X0106252Y0169775D01*
X0107599Y0171122D01*
X0107599Y0173027D01*
X0106252Y0174375D01*
X0104347Y0174375D01*
X0102999Y0173027D01*
X0102999Y0172477D02*
X0082599Y0172477D01*
X0082599Y0171278D02*
X0102999Y0171278D01*
X0104042Y0170080D02*
X0081557Y0170080D01*
X0081836Y0186859D02*
X0097762Y0186859D01*
X0096999Y0188057D02*
X0082599Y0188057D01*
X0082599Y0189256D02*
X0096999Y0189256D01*
X0097926Y0190454D02*
X0089432Y0190454D01*
X0090099Y0191653D02*
X0261105Y0191653D01*
X0261105Y0192852D02*
X0235329Y0192852D01*
X0235599Y0194050D02*
X0261105Y0194050D01*
X0261105Y0195249D02*
X0235378Y0195249D01*
X0234038Y0196447D02*
X0261105Y0196447D01*
X0261105Y0197646D02*
X0232840Y0197646D01*
X0231641Y0198844D02*
X0261105Y0198844D01*
X0261105Y0200043D02*
X0230443Y0200043D01*
X0229244Y0201241D02*
X0261105Y0201241D01*
X0261105Y0202440D02*
X0228046Y0202440D01*
X0226847Y0203638D02*
X0261105Y0203638D01*
X0261105Y0204837D02*
X0225649Y0204837D01*
X0224450Y0206035D02*
X0261105Y0206035D01*
X0261105Y0207234D02*
X0223252Y0207234D01*
X0222053Y0208432D02*
X0261105Y0208432D01*
X0261105Y0209631D02*
X0220855Y0209631D01*
X0219656Y0210829D02*
X0261105Y0210829D01*
X0261105Y0212028D02*
X0218458Y0212028D01*
X0217259Y0213226D02*
X0245327Y0213226D01*
X0245113Y0213315D02*
X0247911Y0212156D01*
X0250939Y0212156D01*
X0253737Y0213315D01*
X0255878Y0215456D01*
X0257037Y0218254D01*
X0257037Y0221282D01*
X0255878Y0224079D01*
X0253737Y0226221D01*
X0250939Y0227380D01*
X0247911Y0227380D01*
X0245113Y0226221D01*
X0242972Y0224079D01*
X0241813Y0221282D01*
X0241813Y0218254D01*
X0242972Y0215456D01*
X0245113Y0213315D01*
X0244003Y0214425D02*
X0216061Y0214425D01*
X0214862Y0215623D02*
X0231498Y0215623D01*
X0230999Y0216122D02*
X0232347Y0214775D01*
X0234252Y0214775D01*
X0235599Y0216122D01*
X0235599Y0218027D01*
X0234252Y0219375D01*
X0232347Y0219375D01*
X0230999Y0218027D01*
X0230999Y0216122D01*
X0230999Y0216822D02*
X0213664Y0216822D01*
X0212465Y0218020D02*
X0230999Y0218020D01*
X0232190Y0219219D02*
X0211267Y0219219D01*
X0210068Y0220417D02*
X0241813Y0220417D01*
X0241813Y0219219D02*
X0234408Y0219219D01*
X0235599Y0218020D02*
X0241910Y0218020D01*
X0242406Y0216822D02*
X0235599Y0216822D01*
X0235100Y0215623D02*
X0242903Y0215623D01*
X0241952Y0221616D02*
X0208870Y0221616D01*
X0207671Y0222814D02*
X0242448Y0222814D01*
X0242945Y0224013D02*
X0206472Y0224013D01*
X0205274Y0225211D02*
X0244104Y0225211D01*
X0245570Y0226410D02*
X0204075Y0226410D01*
X0202877Y0227608D02*
X0259834Y0227608D01*
X0260239Y0226410D02*
X0253280Y0226410D01*
X0254746Y0225211D02*
X0260560Y0225211D01*
X0260881Y0224013D02*
X0255906Y0224013D01*
X0256402Y0222814D02*
X0261034Y0222814D01*
X0261105Y0221616D02*
X0256899Y0221616D01*
X0257037Y0220417D02*
X0261105Y0220417D01*
X0261105Y0219219D02*
X0257037Y0219219D01*
X0256940Y0218020D02*
X0261105Y0218020D01*
X0261105Y0216822D02*
X0256444Y0216822D01*
X0255947Y0215623D02*
X0261105Y0215623D01*
X0261105Y0214425D02*
X0254847Y0214425D01*
X0253523Y0213226D02*
X0261105Y0213226D01*
X0259142Y0228807D02*
X0201678Y0228807D01*
X0203347Y0230775D02*
X0205252Y0230775D01*
X0206599Y0232122D01*
X0206599Y0234027D01*
X0205252Y0235375D01*
X0203347Y0235375D01*
X0201999Y0234027D01*
X0201999Y0232122D01*
X0203347Y0230775D01*
X0202917Y0231204D02*
X0186181Y0231204D01*
X0187099Y0232402D02*
X0201999Y0232402D01*
X0201999Y0233601D02*
X0187099Y0233601D01*
X0186327Y0234799D02*
X0202771Y0234799D01*
X0205827Y0234799D02*
X0252861Y0234799D01*
X0254936Y0233601D02*
X0206599Y0233601D01*
X0206599Y0232402D02*
X0256322Y0232402D01*
X0257521Y0231204D02*
X0205681Y0231204D01*
X0200250Y0224013D02*
X0166599Y0224013D01*
X0166599Y0222814D02*
X0201448Y0222814D01*
X0202647Y0221616D02*
X0166093Y0221616D01*
X0162506Y0221616D02*
X0154093Y0221616D01*
X0154599Y0222814D02*
X0161999Y0222814D01*
X0161999Y0224013D02*
X0154599Y0224013D01*
X0157190Y0219219D02*
X0127554Y0219219D01*
X0126356Y0218020D02*
X0156999Y0218020D01*
X0157300Y0216822D02*
X0125157Y0216822D01*
X0122760Y0214425D02*
X0161999Y0214425D01*
X0162895Y0213226D02*
X0121703Y0213226D01*
X0128753Y0220417D02*
X0203845Y0220417D01*
X0205044Y0219219D02*
X0189408Y0219219D01*
X0189599Y0218020D02*
X0206242Y0218020D01*
X0207441Y0216822D02*
X0189299Y0216822D01*
X0185190Y0219219D02*
X0161408Y0219219D01*
X0164299Y0203075D02*
X0152799Y0203075D01*
X0152299Y0202575D01*
X0138506Y0221616D02*
X0129951Y0221616D01*
X0131150Y0222814D02*
X0137999Y0222814D01*
X0137999Y0224013D02*
X0132348Y0224013D01*
X0113212Y0226410D02*
X0112075Y0226410D01*
X0112999Y0227608D02*
X0010670Y0227608D01*
X0010265Y0226410D02*
X0017224Y0226410D01*
X0016767Y0226221D02*
X0014626Y0224079D01*
X0013467Y0221282D01*
X0013467Y0218254D01*
X0014626Y0215456D01*
X0016767Y0213315D01*
X0019565Y0212156D01*
X0022593Y0212156D01*
X0025390Y0213315D01*
X0027532Y0215456D01*
X0028691Y0218254D01*
X0028691Y0221282D01*
X0027532Y0224079D01*
X0025390Y0226221D01*
X0022593Y0227380D01*
X0019565Y0227380D01*
X0016767Y0226221D01*
X0015758Y0225211D02*
X0009944Y0225211D01*
X0009623Y0224013D02*
X0014598Y0224013D01*
X0014102Y0222814D02*
X0009470Y0222814D01*
X0009399Y0221616D02*
X0013605Y0221616D01*
X0013467Y0220417D02*
X0009399Y0220417D01*
X0009399Y0219219D02*
X0013467Y0219219D01*
X0013564Y0218020D02*
X0009399Y0218020D01*
X0009399Y0216822D02*
X0014060Y0216822D01*
X0014556Y0215623D02*
X0009399Y0215623D01*
X0009399Y0214425D02*
X0015657Y0214425D01*
X0016981Y0213226D02*
X0009399Y0213226D01*
X0009399Y0212028D02*
X0063999Y0212028D01*
X0063819Y0213226D02*
X0025177Y0213226D01*
X0026500Y0214425D02*
X0062799Y0214425D01*
X0062799Y0215623D02*
X0027601Y0215623D01*
X0028097Y0216822D02*
X0039300Y0216822D01*
X0039347Y0216775D02*
X0041252Y0216775D01*
X0042599Y0218122D01*
X0042599Y0220027D01*
X0041252Y0221375D01*
X0039347Y0221375D01*
X0037999Y0220027D01*
X0037999Y0218122D01*
X0039347Y0216775D01*
X0038101Y0218020D02*
X0028594Y0218020D01*
X0028691Y0219219D02*
X0037999Y0219219D01*
X0038389Y0220417D02*
X0028691Y0220417D01*
X0028552Y0221616D02*
X0062799Y0221616D01*
X0062799Y0220417D02*
X0062209Y0220417D01*
X0062599Y0220027D02*
X0061252Y0221375D01*
X0059347Y0221375D01*
X0057999Y0220027D01*
X0057999Y0218122D01*
X0059347Y0216775D01*
X0061252Y0216775D01*
X0062599Y0218122D01*
X0062599Y0220027D01*
X0062599Y0219219D02*
X0062799Y0219219D01*
X0062799Y0218020D02*
X0062497Y0218020D01*
X0062799Y0216822D02*
X0061299Y0216822D01*
X0059300Y0216822D02*
X0041299Y0216822D01*
X0042497Y0218020D02*
X0058101Y0218020D01*
X0057999Y0219219D02*
X0042599Y0219219D01*
X0042209Y0220417D02*
X0058389Y0220417D01*
X0061999Y0222814D02*
X0028056Y0222814D01*
X0027559Y0224013D02*
X0061999Y0224013D01*
X0062683Y0225211D02*
X0026400Y0225211D01*
X0024934Y0226410D02*
X0083382Y0226410D01*
X0085299Y0225075D02*
X0095299Y0225075D01*
X0097599Y0225211D02*
X0098683Y0225211D01*
X0097909Y0224013D02*
X0097490Y0224013D01*
X0097217Y0226410D02*
X0104382Y0226410D01*
X0103324Y0225211D02*
X0101915Y0225211D01*
X0100299Y0223575D02*
X0097799Y0221075D01*
X0093299Y0221075D01*
X0090299Y0218075D01*
X0090299Y0216575D01*
X0089299Y0215575D01*
X0092299Y0216822D02*
X0093300Y0216822D01*
X0096798Y0210829D02*
X0103801Y0210829D01*
X0104347Y0211375D02*
X0102999Y0210027D01*
X0102999Y0208122D01*
X0104347Y0206775D01*
X0106252Y0206775D01*
X0107599Y0208122D01*
X0107599Y0210027D01*
X0106252Y0211375D01*
X0104347Y0211375D01*
X0102999Y0209631D02*
X0097599Y0209631D01*
X0097599Y0208432D02*
X0102999Y0208432D01*
X0103888Y0207234D02*
X0096711Y0207234D01*
X0106711Y0207234D02*
X0217029Y0207234D01*
X0215831Y0208432D02*
X0107599Y0208432D01*
X0107599Y0209631D02*
X0214632Y0209631D01*
X0213434Y0210829D02*
X0106798Y0210829D01*
X0107584Y0200043D02*
X0108514Y0200043D01*
X0112099Y0197646D02*
X0120617Y0197646D01*
X0119999Y0196447D02*
X0111424Y0196447D01*
X0108174Y0196447D02*
X0107924Y0196447D01*
X0098373Y0195249D02*
X0090099Y0195249D01*
X0089680Y0196447D02*
X0097499Y0196447D01*
X0086167Y0190454D02*
X0081672Y0190454D01*
X0078926Y0190454D02*
X0077299Y0190454D01*
X0077299Y0189256D02*
X0077999Y0189256D01*
X0077299Y0191653D02*
X0085499Y0191653D01*
X0085499Y0192852D02*
X0077299Y0192852D01*
X0077299Y0194050D02*
X0085571Y0194050D01*
X0065499Y0200043D02*
X0063520Y0200043D01*
X0063252Y0199775D02*
X0064599Y0201122D01*
X0064599Y0203027D01*
X0063252Y0204375D01*
X0061347Y0204375D01*
X0059999Y0203027D01*
X0059999Y0201122D01*
X0061347Y0199775D01*
X0063252Y0199775D01*
X0064599Y0201241D02*
X0065499Y0201241D01*
X0066299Y0202440D02*
X0064599Y0202440D01*
X0063989Y0203638D02*
X0066299Y0203638D01*
X0066299Y0204837D02*
X0009399Y0204837D01*
X0009399Y0206035D02*
X0053586Y0206035D01*
X0053847Y0205775D02*
X0055752Y0205775D01*
X0057099Y0207122D01*
X0057099Y0209027D01*
X0055752Y0210375D01*
X0053847Y0210375D01*
X0052499Y0209027D01*
X0052499Y0207122D01*
X0053847Y0205775D01*
X0052499Y0207234D02*
X0009399Y0207234D01*
X0009399Y0208432D02*
X0052499Y0208432D01*
X0053102Y0209631D02*
X0009399Y0209631D01*
X0009399Y0210829D02*
X0063499Y0210829D01*
X0063499Y0209631D02*
X0056496Y0209631D01*
X0057099Y0208432D02*
X0062499Y0208432D01*
X0062499Y0207234D02*
X0057099Y0207234D01*
X0056012Y0206035D02*
X0063086Y0206035D01*
X0060610Y0203638D02*
X0009399Y0203638D01*
X0009399Y0202440D02*
X0059999Y0202440D01*
X0059999Y0201241D02*
X0009399Y0201241D01*
X0009399Y0200043D02*
X0061079Y0200043D01*
X0063314Y0228807D02*
X0011362Y0228807D01*
X0012054Y0230005D02*
X0062116Y0230005D01*
X0061999Y0231204D02*
X0012983Y0231204D01*
X0014182Y0232402D02*
X0062374Y0232402D01*
X0065284Y0228807D02*
X0113279Y0228807D01*
X0066482Y0230005D02*
X0258450Y0230005D01*
X0249298Y0235998D02*
X0021206Y0235998D01*
X0019233Y0196447D02*
X0015083Y0196447D01*
X0016110Y0195249D02*
X0018297Y0195249D01*
X0017844Y0194050D02*
X0016607Y0194050D01*
X0009516Y0196447D02*
X0009399Y0196447D01*
X0052881Y0150904D02*
X0054718Y0150904D01*
X0061299Y0150075D02*
X0120299Y0150075D01*
X0122599Y0149705D02*
X0186841Y0149705D01*
X0187615Y0148507D02*
X0123120Y0148507D01*
X0122599Y0150904D02*
X0185642Y0150904D01*
X0186299Y0153075D02*
X0189299Y0150075D01*
X0188902Y0153301D02*
X0261105Y0153301D01*
X0261105Y0154499D02*
X0187703Y0154499D01*
X0186299Y0153075D02*
X0134299Y0153075D01*
X0130299Y0157075D01*
X0132443Y0152102D02*
X0121525Y0152102D01*
X0119074Y0152102D02*
X0062525Y0152102D01*
X0106346Y0159293D02*
X0118828Y0159293D01*
X0119347Y0158775D02*
X0117999Y0160122D01*
X0117999Y0162027D01*
X0119347Y0163375D01*
X0121252Y0163375D01*
X0122599Y0162027D01*
X0122599Y0160122D01*
X0121252Y0158775D01*
X0119347Y0158775D01*
X0117999Y0160492D02*
X0107545Y0160492D01*
X0108743Y0161690D02*
X0117999Y0161690D01*
X0118860Y0162889D02*
X0109942Y0162889D01*
X0111140Y0164087D02*
X0163034Y0164087D01*
X0161999Y0165286D02*
X0112339Y0165286D01*
X0113537Y0166484D02*
X0161999Y0166484D01*
X0162654Y0167683D02*
X0114736Y0167683D01*
X0115934Y0168881D02*
X0186240Y0168881D01*
X0185042Y0170080D02*
X0117133Y0170080D01*
X0118331Y0171278D02*
X0184999Y0171278D01*
X0185449Y0172477D02*
X0119530Y0172477D01*
X0120728Y0173675D02*
X0249012Y0173675D01*
X0248887Y0174874D02*
X0166351Y0174874D01*
X0166599Y0175122D02*
X0165252Y0173775D01*
X0163347Y0173775D01*
X0161999Y0175122D01*
X0161999Y0177027D01*
X0163347Y0178375D01*
X0165252Y0178375D01*
X0166599Y0177027D01*
X0166599Y0175122D01*
X0166599Y0176072D02*
X0249028Y0176072D01*
X0249525Y0177271D02*
X0166356Y0177271D01*
X0162243Y0177271D02*
X0154356Y0177271D01*
X0154599Y0177027D02*
X0153252Y0178375D01*
X0151347Y0178375D01*
X0150799Y0177827D01*
X0150252Y0178375D01*
X0148347Y0178375D01*
X0147799Y0177827D01*
X0147252Y0178375D01*
X0145347Y0178375D01*
X0144799Y0177827D01*
X0144252Y0178375D01*
X0142347Y0178375D01*
X0141799Y0177827D01*
X0141252Y0178375D01*
X0139347Y0178375D01*
X0137999Y0177027D01*
X0137999Y0175122D01*
X0139347Y0173775D01*
X0141252Y0173775D01*
X0141799Y0174322D01*
X0142347Y0173775D01*
X0144252Y0173775D01*
X0144799Y0174322D01*
X0145347Y0173775D01*
X0147252Y0173775D01*
X0147799Y0174322D01*
X0148347Y0173775D01*
X0150252Y0173775D01*
X0150799Y0174322D01*
X0151347Y0173775D01*
X0153252Y0173775D01*
X0154599Y0175122D01*
X0154599Y0177027D01*
X0154599Y0176072D02*
X0161999Y0176072D01*
X0162247Y0174874D02*
X0154351Y0174874D01*
X0138247Y0174874D02*
X0121927Y0174874D01*
X0123125Y0176072D02*
X0137999Y0176072D01*
X0138243Y0177271D02*
X0124324Y0177271D01*
X0125522Y0178469D02*
X0248535Y0178469D01*
X0246475Y0179668D02*
X0126721Y0179668D01*
X0127919Y0180866D02*
X0245277Y0180866D01*
X0244735Y0182065D02*
X0129118Y0182065D01*
X0122262Y0180866D02*
X0108760Y0180866D01*
X0109599Y0179668D02*
X0121064Y0179668D01*
X0119865Y0178469D02*
X0109599Y0178469D01*
X0108748Y0177271D02*
X0118667Y0177271D01*
X0115071Y0173675D02*
X0106951Y0173675D01*
X0107599Y0172477D02*
X0113873Y0172477D01*
X0112674Y0171278D02*
X0107599Y0171278D01*
X0106557Y0170080D02*
X0111476Y0170080D01*
X0121738Y0162889D02*
X0123860Y0162889D01*
X0122999Y0161690D02*
X0122599Y0161690D01*
X0122599Y0160492D02*
X0122999Y0160492D01*
X0123828Y0159293D02*
X0121770Y0159293D01*
X0111599Y0143713D02*
X0248613Y0143713D01*
X0256558Y0158095D02*
X0261105Y0158095D01*
X0261105Y0159293D02*
X0257337Y0159293D01*
X0257711Y0160492D02*
X0261105Y0160492D01*
X0261105Y0161690D02*
X0257711Y0161690D01*
X0257323Y0162889D02*
X0261105Y0162889D01*
X0261105Y0164087D02*
X0256526Y0164087D01*
X0250636Y0171278D02*
X0189599Y0171278D01*
X0189150Y0172477D02*
X0249509Y0172477D01*
X0193890Y0138918D02*
X0161708Y0138918D01*
X0162099Y0137720D02*
X0193499Y0137720D01*
X0193600Y0136521D02*
X0164105Y0136521D01*
X0164599Y0135323D02*
X0194798Y0135323D01*
X0189001Y0130529D02*
X0166098Y0130529D01*
X0166599Y0129330D02*
X0187999Y0129330D01*
X0187999Y0128132D02*
X0166599Y0128132D01*
X0165410Y0126933D02*
X0188688Y0126933D01*
X0162299Y0135075D02*
X0157299Y0130075D01*
X0157299Y0127075D01*
X0152299Y0122075D01*
X0149999Y0122139D02*
X0122299Y0122139D01*
X0122299Y0120941D02*
X0150180Y0120941D01*
X0150310Y0123338D02*
X0122299Y0123338D01*
X0122299Y0124536D02*
X0151932Y0124536D01*
X0153131Y0125735D02*
X0122299Y0125735D01*
X0122299Y0126933D02*
X0139188Y0126933D01*
X0139347Y0126775D02*
X0141252Y0126775D01*
X0141799Y0127322D01*
X0142347Y0126775D01*
X0144252Y0126775D01*
X0144799Y0127322D01*
X0145347Y0126775D01*
X0147252Y0126775D01*
X0147799Y0127322D01*
X0148347Y0126775D01*
X0150252Y0126775D01*
X0150799Y0127322D01*
X0151347Y0126775D01*
X0153252Y0126775D01*
X0154599Y0128122D01*
X0154599Y0130027D01*
X0153252Y0131375D01*
X0151347Y0131375D01*
X0150799Y0130827D01*
X0150252Y0131375D01*
X0148347Y0131375D01*
X0147799Y0130827D01*
X0147252Y0131375D01*
X0145347Y0131375D01*
X0144799Y0130827D01*
X0144252Y0131375D01*
X0142347Y0131375D01*
X0141799Y0130827D01*
X0141252Y0131375D01*
X0139347Y0131375D01*
X0137999Y0130027D01*
X0137999Y0128122D01*
X0139347Y0126775D01*
X0137999Y0128132D02*
X0122299Y0128132D01*
X0122299Y0129330D02*
X0137999Y0129330D01*
X0138501Y0130529D02*
X0122299Y0130529D01*
X0122299Y0131727D02*
X0156123Y0131727D01*
X0155299Y0130529D02*
X0154098Y0130529D01*
X0154599Y0129330D02*
X0155299Y0129330D01*
X0155299Y0128132D02*
X0154599Y0128132D01*
X0154329Y0126933D02*
X0153410Y0126933D01*
X0151188Y0126933D02*
X0150410Y0126933D01*
X0148188Y0126933D02*
X0147410Y0126933D01*
X0145188Y0126933D02*
X0144410Y0126933D01*
X0142188Y0126933D02*
X0141410Y0126933D01*
X0149999Y0133122D02*
X0149999Y0135027D01*
X0151347Y0136375D01*
X0153252Y0136375D01*
X0154599Y0135027D01*
X0154599Y0133122D01*
X0153252Y0131775D01*
X0151347Y0131775D01*
X0149999Y0133122D01*
X0150195Y0132926D02*
X0125403Y0132926D01*
X0125599Y0134124D02*
X0149999Y0134124D01*
X0150295Y0135323D02*
X0125304Y0135323D01*
X0122299Y0136521D02*
X0157600Y0136521D01*
X0158798Y0135323D02*
X0154304Y0135323D01*
X0154599Y0134124D02*
X0158520Y0134124D01*
X0157322Y0132926D02*
X0154403Y0132926D01*
X0157108Y0158095D02*
X0163066Y0158095D01*
X0118486Y0142514D02*
X0110991Y0142514D01*
X0114149Y0090978D02*
X0178033Y0090978D01*
X0178166Y0091298D02*
X0178166Y0091298D01*
X0177537Y0089780D02*
X0115099Y0089780D01*
X0115099Y0088581D02*
X0177246Y0088581D01*
X0177246Y0087383D02*
X0129214Y0087383D01*
X0130188Y0086184D02*
X0177246Y0086184D01*
X0177246Y0084985D02*
X0130685Y0084985D01*
X0130699Y0083787D02*
X0167759Y0083787D01*
X0168347Y0084375D02*
X0166999Y0083027D01*
X0166999Y0081122D01*
X0168347Y0079775D01*
X0170252Y0079775D01*
X0171599Y0081122D01*
X0171599Y0083027D01*
X0170252Y0084375D01*
X0168347Y0084375D01*
X0166999Y0082588D02*
X0130446Y0082588D01*
X0129837Y0081390D02*
X0166999Y0081390D01*
X0167930Y0080191D02*
X0128422Y0080191D01*
X0123384Y0087383D02*
X0114360Y0087383D01*
X0107799Y0069575D02*
X0107799Y0064575D01*
X0109391Y0044236D02*
X0147208Y0044236D01*
X0146009Y0043038D02*
X0110589Y0043038D01*
X0110599Y0041839D02*
X0145999Y0041839D01*
X0146481Y0040641D02*
X0110118Y0040641D01*
X0121600Y0034648D02*
X0129998Y0034648D01*
X0129256Y0033449D02*
X0122343Y0033449D01*
X0122599Y0032251D02*
X0128999Y0032251D01*
X0129110Y0031052D02*
X0122489Y0031052D01*
X0121952Y0029854D02*
X0129646Y0029854D01*
X0131124Y0028655D02*
X0120474Y0028655D01*
X0155557Y0028655D02*
X0158341Y0028655D01*
X0162257Y0028655D02*
X0165041Y0028655D01*
X0168957Y0028655D02*
X0171741Y0028655D01*
X0175657Y0028655D02*
X0177246Y0028655D01*
X0177246Y0027457D02*
X0177055Y0027457D01*
X0191683Y0027457D02*
X0192160Y0027457D01*
X0191946Y0026941D02*
X0192609Y0028540D01*
X0193834Y0029765D01*
X0195433Y0030428D01*
X0197165Y0030428D01*
X0198765Y0029765D01*
X0199989Y0028540D01*
X0200652Y0026941D01*
X0200652Y0025209D01*
X0199989Y0023609D01*
X0198765Y0022385D01*
X0197165Y0021722D01*
X0195433Y0021722D01*
X0193834Y0022385D01*
X0192609Y0023609D01*
X0191946Y0025209D01*
X0191946Y0026941D01*
X0191946Y0026258D02*
X0191683Y0026258D01*
X0191683Y0025060D02*
X0192008Y0025060D01*
X0191683Y0023861D02*
X0192505Y0023861D01*
X0191683Y0022663D02*
X0193555Y0022663D01*
X0191683Y0021464D02*
X0244050Y0021464D01*
X0245113Y0020401D02*
X0247911Y0019243D01*
X0250939Y0019243D01*
X0253737Y0020401D01*
X0255878Y0022543D01*
X0257037Y0025340D01*
X0257037Y0028368D01*
X0255878Y0031166D01*
X0253737Y0033307D01*
X0250939Y0034466D01*
X0247911Y0034466D01*
X0245113Y0033307D01*
X0242972Y0031166D01*
X0241813Y0028368D01*
X0241813Y0025340D01*
X0242972Y0022543D01*
X0245113Y0020401D01*
X0245441Y0020266D02*
X0191683Y0020266D01*
X0191683Y0019067D02*
X0259022Y0019067D01*
X0259893Y0020266D02*
X0253410Y0020266D01*
X0254800Y0021464D02*
X0260367Y0021464D01*
X0260756Y0022663D02*
X0255928Y0022663D01*
X0256424Y0023861D02*
X0261024Y0023861D01*
X0261105Y0025060D02*
X0256921Y0025060D01*
X0257037Y0026258D02*
X0261105Y0026258D01*
X0261105Y0027457D02*
X0257037Y0027457D01*
X0256918Y0028655D02*
X0261105Y0028655D01*
X0261105Y0029854D02*
X0256422Y0029854D01*
X0255925Y0031052D02*
X0261105Y0031052D01*
X0261105Y0032251D02*
X0254793Y0032251D01*
X0253394Y0033449D02*
X0261105Y0033449D01*
X0261105Y0034648D02*
X0191683Y0034648D01*
X0191683Y0033449D02*
X0245457Y0033449D01*
X0244057Y0032251D02*
X0191683Y0032251D01*
X0191683Y0031052D02*
X0242925Y0031052D01*
X0242429Y0029854D02*
X0228550Y0029854D01*
X0228765Y0029765D02*
X0227165Y0030428D01*
X0225433Y0030428D01*
X0223834Y0029765D01*
X0222609Y0028540D01*
X0221946Y0026941D01*
X0221946Y0025209D01*
X0222609Y0023609D01*
X0223834Y0022385D01*
X0225433Y0021722D01*
X0227165Y0021722D01*
X0228765Y0022385D01*
X0229989Y0023609D01*
X0230652Y0025209D01*
X0230652Y0026941D01*
X0229989Y0028540D01*
X0228765Y0029765D01*
X0229874Y0028655D02*
X0241932Y0028655D01*
X0241813Y0027457D02*
X0230438Y0027457D01*
X0230652Y0026258D02*
X0241813Y0026258D01*
X0241929Y0025060D02*
X0230590Y0025060D01*
X0230094Y0023861D02*
X0242426Y0023861D01*
X0242922Y0022663D02*
X0229043Y0022663D01*
X0223555Y0022663D02*
X0219326Y0022663D01*
X0219265Y0022602D02*
X0219772Y0023109D01*
X0220193Y0023689D01*
X0220518Y0024327D01*
X0220740Y0025009D01*
X0220848Y0025691D01*
X0216684Y0025691D01*
X0216684Y0026459D01*
X0220848Y0026459D01*
X0220740Y0027141D01*
X0220518Y0027822D01*
X0220193Y0028461D01*
X0219772Y0029041D01*
X0219265Y0029547D01*
X0218685Y0029969D01*
X0218047Y0030294D01*
X0217365Y0030515D01*
X0216683Y0030623D01*
X0216683Y0026459D01*
X0215915Y0026459D01*
X0215915Y0025691D01*
X0211751Y0025691D01*
X0211859Y0025009D01*
X0212080Y0024327D01*
X0212405Y0023689D01*
X0212827Y0023109D01*
X0213333Y0022602D01*
X0213913Y0022181D01*
X0214552Y0021856D01*
X0215233Y0021634D01*
X0215915Y0021526D01*
X0215915Y0025690D01*
X0216683Y0025690D01*
X0216683Y0021526D01*
X0217365Y0021634D01*
X0218047Y0021856D01*
X0218685Y0022181D01*
X0219265Y0022602D01*
X0220281Y0023861D02*
X0222505Y0023861D01*
X0222008Y0025060D02*
X0220748Y0025060D01*
X0221946Y0026258D02*
X0216684Y0026258D01*
X0215915Y0026258D02*
X0210652Y0026258D01*
X0210652Y0026941D02*
X0209989Y0028540D01*
X0208765Y0029765D01*
X0207165Y0030428D01*
X0205433Y0030428D01*
X0203834Y0029765D01*
X0202609Y0028540D01*
X0201946Y0026941D01*
X0201946Y0025209D01*
X0202609Y0023609D01*
X0203834Y0022385D01*
X0205433Y0021722D01*
X0207165Y0021722D01*
X0208765Y0022385D01*
X0209989Y0023609D01*
X0210652Y0025209D01*
X0210652Y0026941D01*
X0210438Y0027457D02*
X0211961Y0027457D01*
X0211859Y0027141D02*
X0211751Y0026459D01*
X0215915Y0026459D01*
X0215915Y0030623D01*
X0215233Y0030515D01*
X0214552Y0030294D01*
X0213913Y0029969D01*
X0213333Y0029547D01*
X0212827Y0029041D01*
X0212405Y0028461D01*
X0212080Y0027822D01*
X0211859Y0027141D01*
X0212547Y0028655D02*
X0209874Y0028655D01*
X0208550Y0029854D02*
X0213755Y0029854D01*
X0215915Y0029854D02*
X0216683Y0029854D01*
X0216683Y0028655D02*
X0215915Y0028655D01*
X0215915Y0027457D02*
X0216683Y0027457D01*
X0216683Y0025060D02*
X0215915Y0025060D01*
X0215915Y0023861D02*
X0216683Y0023861D01*
X0216683Y0022663D02*
X0215915Y0022663D01*
X0213273Y0022663D02*
X0209043Y0022663D01*
X0210094Y0023861D02*
X0212317Y0023861D01*
X0211850Y0025060D02*
X0210590Y0025060D01*
X0203555Y0022663D02*
X0199043Y0022663D01*
X0200094Y0023861D02*
X0202505Y0023861D01*
X0202008Y0025060D02*
X0200590Y0025060D01*
X0200652Y0026258D02*
X0201946Y0026258D01*
X0202160Y0027457D02*
X0200438Y0027457D01*
X0199874Y0028655D02*
X0202724Y0028655D01*
X0204049Y0029854D02*
X0198550Y0029854D01*
X0194049Y0029854D02*
X0191683Y0029854D01*
X0191683Y0028655D02*
X0192724Y0028655D01*
X0191683Y0035847D02*
X0261105Y0035847D01*
X0261105Y0037045D02*
X0191683Y0037045D01*
X0191683Y0038244D02*
X0261105Y0038244D01*
X0261105Y0039442D02*
X0191683Y0039442D01*
X0191683Y0040641D02*
X0261105Y0040641D01*
X0261105Y0041839D02*
X0191683Y0041839D01*
X0191683Y0043038D02*
X0261105Y0043038D01*
X0261105Y0044236D02*
X0191683Y0044236D01*
X0191683Y0045435D02*
X0261105Y0045435D01*
X0261105Y0046633D02*
X0191683Y0046633D01*
X0191683Y0047832D02*
X0261105Y0047832D01*
X0261105Y0049030D02*
X0191683Y0049030D01*
X0191683Y0050229D02*
X0236210Y0050229D01*
X0235834Y0050385D02*
X0237433Y0049722D01*
X0239165Y0049722D01*
X0240765Y0050385D01*
X0241989Y0051609D01*
X0242652Y0053209D01*
X0242652Y0054941D01*
X0241989Y0056540D01*
X0240765Y0057765D01*
X0239165Y0058428D01*
X0237433Y0058428D01*
X0235834Y0057765D01*
X0234609Y0056540D01*
X0233946Y0054941D01*
X0233946Y0053209D01*
X0234609Y0051609D01*
X0235834Y0050385D01*
X0234791Y0051427D02*
X0191683Y0051427D01*
X0191683Y0052626D02*
X0234188Y0052626D01*
X0233946Y0053824D02*
X0191683Y0053824D01*
X0191683Y0055023D02*
X0233980Y0055023D01*
X0234477Y0056221D02*
X0191683Y0056221D01*
X0191683Y0057420D02*
X0235488Y0057420D01*
X0241110Y0057420D02*
X0245206Y0057420D01*
X0245333Y0057547D02*
X0244827Y0057041D01*
X0244405Y0056461D01*
X0244080Y0055822D01*
X0243859Y0055141D01*
X0243751Y0054459D01*
X0247915Y0054459D01*
X0247915Y0053691D01*
X0243751Y0053691D01*
X0243859Y0053009D01*
X0244080Y0052327D01*
X0244405Y0051689D01*
X0244827Y0051109D01*
X0245333Y0050602D01*
X0245913Y0050181D01*
X0246552Y0049856D01*
X0247233Y0049634D01*
X0247915Y0049526D01*
X0247915Y0053690D01*
X0248683Y0053690D01*
X0248683Y0049526D01*
X0249365Y0049634D01*
X0250047Y0049856D01*
X0250685Y0050181D01*
X0251265Y0050602D01*
X0251772Y0051109D01*
X0252193Y0051689D01*
X0252518Y0052327D01*
X0252740Y0053009D01*
X0252848Y0053691D01*
X0248684Y0053691D01*
X0248684Y0054459D01*
X0252848Y0054459D01*
X0252740Y0055141D01*
X0252518Y0055822D01*
X0252193Y0056461D01*
X0251772Y0057041D01*
X0251265Y0057547D01*
X0250685Y0057969D01*
X0250047Y0058294D01*
X0249365Y0058515D01*
X0248683Y0058623D01*
X0248683Y0054459D01*
X0247915Y0054459D01*
X0247915Y0058623D01*
X0247233Y0058515D01*
X0246552Y0058294D01*
X0245913Y0057969D01*
X0245333Y0057547D01*
X0244283Y0056221D02*
X0242122Y0056221D01*
X0242618Y0055023D02*
X0243840Y0055023D01*
X0242652Y0053824D02*
X0247915Y0053824D01*
X0248684Y0053824D02*
X0253946Y0053824D01*
X0253980Y0055023D02*
X0252759Y0055023D01*
X0252315Y0056221D02*
X0254477Y0056221D01*
X0255488Y0057420D02*
X0251393Y0057420D01*
X0248683Y0057420D02*
X0247915Y0057420D01*
X0247915Y0058618D02*
X0248683Y0058618D01*
X0248716Y0058618D02*
X0261105Y0058618D01*
X0261105Y0059817D02*
X0191683Y0059817D01*
X0191683Y0061015D02*
X0261105Y0061015D01*
X0261105Y0062214D02*
X0191683Y0062214D01*
X0191683Y0063412D02*
X0261105Y0063412D01*
X0261105Y0064611D02*
X0191683Y0064611D01*
X0191683Y0065809D02*
X0261105Y0065809D01*
X0261105Y0067008D02*
X0191683Y0067008D01*
X0191683Y0068206D02*
X0261105Y0068206D01*
X0261105Y0069405D02*
X0191683Y0069405D01*
X0191683Y0070603D02*
X0261105Y0070603D01*
X0261105Y0071802D02*
X0191683Y0071802D01*
X0191683Y0073000D02*
X0261105Y0073000D01*
X0261105Y0074199D02*
X0191683Y0074199D01*
X0191683Y0075397D02*
X0261105Y0075397D01*
X0261105Y0076596D02*
X0249124Y0076596D01*
X0249365Y0076634D02*
X0250047Y0076856D01*
X0250685Y0077181D01*
X0251265Y0077602D01*
X0251772Y0078109D01*
X0252193Y0078689D01*
X0252518Y0079327D01*
X0252740Y0080009D01*
X0252848Y0080691D01*
X0248684Y0080691D01*
X0248684Y0081459D01*
X0252848Y0081459D01*
X0252740Y0082141D01*
X0252518Y0082822D01*
X0252193Y0083461D01*
X0251772Y0084041D01*
X0251265Y0084547D01*
X0250685Y0084969D01*
X0250047Y0085294D01*
X0249365Y0085515D01*
X0248683Y0085623D01*
X0248683Y0081459D01*
X0247915Y0081459D01*
X0247915Y0080691D01*
X0243751Y0080691D01*
X0243859Y0080009D01*
X0244080Y0079327D01*
X0244405Y0078689D01*
X0244827Y0078109D01*
X0245333Y0077602D01*
X0245913Y0077181D01*
X0246552Y0076856D01*
X0247233Y0076634D01*
X0247915Y0076526D01*
X0247915Y0080690D01*
X0248683Y0080690D01*
X0248683Y0076526D01*
X0249365Y0076634D01*
X0248683Y0076596D02*
X0247915Y0076596D01*
X0247475Y0076596D02*
X0191683Y0076596D01*
X0191683Y0077794D02*
X0235424Y0077794D01*
X0235834Y0077385D02*
X0237433Y0076722D01*
X0239165Y0076722D01*
X0240765Y0077385D01*
X0241989Y0078609D01*
X0242652Y0080209D01*
X0242652Y0081941D01*
X0241989Y0083540D01*
X0240765Y0084765D01*
X0239165Y0085428D01*
X0237433Y0085428D01*
X0235834Y0084765D01*
X0234609Y0083540D01*
X0233946Y0081941D01*
X0233946Y0080209D01*
X0234609Y0078609D01*
X0235834Y0077385D01*
X0234450Y0078993D02*
X0191683Y0078993D01*
X0191683Y0080191D02*
X0233954Y0080191D01*
X0233946Y0081390D02*
X0191683Y0081390D01*
X0191683Y0082588D02*
X0234215Y0082588D01*
X0234856Y0083787D02*
X0191683Y0083787D01*
X0191683Y0084985D02*
X0236366Y0084985D01*
X0240232Y0084985D02*
X0245946Y0084985D01*
X0245913Y0084969D02*
X0245333Y0084547D01*
X0244827Y0084041D01*
X0244405Y0083461D01*
X0244080Y0082822D01*
X0243859Y0082141D01*
X0243751Y0081459D01*
X0247915Y0081459D01*
X0247915Y0085623D01*
X0247233Y0085515D01*
X0246552Y0085294D01*
X0245913Y0084969D01*
X0244642Y0083787D02*
X0241743Y0083787D01*
X0242384Y0082588D02*
X0244004Y0082588D01*
X0242652Y0081390D02*
X0247915Y0081390D01*
X0248684Y0081390D02*
X0253946Y0081390D01*
X0253954Y0080191D02*
X0252769Y0080191D01*
X0252348Y0078993D02*
X0254450Y0078993D01*
X0255424Y0077794D02*
X0251457Y0077794D01*
X0248683Y0077794D02*
X0247915Y0077794D01*
X0247915Y0078993D02*
X0248683Y0078993D01*
X0248683Y0080191D02*
X0247915Y0080191D01*
X0247915Y0082588D02*
X0248683Y0082588D01*
X0248683Y0083787D02*
X0247915Y0083787D01*
X0247915Y0084985D02*
X0248683Y0084985D01*
X0250652Y0084985D02*
X0256366Y0084985D01*
X0254856Y0083787D02*
X0251956Y0083787D01*
X0252594Y0082588D02*
X0254215Y0082588D01*
X0260232Y0084985D02*
X0261105Y0084985D01*
X0261105Y0086184D02*
X0191683Y0086184D01*
X0191683Y0087383D02*
X0196739Y0087383D01*
X0197347Y0086775D02*
X0199252Y0086775D01*
X0200599Y0088122D01*
X0200599Y0090027D01*
X0199252Y0091375D01*
X0197347Y0091375D01*
X0195999Y0090027D01*
X0195999Y0088122D01*
X0197347Y0086775D01*
X0195999Y0088581D02*
X0191683Y0088581D01*
X0191392Y0089780D02*
X0195999Y0089780D01*
X0196950Y0090978D02*
X0190896Y0090978D01*
X0190764Y0091298D02*
X0190764Y0091298D01*
X0189885Y0092177D02*
X0218148Y0092177D01*
X0218347Y0092375D02*
X0216999Y0091027D01*
X0216999Y0089122D01*
X0218347Y0087775D01*
X0220252Y0087775D01*
X0221599Y0089122D01*
X0221599Y0091027D01*
X0220252Y0092375D01*
X0218347Y0092375D01*
X0216999Y0090978D02*
X0199649Y0090978D01*
X0200599Y0089780D02*
X0216999Y0089780D01*
X0217540Y0088581D02*
X0200599Y0088581D01*
X0199860Y0087383D02*
X0261105Y0087383D01*
X0261105Y0088581D02*
X0221058Y0088581D01*
X0221599Y0089780D02*
X0261105Y0089780D01*
X0261105Y0090978D02*
X0221599Y0090978D01*
X0220450Y0092177D02*
X0261105Y0092177D01*
X0261105Y0093375D02*
X0188150Y0093375D01*
X0189065Y0092996D02*
X0189065Y0092996D01*
X0177246Y0083787D02*
X0170840Y0083787D01*
X0171599Y0082588D02*
X0177246Y0082588D01*
X0177246Y0081390D02*
X0171599Y0081390D01*
X0170669Y0080191D02*
X0177246Y0080191D01*
X0167454Y0070603D02*
X0159145Y0070603D01*
X0159861Y0069405D02*
X0166737Y0069405D01*
X0166499Y0068206D02*
X0160099Y0068206D01*
X0159970Y0067008D02*
X0166628Y0067008D01*
X0167191Y0065809D02*
X0159408Y0065809D01*
X0157866Y0064611D02*
X0168732Y0064611D01*
X0191683Y0058618D02*
X0247882Y0058618D01*
X0247915Y0056221D02*
X0248683Y0056221D01*
X0248683Y0055023D02*
X0247915Y0055023D01*
X0247915Y0052626D02*
X0248683Y0052626D01*
X0248683Y0051427D02*
X0247915Y0051427D01*
X0247915Y0050229D02*
X0248683Y0050229D01*
X0250751Y0050229D02*
X0256210Y0050229D01*
X0254791Y0051427D02*
X0252003Y0051427D01*
X0252615Y0052626D02*
X0254188Y0052626D01*
X0260388Y0050229D02*
X0261105Y0050229D01*
X0245847Y0050229D02*
X0240388Y0050229D01*
X0241807Y0051427D02*
X0244595Y0051427D01*
X0243983Y0052626D02*
X0242410Y0052626D01*
X0224049Y0029854D02*
X0218843Y0029854D01*
X0220052Y0028655D02*
X0222724Y0028655D01*
X0222160Y0027457D02*
X0220637Y0027457D01*
X0191683Y0017869D02*
X0258054Y0017869D01*
X0256404Y0016670D02*
X0191716Y0016670D01*
X0192529Y0015472D02*
X0253459Y0015472D01*
X0245141Y0077794D02*
X0241175Y0077794D01*
X0242148Y0078993D02*
X0244250Y0078993D01*
X0243830Y0080191D02*
X0242645Y0080191D01*
X0250648Y0104162D02*
X0256372Y0104162D01*
X0254858Y0105360D02*
X0251954Y0105360D01*
X0252594Y0106559D02*
X0254216Y0106559D01*
X0260226Y0104162D02*
X0261105Y0104162D01*
D19*
X0233299Y0194075D02*
X0200299Y0227075D01*
X0132299Y0227075D01*
X0120299Y0215075D01*
X0110299Y0225075D01*
X0106299Y0225075D01*
X0099976Y0218752D01*
X0094622Y0218752D01*
M02*
