G75*
%MOIN*%
%OFA0B0*%
%FSLAX25Y25*%
%IPPOS*%
%LPD*%
%AMOC8*
5,1,8,0,0,1.08239X$1,22.5*
%
%ADD10C,0.00000*%
%ADD11C,0.00300*%
%ADD12C,0.00500*%
%ADD13C,0.01000*%
%ADD14C,0.00400*%
%ADD15C,0.00600*%
%ADD16R,0.02953X0.01969*%
%ADD17C,0.00800*%
%ADD18R,0.09000X0.02500*%
%ADD19R,0.06299X0.01772*%
%ADD20C,0.00080*%
D10*
X0019110Y0013075D02*
X0175409Y0013075D01*
X0175533Y0013077D01*
X0175656Y0013083D01*
X0175780Y0013092D01*
X0175902Y0013106D01*
X0176025Y0013123D01*
X0176147Y0013145D01*
X0176268Y0013170D01*
X0176388Y0013199D01*
X0176507Y0013231D01*
X0176626Y0013268D01*
X0176743Y0013308D01*
X0176858Y0013351D01*
X0176973Y0013399D01*
X0177085Y0013450D01*
X0177196Y0013504D01*
X0177306Y0013562D01*
X0177413Y0013623D01*
X0177519Y0013688D01*
X0177622Y0013756D01*
X0177723Y0013827D01*
X0177822Y0013901D01*
X0177919Y0013978D01*
X0178013Y0014059D01*
X0178104Y0014142D01*
X0178193Y0014228D01*
X0178279Y0014317D01*
X0178362Y0014408D01*
X0178443Y0014502D01*
X0178520Y0014599D01*
X0178594Y0014698D01*
X0178665Y0014799D01*
X0178733Y0014902D01*
X0178798Y0015008D01*
X0178859Y0015115D01*
X0178917Y0015225D01*
X0178971Y0015336D01*
X0179022Y0015448D01*
X0179070Y0015563D01*
X0179113Y0015678D01*
X0179153Y0015795D01*
X0179190Y0015914D01*
X0179222Y0016033D01*
X0179251Y0016153D01*
X0179276Y0016274D01*
X0179298Y0016396D01*
X0179315Y0016519D01*
X0179329Y0016641D01*
X0179338Y0016765D01*
X0179344Y0016888D01*
X0179346Y0017012D01*
X0179346Y0087878D01*
X0179348Y0088002D01*
X0179354Y0088125D01*
X0179363Y0088249D01*
X0179377Y0088371D01*
X0179394Y0088494D01*
X0179416Y0088616D01*
X0179441Y0088737D01*
X0179470Y0088857D01*
X0179502Y0088976D01*
X0179539Y0089095D01*
X0179579Y0089212D01*
X0179622Y0089327D01*
X0179670Y0089442D01*
X0179721Y0089554D01*
X0179775Y0089665D01*
X0179833Y0089775D01*
X0179894Y0089882D01*
X0179959Y0089988D01*
X0180027Y0090091D01*
X0180098Y0090192D01*
X0180172Y0090291D01*
X0180249Y0090388D01*
X0180330Y0090482D01*
X0180413Y0090573D01*
X0180499Y0090662D01*
X0180588Y0090748D01*
X0180679Y0090831D01*
X0180773Y0090912D01*
X0180870Y0090989D01*
X0180969Y0091063D01*
X0181070Y0091134D01*
X0181173Y0091202D01*
X0181279Y0091267D01*
X0181386Y0091328D01*
X0181496Y0091386D01*
X0181607Y0091440D01*
X0181719Y0091491D01*
X0181834Y0091539D01*
X0181949Y0091582D01*
X0182066Y0091622D01*
X0182185Y0091659D01*
X0182304Y0091691D01*
X0182424Y0091720D01*
X0182545Y0091745D01*
X0182667Y0091767D01*
X0182790Y0091784D01*
X0182912Y0091798D01*
X0183036Y0091807D01*
X0183159Y0091813D01*
X0183283Y0091815D01*
X0185646Y0091815D01*
X0185770Y0091813D01*
X0185893Y0091807D01*
X0186017Y0091798D01*
X0186139Y0091784D01*
X0186262Y0091767D01*
X0186384Y0091745D01*
X0186505Y0091720D01*
X0186625Y0091691D01*
X0186744Y0091659D01*
X0186863Y0091622D01*
X0186980Y0091582D01*
X0187095Y0091539D01*
X0187210Y0091491D01*
X0187322Y0091440D01*
X0187433Y0091386D01*
X0187543Y0091328D01*
X0187650Y0091267D01*
X0187756Y0091202D01*
X0187859Y0091134D01*
X0187960Y0091063D01*
X0188059Y0090989D01*
X0188156Y0090912D01*
X0188250Y0090831D01*
X0188341Y0090748D01*
X0188430Y0090662D01*
X0188516Y0090573D01*
X0188599Y0090482D01*
X0188680Y0090388D01*
X0188757Y0090291D01*
X0188831Y0090192D01*
X0188902Y0090091D01*
X0188970Y0089988D01*
X0189035Y0089882D01*
X0189096Y0089775D01*
X0189154Y0089665D01*
X0189208Y0089554D01*
X0189259Y0089442D01*
X0189307Y0089327D01*
X0189350Y0089212D01*
X0189390Y0089095D01*
X0189427Y0088976D01*
X0189459Y0088857D01*
X0189488Y0088737D01*
X0189513Y0088616D01*
X0189535Y0088494D01*
X0189552Y0088371D01*
X0189566Y0088249D01*
X0189575Y0088125D01*
X0189581Y0088002D01*
X0189583Y0087878D01*
X0189583Y0017012D01*
X0189585Y0016888D01*
X0189591Y0016765D01*
X0189600Y0016641D01*
X0189614Y0016519D01*
X0189631Y0016396D01*
X0189653Y0016274D01*
X0189678Y0016153D01*
X0189707Y0016033D01*
X0189739Y0015914D01*
X0189776Y0015795D01*
X0189816Y0015678D01*
X0189859Y0015563D01*
X0189907Y0015448D01*
X0189958Y0015336D01*
X0190012Y0015225D01*
X0190070Y0015115D01*
X0190131Y0015008D01*
X0190196Y0014902D01*
X0190264Y0014799D01*
X0190335Y0014698D01*
X0190409Y0014599D01*
X0190486Y0014502D01*
X0190567Y0014408D01*
X0190650Y0014317D01*
X0190736Y0014228D01*
X0190825Y0014142D01*
X0190916Y0014059D01*
X0191010Y0013978D01*
X0191107Y0013901D01*
X0191206Y0013827D01*
X0191307Y0013756D01*
X0191410Y0013688D01*
X0191516Y0013623D01*
X0191623Y0013562D01*
X0191733Y0013504D01*
X0191844Y0013450D01*
X0191956Y0013399D01*
X0192071Y0013351D01*
X0192186Y0013308D01*
X0192303Y0013268D01*
X0192422Y0013231D01*
X0192541Y0013199D01*
X0192661Y0013170D01*
X0192782Y0013145D01*
X0192904Y0013123D01*
X0193027Y0013106D01*
X0193149Y0013092D01*
X0193273Y0013083D01*
X0193396Y0013077D01*
X0193520Y0013075D01*
X0251394Y0013075D01*
X0251679Y0013078D01*
X0251965Y0013089D01*
X0252250Y0013106D01*
X0252534Y0013130D01*
X0252818Y0013161D01*
X0253101Y0013199D01*
X0253382Y0013244D01*
X0253663Y0013295D01*
X0253943Y0013353D01*
X0254221Y0013418D01*
X0254497Y0013490D01*
X0254771Y0013568D01*
X0255044Y0013653D01*
X0255314Y0013745D01*
X0255582Y0013843D01*
X0255848Y0013947D01*
X0256111Y0014058D01*
X0256371Y0014175D01*
X0256629Y0014298D01*
X0256883Y0014428D01*
X0257134Y0014564D01*
X0257382Y0014705D01*
X0257626Y0014853D01*
X0257867Y0015006D01*
X0258103Y0015166D01*
X0258336Y0015331D01*
X0258565Y0015501D01*
X0258790Y0015677D01*
X0259010Y0015859D01*
X0259226Y0016045D01*
X0259437Y0016237D01*
X0259644Y0016434D01*
X0259846Y0016636D01*
X0260043Y0016843D01*
X0260235Y0017054D01*
X0260421Y0017270D01*
X0260603Y0017490D01*
X0260779Y0017715D01*
X0260949Y0017944D01*
X0261114Y0018177D01*
X0261274Y0018413D01*
X0261427Y0018654D01*
X0261575Y0018898D01*
X0261716Y0019146D01*
X0261852Y0019397D01*
X0261982Y0019651D01*
X0262105Y0019909D01*
X0262222Y0020169D01*
X0262333Y0020432D01*
X0262437Y0020698D01*
X0262535Y0020966D01*
X0262627Y0021236D01*
X0262712Y0021509D01*
X0262790Y0021783D01*
X0262862Y0022059D01*
X0262927Y0022337D01*
X0262985Y0022617D01*
X0263036Y0022898D01*
X0263081Y0023179D01*
X0263119Y0023462D01*
X0263150Y0023746D01*
X0263174Y0024030D01*
X0263191Y0024315D01*
X0263202Y0024601D01*
X0263205Y0024886D01*
X0263205Y0221736D01*
X0243913Y0219768D02*
X0243915Y0219916D01*
X0243921Y0220064D01*
X0243931Y0220212D01*
X0243945Y0220359D01*
X0243963Y0220506D01*
X0243984Y0220652D01*
X0244010Y0220798D01*
X0244040Y0220943D01*
X0244073Y0221087D01*
X0244111Y0221230D01*
X0244152Y0221372D01*
X0244197Y0221513D01*
X0244245Y0221653D01*
X0244298Y0221792D01*
X0244354Y0221929D01*
X0244414Y0222064D01*
X0244477Y0222198D01*
X0244544Y0222330D01*
X0244615Y0222460D01*
X0244689Y0222588D01*
X0244766Y0222714D01*
X0244847Y0222838D01*
X0244931Y0222960D01*
X0245018Y0223079D01*
X0245109Y0223196D01*
X0245203Y0223311D01*
X0245299Y0223423D01*
X0245399Y0223533D01*
X0245501Y0223639D01*
X0245607Y0223743D01*
X0245715Y0223844D01*
X0245826Y0223942D01*
X0245939Y0224038D01*
X0246055Y0224130D01*
X0246173Y0224219D01*
X0246294Y0224304D01*
X0246417Y0224387D01*
X0246542Y0224466D01*
X0246669Y0224542D01*
X0246798Y0224614D01*
X0246929Y0224683D01*
X0247062Y0224748D01*
X0247197Y0224809D01*
X0247333Y0224867D01*
X0247470Y0224922D01*
X0247609Y0224972D01*
X0247750Y0225019D01*
X0247891Y0225062D01*
X0248034Y0225102D01*
X0248178Y0225137D01*
X0248322Y0225169D01*
X0248468Y0225196D01*
X0248614Y0225220D01*
X0248761Y0225240D01*
X0248908Y0225256D01*
X0249055Y0225268D01*
X0249203Y0225276D01*
X0249351Y0225280D01*
X0249499Y0225280D01*
X0249647Y0225276D01*
X0249795Y0225268D01*
X0249942Y0225256D01*
X0250089Y0225240D01*
X0250236Y0225220D01*
X0250382Y0225196D01*
X0250528Y0225169D01*
X0250672Y0225137D01*
X0250816Y0225102D01*
X0250959Y0225062D01*
X0251100Y0225019D01*
X0251241Y0224972D01*
X0251380Y0224922D01*
X0251517Y0224867D01*
X0251653Y0224809D01*
X0251788Y0224748D01*
X0251921Y0224683D01*
X0252052Y0224614D01*
X0252181Y0224542D01*
X0252308Y0224466D01*
X0252433Y0224387D01*
X0252556Y0224304D01*
X0252677Y0224219D01*
X0252795Y0224130D01*
X0252911Y0224038D01*
X0253024Y0223942D01*
X0253135Y0223844D01*
X0253243Y0223743D01*
X0253349Y0223639D01*
X0253451Y0223533D01*
X0253551Y0223423D01*
X0253647Y0223311D01*
X0253741Y0223196D01*
X0253832Y0223079D01*
X0253919Y0222960D01*
X0254003Y0222838D01*
X0254084Y0222714D01*
X0254161Y0222588D01*
X0254235Y0222460D01*
X0254306Y0222330D01*
X0254373Y0222198D01*
X0254436Y0222064D01*
X0254496Y0221929D01*
X0254552Y0221792D01*
X0254605Y0221653D01*
X0254653Y0221513D01*
X0254698Y0221372D01*
X0254739Y0221230D01*
X0254777Y0221087D01*
X0254810Y0220943D01*
X0254840Y0220798D01*
X0254866Y0220652D01*
X0254887Y0220506D01*
X0254905Y0220359D01*
X0254919Y0220212D01*
X0254929Y0220064D01*
X0254935Y0219916D01*
X0254937Y0219768D01*
X0254935Y0219620D01*
X0254929Y0219472D01*
X0254919Y0219324D01*
X0254905Y0219177D01*
X0254887Y0219030D01*
X0254866Y0218884D01*
X0254840Y0218738D01*
X0254810Y0218593D01*
X0254777Y0218449D01*
X0254739Y0218306D01*
X0254698Y0218164D01*
X0254653Y0218023D01*
X0254605Y0217883D01*
X0254552Y0217744D01*
X0254496Y0217607D01*
X0254436Y0217472D01*
X0254373Y0217338D01*
X0254306Y0217206D01*
X0254235Y0217076D01*
X0254161Y0216948D01*
X0254084Y0216822D01*
X0254003Y0216698D01*
X0253919Y0216576D01*
X0253832Y0216457D01*
X0253741Y0216340D01*
X0253647Y0216225D01*
X0253551Y0216113D01*
X0253451Y0216003D01*
X0253349Y0215897D01*
X0253243Y0215793D01*
X0253135Y0215692D01*
X0253024Y0215594D01*
X0252911Y0215498D01*
X0252795Y0215406D01*
X0252677Y0215317D01*
X0252556Y0215232D01*
X0252433Y0215149D01*
X0252308Y0215070D01*
X0252181Y0214994D01*
X0252052Y0214922D01*
X0251921Y0214853D01*
X0251788Y0214788D01*
X0251653Y0214727D01*
X0251517Y0214669D01*
X0251380Y0214614D01*
X0251241Y0214564D01*
X0251100Y0214517D01*
X0250959Y0214474D01*
X0250816Y0214434D01*
X0250672Y0214399D01*
X0250528Y0214367D01*
X0250382Y0214340D01*
X0250236Y0214316D01*
X0250089Y0214296D01*
X0249942Y0214280D01*
X0249795Y0214268D01*
X0249647Y0214260D01*
X0249499Y0214256D01*
X0249351Y0214256D01*
X0249203Y0214260D01*
X0249055Y0214268D01*
X0248908Y0214280D01*
X0248761Y0214296D01*
X0248614Y0214316D01*
X0248468Y0214340D01*
X0248322Y0214367D01*
X0248178Y0214399D01*
X0248034Y0214434D01*
X0247891Y0214474D01*
X0247750Y0214517D01*
X0247609Y0214564D01*
X0247470Y0214614D01*
X0247333Y0214669D01*
X0247197Y0214727D01*
X0247062Y0214788D01*
X0246929Y0214853D01*
X0246798Y0214922D01*
X0246669Y0214994D01*
X0246542Y0215070D01*
X0246417Y0215149D01*
X0246294Y0215232D01*
X0246173Y0215317D01*
X0246055Y0215406D01*
X0245939Y0215498D01*
X0245826Y0215594D01*
X0245715Y0215692D01*
X0245607Y0215793D01*
X0245501Y0215897D01*
X0245399Y0216003D01*
X0245299Y0216113D01*
X0245203Y0216225D01*
X0245109Y0216340D01*
X0245018Y0216457D01*
X0244931Y0216576D01*
X0244847Y0216698D01*
X0244766Y0216822D01*
X0244689Y0216948D01*
X0244615Y0217076D01*
X0244544Y0217206D01*
X0244477Y0217338D01*
X0244414Y0217472D01*
X0244354Y0217607D01*
X0244298Y0217744D01*
X0244245Y0217883D01*
X0244197Y0218023D01*
X0244152Y0218164D01*
X0244111Y0218306D01*
X0244073Y0218449D01*
X0244040Y0218593D01*
X0244010Y0218738D01*
X0243984Y0218884D01*
X0243963Y0219030D01*
X0243945Y0219177D01*
X0243931Y0219324D01*
X0243921Y0219472D01*
X0243915Y0219620D01*
X0243913Y0219768D01*
X0246472Y0238468D02*
X0246876Y0238463D01*
X0247280Y0238448D01*
X0247684Y0238424D01*
X0248087Y0238390D01*
X0248489Y0238346D01*
X0248890Y0238292D01*
X0249289Y0238229D01*
X0249687Y0238156D01*
X0250083Y0238074D01*
X0250476Y0237982D01*
X0250868Y0237880D01*
X0251256Y0237769D01*
X0251642Y0237649D01*
X0252025Y0237519D01*
X0252405Y0237381D01*
X0252782Y0237233D01*
X0253154Y0237076D01*
X0253523Y0236910D01*
X0253887Y0236735D01*
X0254248Y0236551D01*
X0254603Y0236359D01*
X0254954Y0236158D01*
X0255300Y0235949D01*
X0255641Y0235732D01*
X0255977Y0235506D01*
X0256307Y0235272D01*
X0256631Y0235031D01*
X0256949Y0234782D01*
X0257261Y0234525D01*
X0257567Y0234260D01*
X0257867Y0233988D01*
X0258159Y0233709D01*
X0258445Y0233423D01*
X0258724Y0233131D01*
X0258996Y0232831D01*
X0259261Y0232525D01*
X0259518Y0232213D01*
X0259767Y0231895D01*
X0260008Y0231571D01*
X0260242Y0231241D01*
X0260468Y0230905D01*
X0260685Y0230564D01*
X0260894Y0230218D01*
X0261095Y0229867D01*
X0261287Y0229512D01*
X0261471Y0229151D01*
X0261646Y0228787D01*
X0261812Y0228418D01*
X0261969Y0228046D01*
X0262117Y0227669D01*
X0262255Y0227289D01*
X0262385Y0226906D01*
X0262505Y0226520D01*
X0262616Y0226132D01*
X0262718Y0225740D01*
X0262810Y0225347D01*
X0262892Y0224951D01*
X0262965Y0224553D01*
X0263028Y0224154D01*
X0263082Y0223753D01*
X0263126Y0223351D01*
X0263160Y0222948D01*
X0263184Y0222544D01*
X0263199Y0222140D01*
X0263204Y0221736D01*
X0246472Y0238469D02*
X0024031Y0238469D01*
X0024031Y0238468D02*
X0023627Y0238463D01*
X0023223Y0238448D01*
X0022819Y0238424D01*
X0022416Y0238390D01*
X0022014Y0238346D01*
X0021613Y0238292D01*
X0021214Y0238229D01*
X0020816Y0238156D01*
X0020420Y0238074D01*
X0020027Y0237982D01*
X0019635Y0237880D01*
X0019247Y0237769D01*
X0018861Y0237649D01*
X0018478Y0237519D01*
X0018098Y0237381D01*
X0017721Y0237233D01*
X0017349Y0237076D01*
X0016980Y0236910D01*
X0016616Y0236735D01*
X0016255Y0236551D01*
X0015900Y0236359D01*
X0015549Y0236158D01*
X0015203Y0235949D01*
X0014862Y0235732D01*
X0014526Y0235506D01*
X0014196Y0235272D01*
X0013872Y0235031D01*
X0013554Y0234782D01*
X0013242Y0234525D01*
X0012936Y0234260D01*
X0012636Y0233988D01*
X0012344Y0233709D01*
X0012058Y0233423D01*
X0011779Y0233131D01*
X0011507Y0232831D01*
X0011242Y0232525D01*
X0010985Y0232213D01*
X0010736Y0231895D01*
X0010495Y0231571D01*
X0010261Y0231241D01*
X0010035Y0230905D01*
X0009818Y0230564D01*
X0009609Y0230218D01*
X0009408Y0229867D01*
X0009216Y0229512D01*
X0009032Y0229151D01*
X0008857Y0228787D01*
X0008691Y0228418D01*
X0008534Y0228046D01*
X0008386Y0227669D01*
X0008248Y0227289D01*
X0008118Y0226906D01*
X0007998Y0226520D01*
X0007887Y0226132D01*
X0007785Y0225740D01*
X0007693Y0225347D01*
X0007611Y0224951D01*
X0007538Y0224553D01*
X0007475Y0224154D01*
X0007421Y0223753D01*
X0007377Y0223351D01*
X0007343Y0222948D01*
X0007319Y0222544D01*
X0007304Y0222140D01*
X0007299Y0221736D01*
X0007299Y0024886D01*
X0007302Y0024601D01*
X0007313Y0024315D01*
X0007330Y0024030D01*
X0007354Y0023746D01*
X0007385Y0023462D01*
X0007423Y0023179D01*
X0007468Y0022898D01*
X0007519Y0022617D01*
X0007577Y0022337D01*
X0007642Y0022059D01*
X0007714Y0021783D01*
X0007792Y0021509D01*
X0007877Y0021236D01*
X0007969Y0020966D01*
X0008067Y0020698D01*
X0008171Y0020432D01*
X0008282Y0020169D01*
X0008399Y0019909D01*
X0008522Y0019651D01*
X0008652Y0019397D01*
X0008788Y0019146D01*
X0008929Y0018898D01*
X0009077Y0018654D01*
X0009230Y0018413D01*
X0009390Y0018177D01*
X0009555Y0017944D01*
X0009725Y0017715D01*
X0009901Y0017490D01*
X0010083Y0017270D01*
X0010269Y0017054D01*
X0010461Y0016843D01*
X0010658Y0016636D01*
X0010860Y0016434D01*
X0011067Y0016237D01*
X0011278Y0016045D01*
X0011494Y0015859D01*
X0011714Y0015677D01*
X0011939Y0015501D01*
X0012168Y0015331D01*
X0012401Y0015166D01*
X0012637Y0015006D01*
X0012878Y0014853D01*
X0013122Y0014705D01*
X0013370Y0014564D01*
X0013621Y0014428D01*
X0013875Y0014298D01*
X0014133Y0014175D01*
X0014393Y0014058D01*
X0014656Y0013947D01*
X0014922Y0013843D01*
X0015190Y0013745D01*
X0015460Y0013653D01*
X0015733Y0013568D01*
X0016007Y0013490D01*
X0016283Y0013418D01*
X0016561Y0013353D01*
X0016841Y0013295D01*
X0017122Y0013244D01*
X0017403Y0013199D01*
X0017686Y0013161D01*
X0017970Y0013130D01*
X0018254Y0013106D01*
X0018539Y0013089D01*
X0018825Y0013078D01*
X0019110Y0013075D01*
X0015567Y0026854D02*
X0015569Y0027002D01*
X0015575Y0027150D01*
X0015585Y0027298D01*
X0015599Y0027445D01*
X0015617Y0027592D01*
X0015638Y0027738D01*
X0015664Y0027884D01*
X0015694Y0028029D01*
X0015727Y0028173D01*
X0015765Y0028316D01*
X0015806Y0028458D01*
X0015851Y0028599D01*
X0015899Y0028739D01*
X0015952Y0028878D01*
X0016008Y0029015D01*
X0016068Y0029150D01*
X0016131Y0029284D01*
X0016198Y0029416D01*
X0016269Y0029546D01*
X0016343Y0029674D01*
X0016420Y0029800D01*
X0016501Y0029924D01*
X0016585Y0030046D01*
X0016672Y0030165D01*
X0016763Y0030282D01*
X0016857Y0030397D01*
X0016953Y0030509D01*
X0017053Y0030619D01*
X0017155Y0030725D01*
X0017261Y0030829D01*
X0017369Y0030930D01*
X0017480Y0031028D01*
X0017593Y0031124D01*
X0017709Y0031216D01*
X0017827Y0031305D01*
X0017948Y0031390D01*
X0018071Y0031473D01*
X0018196Y0031552D01*
X0018323Y0031628D01*
X0018452Y0031700D01*
X0018583Y0031769D01*
X0018716Y0031834D01*
X0018851Y0031895D01*
X0018987Y0031953D01*
X0019124Y0032008D01*
X0019263Y0032058D01*
X0019404Y0032105D01*
X0019545Y0032148D01*
X0019688Y0032188D01*
X0019832Y0032223D01*
X0019976Y0032255D01*
X0020122Y0032282D01*
X0020268Y0032306D01*
X0020415Y0032326D01*
X0020562Y0032342D01*
X0020709Y0032354D01*
X0020857Y0032362D01*
X0021005Y0032366D01*
X0021153Y0032366D01*
X0021301Y0032362D01*
X0021449Y0032354D01*
X0021596Y0032342D01*
X0021743Y0032326D01*
X0021890Y0032306D01*
X0022036Y0032282D01*
X0022182Y0032255D01*
X0022326Y0032223D01*
X0022470Y0032188D01*
X0022613Y0032148D01*
X0022754Y0032105D01*
X0022895Y0032058D01*
X0023034Y0032008D01*
X0023171Y0031953D01*
X0023307Y0031895D01*
X0023442Y0031834D01*
X0023575Y0031769D01*
X0023706Y0031700D01*
X0023835Y0031628D01*
X0023962Y0031552D01*
X0024087Y0031473D01*
X0024210Y0031390D01*
X0024331Y0031305D01*
X0024449Y0031216D01*
X0024565Y0031124D01*
X0024678Y0031028D01*
X0024789Y0030930D01*
X0024897Y0030829D01*
X0025003Y0030725D01*
X0025105Y0030619D01*
X0025205Y0030509D01*
X0025301Y0030397D01*
X0025395Y0030282D01*
X0025486Y0030165D01*
X0025573Y0030046D01*
X0025657Y0029924D01*
X0025738Y0029800D01*
X0025815Y0029674D01*
X0025889Y0029546D01*
X0025960Y0029416D01*
X0026027Y0029284D01*
X0026090Y0029150D01*
X0026150Y0029015D01*
X0026206Y0028878D01*
X0026259Y0028739D01*
X0026307Y0028599D01*
X0026352Y0028458D01*
X0026393Y0028316D01*
X0026431Y0028173D01*
X0026464Y0028029D01*
X0026494Y0027884D01*
X0026520Y0027738D01*
X0026541Y0027592D01*
X0026559Y0027445D01*
X0026573Y0027298D01*
X0026583Y0027150D01*
X0026589Y0027002D01*
X0026591Y0026854D01*
X0026589Y0026706D01*
X0026583Y0026558D01*
X0026573Y0026410D01*
X0026559Y0026263D01*
X0026541Y0026116D01*
X0026520Y0025970D01*
X0026494Y0025824D01*
X0026464Y0025679D01*
X0026431Y0025535D01*
X0026393Y0025392D01*
X0026352Y0025250D01*
X0026307Y0025109D01*
X0026259Y0024969D01*
X0026206Y0024830D01*
X0026150Y0024693D01*
X0026090Y0024558D01*
X0026027Y0024424D01*
X0025960Y0024292D01*
X0025889Y0024162D01*
X0025815Y0024034D01*
X0025738Y0023908D01*
X0025657Y0023784D01*
X0025573Y0023662D01*
X0025486Y0023543D01*
X0025395Y0023426D01*
X0025301Y0023311D01*
X0025205Y0023199D01*
X0025105Y0023089D01*
X0025003Y0022983D01*
X0024897Y0022879D01*
X0024789Y0022778D01*
X0024678Y0022680D01*
X0024565Y0022584D01*
X0024449Y0022492D01*
X0024331Y0022403D01*
X0024210Y0022318D01*
X0024087Y0022235D01*
X0023962Y0022156D01*
X0023835Y0022080D01*
X0023706Y0022008D01*
X0023575Y0021939D01*
X0023442Y0021874D01*
X0023307Y0021813D01*
X0023171Y0021755D01*
X0023034Y0021700D01*
X0022895Y0021650D01*
X0022754Y0021603D01*
X0022613Y0021560D01*
X0022470Y0021520D01*
X0022326Y0021485D01*
X0022182Y0021453D01*
X0022036Y0021426D01*
X0021890Y0021402D01*
X0021743Y0021382D01*
X0021596Y0021366D01*
X0021449Y0021354D01*
X0021301Y0021346D01*
X0021153Y0021342D01*
X0021005Y0021342D01*
X0020857Y0021346D01*
X0020709Y0021354D01*
X0020562Y0021366D01*
X0020415Y0021382D01*
X0020268Y0021402D01*
X0020122Y0021426D01*
X0019976Y0021453D01*
X0019832Y0021485D01*
X0019688Y0021520D01*
X0019545Y0021560D01*
X0019404Y0021603D01*
X0019263Y0021650D01*
X0019124Y0021700D01*
X0018987Y0021755D01*
X0018851Y0021813D01*
X0018716Y0021874D01*
X0018583Y0021939D01*
X0018452Y0022008D01*
X0018323Y0022080D01*
X0018196Y0022156D01*
X0018071Y0022235D01*
X0017948Y0022318D01*
X0017827Y0022403D01*
X0017709Y0022492D01*
X0017593Y0022584D01*
X0017480Y0022680D01*
X0017369Y0022778D01*
X0017261Y0022879D01*
X0017155Y0022983D01*
X0017053Y0023089D01*
X0016953Y0023199D01*
X0016857Y0023311D01*
X0016763Y0023426D01*
X0016672Y0023543D01*
X0016585Y0023662D01*
X0016501Y0023784D01*
X0016420Y0023908D01*
X0016343Y0024034D01*
X0016269Y0024162D01*
X0016198Y0024292D01*
X0016131Y0024424D01*
X0016068Y0024558D01*
X0016008Y0024693D01*
X0015952Y0024830D01*
X0015899Y0024969D01*
X0015851Y0025109D01*
X0015806Y0025250D01*
X0015765Y0025392D01*
X0015727Y0025535D01*
X0015694Y0025679D01*
X0015664Y0025824D01*
X0015638Y0025970D01*
X0015617Y0026116D01*
X0015599Y0026263D01*
X0015585Y0026410D01*
X0015575Y0026558D01*
X0015569Y0026706D01*
X0015567Y0026854D01*
X0066539Y0025555D02*
X0066541Y0025689D01*
X0066547Y0025823D01*
X0066557Y0025957D01*
X0066571Y0026091D01*
X0066589Y0026224D01*
X0066610Y0026356D01*
X0066636Y0026488D01*
X0066666Y0026619D01*
X0066699Y0026749D01*
X0066736Y0026877D01*
X0066778Y0027005D01*
X0066822Y0027132D01*
X0066871Y0027257D01*
X0066923Y0027380D01*
X0066979Y0027502D01*
X0067039Y0027623D01*
X0067102Y0027741D01*
X0067168Y0027858D01*
X0067238Y0027972D01*
X0067311Y0028085D01*
X0067388Y0028195D01*
X0067468Y0028303D01*
X0067551Y0028408D01*
X0067637Y0028511D01*
X0067726Y0028611D01*
X0067818Y0028709D01*
X0067913Y0028804D01*
X0068011Y0028896D01*
X0068111Y0028985D01*
X0068214Y0029071D01*
X0068319Y0029154D01*
X0068427Y0029234D01*
X0068537Y0029311D01*
X0068650Y0029384D01*
X0068764Y0029454D01*
X0068881Y0029520D01*
X0068999Y0029583D01*
X0069120Y0029643D01*
X0069242Y0029699D01*
X0069365Y0029751D01*
X0069490Y0029800D01*
X0069617Y0029844D01*
X0069745Y0029886D01*
X0069873Y0029923D01*
X0070003Y0029956D01*
X0070134Y0029986D01*
X0070266Y0030012D01*
X0070398Y0030033D01*
X0070531Y0030051D01*
X0070665Y0030065D01*
X0070799Y0030075D01*
X0070933Y0030081D01*
X0071067Y0030083D01*
X0071201Y0030081D01*
X0071335Y0030075D01*
X0071469Y0030065D01*
X0071603Y0030051D01*
X0071736Y0030033D01*
X0071868Y0030012D01*
X0072000Y0029986D01*
X0072131Y0029956D01*
X0072261Y0029923D01*
X0072389Y0029886D01*
X0072517Y0029844D01*
X0072644Y0029800D01*
X0072769Y0029751D01*
X0072892Y0029699D01*
X0073014Y0029643D01*
X0073135Y0029583D01*
X0073253Y0029520D01*
X0073370Y0029454D01*
X0073484Y0029384D01*
X0073597Y0029311D01*
X0073707Y0029234D01*
X0073815Y0029154D01*
X0073920Y0029071D01*
X0074023Y0028985D01*
X0074123Y0028896D01*
X0074221Y0028804D01*
X0074316Y0028709D01*
X0074408Y0028611D01*
X0074497Y0028511D01*
X0074583Y0028408D01*
X0074666Y0028303D01*
X0074746Y0028195D01*
X0074823Y0028085D01*
X0074896Y0027972D01*
X0074966Y0027858D01*
X0075032Y0027741D01*
X0075095Y0027623D01*
X0075155Y0027502D01*
X0075211Y0027380D01*
X0075263Y0027257D01*
X0075312Y0027132D01*
X0075356Y0027005D01*
X0075398Y0026877D01*
X0075435Y0026749D01*
X0075468Y0026619D01*
X0075498Y0026488D01*
X0075524Y0026356D01*
X0075545Y0026224D01*
X0075563Y0026091D01*
X0075577Y0025957D01*
X0075587Y0025823D01*
X0075593Y0025689D01*
X0075595Y0025555D01*
X0075593Y0025421D01*
X0075587Y0025287D01*
X0075577Y0025153D01*
X0075563Y0025019D01*
X0075545Y0024886D01*
X0075524Y0024754D01*
X0075498Y0024622D01*
X0075468Y0024491D01*
X0075435Y0024361D01*
X0075398Y0024233D01*
X0075356Y0024105D01*
X0075312Y0023978D01*
X0075263Y0023853D01*
X0075211Y0023730D01*
X0075155Y0023608D01*
X0075095Y0023487D01*
X0075032Y0023369D01*
X0074966Y0023252D01*
X0074896Y0023138D01*
X0074823Y0023025D01*
X0074746Y0022915D01*
X0074666Y0022807D01*
X0074583Y0022702D01*
X0074497Y0022599D01*
X0074408Y0022499D01*
X0074316Y0022401D01*
X0074221Y0022306D01*
X0074123Y0022214D01*
X0074023Y0022125D01*
X0073920Y0022039D01*
X0073815Y0021956D01*
X0073707Y0021876D01*
X0073597Y0021799D01*
X0073484Y0021726D01*
X0073370Y0021656D01*
X0073253Y0021590D01*
X0073135Y0021527D01*
X0073014Y0021467D01*
X0072892Y0021411D01*
X0072769Y0021359D01*
X0072644Y0021310D01*
X0072517Y0021266D01*
X0072389Y0021224D01*
X0072261Y0021187D01*
X0072131Y0021154D01*
X0072000Y0021124D01*
X0071868Y0021098D01*
X0071736Y0021077D01*
X0071603Y0021059D01*
X0071469Y0021045D01*
X0071335Y0021035D01*
X0071201Y0021029D01*
X0071067Y0021027D01*
X0070933Y0021029D01*
X0070799Y0021035D01*
X0070665Y0021045D01*
X0070531Y0021059D01*
X0070398Y0021077D01*
X0070266Y0021098D01*
X0070134Y0021124D01*
X0070003Y0021154D01*
X0069873Y0021187D01*
X0069745Y0021224D01*
X0069617Y0021266D01*
X0069490Y0021310D01*
X0069365Y0021359D01*
X0069242Y0021411D01*
X0069120Y0021467D01*
X0068999Y0021527D01*
X0068881Y0021590D01*
X0068764Y0021656D01*
X0068650Y0021726D01*
X0068537Y0021799D01*
X0068427Y0021876D01*
X0068319Y0021956D01*
X0068214Y0022039D01*
X0068111Y0022125D01*
X0068011Y0022214D01*
X0067913Y0022306D01*
X0067818Y0022401D01*
X0067726Y0022499D01*
X0067637Y0022599D01*
X0067551Y0022702D01*
X0067468Y0022807D01*
X0067388Y0022915D01*
X0067311Y0023025D01*
X0067238Y0023138D01*
X0067168Y0023252D01*
X0067102Y0023369D01*
X0067039Y0023487D01*
X0066979Y0023608D01*
X0066923Y0023730D01*
X0066871Y0023853D01*
X0066822Y0023978D01*
X0066778Y0024105D01*
X0066736Y0024233D01*
X0066699Y0024361D01*
X0066666Y0024491D01*
X0066636Y0024622D01*
X0066610Y0024754D01*
X0066589Y0024886D01*
X0066571Y0025019D01*
X0066557Y0025153D01*
X0066547Y0025287D01*
X0066541Y0025421D01*
X0066539Y0025555D01*
X0100003Y0025555D02*
X0100005Y0025689D01*
X0100011Y0025823D01*
X0100021Y0025957D01*
X0100035Y0026091D01*
X0100053Y0026224D01*
X0100074Y0026356D01*
X0100100Y0026488D01*
X0100130Y0026619D01*
X0100163Y0026749D01*
X0100200Y0026877D01*
X0100242Y0027005D01*
X0100286Y0027132D01*
X0100335Y0027257D01*
X0100387Y0027380D01*
X0100443Y0027502D01*
X0100503Y0027623D01*
X0100566Y0027741D01*
X0100632Y0027858D01*
X0100702Y0027972D01*
X0100775Y0028085D01*
X0100852Y0028195D01*
X0100932Y0028303D01*
X0101015Y0028408D01*
X0101101Y0028511D01*
X0101190Y0028611D01*
X0101282Y0028709D01*
X0101377Y0028804D01*
X0101475Y0028896D01*
X0101575Y0028985D01*
X0101678Y0029071D01*
X0101783Y0029154D01*
X0101891Y0029234D01*
X0102001Y0029311D01*
X0102114Y0029384D01*
X0102228Y0029454D01*
X0102345Y0029520D01*
X0102463Y0029583D01*
X0102584Y0029643D01*
X0102706Y0029699D01*
X0102829Y0029751D01*
X0102954Y0029800D01*
X0103081Y0029844D01*
X0103209Y0029886D01*
X0103337Y0029923D01*
X0103467Y0029956D01*
X0103598Y0029986D01*
X0103730Y0030012D01*
X0103862Y0030033D01*
X0103995Y0030051D01*
X0104129Y0030065D01*
X0104263Y0030075D01*
X0104397Y0030081D01*
X0104531Y0030083D01*
X0104665Y0030081D01*
X0104799Y0030075D01*
X0104933Y0030065D01*
X0105067Y0030051D01*
X0105200Y0030033D01*
X0105332Y0030012D01*
X0105464Y0029986D01*
X0105595Y0029956D01*
X0105725Y0029923D01*
X0105853Y0029886D01*
X0105981Y0029844D01*
X0106108Y0029800D01*
X0106233Y0029751D01*
X0106356Y0029699D01*
X0106478Y0029643D01*
X0106599Y0029583D01*
X0106717Y0029520D01*
X0106834Y0029454D01*
X0106948Y0029384D01*
X0107061Y0029311D01*
X0107171Y0029234D01*
X0107279Y0029154D01*
X0107384Y0029071D01*
X0107487Y0028985D01*
X0107587Y0028896D01*
X0107685Y0028804D01*
X0107780Y0028709D01*
X0107872Y0028611D01*
X0107961Y0028511D01*
X0108047Y0028408D01*
X0108130Y0028303D01*
X0108210Y0028195D01*
X0108287Y0028085D01*
X0108360Y0027972D01*
X0108430Y0027858D01*
X0108496Y0027741D01*
X0108559Y0027623D01*
X0108619Y0027502D01*
X0108675Y0027380D01*
X0108727Y0027257D01*
X0108776Y0027132D01*
X0108820Y0027005D01*
X0108862Y0026877D01*
X0108899Y0026749D01*
X0108932Y0026619D01*
X0108962Y0026488D01*
X0108988Y0026356D01*
X0109009Y0026224D01*
X0109027Y0026091D01*
X0109041Y0025957D01*
X0109051Y0025823D01*
X0109057Y0025689D01*
X0109059Y0025555D01*
X0109057Y0025421D01*
X0109051Y0025287D01*
X0109041Y0025153D01*
X0109027Y0025019D01*
X0109009Y0024886D01*
X0108988Y0024754D01*
X0108962Y0024622D01*
X0108932Y0024491D01*
X0108899Y0024361D01*
X0108862Y0024233D01*
X0108820Y0024105D01*
X0108776Y0023978D01*
X0108727Y0023853D01*
X0108675Y0023730D01*
X0108619Y0023608D01*
X0108559Y0023487D01*
X0108496Y0023369D01*
X0108430Y0023252D01*
X0108360Y0023138D01*
X0108287Y0023025D01*
X0108210Y0022915D01*
X0108130Y0022807D01*
X0108047Y0022702D01*
X0107961Y0022599D01*
X0107872Y0022499D01*
X0107780Y0022401D01*
X0107685Y0022306D01*
X0107587Y0022214D01*
X0107487Y0022125D01*
X0107384Y0022039D01*
X0107279Y0021956D01*
X0107171Y0021876D01*
X0107061Y0021799D01*
X0106948Y0021726D01*
X0106834Y0021656D01*
X0106717Y0021590D01*
X0106599Y0021527D01*
X0106478Y0021467D01*
X0106356Y0021411D01*
X0106233Y0021359D01*
X0106108Y0021310D01*
X0105981Y0021266D01*
X0105853Y0021224D01*
X0105725Y0021187D01*
X0105595Y0021154D01*
X0105464Y0021124D01*
X0105332Y0021098D01*
X0105200Y0021077D01*
X0105067Y0021059D01*
X0104933Y0021045D01*
X0104799Y0021035D01*
X0104665Y0021029D01*
X0104531Y0021027D01*
X0104397Y0021029D01*
X0104263Y0021035D01*
X0104129Y0021045D01*
X0103995Y0021059D01*
X0103862Y0021077D01*
X0103730Y0021098D01*
X0103598Y0021124D01*
X0103467Y0021154D01*
X0103337Y0021187D01*
X0103209Y0021224D01*
X0103081Y0021266D01*
X0102954Y0021310D01*
X0102829Y0021359D01*
X0102706Y0021411D01*
X0102584Y0021467D01*
X0102463Y0021527D01*
X0102345Y0021590D01*
X0102228Y0021656D01*
X0102114Y0021726D01*
X0102001Y0021799D01*
X0101891Y0021876D01*
X0101783Y0021956D01*
X0101678Y0022039D01*
X0101575Y0022125D01*
X0101475Y0022214D01*
X0101377Y0022306D01*
X0101282Y0022401D01*
X0101190Y0022499D01*
X0101101Y0022599D01*
X0101015Y0022702D01*
X0100932Y0022807D01*
X0100852Y0022915D01*
X0100775Y0023025D01*
X0100702Y0023138D01*
X0100632Y0023252D01*
X0100566Y0023369D01*
X0100503Y0023487D01*
X0100443Y0023608D01*
X0100387Y0023730D01*
X0100335Y0023853D01*
X0100286Y0023978D01*
X0100242Y0024105D01*
X0100200Y0024233D01*
X0100163Y0024361D01*
X0100130Y0024491D01*
X0100100Y0024622D01*
X0100074Y0024754D01*
X0100053Y0024886D01*
X0100035Y0025019D01*
X0100021Y0025153D01*
X0100011Y0025287D01*
X0100005Y0025421D01*
X0100003Y0025555D01*
X0243913Y0026854D02*
X0243915Y0027002D01*
X0243921Y0027150D01*
X0243931Y0027298D01*
X0243945Y0027445D01*
X0243963Y0027592D01*
X0243984Y0027738D01*
X0244010Y0027884D01*
X0244040Y0028029D01*
X0244073Y0028173D01*
X0244111Y0028316D01*
X0244152Y0028458D01*
X0244197Y0028599D01*
X0244245Y0028739D01*
X0244298Y0028878D01*
X0244354Y0029015D01*
X0244414Y0029150D01*
X0244477Y0029284D01*
X0244544Y0029416D01*
X0244615Y0029546D01*
X0244689Y0029674D01*
X0244766Y0029800D01*
X0244847Y0029924D01*
X0244931Y0030046D01*
X0245018Y0030165D01*
X0245109Y0030282D01*
X0245203Y0030397D01*
X0245299Y0030509D01*
X0245399Y0030619D01*
X0245501Y0030725D01*
X0245607Y0030829D01*
X0245715Y0030930D01*
X0245826Y0031028D01*
X0245939Y0031124D01*
X0246055Y0031216D01*
X0246173Y0031305D01*
X0246294Y0031390D01*
X0246417Y0031473D01*
X0246542Y0031552D01*
X0246669Y0031628D01*
X0246798Y0031700D01*
X0246929Y0031769D01*
X0247062Y0031834D01*
X0247197Y0031895D01*
X0247333Y0031953D01*
X0247470Y0032008D01*
X0247609Y0032058D01*
X0247750Y0032105D01*
X0247891Y0032148D01*
X0248034Y0032188D01*
X0248178Y0032223D01*
X0248322Y0032255D01*
X0248468Y0032282D01*
X0248614Y0032306D01*
X0248761Y0032326D01*
X0248908Y0032342D01*
X0249055Y0032354D01*
X0249203Y0032362D01*
X0249351Y0032366D01*
X0249499Y0032366D01*
X0249647Y0032362D01*
X0249795Y0032354D01*
X0249942Y0032342D01*
X0250089Y0032326D01*
X0250236Y0032306D01*
X0250382Y0032282D01*
X0250528Y0032255D01*
X0250672Y0032223D01*
X0250816Y0032188D01*
X0250959Y0032148D01*
X0251100Y0032105D01*
X0251241Y0032058D01*
X0251380Y0032008D01*
X0251517Y0031953D01*
X0251653Y0031895D01*
X0251788Y0031834D01*
X0251921Y0031769D01*
X0252052Y0031700D01*
X0252181Y0031628D01*
X0252308Y0031552D01*
X0252433Y0031473D01*
X0252556Y0031390D01*
X0252677Y0031305D01*
X0252795Y0031216D01*
X0252911Y0031124D01*
X0253024Y0031028D01*
X0253135Y0030930D01*
X0253243Y0030829D01*
X0253349Y0030725D01*
X0253451Y0030619D01*
X0253551Y0030509D01*
X0253647Y0030397D01*
X0253741Y0030282D01*
X0253832Y0030165D01*
X0253919Y0030046D01*
X0254003Y0029924D01*
X0254084Y0029800D01*
X0254161Y0029674D01*
X0254235Y0029546D01*
X0254306Y0029416D01*
X0254373Y0029284D01*
X0254436Y0029150D01*
X0254496Y0029015D01*
X0254552Y0028878D01*
X0254605Y0028739D01*
X0254653Y0028599D01*
X0254698Y0028458D01*
X0254739Y0028316D01*
X0254777Y0028173D01*
X0254810Y0028029D01*
X0254840Y0027884D01*
X0254866Y0027738D01*
X0254887Y0027592D01*
X0254905Y0027445D01*
X0254919Y0027298D01*
X0254929Y0027150D01*
X0254935Y0027002D01*
X0254937Y0026854D01*
X0254935Y0026706D01*
X0254929Y0026558D01*
X0254919Y0026410D01*
X0254905Y0026263D01*
X0254887Y0026116D01*
X0254866Y0025970D01*
X0254840Y0025824D01*
X0254810Y0025679D01*
X0254777Y0025535D01*
X0254739Y0025392D01*
X0254698Y0025250D01*
X0254653Y0025109D01*
X0254605Y0024969D01*
X0254552Y0024830D01*
X0254496Y0024693D01*
X0254436Y0024558D01*
X0254373Y0024424D01*
X0254306Y0024292D01*
X0254235Y0024162D01*
X0254161Y0024034D01*
X0254084Y0023908D01*
X0254003Y0023784D01*
X0253919Y0023662D01*
X0253832Y0023543D01*
X0253741Y0023426D01*
X0253647Y0023311D01*
X0253551Y0023199D01*
X0253451Y0023089D01*
X0253349Y0022983D01*
X0253243Y0022879D01*
X0253135Y0022778D01*
X0253024Y0022680D01*
X0252911Y0022584D01*
X0252795Y0022492D01*
X0252677Y0022403D01*
X0252556Y0022318D01*
X0252433Y0022235D01*
X0252308Y0022156D01*
X0252181Y0022080D01*
X0252052Y0022008D01*
X0251921Y0021939D01*
X0251788Y0021874D01*
X0251653Y0021813D01*
X0251517Y0021755D01*
X0251380Y0021700D01*
X0251241Y0021650D01*
X0251100Y0021603D01*
X0250959Y0021560D01*
X0250816Y0021520D01*
X0250672Y0021485D01*
X0250528Y0021453D01*
X0250382Y0021426D01*
X0250236Y0021402D01*
X0250089Y0021382D01*
X0249942Y0021366D01*
X0249795Y0021354D01*
X0249647Y0021346D01*
X0249499Y0021342D01*
X0249351Y0021342D01*
X0249203Y0021346D01*
X0249055Y0021354D01*
X0248908Y0021366D01*
X0248761Y0021382D01*
X0248614Y0021402D01*
X0248468Y0021426D01*
X0248322Y0021453D01*
X0248178Y0021485D01*
X0248034Y0021520D01*
X0247891Y0021560D01*
X0247750Y0021603D01*
X0247609Y0021650D01*
X0247470Y0021700D01*
X0247333Y0021755D01*
X0247197Y0021813D01*
X0247062Y0021874D01*
X0246929Y0021939D01*
X0246798Y0022008D01*
X0246669Y0022080D01*
X0246542Y0022156D01*
X0246417Y0022235D01*
X0246294Y0022318D01*
X0246173Y0022403D01*
X0246055Y0022492D01*
X0245939Y0022584D01*
X0245826Y0022680D01*
X0245715Y0022778D01*
X0245607Y0022879D01*
X0245501Y0022983D01*
X0245399Y0023089D01*
X0245299Y0023199D01*
X0245203Y0023311D01*
X0245109Y0023426D01*
X0245018Y0023543D01*
X0244931Y0023662D01*
X0244847Y0023784D01*
X0244766Y0023908D01*
X0244689Y0024034D01*
X0244615Y0024162D01*
X0244544Y0024292D01*
X0244477Y0024424D01*
X0244414Y0024558D01*
X0244354Y0024693D01*
X0244298Y0024830D01*
X0244245Y0024969D01*
X0244197Y0025109D01*
X0244152Y0025250D01*
X0244111Y0025392D01*
X0244073Y0025535D01*
X0244040Y0025679D01*
X0244010Y0025824D01*
X0243984Y0025970D01*
X0243963Y0026116D01*
X0243945Y0026263D01*
X0243931Y0026410D01*
X0243921Y0026558D01*
X0243915Y0026706D01*
X0243913Y0026854D01*
X0246291Y0137453D02*
X0246293Y0137587D01*
X0246299Y0137721D01*
X0246309Y0137855D01*
X0246323Y0137989D01*
X0246341Y0138122D01*
X0246362Y0138254D01*
X0246388Y0138386D01*
X0246418Y0138517D01*
X0246451Y0138647D01*
X0246488Y0138775D01*
X0246530Y0138903D01*
X0246574Y0139030D01*
X0246623Y0139155D01*
X0246675Y0139278D01*
X0246731Y0139400D01*
X0246791Y0139521D01*
X0246854Y0139639D01*
X0246920Y0139756D01*
X0246990Y0139870D01*
X0247063Y0139983D01*
X0247140Y0140093D01*
X0247220Y0140201D01*
X0247303Y0140306D01*
X0247389Y0140409D01*
X0247478Y0140509D01*
X0247570Y0140607D01*
X0247665Y0140702D01*
X0247763Y0140794D01*
X0247863Y0140883D01*
X0247966Y0140969D01*
X0248071Y0141052D01*
X0248179Y0141132D01*
X0248289Y0141209D01*
X0248402Y0141282D01*
X0248516Y0141352D01*
X0248633Y0141418D01*
X0248751Y0141481D01*
X0248872Y0141541D01*
X0248994Y0141597D01*
X0249117Y0141649D01*
X0249242Y0141698D01*
X0249369Y0141742D01*
X0249497Y0141784D01*
X0249625Y0141821D01*
X0249755Y0141854D01*
X0249886Y0141884D01*
X0250018Y0141910D01*
X0250150Y0141931D01*
X0250283Y0141949D01*
X0250417Y0141963D01*
X0250551Y0141973D01*
X0250685Y0141979D01*
X0250819Y0141981D01*
X0250953Y0141979D01*
X0251087Y0141973D01*
X0251221Y0141963D01*
X0251355Y0141949D01*
X0251488Y0141931D01*
X0251620Y0141910D01*
X0251752Y0141884D01*
X0251883Y0141854D01*
X0252013Y0141821D01*
X0252141Y0141784D01*
X0252269Y0141742D01*
X0252396Y0141698D01*
X0252521Y0141649D01*
X0252644Y0141597D01*
X0252766Y0141541D01*
X0252887Y0141481D01*
X0253005Y0141418D01*
X0253122Y0141352D01*
X0253236Y0141282D01*
X0253349Y0141209D01*
X0253459Y0141132D01*
X0253567Y0141052D01*
X0253672Y0140969D01*
X0253775Y0140883D01*
X0253875Y0140794D01*
X0253973Y0140702D01*
X0254068Y0140607D01*
X0254160Y0140509D01*
X0254249Y0140409D01*
X0254335Y0140306D01*
X0254418Y0140201D01*
X0254498Y0140093D01*
X0254575Y0139983D01*
X0254648Y0139870D01*
X0254718Y0139756D01*
X0254784Y0139639D01*
X0254847Y0139521D01*
X0254907Y0139400D01*
X0254963Y0139278D01*
X0255015Y0139155D01*
X0255064Y0139030D01*
X0255108Y0138903D01*
X0255150Y0138775D01*
X0255187Y0138647D01*
X0255220Y0138517D01*
X0255250Y0138386D01*
X0255276Y0138254D01*
X0255297Y0138122D01*
X0255315Y0137989D01*
X0255329Y0137855D01*
X0255339Y0137721D01*
X0255345Y0137587D01*
X0255347Y0137453D01*
X0255345Y0137319D01*
X0255339Y0137185D01*
X0255329Y0137051D01*
X0255315Y0136917D01*
X0255297Y0136784D01*
X0255276Y0136652D01*
X0255250Y0136520D01*
X0255220Y0136389D01*
X0255187Y0136259D01*
X0255150Y0136131D01*
X0255108Y0136003D01*
X0255064Y0135876D01*
X0255015Y0135751D01*
X0254963Y0135628D01*
X0254907Y0135506D01*
X0254847Y0135385D01*
X0254784Y0135267D01*
X0254718Y0135150D01*
X0254648Y0135036D01*
X0254575Y0134923D01*
X0254498Y0134813D01*
X0254418Y0134705D01*
X0254335Y0134600D01*
X0254249Y0134497D01*
X0254160Y0134397D01*
X0254068Y0134299D01*
X0253973Y0134204D01*
X0253875Y0134112D01*
X0253775Y0134023D01*
X0253672Y0133937D01*
X0253567Y0133854D01*
X0253459Y0133774D01*
X0253349Y0133697D01*
X0253236Y0133624D01*
X0253122Y0133554D01*
X0253005Y0133488D01*
X0252887Y0133425D01*
X0252766Y0133365D01*
X0252644Y0133309D01*
X0252521Y0133257D01*
X0252396Y0133208D01*
X0252269Y0133164D01*
X0252141Y0133122D01*
X0252013Y0133085D01*
X0251883Y0133052D01*
X0251752Y0133022D01*
X0251620Y0132996D01*
X0251488Y0132975D01*
X0251355Y0132957D01*
X0251221Y0132943D01*
X0251087Y0132933D01*
X0250953Y0132927D01*
X0250819Y0132925D01*
X0250685Y0132927D01*
X0250551Y0132933D01*
X0250417Y0132943D01*
X0250283Y0132957D01*
X0250150Y0132975D01*
X0250018Y0132996D01*
X0249886Y0133022D01*
X0249755Y0133052D01*
X0249625Y0133085D01*
X0249497Y0133122D01*
X0249369Y0133164D01*
X0249242Y0133208D01*
X0249117Y0133257D01*
X0248994Y0133309D01*
X0248872Y0133365D01*
X0248751Y0133425D01*
X0248633Y0133488D01*
X0248516Y0133554D01*
X0248402Y0133624D01*
X0248289Y0133697D01*
X0248179Y0133774D01*
X0248071Y0133854D01*
X0247966Y0133937D01*
X0247863Y0134023D01*
X0247763Y0134112D01*
X0247665Y0134204D01*
X0247570Y0134299D01*
X0247478Y0134397D01*
X0247389Y0134497D01*
X0247303Y0134600D01*
X0247220Y0134705D01*
X0247140Y0134813D01*
X0247063Y0134923D01*
X0246990Y0135036D01*
X0246920Y0135150D01*
X0246854Y0135267D01*
X0246791Y0135385D01*
X0246731Y0135506D01*
X0246675Y0135628D01*
X0246623Y0135751D01*
X0246574Y0135876D01*
X0246530Y0136003D01*
X0246488Y0136131D01*
X0246451Y0136259D01*
X0246418Y0136389D01*
X0246388Y0136520D01*
X0246362Y0136652D01*
X0246341Y0136784D01*
X0246323Y0136917D01*
X0246309Y0137051D01*
X0246299Y0137185D01*
X0246293Y0137319D01*
X0246291Y0137453D01*
X0246291Y0184697D02*
X0246293Y0184831D01*
X0246299Y0184965D01*
X0246309Y0185099D01*
X0246323Y0185233D01*
X0246341Y0185366D01*
X0246362Y0185498D01*
X0246388Y0185630D01*
X0246418Y0185761D01*
X0246451Y0185891D01*
X0246488Y0186019D01*
X0246530Y0186147D01*
X0246574Y0186274D01*
X0246623Y0186399D01*
X0246675Y0186522D01*
X0246731Y0186644D01*
X0246791Y0186765D01*
X0246854Y0186883D01*
X0246920Y0187000D01*
X0246990Y0187114D01*
X0247063Y0187227D01*
X0247140Y0187337D01*
X0247220Y0187445D01*
X0247303Y0187550D01*
X0247389Y0187653D01*
X0247478Y0187753D01*
X0247570Y0187851D01*
X0247665Y0187946D01*
X0247763Y0188038D01*
X0247863Y0188127D01*
X0247966Y0188213D01*
X0248071Y0188296D01*
X0248179Y0188376D01*
X0248289Y0188453D01*
X0248402Y0188526D01*
X0248516Y0188596D01*
X0248633Y0188662D01*
X0248751Y0188725D01*
X0248872Y0188785D01*
X0248994Y0188841D01*
X0249117Y0188893D01*
X0249242Y0188942D01*
X0249369Y0188986D01*
X0249497Y0189028D01*
X0249625Y0189065D01*
X0249755Y0189098D01*
X0249886Y0189128D01*
X0250018Y0189154D01*
X0250150Y0189175D01*
X0250283Y0189193D01*
X0250417Y0189207D01*
X0250551Y0189217D01*
X0250685Y0189223D01*
X0250819Y0189225D01*
X0250953Y0189223D01*
X0251087Y0189217D01*
X0251221Y0189207D01*
X0251355Y0189193D01*
X0251488Y0189175D01*
X0251620Y0189154D01*
X0251752Y0189128D01*
X0251883Y0189098D01*
X0252013Y0189065D01*
X0252141Y0189028D01*
X0252269Y0188986D01*
X0252396Y0188942D01*
X0252521Y0188893D01*
X0252644Y0188841D01*
X0252766Y0188785D01*
X0252887Y0188725D01*
X0253005Y0188662D01*
X0253122Y0188596D01*
X0253236Y0188526D01*
X0253349Y0188453D01*
X0253459Y0188376D01*
X0253567Y0188296D01*
X0253672Y0188213D01*
X0253775Y0188127D01*
X0253875Y0188038D01*
X0253973Y0187946D01*
X0254068Y0187851D01*
X0254160Y0187753D01*
X0254249Y0187653D01*
X0254335Y0187550D01*
X0254418Y0187445D01*
X0254498Y0187337D01*
X0254575Y0187227D01*
X0254648Y0187114D01*
X0254718Y0187000D01*
X0254784Y0186883D01*
X0254847Y0186765D01*
X0254907Y0186644D01*
X0254963Y0186522D01*
X0255015Y0186399D01*
X0255064Y0186274D01*
X0255108Y0186147D01*
X0255150Y0186019D01*
X0255187Y0185891D01*
X0255220Y0185761D01*
X0255250Y0185630D01*
X0255276Y0185498D01*
X0255297Y0185366D01*
X0255315Y0185233D01*
X0255329Y0185099D01*
X0255339Y0184965D01*
X0255345Y0184831D01*
X0255347Y0184697D01*
X0255345Y0184563D01*
X0255339Y0184429D01*
X0255329Y0184295D01*
X0255315Y0184161D01*
X0255297Y0184028D01*
X0255276Y0183896D01*
X0255250Y0183764D01*
X0255220Y0183633D01*
X0255187Y0183503D01*
X0255150Y0183375D01*
X0255108Y0183247D01*
X0255064Y0183120D01*
X0255015Y0182995D01*
X0254963Y0182872D01*
X0254907Y0182750D01*
X0254847Y0182629D01*
X0254784Y0182511D01*
X0254718Y0182394D01*
X0254648Y0182280D01*
X0254575Y0182167D01*
X0254498Y0182057D01*
X0254418Y0181949D01*
X0254335Y0181844D01*
X0254249Y0181741D01*
X0254160Y0181641D01*
X0254068Y0181543D01*
X0253973Y0181448D01*
X0253875Y0181356D01*
X0253775Y0181267D01*
X0253672Y0181181D01*
X0253567Y0181098D01*
X0253459Y0181018D01*
X0253349Y0180941D01*
X0253236Y0180868D01*
X0253122Y0180798D01*
X0253005Y0180732D01*
X0252887Y0180669D01*
X0252766Y0180609D01*
X0252644Y0180553D01*
X0252521Y0180501D01*
X0252396Y0180452D01*
X0252269Y0180408D01*
X0252141Y0180366D01*
X0252013Y0180329D01*
X0251883Y0180296D01*
X0251752Y0180266D01*
X0251620Y0180240D01*
X0251488Y0180219D01*
X0251355Y0180201D01*
X0251221Y0180187D01*
X0251087Y0180177D01*
X0250953Y0180171D01*
X0250819Y0180169D01*
X0250685Y0180171D01*
X0250551Y0180177D01*
X0250417Y0180187D01*
X0250283Y0180201D01*
X0250150Y0180219D01*
X0250018Y0180240D01*
X0249886Y0180266D01*
X0249755Y0180296D01*
X0249625Y0180329D01*
X0249497Y0180366D01*
X0249369Y0180408D01*
X0249242Y0180452D01*
X0249117Y0180501D01*
X0248994Y0180553D01*
X0248872Y0180609D01*
X0248751Y0180669D01*
X0248633Y0180732D01*
X0248516Y0180798D01*
X0248402Y0180868D01*
X0248289Y0180941D01*
X0248179Y0181018D01*
X0248071Y0181098D01*
X0247966Y0181181D01*
X0247863Y0181267D01*
X0247763Y0181356D01*
X0247665Y0181448D01*
X0247570Y0181543D01*
X0247478Y0181641D01*
X0247389Y0181741D01*
X0247303Y0181844D01*
X0247220Y0181949D01*
X0247140Y0182057D01*
X0247063Y0182167D01*
X0246990Y0182280D01*
X0246920Y0182394D01*
X0246854Y0182511D01*
X0246791Y0182629D01*
X0246731Y0182750D01*
X0246675Y0182872D01*
X0246623Y0182995D01*
X0246574Y0183120D01*
X0246530Y0183247D01*
X0246488Y0183375D01*
X0246451Y0183503D01*
X0246418Y0183633D01*
X0246388Y0183764D01*
X0246362Y0183896D01*
X0246341Y0184028D01*
X0246323Y0184161D01*
X0246309Y0184295D01*
X0246299Y0184429D01*
X0246293Y0184563D01*
X0246291Y0184697D01*
X0015567Y0219768D02*
X0015569Y0219916D01*
X0015575Y0220064D01*
X0015585Y0220212D01*
X0015599Y0220359D01*
X0015617Y0220506D01*
X0015638Y0220652D01*
X0015664Y0220798D01*
X0015694Y0220943D01*
X0015727Y0221087D01*
X0015765Y0221230D01*
X0015806Y0221372D01*
X0015851Y0221513D01*
X0015899Y0221653D01*
X0015952Y0221792D01*
X0016008Y0221929D01*
X0016068Y0222064D01*
X0016131Y0222198D01*
X0016198Y0222330D01*
X0016269Y0222460D01*
X0016343Y0222588D01*
X0016420Y0222714D01*
X0016501Y0222838D01*
X0016585Y0222960D01*
X0016672Y0223079D01*
X0016763Y0223196D01*
X0016857Y0223311D01*
X0016953Y0223423D01*
X0017053Y0223533D01*
X0017155Y0223639D01*
X0017261Y0223743D01*
X0017369Y0223844D01*
X0017480Y0223942D01*
X0017593Y0224038D01*
X0017709Y0224130D01*
X0017827Y0224219D01*
X0017948Y0224304D01*
X0018071Y0224387D01*
X0018196Y0224466D01*
X0018323Y0224542D01*
X0018452Y0224614D01*
X0018583Y0224683D01*
X0018716Y0224748D01*
X0018851Y0224809D01*
X0018987Y0224867D01*
X0019124Y0224922D01*
X0019263Y0224972D01*
X0019404Y0225019D01*
X0019545Y0225062D01*
X0019688Y0225102D01*
X0019832Y0225137D01*
X0019976Y0225169D01*
X0020122Y0225196D01*
X0020268Y0225220D01*
X0020415Y0225240D01*
X0020562Y0225256D01*
X0020709Y0225268D01*
X0020857Y0225276D01*
X0021005Y0225280D01*
X0021153Y0225280D01*
X0021301Y0225276D01*
X0021449Y0225268D01*
X0021596Y0225256D01*
X0021743Y0225240D01*
X0021890Y0225220D01*
X0022036Y0225196D01*
X0022182Y0225169D01*
X0022326Y0225137D01*
X0022470Y0225102D01*
X0022613Y0225062D01*
X0022754Y0225019D01*
X0022895Y0224972D01*
X0023034Y0224922D01*
X0023171Y0224867D01*
X0023307Y0224809D01*
X0023442Y0224748D01*
X0023575Y0224683D01*
X0023706Y0224614D01*
X0023835Y0224542D01*
X0023962Y0224466D01*
X0024087Y0224387D01*
X0024210Y0224304D01*
X0024331Y0224219D01*
X0024449Y0224130D01*
X0024565Y0224038D01*
X0024678Y0223942D01*
X0024789Y0223844D01*
X0024897Y0223743D01*
X0025003Y0223639D01*
X0025105Y0223533D01*
X0025205Y0223423D01*
X0025301Y0223311D01*
X0025395Y0223196D01*
X0025486Y0223079D01*
X0025573Y0222960D01*
X0025657Y0222838D01*
X0025738Y0222714D01*
X0025815Y0222588D01*
X0025889Y0222460D01*
X0025960Y0222330D01*
X0026027Y0222198D01*
X0026090Y0222064D01*
X0026150Y0221929D01*
X0026206Y0221792D01*
X0026259Y0221653D01*
X0026307Y0221513D01*
X0026352Y0221372D01*
X0026393Y0221230D01*
X0026431Y0221087D01*
X0026464Y0220943D01*
X0026494Y0220798D01*
X0026520Y0220652D01*
X0026541Y0220506D01*
X0026559Y0220359D01*
X0026573Y0220212D01*
X0026583Y0220064D01*
X0026589Y0219916D01*
X0026591Y0219768D01*
X0026589Y0219620D01*
X0026583Y0219472D01*
X0026573Y0219324D01*
X0026559Y0219177D01*
X0026541Y0219030D01*
X0026520Y0218884D01*
X0026494Y0218738D01*
X0026464Y0218593D01*
X0026431Y0218449D01*
X0026393Y0218306D01*
X0026352Y0218164D01*
X0026307Y0218023D01*
X0026259Y0217883D01*
X0026206Y0217744D01*
X0026150Y0217607D01*
X0026090Y0217472D01*
X0026027Y0217338D01*
X0025960Y0217206D01*
X0025889Y0217076D01*
X0025815Y0216948D01*
X0025738Y0216822D01*
X0025657Y0216698D01*
X0025573Y0216576D01*
X0025486Y0216457D01*
X0025395Y0216340D01*
X0025301Y0216225D01*
X0025205Y0216113D01*
X0025105Y0216003D01*
X0025003Y0215897D01*
X0024897Y0215793D01*
X0024789Y0215692D01*
X0024678Y0215594D01*
X0024565Y0215498D01*
X0024449Y0215406D01*
X0024331Y0215317D01*
X0024210Y0215232D01*
X0024087Y0215149D01*
X0023962Y0215070D01*
X0023835Y0214994D01*
X0023706Y0214922D01*
X0023575Y0214853D01*
X0023442Y0214788D01*
X0023307Y0214727D01*
X0023171Y0214669D01*
X0023034Y0214614D01*
X0022895Y0214564D01*
X0022754Y0214517D01*
X0022613Y0214474D01*
X0022470Y0214434D01*
X0022326Y0214399D01*
X0022182Y0214367D01*
X0022036Y0214340D01*
X0021890Y0214316D01*
X0021743Y0214296D01*
X0021596Y0214280D01*
X0021449Y0214268D01*
X0021301Y0214260D01*
X0021153Y0214256D01*
X0021005Y0214256D01*
X0020857Y0214260D01*
X0020709Y0214268D01*
X0020562Y0214280D01*
X0020415Y0214296D01*
X0020268Y0214316D01*
X0020122Y0214340D01*
X0019976Y0214367D01*
X0019832Y0214399D01*
X0019688Y0214434D01*
X0019545Y0214474D01*
X0019404Y0214517D01*
X0019263Y0214564D01*
X0019124Y0214614D01*
X0018987Y0214669D01*
X0018851Y0214727D01*
X0018716Y0214788D01*
X0018583Y0214853D01*
X0018452Y0214922D01*
X0018323Y0214994D01*
X0018196Y0215070D01*
X0018071Y0215149D01*
X0017948Y0215232D01*
X0017827Y0215317D01*
X0017709Y0215406D01*
X0017593Y0215498D01*
X0017480Y0215594D01*
X0017369Y0215692D01*
X0017261Y0215793D01*
X0017155Y0215897D01*
X0017053Y0216003D01*
X0016953Y0216113D01*
X0016857Y0216225D01*
X0016763Y0216340D01*
X0016672Y0216457D01*
X0016585Y0216576D01*
X0016501Y0216698D01*
X0016420Y0216822D01*
X0016343Y0216948D01*
X0016269Y0217076D01*
X0016198Y0217206D01*
X0016131Y0217338D01*
X0016068Y0217472D01*
X0016008Y0217607D01*
X0015952Y0217744D01*
X0015899Y0217883D01*
X0015851Y0218023D01*
X0015806Y0218164D01*
X0015765Y0218306D01*
X0015727Y0218449D01*
X0015694Y0218593D01*
X0015664Y0218738D01*
X0015638Y0218884D01*
X0015617Y0219030D01*
X0015599Y0219177D01*
X0015585Y0219324D01*
X0015575Y0219472D01*
X0015569Y0219620D01*
X0015567Y0219768D01*
D11*
X0035449Y0229225D02*
X0035449Y0232127D01*
X0036900Y0232127D01*
X0037384Y0231644D01*
X0037384Y0230676D01*
X0036900Y0230192D01*
X0035449Y0230192D01*
X0036417Y0230192D02*
X0037384Y0229225D01*
X0038396Y0229709D02*
X0038879Y0229225D01*
X0039847Y0229225D01*
X0040331Y0229709D01*
X0040331Y0230192D01*
X0039847Y0230676D01*
X0039363Y0230676D01*
X0039847Y0230676D02*
X0040331Y0231160D01*
X0040331Y0231644D01*
X0039847Y0232127D01*
X0038879Y0232127D01*
X0038396Y0231644D01*
X0041342Y0231160D02*
X0042310Y0232127D01*
X0042310Y0229225D01*
X0043277Y0229225D02*
X0041342Y0229225D01*
X0049187Y0228948D02*
X0051122Y0228948D01*
X0049187Y0227013D01*
X0049187Y0226530D01*
X0049671Y0226046D01*
X0050639Y0226046D01*
X0051122Y0226530D01*
X0054187Y0228948D02*
X0056122Y0228948D01*
X0055155Y0228948D02*
X0055155Y0226046D01*
X0056122Y0227013D01*
X0060321Y0227967D02*
X0060805Y0227483D01*
X0060321Y0227967D02*
X0060321Y0228934D01*
X0060805Y0229418D01*
X0061288Y0229418D01*
X0063223Y0227483D01*
X0063223Y0229418D01*
X0062739Y0226471D02*
X0063223Y0225988D01*
X0063223Y0225020D01*
X0062739Y0224536D01*
X0061772Y0225020D02*
X0061772Y0225988D01*
X0062256Y0226471D01*
X0062739Y0226471D01*
X0061772Y0225020D02*
X0061288Y0224536D01*
X0060805Y0224536D01*
X0060321Y0225020D01*
X0060321Y0225988D01*
X0060805Y0226471D01*
X0071610Y0226444D02*
X0071610Y0224509D01*
X0072093Y0224025D01*
X0073061Y0224025D01*
X0073545Y0224509D01*
X0074556Y0224025D02*
X0076491Y0225960D01*
X0076491Y0226444D01*
X0076007Y0226927D01*
X0075040Y0226927D01*
X0074556Y0226444D01*
X0073545Y0226444D02*
X0073061Y0226927D01*
X0072093Y0226927D01*
X0071610Y0226444D01*
X0074556Y0224025D02*
X0076491Y0224025D01*
X0077503Y0225476D02*
X0079438Y0225476D01*
X0078954Y0224025D02*
X0078954Y0226927D01*
X0077503Y0225476D01*
X0091110Y0223427D02*
X0091110Y0220525D01*
X0091110Y0221492D02*
X0092561Y0221492D01*
X0093045Y0221976D01*
X0093045Y0222944D01*
X0092561Y0223427D01*
X0091110Y0223427D01*
X0092077Y0221492D02*
X0093045Y0220525D01*
X0094056Y0220525D02*
X0095991Y0222460D01*
X0095991Y0222944D01*
X0095507Y0223427D01*
X0094540Y0223427D01*
X0094056Y0222944D01*
X0094056Y0220525D02*
X0095991Y0220525D01*
X0097003Y0221009D02*
X0097486Y0220525D01*
X0098454Y0220525D01*
X0098938Y0221009D01*
X0098938Y0222944D01*
X0098454Y0223427D01*
X0097486Y0223427D01*
X0097003Y0222944D01*
X0097003Y0222460D01*
X0097486Y0221976D01*
X0098938Y0221976D01*
X0090665Y0213553D02*
X0091149Y0213069D01*
X0091149Y0212102D01*
X0090665Y0211618D01*
X0088730Y0213553D01*
X0090665Y0213553D01*
X0088730Y0213553D02*
X0088247Y0213069D01*
X0088247Y0212102D01*
X0088730Y0211618D01*
X0090665Y0211618D01*
X0091149Y0210606D02*
X0091149Y0208671D01*
X0091149Y0209639D02*
X0088247Y0209639D01*
X0089214Y0208671D01*
X0088247Y0207660D02*
X0090665Y0207660D01*
X0091149Y0207176D01*
X0091149Y0206209D01*
X0090665Y0205725D01*
X0088247Y0205725D01*
X0070277Y0188644D02*
X0069793Y0189127D01*
X0068826Y0189127D01*
X0068342Y0188644D01*
X0067331Y0188644D02*
X0066847Y0189127D01*
X0065879Y0189127D01*
X0065396Y0188644D01*
X0064384Y0188644D02*
X0064384Y0187676D01*
X0063900Y0187192D01*
X0062449Y0187192D01*
X0062449Y0186225D02*
X0062449Y0189127D01*
X0063900Y0189127D01*
X0064384Y0188644D01*
X0063417Y0187192D02*
X0064384Y0186225D01*
X0065396Y0186225D02*
X0067331Y0188160D01*
X0067331Y0188644D01*
X0067331Y0186225D02*
X0065396Y0186225D01*
X0068342Y0186225D02*
X0070277Y0188160D01*
X0070277Y0188644D01*
X0070277Y0186225D02*
X0068342Y0186225D01*
X0068826Y0181127D02*
X0069793Y0181127D01*
X0070277Y0180644D01*
X0070277Y0180160D01*
X0069793Y0179676D01*
X0070277Y0179192D01*
X0070277Y0178709D01*
X0069793Y0178225D01*
X0068826Y0178225D01*
X0068342Y0178709D01*
X0067331Y0178225D02*
X0065396Y0178225D01*
X0067331Y0180160D01*
X0067331Y0180644D01*
X0066847Y0181127D01*
X0065879Y0181127D01*
X0065396Y0180644D01*
X0064384Y0180644D02*
X0064384Y0179676D01*
X0063900Y0179192D01*
X0062449Y0179192D01*
X0062449Y0178225D02*
X0062449Y0181127D01*
X0063900Y0181127D01*
X0064384Y0180644D01*
X0063417Y0179192D02*
X0064384Y0178225D01*
X0068342Y0180644D02*
X0068826Y0181127D01*
X0069310Y0179676D02*
X0069793Y0179676D01*
X0069793Y0170127D02*
X0068342Y0168676D01*
X0070277Y0168676D01*
X0069793Y0167225D02*
X0069793Y0170127D01*
X0067331Y0169644D02*
X0066847Y0170127D01*
X0065879Y0170127D01*
X0065396Y0169644D01*
X0064384Y0169644D02*
X0064384Y0168676D01*
X0063900Y0168192D01*
X0062449Y0168192D01*
X0062449Y0167225D02*
X0062449Y0170127D01*
X0063900Y0170127D01*
X0064384Y0169644D01*
X0063417Y0168192D02*
X0064384Y0167225D01*
X0065396Y0167225D02*
X0067331Y0169160D01*
X0067331Y0169644D01*
X0067331Y0167225D02*
X0065396Y0167225D01*
X0065879Y0159127D02*
X0065396Y0158644D01*
X0065879Y0159127D02*
X0066847Y0159127D01*
X0067331Y0158644D01*
X0067331Y0158160D01*
X0065396Y0156225D01*
X0067331Y0156225D01*
X0068342Y0156709D02*
X0068826Y0156225D01*
X0069793Y0156225D01*
X0070277Y0156709D01*
X0070277Y0157676D01*
X0069793Y0158160D01*
X0069310Y0158160D01*
X0068342Y0157676D01*
X0068342Y0159127D01*
X0070277Y0159127D01*
X0064384Y0158644D02*
X0064384Y0157676D01*
X0063900Y0157192D01*
X0062449Y0157192D01*
X0062449Y0156225D02*
X0062449Y0159127D01*
X0063900Y0159127D01*
X0064384Y0158644D01*
X0063417Y0157192D02*
X0064384Y0156225D01*
X0070730Y0148053D02*
X0070247Y0147569D01*
X0070247Y0146602D01*
X0070730Y0146118D01*
X0070730Y0145106D02*
X0071214Y0145106D01*
X0071698Y0144623D01*
X0072182Y0145106D01*
X0072665Y0145106D01*
X0073149Y0144623D01*
X0073149Y0143655D01*
X0072665Y0143171D01*
X0072665Y0142160D02*
X0073149Y0141676D01*
X0073149Y0140709D01*
X0072665Y0140225D01*
X0070730Y0140225D01*
X0070247Y0140709D01*
X0070247Y0141676D01*
X0070730Y0142160D01*
X0070730Y0143171D02*
X0070247Y0143655D01*
X0070247Y0144623D01*
X0070730Y0145106D01*
X0071698Y0144623D02*
X0071698Y0144139D01*
X0073149Y0146118D02*
X0071214Y0148053D01*
X0070730Y0148053D01*
X0073149Y0148053D02*
X0073149Y0146118D01*
X0087610Y0152509D02*
X0088093Y0152025D01*
X0089061Y0152025D01*
X0089545Y0152509D01*
X0090556Y0152509D02*
X0091040Y0152025D01*
X0092007Y0152025D01*
X0092491Y0152509D01*
X0092491Y0152992D01*
X0092007Y0153476D01*
X0091524Y0153476D01*
X0092007Y0153476D02*
X0092491Y0153960D01*
X0092491Y0154444D01*
X0092007Y0154927D01*
X0091040Y0154927D01*
X0090556Y0154444D01*
X0089545Y0154444D02*
X0089061Y0154927D01*
X0088093Y0154927D01*
X0087610Y0154444D01*
X0087610Y0152509D01*
X0093503Y0152509D02*
X0095438Y0154444D01*
X0095438Y0152509D01*
X0094954Y0152025D01*
X0093986Y0152025D01*
X0093503Y0152509D01*
X0093503Y0154444D01*
X0093986Y0154927D01*
X0094954Y0154927D01*
X0095438Y0154444D01*
X0100730Y0149053D02*
X0100247Y0148569D01*
X0100247Y0147602D01*
X0100730Y0147118D01*
X0101214Y0147118D01*
X0101698Y0147602D01*
X0101698Y0149053D01*
X0102665Y0149053D02*
X0100730Y0149053D01*
X0102665Y0149053D02*
X0103149Y0148569D01*
X0103149Y0147602D01*
X0102665Y0147118D01*
X0102665Y0146106D02*
X0103149Y0145623D01*
X0103149Y0144655D01*
X0102665Y0144171D01*
X0102665Y0143160D02*
X0103149Y0142676D01*
X0103149Y0141709D01*
X0102665Y0141225D01*
X0100730Y0141225D01*
X0100247Y0141709D01*
X0100247Y0142676D01*
X0100730Y0143160D01*
X0100730Y0144171D02*
X0100247Y0144655D01*
X0100247Y0145623D01*
X0100730Y0146106D01*
X0101214Y0146106D01*
X0101698Y0145623D01*
X0102182Y0146106D01*
X0102665Y0146106D01*
X0101698Y0145623D02*
X0101698Y0145139D01*
X0095310Y0136127D02*
X0095310Y0133225D01*
X0096277Y0133225D02*
X0094342Y0133225D01*
X0093331Y0133709D02*
X0092847Y0133225D01*
X0091879Y0133225D01*
X0091396Y0133709D01*
X0090384Y0133709D02*
X0089900Y0133225D01*
X0088933Y0133225D01*
X0088449Y0133709D01*
X0088449Y0135644D01*
X0088933Y0136127D01*
X0089900Y0136127D01*
X0090384Y0135644D01*
X0091396Y0135644D02*
X0091879Y0136127D01*
X0092847Y0136127D01*
X0093331Y0135644D01*
X0093331Y0135160D01*
X0092847Y0134676D01*
X0093331Y0134192D01*
X0093331Y0133709D01*
X0092847Y0134676D02*
X0092363Y0134676D01*
X0094342Y0135160D02*
X0095310Y0136127D01*
X0069149Y0127569D02*
X0069149Y0126602D01*
X0068665Y0126118D01*
X0066730Y0128053D01*
X0068665Y0128053D01*
X0069149Y0127569D01*
X0068665Y0126118D02*
X0066730Y0126118D01*
X0066247Y0126602D01*
X0066247Y0127569D01*
X0066730Y0128053D01*
X0066730Y0125106D02*
X0066247Y0124623D01*
X0066247Y0123655D01*
X0066730Y0123171D01*
X0066730Y0122160D02*
X0067698Y0122160D01*
X0068182Y0121676D01*
X0068182Y0120225D01*
X0069149Y0120225D02*
X0066247Y0120225D01*
X0066247Y0121676D01*
X0066730Y0122160D01*
X0068182Y0121192D02*
X0069149Y0122160D01*
X0068665Y0123171D02*
X0069149Y0123655D01*
X0069149Y0124623D01*
X0068665Y0125106D01*
X0068182Y0125106D01*
X0067698Y0124623D01*
X0067698Y0124139D01*
X0067698Y0124623D02*
X0067214Y0125106D01*
X0066730Y0125106D01*
X0059149Y0124623D02*
X0056247Y0124623D01*
X0057698Y0123171D01*
X0057698Y0125106D01*
X0058665Y0126118D02*
X0059149Y0126602D01*
X0059149Y0127569D01*
X0058665Y0128053D01*
X0058182Y0128053D01*
X0057698Y0127569D01*
X0057698Y0127085D01*
X0057698Y0127569D02*
X0057214Y0128053D01*
X0056730Y0128053D01*
X0056247Y0127569D01*
X0056247Y0126602D01*
X0056730Y0126118D01*
X0056730Y0122160D02*
X0057698Y0122160D01*
X0058182Y0121676D01*
X0058182Y0120225D01*
X0059149Y0120225D02*
X0056247Y0120225D01*
X0056247Y0121676D01*
X0056730Y0122160D01*
X0058182Y0121192D02*
X0059149Y0122160D01*
X0072449Y0109444D02*
X0072449Y0107509D01*
X0072933Y0107025D01*
X0073900Y0107025D01*
X0074384Y0107509D01*
X0074384Y0109444D01*
X0073900Y0109927D01*
X0072933Y0109927D01*
X0072449Y0109444D01*
X0075396Y0109927D02*
X0077331Y0107025D01*
X0077331Y0109927D01*
X0075396Y0109927D02*
X0075396Y0107025D01*
X0075396Y0105127D02*
X0076363Y0104160D01*
X0076363Y0103192D01*
X0075396Y0102225D01*
X0074384Y0102225D02*
X0072449Y0102225D01*
X0073417Y0102225D02*
X0073417Y0105127D01*
X0072449Y0104160D01*
X0077360Y0104160D02*
X0077360Y0102225D01*
X0077360Y0103676D02*
X0079295Y0103676D01*
X0079295Y0104160D02*
X0079295Y0102225D01*
X0079295Y0104160D02*
X0078328Y0105127D01*
X0077360Y0104160D01*
X0080307Y0105127D02*
X0082242Y0105127D01*
X0081274Y0105127D02*
X0081274Y0102225D01*
X0081758Y0100327D02*
X0082242Y0099844D01*
X0082242Y0098876D01*
X0081758Y0098392D01*
X0080307Y0098392D01*
X0080307Y0097425D02*
X0080307Y0100327D01*
X0081758Y0100327D01*
X0083253Y0099360D02*
X0083737Y0099360D01*
X0083737Y0097425D01*
X0083253Y0097425D02*
X0084221Y0097425D01*
X0085217Y0098876D02*
X0087152Y0098876D01*
X0088164Y0097425D02*
X0090099Y0098876D01*
X0088164Y0100327D01*
X0087651Y0102225D02*
X0086683Y0102225D01*
X0086200Y0102709D01*
X0085188Y0102225D02*
X0085188Y0103676D01*
X0084704Y0104160D01*
X0084221Y0103676D01*
X0084221Y0102225D01*
X0083253Y0102225D02*
X0083253Y0104160D01*
X0083737Y0104160D01*
X0084221Y0103676D01*
X0086200Y0104644D02*
X0086683Y0105127D01*
X0087651Y0105127D01*
X0088135Y0104644D01*
X0088135Y0104160D01*
X0087651Y0103676D01*
X0088135Y0103192D01*
X0088135Y0102709D01*
X0087651Y0102225D01*
X0087651Y0103676D02*
X0087167Y0103676D01*
X0089146Y0104644D02*
X0089630Y0105127D01*
X0090597Y0105127D01*
X0091081Y0104644D01*
X0091081Y0104160D01*
X0089146Y0102225D01*
X0091081Y0102225D01*
X0092093Y0102709D02*
X0092093Y0105127D01*
X0092093Y0107025D02*
X0092093Y0108960D01*
X0093544Y0108960D01*
X0094028Y0108476D01*
X0094028Y0107025D01*
X0095039Y0107509D02*
X0095523Y0107992D01*
X0096974Y0107992D01*
X0096974Y0108476D02*
X0096974Y0107025D01*
X0095523Y0107025D01*
X0095039Y0107509D01*
X0095523Y0108960D02*
X0096490Y0108960D01*
X0096974Y0108476D01*
X0097986Y0108960D02*
X0099437Y0108960D01*
X0099921Y0108476D01*
X0099921Y0107509D01*
X0099437Y0107025D01*
X0097986Y0107025D01*
X0097986Y0109927D01*
X0100932Y0109927D02*
X0101416Y0109927D01*
X0101416Y0107025D01*
X0100932Y0107025D02*
X0101900Y0107025D01*
X0102897Y0107509D02*
X0102897Y0108476D01*
X0103380Y0108960D01*
X0104348Y0108960D01*
X0104832Y0108476D01*
X0104832Y0107992D01*
X0102897Y0107992D01*
X0102897Y0107509D02*
X0103380Y0107025D01*
X0104348Y0107025D01*
X0105843Y0107025D02*
X0105843Y0107509D01*
X0106327Y0107509D01*
X0106327Y0107025D01*
X0105843Y0107025D01*
X0105843Y0108476D02*
X0105843Y0108960D01*
X0106327Y0108960D01*
X0106327Y0108476D01*
X0105843Y0108476D01*
X0105330Y0104160D02*
X0104362Y0104160D01*
X0103879Y0103676D01*
X0103879Y0102709D01*
X0104362Y0102225D01*
X0105330Y0102225D01*
X0105814Y0102709D01*
X0105814Y0103676D01*
X0105330Y0104160D01*
X0106825Y0103676D02*
X0106825Y0102709D01*
X0107309Y0102225D01*
X0108276Y0102225D01*
X0108760Y0102709D01*
X0108760Y0103676D01*
X0108276Y0104160D01*
X0107309Y0104160D01*
X0106825Y0103676D01*
X0109772Y0104160D02*
X0110739Y0104160D01*
X0110256Y0104644D02*
X0110256Y0102709D01*
X0110739Y0102225D01*
X0111736Y0102225D02*
X0112704Y0102225D01*
X0112220Y0102225D02*
X0112220Y0105127D01*
X0111736Y0105127D01*
X0113700Y0103676D02*
X0113700Y0102709D01*
X0114184Y0102225D01*
X0115152Y0102225D01*
X0115635Y0102709D01*
X0115635Y0103676D01*
X0115152Y0104160D01*
X0114184Y0104160D01*
X0113700Y0103676D01*
X0116647Y0102709D02*
X0117131Y0103192D01*
X0118582Y0103192D01*
X0118582Y0103676D02*
X0118582Y0102225D01*
X0117131Y0102225D01*
X0116647Y0102709D01*
X0117131Y0104160D02*
X0118098Y0104160D01*
X0118582Y0103676D01*
X0119594Y0103676D02*
X0119594Y0102709D01*
X0120077Y0102225D01*
X0121528Y0102225D01*
X0121528Y0105127D01*
X0121528Y0104160D02*
X0120077Y0104160D01*
X0119594Y0103676D01*
X0122540Y0103676D02*
X0122540Y0102709D01*
X0123024Y0102225D01*
X0123991Y0102225D01*
X0124475Y0103192D02*
X0122540Y0103192D01*
X0122540Y0103676D02*
X0123024Y0104160D01*
X0123991Y0104160D01*
X0124475Y0103676D01*
X0124475Y0103192D01*
X0125487Y0103192D02*
X0126454Y0104160D01*
X0126938Y0104160D01*
X0125487Y0104160D02*
X0125487Y0102225D01*
X0129247Y0103225D02*
X0129247Y0104676D01*
X0129730Y0105160D01*
X0130698Y0105160D01*
X0131182Y0104676D01*
X0131182Y0103225D01*
X0132149Y0103225D02*
X0129247Y0103225D01*
X0131182Y0104192D02*
X0132149Y0105160D01*
X0132149Y0106171D02*
X0132149Y0108106D01*
X0132149Y0107139D02*
X0129247Y0107139D01*
X0130214Y0106171D01*
X0129730Y0109118D02*
X0129247Y0109602D01*
X0129247Y0110569D01*
X0129730Y0111053D01*
X0131665Y0109118D01*
X0132149Y0109602D01*
X0132149Y0110569D01*
X0131665Y0111053D01*
X0129730Y0111053D01*
X0129730Y0109118D02*
X0131665Y0109118D01*
X0130954Y0114025D02*
X0129986Y0114025D01*
X0129503Y0114509D01*
X0131438Y0116444D01*
X0131438Y0114509D01*
X0130954Y0114025D01*
X0129503Y0114509D02*
X0129503Y0116444D01*
X0129986Y0116927D01*
X0130954Y0116927D01*
X0131438Y0116444D01*
X0128491Y0114025D02*
X0126556Y0114025D01*
X0127524Y0114025D02*
X0127524Y0116927D01*
X0126556Y0115960D01*
X0125545Y0116444D02*
X0125061Y0116927D01*
X0124093Y0116927D01*
X0123610Y0116444D01*
X0123610Y0114509D01*
X0124093Y0114025D01*
X0125061Y0114025D01*
X0125545Y0114509D01*
X0125545Y0122025D02*
X0124577Y0122992D01*
X0125061Y0122992D02*
X0123610Y0122992D01*
X0123610Y0122025D02*
X0123610Y0124927D01*
X0125061Y0124927D01*
X0125545Y0124444D01*
X0125545Y0123476D01*
X0125061Y0122992D01*
X0126556Y0122025D02*
X0128491Y0122025D01*
X0127524Y0122025D02*
X0127524Y0124927D01*
X0126556Y0123960D01*
X0129503Y0124444D02*
X0129986Y0124927D01*
X0130954Y0124927D01*
X0131438Y0124444D01*
X0131438Y0123960D01*
X0129503Y0122025D01*
X0131438Y0122025D01*
X0150110Y0136009D02*
X0150593Y0135525D01*
X0151561Y0135525D01*
X0152045Y0136009D01*
X0153056Y0135525D02*
X0154991Y0135525D01*
X0154024Y0135525D02*
X0154024Y0138427D01*
X0153056Y0137460D01*
X0152045Y0137944D02*
X0151561Y0138427D01*
X0150593Y0138427D01*
X0150110Y0137944D01*
X0150110Y0136009D01*
X0156003Y0136976D02*
X0157938Y0136976D01*
X0157454Y0135525D02*
X0157454Y0138427D01*
X0156003Y0136976D01*
X0163247Y0136709D02*
X0163730Y0136225D01*
X0165665Y0136225D01*
X0166149Y0136709D01*
X0166149Y0137676D01*
X0165665Y0138160D01*
X0166149Y0139171D02*
X0166149Y0141106D01*
X0166149Y0140139D02*
X0163247Y0140139D01*
X0164214Y0139171D01*
X0163730Y0138160D02*
X0163247Y0137676D01*
X0163247Y0136709D01*
X0163730Y0142118D02*
X0163247Y0142602D01*
X0163247Y0143569D01*
X0163730Y0144053D01*
X0164214Y0144053D01*
X0166149Y0142118D01*
X0166149Y0144053D01*
X0154149Y0146709D02*
X0154149Y0147676D01*
X0153665Y0148160D01*
X0154149Y0149171D02*
X0154149Y0151106D01*
X0154149Y0150139D02*
X0151247Y0150139D01*
X0152214Y0149171D01*
X0151730Y0148160D02*
X0151247Y0147676D01*
X0151247Y0146709D01*
X0151730Y0146225D01*
X0153665Y0146225D01*
X0154149Y0146709D01*
X0154149Y0152118D02*
X0154149Y0154053D01*
X0154149Y0153085D02*
X0151247Y0153085D01*
X0152214Y0152118D01*
X0151730Y0168225D02*
X0153665Y0168225D01*
X0154149Y0168709D01*
X0154149Y0169676D01*
X0153665Y0170160D01*
X0153665Y0171171D02*
X0153182Y0171171D01*
X0152698Y0171655D01*
X0152698Y0172623D01*
X0153182Y0173106D01*
X0153665Y0173106D01*
X0154149Y0172623D01*
X0154149Y0171655D01*
X0153665Y0171171D01*
X0152698Y0171655D02*
X0152214Y0171171D01*
X0151730Y0171171D01*
X0151247Y0171655D01*
X0151247Y0172623D01*
X0151730Y0173106D01*
X0152214Y0173106D01*
X0152698Y0172623D01*
X0151730Y0170160D02*
X0151247Y0169676D01*
X0151247Y0168709D01*
X0151730Y0168225D01*
X0161040Y0182525D02*
X0162007Y0182525D01*
X0162491Y0183009D01*
X0163503Y0183009D02*
X0163503Y0182525D01*
X0163503Y0183009D02*
X0165438Y0184944D01*
X0165438Y0185427D01*
X0163503Y0185427D01*
X0162491Y0184944D02*
X0162007Y0185427D01*
X0161040Y0185427D01*
X0160556Y0184944D01*
X0160556Y0183009D01*
X0161040Y0182525D01*
X0153665Y0192225D02*
X0151730Y0192225D01*
X0151247Y0192709D01*
X0151247Y0193676D01*
X0151730Y0194160D01*
X0152214Y0195171D02*
X0151247Y0196139D01*
X0154149Y0196139D01*
X0154149Y0197106D02*
X0154149Y0195171D01*
X0153665Y0194160D02*
X0154149Y0193676D01*
X0154149Y0192709D01*
X0153665Y0192225D01*
X0153665Y0198118D02*
X0154149Y0198602D01*
X0154149Y0199569D01*
X0153665Y0200053D01*
X0153182Y0200053D01*
X0152698Y0199569D01*
X0152698Y0199085D01*
X0152698Y0199569D02*
X0152214Y0200053D01*
X0151730Y0200053D01*
X0151247Y0199569D01*
X0151247Y0198602D01*
X0151730Y0198118D01*
X0151730Y0215225D02*
X0153665Y0215225D01*
X0154149Y0215709D01*
X0154149Y0216676D01*
X0153665Y0217160D01*
X0152698Y0218171D02*
X0152698Y0220106D01*
X0154149Y0219623D02*
X0151247Y0219623D01*
X0152698Y0218171D01*
X0151730Y0217160D02*
X0151247Y0216676D01*
X0151247Y0215709D01*
X0151730Y0215225D01*
X0160040Y0229025D02*
X0161007Y0229025D01*
X0161491Y0229509D01*
X0162503Y0229509D02*
X0162986Y0229025D01*
X0163954Y0229025D01*
X0164438Y0229509D01*
X0164438Y0229992D01*
X0163954Y0230476D01*
X0163470Y0230476D01*
X0163954Y0230476D02*
X0164438Y0230960D01*
X0164438Y0231444D01*
X0163954Y0231927D01*
X0162986Y0231927D01*
X0162503Y0231444D01*
X0161491Y0231444D02*
X0161007Y0231927D01*
X0160040Y0231927D01*
X0159556Y0231444D01*
X0159556Y0229509D01*
X0160040Y0229025D01*
X0173638Y0227019D02*
X0173638Y0224551D01*
X0173638Y0225785D02*
X0177341Y0225785D01*
X0176107Y0227019D01*
X0133277Y0228709D02*
X0132793Y0228225D01*
X0131826Y0228225D01*
X0131342Y0228709D01*
X0130331Y0228225D02*
X0128396Y0228225D01*
X0130331Y0230160D01*
X0130331Y0230644D01*
X0129847Y0231127D01*
X0128879Y0231127D01*
X0128396Y0230644D01*
X0127384Y0230644D02*
X0126900Y0231127D01*
X0125933Y0231127D01*
X0125449Y0230644D01*
X0125449Y0228709D01*
X0125933Y0228225D01*
X0126900Y0228225D01*
X0127384Y0228709D01*
X0131342Y0230644D02*
X0131826Y0231127D01*
X0132793Y0231127D01*
X0133277Y0230644D01*
X0133277Y0230160D01*
X0132793Y0229676D01*
X0133277Y0229192D01*
X0133277Y0228709D01*
X0132793Y0229676D02*
X0132310Y0229676D01*
X0130954Y0217927D02*
X0129503Y0216476D01*
X0131438Y0216476D01*
X0130954Y0215025D02*
X0130954Y0217927D01*
X0128491Y0217444D02*
X0128491Y0216476D01*
X0128007Y0215992D01*
X0126556Y0215992D01*
X0126556Y0215025D02*
X0126556Y0217927D01*
X0128007Y0217927D01*
X0128491Y0217444D01*
X0127524Y0215992D02*
X0128491Y0215025D01*
X0128007Y0209927D02*
X0127040Y0209927D01*
X0126556Y0209444D01*
X0126556Y0207509D01*
X0127040Y0207025D01*
X0128007Y0207025D01*
X0128491Y0207509D01*
X0129503Y0207025D02*
X0131438Y0207025D01*
X0130470Y0207025D02*
X0130470Y0209927D01*
X0129503Y0208960D01*
X0128491Y0209444D02*
X0128007Y0209927D01*
X0128007Y0200927D02*
X0127040Y0200927D01*
X0126556Y0200444D01*
X0126556Y0198509D01*
X0127040Y0198025D01*
X0128007Y0198025D01*
X0128491Y0198509D01*
X0129503Y0198025D02*
X0131438Y0199960D01*
X0131438Y0200444D01*
X0130954Y0200927D01*
X0129986Y0200927D01*
X0129503Y0200444D01*
X0128491Y0200444D02*
X0128007Y0200927D01*
X0129503Y0198025D02*
X0131438Y0198025D01*
X0130954Y0192927D02*
X0129986Y0192927D01*
X0129503Y0192444D01*
X0128491Y0192444D02*
X0128491Y0191476D01*
X0128007Y0190992D01*
X0126556Y0190992D01*
X0126556Y0190025D02*
X0126556Y0192927D01*
X0128007Y0192927D01*
X0128491Y0192444D01*
X0127524Y0190992D02*
X0128491Y0190025D01*
X0129503Y0190025D02*
X0131438Y0191960D01*
X0131438Y0192444D01*
X0130954Y0192927D01*
X0131438Y0190025D02*
X0129503Y0190025D01*
X0129986Y0170927D02*
X0129503Y0170444D01*
X0129503Y0169960D01*
X0129986Y0169476D01*
X0130954Y0169476D01*
X0131438Y0168992D01*
X0131438Y0168509D01*
X0130954Y0168025D01*
X0129986Y0168025D01*
X0129503Y0168509D01*
X0129503Y0168992D01*
X0129986Y0169476D01*
X0130954Y0169476D02*
X0131438Y0169960D01*
X0131438Y0170444D01*
X0130954Y0170927D01*
X0129986Y0170927D01*
X0128491Y0170444D02*
X0128491Y0169476D01*
X0128007Y0168992D01*
X0126556Y0168992D01*
X0126556Y0168025D02*
X0126556Y0170927D01*
X0128007Y0170927D01*
X0128491Y0170444D01*
X0127524Y0168992D02*
X0128491Y0168025D01*
X0128007Y0164927D02*
X0127040Y0164927D01*
X0126556Y0164444D01*
X0126556Y0162509D01*
X0127040Y0162025D01*
X0128007Y0162025D01*
X0128491Y0162509D01*
X0129503Y0162509D02*
X0129986Y0162025D01*
X0130954Y0162025D01*
X0131438Y0162509D01*
X0131438Y0162992D01*
X0130954Y0163476D01*
X0129503Y0163476D01*
X0129503Y0162509D01*
X0129503Y0163476D02*
X0130470Y0164444D01*
X0131438Y0164927D01*
X0128491Y0164444D02*
X0128007Y0164927D01*
X0128007Y0153927D02*
X0126556Y0153927D01*
X0126556Y0151025D01*
X0126556Y0151992D02*
X0128007Y0151992D01*
X0128491Y0152476D01*
X0128491Y0153444D01*
X0128007Y0153927D01*
X0127524Y0151992D02*
X0128491Y0151025D01*
X0129503Y0151509D02*
X0129986Y0151025D01*
X0130954Y0151025D01*
X0131438Y0151509D01*
X0131438Y0151992D01*
X0130954Y0152476D01*
X0129503Y0152476D01*
X0129503Y0151509D01*
X0129503Y0152476D02*
X0130470Y0153444D01*
X0131438Y0153927D01*
X0131438Y0145927D02*
X0129503Y0145927D01*
X0129503Y0144476D01*
X0130470Y0144960D01*
X0130954Y0144960D01*
X0131438Y0144476D01*
X0131438Y0143509D01*
X0130954Y0143025D01*
X0129986Y0143025D01*
X0129503Y0143509D01*
X0128491Y0143509D02*
X0128007Y0143025D01*
X0127040Y0143025D01*
X0126556Y0143509D01*
X0126556Y0145444D01*
X0127040Y0145927D01*
X0128007Y0145927D01*
X0128491Y0145444D01*
X0104349Y0174385D02*
X0101447Y0174385D01*
X0101447Y0175836D01*
X0101930Y0176320D01*
X0102898Y0176320D01*
X0103382Y0175836D01*
X0103382Y0174385D01*
X0103382Y0175353D02*
X0104349Y0176320D01*
X0104349Y0177332D02*
X0102414Y0179267D01*
X0101930Y0179267D01*
X0101447Y0178783D01*
X0101447Y0177816D01*
X0101930Y0177332D01*
X0104349Y0177332D02*
X0104349Y0179267D01*
X0103865Y0180278D02*
X0103382Y0180278D01*
X0102898Y0180762D01*
X0102898Y0181730D01*
X0103382Y0182213D01*
X0103865Y0182213D01*
X0104349Y0181730D01*
X0104349Y0180762D01*
X0103865Y0180278D01*
X0102898Y0180762D02*
X0102414Y0180278D01*
X0101930Y0180278D01*
X0101447Y0180762D01*
X0101447Y0181730D01*
X0101930Y0182213D01*
X0102414Y0182213D01*
X0102898Y0181730D01*
X0064149Y0212209D02*
X0063665Y0211725D01*
X0061247Y0211725D01*
X0061247Y0213660D02*
X0063665Y0213660D01*
X0064149Y0213176D01*
X0064149Y0212209D01*
X0063665Y0214671D02*
X0064149Y0215155D01*
X0064149Y0216123D01*
X0063665Y0216606D01*
X0062698Y0216606D01*
X0062214Y0216123D01*
X0062214Y0215639D01*
X0062698Y0214671D01*
X0061247Y0214671D01*
X0061247Y0216606D01*
X0057112Y0210101D02*
X0056145Y0210101D01*
X0055661Y0209617D01*
X0055661Y0207682D01*
X0056145Y0207199D01*
X0057112Y0207199D01*
X0057596Y0207682D01*
X0057596Y0209617D01*
X0057112Y0210101D01*
X0054649Y0210101D02*
X0054649Y0208166D01*
X0053198Y0208166D01*
X0052714Y0208650D01*
X0052714Y0210101D01*
X0051967Y0199428D02*
X0051967Y0196959D01*
X0050733Y0195725D01*
X0049499Y0196959D01*
X0049499Y0199428D01*
X0048284Y0198811D02*
X0048284Y0197576D01*
X0047667Y0196959D01*
X0045816Y0196959D01*
X0047050Y0196959D02*
X0048284Y0195725D01*
X0045816Y0195725D02*
X0045816Y0199428D01*
X0047667Y0199428D01*
X0048284Y0198811D01*
X0044601Y0199428D02*
X0042132Y0199428D01*
X0042132Y0195725D01*
X0044601Y0195725D01*
X0043367Y0197576D02*
X0042132Y0197576D01*
X0040918Y0196959D02*
X0040918Y0196342D01*
X0040301Y0195725D01*
X0039066Y0195725D01*
X0038449Y0196342D01*
X0039066Y0197576D02*
X0038449Y0198194D01*
X0038449Y0198811D01*
X0039066Y0199428D01*
X0040301Y0199428D01*
X0040918Y0198811D01*
X0040301Y0197576D02*
X0040918Y0196959D01*
X0040301Y0197576D02*
X0039066Y0197576D01*
X0053182Y0196342D02*
X0053799Y0195725D01*
X0055033Y0195725D01*
X0055651Y0196342D01*
X0055651Y0198811D01*
X0055033Y0199428D01*
X0053799Y0199428D01*
X0053182Y0198811D01*
X0053182Y0196342D01*
X0042149Y0173010D02*
X0040915Y0171776D01*
X0040915Y0172393D02*
X0040915Y0170542D01*
X0040915Y0169327D02*
X0038446Y0169327D01*
X0038446Y0170542D02*
X0038446Y0172393D01*
X0039063Y0173010D01*
X0040298Y0173010D01*
X0040915Y0172393D01*
X0042149Y0170542D02*
X0038446Y0170542D01*
X0040915Y0169327D02*
X0042149Y0168093D01*
X0040915Y0166859D01*
X0038446Y0166859D01*
X0039063Y0165644D02*
X0038446Y0165027D01*
X0038446Y0163793D01*
X0039063Y0163175D01*
X0041532Y0163175D01*
X0042149Y0163793D01*
X0042149Y0165027D01*
X0041532Y0165644D01*
X0042149Y0161961D02*
X0040915Y0160727D01*
X0040915Y0161344D02*
X0040915Y0159492D01*
X0042149Y0159492D02*
X0038446Y0159492D01*
X0038446Y0161344D01*
X0039063Y0161961D01*
X0040298Y0161961D01*
X0040915Y0161344D01*
X0048449Y0140928D02*
X0049684Y0140928D01*
X0049066Y0140928D02*
X0049066Y0137225D01*
X0048449Y0137225D02*
X0049684Y0137225D01*
X0050905Y0137225D02*
X0050905Y0140928D01*
X0052139Y0139694D01*
X0053373Y0140928D01*
X0053373Y0137225D01*
X0054588Y0137842D02*
X0055205Y0137225D01*
X0056439Y0137225D01*
X0057057Y0137842D01*
X0057057Y0140928D01*
X0054588Y0140928D02*
X0054588Y0137842D01*
X0081773Y0109444D02*
X0081773Y0107509D01*
X0082256Y0107025D01*
X0083253Y0107509D02*
X0083737Y0107025D01*
X0084704Y0107025D01*
X0085188Y0107509D01*
X0085188Y0108476D01*
X0084704Y0108960D01*
X0083737Y0108960D01*
X0083253Y0108476D01*
X0083253Y0107509D01*
X0082256Y0108960D02*
X0081289Y0108960D01*
X0089146Y0108476D02*
X0090114Y0108476D01*
X0091081Y0107025D02*
X0089146Y0107025D01*
X0089146Y0109927D01*
X0091081Y0109927D01*
X0094028Y0105127D02*
X0094028Y0102709D01*
X0093544Y0102225D01*
X0092576Y0102225D01*
X0092093Y0102709D01*
X0092078Y0100327D02*
X0091110Y0099360D01*
X0091110Y0097425D01*
X0091110Y0098876D02*
X0093045Y0098876D01*
X0093045Y0099360D02*
X0093045Y0097425D01*
X0093045Y0099360D02*
X0092078Y0100327D01*
X0094057Y0100327D02*
X0095992Y0100327D01*
X0095024Y0100327D02*
X0095024Y0097425D01*
X0097004Y0097425D02*
X0097004Y0099360D01*
X0097487Y0099360D01*
X0097971Y0098876D01*
X0098455Y0099360D01*
X0098939Y0098876D01*
X0098939Y0097425D01*
X0097971Y0097425D02*
X0097971Y0098876D01*
X0099950Y0097909D02*
X0100434Y0097425D01*
X0101401Y0097425D01*
X0101885Y0097909D01*
X0101885Y0098392D01*
X0101401Y0098876D01*
X0100918Y0098876D01*
X0101401Y0098876D02*
X0101885Y0099360D01*
X0101885Y0099844D01*
X0101401Y0100327D01*
X0100434Y0100327D01*
X0099950Y0099844D01*
X0100932Y0102225D02*
X0102383Y0102225D01*
X0102867Y0102709D01*
X0102867Y0103192D01*
X0102383Y0103676D01*
X0100932Y0103676D01*
X0100932Y0102225D02*
X0100932Y0105127D01*
X0102383Y0105127D01*
X0102867Y0104644D01*
X0102867Y0104160D01*
X0102383Y0103676D01*
X0103380Y0100327D02*
X0102897Y0099844D01*
X0103380Y0100327D02*
X0104348Y0100327D01*
X0104832Y0099844D01*
X0104832Y0099360D01*
X0102897Y0097425D01*
X0104832Y0097425D01*
X0105843Y0097909D02*
X0105843Y0100327D01*
X0107778Y0100327D02*
X0107778Y0097909D01*
X0107294Y0097425D01*
X0106327Y0097425D01*
X0105843Y0097909D01*
X0108790Y0098876D02*
X0110725Y0098876D01*
X0110241Y0097425D02*
X0110241Y0100327D01*
X0108790Y0098876D01*
X0114683Y0099360D02*
X0115166Y0098876D01*
X0116134Y0098876D01*
X0116618Y0098392D01*
X0116618Y0097909D01*
X0116134Y0097425D01*
X0115166Y0097425D01*
X0114683Y0097909D01*
X0114683Y0099360D02*
X0114683Y0099844D01*
X0115166Y0100327D01*
X0116134Y0100327D01*
X0116618Y0099844D01*
X0117629Y0100327D02*
X0119080Y0100327D01*
X0119564Y0099844D01*
X0119564Y0098876D01*
X0119080Y0098392D01*
X0117629Y0098392D01*
X0117629Y0097425D02*
X0117629Y0100327D01*
X0120576Y0100327D02*
X0121543Y0100327D01*
X0121059Y0100327D02*
X0121059Y0097425D01*
X0120576Y0097425D02*
X0121543Y0097425D01*
X0129247Y0096676D02*
X0129247Y0095709D01*
X0129730Y0095225D01*
X0131665Y0095225D01*
X0132149Y0095709D01*
X0132149Y0096676D01*
X0131665Y0097160D01*
X0131665Y0098171D02*
X0132149Y0098655D01*
X0132149Y0099623D01*
X0131665Y0100106D01*
X0129730Y0100106D01*
X0129247Y0099623D01*
X0129247Y0098655D01*
X0129730Y0098171D01*
X0130214Y0098171D01*
X0130698Y0098655D01*
X0130698Y0100106D01*
X0129730Y0097160D02*
X0129247Y0096676D01*
X0146110Y0089444D02*
X0146110Y0087509D01*
X0146593Y0087025D01*
X0147561Y0087025D01*
X0148045Y0087509D01*
X0149056Y0088476D02*
X0150991Y0088476D01*
X0152003Y0087509D02*
X0153938Y0089444D01*
X0153938Y0087509D01*
X0153454Y0087025D01*
X0152486Y0087025D01*
X0152003Y0087509D01*
X0152003Y0089444D01*
X0152486Y0089927D01*
X0153454Y0089927D01*
X0153938Y0089444D01*
X0150507Y0089927D02*
X0150507Y0087025D01*
X0149056Y0088476D02*
X0150507Y0089927D01*
X0148045Y0089444D02*
X0147561Y0089927D01*
X0146593Y0089927D01*
X0146110Y0089444D01*
X0151730Y0100225D02*
X0153665Y0100225D01*
X0154149Y0100709D01*
X0154149Y0101676D01*
X0153665Y0102160D01*
X0154149Y0103171D02*
X0154149Y0105106D01*
X0154149Y0104139D02*
X0151247Y0104139D01*
X0152214Y0103171D01*
X0151730Y0102160D02*
X0151247Y0101676D01*
X0151247Y0100709D01*
X0151730Y0100225D01*
X0151247Y0106118D02*
X0152698Y0106118D01*
X0152214Y0107085D01*
X0152214Y0107569D01*
X0152698Y0108053D01*
X0153665Y0108053D01*
X0154149Y0107569D01*
X0154149Y0106602D01*
X0153665Y0106118D01*
X0151247Y0106118D02*
X0151247Y0108053D01*
X0173638Y0130551D02*
X0173638Y0133019D01*
X0173638Y0131785D02*
X0177341Y0131785D01*
X0176107Y0133019D01*
X0192447Y0090777D02*
X0195349Y0090777D01*
X0195349Y0089326D01*
X0194865Y0088842D01*
X0193898Y0088842D01*
X0193414Y0089326D01*
X0193414Y0090777D01*
X0193414Y0087838D02*
X0193414Y0087354D01*
X0194382Y0086387D01*
X0195349Y0086387D02*
X0193414Y0086387D01*
X0193898Y0085375D02*
X0193414Y0084892D01*
X0193414Y0083924D01*
X0194382Y0083924D02*
X0194865Y0083440D01*
X0195349Y0083924D01*
X0195349Y0085375D01*
X0193898Y0085375D01*
X0194382Y0085375D02*
X0194382Y0083924D01*
X0194865Y0082429D02*
X0193898Y0082429D01*
X0193414Y0081945D01*
X0193414Y0080978D01*
X0193898Y0080494D01*
X0194865Y0080494D01*
X0195349Y0080978D01*
X0195349Y0081945D01*
X0194865Y0082429D01*
X0197247Y0082949D02*
X0197247Y0084884D01*
X0197730Y0084884D01*
X0199665Y0082949D01*
X0200149Y0082949D01*
X0200149Y0081938D02*
X0200149Y0080003D01*
X0200149Y0080970D02*
X0197247Y0080970D01*
X0198214Y0080003D01*
X0197730Y0078991D02*
X0199665Y0077056D01*
X0200149Y0077540D01*
X0200149Y0078508D01*
X0199665Y0078991D01*
X0197730Y0078991D01*
X0197247Y0078508D01*
X0197247Y0077540D01*
X0197730Y0077056D01*
X0199665Y0077056D01*
X0200149Y0076045D02*
X0200149Y0074110D01*
X0198214Y0076045D01*
X0197730Y0076045D01*
X0197247Y0075561D01*
X0197247Y0074593D01*
X0197730Y0074110D01*
X0195349Y0073604D02*
X0195349Y0072636D01*
X0195349Y0073120D02*
X0192447Y0073120D01*
X0192447Y0072636D01*
X0193898Y0071625D02*
X0193414Y0071141D01*
X0193414Y0070174D01*
X0193898Y0069690D01*
X0194865Y0069690D01*
X0195349Y0070174D01*
X0195349Y0071141D01*
X0194865Y0071625D01*
X0193898Y0071625D01*
X0198214Y0069668D02*
X0198698Y0070152D01*
X0199182Y0070152D01*
X0199182Y0068217D01*
X0199665Y0068217D02*
X0198698Y0068217D01*
X0198214Y0068700D01*
X0198214Y0069668D01*
X0200149Y0069668D02*
X0200149Y0068700D01*
X0199665Y0068217D01*
X0200149Y0067205D02*
X0198698Y0067205D01*
X0198214Y0066721D01*
X0198214Y0065270D01*
X0200149Y0065270D01*
X0200149Y0064259D02*
X0198214Y0064259D01*
X0200149Y0064259D02*
X0200149Y0062807D01*
X0199665Y0062324D01*
X0198214Y0062324D01*
X0197247Y0061312D02*
X0197247Y0060345D01*
X0197247Y0060828D02*
X0199665Y0060828D01*
X0200149Y0060345D01*
X0200149Y0059861D01*
X0199665Y0059377D01*
X0202047Y0059839D02*
X0202047Y0057904D01*
X0204949Y0057904D01*
X0204949Y0059839D01*
X0204465Y0060850D02*
X0204949Y0061334D01*
X0204949Y0062302D01*
X0204465Y0062785D01*
X0203982Y0062785D01*
X0203498Y0062302D01*
X0203498Y0061334D01*
X0203014Y0060850D01*
X0202530Y0060850D01*
X0202047Y0061334D01*
X0202047Y0062302D01*
X0202530Y0062785D01*
X0202047Y0063797D02*
X0204949Y0063797D01*
X0204949Y0065732D01*
X0203498Y0064764D02*
X0203498Y0063797D01*
X0202047Y0063797D02*
X0202047Y0065732D01*
X0202047Y0069690D02*
X0202047Y0071141D01*
X0202530Y0071625D01*
X0204465Y0071625D01*
X0204949Y0071141D01*
X0204949Y0069690D01*
X0202047Y0069690D01*
X0203498Y0072637D02*
X0203014Y0073120D01*
X0203014Y0074088D01*
X0203498Y0074571D01*
X0203982Y0074571D01*
X0203982Y0072637D01*
X0204465Y0072637D02*
X0203498Y0072637D01*
X0204465Y0072637D02*
X0204949Y0073120D01*
X0204949Y0074088D01*
X0204949Y0075583D02*
X0204949Y0077034D01*
X0204465Y0077518D01*
X0203498Y0077518D01*
X0203014Y0077034D01*
X0203014Y0075583D01*
X0205917Y0075583D01*
X0203014Y0078530D02*
X0203014Y0079497D01*
X0202530Y0079013D02*
X0204465Y0079013D01*
X0204949Y0079497D01*
X0215033Y0083225D02*
X0215033Y0086928D01*
X0215033Y0085076D02*
X0217502Y0085076D01*
X0218717Y0085076D02*
X0221185Y0085076D01*
X0221185Y0085694D02*
X0221185Y0083225D01*
X0222400Y0083225D02*
X0224869Y0083225D01*
X0226083Y0083225D02*
X0228552Y0083225D01*
X0229766Y0083225D02*
X0232235Y0085694D01*
X0232235Y0086311D01*
X0231618Y0086928D01*
X0230383Y0086928D01*
X0229766Y0086311D01*
X0229766Y0083225D02*
X0232235Y0083225D01*
X0226083Y0083225D02*
X0226083Y0086928D01*
X0222400Y0086928D02*
X0222400Y0083225D01*
X0221185Y0085694D02*
X0219951Y0086928D01*
X0218717Y0085694D01*
X0218717Y0083225D01*
X0217502Y0083225D02*
X0217502Y0086928D01*
X0195349Y0078999D02*
X0195349Y0077547D01*
X0192447Y0077547D01*
X0192447Y0078999D01*
X0192930Y0079482D01*
X0193414Y0079482D01*
X0193898Y0078999D01*
X0193898Y0077547D01*
X0193898Y0078999D02*
X0194382Y0079482D01*
X0194865Y0079482D01*
X0195349Y0078999D01*
X0193414Y0068686D02*
X0193414Y0068202D01*
X0194382Y0067235D01*
X0195349Y0067235D02*
X0193414Y0067235D01*
X0193414Y0066238D02*
X0193414Y0065270D01*
X0192930Y0065754D02*
X0194865Y0065754D01*
X0195349Y0066238D01*
X0195349Y0064259D02*
X0193898Y0064259D01*
X0193414Y0063775D01*
X0193414Y0062324D01*
X0195349Y0062324D01*
X0194865Y0061312D02*
X0193898Y0061312D01*
X0193414Y0060828D01*
X0193414Y0059861D01*
X0193898Y0059377D01*
X0194865Y0059377D01*
X0195349Y0059861D01*
X0195349Y0060828D01*
X0194865Y0061312D01*
X0194865Y0058366D02*
X0195349Y0057882D01*
X0195349Y0056914D01*
X0194865Y0056431D01*
X0192930Y0056431D01*
X0192447Y0056914D01*
X0192447Y0057882D01*
X0192930Y0058366D01*
X0193414Y0052480D02*
X0193414Y0051996D01*
X0194382Y0051029D01*
X0195349Y0051029D02*
X0193414Y0051029D01*
X0193898Y0050017D02*
X0193414Y0049533D01*
X0193414Y0048566D01*
X0194382Y0048566D02*
X0194382Y0050017D01*
X0193898Y0050017D02*
X0195349Y0050017D01*
X0195349Y0048566D01*
X0194865Y0048082D01*
X0194382Y0048566D01*
X0194865Y0047071D02*
X0195349Y0046587D01*
X0195349Y0045619D01*
X0194865Y0045136D01*
X0192930Y0045136D01*
X0192447Y0045619D01*
X0192447Y0046587D01*
X0192930Y0047071D01*
X0192447Y0043655D02*
X0191963Y0043655D01*
X0193414Y0043655D02*
X0195349Y0043655D01*
X0195349Y0043171D02*
X0195349Y0044139D01*
X0197247Y0044623D02*
X0197247Y0043655D01*
X0197730Y0043171D01*
X0198214Y0042160D02*
X0200149Y0041192D01*
X0198214Y0040225D01*
X0195349Y0040225D02*
X0192447Y0040225D01*
X0192447Y0041676D01*
X0192930Y0042160D01*
X0193898Y0042160D01*
X0194382Y0041676D01*
X0194382Y0040225D01*
X0193414Y0043171D02*
X0193414Y0043655D01*
X0197247Y0044623D02*
X0197730Y0045106D01*
X0198214Y0045106D01*
X0200149Y0043171D01*
X0200149Y0045106D01*
X0200149Y0046118D02*
X0200149Y0046602D01*
X0199665Y0046602D01*
X0199665Y0046118D01*
X0200149Y0046118D01*
X0200149Y0047591D02*
X0200149Y0049526D01*
X0200149Y0048559D02*
X0197247Y0048559D01*
X0198214Y0047591D01*
X0202047Y0049064D02*
X0204949Y0049064D01*
X0204465Y0048053D02*
X0204949Y0047569D01*
X0204949Y0046118D01*
X0204949Y0045106D02*
X0204949Y0043655D01*
X0204465Y0043171D01*
X0203982Y0043655D01*
X0203982Y0045106D01*
X0203498Y0045106D02*
X0204949Y0045106D01*
X0203498Y0045106D02*
X0203014Y0044623D01*
X0203014Y0043655D01*
X0202047Y0042160D02*
X0204949Y0042160D01*
X0203982Y0041192D01*
X0204949Y0040225D01*
X0202047Y0040225D01*
X0203498Y0046118D02*
X0203014Y0046602D01*
X0203014Y0048053D01*
X0203982Y0047569D02*
X0203982Y0046602D01*
X0203498Y0046118D01*
X0203982Y0047569D02*
X0204465Y0048053D01*
X0203498Y0049064D02*
X0203014Y0049548D01*
X0203014Y0050516D01*
X0203498Y0050999D01*
X0204949Y0050999D01*
X0204465Y0052011D02*
X0204949Y0052495D01*
X0204949Y0053462D01*
X0204465Y0053946D01*
X0202047Y0053946D01*
X0202047Y0052011D02*
X0204465Y0052011D01*
X0198698Y0053484D02*
X0198698Y0055419D01*
X0203498Y0057904D02*
X0203498Y0058871D01*
X0215033Y0058225D02*
X0215033Y0061928D01*
X0215033Y0060076D02*
X0217502Y0060076D01*
X0218717Y0060076D02*
X0221185Y0060076D01*
X0221185Y0060694D02*
X0221185Y0058225D01*
X0222400Y0058225D02*
X0224869Y0058225D01*
X0226083Y0058225D02*
X0228552Y0058225D01*
X0229766Y0058842D02*
X0230383Y0058225D01*
X0231618Y0058225D01*
X0232235Y0058842D01*
X0232235Y0059459D01*
X0231618Y0060076D01*
X0231000Y0060076D01*
X0231618Y0060076D02*
X0232235Y0060694D01*
X0232235Y0061311D01*
X0231618Y0061928D01*
X0230383Y0061928D01*
X0229766Y0061311D01*
X0226083Y0061928D02*
X0226083Y0058225D01*
X0222400Y0058225D02*
X0222400Y0061928D01*
X0221185Y0060694D02*
X0219951Y0061928D01*
X0218717Y0060694D01*
X0218717Y0058225D01*
X0217502Y0058225D02*
X0217502Y0061928D01*
X0221449Y0043928D02*
X0223918Y0040225D01*
X0225132Y0040225D02*
X0226367Y0040225D01*
X0225750Y0040225D02*
X0225750Y0043928D01*
X0226367Y0043928D02*
X0225132Y0043928D01*
X0223918Y0043928D02*
X0221449Y0040225D01*
X0227588Y0040842D02*
X0228205Y0040225D01*
X0229439Y0040225D01*
X0230057Y0040842D01*
X0230057Y0043311D01*
X0229439Y0043928D01*
X0228205Y0043928D01*
X0227588Y0043311D01*
X0227588Y0040842D01*
X0167438Y0048509D02*
X0167438Y0048992D01*
X0166954Y0049476D01*
X0165503Y0049476D01*
X0165503Y0048509D01*
X0165986Y0048025D01*
X0166954Y0048025D01*
X0167438Y0048509D01*
X0166470Y0050444D02*
X0165503Y0049476D01*
X0164491Y0048992D02*
X0164007Y0049476D01*
X0163524Y0049476D01*
X0164007Y0049476D02*
X0164491Y0049960D01*
X0164491Y0050444D01*
X0164007Y0050927D01*
X0163040Y0050927D01*
X0162556Y0050444D01*
X0161545Y0050444D02*
X0161061Y0050927D01*
X0160093Y0050927D01*
X0159610Y0050444D01*
X0159610Y0048509D01*
X0160093Y0048025D01*
X0161061Y0048025D01*
X0161545Y0048509D01*
X0162556Y0048509D02*
X0163040Y0048025D01*
X0164007Y0048025D01*
X0164491Y0048509D01*
X0164491Y0048992D01*
X0166470Y0050444D02*
X0167438Y0050927D01*
X0148277Y0054709D02*
X0147793Y0054225D01*
X0146826Y0054225D01*
X0146342Y0054709D01*
X0146342Y0055676D01*
X0147793Y0055676D01*
X0148277Y0055192D01*
X0148277Y0054709D01*
X0147310Y0056644D02*
X0146342Y0055676D01*
X0145331Y0055192D02*
X0145331Y0054709D01*
X0144847Y0054225D01*
X0143879Y0054225D01*
X0143396Y0054709D01*
X0142384Y0054225D02*
X0141417Y0055192D01*
X0141900Y0055192D02*
X0140449Y0055192D01*
X0140449Y0054225D02*
X0140449Y0057127D01*
X0141900Y0057127D01*
X0142384Y0056644D01*
X0142384Y0055676D01*
X0141900Y0055192D01*
X0143396Y0056644D02*
X0143879Y0057127D01*
X0144847Y0057127D01*
X0145331Y0056644D01*
X0145331Y0056160D01*
X0144847Y0055676D01*
X0145331Y0055192D01*
X0144847Y0055676D02*
X0144363Y0055676D01*
X0147310Y0056644D02*
X0148277Y0057127D01*
X0143000Y0028928D02*
X0143000Y0025225D01*
X0141766Y0025225D02*
X0144235Y0025225D01*
X0141766Y0027694D02*
X0143000Y0028928D01*
X0138438Y0017927D02*
X0136503Y0017927D01*
X0135491Y0017927D02*
X0135491Y0015509D01*
X0135007Y0015025D01*
X0134040Y0015025D01*
X0133556Y0015509D01*
X0133556Y0017927D01*
X0136503Y0015509D02*
X0136503Y0015025D01*
X0136503Y0015509D02*
X0138438Y0017444D01*
X0138438Y0017927D01*
X0114954Y0046225D02*
X0113986Y0046225D01*
X0113503Y0046709D01*
X0113503Y0047676D02*
X0114470Y0048160D01*
X0114954Y0048160D01*
X0115438Y0047676D01*
X0115438Y0046709D01*
X0114954Y0046225D01*
X0113503Y0047676D02*
X0113503Y0049127D01*
X0115438Y0049127D01*
X0112491Y0048644D02*
X0112491Y0048160D01*
X0112007Y0047676D01*
X0112491Y0047192D01*
X0112491Y0046709D01*
X0112007Y0046225D01*
X0111040Y0046225D01*
X0110556Y0046709D01*
X0109545Y0046709D02*
X0109061Y0046225D01*
X0108093Y0046225D01*
X0107610Y0046709D01*
X0107610Y0048644D01*
X0108093Y0049127D01*
X0109061Y0049127D01*
X0109545Y0048644D01*
X0110556Y0048644D02*
X0111040Y0049127D01*
X0112007Y0049127D01*
X0112491Y0048644D01*
X0112007Y0047676D02*
X0111524Y0047676D01*
X0111524Y0053025D02*
X0111524Y0055927D01*
X0110556Y0054960D01*
X0109545Y0055444D02*
X0109061Y0055927D01*
X0108093Y0055927D01*
X0107610Y0055444D01*
X0107610Y0053509D01*
X0108093Y0053025D01*
X0109061Y0053025D01*
X0109545Y0053509D01*
X0110556Y0053025D02*
X0112491Y0053025D01*
X0113503Y0053509D02*
X0113503Y0054476D01*
X0114954Y0054476D01*
X0115438Y0053992D01*
X0115438Y0053509D01*
X0114954Y0053025D01*
X0113986Y0053025D01*
X0113503Y0053509D01*
X0113503Y0054476D02*
X0114470Y0055444D01*
X0115438Y0055927D01*
X0096401Y0073772D02*
X0096401Y0074739D01*
X0095917Y0075223D01*
X0093499Y0075223D01*
X0093982Y0076234D02*
X0093499Y0076718D01*
X0093499Y0077686D01*
X0093982Y0078169D01*
X0094466Y0078169D01*
X0094950Y0077686D01*
X0094950Y0076718D01*
X0094466Y0076234D01*
X0093982Y0076234D01*
X0094950Y0076718D02*
X0095434Y0076234D01*
X0095917Y0076234D01*
X0096401Y0076718D01*
X0096401Y0077686D01*
X0095917Y0078169D01*
X0095434Y0078169D01*
X0094950Y0077686D01*
X0096401Y0073772D02*
X0095917Y0073288D01*
X0093499Y0073288D01*
X0072149Y0081225D02*
X0072149Y0082676D01*
X0071665Y0083160D01*
X0069730Y0083160D01*
X0069247Y0082676D01*
X0069247Y0081225D01*
X0072149Y0081225D01*
X0072149Y0084171D02*
X0072149Y0086106D01*
X0072149Y0085139D02*
X0069247Y0085139D01*
X0070214Y0084171D01*
X0060259Y0084818D02*
X0060259Y0083367D01*
X0057357Y0083367D01*
X0057357Y0084818D01*
X0057841Y0085302D01*
X0059776Y0085302D01*
X0060259Y0084818D01*
X0060259Y0086313D02*
X0058324Y0088248D01*
X0057841Y0088248D01*
X0057357Y0087764D01*
X0057357Y0086797D01*
X0057841Y0086313D01*
X0060259Y0086313D02*
X0060259Y0088248D01*
X0052017Y0094225D02*
X0050782Y0095459D01*
X0051400Y0095459D02*
X0049548Y0095459D01*
X0049548Y0094225D02*
X0049548Y0097928D01*
X0051400Y0097928D01*
X0052017Y0097311D01*
X0052017Y0096076D01*
X0051400Y0095459D01*
X0048334Y0094225D02*
X0045865Y0094225D01*
X0045865Y0097928D01*
X0048334Y0097928D01*
X0047099Y0096076D02*
X0045865Y0096076D01*
X0044651Y0094842D02*
X0044651Y0097311D01*
X0044033Y0097928D01*
X0042182Y0097928D01*
X0042182Y0094225D01*
X0044033Y0094225D01*
X0044651Y0094842D01*
X0040967Y0094842D02*
X0040967Y0097311D01*
X0040350Y0097928D01*
X0039116Y0097928D01*
X0038499Y0097311D01*
X0038499Y0094842D01*
X0039116Y0094225D01*
X0040350Y0094225D01*
X0040967Y0094842D01*
X0037284Y0094842D02*
X0036667Y0094225D01*
X0035433Y0094225D01*
X0034816Y0094842D01*
X0034816Y0097311D01*
X0035433Y0097928D01*
X0036667Y0097928D01*
X0037284Y0097311D01*
X0033601Y0097928D02*
X0033601Y0094225D01*
X0031132Y0097928D01*
X0031132Y0094225D01*
X0029918Y0094225D02*
X0027449Y0094225D01*
X0027449Y0097928D01*
X0029918Y0097928D01*
X0028684Y0096076D02*
X0027449Y0096076D01*
X0017828Y0078038D02*
X0016377Y0078038D01*
X0016377Y0075135D01*
X0017828Y0075135D01*
X0018312Y0075619D01*
X0018312Y0077554D01*
X0017828Y0078038D01*
X0015365Y0078038D02*
X0013430Y0078038D01*
X0013430Y0075135D01*
X0015365Y0075135D01*
X0014398Y0076586D02*
X0013430Y0076586D01*
X0012419Y0075135D02*
X0010484Y0075135D01*
X0010484Y0078038D01*
X0026447Y0065246D02*
X0029349Y0065246D01*
X0029349Y0066213D02*
X0029349Y0064278D01*
X0028865Y0063267D02*
X0029349Y0062783D01*
X0029349Y0061816D01*
X0028865Y0061332D01*
X0027898Y0061816D02*
X0027898Y0062783D01*
X0028382Y0063267D01*
X0028865Y0063267D01*
X0027898Y0061816D02*
X0027414Y0061332D01*
X0026930Y0061332D01*
X0026447Y0061816D01*
X0026447Y0062783D01*
X0026930Y0063267D01*
X0027414Y0064278D02*
X0026447Y0065246D01*
X0037247Y0065139D02*
X0040149Y0065139D01*
X0040149Y0066106D02*
X0040149Y0064171D01*
X0040149Y0063160D02*
X0039182Y0062192D01*
X0039182Y0062676D02*
X0039182Y0061225D01*
X0040149Y0061225D02*
X0037247Y0061225D01*
X0037247Y0062676D01*
X0037730Y0063160D01*
X0038698Y0063160D01*
X0039182Y0062676D01*
X0038214Y0064171D02*
X0037247Y0065139D01*
X0037730Y0067118D02*
X0038214Y0067118D01*
X0038698Y0067602D01*
X0038698Y0068569D01*
X0039182Y0069053D01*
X0039665Y0069053D01*
X0040149Y0068569D01*
X0040149Y0067602D01*
X0039665Y0067118D01*
X0039182Y0067118D01*
X0038698Y0067602D01*
X0038698Y0068569D02*
X0038214Y0069053D01*
X0037730Y0069053D01*
X0037247Y0068569D01*
X0037247Y0067602D01*
X0037730Y0067118D01*
X0046247Y0067118D02*
X0046247Y0069053D01*
X0046730Y0069053D01*
X0048665Y0067118D01*
X0049149Y0067118D01*
X0049149Y0066106D02*
X0049149Y0064171D01*
X0049149Y0065139D02*
X0046247Y0065139D01*
X0047214Y0064171D01*
X0046730Y0063160D02*
X0047698Y0063160D01*
X0048182Y0062676D01*
X0048182Y0061225D01*
X0049149Y0061225D02*
X0046247Y0061225D01*
X0046247Y0062676D01*
X0046730Y0063160D01*
X0048182Y0062192D02*
X0049149Y0063160D01*
X0064247Y0052569D02*
X0065698Y0051118D01*
X0065698Y0053053D01*
X0067149Y0052569D02*
X0064247Y0052569D01*
X0067149Y0050106D02*
X0067149Y0048171D01*
X0067149Y0049139D02*
X0064247Y0049139D01*
X0065214Y0048171D01*
X0064730Y0047160D02*
X0065698Y0047160D01*
X0066182Y0046676D01*
X0066182Y0045225D01*
X0067149Y0045225D02*
X0064247Y0045225D01*
X0064247Y0046676D01*
X0064730Y0047160D01*
X0066182Y0046192D02*
X0067149Y0047160D01*
X0066934Y0039066D02*
X0065083Y0039066D01*
X0065083Y0035363D01*
X0066934Y0035363D01*
X0067552Y0035980D01*
X0067552Y0036597D01*
X0066934Y0037214D01*
X0065083Y0037214D01*
X0066934Y0037214D02*
X0067552Y0037831D01*
X0067552Y0038449D01*
X0066934Y0039066D01*
X0068766Y0037831D02*
X0070000Y0039066D01*
X0071235Y0037831D01*
X0071235Y0035363D01*
X0071235Y0037214D02*
X0068766Y0037214D01*
X0068766Y0037831D02*
X0068766Y0035363D01*
X0073684Y0035363D02*
X0073684Y0039066D01*
X0074918Y0039066D02*
X0072449Y0039066D01*
X0076132Y0039066D02*
X0078601Y0039066D01*
X0077367Y0039066D02*
X0077367Y0035363D01*
X0055671Y0036957D02*
X0055187Y0036473D01*
X0053736Y0036473D01*
X0053736Y0039375D01*
X0055187Y0039375D01*
X0055671Y0038892D01*
X0055671Y0038408D01*
X0055187Y0037924D01*
X0053736Y0037924D01*
X0052724Y0037440D02*
X0052724Y0036957D01*
X0052241Y0036473D01*
X0051273Y0036473D01*
X0050789Y0036957D01*
X0049778Y0036957D02*
X0049778Y0039375D01*
X0050789Y0038892D02*
X0050789Y0038408D01*
X0051273Y0037924D01*
X0052241Y0037924D01*
X0052724Y0037440D01*
X0052724Y0038892D02*
X0052241Y0039375D01*
X0051273Y0039375D01*
X0050789Y0038892D01*
X0049778Y0036957D02*
X0049294Y0036473D01*
X0048327Y0036473D01*
X0047843Y0036957D01*
X0047843Y0039375D01*
X0055187Y0037924D02*
X0055671Y0037440D01*
X0055671Y0036957D01*
X0072449Y0097425D02*
X0074384Y0099360D01*
X0074384Y0099844D01*
X0073900Y0100327D01*
X0072933Y0100327D01*
X0072449Y0099844D01*
X0072449Y0097425D02*
X0074384Y0097425D01*
X0075396Y0097425D02*
X0076363Y0098392D01*
X0076363Y0099360D01*
X0075396Y0100327D01*
X0077360Y0100327D02*
X0078811Y0100327D01*
X0079295Y0099844D01*
X0079295Y0098876D01*
X0078811Y0098392D01*
X0077360Y0098392D01*
X0077360Y0097425D02*
X0077360Y0100327D01*
X0078328Y0098392D02*
X0079295Y0097425D01*
X0083737Y0100327D02*
X0083737Y0100811D01*
X0095039Y0103676D02*
X0096974Y0103676D01*
X0096490Y0102225D02*
X0096490Y0105127D01*
X0095039Y0103676D01*
X0173638Y0177551D02*
X0173638Y0180019D01*
X0173638Y0178785D02*
X0177341Y0178785D01*
X0176107Y0180019D01*
X0231069Y0161667D02*
X0231069Y0160699D01*
X0231553Y0160215D01*
X0231069Y0159204D02*
X0233488Y0159204D01*
X0233971Y0158720D01*
X0233971Y0157753D01*
X0233488Y0157269D01*
X0231069Y0157269D01*
X0233971Y0160215D02*
X0232036Y0162150D01*
X0231553Y0162150D01*
X0231069Y0161667D01*
X0233971Y0162150D02*
X0233971Y0160215D01*
X0233488Y0130150D02*
X0233971Y0129667D01*
X0233971Y0128699D01*
X0233488Y0128215D01*
X0233488Y0127204D02*
X0231069Y0127204D01*
X0231553Y0128215D02*
X0231069Y0128699D01*
X0231069Y0129667D01*
X0231553Y0130150D01*
X0232036Y0130150D01*
X0232520Y0129667D01*
X0233004Y0130150D01*
X0233488Y0130150D01*
X0232520Y0129667D02*
X0232520Y0129183D01*
X0233488Y0127204D02*
X0233971Y0126720D01*
X0233971Y0125753D01*
X0233488Y0125269D01*
X0231069Y0125269D01*
X0240449Y0125928D02*
X0240449Y0122225D01*
X0240449Y0124076D02*
X0242918Y0124076D01*
X0244132Y0124076D02*
X0246601Y0124076D01*
X0246601Y0124694D02*
X0246601Y0122225D01*
X0247816Y0122225D02*
X0250284Y0122225D01*
X0251499Y0122225D02*
X0253967Y0122225D01*
X0255182Y0122225D02*
X0257651Y0122225D01*
X0256416Y0122225D02*
X0256416Y0125928D01*
X0255182Y0124694D01*
X0251499Y0125928D02*
X0251499Y0122225D01*
X0247816Y0122225D02*
X0247816Y0125928D01*
X0246601Y0124694D02*
X0245367Y0125928D01*
X0244132Y0124694D01*
X0244132Y0122225D01*
X0242918Y0122225D02*
X0242918Y0125928D01*
X0243241Y0189752D02*
X0243241Y0193456D01*
X0244476Y0192221D01*
X0245710Y0193456D01*
X0245710Y0189752D01*
X0246924Y0190370D02*
X0247542Y0189752D01*
X0248776Y0189752D01*
X0249393Y0190370D01*
X0249393Y0192838D01*
X0248776Y0193456D01*
X0247542Y0193456D01*
X0246924Y0192838D01*
X0246924Y0190370D01*
X0250608Y0193456D02*
X0253076Y0193456D01*
X0251842Y0193456D02*
X0251842Y0189752D01*
X0254291Y0190370D02*
X0254908Y0189752D01*
X0256142Y0189752D01*
X0256760Y0190370D01*
X0256760Y0192838D01*
X0256142Y0193456D01*
X0254908Y0193456D01*
X0254291Y0192838D01*
X0254291Y0190370D01*
X0257974Y0190987D02*
X0259825Y0190987D01*
X0260443Y0191604D01*
X0260443Y0192838D01*
X0259825Y0193456D01*
X0257974Y0193456D01*
X0257974Y0189752D01*
X0259208Y0190987D02*
X0260443Y0189752D01*
X0233971Y0204753D02*
X0233488Y0204269D01*
X0231069Y0204269D01*
X0231069Y0206204D02*
X0233488Y0206204D01*
X0233971Y0205720D01*
X0233971Y0204753D01*
X0233971Y0207215D02*
X0233971Y0209150D01*
X0233971Y0208183D02*
X0231069Y0208183D01*
X0232036Y0207215D01*
D12*
X0128299Y0111075D02*
X0128299Y0096075D01*
X0071299Y0096075D01*
X0071299Y0111075D01*
X0128299Y0111075D01*
X0104843Y0068406D02*
X0104843Y0043996D01*
X0077283Y0043996D01*
X0077283Y0068406D01*
X0104843Y0068406D01*
X0074646Y0065465D02*
X0074646Y0076685D01*
X0067953Y0076685D02*
X0067953Y0065465D01*
X0065563Y0032760D02*
X0063594Y0032760D01*
X0065563Y0032760D02*
X0065563Y0013075D01*
X0036035Y0013075D02*
X0036035Y0032760D01*
X0038004Y0032760D01*
X0031906Y0044705D02*
X0007299Y0044705D01*
X0007299Y0073445D02*
X0031906Y0073445D01*
X0020811Y0081776D02*
X0020811Y0094374D01*
X0009787Y0094374D02*
X0009787Y0088075D01*
X0016087Y0081776D01*
X0009787Y0081776D02*
X0009787Y0088075D01*
X0066622Y0197575D02*
X0066624Y0197638D01*
X0066630Y0197700D01*
X0066640Y0197762D01*
X0066653Y0197824D01*
X0066671Y0197884D01*
X0066692Y0197943D01*
X0066717Y0198001D01*
X0066746Y0198057D01*
X0066778Y0198111D01*
X0066813Y0198163D01*
X0066851Y0198212D01*
X0066893Y0198260D01*
X0066937Y0198304D01*
X0066985Y0198346D01*
X0067034Y0198384D01*
X0067086Y0198419D01*
X0067140Y0198451D01*
X0067196Y0198480D01*
X0067254Y0198505D01*
X0067313Y0198526D01*
X0067373Y0198544D01*
X0067435Y0198557D01*
X0067497Y0198567D01*
X0067559Y0198573D01*
X0067622Y0198575D01*
X0067685Y0198573D01*
X0067747Y0198567D01*
X0067809Y0198557D01*
X0067871Y0198544D01*
X0067931Y0198526D01*
X0067990Y0198505D01*
X0068048Y0198480D01*
X0068104Y0198451D01*
X0068158Y0198419D01*
X0068210Y0198384D01*
X0068259Y0198346D01*
X0068307Y0198304D01*
X0068351Y0198260D01*
X0068393Y0198212D01*
X0068431Y0198163D01*
X0068466Y0198111D01*
X0068498Y0198057D01*
X0068527Y0198001D01*
X0068552Y0197943D01*
X0068573Y0197884D01*
X0068591Y0197824D01*
X0068604Y0197762D01*
X0068614Y0197700D01*
X0068620Y0197638D01*
X0068622Y0197575D01*
X0068620Y0197512D01*
X0068614Y0197450D01*
X0068604Y0197388D01*
X0068591Y0197326D01*
X0068573Y0197266D01*
X0068552Y0197207D01*
X0068527Y0197149D01*
X0068498Y0197093D01*
X0068466Y0197039D01*
X0068431Y0196987D01*
X0068393Y0196938D01*
X0068351Y0196890D01*
X0068307Y0196846D01*
X0068259Y0196804D01*
X0068210Y0196766D01*
X0068158Y0196731D01*
X0068104Y0196699D01*
X0068048Y0196670D01*
X0067990Y0196645D01*
X0067931Y0196624D01*
X0067871Y0196606D01*
X0067809Y0196593D01*
X0067747Y0196583D01*
X0067685Y0196577D01*
X0067622Y0196575D01*
X0067559Y0196577D01*
X0067497Y0196583D01*
X0067435Y0196593D01*
X0067373Y0196606D01*
X0067313Y0196624D01*
X0067254Y0196645D01*
X0067196Y0196670D01*
X0067140Y0196699D01*
X0067086Y0196731D01*
X0067034Y0196766D01*
X0066985Y0196804D01*
X0066937Y0196846D01*
X0066893Y0196890D01*
X0066851Y0196938D01*
X0066813Y0196987D01*
X0066778Y0197039D01*
X0066746Y0197093D01*
X0066717Y0197149D01*
X0066692Y0197207D01*
X0066671Y0197266D01*
X0066653Y0197326D01*
X0066640Y0197388D01*
X0066630Y0197450D01*
X0066624Y0197512D01*
X0066622Y0197575D01*
X0059524Y0205870D02*
X0059524Y0227524D01*
X0059524Y0230280D01*
X0056768Y0230280D01*
X0045075Y0230280D01*
X0045075Y0205870D01*
X0059524Y0205870D01*
X0093622Y0197575D02*
X0093624Y0197638D01*
X0093630Y0197700D01*
X0093640Y0197762D01*
X0093653Y0197824D01*
X0093671Y0197884D01*
X0093692Y0197943D01*
X0093717Y0198001D01*
X0093746Y0198057D01*
X0093778Y0198111D01*
X0093813Y0198163D01*
X0093851Y0198212D01*
X0093893Y0198260D01*
X0093937Y0198304D01*
X0093985Y0198346D01*
X0094034Y0198384D01*
X0094086Y0198419D01*
X0094140Y0198451D01*
X0094196Y0198480D01*
X0094254Y0198505D01*
X0094313Y0198526D01*
X0094373Y0198544D01*
X0094435Y0198557D01*
X0094497Y0198567D01*
X0094559Y0198573D01*
X0094622Y0198575D01*
X0094685Y0198573D01*
X0094747Y0198567D01*
X0094809Y0198557D01*
X0094871Y0198544D01*
X0094931Y0198526D01*
X0094990Y0198505D01*
X0095048Y0198480D01*
X0095104Y0198451D01*
X0095158Y0198419D01*
X0095210Y0198384D01*
X0095259Y0198346D01*
X0095307Y0198304D01*
X0095351Y0198260D01*
X0095393Y0198212D01*
X0095431Y0198163D01*
X0095466Y0198111D01*
X0095498Y0198057D01*
X0095527Y0198001D01*
X0095552Y0197943D01*
X0095573Y0197884D01*
X0095591Y0197824D01*
X0095604Y0197762D01*
X0095614Y0197700D01*
X0095620Y0197638D01*
X0095622Y0197575D01*
X0095620Y0197512D01*
X0095614Y0197450D01*
X0095604Y0197388D01*
X0095591Y0197326D01*
X0095573Y0197266D01*
X0095552Y0197207D01*
X0095527Y0197149D01*
X0095498Y0197093D01*
X0095466Y0197039D01*
X0095431Y0196987D01*
X0095393Y0196938D01*
X0095351Y0196890D01*
X0095307Y0196846D01*
X0095259Y0196804D01*
X0095210Y0196766D01*
X0095158Y0196731D01*
X0095104Y0196699D01*
X0095048Y0196670D01*
X0094990Y0196645D01*
X0094931Y0196624D01*
X0094871Y0196606D01*
X0094809Y0196593D01*
X0094747Y0196583D01*
X0094685Y0196577D01*
X0094622Y0196575D01*
X0094559Y0196577D01*
X0094497Y0196583D01*
X0094435Y0196593D01*
X0094373Y0196606D01*
X0094313Y0196624D01*
X0094254Y0196645D01*
X0094196Y0196670D01*
X0094140Y0196699D01*
X0094086Y0196731D01*
X0094034Y0196766D01*
X0093985Y0196804D01*
X0093937Y0196846D01*
X0093893Y0196890D01*
X0093851Y0196938D01*
X0093813Y0196987D01*
X0093778Y0197039D01*
X0093746Y0197093D01*
X0093717Y0197149D01*
X0093692Y0197207D01*
X0093671Y0197266D01*
X0093653Y0197326D01*
X0093640Y0197388D01*
X0093630Y0197450D01*
X0093624Y0197512D01*
X0093622Y0197575D01*
X0139807Y0020075D02*
X0180791Y0020075D01*
X0180791Y0013815D01*
X0139807Y0013815D01*
X0139807Y0020075D01*
D13*
X0108665Y0013547D02*
X0108665Y0034610D01*
X0066933Y0034610D01*
X0066933Y0013547D01*
X0108665Y0013547D01*
X0073661Y0068713D02*
X0068937Y0068713D01*
X0071299Y0073437D01*
X0073661Y0068713D01*
X0073661Y0073437D02*
X0071299Y0073437D01*
X0068937Y0073437D01*
X0062252Y0067106D02*
X0056346Y0067106D01*
X0059299Y0070059D01*
X0062252Y0067106D01*
X0047299Y0099575D02*
X0007299Y0099575D01*
X0007299Y0117075D01*
X0047299Y0117075D01*
X0047299Y0099575D01*
X0047299Y0117075D02*
X0047299Y0124575D01*
X0007299Y0124575D01*
X0007299Y0117075D01*
X0007299Y0126575D02*
X0007299Y0144075D01*
X0047299Y0144075D01*
X0047299Y0126575D01*
X0007299Y0126575D01*
X0007299Y0144075D02*
X0007299Y0151575D01*
X0047299Y0151575D01*
X0047299Y0144075D01*
X0037299Y0153575D02*
X0007299Y0153575D01*
X0007299Y0171075D01*
X0037299Y0171075D01*
X0037299Y0153575D01*
X0037299Y0171075D02*
X0037299Y0178575D01*
X0007299Y0178575D01*
X0007299Y0171075D01*
X0007299Y0180575D02*
X0007299Y0198075D01*
X0037299Y0198075D01*
X0037299Y0180575D01*
X0007299Y0180575D01*
X0007299Y0198075D02*
X0007299Y0205575D01*
X0037299Y0205575D01*
X0037299Y0198075D01*
X0187299Y0188390D02*
X0223717Y0188390D01*
X0223717Y0227760D01*
X0187299Y0227760D01*
X0187299Y0188390D01*
X0187299Y0180760D02*
X0223717Y0180760D01*
X0223717Y0141390D01*
X0187299Y0141390D01*
X0187299Y0180760D01*
X0187299Y0133760D02*
X0223717Y0133760D01*
X0223717Y0094390D01*
X0187299Y0094390D01*
X0187299Y0133760D01*
X0233299Y0120575D02*
X0233299Y0103075D01*
X0263299Y0103075D01*
X0263299Y0095575D01*
X0233299Y0095575D01*
X0233299Y0103075D01*
X0233299Y0093575D02*
X0263299Y0093575D01*
X0263299Y0076075D01*
X0233299Y0076075D01*
X0233299Y0093575D01*
X0233299Y0076075D02*
X0233299Y0068575D01*
X0263299Y0068575D01*
X0263299Y0076075D01*
X0263299Y0066575D02*
X0263299Y0049075D01*
X0233299Y0049075D01*
X0233299Y0066575D01*
X0263299Y0066575D01*
X0263299Y0049075D02*
X0263299Y0041575D01*
X0233299Y0041575D01*
X0233299Y0049075D01*
X0231299Y0038575D02*
X0231299Y0021075D01*
X0191299Y0021075D01*
X0191299Y0038575D01*
X0231299Y0038575D01*
X0231299Y0021075D02*
X0231299Y0013575D01*
X0191299Y0013575D01*
X0191299Y0021075D01*
X0263299Y0103075D02*
X0263299Y0120575D01*
X0233299Y0120575D01*
X0241764Y0133319D02*
X0241764Y0188831D01*
X0262827Y0188831D01*
X0262827Y0133319D01*
X0241764Y0133319D01*
D14*
X0240941Y0172554D02*
X0237872Y0172554D01*
X0239406Y0172554D02*
X0239406Y0177158D01*
X0237872Y0175624D01*
X0096993Y0036968D02*
X0095458Y0038502D01*
X0096993Y0036968D02*
X0092389Y0036968D01*
X0092389Y0038502D02*
X0092389Y0035433D01*
D15*
X0109799Y0032075D02*
X0109804Y0032468D01*
X0109818Y0032860D01*
X0109842Y0033252D01*
X0109876Y0033643D01*
X0109919Y0034034D01*
X0109972Y0034423D01*
X0110035Y0034810D01*
X0110106Y0035196D01*
X0110188Y0035581D01*
X0110278Y0035963D01*
X0110379Y0036342D01*
X0110488Y0036720D01*
X0110607Y0037094D01*
X0110734Y0037465D01*
X0110871Y0037833D01*
X0111017Y0038198D01*
X0111172Y0038559D01*
X0111335Y0038916D01*
X0111507Y0039269D01*
X0111688Y0039617D01*
X0111878Y0039961D01*
X0112075Y0040301D01*
X0112281Y0040635D01*
X0112495Y0040964D01*
X0112718Y0041288D01*
X0112948Y0041606D01*
X0113185Y0041919D01*
X0113431Y0042225D01*
X0113684Y0042526D01*
X0113944Y0042820D01*
X0114211Y0043108D01*
X0114485Y0043389D01*
X0114766Y0043663D01*
X0115054Y0043930D01*
X0115348Y0044190D01*
X0115649Y0044443D01*
X0115955Y0044689D01*
X0116268Y0044926D01*
X0116586Y0045156D01*
X0116910Y0045379D01*
X0117239Y0045593D01*
X0117573Y0045799D01*
X0117913Y0045996D01*
X0118257Y0046186D01*
X0118605Y0046367D01*
X0118958Y0046539D01*
X0119315Y0046702D01*
X0119676Y0046857D01*
X0120041Y0047003D01*
X0120409Y0047140D01*
X0120780Y0047267D01*
X0121154Y0047386D01*
X0121532Y0047495D01*
X0121911Y0047596D01*
X0122293Y0047686D01*
X0122678Y0047768D01*
X0123064Y0047839D01*
X0123451Y0047902D01*
X0123840Y0047955D01*
X0124231Y0047998D01*
X0124622Y0048032D01*
X0125014Y0048056D01*
X0125406Y0048070D01*
X0125799Y0048075D01*
X0126192Y0048070D01*
X0126584Y0048056D01*
X0126976Y0048032D01*
X0127367Y0047998D01*
X0127758Y0047955D01*
X0128147Y0047902D01*
X0128534Y0047839D01*
X0128920Y0047768D01*
X0129305Y0047686D01*
X0129687Y0047596D01*
X0130066Y0047495D01*
X0130444Y0047386D01*
X0130818Y0047267D01*
X0131189Y0047140D01*
X0131557Y0047003D01*
X0131922Y0046857D01*
X0132283Y0046702D01*
X0132640Y0046539D01*
X0132993Y0046367D01*
X0133341Y0046186D01*
X0133685Y0045996D01*
X0134025Y0045799D01*
X0134359Y0045593D01*
X0134688Y0045379D01*
X0135012Y0045156D01*
X0135330Y0044926D01*
X0135643Y0044689D01*
X0135949Y0044443D01*
X0136250Y0044190D01*
X0136544Y0043930D01*
X0136832Y0043663D01*
X0137113Y0043389D01*
X0137387Y0043108D01*
X0137654Y0042820D01*
X0137914Y0042526D01*
X0138167Y0042225D01*
X0138413Y0041919D01*
X0138650Y0041606D01*
X0138880Y0041288D01*
X0139103Y0040964D01*
X0139317Y0040635D01*
X0139523Y0040301D01*
X0139720Y0039961D01*
X0139910Y0039617D01*
X0140091Y0039269D01*
X0140263Y0038916D01*
X0140426Y0038559D01*
X0140581Y0038198D01*
X0140727Y0037833D01*
X0140864Y0037465D01*
X0140991Y0037094D01*
X0141110Y0036720D01*
X0141219Y0036342D01*
X0141320Y0035963D01*
X0141410Y0035581D01*
X0141492Y0035196D01*
X0141563Y0034810D01*
X0141626Y0034423D01*
X0141679Y0034034D01*
X0141722Y0033643D01*
X0141756Y0033252D01*
X0141780Y0032860D01*
X0141794Y0032468D01*
X0141799Y0032075D01*
X0141794Y0031682D01*
X0141780Y0031290D01*
X0141756Y0030898D01*
X0141722Y0030507D01*
X0141679Y0030116D01*
X0141626Y0029727D01*
X0141563Y0029340D01*
X0141492Y0028954D01*
X0141410Y0028569D01*
X0141320Y0028187D01*
X0141219Y0027808D01*
X0141110Y0027430D01*
X0140991Y0027056D01*
X0140864Y0026685D01*
X0140727Y0026317D01*
X0140581Y0025952D01*
X0140426Y0025591D01*
X0140263Y0025234D01*
X0140091Y0024881D01*
X0139910Y0024533D01*
X0139720Y0024189D01*
X0139523Y0023849D01*
X0139317Y0023515D01*
X0139103Y0023186D01*
X0138880Y0022862D01*
X0138650Y0022544D01*
X0138413Y0022231D01*
X0138167Y0021925D01*
X0137914Y0021624D01*
X0137654Y0021330D01*
X0137387Y0021042D01*
X0137113Y0020761D01*
X0136832Y0020487D01*
X0136544Y0020220D01*
X0136250Y0019960D01*
X0135949Y0019707D01*
X0135643Y0019461D01*
X0135330Y0019224D01*
X0135012Y0018994D01*
X0134688Y0018771D01*
X0134359Y0018557D01*
X0134025Y0018351D01*
X0133685Y0018154D01*
X0133341Y0017964D01*
X0132993Y0017783D01*
X0132640Y0017611D01*
X0132283Y0017448D01*
X0131922Y0017293D01*
X0131557Y0017147D01*
X0131189Y0017010D01*
X0130818Y0016883D01*
X0130444Y0016764D01*
X0130066Y0016655D01*
X0129687Y0016554D01*
X0129305Y0016464D01*
X0128920Y0016382D01*
X0128534Y0016311D01*
X0128147Y0016248D01*
X0127758Y0016195D01*
X0127367Y0016152D01*
X0126976Y0016118D01*
X0126584Y0016094D01*
X0126192Y0016080D01*
X0125799Y0016075D01*
X0125406Y0016080D01*
X0125014Y0016094D01*
X0124622Y0016118D01*
X0124231Y0016152D01*
X0123840Y0016195D01*
X0123451Y0016248D01*
X0123064Y0016311D01*
X0122678Y0016382D01*
X0122293Y0016464D01*
X0121911Y0016554D01*
X0121532Y0016655D01*
X0121154Y0016764D01*
X0120780Y0016883D01*
X0120409Y0017010D01*
X0120041Y0017147D01*
X0119676Y0017293D01*
X0119315Y0017448D01*
X0118958Y0017611D01*
X0118605Y0017783D01*
X0118257Y0017964D01*
X0117913Y0018154D01*
X0117573Y0018351D01*
X0117239Y0018557D01*
X0116910Y0018771D01*
X0116586Y0018994D01*
X0116268Y0019224D01*
X0115955Y0019461D01*
X0115649Y0019707D01*
X0115348Y0019960D01*
X0115054Y0020220D01*
X0114766Y0020487D01*
X0114485Y0020761D01*
X0114211Y0021042D01*
X0113944Y0021330D01*
X0113684Y0021624D01*
X0113431Y0021925D01*
X0113185Y0022231D01*
X0112948Y0022544D01*
X0112718Y0022862D01*
X0112495Y0023186D01*
X0112281Y0023515D01*
X0112075Y0023849D01*
X0111878Y0024189D01*
X0111688Y0024533D01*
X0111507Y0024881D01*
X0111335Y0025234D01*
X0111172Y0025591D01*
X0111017Y0025952D01*
X0110871Y0026317D01*
X0110734Y0026685D01*
X0110607Y0027056D01*
X0110488Y0027430D01*
X0110379Y0027808D01*
X0110278Y0028187D01*
X0110188Y0028569D01*
X0110106Y0028954D01*
X0110035Y0029340D01*
X0109972Y0029727D01*
X0109919Y0030116D01*
X0109876Y0030507D01*
X0109842Y0030898D01*
X0109818Y0031290D01*
X0109804Y0031682D01*
X0109799Y0032075D01*
X0136299Y0027575D02*
X0139299Y0027575D01*
X0137799Y0029075D02*
X0137799Y0026075D01*
X0173799Y0063575D02*
X0176799Y0063575D01*
X0175299Y0065075D02*
X0175299Y0062075D01*
X0147299Y0068075D02*
X0147304Y0068468D01*
X0147318Y0068860D01*
X0147342Y0069252D01*
X0147376Y0069643D01*
X0147419Y0070034D01*
X0147472Y0070423D01*
X0147535Y0070810D01*
X0147606Y0071196D01*
X0147688Y0071581D01*
X0147778Y0071963D01*
X0147879Y0072342D01*
X0147988Y0072720D01*
X0148107Y0073094D01*
X0148234Y0073465D01*
X0148371Y0073833D01*
X0148517Y0074198D01*
X0148672Y0074559D01*
X0148835Y0074916D01*
X0149007Y0075269D01*
X0149188Y0075617D01*
X0149378Y0075961D01*
X0149575Y0076301D01*
X0149781Y0076635D01*
X0149995Y0076964D01*
X0150218Y0077288D01*
X0150448Y0077606D01*
X0150685Y0077919D01*
X0150931Y0078225D01*
X0151184Y0078526D01*
X0151444Y0078820D01*
X0151711Y0079108D01*
X0151985Y0079389D01*
X0152266Y0079663D01*
X0152554Y0079930D01*
X0152848Y0080190D01*
X0153149Y0080443D01*
X0153455Y0080689D01*
X0153768Y0080926D01*
X0154086Y0081156D01*
X0154410Y0081379D01*
X0154739Y0081593D01*
X0155073Y0081799D01*
X0155413Y0081996D01*
X0155757Y0082186D01*
X0156105Y0082367D01*
X0156458Y0082539D01*
X0156815Y0082702D01*
X0157176Y0082857D01*
X0157541Y0083003D01*
X0157909Y0083140D01*
X0158280Y0083267D01*
X0158654Y0083386D01*
X0159032Y0083495D01*
X0159411Y0083596D01*
X0159793Y0083686D01*
X0160178Y0083768D01*
X0160564Y0083839D01*
X0160951Y0083902D01*
X0161340Y0083955D01*
X0161731Y0083998D01*
X0162122Y0084032D01*
X0162514Y0084056D01*
X0162906Y0084070D01*
X0163299Y0084075D01*
X0163692Y0084070D01*
X0164084Y0084056D01*
X0164476Y0084032D01*
X0164867Y0083998D01*
X0165258Y0083955D01*
X0165647Y0083902D01*
X0166034Y0083839D01*
X0166420Y0083768D01*
X0166805Y0083686D01*
X0167187Y0083596D01*
X0167566Y0083495D01*
X0167944Y0083386D01*
X0168318Y0083267D01*
X0168689Y0083140D01*
X0169057Y0083003D01*
X0169422Y0082857D01*
X0169783Y0082702D01*
X0170140Y0082539D01*
X0170493Y0082367D01*
X0170841Y0082186D01*
X0171185Y0081996D01*
X0171525Y0081799D01*
X0171859Y0081593D01*
X0172188Y0081379D01*
X0172512Y0081156D01*
X0172830Y0080926D01*
X0173143Y0080689D01*
X0173449Y0080443D01*
X0173750Y0080190D01*
X0174044Y0079930D01*
X0174332Y0079663D01*
X0174613Y0079389D01*
X0174887Y0079108D01*
X0175154Y0078820D01*
X0175414Y0078526D01*
X0175667Y0078225D01*
X0175913Y0077919D01*
X0176150Y0077606D01*
X0176380Y0077288D01*
X0176603Y0076964D01*
X0176817Y0076635D01*
X0177023Y0076301D01*
X0177220Y0075961D01*
X0177410Y0075617D01*
X0177591Y0075269D01*
X0177763Y0074916D01*
X0177926Y0074559D01*
X0178081Y0074198D01*
X0178227Y0073833D01*
X0178364Y0073465D01*
X0178491Y0073094D01*
X0178610Y0072720D01*
X0178719Y0072342D01*
X0178820Y0071963D01*
X0178910Y0071581D01*
X0178992Y0071196D01*
X0179063Y0070810D01*
X0179126Y0070423D01*
X0179179Y0070034D01*
X0179222Y0069643D01*
X0179256Y0069252D01*
X0179280Y0068860D01*
X0179294Y0068468D01*
X0179299Y0068075D01*
X0179294Y0067682D01*
X0179280Y0067290D01*
X0179256Y0066898D01*
X0179222Y0066507D01*
X0179179Y0066116D01*
X0179126Y0065727D01*
X0179063Y0065340D01*
X0178992Y0064954D01*
X0178910Y0064569D01*
X0178820Y0064187D01*
X0178719Y0063808D01*
X0178610Y0063430D01*
X0178491Y0063056D01*
X0178364Y0062685D01*
X0178227Y0062317D01*
X0178081Y0061952D01*
X0177926Y0061591D01*
X0177763Y0061234D01*
X0177591Y0060881D01*
X0177410Y0060533D01*
X0177220Y0060189D01*
X0177023Y0059849D01*
X0176817Y0059515D01*
X0176603Y0059186D01*
X0176380Y0058862D01*
X0176150Y0058544D01*
X0175913Y0058231D01*
X0175667Y0057925D01*
X0175414Y0057624D01*
X0175154Y0057330D01*
X0174887Y0057042D01*
X0174613Y0056761D01*
X0174332Y0056487D01*
X0174044Y0056220D01*
X0173750Y0055960D01*
X0173449Y0055707D01*
X0173143Y0055461D01*
X0172830Y0055224D01*
X0172512Y0054994D01*
X0172188Y0054771D01*
X0171859Y0054557D01*
X0171525Y0054351D01*
X0171185Y0054154D01*
X0170841Y0053964D01*
X0170493Y0053783D01*
X0170140Y0053611D01*
X0169783Y0053448D01*
X0169422Y0053293D01*
X0169057Y0053147D01*
X0168689Y0053010D01*
X0168318Y0052883D01*
X0167944Y0052764D01*
X0167566Y0052655D01*
X0167187Y0052554D01*
X0166805Y0052464D01*
X0166420Y0052382D01*
X0166034Y0052311D01*
X0165647Y0052248D01*
X0165258Y0052195D01*
X0164867Y0052152D01*
X0164476Y0052118D01*
X0164084Y0052094D01*
X0163692Y0052080D01*
X0163299Y0052075D01*
X0162906Y0052080D01*
X0162514Y0052094D01*
X0162122Y0052118D01*
X0161731Y0052152D01*
X0161340Y0052195D01*
X0160951Y0052248D01*
X0160564Y0052311D01*
X0160178Y0052382D01*
X0159793Y0052464D01*
X0159411Y0052554D01*
X0159032Y0052655D01*
X0158654Y0052764D01*
X0158280Y0052883D01*
X0157909Y0053010D01*
X0157541Y0053147D01*
X0157176Y0053293D01*
X0156815Y0053448D01*
X0156458Y0053611D01*
X0156105Y0053783D01*
X0155757Y0053964D01*
X0155413Y0054154D01*
X0155073Y0054351D01*
X0154739Y0054557D01*
X0154410Y0054771D01*
X0154086Y0054994D01*
X0153768Y0055224D01*
X0153455Y0055461D01*
X0153149Y0055707D01*
X0152848Y0055960D01*
X0152554Y0056220D01*
X0152266Y0056487D01*
X0151985Y0056761D01*
X0151711Y0057042D01*
X0151444Y0057330D01*
X0151184Y0057624D01*
X0150931Y0057925D01*
X0150685Y0058231D01*
X0150448Y0058544D01*
X0150218Y0058862D01*
X0149995Y0059186D01*
X0149781Y0059515D01*
X0149575Y0059849D01*
X0149378Y0060189D01*
X0149188Y0060533D01*
X0149007Y0060881D01*
X0148835Y0061234D01*
X0148672Y0061591D01*
X0148517Y0061952D01*
X0148371Y0062317D01*
X0148234Y0062685D01*
X0148107Y0063056D01*
X0147988Y0063430D01*
X0147879Y0063808D01*
X0147778Y0064187D01*
X0147688Y0064569D01*
X0147606Y0064954D01*
X0147535Y0065340D01*
X0147472Y0065727D01*
X0147419Y0066116D01*
X0147376Y0066507D01*
X0147342Y0066898D01*
X0147318Y0067290D01*
X0147304Y0067682D01*
X0147299Y0068075D01*
X0130799Y0075075D02*
X0130799Y0077575D01*
X0126299Y0077575D01*
X0121799Y0077575D01*
X0121799Y0075075D01*
X0130799Y0075075D01*
X0106299Y0074075D02*
X0106305Y0074566D01*
X0106323Y0075056D01*
X0106353Y0075546D01*
X0106395Y0076035D01*
X0106449Y0076523D01*
X0106515Y0077010D01*
X0106593Y0077494D01*
X0106683Y0077977D01*
X0106785Y0078457D01*
X0106898Y0078935D01*
X0107023Y0079409D01*
X0107160Y0079881D01*
X0107308Y0080349D01*
X0107468Y0080813D01*
X0107639Y0081273D01*
X0107821Y0081729D01*
X0108015Y0082180D01*
X0108219Y0082626D01*
X0108435Y0083067D01*
X0108661Y0083503D01*
X0108897Y0083933D01*
X0109144Y0084357D01*
X0109402Y0084775D01*
X0109670Y0085186D01*
X0109947Y0085591D01*
X0110235Y0085989D01*
X0110532Y0086380D01*
X0110839Y0086763D01*
X0111155Y0087138D01*
X0111480Y0087506D01*
X0111814Y0087866D01*
X0112157Y0088217D01*
X0112508Y0088560D01*
X0112868Y0088894D01*
X0113236Y0089219D01*
X0113611Y0089535D01*
X0113994Y0089842D01*
X0114385Y0090139D01*
X0114783Y0090427D01*
X0115188Y0090704D01*
X0115599Y0090972D01*
X0116017Y0091230D01*
X0116441Y0091477D01*
X0116871Y0091713D01*
X0117307Y0091939D01*
X0117748Y0092155D01*
X0118194Y0092359D01*
X0118645Y0092553D01*
X0119101Y0092735D01*
X0119561Y0092906D01*
X0120025Y0093066D01*
X0120493Y0093214D01*
X0120965Y0093351D01*
X0121439Y0093476D01*
X0121917Y0093589D01*
X0122397Y0093691D01*
X0122880Y0093781D01*
X0123364Y0093859D01*
X0123851Y0093925D01*
X0124339Y0093979D01*
X0124828Y0094021D01*
X0125318Y0094051D01*
X0125808Y0094069D01*
X0126299Y0094075D01*
X0126790Y0094069D01*
X0127280Y0094051D01*
X0127770Y0094021D01*
X0128259Y0093979D01*
X0128747Y0093925D01*
X0129234Y0093859D01*
X0129718Y0093781D01*
X0130201Y0093691D01*
X0130681Y0093589D01*
X0131159Y0093476D01*
X0131633Y0093351D01*
X0132105Y0093214D01*
X0132573Y0093066D01*
X0133037Y0092906D01*
X0133497Y0092735D01*
X0133953Y0092553D01*
X0134404Y0092359D01*
X0134850Y0092155D01*
X0135291Y0091939D01*
X0135727Y0091713D01*
X0136157Y0091477D01*
X0136581Y0091230D01*
X0136999Y0090972D01*
X0137410Y0090704D01*
X0137815Y0090427D01*
X0138213Y0090139D01*
X0138604Y0089842D01*
X0138987Y0089535D01*
X0139362Y0089219D01*
X0139730Y0088894D01*
X0140090Y0088560D01*
X0140441Y0088217D01*
X0140784Y0087866D01*
X0141118Y0087506D01*
X0141443Y0087138D01*
X0141759Y0086763D01*
X0142066Y0086380D01*
X0142363Y0085989D01*
X0142651Y0085591D01*
X0142928Y0085186D01*
X0143196Y0084775D01*
X0143454Y0084357D01*
X0143701Y0083933D01*
X0143937Y0083503D01*
X0144163Y0083067D01*
X0144379Y0082626D01*
X0144583Y0082180D01*
X0144777Y0081729D01*
X0144959Y0081273D01*
X0145130Y0080813D01*
X0145290Y0080349D01*
X0145438Y0079881D01*
X0145575Y0079409D01*
X0145700Y0078935D01*
X0145813Y0078457D01*
X0145915Y0077977D01*
X0146005Y0077494D01*
X0146083Y0077010D01*
X0146149Y0076523D01*
X0146203Y0076035D01*
X0146245Y0075546D01*
X0146275Y0075056D01*
X0146293Y0074566D01*
X0146299Y0074075D01*
X0146293Y0073584D01*
X0146275Y0073094D01*
X0146245Y0072604D01*
X0146203Y0072115D01*
X0146149Y0071627D01*
X0146083Y0071140D01*
X0146005Y0070656D01*
X0145915Y0070173D01*
X0145813Y0069693D01*
X0145700Y0069215D01*
X0145575Y0068741D01*
X0145438Y0068269D01*
X0145290Y0067801D01*
X0145130Y0067337D01*
X0144959Y0066877D01*
X0144777Y0066421D01*
X0144583Y0065970D01*
X0144379Y0065524D01*
X0144163Y0065083D01*
X0143937Y0064647D01*
X0143701Y0064217D01*
X0143454Y0063793D01*
X0143196Y0063375D01*
X0142928Y0062964D01*
X0142651Y0062559D01*
X0142363Y0062161D01*
X0142066Y0061770D01*
X0141759Y0061387D01*
X0141443Y0061012D01*
X0141118Y0060644D01*
X0140784Y0060284D01*
X0140441Y0059933D01*
X0140090Y0059590D01*
X0139730Y0059256D01*
X0139362Y0058931D01*
X0138987Y0058615D01*
X0138604Y0058308D01*
X0138213Y0058011D01*
X0137815Y0057723D01*
X0137410Y0057446D01*
X0136999Y0057178D01*
X0136581Y0056920D01*
X0136157Y0056673D01*
X0135727Y0056437D01*
X0135291Y0056211D01*
X0134850Y0055995D01*
X0134404Y0055791D01*
X0133953Y0055597D01*
X0133497Y0055415D01*
X0133037Y0055244D01*
X0132573Y0055084D01*
X0132105Y0054936D01*
X0131633Y0054799D01*
X0131159Y0054674D01*
X0130681Y0054561D01*
X0130201Y0054459D01*
X0129718Y0054369D01*
X0129234Y0054291D01*
X0128747Y0054225D01*
X0128259Y0054171D01*
X0127770Y0054129D01*
X0127280Y0054099D01*
X0126790Y0054081D01*
X0126299Y0054075D01*
X0125808Y0054081D01*
X0125318Y0054099D01*
X0124828Y0054129D01*
X0124339Y0054171D01*
X0123851Y0054225D01*
X0123364Y0054291D01*
X0122880Y0054369D01*
X0122397Y0054459D01*
X0121917Y0054561D01*
X0121439Y0054674D01*
X0120965Y0054799D01*
X0120493Y0054936D01*
X0120025Y0055084D01*
X0119561Y0055244D01*
X0119101Y0055415D01*
X0118645Y0055597D01*
X0118194Y0055791D01*
X0117748Y0055995D01*
X0117307Y0056211D01*
X0116871Y0056437D01*
X0116441Y0056673D01*
X0116017Y0056920D01*
X0115599Y0057178D01*
X0115188Y0057446D01*
X0114783Y0057723D01*
X0114385Y0058011D01*
X0113994Y0058308D01*
X0113611Y0058615D01*
X0113236Y0058931D01*
X0112868Y0059256D01*
X0112508Y0059590D01*
X0112157Y0059933D01*
X0111814Y0060284D01*
X0111480Y0060644D01*
X0111155Y0061012D01*
X0110839Y0061387D01*
X0110532Y0061770D01*
X0110235Y0062161D01*
X0109947Y0062559D01*
X0109670Y0062964D01*
X0109402Y0063375D01*
X0109144Y0063793D01*
X0108897Y0064217D01*
X0108661Y0064647D01*
X0108435Y0065083D01*
X0108219Y0065524D01*
X0108015Y0065970D01*
X0107821Y0066421D01*
X0107639Y0066877D01*
X0107468Y0067337D01*
X0107308Y0067801D01*
X0107160Y0068269D01*
X0107023Y0068741D01*
X0106898Y0069215D01*
X0106785Y0069693D01*
X0106683Y0070173D01*
X0106593Y0070656D01*
X0106515Y0071140D01*
X0106449Y0071627D01*
X0106395Y0072115D01*
X0106353Y0072604D01*
X0106323Y0073094D01*
X0106305Y0073584D01*
X0106299Y0074075D01*
X0126299Y0071575D02*
X0126299Y0069575D01*
X0126299Y0077575D02*
X0126299Y0078575D01*
X0131299Y0087575D02*
X0131299Y0090575D01*
X0132799Y0089075D02*
X0129799Y0089075D01*
X0009579Y0026854D02*
X0009582Y0027136D01*
X0009593Y0027418D01*
X0009610Y0027700D01*
X0009634Y0027981D01*
X0009665Y0028262D01*
X0009703Y0028541D01*
X0009748Y0028820D01*
X0009800Y0029098D01*
X0009858Y0029374D01*
X0009924Y0029648D01*
X0009996Y0029921D01*
X0010074Y0030192D01*
X0010159Y0030461D01*
X0010251Y0030728D01*
X0010350Y0030993D01*
X0010454Y0031255D01*
X0010566Y0031514D01*
X0010683Y0031771D01*
X0010807Y0032025D01*
X0010937Y0032275D01*
X0011073Y0032522D01*
X0011215Y0032766D01*
X0011363Y0033006D01*
X0011517Y0033243D01*
X0011677Y0033476D01*
X0011842Y0033705D01*
X0012013Y0033929D01*
X0012189Y0034150D01*
X0012371Y0034365D01*
X0012558Y0034577D01*
X0012750Y0034784D01*
X0012947Y0034986D01*
X0013149Y0035183D01*
X0013356Y0035375D01*
X0013568Y0035562D01*
X0013783Y0035744D01*
X0014004Y0035920D01*
X0014228Y0036091D01*
X0014457Y0036256D01*
X0014690Y0036416D01*
X0014927Y0036570D01*
X0015167Y0036718D01*
X0015411Y0036860D01*
X0015658Y0036996D01*
X0015908Y0037126D01*
X0016162Y0037250D01*
X0016419Y0037367D01*
X0016678Y0037479D01*
X0016940Y0037583D01*
X0017205Y0037682D01*
X0017472Y0037774D01*
X0017741Y0037859D01*
X0018012Y0037937D01*
X0018285Y0038009D01*
X0018559Y0038075D01*
X0018835Y0038133D01*
X0019113Y0038185D01*
X0019392Y0038230D01*
X0019671Y0038268D01*
X0019952Y0038299D01*
X0020233Y0038323D01*
X0020515Y0038340D01*
X0020797Y0038351D01*
X0021079Y0038354D01*
X0021361Y0038351D01*
X0021643Y0038340D01*
X0021925Y0038323D01*
X0022206Y0038299D01*
X0022487Y0038268D01*
X0022766Y0038230D01*
X0023045Y0038185D01*
X0023323Y0038133D01*
X0023599Y0038075D01*
X0023873Y0038009D01*
X0024146Y0037937D01*
X0024417Y0037859D01*
X0024686Y0037774D01*
X0024953Y0037682D01*
X0025218Y0037583D01*
X0025480Y0037479D01*
X0025739Y0037367D01*
X0025996Y0037250D01*
X0026250Y0037126D01*
X0026500Y0036996D01*
X0026747Y0036860D01*
X0026991Y0036718D01*
X0027231Y0036570D01*
X0027468Y0036416D01*
X0027701Y0036256D01*
X0027930Y0036091D01*
X0028154Y0035920D01*
X0028375Y0035744D01*
X0028590Y0035562D01*
X0028802Y0035375D01*
X0029009Y0035183D01*
X0029211Y0034986D01*
X0029408Y0034784D01*
X0029600Y0034577D01*
X0029787Y0034365D01*
X0029969Y0034150D01*
X0030145Y0033929D01*
X0030316Y0033705D01*
X0030481Y0033476D01*
X0030641Y0033243D01*
X0030795Y0033006D01*
X0030943Y0032766D01*
X0031085Y0032522D01*
X0031221Y0032275D01*
X0031351Y0032025D01*
X0031475Y0031771D01*
X0031592Y0031514D01*
X0031704Y0031255D01*
X0031808Y0030993D01*
X0031907Y0030728D01*
X0031999Y0030461D01*
X0032084Y0030192D01*
X0032162Y0029921D01*
X0032234Y0029648D01*
X0032300Y0029374D01*
X0032358Y0029098D01*
X0032410Y0028820D01*
X0032455Y0028541D01*
X0032493Y0028262D01*
X0032524Y0027981D01*
X0032548Y0027700D01*
X0032565Y0027418D01*
X0032576Y0027136D01*
X0032579Y0026854D01*
X0032576Y0026572D01*
X0032565Y0026290D01*
X0032548Y0026008D01*
X0032524Y0025727D01*
X0032493Y0025446D01*
X0032455Y0025167D01*
X0032410Y0024888D01*
X0032358Y0024610D01*
X0032300Y0024334D01*
X0032234Y0024060D01*
X0032162Y0023787D01*
X0032084Y0023516D01*
X0031999Y0023247D01*
X0031907Y0022980D01*
X0031808Y0022715D01*
X0031704Y0022453D01*
X0031592Y0022194D01*
X0031475Y0021937D01*
X0031351Y0021683D01*
X0031221Y0021433D01*
X0031085Y0021186D01*
X0030943Y0020942D01*
X0030795Y0020702D01*
X0030641Y0020465D01*
X0030481Y0020232D01*
X0030316Y0020003D01*
X0030145Y0019779D01*
X0029969Y0019558D01*
X0029787Y0019343D01*
X0029600Y0019131D01*
X0029408Y0018924D01*
X0029211Y0018722D01*
X0029009Y0018525D01*
X0028802Y0018333D01*
X0028590Y0018146D01*
X0028375Y0017964D01*
X0028154Y0017788D01*
X0027930Y0017617D01*
X0027701Y0017452D01*
X0027468Y0017292D01*
X0027231Y0017138D01*
X0026991Y0016990D01*
X0026747Y0016848D01*
X0026500Y0016712D01*
X0026250Y0016582D01*
X0025996Y0016458D01*
X0025739Y0016341D01*
X0025480Y0016229D01*
X0025218Y0016125D01*
X0024953Y0016026D01*
X0024686Y0015934D01*
X0024417Y0015849D01*
X0024146Y0015771D01*
X0023873Y0015699D01*
X0023599Y0015633D01*
X0023323Y0015575D01*
X0023045Y0015523D01*
X0022766Y0015478D01*
X0022487Y0015440D01*
X0022206Y0015409D01*
X0021925Y0015385D01*
X0021643Y0015368D01*
X0021361Y0015357D01*
X0021079Y0015354D01*
X0020797Y0015357D01*
X0020515Y0015368D01*
X0020233Y0015385D01*
X0019952Y0015409D01*
X0019671Y0015440D01*
X0019392Y0015478D01*
X0019113Y0015523D01*
X0018835Y0015575D01*
X0018559Y0015633D01*
X0018285Y0015699D01*
X0018012Y0015771D01*
X0017741Y0015849D01*
X0017472Y0015934D01*
X0017205Y0016026D01*
X0016940Y0016125D01*
X0016678Y0016229D01*
X0016419Y0016341D01*
X0016162Y0016458D01*
X0015908Y0016582D01*
X0015658Y0016712D01*
X0015411Y0016848D01*
X0015167Y0016990D01*
X0014927Y0017138D01*
X0014690Y0017292D01*
X0014457Y0017452D01*
X0014228Y0017617D01*
X0014004Y0017788D01*
X0013783Y0017964D01*
X0013568Y0018146D01*
X0013356Y0018333D01*
X0013149Y0018525D01*
X0012947Y0018722D01*
X0012750Y0018924D01*
X0012558Y0019131D01*
X0012371Y0019343D01*
X0012189Y0019558D01*
X0012013Y0019779D01*
X0011842Y0020003D01*
X0011677Y0020232D01*
X0011517Y0020465D01*
X0011363Y0020702D01*
X0011215Y0020942D01*
X0011073Y0021186D01*
X0010937Y0021433D01*
X0010807Y0021683D01*
X0010683Y0021937D01*
X0010566Y0022194D01*
X0010454Y0022453D01*
X0010350Y0022715D01*
X0010251Y0022980D01*
X0010159Y0023247D01*
X0010074Y0023516D01*
X0009996Y0023787D01*
X0009924Y0024060D01*
X0009858Y0024334D01*
X0009800Y0024610D01*
X0009748Y0024888D01*
X0009703Y0025167D01*
X0009665Y0025446D01*
X0009634Y0025727D01*
X0009610Y0026008D01*
X0009593Y0026290D01*
X0009582Y0026572D01*
X0009579Y0026854D01*
X0009579Y0219768D02*
X0009582Y0220050D01*
X0009593Y0220332D01*
X0009610Y0220614D01*
X0009634Y0220895D01*
X0009665Y0221176D01*
X0009703Y0221455D01*
X0009748Y0221734D01*
X0009800Y0222012D01*
X0009858Y0222288D01*
X0009924Y0222562D01*
X0009996Y0222835D01*
X0010074Y0223106D01*
X0010159Y0223375D01*
X0010251Y0223642D01*
X0010350Y0223907D01*
X0010454Y0224169D01*
X0010566Y0224428D01*
X0010683Y0224685D01*
X0010807Y0224939D01*
X0010937Y0225189D01*
X0011073Y0225436D01*
X0011215Y0225680D01*
X0011363Y0225920D01*
X0011517Y0226157D01*
X0011677Y0226390D01*
X0011842Y0226619D01*
X0012013Y0226843D01*
X0012189Y0227064D01*
X0012371Y0227279D01*
X0012558Y0227491D01*
X0012750Y0227698D01*
X0012947Y0227900D01*
X0013149Y0228097D01*
X0013356Y0228289D01*
X0013568Y0228476D01*
X0013783Y0228658D01*
X0014004Y0228834D01*
X0014228Y0229005D01*
X0014457Y0229170D01*
X0014690Y0229330D01*
X0014927Y0229484D01*
X0015167Y0229632D01*
X0015411Y0229774D01*
X0015658Y0229910D01*
X0015908Y0230040D01*
X0016162Y0230164D01*
X0016419Y0230281D01*
X0016678Y0230393D01*
X0016940Y0230497D01*
X0017205Y0230596D01*
X0017472Y0230688D01*
X0017741Y0230773D01*
X0018012Y0230851D01*
X0018285Y0230923D01*
X0018559Y0230989D01*
X0018835Y0231047D01*
X0019113Y0231099D01*
X0019392Y0231144D01*
X0019671Y0231182D01*
X0019952Y0231213D01*
X0020233Y0231237D01*
X0020515Y0231254D01*
X0020797Y0231265D01*
X0021079Y0231268D01*
X0021361Y0231265D01*
X0021643Y0231254D01*
X0021925Y0231237D01*
X0022206Y0231213D01*
X0022487Y0231182D01*
X0022766Y0231144D01*
X0023045Y0231099D01*
X0023323Y0231047D01*
X0023599Y0230989D01*
X0023873Y0230923D01*
X0024146Y0230851D01*
X0024417Y0230773D01*
X0024686Y0230688D01*
X0024953Y0230596D01*
X0025218Y0230497D01*
X0025480Y0230393D01*
X0025739Y0230281D01*
X0025996Y0230164D01*
X0026250Y0230040D01*
X0026500Y0229910D01*
X0026747Y0229774D01*
X0026991Y0229632D01*
X0027231Y0229484D01*
X0027468Y0229330D01*
X0027701Y0229170D01*
X0027930Y0229005D01*
X0028154Y0228834D01*
X0028375Y0228658D01*
X0028590Y0228476D01*
X0028802Y0228289D01*
X0029009Y0228097D01*
X0029211Y0227900D01*
X0029408Y0227698D01*
X0029600Y0227491D01*
X0029787Y0227279D01*
X0029969Y0227064D01*
X0030145Y0226843D01*
X0030316Y0226619D01*
X0030481Y0226390D01*
X0030641Y0226157D01*
X0030795Y0225920D01*
X0030943Y0225680D01*
X0031085Y0225436D01*
X0031221Y0225189D01*
X0031351Y0224939D01*
X0031475Y0224685D01*
X0031592Y0224428D01*
X0031704Y0224169D01*
X0031808Y0223907D01*
X0031907Y0223642D01*
X0031999Y0223375D01*
X0032084Y0223106D01*
X0032162Y0222835D01*
X0032234Y0222562D01*
X0032300Y0222288D01*
X0032358Y0222012D01*
X0032410Y0221734D01*
X0032455Y0221455D01*
X0032493Y0221176D01*
X0032524Y0220895D01*
X0032548Y0220614D01*
X0032565Y0220332D01*
X0032576Y0220050D01*
X0032579Y0219768D01*
X0032576Y0219486D01*
X0032565Y0219204D01*
X0032548Y0218922D01*
X0032524Y0218641D01*
X0032493Y0218360D01*
X0032455Y0218081D01*
X0032410Y0217802D01*
X0032358Y0217524D01*
X0032300Y0217248D01*
X0032234Y0216974D01*
X0032162Y0216701D01*
X0032084Y0216430D01*
X0031999Y0216161D01*
X0031907Y0215894D01*
X0031808Y0215629D01*
X0031704Y0215367D01*
X0031592Y0215108D01*
X0031475Y0214851D01*
X0031351Y0214597D01*
X0031221Y0214347D01*
X0031085Y0214100D01*
X0030943Y0213856D01*
X0030795Y0213616D01*
X0030641Y0213379D01*
X0030481Y0213146D01*
X0030316Y0212917D01*
X0030145Y0212693D01*
X0029969Y0212472D01*
X0029787Y0212257D01*
X0029600Y0212045D01*
X0029408Y0211838D01*
X0029211Y0211636D01*
X0029009Y0211439D01*
X0028802Y0211247D01*
X0028590Y0211060D01*
X0028375Y0210878D01*
X0028154Y0210702D01*
X0027930Y0210531D01*
X0027701Y0210366D01*
X0027468Y0210206D01*
X0027231Y0210052D01*
X0026991Y0209904D01*
X0026747Y0209762D01*
X0026500Y0209626D01*
X0026250Y0209496D01*
X0025996Y0209372D01*
X0025739Y0209255D01*
X0025480Y0209143D01*
X0025218Y0209039D01*
X0024953Y0208940D01*
X0024686Y0208848D01*
X0024417Y0208763D01*
X0024146Y0208685D01*
X0023873Y0208613D01*
X0023599Y0208547D01*
X0023323Y0208489D01*
X0023045Y0208437D01*
X0022766Y0208392D01*
X0022487Y0208354D01*
X0022206Y0208323D01*
X0021925Y0208299D01*
X0021643Y0208282D01*
X0021361Y0208271D01*
X0021079Y0208268D01*
X0020797Y0208271D01*
X0020515Y0208282D01*
X0020233Y0208299D01*
X0019952Y0208323D01*
X0019671Y0208354D01*
X0019392Y0208392D01*
X0019113Y0208437D01*
X0018835Y0208489D01*
X0018559Y0208547D01*
X0018285Y0208613D01*
X0018012Y0208685D01*
X0017741Y0208763D01*
X0017472Y0208848D01*
X0017205Y0208940D01*
X0016940Y0209039D01*
X0016678Y0209143D01*
X0016419Y0209255D01*
X0016162Y0209372D01*
X0015908Y0209496D01*
X0015658Y0209626D01*
X0015411Y0209762D01*
X0015167Y0209904D01*
X0014927Y0210052D01*
X0014690Y0210206D01*
X0014457Y0210366D01*
X0014228Y0210531D01*
X0014004Y0210702D01*
X0013783Y0210878D01*
X0013568Y0211060D01*
X0013356Y0211247D01*
X0013149Y0211439D01*
X0012947Y0211636D01*
X0012750Y0211838D01*
X0012558Y0212045D01*
X0012371Y0212257D01*
X0012189Y0212472D01*
X0012013Y0212693D01*
X0011842Y0212917D01*
X0011677Y0213146D01*
X0011517Y0213379D01*
X0011363Y0213616D01*
X0011215Y0213856D01*
X0011073Y0214100D01*
X0010937Y0214347D01*
X0010807Y0214597D01*
X0010683Y0214851D01*
X0010566Y0215108D01*
X0010454Y0215367D01*
X0010350Y0215629D01*
X0010251Y0215894D01*
X0010159Y0216161D01*
X0010074Y0216430D01*
X0009996Y0216701D01*
X0009924Y0216974D01*
X0009858Y0217248D01*
X0009800Y0217524D01*
X0009748Y0217802D01*
X0009703Y0218081D01*
X0009665Y0218360D01*
X0009634Y0218641D01*
X0009610Y0218922D01*
X0009593Y0219204D01*
X0009582Y0219486D01*
X0009579Y0219768D01*
X0237925Y0219768D02*
X0237928Y0220050D01*
X0237939Y0220332D01*
X0237956Y0220614D01*
X0237980Y0220895D01*
X0238011Y0221176D01*
X0238049Y0221455D01*
X0238094Y0221734D01*
X0238146Y0222012D01*
X0238204Y0222288D01*
X0238270Y0222562D01*
X0238342Y0222835D01*
X0238420Y0223106D01*
X0238505Y0223375D01*
X0238597Y0223642D01*
X0238696Y0223907D01*
X0238800Y0224169D01*
X0238912Y0224428D01*
X0239029Y0224685D01*
X0239153Y0224939D01*
X0239283Y0225189D01*
X0239419Y0225436D01*
X0239561Y0225680D01*
X0239709Y0225920D01*
X0239863Y0226157D01*
X0240023Y0226390D01*
X0240188Y0226619D01*
X0240359Y0226843D01*
X0240535Y0227064D01*
X0240717Y0227279D01*
X0240904Y0227491D01*
X0241096Y0227698D01*
X0241293Y0227900D01*
X0241495Y0228097D01*
X0241702Y0228289D01*
X0241914Y0228476D01*
X0242129Y0228658D01*
X0242350Y0228834D01*
X0242574Y0229005D01*
X0242803Y0229170D01*
X0243036Y0229330D01*
X0243273Y0229484D01*
X0243513Y0229632D01*
X0243757Y0229774D01*
X0244004Y0229910D01*
X0244254Y0230040D01*
X0244508Y0230164D01*
X0244765Y0230281D01*
X0245024Y0230393D01*
X0245286Y0230497D01*
X0245551Y0230596D01*
X0245818Y0230688D01*
X0246087Y0230773D01*
X0246358Y0230851D01*
X0246631Y0230923D01*
X0246905Y0230989D01*
X0247181Y0231047D01*
X0247459Y0231099D01*
X0247738Y0231144D01*
X0248017Y0231182D01*
X0248298Y0231213D01*
X0248579Y0231237D01*
X0248861Y0231254D01*
X0249143Y0231265D01*
X0249425Y0231268D01*
X0249707Y0231265D01*
X0249989Y0231254D01*
X0250271Y0231237D01*
X0250552Y0231213D01*
X0250833Y0231182D01*
X0251112Y0231144D01*
X0251391Y0231099D01*
X0251669Y0231047D01*
X0251945Y0230989D01*
X0252219Y0230923D01*
X0252492Y0230851D01*
X0252763Y0230773D01*
X0253032Y0230688D01*
X0253299Y0230596D01*
X0253564Y0230497D01*
X0253826Y0230393D01*
X0254085Y0230281D01*
X0254342Y0230164D01*
X0254596Y0230040D01*
X0254846Y0229910D01*
X0255093Y0229774D01*
X0255337Y0229632D01*
X0255577Y0229484D01*
X0255814Y0229330D01*
X0256047Y0229170D01*
X0256276Y0229005D01*
X0256500Y0228834D01*
X0256721Y0228658D01*
X0256936Y0228476D01*
X0257148Y0228289D01*
X0257355Y0228097D01*
X0257557Y0227900D01*
X0257754Y0227698D01*
X0257946Y0227491D01*
X0258133Y0227279D01*
X0258315Y0227064D01*
X0258491Y0226843D01*
X0258662Y0226619D01*
X0258827Y0226390D01*
X0258987Y0226157D01*
X0259141Y0225920D01*
X0259289Y0225680D01*
X0259431Y0225436D01*
X0259567Y0225189D01*
X0259697Y0224939D01*
X0259821Y0224685D01*
X0259938Y0224428D01*
X0260050Y0224169D01*
X0260154Y0223907D01*
X0260253Y0223642D01*
X0260345Y0223375D01*
X0260430Y0223106D01*
X0260508Y0222835D01*
X0260580Y0222562D01*
X0260646Y0222288D01*
X0260704Y0222012D01*
X0260756Y0221734D01*
X0260801Y0221455D01*
X0260839Y0221176D01*
X0260870Y0220895D01*
X0260894Y0220614D01*
X0260911Y0220332D01*
X0260922Y0220050D01*
X0260925Y0219768D01*
X0260922Y0219486D01*
X0260911Y0219204D01*
X0260894Y0218922D01*
X0260870Y0218641D01*
X0260839Y0218360D01*
X0260801Y0218081D01*
X0260756Y0217802D01*
X0260704Y0217524D01*
X0260646Y0217248D01*
X0260580Y0216974D01*
X0260508Y0216701D01*
X0260430Y0216430D01*
X0260345Y0216161D01*
X0260253Y0215894D01*
X0260154Y0215629D01*
X0260050Y0215367D01*
X0259938Y0215108D01*
X0259821Y0214851D01*
X0259697Y0214597D01*
X0259567Y0214347D01*
X0259431Y0214100D01*
X0259289Y0213856D01*
X0259141Y0213616D01*
X0258987Y0213379D01*
X0258827Y0213146D01*
X0258662Y0212917D01*
X0258491Y0212693D01*
X0258315Y0212472D01*
X0258133Y0212257D01*
X0257946Y0212045D01*
X0257754Y0211838D01*
X0257557Y0211636D01*
X0257355Y0211439D01*
X0257148Y0211247D01*
X0256936Y0211060D01*
X0256721Y0210878D01*
X0256500Y0210702D01*
X0256276Y0210531D01*
X0256047Y0210366D01*
X0255814Y0210206D01*
X0255577Y0210052D01*
X0255337Y0209904D01*
X0255093Y0209762D01*
X0254846Y0209626D01*
X0254596Y0209496D01*
X0254342Y0209372D01*
X0254085Y0209255D01*
X0253826Y0209143D01*
X0253564Y0209039D01*
X0253299Y0208940D01*
X0253032Y0208848D01*
X0252763Y0208763D01*
X0252492Y0208685D01*
X0252219Y0208613D01*
X0251945Y0208547D01*
X0251669Y0208489D01*
X0251391Y0208437D01*
X0251112Y0208392D01*
X0250833Y0208354D01*
X0250552Y0208323D01*
X0250271Y0208299D01*
X0249989Y0208282D01*
X0249707Y0208271D01*
X0249425Y0208268D01*
X0249143Y0208271D01*
X0248861Y0208282D01*
X0248579Y0208299D01*
X0248298Y0208323D01*
X0248017Y0208354D01*
X0247738Y0208392D01*
X0247459Y0208437D01*
X0247181Y0208489D01*
X0246905Y0208547D01*
X0246631Y0208613D01*
X0246358Y0208685D01*
X0246087Y0208763D01*
X0245818Y0208848D01*
X0245551Y0208940D01*
X0245286Y0209039D01*
X0245024Y0209143D01*
X0244765Y0209255D01*
X0244508Y0209372D01*
X0244254Y0209496D01*
X0244004Y0209626D01*
X0243757Y0209762D01*
X0243513Y0209904D01*
X0243273Y0210052D01*
X0243036Y0210206D01*
X0242803Y0210366D01*
X0242574Y0210531D01*
X0242350Y0210702D01*
X0242129Y0210878D01*
X0241914Y0211060D01*
X0241702Y0211247D01*
X0241495Y0211439D01*
X0241293Y0211636D01*
X0241096Y0211838D01*
X0240904Y0212045D01*
X0240717Y0212257D01*
X0240535Y0212472D01*
X0240359Y0212693D01*
X0240188Y0212917D01*
X0240023Y0213146D01*
X0239863Y0213379D01*
X0239709Y0213616D01*
X0239561Y0213856D01*
X0239419Y0214100D01*
X0239283Y0214347D01*
X0239153Y0214597D01*
X0239029Y0214851D01*
X0238912Y0215108D01*
X0238800Y0215367D01*
X0238696Y0215629D01*
X0238597Y0215894D01*
X0238505Y0216161D01*
X0238420Y0216430D01*
X0238342Y0216701D01*
X0238270Y0216974D01*
X0238204Y0217248D01*
X0238146Y0217524D01*
X0238094Y0217802D01*
X0238049Y0218081D01*
X0238011Y0218360D01*
X0237980Y0218641D01*
X0237956Y0218922D01*
X0237939Y0219204D01*
X0237928Y0219486D01*
X0237925Y0219768D01*
X0237925Y0026854D02*
X0237928Y0027136D01*
X0237939Y0027418D01*
X0237956Y0027700D01*
X0237980Y0027981D01*
X0238011Y0028262D01*
X0238049Y0028541D01*
X0238094Y0028820D01*
X0238146Y0029098D01*
X0238204Y0029374D01*
X0238270Y0029648D01*
X0238342Y0029921D01*
X0238420Y0030192D01*
X0238505Y0030461D01*
X0238597Y0030728D01*
X0238696Y0030993D01*
X0238800Y0031255D01*
X0238912Y0031514D01*
X0239029Y0031771D01*
X0239153Y0032025D01*
X0239283Y0032275D01*
X0239419Y0032522D01*
X0239561Y0032766D01*
X0239709Y0033006D01*
X0239863Y0033243D01*
X0240023Y0033476D01*
X0240188Y0033705D01*
X0240359Y0033929D01*
X0240535Y0034150D01*
X0240717Y0034365D01*
X0240904Y0034577D01*
X0241096Y0034784D01*
X0241293Y0034986D01*
X0241495Y0035183D01*
X0241702Y0035375D01*
X0241914Y0035562D01*
X0242129Y0035744D01*
X0242350Y0035920D01*
X0242574Y0036091D01*
X0242803Y0036256D01*
X0243036Y0036416D01*
X0243273Y0036570D01*
X0243513Y0036718D01*
X0243757Y0036860D01*
X0244004Y0036996D01*
X0244254Y0037126D01*
X0244508Y0037250D01*
X0244765Y0037367D01*
X0245024Y0037479D01*
X0245286Y0037583D01*
X0245551Y0037682D01*
X0245818Y0037774D01*
X0246087Y0037859D01*
X0246358Y0037937D01*
X0246631Y0038009D01*
X0246905Y0038075D01*
X0247181Y0038133D01*
X0247459Y0038185D01*
X0247738Y0038230D01*
X0248017Y0038268D01*
X0248298Y0038299D01*
X0248579Y0038323D01*
X0248861Y0038340D01*
X0249143Y0038351D01*
X0249425Y0038354D01*
X0249707Y0038351D01*
X0249989Y0038340D01*
X0250271Y0038323D01*
X0250552Y0038299D01*
X0250833Y0038268D01*
X0251112Y0038230D01*
X0251391Y0038185D01*
X0251669Y0038133D01*
X0251945Y0038075D01*
X0252219Y0038009D01*
X0252492Y0037937D01*
X0252763Y0037859D01*
X0253032Y0037774D01*
X0253299Y0037682D01*
X0253564Y0037583D01*
X0253826Y0037479D01*
X0254085Y0037367D01*
X0254342Y0037250D01*
X0254596Y0037126D01*
X0254846Y0036996D01*
X0255093Y0036860D01*
X0255337Y0036718D01*
X0255577Y0036570D01*
X0255814Y0036416D01*
X0256047Y0036256D01*
X0256276Y0036091D01*
X0256500Y0035920D01*
X0256721Y0035744D01*
X0256936Y0035562D01*
X0257148Y0035375D01*
X0257355Y0035183D01*
X0257557Y0034986D01*
X0257754Y0034784D01*
X0257946Y0034577D01*
X0258133Y0034365D01*
X0258315Y0034150D01*
X0258491Y0033929D01*
X0258662Y0033705D01*
X0258827Y0033476D01*
X0258987Y0033243D01*
X0259141Y0033006D01*
X0259289Y0032766D01*
X0259431Y0032522D01*
X0259567Y0032275D01*
X0259697Y0032025D01*
X0259821Y0031771D01*
X0259938Y0031514D01*
X0260050Y0031255D01*
X0260154Y0030993D01*
X0260253Y0030728D01*
X0260345Y0030461D01*
X0260430Y0030192D01*
X0260508Y0029921D01*
X0260580Y0029648D01*
X0260646Y0029374D01*
X0260704Y0029098D01*
X0260756Y0028820D01*
X0260801Y0028541D01*
X0260839Y0028262D01*
X0260870Y0027981D01*
X0260894Y0027700D01*
X0260911Y0027418D01*
X0260922Y0027136D01*
X0260925Y0026854D01*
X0260922Y0026572D01*
X0260911Y0026290D01*
X0260894Y0026008D01*
X0260870Y0025727D01*
X0260839Y0025446D01*
X0260801Y0025167D01*
X0260756Y0024888D01*
X0260704Y0024610D01*
X0260646Y0024334D01*
X0260580Y0024060D01*
X0260508Y0023787D01*
X0260430Y0023516D01*
X0260345Y0023247D01*
X0260253Y0022980D01*
X0260154Y0022715D01*
X0260050Y0022453D01*
X0259938Y0022194D01*
X0259821Y0021937D01*
X0259697Y0021683D01*
X0259567Y0021433D01*
X0259431Y0021186D01*
X0259289Y0020942D01*
X0259141Y0020702D01*
X0258987Y0020465D01*
X0258827Y0020232D01*
X0258662Y0020003D01*
X0258491Y0019779D01*
X0258315Y0019558D01*
X0258133Y0019343D01*
X0257946Y0019131D01*
X0257754Y0018924D01*
X0257557Y0018722D01*
X0257355Y0018525D01*
X0257148Y0018333D01*
X0256936Y0018146D01*
X0256721Y0017964D01*
X0256500Y0017788D01*
X0256276Y0017617D01*
X0256047Y0017452D01*
X0255814Y0017292D01*
X0255577Y0017138D01*
X0255337Y0016990D01*
X0255093Y0016848D01*
X0254846Y0016712D01*
X0254596Y0016582D01*
X0254342Y0016458D01*
X0254085Y0016341D01*
X0253826Y0016229D01*
X0253564Y0016125D01*
X0253299Y0016026D01*
X0253032Y0015934D01*
X0252763Y0015849D01*
X0252492Y0015771D01*
X0252219Y0015699D01*
X0251945Y0015633D01*
X0251669Y0015575D01*
X0251391Y0015523D01*
X0251112Y0015478D01*
X0250833Y0015440D01*
X0250552Y0015409D01*
X0250271Y0015385D01*
X0249989Y0015368D01*
X0249707Y0015357D01*
X0249425Y0015354D01*
X0249143Y0015357D01*
X0248861Y0015368D01*
X0248579Y0015385D01*
X0248298Y0015409D01*
X0248017Y0015440D01*
X0247738Y0015478D01*
X0247459Y0015523D01*
X0247181Y0015575D01*
X0246905Y0015633D01*
X0246631Y0015699D01*
X0246358Y0015771D01*
X0246087Y0015849D01*
X0245818Y0015934D01*
X0245551Y0016026D01*
X0245286Y0016125D01*
X0245024Y0016229D01*
X0244765Y0016341D01*
X0244508Y0016458D01*
X0244254Y0016582D01*
X0244004Y0016712D01*
X0243757Y0016848D01*
X0243513Y0016990D01*
X0243273Y0017138D01*
X0243036Y0017292D01*
X0242803Y0017452D01*
X0242574Y0017617D01*
X0242350Y0017788D01*
X0242129Y0017964D01*
X0241914Y0018146D01*
X0241702Y0018333D01*
X0241495Y0018525D01*
X0241293Y0018722D01*
X0241096Y0018924D01*
X0240904Y0019131D01*
X0240717Y0019343D01*
X0240535Y0019558D01*
X0240359Y0019779D01*
X0240188Y0020003D01*
X0240023Y0020232D01*
X0239863Y0020465D01*
X0239709Y0020702D01*
X0239561Y0020942D01*
X0239419Y0021186D01*
X0239283Y0021433D01*
X0239153Y0021683D01*
X0239029Y0021937D01*
X0238912Y0022194D01*
X0238800Y0022453D01*
X0238696Y0022715D01*
X0238597Y0022980D01*
X0238505Y0023247D01*
X0238420Y0023516D01*
X0238342Y0023787D01*
X0238270Y0024060D01*
X0238204Y0024334D01*
X0238146Y0024610D01*
X0238094Y0024888D01*
X0238049Y0025167D01*
X0238011Y0025446D01*
X0237980Y0025727D01*
X0237956Y0026008D01*
X0237939Y0026290D01*
X0237928Y0026572D01*
X0237925Y0026854D01*
D16*
X0100276Y0078445D03*
X0082323Y0078445D03*
D17*
X0015173Y0026854D02*
X0015175Y0027007D01*
X0015181Y0027161D01*
X0015191Y0027314D01*
X0015205Y0027466D01*
X0015223Y0027619D01*
X0015245Y0027770D01*
X0015270Y0027921D01*
X0015300Y0028072D01*
X0015334Y0028222D01*
X0015371Y0028370D01*
X0015412Y0028518D01*
X0015457Y0028664D01*
X0015506Y0028810D01*
X0015559Y0028954D01*
X0015615Y0029096D01*
X0015675Y0029237D01*
X0015739Y0029377D01*
X0015806Y0029515D01*
X0015877Y0029651D01*
X0015952Y0029785D01*
X0016029Y0029917D01*
X0016111Y0030047D01*
X0016195Y0030175D01*
X0016283Y0030301D01*
X0016374Y0030424D01*
X0016468Y0030545D01*
X0016566Y0030663D01*
X0016666Y0030779D01*
X0016770Y0030892D01*
X0016876Y0031003D01*
X0016985Y0031111D01*
X0017097Y0031216D01*
X0017211Y0031317D01*
X0017329Y0031416D01*
X0017448Y0031512D01*
X0017570Y0031605D01*
X0017695Y0031694D01*
X0017822Y0031781D01*
X0017951Y0031863D01*
X0018082Y0031943D01*
X0018215Y0032019D01*
X0018350Y0032092D01*
X0018487Y0032161D01*
X0018626Y0032226D01*
X0018766Y0032288D01*
X0018908Y0032346D01*
X0019051Y0032401D01*
X0019196Y0032452D01*
X0019342Y0032499D01*
X0019489Y0032542D01*
X0019637Y0032581D01*
X0019786Y0032617D01*
X0019936Y0032648D01*
X0020087Y0032676D01*
X0020238Y0032700D01*
X0020391Y0032720D01*
X0020543Y0032736D01*
X0020696Y0032748D01*
X0020849Y0032756D01*
X0021002Y0032760D01*
X0021156Y0032760D01*
X0021309Y0032756D01*
X0021462Y0032748D01*
X0021615Y0032736D01*
X0021767Y0032720D01*
X0021920Y0032700D01*
X0022071Y0032676D01*
X0022222Y0032648D01*
X0022372Y0032617D01*
X0022521Y0032581D01*
X0022669Y0032542D01*
X0022816Y0032499D01*
X0022962Y0032452D01*
X0023107Y0032401D01*
X0023250Y0032346D01*
X0023392Y0032288D01*
X0023532Y0032226D01*
X0023671Y0032161D01*
X0023808Y0032092D01*
X0023943Y0032019D01*
X0024076Y0031943D01*
X0024207Y0031863D01*
X0024336Y0031781D01*
X0024463Y0031694D01*
X0024588Y0031605D01*
X0024710Y0031512D01*
X0024829Y0031416D01*
X0024947Y0031317D01*
X0025061Y0031216D01*
X0025173Y0031111D01*
X0025282Y0031003D01*
X0025388Y0030892D01*
X0025492Y0030779D01*
X0025592Y0030663D01*
X0025690Y0030545D01*
X0025784Y0030424D01*
X0025875Y0030301D01*
X0025963Y0030175D01*
X0026047Y0030047D01*
X0026129Y0029917D01*
X0026206Y0029785D01*
X0026281Y0029651D01*
X0026352Y0029515D01*
X0026419Y0029377D01*
X0026483Y0029237D01*
X0026543Y0029096D01*
X0026599Y0028954D01*
X0026652Y0028810D01*
X0026701Y0028664D01*
X0026746Y0028518D01*
X0026787Y0028370D01*
X0026824Y0028222D01*
X0026858Y0028072D01*
X0026888Y0027921D01*
X0026913Y0027770D01*
X0026935Y0027619D01*
X0026953Y0027466D01*
X0026967Y0027314D01*
X0026977Y0027161D01*
X0026983Y0027007D01*
X0026985Y0026854D01*
X0026983Y0026701D01*
X0026977Y0026547D01*
X0026967Y0026394D01*
X0026953Y0026242D01*
X0026935Y0026089D01*
X0026913Y0025938D01*
X0026888Y0025787D01*
X0026858Y0025636D01*
X0026824Y0025486D01*
X0026787Y0025338D01*
X0026746Y0025190D01*
X0026701Y0025044D01*
X0026652Y0024898D01*
X0026599Y0024754D01*
X0026543Y0024612D01*
X0026483Y0024471D01*
X0026419Y0024331D01*
X0026352Y0024193D01*
X0026281Y0024057D01*
X0026206Y0023923D01*
X0026129Y0023791D01*
X0026047Y0023661D01*
X0025963Y0023533D01*
X0025875Y0023407D01*
X0025784Y0023284D01*
X0025690Y0023163D01*
X0025592Y0023045D01*
X0025492Y0022929D01*
X0025388Y0022816D01*
X0025282Y0022705D01*
X0025173Y0022597D01*
X0025061Y0022492D01*
X0024947Y0022391D01*
X0024829Y0022292D01*
X0024710Y0022196D01*
X0024588Y0022103D01*
X0024463Y0022014D01*
X0024336Y0021927D01*
X0024207Y0021845D01*
X0024076Y0021765D01*
X0023943Y0021689D01*
X0023808Y0021616D01*
X0023671Y0021547D01*
X0023532Y0021482D01*
X0023392Y0021420D01*
X0023250Y0021362D01*
X0023107Y0021307D01*
X0022962Y0021256D01*
X0022816Y0021209D01*
X0022669Y0021166D01*
X0022521Y0021127D01*
X0022372Y0021091D01*
X0022222Y0021060D01*
X0022071Y0021032D01*
X0021920Y0021008D01*
X0021767Y0020988D01*
X0021615Y0020972D01*
X0021462Y0020960D01*
X0021309Y0020952D01*
X0021156Y0020948D01*
X0021002Y0020948D01*
X0020849Y0020952D01*
X0020696Y0020960D01*
X0020543Y0020972D01*
X0020391Y0020988D01*
X0020238Y0021008D01*
X0020087Y0021032D01*
X0019936Y0021060D01*
X0019786Y0021091D01*
X0019637Y0021127D01*
X0019489Y0021166D01*
X0019342Y0021209D01*
X0019196Y0021256D01*
X0019051Y0021307D01*
X0018908Y0021362D01*
X0018766Y0021420D01*
X0018626Y0021482D01*
X0018487Y0021547D01*
X0018350Y0021616D01*
X0018215Y0021689D01*
X0018082Y0021765D01*
X0017951Y0021845D01*
X0017822Y0021927D01*
X0017695Y0022014D01*
X0017570Y0022103D01*
X0017448Y0022196D01*
X0017329Y0022292D01*
X0017211Y0022391D01*
X0017097Y0022492D01*
X0016985Y0022597D01*
X0016876Y0022705D01*
X0016770Y0022816D01*
X0016666Y0022929D01*
X0016566Y0023045D01*
X0016468Y0023163D01*
X0016374Y0023284D01*
X0016283Y0023407D01*
X0016195Y0023533D01*
X0016111Y0023661D01*
X0016029Y0023791D01*
X0015952Y0023923D01*
X0015877Y0024057D01*
X0015806Y0024193D01*
X0015739Y0024331D01*
X0015675Y0024471D01*
X0015615Y0024612D01*
X0015559Y0024754D01*
X0015506Y0024898D01*
X0015457Y0025044D01*
X0015412Y0025190D01*
X0015371Y0025338D01*
X0015334Y0025486D01*
X0015300Y0025636D01*
X0015270Y0025787D01*
X0015245Y0025938D01*
X0015223Y0026089D01*
X0015205Y0026242D01*
X0015191Y0026394D01*
X0015181Y0026547D01*
X0015175Y0026701D01*
X0015173Y0026854D01*
X0065660Y0195617D02*
X0084939Y0195617D01*
X0084939Y0212533D01*
X0065660Y0212533D01*
X0065660Y0195617D01*
X0092660Y0195617D02*
X0111939Y0195617D01*
X0111939Y0212533D01*
X0092660Y0212533D01*
X0092660Y0195617D01*
X0015173Y0219768D02*
X0015175Y0219921D01*
X0015181Y0220075D01*
X0015191Y0220228D01*
X0015205Y0220380D01*
X0015223Y0220533D01*
X0015245Y0220684D01*
X0015270Y0220835D01*
X0015300Y0220986D01*
X0015334Y0221136D01*
X0015371Y0221284D01*
X0015412Y0221432D01*
X0015457Y0221578D01*
X0015506Y0221724D01*
X0015559Y0221868D01*
X0015615Y0222010D01*
X0015675Y0222151D01*
X0015739Y0222291D01*
X0015806Y0222429D01*
X0015877Y0222565D01*
X0015952Y0222699D01*
X0016029Y0222831D01*
X0016111Y0222961D01*
X0016195Y0223089D01*
X0016283Y0223215D01*
X0016374Y0223338D01*
X0016468Y0223459D01*
X0016566Y0223577D01*
X0016666Y0223693D01*
X0016770Y0223806D01*
X0016876Y0223917D01*
X0016985Y0224025D01*
X0017097Y0224130D01*
X0017211Y0224231D01*
X0017329Y0224330D01*
X0017448Y0224426D01*
X0017570Y0224519D01*
X0017695Y0224608D01*
X0017822Y0224695D01*
X0017951Y0224777D01*
X0018082Y0224857D01*
X0018215Y0224933D01*
X0018350Y0225006D01*
X0018487Y0225075D01*
X0018626Y0225140D01*
X0018766Y0225202D01*
X0018908Y0225260D01*
X0019051Y0225315D01*
X0019196Y0225366D01*
X0019342Y0225413D01*
X0019489Y0225456D01*
X0019637Y0225495D01*
X0019786Y0225531D01*
X0019936Y0225562D01*
X0020087Y0225590D01*
X0020238Y0225614D01*
X0020391Y0225634D01*
X0020543Y0225650D01*
X0020696Y0225662D01*
X0020849Y0225670D01*
X0021002Y0225674D01*
X0021156Y0225674D01*
X0021309Y0225670D01*
X0021462Y0225662D01*
X0021615Y0225650D01*
X0021767Y0225634D01*
X0021920Y0225614D01*
X0022071Y0225590D01*
X0022222Y0225562D01*
X0022372Y0225531D01*
X0022521Y0225495D01*
X0022669Y0225456D01*
X0022816Y0225413D01*
X0022962Y0225366D01*
X0023107Y0225315D01*
X0023250Y0225260D01*
X0023392Y0225202D01*
X0023532Y0225140D01*
X0023671Y0225075D01*
X0023808Y0225006D01*
X0023943Y0224933D01*
X0024076Y0224857D01*
X0024207Y0224777D01*
X0024336Y0224695D01*
X0024463Y0224608D01*
X0024588Y0224519D01*
X0024710Y0224426D01*
X0024829Y0224330D01*
X0024947Y0224231D01*
X0025061Y0224130D01*
X0025173Y0224025D01*
X0025282Y0223917D01*
X0025388Y0223806D01*
X0025492Y0223693D01*
X0025592Y0223577D01*
X0025690Y0223459D01*
X0025784Y0223338D01*
X0025875Y0223215D01*
X0025963Y0223089D01*
X0026047Y0222961D01*
X0026129Y0222831D01*
X0026206Y0222699D01*
X0026281Y0222565D01*
X0026352Y0222429D01*
X0026419Y0222291D01*
X0026483Y0222151D01*
X0026543Y0222010D01*
X0026599Y0221868D01*
X0026652Y0221724D01*
X0026701Y0221578D01*
X0026746Y0221432D01*
X0026787Y0221284D01*
X0026824Y0221136D01*
X0026858Y0220986D01*
X0026888Y0220835D01*
X0026913Y0220684D01*
X0026935Y0220533D01*
X0026953Y0220380D01*
X0026967Y0220228D01*
X0026977Y0220075D01*
X0026983Y0219921D01*
X0026985Y0219768D01*
X0026983Y0219615D01*
X0026977Y0219461D01*
X0026967Y0219308D01*
X0026953Y0219156D01*
X0026935Y0219003D01*
X0026913Y0218852D01*
X0026888Y0218701D01*
X0026858Y0218550D01*
X0026824Y0218400D01*
X0026787Y0218252D01*
X0026746Y0218104D01*
X0026701Y0217958D01*
X0026652Y0217812D01*
X0026599Y0217668D01*
X0026543Y0217526D01*
X0026483Y0217385D01*
X0026419Y0217245D01*
X0026352Y0217107D01*
X0026281Y0216971D01*
X0026206Y0216837D01*
X0026129Y0216705D01*
X0026047Y0216575D01*
X0025963Y0216447D01*
X0025875Y0216321D01*
X0025784Y0216198D01*
X0025690Y0216077D01*
X0025592Y0215959D01*
X0025492Y0215843D01*
X0025388Y0215730D01*
X0025282Y0215619D01*
X0025173Y0215511D01*
X0025061Y0215406D01*
X0024947Y0215305D01*
X0024829Y0215206D01*
X0024710Y0215110D01*
X0024588Y0215017D01*
X0024463Y0214928D01*
X0024336Y0214841D01*
X0024207Y0214759D01*
X0024076Y0214679D01*
X0023943Y0214603D01*
X0023808Y0214530D01*
X0023671Y0214461D01*
X0023532Y0214396D01*
X0023392Y0214334D01*
X0023250Y0214276D01*
X0023107Y0214221D01*
X0022962Y0214170D01*
X0022816Y0214123D01*
X0022669Y0214080D01*
X0022521Y0214041D01*
X0022372Y0214005D01*
X0022222Y0213974D01*
X0022071Y0213946D01*
X0021920Y0213922D01*
X0021767Y0213902D01*
X0021615Y0213886D01*
X0021462Y0213874D01*
X0021309Y0213866D01*
X0021156Y0213862D01*
X0021002Y0213862D01*
X0020849Y0213866D01*
X0020696Y0213874D01*
X0020543Y0213886D01*
X0020391Y0213902D01*
X0020238Y0213922D01*
X0020087Y0213946D01*
X0019936Y0213974D01*
X0019786Y0214005D01*
X0019637Y0214041D01*
X0019489Y0214080D01*
X0019342Y0214123D01*
X0019196Y0214170D01*
X0019051Y0214221D01*
X0018908Y0214276D01*
X0018766Y0214334D01*
X0018626Y0214396D01*
X0018487Y0214461D01*
X0018350Y0214530D01*
X0018215Y0214603D01*
X0018082Y0214679D01*
X0017951Y0214759D01*
X0017822Y0214841D01*
X0017695Y0214928D01*
X0017570Y0215017D01*
X0017448Y0215110D01*
X0017329Y0215206D01*
X0017211Y0215305D01*
X0017097Y0215406D01*
X0016985Y0215511D01*
X0016876Y0215619D01*
X0016770Y0215730D01*
X0016666Y0215843D01*
X0016566Y0215959D01*
X0016468Y0216077D01*
X0016374Y0216198D01*
X0016283Y0216321D01*
X0016195Y0216447D01*
X0016111Y0216575D01*
X0016029Y0216705D01*
X0015952Y0216837D01*
X0015877Y0216971D01*
X0015806Y0217107D01*
X0015739Y0217245D01*
X0015675Y0217385D01*
X0015615Y0217526D01*
X0015559Y0217668D01*
X0015506Y0217812D01*
X0015457Y0217958D01*
X0015412Y0218104D01*
X0015371Y0218252D01*
X0015334Y0218400D01*
X0015300Y0218550D01*
X0015270Y0218701D01*
X0015245Y0218852D01*
X0015223Y0219003D01*
X0015205Y0219156D01*
X0015191Y0219308D01*
X0015181Y0219461D01*
X0015175Y0219615D01*
X0015173Y0219768D01*
X0243519Y0219768D02*
X0243521Y0219921D01*
X0243527Y0220075D01*
X0243537Y0220228D01*
X0243551Y0220380D01*
X0243569Y0220533D01*
X0243591Y0220684D01*
X0243616Y0220835D01*
X0243646Y0220986D01*
X0243680Y0221136D01*
X0243717Y0221284D01*
X0243758Y0221432D01*
X0243803Y0221578D01*
X0243852Y0221724D01*
X0243905Y0221868D01*
X0243961Y0222010D01*
X0244021Y0222151D01*
X0244085Y0222291D01*
X0244152Y0222429D01*
X0244223Y0222565D01*
X0244298Y0222699D01*
X0244375Y0222831D01*
X0244457Y0222961D01*
X0244541Y0223089D01*
X0244629Y0223215D01*
X0244720Y0223338D01*
X0244814Y0223459D01*
X0244912Y0223577D01*
X0245012Y0223693D01*
X0245116Y0223806D01*
X0245222Y0223917D01*
X0245331Y0224025D01*
X0245443Y0224130D01*
X0245557Y0224231D01*
X0245675Y0224330D01*
X0245794Y0224426D01*
X0245916Y0224519D01*
X0246041Y0224608D01*
X0246168Y0224695D01*
X0246297Y0224777D01*
X0246428Y0224857D01*
X0246561Y0224933D01*
X0246696Y0225006D01*
X0246833Y0225075D01*
X0246972Y0225140D01*
X0247112Y0225202D01*
X0247254Y0225260D01*
X0247397Y0225315D01*
X0247542Y0225366D01*
X0247688Y0225413D01*
X0247835Y0225456D01*
X0247983Y0225495D01*
X0248132Y0225531D01*
X0248282Y0225562D01*
X0248433Y0225590D01*
X0248584Y0225614D01*
X0248737Y0225634D01*
X0248889Y0225650D01*
X0249042Y0225662D01*
X0249195Y0225670D01*
X0249348Y0225674D01*
X0249502Y0225674D01*
X0249655Y0225670D01*
X0249808Y0225662D01*
X0249961Y0225650D01*
X0250113Y0225634D01*
X0250266Y0225614D01*
X0250417Y0225590D01*
X0250568Y0225562D01*
X0250718Y0225531D01*
X0250867Y0225495D01*
X0251015Y0225456D01*
X0251162Y0225413D01*
X0251308Y0225366D01*
X0251453Y0225315D01*
X0251596Y0225260D01*
X0251738Y0225202D01*
X0251878Y0225140D01*
X0252017Y0225075D01*
X0252154Y0225006D01*
X0252289Y0224933D01*
X0252422Y0224857D01*
X0252553Y0224777D01*
X0252682Y0224695D01*
X0252809Y0224608D01*
X0252934Y0224519D01*
X0253056Y0224426D01*
X0253175Y0224330D01*
X0253293Y0224231D01*
X0253407Y0224130D01*
X0253519Y0224025D01*
X0253628Y0223917D01*
X0253734Y0223806D01*
X0253838Y0223693D01*
X0253938Y0223577D01*
X0254036Y0223459D01*
X0254130Y0223338D01*
X0254221Y0223215D01*
X0254309Y0223089D01*
X0254393Y0222961D01*
X0254475Y0222831D01*
X0254552Y0222699D01*
X0254627Y0222565D01*
X0254698Y0222429D01*
X0254765Y0222291D01*
X0254829Y0222151D01*
X0254889Y0222010D01*
X0254945Y0221868D01*
X0254998Y0221724D01*
X0255047Y0221578D01*
X0255092Y0221432D01*
X0255133Y0221284D01*
X0255170Y0221136D01*
X0255204Y0220986D01*
X0255234Y0220835D01*
X0255259Y0220684D01*
X0255281Y0220533D01*
X0255299Y0220380D01*
X0255313Y0220228D01*
X0255323Y0220075D01*
X0255329Y0219921D01*
X0255331Y0219768D01*
X0255329Y0219615D01*
X0255323Y0219461D01*
X0255313Y0219308D01*
X0255299Y0219156D01*
X0255281Y0219003D01*
X0255259Y0218852D01*
X0255234Y0218701D01*
X0255204Y0218550D01*
X0255170Y0218400D01*
X0255133Y0218252D01*
X0255092Y0218104D01*
X0255047Y0217958D01*
X0254998Y0217812D01*
X0254945Y0217668D01*
X0254889Y0217526D01*
X0254829Y0217385D01*
X0254765Y0217245D01*
X0254698Y0217107D01*
X0254627Y0216971D01*
X0254552Y0216837D01*
X0254475Y0216705D01*
X0254393Y0216575D01*
X0254309Y0216447D01*
X0254221Y0216321D01*
X0254130Y0216198D01*
X0254036Y0216077D01*
X0253938Y0215959D01*
X0253838Y0215843D01*
X0253734Y0215730D01*
X0253628Y0215619D01*
X0253519Y0215511D01*
X0253407Y0215406D01*
X0253293Y0215305D01*
X0253175Y0215206D01*
X0253056Y0215110D01*
X0252934Y0215017D01*
X0252809Y0214928D01*
X0252682Y0214841D01*
X0252553Y0214759D01*
X0252422Y0214679D01*
X0252289Y0214603D01*
X0252154Y0214530D01*
X0252017Y0214461D01*
X0251878Y0214396D01*
X0251738Y0214334D01*
X0251596Y0214276D01*
X0251453Y0214221D01*
X0251308Y0214170D01*
X0251162Y0214123D01*
X0251015Y0214080D01*
X0250867Y0214041D01*
X0250718Y0214005D01*
X0250568Y0213974D01*
X0250417Y0213946D01*
X0250266Y0213922D01*
X0250113Y0213902D01*
X0249961Y0213886D01*
X0249808Y0213874D01*
X0249655Y0213866D01*
X0249502Y0213862D01*
X0249348Y0213862D01*
X0249195Y0213866D01*
X0249042Y0213874D01*
X0248889Y0213886D01*
X0248737Y0213902D01*
X0248584Y0213922D01*
X0248433Y0213946D01*
X0248282Y0213974D01*
X0248132Y0214005D01*
X0247983Y0214041D01*
X0247835Y0214080D01*
X0247688Y0214123D01*
X0247542Y0214170D01*
X0247397Y0214221D01*
X0247254Y0214276D01*
X0247112Y0214334D01*
X0246972Y0214396D01*
X0246833Y0214461D01*
X0246696Y0214530D01*
X0246561Y0214603D01*
X0246428Y0214679D01*
X0246297Y0214759D01*
X0246168Y0214841D01*
X0246041Y0214928D01*
X0245916Y0215017D01*
X0245794Y0215110D01*
X0245675Y0215206D01*
X0245557Y0215305D01*
X0245443Y0215406D01*
X0245331Y0215511D01*
X0245222Y0215619D01*
X0245116Y0215730D01*
X0245012Y0215843D01*
X0244912Y0215959D01*
X0244814Y0216077D01*
X0244720Y0216198D01*
X0244629Y0216321D01*
X0244541Y0216447D01*
X0244457Y0216575D01*
X0244375Y0216705D01*
X0244298Y0216837D01*
X0244223Y0216971D01*
X0244152Y0217107D01*
X0244085Y0217245D01*
X0244021Y0217385D01*
X0243961Y0217526D01*
X0243905Y0217668D01*
X0243852Y0217812D01*
X0243803Y0217958D01*
X0243758Y0218104D01*
X0243717Y0218252D01*
X0243680Y0218400D01*
X0243646Y0218550D01*
X0243616Y0218701D01*
X0243591Y0218852D01*
X0243569Y0219003D01*
X0243551Y0219156D01*
X0243537Y0219308D01*
X0243527Y0219461D01*
X0243521Y0219615D01*
X0243519Y0219768D01*
X0243519Y0026854D02*
X0243521Y0027007D01*
X0243527Y0027161D01*
X0243537Y0027314D01*
X0243551Y0027466D01*
X0243569Y0027619D01*
X0243591Y0027770D01*
X0243616Y0027921D01*
X0243646Y0028072D01*
X0243680Y0028222D01*
X0243717Y0028370D01*
X0243758Y0028518D01*
X0243803Y0028664D01*
X0243852Y0028810D01*
X0243905Y0028954D01*
X0243961Y0029096D01*
X0244021Y0029237D01*
X0244085Y0029377D01*
X0244152Y0029515D01*
X0244223Y0029651D01*
X0244298Y0029785D01*
X0244375Y0029917D01*
X0244457Y0030047D01*
X0244541Y0030175D01*
X0244629Y0030301D01*
X0244720Y0030424D01*
X0244814Y0030545D01*
X0244912Y0030663D01*
X0245012Y0030779D01*
X0245116Y0030892D01*
X0245222Y0031003D01*
X0245331Y0031111D01*
X0245443Y0031216D01*
X0245557Y0031317D01*
X0245675Y0031416D01*
X0245794Y0031512D01*
X0245916Y0031605D01*
X0246041Y0031694D01*
X0246168Y0031781D01*
X0246297Y0031863D01*
X0246428Y0031943D01*
X0246561Y0032019D01*
X0246696Y0032092D01*
X0246833Y0032161D01*
X0246972Y0032226D01*
X0247112Y0032288D01*
X0247254Y0032346D01*
X0247397Y0032401D01*
X0247542Y0032452D01*
X0247688Y0032499D01*
X0247835Y0032542D01*
X0247983Y0032581D01*
X0248132Y0032617D01*
X0248282Y0032648D01*
X0248433Y0032676D01*
X0248584Y0032700D01*
X0248737Y0032720D01*
X0248889Y0032736D01*
X0249042Y0032748D01*
X0249195Y0032756D01*
X0249348Y0032760D01*
X0249502Y0032760D01*
X0249655Y0032756D01*
X0249808Y0032748D01*
X0249961Y0032736D01*
X0250113Y0032720D01*
X0250266Y0032700D01*
X0250417Y0032676D01*
X0250568Y0032648D01*
X0250718Y0032617D01*
X0250867Y0032581D01*
X0251015Y0032542D01*
X0251162Y0032499D01*
X0251308Y0032452D01*
X0251453Y0032401D01*
X0251596Y0032346D01*
X0251738Y0032288D01*
X0251878Y0032226D01*
X0252017Y0032161D01*
X0252154Y0032092D01*
X0252289Y0032019D01*
X0252422Y0031943D01*
X0252553Y0031863D01*
X0252682Y0031781D01*
X0252809Y0031694D01*
X0252934Y0031605D01*
X0253056Y0031512D01*
X0253175Y0031416D01*
X0253293Y0031317D01*
X0253407Y0031216D01*
X0253519Y0031111D01*
X0253628Y0031003D01*
X0253734Y0030892D01*
X0253838Y0030779D01*
X0253938Y0030663D01*
X0254036Y0030545D01*
X0254130Y0030424D01*
X0254221Y0030301D01*
X0254309Y0030175D01*
X0254393Y0030047D01*
X0254475Y0029917D01*
X0254552Y0029785D01*
X0254627Y0029651D01*
X0254698Y0029515D01*
X0254765Y0029377D01*
X0254829Y0029237D01*
X0254889Y0029096D01*
X0254945Y0028954D01*
X0254998Y0028810D01*
X0255047Y0028664D01*
X0255092Y0028518D01*
X0255133Y0028370D01*
X0255170Y0028222D01*
X0255204Y0028072D01*
X0255234Y0027921D01*
X0255259Y0027770D01*
X0255281Y0027619D01*
X0255299Y0027466D01*
X0255313Y0027314D01*
X0255323Y0027161D01*
X0255329Y0027007D01*
X0255331Y0026854D01*
X0255329Y0026701D01*
X0255323Y0026547D01*
X0255313Y0026394D01*
X0255299Y0026242D01*
X0255281Y0026089D01*
X0255259Y0025938D01*
X0255234Y0025787D01*
X0255204Y0025636D01*
X0255170Y0025486D01*
X0255133Y0025338D01*
X0255092Y0025190D01*
X0255047Y0025044D01*
X0254998Y0024898D01*
X0254945Y0024754D01*
X0254889Y0024612D01*
X0254829Y0024471D01*
X0254765Y0024331D01*
X0254698Y0024193D01*
X0254627Y0024057D01*
X0254552Y0023923D01*
X0254475Y0023791D01*
X0254393Y0023661D01*
X0254309Y0023533D01*
X0254221Y0023407D01*
X0254130Y0023284D01*
X0254036Y0023163D01*
X0253938Y0023045D01*
X0253838Y0022929D01*
X0253734Y0022816D01*
X0253628Y0022705D01*
X0253519Y0022597D01*
X0253407Y0022492D01*
X0253293Y0022391D01*
X0253175Y0022292D01*
X0253056Y0022196D01*
X0252934Y0022103D01*
X0252809Y0022014D01*
X0252682Y0021927D01*
X0252553Y0021845D01*
X0252422Y0021765D01*
X0252289Y0021689D01*
X0252154Y0021616D01*
X0252017Y0021547D01*
X0251878Y0021482D01*
X0251738Y0021420D01*
X0251596Y0021362D01*
X0251453Y0021307D01*
X0251308Y0021256D01*
X0251162Y0021209D01*
X0251015Y0021166D01*
X0250867Y0021127D01*
X0250718Y0021091D01*
X0250568Y0021060D01*
X0250417Y0021032D01*
X0250266Y0021008D01*
X0250113Y0020988D01*
X0249961Y0020972D01*
X0249808Y0020960D01*
X0249655Y0020952D01*
X0249502Y0020948D01*
X0249348Y0020948D01*
X0249195Y0020952D01*
X0249042Y0020960D01*
X0248889Y0020972D01*
X0248737Y0020988D01*
X0248584Y0021008D01*
X0248433Y0021032D01*
X0248282Y0021060D01*
X0248132Y0021091D01*
X0247983Y0021127D01*
X0247835Y0021166D01*
X0247688Y0021209D01*
X0247542Y0021256D01*
X0247397Y0021307D01*
X0247254Y0021362D01*
X0247112Y0021420D01*
X0246972Y0021482D01*
X0246833Y0021547D01*
X0246696Y0021616D01*
X0246561Y0021689D01*
X0246428Y0021765D01*
X0246297Y0021845D01*
X0246168Y0021927D01*
X0246041Y0022014D01*
X0245916Y0022103D01*
X0245794Y0022196D01*
X0245675Y0022292D01*
X0245557Y0022391D01*
X0245443Y0022492D01*
X0245331Y0022597D01*
X0245222Y0022705D01*
X0245116Y0022816D01*
X0245012Y0022929D01*
X0244912Y0023045D01*
X0244814Y0023163D01*
X0244720Y0023284D01*
X0244629Y0023407D01*
X0244541Y0023533D01*
X0244457Y0023661D01*
X0244375Y0023791D01*
X0244298Y0023923D01*
X0244223Y0024057D01*
X0244152Y0024193D01*
X0244085Y0024331D01*
X0244021Y0024471D01*
X0243961Y0024612D01*
X0243905Y0024754D01*
X0243852Y0024898D01*
X0243803Y0025044D01*
X0243758Y0025190D01*
X0243717Y0025338D01*
X0243680Y0025486D01*
X0243646Y0025636D01*
X0243616Y0025787D01*
X0243591Y0025938D01*
X0243569Y0026089D01*
X0243551Y0026242D01*
X0243537Y0026394D01*
X0243527Y0026547D01*
X0243521Y0026701D01*
X0243519Y0026854D01*
D18*
X0126299Y0071825D03*
D19*
X0059299Y0070945D03*
D20*
X0065699Y0201354D02*
X0065699Y0202074D01*
X0065700Y0202073D02*
X0065789Y0202077D01*
X0065877Y0202085D01*
X0065965Y0202096D01*
X0066052Y0202112D01*
X0066139Y0202131D01*
X0066224Y0202154D01*
X0066309Y0202181D01*
X0066392Y0202212D01*
X0066474Y0202246D01*
X0066554Y0202284D01*
X0066633Y0202325D01*
X0066709Y0202370D01*
X0066784Y0202418D01*
X0066856Y0202470D01*
X0066926Y0202524D01*
X0066993Y0202582D01*
X0067058Y0202642D01*
X0067120Y0202706D01*
X0067180Y0202772D01*
X0067236Y0202840D01*
X0067289Y0202911D01*
X0067339Y0202985D01*
X0067386Y0203060D01*
X0067429Y0203137D01*
X0067469Y0203217D01*
X0067505Y0203298D01*
X0067538Y0203380D01*
X0067566Y0203464D01*
X0067592Y0203549D01*
X0067613Y0203635D01*
X0067631Y0203722D01*
X0067644Y0203810D01*
X0067654Y0203898D01*
X0067660Y0203986D01*
X0067662Y0204075D01*
X0067660Y0204164D01*
X0067654Y0204252D01*
X0067644Y0204340D01*
X0067631Y0204428D01*
X0067613Y0204515D01*
X0067592Y0204601D01*
X0067566Y0204686D01*
X0067538Y0204770D01*
X0067505Y0204852D01*
X0067469Y0204933D01*
X0067429Y0205013D01*
X0067386Y0205090D01*
X0067339Y0205165D01*
X0067289Y0205239D01*
X0067236Y0205310D01*
X0067180Y0205378D01*
X0067120Y0205444D01*
X0067058Y0205508D01*
X0066993Y0205568D01*
X0066926Y0205626D01*
X0066856Y0205680D01*
X0066784Y0205732D01*
X0066709Y0205780D01*
X0066633Y0205825D01*
X0066554Y0205866D01*
X0066474Y0205904D01*
X0066392Y0205938D01*
X0066309Y0205969D01*
X0066224Y0205996D01*
X0066139Y0206019D01*
X0066052Y0206038D01*
X0065965Y0206054D01*
X0065877Y0206065D01*
X0065789Y0206073D01*
X0065700Y0206077D01*
X0065699Y0206796D01*
X0065700Y0206797D01*
X0065803Y0206793D01*
X0065906Y0206786D01*
X0066009Y0206775D01*
X0066111Y0206759D01*
X0066213Y0206740D01*
X0066313Y0206717D01*
X0066413Y0206691D01*
X0066512Y0206660D01*
X0066609Y0206626D01*
X0066706Y0206588D01*
X0066800Y0206547D01*
X0066893Y0206502D01*
X0066984Y0206453D01*
X0067074Y0206401D01*
X0067161Y0206346D01*
X0067246Y0206287D01*
X0067329Y0206226D01*
X0067409Y0206161D01*
X0067487Y0206093D01*
X0067562Y0206022D01*
X0067635Y0205948D01*
X0067704Y0205872D01*
X0067771Y0205793D01*
X0067835Y0205712D01*
X0067895Y0205628D01*
X0067953Y0205542D01*
X0068007Y0205454D01*
X0068057Y0205364D01*
X0068105Y0205272D01*
X0068148Y0205179D01*
X0068188Y0205083D01*
X0068225Y0204987D01*
X0068257Y0204889D01*
X0068286Y0204790D01*
X0068312Y0204690D01*
X0068333Y0204588D01*
X0068351Y0204487D01*
X0068364Y0204384D01*
X0068374Y0204281D01*
X0068380Y0204178D01*
X0068382Y0204075D01*
X0068380Y0203972D01*
X0068374Y0203869D01*
X0068364Y0203766D01*
X0068351Y0203663D01*
X0068333Y0203562D01*
X0068312Y0203460D01*
X0068286Y0203360D01*
X0068257Y0203261D01*
X0068225Y0203163D01*
X0068188Y0203067D01*
X0068148Y0202971D01*
X0068105Y0202878D01*
X0068057Y0202786D01*
X0068007Y0202696D01*
X0067953Y0202608D01*
X0067895Y0202522D01*
X0067835Y0202438D01*
X0067771Y0202357D01*
X0067704Y0202278D01*
X0067635Y0202202D01*
X0067562Y0202128D01*
X0067487Y0202057D01*
X0067409Y0201989D01*
X0067329Y0201924D01*
X0067246Y0201863D01*
X0067161Y0201804D01*
X0067074Y0201749D01*
X0066984Y0201697D01*
X0066893Y0201648D01*
X0066800Y0201603D01*
X0066706Y0201562D01*
X0066609Y0201524D01*
X0066512Y0201490D01*
X0066413Y0201459D01*
X0066313Y0201433D01*
X0066213Y0201410D01*
X0066111Y0201391D01*
X0066009Y0201375D01*
X0065906Y0201364D01*
X0065803Y0201357D01*
X0065700Y0201353D01*
X0065700Y0201428D01*
X0065802Y0201432D01*
X0065903Y0201439D01*
X0066004Y0201450D01*
X0066105Y0201466D01*
X0066204Y0201485D01*
X0066304Y0201507D01*
X0066402Y0201534D01*
X0066499Y0201564D01*
X0066594Y0201598D01*
X0066689Y0201636D01*
X0066782Y0201677D01*
X0066873Y0201722D01*
X0066963Y0201771D01*
X0067050Y0201822D01*
X0067136Y0201877D01*
X0067219Y0201936D01*
X0067300Y0201997D01*
X0067378Y0202062D01*
X0067454Y0202129D01*
X0067528Y0202199D01*
X0067599Y0202273D01*
X0067666Y0202348D01*
X0067731Y0202427D01*
X0067793Y0202507D01*
X0067852Y0202590D01*
X0067907Y0202676D01*
X0067959Y0202763D01*
X0068008Y0202852D01*
X0068053Y0202943D01*
X0068095Y0203036D01*
X0068133Y0203130D01*
X0068167Y0203226D01*
X0068198Y0203323D01*
X0068225Y0203421D01*
X0068248Y0203520D01*
X0068268Y0203620D01*
X0068283Y0203720D01*
X0068295Y0203821D01*
X0068303Y0203923D01*
X0068307Y0204024D01*
X0068307Y0204126D01*
X0068303Y0204227D01*
X0068295Y0204329D01*
X0068283Y0204430D01*
X0068268Y0204530D01*
X0068248Y0204630D01*
X0068225Y0204729D01*
X0068198Y0204827D01*
X0068167Y0204924D01*
X0068133Y0205020D01*
X0068095Y0205114D01*
X0068053Y0205207D01*
X0068008Y0205298D01*
X0067959Y0205387D01*
X0067907Y0205474D01*
X0067852Y0205560D01*
X0067793Y0205643D01*
X0067731Y0205723D01*
X0067666Y0205802D01*
X0067599Y0205877D01*
X0067528Y0205951D01*
X0067454Y0206021D01*
X0067378Y0206088D01*
X0067300Y0206153D01*
X0067219Y0206214D01*
X0067136Y0206273D01*
X0067050Y0206328D01*
X0066963Y0206379D01*
X0066873Y0206428D01*
X0066782Y0206473D01*
X0066689Y0206514D01*
X0066594Y0206552D01*
X0066499Y0206586D01*
X0066402Y0206616D01*
X0066304Y0206643D01*
X0066204Y0206665D01*
X0066105Y0206684D01*
X0066004Y0206700D01*
X0065903Y0206711D01*
X0065802Y0206718D01*
X0065700Y0206722D01*
X0065700Y0206647D01*
X0065800Y0206643D01*
X0065900Y0206636D01*
X0065999Y0206625D01*
X0066098Y0206609D01*
X0066196Y0206591D01*
X0066293Y0206568D01*
X0066390Y0206541D01*
X0066485Y0206511D01*
X0066579Y0206477D01*
X0066672Y0206440D01*
X0066763Y0206398D01*
X0066853Y0206354D01*
X0066940Y0206306D01*
X0067026Y0206254D01*
X0067110Y0206200D01*
X0067191Y0206142D01*
X0067270Y0206081D01*
X0067347Y0206016D01*
X0067421Y0205949D01*
X0067493Y0205879D01*
X0067562Y0205807D01*
X0067627Y0205732D01*
X0067690Y0205654D01*
X0067750Y0205574D01*
X0067807Y0205491D01*
X0067860Y0205407D01*
X0067910Y0205320D01*
X0067957Y0205232D01*
X0068000Y0205142D01*
X0068040Y0205050D01*
X0068076Y0204957D01*
X0068109Y0204862D01*
X0068137Y0204766D01*
X0068162Y0204670D01*
X0068184Y0204572D01*
X0068201Y0204473D01*
X0068215Y0204374D01*
X0068224Y0204275D01*
X0068230Y0204175D01*
X0068232Y0204075D01*
X0068230Y0203975D01*
X0068224Y0203875D01*
X0068215Y0203776D01*
X0068201Y0203677D01*
X0068184Y0203578D01*
X0068162Y0203480D01*
X0068137Y0203384D01*
X0068109Y0203288D01*
X0068076Y0203193D01*
X0068040Y0203100D01*
X0068000Y0203008D01*
X0067957Y0202918D01*
X0067910Y0202830D01*
X0067860Y0202743D01*
X0067807Y0202659D01*
X0067750Y0202576D01*
X0067690Y0202496D01*
X0067627Y0202418D01*
X0067562Y0202343D01*
X0067493Y0202271D01*
X0067421Y0202201D01*
X0067347Y0202134D01*
X0067270Y0202069D01*
X0067191Y0202008D01*
X0067110Y0201950D01*
X0067026Y0201896D01*
X0066940Y0201844D01*
X0066853Y0201796D01*
X0066763Y0201752D01*
X0066672Y0201710D01*
X0066579Y0201673D01*
X0066485Y0201639D01*
X0066390Y0201609D01*
X0066293Y0201582D01*
X0066196Y0201559D01*
X0066098Y0201541D01*
X0065999Y0201525D01*
X0065900Y0201514D01*
X0065800Y0201507D01*
X0065700Y0201503D01*
X0065700Y0201578D01*
X0065799Y0201582D01*
X0065899Y0201589D01*
X0065998Y0201601D01*
X0066096Y0201616D01*
X0066194Y0201636D01*
X0066290Y0201659D01*
X0066386Y0201686D01*
X0066481Y0201717D01*
X0066574Y0201751D01*
X0066666Y0201790D01*
X0066756Y0201832D01*
X0066845Y0201877D01*
X0066932Y0201926D01*
X0067016Y0201978D01*
X0067099Y0202034D01*
X0067179Y0202093D01*
X0067257Y0202155D01*
X0067332Y0202220D01*
X0067404Y0202288D01*
X0067474Y0202359D01*
X0067541Y0202433D01*
X0067605Y0202509D01*
X0067666Y0202588D01*
X0067724Y0202669D01*
X0067778Y0202753D01*
X0067829Y0202838D01*
X0067877Y0202925D01*
X0067921Y0203015D01*
X0067961Y0203106D01*
X0067998Y0203198D01*
X0068031Y0203292D01*
X0068060Y0203387D01*
X0068086Y0203483D01*
X0068108Y0203581D01*
X0068125Y0203679D01*
X0068139Y0203777D01*
X0068149Y0203876D01*
X0068155Y0203975D01*
X0068157Y0204075D01*
X0068155Y0204175D01*
X0068149Y0204274D01*
X0068139Y0204373D01*
X0068125Y0204471D01*
X0068108Y0204569D01*
X0068086Y0204667D01*
X0068060Y0204763D01*
X0068031Y0204858D01*
X0067998Y0204952D01*
X0067961Y0205044D01*
X0067921Y0205135D01*
X0067877Y0205225D01*
X0067829Y0205312D01*
X0067778Y0205397D01*
X0067724Y0205481D01*
X0067666Y0205562D01*
X0067605Y0205641D01*
X0067541Y0205717D01*
X0067474Y0205791D01*
X0067404Y0205862D01*
X0067332Y0205930D01*
X0067257Y0205995D01*
X0067179Y0206057D01*
X0067099Y0206116D01*
X0067016Y0206172D01*
X0066932Y0206224D01*
X0066845Y0206273D01*
X0066756Y0206318D01*
X0066666Y0206360D01*
X0066574Y0206399D01*
X0066481Y0206433D01*
X0066386Y0206464D01*
X0066290Y0206491D01*
X0066194Y0206514D01*
X0066096Y0206534D01*
X0065998Y0206549D01*
X0065899Y0206561D01*
X0065799Y0206568D01*
X0065700Y0206572D01*
X0065700Y0206497D01*
X0065798Y0206493D01*
X0065895Y0206486D01*
X0065992Y0206474D01*
X0066089Y0206459D01*
X0066185Y0206439D01*
X0066280Y0206416D01*
X0066374Y0206389D01*
X0066467Y0206359D01*
X0066558Y0206324D01*
X0066648Y0206286D01*
X0066737Y0206245D01*
X0066823Y0206199D01*
X0066908Y0206151D01*
X0066991Y0206099D01*
X0067071Y0206043D01*
X0067150Y0205985D01*
X0067226Y0205923D01*
X0067299Y0205858D01*
X0067369Y0205791D01*
X0067437Y0205720D01*
X0067502Y0205647D01*
X0067564Y0205572D01*
X0067623Y0205494D01*
X0067679Y0205413D01*
X0067731Y0205331D01*
X0067780Y0205246D01*
X0067826Y0205159D01*
X0067868Y0205071D01*
X0067906Y0204981D01*
X0067941Y0204890D01*
X0067972Y0204797D01*
X0067999Y0204703D01*
X0068023Y0204608D01*
X0068042Y0204513D01*
X0068058Y0204416D01*
X0068070Y0204319D01*
X0068078Y0204222D01*
X0068082Y0204124D01*
X0068082Y0204026D01*
X0068078Y0203928D01*
X0068070Y0203831D01*
X0068058Y0203734D01*
X0068042Y0203637D01*
X0068023Y0203542D01*
X0067999Y0203447D01*
X0067972Y0203353D01*
X0067941Y0203260D01*
X0067906Y0203169D01*
X0067868Y0203079D01*
X0067826Y0202991D01*
X0067780Y0202904D01*
X0067731Y0202819D01*
X0067679Y0202737D01*
X0067623Y0202656D01*
X0067564Y0202578D01*
X0067502Y0202503D01*
X0067437Y0202430D01*
X0067369Y0202359D01*
X0067299Y0202292D01*
X0067226Y0202227D01*
X0067150Y0202165D01*
X0067071Y0202107D01*
X0066991Y0202051D01*
X0066908Y0201999D01*
X0066823Y0201951D01*
X0066737Y0201905D01*
X0066648Y0201864D01*
X0066558Y0201826D01*
X0066467Y0201791D01*
X0066374Y0201761D01*
X0066280Y0201734D01*
X0066185Y0201711D01*
X0066089Y0201691D01*
X0065992Y0201676D01*
X0065895Y0201664D01*
X0065798Y0201657D01*
X0065700Y0201653D01*
X0065700Y0201728D01*
X0065796Y0201732D01*
X0065892Y0201739D01*
X0065987Y0201751D01*
X0066082Y0201766D01*
X0066176Y0201785D01*
X0066269Y0201808D01*
X0066361Y0201835D01*
X0066452Y0201866D01*
X0066542Y0201900D01*
X0066630Y0201938D01*
X0066716Y0201979D01*
X0066801Y0202024D01*
X0066884Y0202072D01*
X0066965Y0202124D01*
X0067043Y0202179D01*
X0067120Y0202237D01*
X0067194Y0202298D01*
X0067265Y0202363D01*
X0067334Y0202430D01*
X0067400Y0202499D01*
X0067462Y0202572D01*
X0067522Y0202647D01*
X0067579Y0202724D01*
X0067633Y0202804D01*
X0067683Y0202885D01*
X0067730Y0202969D01*
X0067774Y0203055D01*
X0067814Y0203142D01*
X0067850Y0203231D01*
X0067883Y0203321D01*
X0067912Y0203412D01*
X0067937Y0203505D01*
X0067958Y0203599D01*
X0067976Y0203693D01*
X0067989Y0203788D01*
X0067999Y0203883D01*
X0068005Y0203979D01*
X0068007Y0204075D01*
X0068005Y0204171D01*
X0067999Y0204267D01*
X0067989Y0204362D01*
X0067976Y0204457D01*
X0067958Y0204551D01*
X0067937Y0204645D01*
X0067912Y0204738D01*
X0067883Y0204829D01*
X0067850Y0204919D01*
X0067814Y0205008D01*
X0067774Y0205095D01*
X0067730Y0205181D01*
X0067683Y0205265D01*
X0067633Y0205346D01*
X0067579Y0205426D01*
X0067522Y0205503D01*
X0067462Y0205578D01*
X0067400Y0205651D01*
X0067334Y0205720D01*
X0067265Y0205787D01*
X0067194Y0205852D01*
X0067120Y0205913D01*
X0067043Y0205971D01*
X0066965Y0206026D01*
X0066884Y0206078D01*
X0066801Y0206126D01*
X0066716Y0206171D01*
X0066630Y0206212D01*
X0066542Y0206250D01*
X0066452Y0206284D01*
X0066361Y0206315D01*
X0066269Y0206342D01*
X0066176Y0206365D01*
X0066082Y0206384D01*
X0065987Y0206399D01*
X0065892Y0206411D01*
X0065796Y0206418D01*
X0065700Y0206422D01*
X0065700Y0206347D01*
X0065794Y0206343D01*
X0065888Y0206336D01*
X0065981Y0206324D01*
X0066074Y0206309D01*
X0066166Y0206290D01*
X0066258Y0206267D01*
X0066348Y0206240D01*
X0066437Y0206210D01*
X0066525Y0206176D01*
X0066611Y0206138D01*
X0066695Y0206097D01*
X0066778Y0206053D01*
X0066859Y0206005D01*
X0066938Y0205953D01*
X0067015Y0205899D01*
X0067089Y0205841D01*
X0067161Y0205781D01*
X0067230Y0205717D01*
X0067297Y0205650D01*
X0067361Y0205581D01*
X0067422Y0205510D01*
X0067480Y0205435D01*
X0067534Y0205359D01*
X0067586Y0205280D01*
X0067634Y0205199D01*
X0067679Y0205117D01*
X0067721Y0205032D01*
X0067758Y0204946D01*
X0067793Y0204858D01*
X0067823Y0204769D01*
X0067850Y0204679D01*
X0067873Y0204588D01*
X0067893Y0204496D01*
X0067908Y0204403D01*
X0067920Y0204310D01*
X0067928Y0204216D01*
X0067932Y0204122D01*
X0067932Y0204028D01*
X0067928Y0203934D01*
X0067920Y0203840D01*
X0067908Y0203747D01*
X0067893Y0203654D01*
X0067873Y0203562D01*
X0067850Y0203471D01*
X0067823Y0203381D01*
X0067793Y0203292D01*
X0067758Y0203204D01*
X0067721Y0203118D01*
X0067679Y0203033D01*
X0067634Y0202951D01*
X0067586Y0202870D01*
X0067534Y0202791D01*
X0067480Y0202715D01*
X0067422Y0202640D01*
X0067361Y0202569D01*
X0067297Y0202500D01*
X0067230Y0202433D01*
X0067161Y0202369D01*
X0067089Y0202309D01*
X0067015Y0202251D01*
X0066938Y0202197D01*
X0066859Y0202145D01*
X0066778Y0202097D01*
X0066695Y0202053D01*
X0066611Y0202012D01*
X0066525Y0201974D01*
X0066437Y0201940D01*
X0066348Y0201910D01*
X0066258Y0201883D01*
X0066166Y0201860D01*
X0066074Y0201841D01*
X0065981Y0201826D01*
X0065888Y0201814D01*
X0065794Y0201807D01*
X0065700Y0201803D01*
X0065700Y0201878D01*
X0065792Y0201882D01*
X0065884Y0201889D01*
X0065975Y0201901D01*
X0066066Y0201916D01*
X0066157Y0201935D01*
X0066246Y0201958D01*
X0066334Y0201984D01*
X0066421Y0202014D01*
X0066507Y0202048D01*
X0066591Y0202085D01*
X0066674Y0202126D01*
X0066755Y0202170D01*
X0066834Y0202218D01*
X0066911Y0202269D01*
X0066985Y0202323D01*
X0067058Y0202380D01*
X0067128Y0202440D01*
X0067195Y0202503D01*
X0067260Y0202569D01*
X0067321Y0202637D01*
X0067380Y0202708D01*
X0067436Y0202782D01*
X0067489Y0202857D01*
X0067538Y0202935D01*
X0067584Y0203015D01*
X0067627Y0203097D01*
X0067666Y0203180D01*
X0067702Y0203265D01*
X0067734Y0203351D01*
X0067763Y0203439D01*
X0067788Y0203528D01*
X0067809Y0203617D01*
X0067826Y0203708D01*
X0067840Y0203799D01*
X0067849Y0203891D01*
X0067855Y0203983D01*
X0067857Y0204075D01*
X0067855Y0204167D01*
X0067849Y0204259D01*
X0067840Y0204351D01*
X0067826Y0204442D01*
X0067809Y0204533D01*
X0067788Y0204622D01*
X0067763Y0204711D01*
X0067734Y0204799D01*
X0067702Y0204885D01*
X0067666Y0204970D01*
X0067627Y0205053D01*
X0067584Y0205135D01*
X0067538Y0205215D01*
X0067489Y0205293D01*
X0067436Y0205368D01*
X0067380Y0205442D01*
X0067321Y0205513D01*
X0067260Y0205581D01*
X0067195Y0205647D01*
X0067128Y0205710D01*
X0067058Y0205770D01*
X0066985Y0205827D01*
X0066911Y0205881D01*
X0066834Y0205932D01*
X0066755Y0205980D01*
X0066674Y0206024D01*
X0066591Y0206065D01*
X0066507Y0206102D01*
X0066421Y0206136D01*
X0066334Y0206166D01*
X0066246Y0206192D01*
X0066157Y0206215D01*
X0066066Y0206234D01*
X0065975Y0206249D01*
X0065884Y0206261D01*
X0065792Y0206268D01*
X0065700Y0206272D01*
X0065700Y0206197D01*
X0065791Y0206193D01*
X0065883Y0206185D01*
X0065973Y0206174D01*
X0066063Y0206158D01*
X0066153Y0206139D01*
X0066241Y0206116D01*
X0066329Y0206089D01*
X0066415Y0206058D01*
X0066500Y0206024D01*
X0066583Y0205986D01*
X0066664Y0205944D01*
X0066744Y0205899D01*
X0066822Y0205851D01*
X0066897Y0205799D01*
X0066970Y0205744D01*
X0067041Y0205686D01*
X0067109Y0205625D01*
X0067175Y0205561D01*
X0067237Y0205495D01*
X0067297Y0205425D01*
X0067354Y0205354D01*
X0067407Y0205279D01*
X0067457Y0205203D01*
X0067504Y0205124D01*
X0067548Y0205044D01*
X0067588Y0204962D01*
X0067624Y0204878D01*
X0067657Y0204792D01*
X0067686Y0204706D01*
X0067711Y0204618D01*
X0067733Y0204529D01*
X0067751Y0204439D01*
X0067764Y0204349D01*
X0067774Y0204258D01*
X0067780Y0204166D01*
X0067782Y0204075D01*
X0067780Y0203984D01*
X0067774Y0203892D01*
X0067764Y0203801D01*
X0067751Y0203711D01*
X0067733Y0203621D01*
X0067711Y0203532D01*
X0067686Y0203444D01*
X0067657Y0203358D01*
X0067624Y0203272D01*
X0067588Y0203188D01*
X0067548Y0203106D01*
X0067504Y0203026D01*
X0067457Y0202947D01*
X0067407Y0202871D01*
X0067354Y0202796D01*
X0067297Y0202725D01*
X0067237Y0202655D01*
X0067175Y0202589D01*
X0067109Y0202525D01*
X0067041Y0202464D01*
X0066970Y0202406D01*
X0066897Y0202351D01*
X0066822Y0202299D01*
X0066744Y0202251D01*
X0066664Y0202206D01*
X0066583Y0202164D01*
X0066500Y0202126D01*
X0066415Y0202092D01*
X0066329Y0202061D01*
X0066241Y0202034D01*
X0066153Y0202011D01*
X0066063Y0201992D01*
X0065973Y0201976D01*
X0065883Y0201965D01*
X0065791Y0201957D01*
X0065700Y0201953D01*
X0065700Y0202028D01*
X0065789Y0202032D01*
X0065878Y0202040D01*
X0065967Y0202051D01*
X0066055Y0202067D01*
X0066143Y0202086D01*
X0066229Y0202109D01*
X0066314Y0202135D01*
X0066399Y0202166D01*
X0066481Y0202200D01*
X0066562Y0202238D01*
X0066642Y0202279D01*
X0066719Y0202323D01*
X0066795Y0202371D01*
X0066868Y0202423D01*
X0066939Y0202477D01*
X0067008Y0202534D01*
X0067074Y0202595D01*
X0067137Y0202658D01*
X0067198Y0202724D01*
X0067255Y0202792D01*
X0067310Y0202863D01*
X0067361Y0202936D01*
X0067409Y0203012D01*
X0067454Y0203089D01*
X0067495Y0203168D01*
X0067533Y0203249D01*
X0067567Y0203332D01*
X0067598Y0203416D01*
X0067625Y0203501D01*
X0067648Y0203588D01*
X0067668Y0203675D01*
X0067683Y0203763D01*
X0067695Y0203852D01*
X0067703Y0203941D01*
X0067707Y0204030D01*
X0067707Y0204120D01*
X0067703Y0204209D01*
X0067695Y0204298D01*
X0067683Y0204387D01*
X0067668Y0204475D01*
X0067648Y0204562D01*
X0067625Y0204649D01*
X0067598Y0204734D01*
X0067567Y0204818D01*
X0067533Y0204901D01*
X0067495Y0204982D01*
X0067454Y0205061D01*
X0067409Y0205138D01*
X0067361Y0205214D01*
X0067310Y0205287D01*
X0067255Y0205358D01*
X0067198Y0205426D01*
X0067137Y0205492D01*
X0067074Y0205555D01*
X0067008Y0205616D01*
X0066939Y0205673D01*
X0066868Y0205727D01*
X0066795Y0205779D01*
X0066719Y0205827D01*
X0066642Y0205871D01*
X0066562Y0205912D01*
X0066481Y0205950D01*
X0066399Y0205984D01*
X0066314Y0206015D01*
X0066229Y0206041D01*
X0066143Y0206064D01*
X0066055Y0206083D01*
X0065967Y0206099D01*
X0065878Y0206110D01*
X0065789Y0206118D01*
X0065700Y0206122D01*
X0092699Y0201354D02*
X0092699Y0202074D01*
X0092700Y0202073D02*
X0092789Y0202077D01*
X0092877Y0202085D01*
X0092965Y0202096D01*
X0093052Y0202112D01*
X0093139Y0202131D01*
X0093224Y0202154D01*
X0093309Y0202181D01*
X0093392Y0202212D01*
X0093474Y0202246D01*
X0093554Y0202284D01*
X0093633Y0202325D01*
X0093709Y0202370D01*
X0093784Y0202418D01*
X0093856Y0202470D01*
X0093926Y0202524D01*
X0093993Y0202582D01*
X0094058Y0202642D01*
X0094120Y0202706D01*
X0094180Y0202772D01*
X0094236Y0202840D01*
X0094289Y0202911D01*
X0094339Y0202985D01*
X0094386Y0203060D01*
X0094429Y0203137D01*
X0094469Y0203217D01*
X0094505Y0203298D01*
X0094538Y0203380D01*
X0094566Y0203464D01*
X0094592Y0203549D01*
X0094613Y0203635D01*
X0094631Y0203722D01*
X0094644Y0203810D01*
X0094654Y0203898D01*
X0094660Y0203986D01*
X0094662Y0204075D01*
X0094660Y0204164D01*
X0094654Y0204252D01*
X0094644Y0204340D01*
X0094631Y0204428D01*
X0094613Y0204515D01*
X0094592Y0204601D01*
X0094566Y0204686D01*
X0094538Y0204770D01*
X0094505Y0204852D01*
X0094469Y0204933D01*
X0094429Y0205013D01*
X0094386Y0205090D01*
X0094339Y0205165D01*
X0094289Y0205239D01*
X0094236Y0205310D01*
X0094180Y0205378D01*
X0094120Y0205444D01*
X0094058Y0205508D01*
X0093993Y0205568D01*
X0093926Y0205626D01*
X0093856Y0205680D01*
X0093784Y0205732D01*
X0093709Y0205780D01*
X0093633Y0205825D01*
X0093554Y0205866D01*
X0093474Y0205904D01*
X0093392Y0205938D01*
X0093309Y0205969D01*
X0093224Y0205996D01*
X0093139Y0206019D01*
X0093052Y0206038D01*
X0092965Y0206054D01*
X0092877Y0206065D01*
X0092789Y0206073D01*
X0092700Y0206077D01*
X0092699Y0206796D01*
X0092700Y0206797D01*
X0092803Y0206793D01*
X0092906Y0206786D01*
X0093009Y0206775D01*
X0093111Y0206759D01*
X0093213Y0206740D01*
X0093313Y0206717D01*
X0093413Y0206691D01*
X0093512Y0206660D01*
X0093609Y0206626D01*
X0093706Y0206588D01*
X0093800Y0206547D01*
X0093893Y0206502D01*
X0093984Y0206453D01*
X0094074Y0206401D01*
X0094161Y0206346D01*
X0094246Y0206287D01*
X0094329Y0206226D01*
X0094409Y0206161D01*
X0094487Y0206093D01*
X0094562Y0206022D01*
X0094635Y0205948D01*
X0094704Y0205872D01*
X0094771Y0205793D01*
X0094835Y0205712D01*
X0094895Y0205628D01*
X0094953Y0205542D01*
X0095007Y0205454D01*
X0095057Y0205364D01*
X0095105Y0205272D01*
X0095148Y0205179D01*
X0095188Y0205083D01*
X0095225Y0204987D01*
X0095257Y0204889D01*
X0095286Y0204790D01*
X0095312Y0204690D01*
X0095333Y0204588D01*
X0095351Y0204487D01*
X0095364Y0204384D01*
X0095374Y0204281D01*
X0095380Y0204178D01*
X0095382Y0204075D01*
X0095380Y0203972D01*
X0095374Y0203869D01*
X0095364Y0203766D01*
X0095351Y0203663D01*
X0095333Y0203562D01*
X0095312Y0203460D01*
X0095286Y0203360D01*
X0095257Y0203261D01*
X0095225Y0203163D01*
X0095188Y0203067D01*
X0095148Y0202971D01*
X0095105Y0202878D01*
X0095057Y0202786D01*
X0095007Y0202696D01*
X0094953Y0202608D01*
X0094895Y0202522D01*
X0094835Y0202438D01*
X0094771Y0202357D01*
X0094704Y0202278D01*
X0094635Y0202202D01*
X0094562Y0202128D01*
X0094487Y0202057D01*
X0094409Y0201989D01*
X0094329Y0201924D01*
X0094246Y0201863D01*
X0094161Y0201804D01*
X0094074Y0201749D01*
X0093984Y0201697D01*
X0093893Y0201648D01*
X0093800Y0201603D01*
X0093706Y0201562D01*
X0093609Y0201524D01*
X0093512Y0201490D01*
X0093413Y0201459D01*
X0093313Y0201433D01*
X0093213Y0201410D01*
X0093111Y0201391D01*
X0093009Y0201375D01*
X0092906Y0201364D01*
X0092803Y0201357D01*
X0092700Y0201353D01*
X0092700Y0201428D01*
X0092802Y0201432D01*
X0092903Y0201439D01*
X0093004Y0201450D01*
X0093105Y0201466D01*
X0093204Y0201485D01*
X0093304Y0201507D01*
X0093402Y0201534D01*
X0093499Y0201564D01*
X0093594Y0201598D01*
X0093689Y0201636D01*
X0093782Y0201677D01*
X0093873Y0201722D01*
X0093963Y0201771D01*
X0094050Y0201822D01*
X0094136Y0201877D01*
X0094219Y0201936D01*
X0094300Y0201997D01*
X0094378Y0202062D01*
X0094454Y0202129D01*
X0094528Y0202199D01*
X0094599Y0202273D01*
X0094666Y0202348D01*
X0094731Y0202427D01*
X0094793Y0202507D01*
X0094852Y0202590D01*
X0094907Y0202676D01*
X0094959Y0202763D01*
X0095008Y0202852D01*
X0095053Y0202943D01*
X0095095Y0203036D01*
X0095133Y0203130D01*
X0095167Y0203226D01*
X0095198Y0203323D01*
X0095225Y0203421D01*
X0095248Y0203520D01*
X0095268Y0203620D01*
X0095283Y0203720D01*
X0095295Y0203821D01*
X0095303Y0203923D01*
X0095307Y0204024D01*
X0095307Y0204126D01*
X0095303Y0204227D01*
X0095295Y0204329D01*
X0095283Y0204430D01*
X0095268Y0204530D01*
X0095248Y0204630D01*
X0095225Y0204729D01*
X0095198Y0204827D01*
X0095167Y0204924D01*
X0095133Y0205020D01*
X0095095Y0205114D01*
X0095053Y0205207D01*
X0095008Y0205298D01*
X0094959Y0205387D01*
X0094907Y0205474D01*
X0094852Y0205560D01*
X0094793Y0205643D01*
X0094731Y0205723D01*
X0094666Y0205802D01*
X0094599Y0205877D01*
X0094528Y0205951D01*
X0094454Y0206021D01*
X0094378Y0206088D01*
X0094300Y0206153D01*
X0094219Y0206214D01*
X0094136Y0206273D01*
X0094050Y0206328D01*
X0093963Y0206379D01*
X0093873Y0206428D01*
X0093782Y0206473D01*
X0093689Y0206514D01*
X0093594Y0206552D01*
X0093499Y0206586D01*
X0093402Y0206616D01*
X0093304Y0206643D01*
X0093204Y0206665D01*
X0093105Y0206684D01*
X0093004Y0206700D01*
X0092903Y0206711D01*
X0092802Y0206718D01*
X0092700Y0206722D01*
X0092700Y0206647D01*
X0092800Y0206643D01*
X0092900Y0206636D01*
X0092999Y0206625D01*
X0093098Y0206609D01*
X0093196Y0206591D01*
X0093293Y0206568D01*
X0093390Y0206541D01*
X0093485Y0206511D01*
X0093579Y0206477D01*
X0093672Y0206440D01*
X0093763Y0206398D01*
X0093853Y0206354D01*
X0093940Y0206306D01*
X0094026Y0206254D01*
X0094110Y0206200D01*
X0094191Y0206142D01*
X0094270Y0206081D01*
X0094347Y0206016D01*
X0094421Y0205949D01*
X0094493Y0205879D01*
X0094562Y0205807D01*
X0094627Y0205732D01*
X0094690Y0205654D01*
X0094750Y0205574D01*
X0094807Y0205491D01*
X0094860Y0205407D01*
X0094910Y0205320D01*
X0094957Y0205232D01*
X0095000Y0205142D01*
X0095040Y0205050D01*
X0095076Y0204957D01*
X0095109Y0204862D01*
X0095137Y0204766D01*
X0095162Y0204670D01*
X0095184Y0204572D01*
X0095201Y0204473D01*
X0095215Y0204374D01*
X0095224Y0204275D01*
X0095230Y0204175D01*
X0095232Y0204075D01*
X0095230Y0203975D01*
X0095224Y0203875D01*
X0095215Y0203776D01*
X0095201Y0203677D01*
X0095184Y0203578D01*
X0095162Y0203480D01*
X0095137Y0203384D01*
X0095109Y0203288D01*
X0095076Y0203193D01*
X0095040Y0203100D01*
X0095000Y0203008D01*
X0094957Y0202918D01*
X0094910Y0202830D01*
X0094860Y0202743D01*
X0094807Y0202659D01*
X0094750Y0202576D01*
X0094690Y0202496D01*
X0094627Y0202418D01*
X0094562Y0202343D01*
X0094493Y0202271D01*
X0094421Y0202201D01*
X0094347Y0202134D01*
X0094270Y0202069D01*
X0094191Y0202008D01*
X0094110Y0201950D01*
X0094026Y0201896D01*
X0093940Y0201844D01*
X0093853Y0201796D01*
X0093763Y0201752D01*
X0093672Y0201710D01*
X0093579Y0201673D01*
X0093485Y0201639D01*
X0093390Y0201609D01*
X0093293Y0201582D01*
X0093196Y0201559D01*
X0093098Y0201541D01*
X0092999Y0201525D01*
X0092900Y0201514D01*
X0092800Y0201507D01*
X0092700Y0201503D01*
X0092700Y0201578D01*
X0092799Y0201582D01*
X0092899Y0201589D01*
X0092998Y0201601D01*
X0093096Y0201616D01*
X0093194Y0201636D01*
X0093290Y0201659D01*
X0093386Y0201686D01*
X0093481Y0201717D01*
X0093574Y0201751D01*
X0093666Y0201790D01*
X0093756Y0201832D01*
X0093845Y0201877D01*
X0093932Y0201926D01*
X0094016Y0201978D01*
X0094099Y0202034D01*
X0094179Y0202093D01*
X0094257Y0202155D01*
X0094332Y0202220D01*
X0094404Y0202288D01*
X0094474Y0202359D01*
X0094541Y0202433D01*
X0094605Y0202509D01*
X0094666Y0202588D01*
X0094724Y0202669D01*
X0094778Y0202753D01*
X0094829Y0202838D01*
X0094877Y0202925D01*
X0094921Y0203015D01*
X0094961Y0203106D01*
X0094998Y0203198D01*
X0095031Y0203292D01*
X0095060Y0203387D01*
X0095086Y0203483D01*
X0095108Y0203581D01*
X0095125Y0203679D01*
X0095139Y0203777D01*
X0095149Y0203876D01*
X0095155Y0203975D01*
X0095157Y0204075D01*
X0095155Y0204175D01*
X0095149Y0204274D01*
X0095139Y0204373D01*
X0095125Y0204471D01*
X0095108Y0204569D01*
X0095086Y0204667D01*
X0095060Y0204763D01*
X0095031Y0204858D01*
X0094998Y0204952D01*
X0094961Y0205044D01*
X0094921Y0205135D01*
X0094877Y0205225D01*
X0094829Y0205312D01*
X0094778Y0205397D01*
X0094724Y0205481D01*
X0094666Y0205562D01*
X0094605Y0205641D01*
X0094541Y0205717D01*
X0094474Y0205791D01*
X0094404Y0205862D01*
X0094332Y0205930D01*
X0094257Y0205995D01*
X0094179Y0206057D01*
X0094099Y0206116D01*
X0094016Y0206172D01*
X0093932Y0206224D01*
X0093845Y0206273D01*
X0093756Y0206318D01*
X0093666Y0206360D01*
X0093574Y0206399D01*
X0093481Y0206433D01*
X0093386Y0206464D01*
X0093290Y0206491D01*
X0093194Y0206514D01*
X0093096Y0206534D01*
X0092998Y0206549D01*
X0092899Y0206561D01*
X0092799Y0206568D01*
X0092700Y0206572D01*
X0092700Y0206497D01*
X0092798Y0206493D01*
X0092895Y0206486D01*
X0092992Y0206474D01*
X0093089Y0206459D01*
X0093185Y0206439D01*
X0093280Y0206416D01*
X0093374Y0206389D01*
X0093467Y0206359D01*
X0093558Y0206324D01*
X0093648Y0206286D01*
X0093737Y0206245D01*
X0093823Y0206199D01*
X0093908Y0206151D01*
X0093991Y0206099D01*
X0094071Y0206043D01*
X0094150Y0205985D01*
X0094226Y0205923D01*
X0094299Y0205858D01*
X0094369Y0205791D01*
X0094437Y0205720D01*
X0094502Y0205647D01*
X0094564Y0205572D01*
X0094623Y0205494D01*
X0094679Y0205413D01*
X0094731Y0205331D01*
X0094780Y0205246D01*
X0094826Y0205159D01*
X0094868Y0205071D01*
X0094906Y0204981D01*
X0094941Y0204890D01*
X0094972Y0204797D01*
X0094999Y0204703D01*
X0095023Y0204608D01*
X0095042Y0204513D01*
X0095058Y0204416D01*
X0095070Y0204319D01*
X0095078Y0204222D01*
X0095082Y0204124D01*
X0095082Y0204026D01*
X0095078Y0203928D01*
X0095070Y0203831D01*
X0095058Y0203734D01*
X0095042Y0203637D01*
X0095023Y0203542D01*
X0094999Y0203447D01*
X0094972Y0203353D01*
X0094941Y0203260D01*
X0094906Y0203169D01*
X0094868Y0203079D01*
X0094826Y0202991D01*
X0094780Y0202904D01*
X0094731Y0202819D01*
X0094679Y0202737D01*
X0094623Y0202656D01*
X0094564Y0202578D01*
X0094502Y0202503D01*
X0094437Y0202430D01*
X0094369Y0202359D01*
X0094299Y0202292D01*
X0094226Y0202227D01*
X0094150Y0202165D01*
X0094071Y0202107D01*
X0093991Y0202051D01*
X0093908Y0201999D01*
X0093823Y0201951D01*
X0093737Y0201905D01*
X0093648Y0201864D01*
X0093558Y0201826D01*
X0093467Y0201791D01*
X0093374Y0201761D01*
X0093280Y0201734D01*
X0093185Y0201711D01*
X0093089Y0201691D01*
X0092992Y0201676D01*
X0092895Y0201664D01*
X0092798Y0201657D01*
X0092700Y0201653D01*
X0092700Y0201728D01*
X0092796Y0201732D01*
X0092892Y0201739D01*
X0092987Y0201751D01*
X0093082Y0201766D01*
X0093176Y0201785D01*
X0093269Y0201808D01*
X0093361Y0201835D01*
X0093452Y0201866D01*
X0093542Y0201900D01*
X0093630Y0201938D01*
X0093716Y0201979D01*
X0093801Y0202024D01*
X0093884Y0202072D01*
X0093965Y0202124D01*
X0094043Y0202179D01*
X0094120Y0202237D01*
X0094194Y0202298D01*
X0094265Y0202363D01*
X0094334Y0202430D01*
X0094400Y0202499D01*
X0094462Y0202572D01*
X0094522Y0202647D01*
X0094579Y0202724D01*
X0094633Y0202804D01*
X0094683Y0202885D01*
X0094730Y0202969D01*
X0094774Y0203055D01*
X0094814Y0203142D01*
X0094850Y0203231D01*
X0094883Y0203321D01*
X0094912Y0203412D01*
X0094937Y0203505D01*
X0094958Y0203599D01*
X0094976Y0203693D01*
X0094989Y0203788D01*
X0094999Y0203883D01*
X0095005Y0203979D01*
X0095007Y0204075D01*
X0095005Y0204171D01*
X0094999Y0204267D01*
X0094989Y0204362D01*
X0094976Y0204457D01*
X0094958Y0204551D01*
X0094937Y0204645D01*
X0094912Y0204738D01*
X0094883Y0204829D01*
X0094850Y0204919D01*
X0094814Y0205008D01*
X0094774Y0205095D01*
X0094730Y0205181D01*
X0094683Y0205265D01*
X0094633Y0205346D01*
X0094579Y0205426D01*
X0094522Y0205503D01*
X0094462Y0205578D01*
X0094400Y0205651D01*
X0094334Y0205720D01*
X0094265Y0205787D01*
X0094194Y0205852D01*
X0094120Y0205913D01*
X0094043Y0205971D01*
X0093965Y0206026D01*
X0093884Y0206078D01*
X0093801Y0206126D01*
X0093716Y0206171D01*
X0093630Y0206212D01*
X0093542Y0206250D01*
X0093452Y0206284D01*
X0093361Y0206315D01*
X0093269Y0206342D01*
X0093176Y0206365D01*
X0093082Y0206384D01*
X0092987Y0206399D01*
X0092892Y0206411D01*
X0092796Y0206418D01*
X0092700Y0206422D01*
X0092700Y0206347D01*
X0092794Y0206343D01*
X0092888Y0206336D01*
X0092981Y0206324D01*
X0093074Y0206309D01*
X0093166Y0206290D01*
X0093258Y0206267D01*
X0093348Y0206240D01*
X0093437Y0206210D01*
X0093525Y0206176D01*
X0093611Y0206138D01*
X0093695Y0206097D01*
X0093778Y0206053D01*
X0093859Y0206005D01*
X0093938Y0205953D01*
X0094015Y0205899D01*
X0094089Y0205841D01*
X0094161Y0205781D01*
X0094230Y0205717D01*
X0094297Y0205650D01*
X0094361Y0205581D01*
X0094422Y0205510D01*
X0094480Y0205435D01*
X0094534Y0205359D01*
X0094586Y0205280D01*
X0094634Y0205199D01*
X0094679Y0205117D01*
X0094721Y0205032D01*
X0094758Y0204946D01*
X0094793Y0204858D01*
X0094823Y0204769D01*
X0094850Y0204679D01*
X0094873Y0204588D01*
X0094893Y0204496D01*
X0094908Y0204403D01*
X0094920Y0204310D01*
X0094928Y0204216D01*
X0094932Y0204122D01*
X0094932Y0204028D01*
X0094928Y0203934D01*
X0094920Y0203840D01*
X0094908Y0203747D01*
X0094893Y0203654D01*
X0094873Y0203562D01*
X0094850Y0203471D01*
X0094823Y0203381D01*
X0094793Y0203292D01*
X0094758Y0203204D01*
X0094721Y0203118D01*
X0094679Y0203033D01*
X0094634Y0202951D01*
X0094586Y0202870D01*
X0094534Y0202791D01*
X0094480Y0202715D01*
X0094422Y0202640D01*
X0094361Y0202569D01*
X0094297Y0202500D01*
X0094230Y0202433D01*
X0094161Y0202369D01*
X0094089Y0202309D01*
X0094015Y0202251D01*
X0093938Y0202197D01*
X0093859Y0202145D01*
X0093778Y0202097D01*
X0093695Y0202053D01*
X0093611Y0202012D01*
X0093525Y0201974D01*
X0093437Y0201940D01*
X0093348Y0201910D01*
X0093258Y0201883D01*
X0093166Y0201860D01*
X0093074Y0201841D01*
X0092981Y0201826D01*
X0092888Y0201814D01*
X0092794Y0201807D01*
X0092700Y0201803D01*
X0092700Y0201878D01*
X0092792Y0201882D01*
X0092884Y0201889D01*
X0092975Y0201901D01*
X0093066Y0201916D01*
X0093157Y0201935D01*
X0093246Y0201958D01*
X0093334Y0201984D01*
X0093421Y0202014D01*
X0093507Y0202048D01*
X0093591Y0202085D01*
X0093674Y0202126D01*
X0093755Y0202170D01*
X0093834Y0202218D01*
X0093911Y0202269D01*
X0093985Y0202323D01*
X0094058Y0202380D01*
X0094128Y0202440D01*
X0094195Y0202503D01*
X0094260Y0202569D01*
X0094321Y0202637D01*
X0094380Y0202708D01*
X0094436Y0202782D01*
X0094489Y0202857D01*
X0094538Y0202935D01*
X0094584Y0203015D01*
X0094627Y0203097D01*
X0094666Y0203180D01*
X0094702Y0203265D01*
X0094734Y0203351D01*
X0094763Y0203439D01*
X0094788Y0203528D01*
X0094809Y0203617D01*
X0094826Y0203708D01*
X0094840Y0203799D01*
X0094849Y0203891D01*
X0094855Y0203983D01*
X0094857Y0204075D01*
X0094855Y0204167D01*
X0094849Y0204259D01*
X0094840Y0204351D01*
X0094826Y0204442D01*
X0094809Y0204533D01*
X0094788Y0204622D01*
X0094763Y0204711D01*
X0094734Y0204799D01*
X0094702Y0204885D01*
X0094666Y0204970D01*
X0094627Y0205053D01*
X0094584Y0205135D01*
X0094538Y0205215D01*
X0094489Y0205293D01*
X0094436Y0205368D01*
X0094380Y0205442D01*
X0094321Y0205513D01*
X0094260Y0205581D01*
X0094195Y0205647D01*
X0094128Y0205710D01*
X0094058Y0205770D01*
X0093985Y0205827D01*
X0093911Y0205881D01*
X0093834Y0205932D01*
X0093755Y0205980D01*
X0093674Y0206024D01*
X0093591Y0206065D01*
X0093507Y0206102D01*
X0093421Y0206136D01*
X0093334Y0206166D01*
X0093246Y0206192D01*
X0093157Y0206215D01*
X0093066Y0206234D01*
X0092975Y0206249D01*
X0092884Y0206261D01*
X0092792Y0206268D01*
X0092700Y0206272D01*
X0092700Y0206197D01*
X0092791Y0206193D01*
X0092883Y0206185D01*
X0092973Y0206174D01*
X0093063Y0206158D01*
X0093153Y0206139D01*
X0093241Y0206116D01*
X0093329Y0206089D01*
X0093415Y0206058D01*
X0093500Y0206024D01*
X0093583Y0205986D01*
X0093664Y0205944D01*
X0093744Y0205899D01*
X0093822Y0205851D01*
X0093897Y0205799D01*
X0093970Y0205744D01*
X0094041Y0205686D01*
X0094109Y0205625D01*
X0094175Y0205561D01*
X0094237Y0205495D01*
X0094297Y0205425D01*
X0094354Y0205354D01*
X0094407Y0205279D01*
X0094457Y0205203D01*
X0094504Y0205124D01*
X0094548Y0205044D01*
X0094588Y0204962D01*
X0094624Y0204878D01*
X0094657Y0204792D01*
X0094686Y0204706D01*
X0094711Y0204618D01*
X0094733Y0204529D01*
X0094751Y0204439D01*
X0094764Y0204349D01*
X0094774Y0204258D01*
X0094780Y0204166D01*
X0094782Y0204075D01*
X0094780Y0203984D01*
X0094774Y0203892D01*
X0094764Y0203801D01*
X0094751Y0203711D01*
X0094733Y0203621D01*
X0094711Y0203532D01*
X0094686Y0203444D01*
X0094657Y0203358D01*
X0094624Y0203272D01*
X0094588Y0203188D01*
X0094548Y0203106D01*
X0094504Y0203026D01*
X0094457Y0202947D01*
X0094407Y0202871D01*
X0094354Y0202796D01*
X0094297Y0202725D01*
X0094237Y0202655D01*
X0094175Y0202589D01*
X0094109Y0202525D01*
X0094041Y0202464D01*
X0093970Y0202406D01*
X0093897Y0202351D01*
X0093822Y0202299D01*
X0093744Y0202251D01*
X0093664Y0202206D01*
X0093583Y0202164D01*
X0093500Y0202126D01*
X0093415Y0202092D01*
X0093329Y0202061D01*
X0093241Y0202034D01*
X0093153Y0202011D01*
X0093063Y0201992D01*
X0092973Y0201976D01*
X0092883Y0201965D01*
X0092791Y0201957D01*
X0092700Y0201953D01*
X0092700Y0202028D01*
X0092789Y0202032D01*
X0092878Y0202040D01*
X0092967Y0202051D01*
X0093055Y0202067D01*
X0093143Y0202086D01*
X0093229Y0202109D01*
X0093314Y0202135D01*
X0093399Y0202166D01*
X0093481Y0202200D01*
X0093562Y0202238D01*
X0093642Y0202279D01*
X0093719Y0202323D01*
X0093795Y0202371D01*
X0093868Y0202423D01*
X0093939Y0202477D01*
X0094008Y0202534D01*
X0094074Y0202595D01*
X0094137Y0202658D01*
X0094198Y0202724D01*
X0094255Y0202792D01*
X0094310Y0202863D01*
X0094361Y0202936D01*
X0094409Y0203012D01*
X0094454Y0203089D01*
X0094495Y0203168D01*
X0094533Y0203249D01*
X0094567Y0203332D01*
X0094598Y0203416D01*
X0094625Y0203501D01*
X0094648Y0203588D01*
X0094668Y0203675D01*
X0094683Y0203763D01*
X0094695Y0203852D01*
X0094703Y0203941D01*
X0094707Y0204030D01*
X0094707Y0204120D01*
X0094703Y0204209D01*
X0094695Y0204298D01*
X0094683Y0204387D01*
X0094668Y0204475D01*
X0094648Y0204562D01*
X0094625Y0204649D01*
X0094598Y0204734D01*
X0094567Y0204818D01*
X0094533Y0204901D01*
X0094495Y0204982D01*
X0094454Y0205061D01*
X0094409Y0205138D01*
X0094361Y0205214D01*
X0094310Y0205287D01*
X0094255Y0205358D01*
X0094198Y0205426D01*
X0094137Y0205492D01*
X0094074Y0205555D01*
X0094008Y0205616D01*
X0093939Y0205673D01*
X0093868Y0205727D01*
X0093795Y0205779D01*
X0093719Y0205827D01*
X0093642Y0205871D01*
X0093562Y0205912D01*
X0093481Y0205950D01*
X0093399Y0205984D01*
X0093314Y0206015D01*
X0093229Y0206041D01*
X0093143Y0206064D01*
X0093055Y0206083D01*
X0092967Y0206099D01*
X0092878Y0206110D01*
X0092789Y0206118D01*
X0092700Y0206122D01*
M02*
