%
M48
M72
T01C0.01600
T02C0.02362
T03C0.03200
T04C0.03543
T05C0.03937
T06C0.04000
T07C0.04016
T08C0.05906
T09C0.09055
T10C0.11024
%
T01
X43299Y37075
X59299Y44075
X62299Y44075
X62299Y47075
X59299Y47075
X55299Y54075
X36799Y72575
X25299Y82075
X28799Y86575
X25299Y94075
X13799Y88575
X42299Y101075
X51299Y107075
X64299Y123075
X64299Y128075
X64299Y131575
X58299Y132575
X52299Y146575
X47299Y147075
X51799Y153075
X56799Y152075
X61299Y150075
X75299Y144075
X79299Y144075
X85799Y147575
X89799Y142075
X93799Y139575
X97299Y139575
X105299Y144075
X109299Y144075
X120299Y141075
X121299Y147075
X120299Y150075
X120299Y157075
X120299Y161075
X125299Y161075
X130299Y157075
X138299Y139075
X140299Y129075
X143299Y129075
X146299Y129075
X149299Y129075
X152299Y129075
X152299Y134075
X159799Y137575
X162299Y135075
X164299Y129075
X164299Y119075
X164299Y109075
X161299Y104075
X152299Y113075
X152299Y122075
X123299Y134075
X107299Y133075
X92299Y131075
X92299Y127075
X81299Y126575
X77799Y126575
X77299Y116075
X72299Y113575
X98299Y116075
X102299Y116075
X112799Y89075
X107799Y69575
X107799Y64575
X132299Y50075
X133299Y43075
X148299Y42075
X158299Y55075
X158299Y58075
X161299Y58075
X161299Y55075
X164299Y55075
X164299Y58075
X153299Y57075
X169299Y82075
X198299Y89075
X219299Y90075
X187299Y122075
X190299Y128575
X195799Y137575
X189299Y150075
X187299Y171075
X164299Y176075
X164299Y166075
X164299Y156075
X152299Y155575
X152299Y160075
X152299Y176075
X149299Y176075
X146299Y176075
X143299Y176075
X140299Y176075
X147299Y186075
X152299Y202575
X164299Y203075
X164299Y215075
X159299Y218075
X164299Y223075
X152299Y223075
X149299Y223075
X146299Y223075
X143299Y223075
X140299Y223075
X126299Y233075
X119799Y223575
X116799Y222575
X115299Y227575
X108299Y222575
X106299Y225075
X100299Y223575
X95299Y225075
X95299Y231075
X85299Y225075
X89299Y221075
X89299Y215575
X94622Y218752
X95299Y209075
X105299Y209075
X106299Y198075
X109799Y198075
X99799Y197075
X99299Y188575
X90299Y182575
X86799Y179075
X92299Y177075
X80299Y172075
X76299Y172075
X80799Y161075
X76799Y155575
X64299Y165575
X62799Y174075
X72799Y186575
X77799Y186575
X80299Y188575
X87799Y192075
X87799Y195075
X80299Y198075
X67799Y200575
X62299Y202075
X64799Y207575
X65799Y210575
X67299Y219075
X64299Y223575
X60299Y219075
X54799Y208075
X40299Y219075
X45299Y225075
X45299Y228075
X45299Y231075
X45299Y234075
X64299Y231075
X75299Y231075
X75299Y221075
X39299Y194075
X41299Y182075
X31799Y180575
X36799Y155575
X21299Y120575
X74799Y89075
X32299Y55075
X89299Y36075
X108299Y42075
X214299Y56075
X109299Y156075
X104299Y161075
X105299Y172075
X109299Y172075
X107299Y179075
X122299Y196075
X129299Y185075
X120299Y215075
X92299Y161075
X92299Y157075
X184799Y233075
X187299Y218075
X204299Y233075
X233299Y217075
X233299Y194075
T02
X60346Y31697
X41252Y31697
T03
X118799Y32075
X132799Y32075
X156299Y68075
X170299Y68075
T04
X166999Y25075
X160299Y25075
X153599Y25075
X146899Y25075
X173699Y25075
T05
X196299Y26075
X206299Y26075
X216299Y26075
X226299Y26075
X238299Y54075
X248299Y54075
X258299Y54075
X258299Y81075
X248299Y81075
X238299Y81075
X238299Y108075
X248299Y108075
X258299Y108075
X61528Y19768
X40071Y19768
X16157Y50217
X16157Y67933
X12299Y112075
X22299Y112075
X32299Y112075
X42299Y112075
X42299Y139075
X32299Y139075
X22299Y139075
X12299Y139075
X12299Y166075
X22299Y166075
X32299Y166075
X32299Y193075
X22299Y193075
X12299Y193075
T06
X126299Y84075
X126299Y64075
T07
X94689Y23075
X80909Y23075
X253299Y147295
X253299Y161075
X253299Y174854
T08
X26000Y72854
X26000Y45295
T09
X71067Y25555
X104531Y25555
X250819Y137453
X250819Y184697
T10
X21079Y26854
X21079Y219768
X249425Y219768
X249425Y26854
M30
