G75*
%MOIN*%
%OFA0B0*%
%FSLAX25Y25*%
%IPPOS*%
%LPD*%
%AMOC8*
5,1,8,0,0,1.08239X$1,22.5*
%
%ADD10R,0.06299X0.07087*%
%ADD11R,0.07087X0.06299*%
%ADD12R,0.06299X0.07098*%
%ADD13R,0.07098X0.06299*%
%ADD14R,0.18110X0.03150*%
%ADD15R,0.37008X0.42520*%
%ADD16R,0.22835X0.25197*%
%ADD17R,0.04724X0.08661*%
%ADD18R,0.02992X0.05000*%
%ADD19R,0.01575X0.07874*%
%ADD20R,0.03740X0.04331*%
%ADD21R,0.06693X0.09843*%
%ADD22R,0.03543X0.05906*%
%ADD23R,0.01575X0.03543*%
D10*
X0135787Y0106075D03*
X0135787Y0115075D03*
X0146811Y0115075D03*
X0146811Y0106075D03*
X0158287Y0089075D03*
X0169311Y0089075D03*
X0169787Y0137575D03*
X0180811Y0137575D03*
X0146811Y0153075D03*
X0146811Y0162075D03*
X0135787Y0162075D03*
X0135787Y0153075D03*
X0169787Y0184575D03*
X0180811Y0184575D03*
X0146811Y0200075D03*
X0146811Y0209075D03*
X0135787Y0209075D03*
X0135787Y0200075D03*
X0120811Y0231075D03*
X0109787Y0231075D03*
X0080811Y0231075D03*
X0069787Y0231075D03*
X0086787Y0159075D03*
X0097811Y0159075D03*
X0097811Y0129075D03*
X0086787Y0129075D03*
X0168787Y0231075D03*
X0179811Y0231075D03*
D11*
X0158299Y0223587D03*
X0158299Y0212563D03*
X0158299Y0203587D03*
X0158299Y0192563D03*
X0158299Y0176587D03*
X0158299Y0165563D03*
X0158299Y0156587D03*
X0158299Y0145563D03*
X0158299Y0129587D03*
X0158299Y0118563D03*
X0158299Y0109587D03*
X0158299Y0098563D03*
X0107299Y0138563D03*
X0107299Y0149587D03*
X0077299Y0149587D03*
X0077299Y0138563D03*
D12*
X0057898Y0158075D03*
X0057898Y0169075D03*
X0046701Y0169075D03*
X0046701Y0158075D03*
X0046701Y0180075D03*
X0046701Y0191075D03*
X0057898Y0191075D03*
X0057898Y0180075D03*
X0089701Y0231075D03*
X0100898Y0231075D03*
X0135701Y0217075D03*
X0146898Y0217075D03*
X0146898Y0192075D03*
X0135701Y0192075D03*
X0135701Y0170075D03*
X0146898Y0170075D03*
X0146898Y0145075D03*
X0135701Y0145075D03*
X0135701Y0123075D03*
X0146898Y0123075D03*
X0146898Y0098075D03*
X0135701Y0098075D03*
X0138701Y0050075D03*
X0149898Y0050075D03*
D13*
X0071299Y0054673D03*
X0071299Y0043476D03*
X0048299Y0045476D03*
X0039299Y0045476D03*
X0039299Y0056673D03*
X0048299Y0056673D03*
X0057299Y0104476D03*
X0066299Y0104476D03*
X0066299Y0115673D03*
X0057299Y0115673D03*
X0097299Y0171476D03*
X0097299Y0182673D03*
X0039299Y0213476D03*
X0039299Y0224673D03*
D14*
X0175488Y0223075D03*
X0175488Y0218075D03*
X0175488Y0213075D03*
X0175488Y0208075D03*
X0175488Y0203075D03*
X0175488Y0198075D03*
X0175488Y0193075D03*
X0175488Y0176075D03*
X0175488Y0171075D03*
X0175488Y0166075D03*
X0175488Y0161075D03*
X0175488Y0156075D03*
X0175488Y0151075D03*
X0175488Y0146075D03*
X0175488Y0129075D03*
X0175488Y0124075D03*
X0175488Y0119075D03*
X0175488Y0114075D03*
X0175488Y0109075D03*
X0175488Y0104075D03*
X0175488Y0099075D03*
D15*
X0211512Y0114075D03*
X0211512Y0161075D03*
X0211512Y0208075D03*
D16*
X0091299Y0051476D03*
D17*
X0082323Y0076280D03*
X0100276Y0076280D03*
D18*
X0054799Y0203075D03*
X0049799Y0203075D03*
X0049799Y0233075D03*
X0054799Y0233075D03*
D19*
X0045681Y0031382D03*
X0048240Y0031382D03*
X0050799Y0031382D03*
X0053358Y0031382D03*
X0055917Y0031382D03*
D20*
X0071299Y0064598D03*
X0071299Y0077551D03*
D21*
X0059299Y0076949D03*
X0059299Y0061201D03*
D22*
X0018646Y0081972D03*
X0011953Y0081972D03*
X0011953Y0094177D03*
X0018646Y0094177D03*
D23*
X0067622Y0192756D03*
X0070181Y0192756D03*
X0072740Y0192756D03*
X0075299Y0192756D03*
X0077858Y0192756D03*
X0080417Y0192756D03*
X0082976Y0192756D03*
X0094622Y0192756D03*
X0097181Y0192756D03*
X0099740Y0192756D03*
X0102299Y0192756D03*
X0104858Y0192756D03*
X0107417Y0192756D03*
X0109976Y0192756D03*
X0109976Y0215197D03*
X0107417Y0215197D03*
X0104858Y0215197D03*
X0102299Y0215197D03*
X0099740Y0215197D03*
X0097181Y0215197D03*
X0094622Y0215197D03*
X0082976Y0215197D03*
X0080417Y0215197D03*
X0077858Y0215197D03*
X0075299Y0215197D03*
X0072740Y0215197D03*
X0070181Y0215197D03*
X0067622Y0215197D03*
M02*
