G75*
%MOIN*%
%OFA0B0*%
%FSLAX25Y25*%
%IPPOS*%
%LPD*%
%AMOC8*
5,1,8,0,0,1.08239X$1,22.5*
%
%ADD10C,0.09555*%
%ADD11C,0.08100*%
%ADD12R,0.06799X0.07587*%
%ADD13R,0.07587X0.06799*%
%ADD14OC8,0.06800*%
%ADD15C,0.06800*%
%ADD16C,0.06406*%
%ADD17R,0.06799X0.07598*%
%ADD18R,0.07598X0.06799*%
%ADD19R,0.18610X0.03650*%
%ADD20R,0.37508X0.43020*%
%ADD21R,0.23335X0.25697*%
%ADD22R,0.05224X0.09161*%
%ADD23C,0.11524*%
%ADD24C,0.05815*%
%ADD25C,0.10500*%
%ADD26OC8,0.10500*%
%ADD27R,0.03492X0.05500*%
%ADD28R,0.02075X0.08374*%
%ADD29OC8,0.06406*%
%ADD30OC8,0.04043*%
%ADD31C,0.06406*%
%ADD32C,0.09358*%
%ADD33R,0.04240X0.04831*%
%ADD34R,0.07193X0.10343*%
%ADD35R,0.04043X0.06406*%
%ADD36R,0.02075X0.04043*%
%ADD37C,0.02900*%
D10*
X0071067Y0025555D03*
X0104531Y0025555D03*
X0250819Y0137453D03*
X0250819Y0184697D03*
D11*
X0249499Y0174854D02*
X0257099Y0174854D01*
X0257099Y0161075D02*
X0249499Y0161075D01*
X0249499Y0147295D02*
X0257099Y0147295D01*
X0094689Y0026875D02*
X0094689Y0019275D01*
X0080909Y0019275D02*
X0080909Y0026875D01*
D12*
X0158287Y0089075D03*
X0169311Y0089075D03*
X0146811Y0106075D03*
X0146811Y0115075D03*
X0135787Y0115075D03*
X0135787Y0106075D03*
X0169787Y0137575D03*
X0180811Y0137575D03*
X0146811Y0153075D03*
X0146811Y0162075D03*
X0135787Y0162075D03*
X0135787Y0153075D03*
X0169787Y0184575D03*
X0180811Y0184575D03*
X0146811Y0200075D03*
X0146811Y0209075D03*
X0135787Y0209075D03*
X0135787Y0200075D03*
X0120811Y0231075D03*
X0109787Y0231075D03*
X0080811Y0231075D03*
X0069787Y0231075D03*
X0086787Y0159075D03*
X0097811Y0159075D03*
X0097811Y0129075D03*
X0086787Y0129075D03*
X0168787Y0231075D03*
X0179811Y0231075D03*
D13*
X0158299Y0223587D03*
X0158299Y0212563D03*
X0158299Y0203587D03*
X0158299Y0192563D03*
X0158299Y0176587D03*
X0158299Y0165563D03*
X0158299Y0156587D03*
X0158299Y0145563D03*
X0158299Y0129587D03*
X0158299Y0118563D03*
X0158299Y0109587D03*
X0158299Y0098563D03*
X0107299Y0138563D03*
X0107299Y0149587D03*
X0077299Y0149587D03*
X0077299Y0138563D03*
D14*
X0156299Y0068075D03*
X0118799Y0032075D03*
D15*
X0132799Y0032075D03*
X0170299Y0068075D03*
D16*
X0196299Y0029028D02*
X0196299Y0023122D01*
X0206299Y0023122D02*
X0206299Y0029028D01*
X0216299Y0029028D02*
X0216299Y0023122D01*
X0226299Y0023122D02*
X0226299Y0029028D01*
X0238299Y0051122D02*
X0238299Y0057028D01*
X0248299Y0057028D02*
X0248299Y0051122D01*
X0258299Y0051122D02*
X0258299Y0057028D01*
X0258299Y0078122D02*
X0258299Y0084028D01*
X0248299Y0084028D02*
X0248299Y0078122D01*
X0238299Y0078122D02*
X0238299Y0084028D01*
X0238299Y0105122D02*
X0238299Y0111028D01*
X0248299Y0111028D02*
X0248299Y0105122D01*
X0258299Y0105122D02*
X0258299Y0111028D01*
X0042299Y0109122D02*
X0042299Y0115028D01*
X0032299Y0115028D02*
X0032299Y0109122D01*
X0022299Y0109122D02*
X0022299Y0115028D01*
X0012299Y0115028D02*
X0012299Y0109122D01*
X0012299Y0136122D02*
X0012299Y0142028D01*
X0022299Y0142028D02*
X0022299Y0136122D01*
X0032299Y0136122D02*
X0032299Y0142028D01*
X0042299Y0142028D02*
X0042299Y0136122D01*
X0032299Y0163122D02*
X0032299Y0169028D01*
X0022299Y0169028D02*
X0022299Y0163122D01*
X0012299Y0163122D02*
X0012299Y0169028D01*
X0012299Y0190122D02*
X0012299Y0196028D01*
X0022299Y0196028D02*
X0022299Y0190122D01*
X0032299Y0190122D02*
X0032299Y0196028D01*
D17*
X0046701Y0191075D03*
X0046701Y0180075D03*
X0057898Y0180075D03*
X0057898Y0191075D03*
X0057898Y0169075D03*
X0057898Y0158075D03*
X0046701Y0158075D03*
X0046701Y0169075D03*
X0089701Y0231075D03*
X0100898Y0231075D03*
X0135701Y0217075D03*
X0146898Y0217075D03*
X0146898Y0192075D03*
X0135701Y0192075D03*
X0135701Y0170075D03*
X0146898Y0170075D03*
X0146898Y0145075D03*
X0135701Y0145075D03*
X0135701Y0123075D03*
X0146898Y0123075D03*
X0146898Y0098075D03*
X0135701Y0098075D03*
X0138701Y0050075D03*
X0149898Y0050075D03*
D18*
X0071299Y0054673D03*
X0071299Y0043476D03*
X0048299Y0045476D03*
X0039299Y0045476D03*
X0039299Y0056673D03*
X0048299Y0056673D03*
X0057299Y0104476D03*
X0066299Y0104476D03*
X0066299Y0115673D03*
X0057299Y0115673D03*
X0097299Y0171476D03*
X0097299Y0182673D03*
X0039299Y0213476D03*
X0039299Y0224673D03*
D19*
X0175488Y0223075D03*
X0175488Y0218075D03*
X0175488Y0213075D03*
X0175488Y0208075D03*
X0175488Y0203075D03*
X0175488Y0198075D03*
X0175488Y0193075D03*
X0175488Y0176075D03*
X0175488Y0171075D03*
X0175488Y0166075D03*
X0175488Y0161075D03*
X0175488Y0156075D03*
X0175488Y0151075D03*
X0175488Y0146075D03*
X0175488Y0129075D03*
X0175488Y0124075D03*
X0175488Y0119075D03*
X0175488Y0114075D03*
X0175488Y0109075D03*
X0175488Y0104075D03*
X0175488Y0099075D03*
D20*
X0211512Y0114075D03*
X0211512Y0161075D03*
X0211512Y0208075D03*
D21*
X0091299Y0051476D03*
D22*
X0082323Y0076280D03*
X0100276Y0076280D03*
D23*
X0021079Y0026854D03*
X0021079Y0219768D03*
X0249425Y0219768D03*
X0249425Y0026854D03*
D24*
X0173699Y0025075D02*
X0173699Y0030390D01*
X0166999Y0030390D02*
X0166999Y0025075D01*
X0160299Y0025075D02*
X0160299Y0030390D01*
X0153599Y0030390D02*
X0153599Y0025075D01*
X0146899Y0025075D02*
X0146899Y0030390D01*
D25*
X0126299Y0084075D03*
D26*
X0126299Y0064075D03*
D27*
X0054799Y0203075D03*
X0049799Y0203075D03*
X0049799Y0233075D03*
X0054799Y0233075D03*
D28*
X0055917Y0031382D03*
X0053358Y0031382D03*
X0050799Y0031382D03*
X0048240Y0031382D03*
X0045681Y0031382D03*
D29*
X0040071Y0019768D03*
X0061528Y0019768D03*
D30*
X0060346Y0031697D03*
X0041252Y0031697D03*
D31*
X0016157Y0050217D03*
X0016157Y0067933D03*
D32*
X0026000Y0072854D03*
X0026000Y0045295D03*
D33*
X0071299Y0064598D03*
X0071299Y0077551D03*
D34*
X0059299Y0076949D03*
X0059299Y0061201D03*
D35*
X0018646Y0081972D03*
X0011953Y0081972D03*
X0011953Y0094177D03*
X0018646Y0094177D03*
D36*
X0067622Y0192756D03*
X0070181Y0192756D03*
X0072740Y0192756D03*
X0075299Y0192756D03*
X0077858Y0192756D03*
X0080417Y0192756D03*
X0082976Y0192756D03*
X0094622Y0192756D03*
X0097181Y0192756D03*
X0099740Y0192756D03*
X0102299Y0192756D03*
X0104858Y0192756D03*
X0107417Y0192756D03*
X0109976Y0192756D03*
X0109976Y0215197D03*
X0107417Y0215197D03*
X0104858Y0215197D03*
X0102299Y0215197D03*
X0099740Y0215197D03*
X0097181Y0215197D03*
X0094622Y0215197D03*
X0082976Y0215197D03*
X0080417Y0215197D03*
X0077858Y0215197D03*
X0075299Y0215197D03*
X0072740Y0215197D03*
X0070181Y0215197D03*
X0067622Y0215197D03*
D37*
X0067299Y0219075D03*
X0064299Y0223575D03*
X0060299Y0219075D03*
X0065799Y0210575D03*
X0064799Y0207575D03*
X0062299Y0202075D03*
X0067799Y0200575D03*
X0080299Y0198075D03*
X0087799Y0195075D03*
X0087799Y0192075D03*
X0080299Y0188575D03*
X0077799Y0186575D03*
X0072799Y0186575D03*
X0086799Y0179075D03*
X0090299Y0182575D03*
X0092299Y0177075D03*
X0080299Y0172075D03*
X0076299Y0172075D03*
X0080799Y0161075D03*
X0076799Y0155575D03*
X0085799Y0147575D03*
X0089799Y0142075D03*
X0093799Y0139575D03*
X0097299Y0139575D03*
X0105299Y0144075D03*
X0109299Y0144075D03*
X0120299Y0141075D03*
X0121299Y0147075D03*
X0120299Y0150075D03*
X0120299Y0157075D03*
X0120299Y0161075D03*
X0125299Y0161075D03*
X0130299Y0157075D03*
X0138299Y0139075D03*
X0140299Y0129075D03*
X0143299Y0129075D03*
X0146299Y0129075D03*
X0149299Y0129075D03*
X0152299Y0129075D03*
X0152299Y0134075D03*
X0159799Y0137575D03*
X0162299Y0135075D03*
X0164299Y0129075D03*
X0164299Y0119075D03*
X0164299Y0109075D03*
X0161299Y0104075D03*
X0152299Y0113075D03*
X0152299Y0122075D03*
X0123299Y0134075D03*
X0107299Y0133075D03*
X0092299Y0131075D03*
X0092299Y0127075D03*
X0081299Y0126575D03*
X0077799Y0126575D03*
X0077299Y0116075D03*
X0072299Y0113575D03*
X0064299Y0123075D03*
X0064299Y0128075D03*
X0064299Y0131575D03*
X0058299Y0132575D03*
X0052299Y0146575D03*
X0047299Y0147075D03*
X0051799Y0153075D03*
X0056799Y0152075D03*
X0061299Y0150075D03*
X0075299Y0144075D03*
X0079299Y0144075D03*
X0092299Y0157075D03*
X0092299Y0161075D03*
X0104299Y0161075D03*
X0109299Y0156075D03*
X0109299Y0172075D03*
X0105299Y0172075D03*
X0107299Y0179075D03*
X0099299Y0188575D03*
X0099799Y0197075D03*
X0106299Y0198075D03*
X0109799Y0198075D03*
X0105299Y0209075D03*
X0095299Y0209075D03*
X0089299Y0215575D03*
X0089299Y0221075D03*
X0085299Y0225075D03*
X0075299Y0221075D03*
X0075299Y0231075D03*
X0064299Y0231075D03*
X0045299Y0231075D03*
X0045299Y0234075D03*
X0045299Y0228075D03*
X0045299Y0225075D03*
X0040299Y0219075D03*
X0054799Y0208075D03*
X0039299Y0194075D03*
X0041299Y0182075D03*
X0031799Y0180575D03*
X0036799Y0155575D03*
X0062799Y0174075D03*
X0064299Y0165575D03*
X0021299Y0120575D03*
X0042299Y0101075D03*
X0051299Y0107075D03*
X0028799Y0086575D03*
X0025299Y0082075D03*
X0036799Y0072575D03*
X0032299Y0055075D03*
X0043299Y0037075D03*
X0059299Y0044075D03*
X0062299Y0044075D03*
X0062299Y0047075D03*
X0059299Y0047075D03*
X0055299Y0054075D03*
X0089299Y0036075D03*
X0108299Y0042075D03*
X0132299Y0050075D03*
X0133299Y0043075D03*
X0148299Y0042075D03*
X0158299Y0055075D03*
X0158299Y0058075D03*
X0161299Y0058075D03*
X0161299Y0055075D03*
X0164299Y0055075D03*
X0164299Y0058075D03*
X0153299Y0057075D03*
X0169299Y0082075D03*
X0198299Y0089075D03*
X0219299Y0090075D03*
X0187299Y0122075D03*
X0190299Y0128575D03*
X0195799Y0137575D03*
X0189299Y0150075D03*
X0187299Y0171075D03*
X0164299Y0176075D03*
X0164299Y0166075D03*
X0164299Y0156075D03*
X0152299Y0155575D03*
X0152299Y0160075D03*
X0152299Y0176075D03*
X0149299Y0176075D03*
X0146299Y0176075D03*
X0143299Y0176075D03*
X0140299Y0176075D03*
X0147299Y0186075D03*
X0152299Y0202575D03*
X0164299Y0203075D03*
X0164299Y0215075D03*
X0159299Y0218075D03*
X0164299Y0223075D03*
X0152299Y0223075D03*
X0149299Y0223075D03*
X0146299Y0223075D03*
X0143299Y0223075D03*
X0140299Y0223075D03*
X0126299Y0233075D03*
X0119799Y0223575D03*
X0116799Y0222575D03*
X0115299Y0227575D03*
X0108299Y0222575D03*
X0106299Y0225075D03*
X0100299Y0223575D03*
X0095299Y0225075D03*
X0095299Y0231075D03*
X0094622Y0218752D03*
X0120299Y0215075D03*
X0122299Y0196075D03*
X0129299Y0185075D03*
X0184799Y0233075D03*
X0187299Y0218075D03*
X0204299Y0233075D03*
X0233299Y0217075D03*
X0233299Y0194075D03*
X0112799Y0089075D03*
X0107799Y0069575D03*
X0107799Y0064575D03*
X0074799Y0089075D03*
X0098299Y0116075D03*
X0102299Y0116075D03*
X0025299Y0094075D03*
X0013799Y0088575D03*
X0214299Y0056075D03*
M02*
