G75*
%MOIN*%
%OFA0B0*%
%FSLAX25Y25*%
%IPPOS*%
%LPD*%
%AMOC8*
5,1,8,0,0,1.08239X$1,22.5*
%
%ADD10C,0.09555*%
%ADD11C,0.08100*%
%ADD12R,0.06799X0.07587*%
%ADD13R,0.07587X0.06799*%
%ADD14OC8,0.06800*%
%ADD15C,0.06800*%
%ADD16C,0.06406*%
%ADD17R,0.07598X0.06799*%
%ADD18R,0.06799X0.07598*%
%ADD19R,0.06406X0.02469*%
%ADD20R,0.02469X0.06406*%
%ADD21R,0.03256X0.02075*%
%ADD22C,0.11524*%
%ADD23C,0.05815*%
%ADD24C,0.10500*%
%ADD25OC8,0.10500*%
%ADD26OC8,0.06406*%
%ADD27OC8,0.04043*%
%ADD28R,0.14280X0.05224*%
%ADD29C,0.06406*%
%ADD30C,0.09358*%
%ADD31R,0.04437X0.06012*%
%ADD32R,0.04400X0.08500*%
%ADD33R,0.02862X0.09161*%
%ADD34C,0.02900*%
D10*
X0071067Y0025555D03*
X0104531Y0025555D03*
X0250819Y0137453D03*
X0250819Y0184697D03*
D11*
X0249499Y0174854D02*
X0257099Y0174854D01*
X0257099Y0161075D02*
X0249499Y0161075D01*
X0249499Y0147295D02*
X0257099Y0147295D01*
X0094689Y0026875D02*
X0094689Y0019275D01*
X0080909Y0019275D02*
X0080909Y0026875D01*
D12*
X0088787Y0042075D03*
X0099811Y0042075D03*
X0049811Y0046075D03*
X0038787Y0046075D03*
X0023811Y0100075D03*
X0012787Y0100075D03*
X0012787Y0127075D03*
X0023811Y0127075D03*
X0023811Y0154075D03*
X0012787Y0154075D03*
X0012787Y0181075D03*
X0023811Y0181075D03*
X0101787Y0179075D03*
X0112811Y0179075D03*
X0128787Y0145075D03*
X0139811Y0145075D03*
X0246787Y0120075D03*
X0257811Y0120075D03*
X0257811Y0093075D03*
X0246787Y0093075D03*
X0246787Y0066075D03*
X0257811Y0066075D03*
X0226811Y0038075D03*
X0215787Y0038075D03*
D13*
X0227299Y0090563D03*
X0227299Y0101587D03*
X0143299Y0070587D03*
X0143299Y0059563D03*
X0112799Y0083563D03*
X0112799Y0094587D03*
X0074799Y0094587D03*
X0074799Y0083563D03*
D14*
X0118799Y0032075D03*
X0156299Y0068075D03*
D15*
X0170299Y0068075D03*
X0132799Y0032075D03*
D16*
X0196299Y0029028D02*
X0196299Y0023122D01*
X0206299Y0023122D02*
X0206299Y0029028D01*
X0216299Y0029028D02*
X0216299Y0023122D01*
X0226299Y0023122D02*
X0226299Y0029028D01*
X0238299Y0051122D02*
X0238299Y0057028D01*
X0248299Y0057028D02*
X0248299Y0051122D01*
X0258299Y0051122D02*
X0258299Y0057028D01*
X0258299Y0078122D02*
X0258299Y0084028D01*
X0248299Y0084028D02*
X0248299Y0078122D01*
X0238299Y0078122D02*
X0238299Y0084028D01*
X0238299Y0105122D02*
X0238299Y0111028D01*
X0248299Y0111028D02*
X0248299Y0105122D01*
X0258299Y0105122D02*
X0258299Y0111028D01*
X0042299Y0109122D02*
X0042299Y0115028D01*
X0032299Y0115028D02*
X0032299Y0109122D01*
X0022299Y0109122D02*
X0022299Y0115028D01*
X0012299Y0115028D02*
X0012299Y0109122D01*
X0012299Y0136122D02*
X0012299Y0142028D01*
X0022299Y0142028D02*
X0022299Y0136122D01*
X0032299Y0136122D02*
X0032299Y0142028D01*
X0042299Y0142028D02*
X0042299Y0136122D01*
X0032299Y0163122D02*
X0032299Y0169028D01*
X0022299Y0169028D02*
X0022299Y0163122D01*
X0012299Y0163122D02*
X0012299Y0169028D01*
X0012299Y0190122D02*
X0012299Y0196028D01*
X0022299Y0196028D02*
X0022299Y0190122D01*
X0032299Y0190122D02*
X0032299Y0196028D01*
D17*
X0042299Y0176673D03*
X0051299Y0176673D03*
X0051299Y0165476D03*
X0042299Y0165476D03*
X0168299Y0186476D03*
X0168299Y0197673D03*
X0180299Y0197673D03*
X0180299Y0186476D03*
X0182299Y0160673D03*
X0170299Y0160673D03*
X0170299Y0149476D03*
X0182299Y0149476D03*
X0180299Y0117673D03*
X0170299Y0117673D03*
X0170299Y0106476D03*
X0180299Y0106476D03*
X0209299Y0061673D03*
X0218299Y0061673D03*
X0227299Y0061673D03*
X0227299Y0050476D03*
X0218299Y0050476D03*
X0209299Y0050476D03*
D18*
X0217701Y0115075D03*
X0217701Y0124075D03*
X0228898Y0124075D03*
X0228898Y0115075D03*
X0124898Y0052075D03*
X0124898Y0042075D03*
X0113701Y0042075D03*
X0113701Y0052075D03*
X0099398Y0089075D03*
X0088201Y0089075D03*
X0049898Y0064075D03*
X0049898Y0055075D03*
X0038701Y0055075D03*
X0038701Y0064075D03*
X0036701Y0080075D03*
X0047898Y0080075D03*
X0047898Y0092075D03*
X0047898Y0101075D03*
X0036701Y0101075D03*
X0036701Y0092075D03*
X0044701Y0194075D03*
X0055898Y0194075D03*
D19*
X0069465Y0159823D03*
X0069465Y0156673D03*
X0069465Y0153524D03*
X0069465Y0150374D03*
X0069465Y0147224D03*
X0069465Y0144075D03*
X0069465Y0140925D03*
X0069465Y0137776D03*
X0069465Y0134626D03*
X0069465Y0131476D03*
X0069465Y0128327D03*
X0115134Y0128327D03*
X0115134Y0131476D03*
X0115134Y0134626D03*
X0115134Y0137776D03*
X0115134Y0140925D03*
X0115134Y0144075D03*
X0115134Y0147224D03*
X0115134Y0150374D03*
X0115134Y0153524D03*
X0115134Y0156673D03*
X0115134Y0159823D03*
D20*
X0108047Y0166909D03*
X0104898Y0166909D03*
X0101748Y0166909D03*
X0098598Y0166909D03*
X0095449Y0166909D03*
X0092299Y0166909D03*
X0089150Y0166909D03*
X0086000Y0166909D03*
X0082850Y0166909D03*
X0079701Y0166909D03*
X0076551Y0166909D03*
X0076551Y0121240D03*
X0079701Y0121240D03*
X0082850Y0121240D03*
X0086000Y0121240D03*
X0089150Y0121240D03*
X0092299Y0121240D03*
X0095449Y0121240D03*
X0098598Y0121240D03*
X0101748Y0121240D03*
X0104898Y0121240D03*
X0108047Y0121240D03*
D21*
X0047843Y0150516D03*
X0047843Y0153075D03*
X0047843Y0155634D03*
X0040756Y0155634D03*
X0040756Y0153075D03*
X0040756Y0150516D03*
X0024843Y0090634D03*
X0024843Y0088075D03*
X0024843Y0085516D03*
X0017756Y0085516D03*
X0017756Y0088075D03*
X0017756Y0090634D03*
X0137756Y0048634D03*
X0137756Y0046075D03*
X0137756Y0043516D03*
X0144843Y0043516D03*
X0144843Y0046075D03*
X0144843Y0048634D03*
D22*
X0021079Y0026854D03*
X0021079Y0219768D03*
X0249425Y0219768D03*
X0249425Y0026854D03*
D23*
X0173699Y0025075D02*
X0173699Y0030390D01*
X0166999Y0030390D02*
X0166999Y0025075D01*
X0160299Y0025075D02*
X0160299Y0030390D01*
X0153599Y0030390D02*
X0153599Y0025075D01*
X0146899Y0025075D02*
X0146899Y0030390D01*
D24*
X0126299Y0084075D03*
D25*
X0126299Y0064075D03*
D26*
X0061528Y0019768D03*
X0040071Y0019768D03*
D27*
X0041252Y0031697D03*
X0060346Y0031697D03*
D28*
X0082972Y0104075D03*
X0104626Y0104075D03*
D29*
X0016157Y0067933D03*
X0016157Y0050217D03*
D30*
X0026000Y0045295D03*
X0026000Y0072854D03*
D31*
X0153559Y0049406D03*
X0161039Y0049406D03*
X0157299Y0040744D03*
D32*
X0160252Y0209268D03*
X0150252Y0209268D03*
X0140252Y0209268D03*
X0130252Y0209268D03*
X0120252Y0209268D03*
X0110252Y0209268D03*
X0100252Y0209268D03*
X0090252Y0209268D03*
X0080252Y0209268D03*
X0070252Y0209268D03*
X0060252Y0209268D03*
X0050252Y0209268D03*
X0040252Y0209268D03*
X0040252Y0230268D03*
X0050252Y0230268D03*
X0060252Y0230268D03*
X0070252Y0230268D03*
X0080252Y0230268D03*
X0090252Y0230268D03*
X0100252Y0230268D03*
X0110252Y0230268D03*
X0120252Y0230268D03*
X0130252Y0230268D03*
X0140252Y0230268D03*
X0150252Y0230268D03*
X0160252Y0230268D03*
X0170252Y0230268D03*
X0180252Y0230268D03*
X0190252Y0230268D03*
X0200252Y0230268D03*
X0210252Y0230268D03*
X0220252Y0230268D03*
X0230252Y0230268D03*
X0230252Y0209268D03*
X0220252Y0209268D03*
X0210252Y0209268D03*
X0200252Y0209268D03*
X0190252Y0209268D03*
X0180252Y0209268D03*
X0170252Y0209268D03*
D33*
X0203799Y0099311D03*
X0208799Y0099311D03*
X0213799Y0099311D03*
X0218799Y0099311D03*
X0218799Y0078839D03*
X0213799Y0078839D03*
X0208799Y0078839D03*
X0203799Y0078839D03*
D34*
X0198299Y0089075D03*
X0219299Y0090075D03*
X0187299Y0122075D03*
X0190299Y0128575D03*
X0195799Y0137575D03*
X0189299Y0150075D03*
X0187299Y0171075D03*
X0164299Y0176075D03*
X0164299Y0166075D03*
X0164299Y0156075D03*
X0152299Y0155575D03*
X0152299Y0160075D03*
X0152299Y0176075D03*
X0149299Y0176075D03*
X0146299Y0176075D03*
X0143299Y0176075D03*
X0140299Y0176075D03*
X0147299Y0186075D03*
X0152299Y0202575D03*
X0164299Y0203075D03*
X0164299Y0215075D03*
X0159299Y0218075D03*
X0164299Y0223075D03*
X0152299Y0223075D03*
X0149299Y0223075D03*
X0146299Y0223075D03*
X0143299Y0223075D03*
X0140299Y0223075D03*
X0126299Y0233075D03*
X0119799Y0223575D03*
X0116799Y0222575D03*
X0115299Y0227575D03*
X0108299Y0222575D03*
X0106299Y0225075D03*
X0100299Y0223575D03*
X0095299Y0225075D03*
X0095299Y0231075D03*
X0085299Y0225075D03*
X0089299Y0221075D03*
X0089299Y0215575D03*
X0094622Y0218752D03*
X0095299Y0209075D03*
X0105299Y0209075D03*
X0106299Y0198075D03*
X0109799Y0198075D03*
X0099799Y0197075D03*
X0099299Y0188575D03*
X0090299Y0182575D03*
X0086799Y0179075D03*
X0092299Y0177075D03*
X0080299Y0172075D03*
X0076299Y0172075D03*
X0080799Y0161075D03*
X0076799Y0155575D03*
X0085799Y0147575D03*
X0089799Y0142075D03*
X0093799Y0139575D03*
X0097299Y0139575D03*
X0105299Y0144075D03*
X0109299Y0144075D03*
X0120299Y0141075D03*
X0121299Y0147075D03*
X0120299Y0150075D03*
X0120299Y0157075D03*
X0120299Y0161075D03*
X0125299Y0161075D03*
X0130299Y0157075D03*
X0138299Y0139075D03*
X0140299Y0129075D03*
X0143299Y0129075D03*
X0146299Y0129075D03*
X0149299Y0129075D03*
X0152299Y0129075D03*
X0152299Y0134075D03*
X0159799Y0137575D03*
X0162299Y0135075D03*
X0164299Y0129075D03*
X0164299Y0119075D03*
X0164299Y0109075D03*
X0161299Y0104075D03*
X0152299Y0113075D03*
X0152299Y0122075D03*
X0123299Y0134075D03*
X0107299Y0133075D03*
X0092299Y0131075D03*
X0092299Y0127075D03*
X0081299Y0126575D03*
X0077799Y0126575D03*
X0077299Y0116075D03*
X0072299Y0113575D03*
X0064299Y0123075D03*
X0064299Y0128075D03*
X0064299Y0131575D03*
X0058299Y0132575D03*
X0052299Y0146575D03*
X0047299Y0147075D03*
X0051799Y0153075D03*
X0056799Y0152075D03*
X0061299Y0150075D03*
X0075299Y0144075D03*
X0079299Y0144075D03*
X0092299Y0157075D03*
X0092299Y0161075D03*
X0104299Y0161075D03*
X0109299Y0156075D03*
X0109299Y0172075D03*
X0105299Y0172075D03*
X0107299Y0179075D03*
X0122299Y0196075D03*
X0129299Y0185075D03*
X0120299Y0215075D03*
X0087799Y0195075D03*
X0087799Y0192075D03*
X0080299Y0188575D03*
X0077799Y0186575D03*
X0072799Y0186575D03*
X0080299Y0198075D03*
X0067799Y0200575D03*
X0062299Y0202075D03*
X0064799Y0207575D03*
X0065799Y0210575D03*
X0067299Y0219075D03*
X0064299Y0223575D03*
X0060299Y0219075D03*
X0054799Y0208075D03*
X0040299Y0219075D03*
X0045299Y0225075D03*
X0045299Y0228075D03*
X0045299Y0231075D03*
X0045299Y0234075D03*
X0064299Y0231075D03*
X0075299Y0231075D03*
X0075299Y0221075D03*
X0039299Y0194075D03*
X0041299Y0182075D03*
X0031799Y0180575D03*
X0036799Y0155575D03*
X0062799Y0174075D03*
X0064299Y0165575D03*
X0021299Y0120575D03*
X0042299Y0101075D03*
X0051299Y0107075D03*
X0028799Y0086575D03*
X0025299Y0082075D03*
X0036799Y0072575D03*
X0032299Y0055075D03*
X0043299Y0037075D03*
X0059299Y0044075D03*
X0062299Y0044075D03*
X0062299Y0047075D03*
X0059299Y0047075D03*
X0055299Y0054075D03*
X0089299Y0036075D03*
X0108299Y0042075D03*
X0132299Y0050075D03*
X0133299Y0043075D03*
X0148299Y0042075D03*
X0158299Y0055075D03*
X0158299Y0058075D03*
X0161299Y0058075D03*
X0161299Y0055075D03*
X0164299Y0055075D03*
X0164299Y0058075D03*
X0153299Y0057075D03*
X0169299Y0082075D03*
X0214299Y0056075D03*
X0112799Y0089075D03*
X0107799Y0069575D03*
X0107799Y0064575D03*
X0074799Y0089075D03*
X0098299Y0116075D03*
X0102299Y0116075D03*
X0025299Y0094075D03*
X0013799Y0088575D03*
X0184799Y0233075D03*
X0187299Y0218075D03*
X0204299Y0233075D03*
X0233299Y0217075D03*
X0233299Y0194075D03*
M02*
