G75*
%MOIN*%
%OFA0B0*%
%FSLAX25Y25*%
%IPPOS*%
%LPD*%
%AMOC8*
5,1,8,0,0,1.08239X$1,22.5*
%
%ADD10C,0.06024*%
%ADD11C,0.04800*%
%ADD12C,0.05906*%
%ADD13C,0.06000*%
%ADD14C,0.07087*%
%ADD15C,0.02400*%
%ADD16C,0.01600*%
%ADD17C,0.03200*%
%ADD18C,0.02400*%
%ADD19C,0.01200*%
D10*
X0090882Y0023075D03*
X0104661Y0023075D03*
X0267771Y0147295D03*
X0267771Y0161075D03*
X0267771Y0174854D03*
D11*
X0184771Y0063075D03*
X0170771Y0063075D03*
X0136771Y0043075D03*
X0136771Y0029075D03*
D12*
X0161371Y0025075D03*
X0168071Y0025075D03*
X0174771Y0025075D03*
X0181471Y0025075D03*
X0188171Y0025075D03*
X0252771Y0054075D03*
X0262771Y0054075D03*
X0272771Y0054075D03*
X0272771Y0081075D03*
X0262771Y0081075D03*
X0252771Y0081075D03*
X0252771Y0108075D03*
X0262771Y0108075D03*
X0272771Y0108075D03*
X0056771Y0138075D03*
X0046771Y0138075D03*
X0036771Y0138075D03*
X0026771Y0138075D03*
X0026771Y0165075D03*
X0036771Y0165075D03*
X0046771Y0165075D03*
X0056771Y0165075D03*
X0046771Y0192075D03*
X0036771Y0192075D03*
X0026771Y0192075D03*
D13*
X0141771Y0083075D03*
X0141771Y0063075D03*
D14*
X0028464Y0078346D03*
X0028464Y0099803D03*
D15*
X0032771Y0084075D03*
X0045771Y0070075D03*
X0054271Y0074575D03*
X0051771Y0058075D03*
X0034771Y0066075D03*
X0024771Y0039075D03*
X0068771Y0020075D03*
X0074771Y0034075D03*
X0077771Y0034075D03*
X0080521Y0046825D03*
X0078771Y0053075D03*
X0106771Y0040075D03*
X0109771Y0040075D03*
X0150771Y0042075D03*
X0154771Y0047075D03*
X0154771Y0050075D03*
X0157771Y0050075D03*
X0157771Y0047075D03*
X0160771Y0047075D03*
X0160771Y0050075D03*
X0163771Y0050075D03*
X0163771Y0047075D03*
X0176771Y0058075D03*
X0190771Y0046075D03*
X0207771Y0030075D03*
X0214771Y0040075D03*
X0234771Y0037075D03*
X0237771Y0032075D03*
X0247771Y0023075D03*
X0237771Y0016075D03*
X0225771Y0058075D03*
X0231771Y0059075D03*
X0237771Y0059075D03*
X0242771Y0072075D03*
X0240771Y0086075D03*
X0257771Y0100075D03*
X0240771Y0137075D03*
X0211771Y0137075D03*
X0201771Y0124075D03*
X0178771Y0123075D03*
X0178771Y0129075D03*
X0166771Y0129075D03*
X0163771Y0129075D03*
X0160771Y0129075D03*
X0157771Y0129075D03*
X0154771Y0129075D03*
X0145521Y0135575D03*
X0151771Y0139075D03*
X0156771Y0138075D03*
X0167271Y0145075D03*
X0155521Y0150575D03*
X0144771Y0157075D03*
X0134771Y0157075D03*
X0134771Y0160075D03*
X0136771Y0167075D03*
X0142771Y0173075D03*
X0154771Y0176075D03*
X0157771Y0176075D03*
X0160771Y0176075D03*
X0163771Y0176075D03*
X0166771Y0176075D03*
X0167771Y0185075D03*
X0178771Y0176075D03*
X0178771Y0166075D03*
X0201771Y0171075D03*
X0204771Y0157075D03*
X0200771Y0154075D03*
X0152771Y0182075D03*
X0144771Y0186575D03*
X0138771Y0192075D03*
X0121771Y0179075D03*
X0119771Y0172075D03*
X0123771Y0172075D03*
X0110771Y0180075D03*
X0101771Y0171825D03*
X0094771Y0172075D03*
X0090771Y0172075D03*
X0078771Y0183075D03*
X0078771Y0197075D03*
X0097771Y0203075D03*
X0095771Y0217075D03*
X0098771Y0225075D03*
X0109771Y0225075D03*
X0118771Y0229075D03*
X0144771Y0223075D03*
X0154771Y0223075D03*
X0157771Y0223075D03*
X0160771Y0223075D03*
X0163771Y0223075D03*
X0166771Y0223075D03*
X0174771Y0218075D03*
X0178771Y0223075D03*
X0178771Y0213075D03*
X0198771Y0231075D03*
X0201771Y0218075D03*
X0218771Y0231075D03*
X0247771Y0219075D03*
X0134771Y0150075D03*
X0135771Y0147075D03*
X0123771Y0144075D03*
X0119771Y0144075D03*
X0115771Y0153075D03*
X0117771Y0156075D03*
X0124771Y0156075D03*
X0110771Y0153075D03*
X0106771Y0157075D03*
X0106771Y0161075D03*
X0101271Y0143825D03*
X0098372Y0140925D03*
X0093771Y0144075D03*
X0089771Y0144075D03*
X0078771Y0141075D03*
X0078771Y0132075D03*
X0078771Y0128075D03*
X0087771Y0121075D03*
X0095771Y0116075D03*
X0103771Y0116075D03*
X0112771Y0116075D03*
X0116771Y0116075D03*
X0126771Y0123075D03*
X0131771Y0125575D03*
X0140771Y0123075D03*
X0139771Y0118075D03*
X0133771Y0112075D03*
X0133771Y0108075D03*
X0115771Y0107075D03*
X0099771Y0107075D03*
X0106771Y0127075D03*
X0106771Y0131075D03*
X0105021Y0135325D03*
X0100771Y0134575D03*
X0094771Y0128575D03*
X0121771Y0126825D03*
X0122771Y0131075D03*
X0135521Y0134325D03*
X0155771Y0106075D03*
X0155771Y0101075D03*
X0155771Y0095075D03*
X0189771Y0076075D03*
X0206771Y0072075D03*
X0214771Y0084075D03*
X0211771Y0089075D03*
X0155771Y0034075D03*
X0068771Y0117075D03*
X0068771Y0120075D03*
X0060771Y0130075D03*
X0075771Y0150075D03*
X0062771Y0155075D03*
X0065771Y0166075D03*
X0069771Y0166075D03*
X0054771Y0203075D03*
X0075771Y0223075D03*
X0059771Y0225075D03*
X0059771Y0228075D03*
X0059771Y0231075D03*
X0059771Y0234075D03*
D16*
X0032968Y0019469D02*
X0025906Y0019469D01*
X0025108Y0020568D02*
X0024188Y0023398D01*
X0024071Y0024886D01*
X0024071Y0036659D01*
X0024274Y0036575D01*
X0025269Y0036575D01*
X0026187Y0036955D01*
X0026891Y0037659D01*
X0027271Y0038578D01*
X0027271Y0039572D01*
X0026891Y0040491D01*
X0026187Y0041194D01*
X0025269Y0041575D01*
X0024274Y0041575D01*
X0024071Y0041491D01*
X0024071Y0046434D01*
X0024632Y0045873D01*
X0026020Y0045298D01*
X0027523Y0045298D01*
X0028910Y0045873D01*
X0029973Y0046936D01*
X0030548Y0048324D01*
X0030548Y0049826D01*
X0029973Y0051214D01*
X0028910Y0052276D01*
X0027523Y0052851D01*
X0026020Y0052851D01*
X0024632Y0052276D01*
X0024071Y0051715D01*
X0024071Y0075512D01*
X0024104Y0075433D01*
X0025551Y0073986D01*
X0027441Y0073203D01*
X0029487Y0073203D01*
X0031378Y0073986D01*
X0032825Y0075433D01*
X0033608Y0077323D01*
X0033608Y0079370D01*
X0032825Y0081260D01*
X0032510Y0081575D01*
X0033269Y0081575D01*
X0034187Y0081955D01*
X0034891Y0082659D01*
X0035271Y0083578D01*
X0035271Y0084572D01*
X0034891Y0085491D01*
X0034187Y0086194D01*
X0033269Y0086575D01*
X0032274Y0086575D01*
X0031355Y0086194D01*
X0030652Y0085491D01*
X0030271Y0084572D01*
X0030271Y0083578D01*
X0030478Y0083080D01*
X0029487Y0083490D01*
X0027441Y0083490D01*
X0025551Y0082707D01*
X0024104Y0081260D01*
X0024071Y0081181D01*
X0024071Y0096969D01*
X0024104Y0096890D01*
X0025551Y0095443D01*
X0027441Y0094660D01*
X0029487Y0094660D01*
X0031378Y0095443D01*
X0032825Y0096890D01*
X0033608Y0098780D01*
X0033608Y0100826D01*
X0032825Y0102717D01*
X0031378Y0104163D01*
X0029487Y0104946D01*
X0027441Y0104946D01*
X0025551Y0104163D01*
X0024104Y0102717D01*
X0024071Y0102638D01*
X0024071Y0134162D01*
X0024280Y0134010D01*
X0024947Y0133670D01*
X0025658Y0133439D01*
X0026397Y0133322D01*
X0026587Y0133322D01*
X0026587Y0137890D01*
X0026956Y0137890D01*
X0026956Y0133322D01*
X0027145Y0133322D01*
X0027884Y0133439D01*
X0028596Y0133670D01*
X0029262Y0134010D01*
X0029868Y0134450D01*
X0030397Y0134979D01*
X0030836Y0135584D01*
X0031176Y0136250D01*
X0031407Y0136962D01*
X0031524Y0137701D01*
X0031524Y0137891D01*
X0026956Y0137891D01*
X0026956Y0138259D01*
X0031524Y0138259D01*
X0031524Y0138449D01*
X0031407Y0139188D01*
X0031176Y0139899D01*
X0030836Y0140566D01*
X0030397Y0141171D01*
X0029868Y0141700D01*
X0029262Y0142140D01*
X0028596Y0142479D01*
X0027884Y0142711D01*
X0027145Y0142828D01*
X0026956Y0142828D01*
X0026956Y0138259D01*
X0026587Y0138259D01*
X0026587Y0142828D01*
X0026397Y0142828D01*
X0025658Y0142711D01*
X0024947Y0142479D01*
X0024280Y0142140D01*
X0024071Y0141988D01*
X0024071Y0161336D01*
X0024192Y0161215D01*
X0025866Y0160522D01*
X0027677Y0160522D01*
X0029350Y0161215D01*
X0030631Y0162496D01*
X0031324Y0164169D01*
X0031324Y0165980D01*
X0030631Y0167654D01*
X0029350Y0168934D01*
X0027677Y0169628D01*
X0025866Y0169628D01*
X0024192Y0168934D01*
X0024071Y0168813D01*
X0024071Y0188336D01*
X0024192Y0188215D01*
X0025866Y0187522D01*
X0027677Y0187522D01*
X0029350Y0188215D01*
X0030631Y0189496D01*
X0031324Y0191169D01*
X0031324Y0192980D01*
X0030631Y0194654D01*
X0029350Y0195934D01*
X0027677Y0196628D01*
X0025866Y0196628D01*
X0024192Y0195934D01*
X0024071Y0195813D01*
X0024071Y0221736D01*
X0024195Y0223620D01*
X0025170Y0227259D01*
X0027054Y0230522D01*
X0029718Y0233186D01*
X0032981Y0235070D01*
X0036620Y0236045D01*
X0038504Y0236169D01*
X0260945Y0236169D01*
X0262828Y0236045D01*
X0266468Y0235070D01*
X0269730Y0233186D01*
X0272394Y0230522D01*
X0274278Y0227259D01*
X0275253Y0223620D01*
X0275377Y0221736D01*
X0275377Y0112056D01*
X0275262Y0112140D01*
X0274596Y0112479D01*
X0273884Y0112711D01*
X0273145Y0112828D01*
X0272956Y0112828D01*
X0272956Y0108259D01*
X0272587Y0108259D01*
X0272587Y0107891D01*
X0268019Y0107891D01*
X0268019Y0107701D01*
X0268136Y0106962D01*
X0268367Y0106250D01*
X0268706Y0105584D01*
X0269146Y0104979D01*
X0269675Y0104450D01*
X0270280Y0104010D01*
X0270947Y0103670D01*
X0271658Y0103439D01*
X0272397Y0103322D01*
X0272587Y0103322D01*
X0272587Y0107890D01*
X0272956Y0107890D01*
X0272956Y0103322D01*
X0273145Y0103322D01*
X0273884Y0103439D01*
X0274596Y0103670D01*
X0275262Y0104010D01*
X0275377Y0104093D01*
X0275377Y0085056D01*
X0275262Y0085140D01*
X0274596Y0085479D01*
X0273884Y0085711D01*
X0273145Y0085828D01*
X0272956Y0085828D01*
X0272956Y0081259D01*
X0272587Y0081259D01*
X0272587Y0080891D01*
X0268019Y0080891D01*
X0268019Y0080701D01*
X0268136Y0079962D01*
X0268367Y0079250D01*
X0268706Y0078584D01*
X0269146Y0077979D01*
X0269675Y0077450D01*
X0270280Y0077010D01*
X0270947Y0076670D01*
X0271658Y0076439D01*
X0272397Y0076322D01*
X0272587Y0076322D01*
X0272587Y0080890D01*
X0272956Y0080890D01*
X0272956Y0076322D01*
X0273145Y0076322D01*
X0273884Y0076439D01*
X0274596Y0076670D01*
X0275262Y0077010D01*
X0275377Y0077093D01*
X0275377Y0058056D01*
X0275262Y0058140D01*
X0274596Y0058479D01*
X0273884Y0058711D01*
X0273145Y0058828D01*
X0272956Y0058828D01*
X0272956Y0054259D01*
X0272587Y0054259D01*
X0272587Y0053891D01*
X0268019Y0053891D01*
X0268019Y0053701D01*
X0268136Y0052962D01*
X0268367Y0052250D01*
X0268706Y0051584D01*
X0269146Y0050979D01*
X0269675Y0050450D01*
X0270280Y0050010D01*
X0270947Y0049670D01*
X0271658Y0049439D01*
X0272397Y0049322D01*
X0272587Y0049322D01*
X0272587Y0053890D01*
X0272956Y0053890D01*
X0272956Y0049322D01*
X0273145Y0049322D01*
X0273884Y0049439D01*
X0274596Y0049670D01*
X0275262Y0050010D01*
X0275377Y0050093D01*
X0275377Y0024886D01*
X0275260Y0023398D01*
X0274340Y0020568D01*
X0272591Y0018161D01*
X0270184Y0016411D01*
X0267354Y0015492D01*
X0265866Y0015375D01*
X0240187Y0015375D01*
X0240271Y0015578D01*
X0240271Y0016572D01*
X0239891Y0017491D01*
X0239187Y0018194D01*
X0238269Y0018575D01*
X0237274Y0018575D01*
X0236355Y0018194D01*
X0235652Y0017491D01*
X0235271Y0016572D01*
X0235271Y0015578D01*
X0235355Y0015375D01*
X0207992Y0015375D01*
X0207672Y0015406D01*
X0207082Y0015651D01*
X0206631Y0016102D01*
X0206386Y0016692D01*
X0206355Y0017012D01*
X0206355Y0027956D01*
X0206355Y0027955D01*
X0207274Y0027575D01*
X0208269Y0027575D01*
X0209187Y0027955D01*
X0209891Y0028659D01*
X0210271Y0029578D01*
X0210271Y0030572D01*
X0209891Y0031491D01*
X0209187Y0032194D01*
X0208269Y0032575D01*
X0207274Y0032575D01*
X0206355Y0032194D01*
X0206355Y0069575D01*
X0207269Y0069575D01*
X0207993Y0069875D01*
X0241550Y0069875D01*
X0242274Y0069575D01*
X0243269Y0069575D01*
X0244187Y0069955D01*
X0244891Y0070659D01*
X0245271Y0071578D01*
X0245271Y0072572D01*
X0244891Y0073491D01*
X0244187Y0074194D01*
X0243269Y0074575D01*
X0242274Y0074575D01*
X0241550Y0074275D01*
X0207993Y0074275D01*
X0207269Y0074575D01*
X0206355Y0074575D01*
X0206355Y0089119D01*
X0205405Y0091411D01*
X0203651Y0093165D01*
X0203651Y0093165D01*
X0201358Y0094115D01*
X0196515Y0094115D01*
X0194223Y0093165D01*
X0194223Y0093165D01*
X0192468Y0091411D01*
X0192468Y0091411D01*
X0191519Y0089119D01*
X0191519Y0077863D01*
X0191187Y0078194D01*
X0190269Y0078575D01*
X0189274Y0078575D01*
X0188355Y0078194D01*
X0187652Y0077491D01*
X0187271Y0076572D01*
X0187271Y0075578D01*
X0187652Y0074659D01*
X0188355Y0073955D01*
X0189274Y0073575D01*
X0190269Y0073575D01*
X0191187Y0073955D01*
X0191519Y0074287D01*
X0191519Y0048471D01*
X0191269Y0048575D01*
X0190274Y0048575D01*
X0189355Y0048194D01*
X0188652Y0047491D01*
X0188271Y0046572D01*
X0188271Y0045578D01*
X0188652Y0044659D01*
X0189355Y0043955D01*
X0190274Y0043575D01*
X0191269Y0043575D01*
X0191519Y0043678D01*
X0191519Y0028166D01*
X0190750Y0028934D01*
X0189077Y0029628D01*
X0187266Y0029628D01*
X0185592Y0028934D01*
X0184821Y0028163D01*
X0184050Y0028934D01*
X0182377Y0029628D01*
X0180566Y0029628D01*
X0178892Y0028934D01*
X0178121Y0028163D01*
X0177350Y0028934D01*
X0175677Y0029628D01*
X0173866Y0029628D01*
X0172192Y0028934D01*
X0171421Y0028163D01*
X0170650Y0028934D01*
X0168977Y0029628D01*
X0167166Y0029628D01*
X0165492Y0028934D01*
X0164721Y0028163D01*
X0163950Y0028934D01*
X0162277Y0029628D01*
X0160466Y0029628D01*
X0158792Y0028934D01*
X0157512Y0027654D01*
X0156819Y0025980D01*
X0156819Y0024169D01*
X0157512Y0022496D01*
X0158792Y0021215D01*
X0160466Y0020522D01*
X0162277Y0020522D01*
X0163950Y0021215D01*
X0164721Y0021986D01*
X0165492Y0021215D01*
X0167166Y0020522D01*
X0168977Y0020522D01*
X0170650Y0021215D01*
X0171421Y0021986D01*
X0172192Y0021215D01*
X0173866Y0020522D01*
X0175677Y0020522D01*
X0177350Y0021215D01*
X0178121Y0021986D01*
X0178892Y0021215D01*
X0180566Y0020522D01*
X0182377Y0020522D01*
X0184050Y0021215D01*
X0184821Y0021986D01*
X0185592Y0021215D01*
X0187266Y0020522D01*
X0189077Y0020522D01*
X0190750Y0021215D01*
X0191519Y0021983D01*
X0191519Y0017012D01*
X0191487Y0016692D01*
X0191243Y0016102D01*
X0190791Y0015651D01*
X0190201Y0015406D01*
X0189882Y0015375D01*
X0033582Y0015375D01*
X0032095Y0015492D01*
X0029264Y0016411D01*
X0026857Y0018161D01*
X0025108Y0020568D01*
X0024946Y0021067D02*
X0030290Y0021067D01*
X0031126Y0020232D02*
X0033997Y0019043D01*
X0037105Y0019043D01*
X0039976Y0020232D01*
X0042173Y0022429D01*
X0043363Y0025300D01*
X0043363Y0028408D01*
X0042173Y0031279D01*
X0039976Y0033477D01*
X0037105Y0034666D01*
X0033997Y0034666D01*
X0031126Y0033477D01*
X0028928Y0031279D01*
X0027739Y0028408D01*
X0027739Y0025300D01*
X0028928Y0022429D01*
X0031126Y0020232D01*
X0028830Y0022666D02*
X0024426Y0022666D01*
X0024120Y0024264D02*
X0028168Y0024264D01*
X0027739Y0025863D02*
X0024071Y0025863D01*
X0024071Y0027461D02*
X0027739Y0027461D01*
X0028009Y0029060D02*
X0024071Y0029060D01*
X0024071Y0030658D02*
X0028671Y0030658D01*
X0029906Y0032257D02*
X0024071Y0032257D01*
X0024071Y0033855D02*
X0032040Y0033855D01*
X0026285Y0037052D02*
X0086789Y0037052D01*
X0086612Y0036875D02*
X0074214Y0036875D01*
X0073185Y0036449D01*
X0072398Y0035661D01*
X0071971Y0034632D01*
X0071971Y0033518D01*
X0072398Y0032489D01*
X0073185Y0031701D01*
X0074214Y0031275D01*
X0077103Y0031275D01*
X0075251Y0029423D01*
X0074212Y0026913D01*
X0074212Y0024197D01*
X0075251Y0021688D01*
X0077172Y0019767D01*
X0079681Y0018728D01*
X0082397Y0018728D01*
X0084907Y0019767D01*
X0086571Y0021431D01*
X0086972Y0020462D01*
X0088269Y0019165D01*
X0089964Y0018463D01*
X0091799Y0018463D01*
X0093494Y0019165D01*
X0094791Y0020462D01*
X0095493Y0022157D01*
X0095493Y0023992D01*
X0094791Y0025687D01*
X0093494Y0026984D01*
X0091799Y0027687D01*
X0089964Y0027687D01*
X0088269Y0026984D01*
X0087867Y0026582D01*
X0087867Y0026913D01*
X0086827Y0029423D01*
X0084975Y0031275D01*
X0088328Y0031275D01*
X0089357Y0031701D01*
X0094931Y0037275D01*
X0110328Y0037275D01*
X0111357Y0037701D01*
X0112145Y0038489D01*
X0112571Y0039518D01*
X0112571Y0040632D01*
X0112145Y0041661D01*
X0111357Y0042449D01*
X0110328Y0042875D01*
X0093214Y0042875D01*
X0092185Y0042449D01*
X0091398Y0041661D01*
X0086612Y0036875D01*
X0088388Y0038651D02*
X0027271Y0038651D01*
X0026991Y0040249D02*
X0089986Y0040249D01*
X0091585Y0041848D02*
X0024071Y0041848D01*
X0024071Y0043447D02*
X0132771Y0043447D01*
X0132771Y0043870D02*
X0132771Y0042279D01*
X0133380Y0040809D01*
X0134506Y0039684D01*
X0135976Y0039075D01*
X0137567Y0039075D01*
X0139037Y0039684D01*
X0140162Y0040809D01*
X0140771Y0042279D01*
X0140771Y0043870D01*
X0140162Y0045341D01*
X0139037Y0046466D01*
X0137567Y0047075D01*
X0135976Y0047075D01*
X0134506Y0046466D01*
X0133380Y0045341D01*
X0132771Y0043870D01*
X0133258Y0045045D02*
X0082277Y0045045D01*
X0081937Y0044705D02*
X0082641Y0045409D01*
X0083021Y0046328D01*
X0083021Y0047322D01*
X0082641Y0048241D01*
X0081937Y0048944D01*
X0081019Y0049325D01*
X0080024Y0049325D01*
X0079105Y0048944D01*
X0078402Y0048241D01*
X0078021Y0047322D01*
X0078021Y0046328D01*
X0078402Y0045409D01*
X0079105Y0044705D01*
X0080024Y0044325D01*
X0081019Y0044325D01*
X0081937Y0044705D01*
X0083021Y0046644D02*
X0134935Y0046644D01*
X0138608Y0046644D02*
X0188301Y0046644D01*
X0188492Y0045045D02*
X0140285Y0045045D01*
X0140771Y0043447D02*
X0148634Y0043447D01*
X0148652Y0043491D02*
X0148271Y0042572D01*
X0148271Y0041578D01*
X0148652Y0040659D01*
X0149355Y0039955D01*
X0150274Y0039575D01*
X0151269Y0039575D01*
X0152187Y0039955D01*
X0152891Y0040659D01*
X0153271Y0041578D01*
X0153271Y0042572D01*
X0152891Y0043491D01*
X0152187Y0044194D01*
X0151269Y0044575D01*
X0150274Y0044575D01*
X0149355Y0044194D01*
X0148652Y0043491D01*
X0148271Y0041848D02*
X0140593Y0041848D01*
X0139603Y0040249D02*
X0149061Y0040249D01*
X0152482Y0040249D02*
X0191519Y0040249D01*
X0191519Y0038651D02*
X0112212Y0038651D01*
X0112571Y0040249D02*
X0133940Y0040249D01*
X0132950Y0041848D02*
X0111958Y0041848D01*
X0113146Y0032383D02*
X0110636Y0031343D01*
X0108716Y0029423D01*
X0107676Y0026913D01*
X0107676Y0026582D01*
X0107273Y0026984D01*
X0105578Y0027687D01*
X0103744Y0027687D01*
X0102049Y0026984D01*
X0100751Y0025687D01*
X0100049Y0023992D01*
X0100049Y0022157D01*
X0100751Y0020462D01*
X0102049Y0019165D01*
X0103744Y0018463D01*
X0105578Y0018463D01*
X0107273Y0019165D01*
X0108571Y0020462D01*
X0108972Y0021431D01*
X0110636Y0019767D01*
X0113146Y0018728D01*
X0115862Y0018728D01*
X0118371Y0019767D01*
X0120292Y0021688D01*
X0121331Y0024197D01*
X0121331Y0026913D01*
X0120292Y0029423D01*
X0118371Y0031343D01*
X0115862Y0032383D01*
X0113146Y0032383D01*
X0112842Y0032257D02*
X0089913Y0032257D01*
X0091512Y0033855D02*
X0153271Y0033855D01*
X0153271Y0033578D02*
X0153652Y0032659D01*
X0154355Y0031955D01*
X0155274Y0031575D01*
X0156269Y0031575D01*
X0157187Y0031955D01*
X0157891Y0032659D01*
X0158271Y0033578D01*
X0158271Y0034572D01*
X0157891Y0035491D01*
X0157187Y0036194D01*
X0156269Y0036575D01*
X0155274Y0036575D01*
X0154355Y0036194D01*
X0153652Y0035491D01*
X0153271Y0034572D01*
X0153271Y0033578D01*
X0154054Y0032257D02*
X0139246Y0032257D01*
X0139037Y0032466D02*
X0137567Y0033075D01*
X0135976Y0033075D01*
X0134506Y0032466D01*
X0133380Y0031341D01*
X0132771Y0029870D01*
X0132771Y0028279D01*
X0133380Y0026809D01*
X0134506Y0025684D01*
X0135976Y0025075D01*
X0137567Y0025075D01*
X0139037Y0025684D01*
X0140162Y0026809D01*
X0140771Y0028279D01*
X0140771Y0029870D01*
X0140162Y0031341D01*
X0139037Y0032466D01*
X0140445Y0030658D02*
X0191519Y0030658D01*
X0191519Y0029060D02*
X0190447Y0029060D01*
X0191519Y0032257D02*
X0157489Y0032257D01*
X0158271Y0033855D02*
X0191519Y0033855D01*
X0191519Y0035454D02*
X0157906Y0035454D01*
X0153637Y0035454D02*
X0093110Y0035454D01*
X0094709Y0037052D02*
X0191519Y0037052D01*
X0191519Y0041848D02*
X0153271Y0041848D01*
X0152909Y0043447D02*
X0191519Y0043447D01*
X0189471Y0048242D02*
X0082640Y0048242D01*
X0080187Y0050955D02*
X0080891Y0051659D01*
X0081271Y0052578D01*
X0081271Y0053572D01*
X0080891Y0054491D01*
X0080187Y0055194D01*
X0079269Y0055575D01*
X0078274Y0055575D01*
X0077355Y0055194D01*
X0076652Y0054491D01*
X0076271Y0053572D01*
X0076271Y0052578D01*
X0076652Y0051659D01*
X0077355Y0050955D01*
X0078274Y0050575D01*
X0079269Y0050575D01*
X0080187Y0050955D01*
X0080671Y0051439D02*
X0191519Y0051439D01*
X0191519Y0049841D02*
X0030542Y0049841D01*
X0030514Y0048242D02*
X0078403Y0048242D01*
X0078021Y0046644D02*
X0029681Y0046644D01*
X0029748Y0051439D02*
X0076872Y0051439D01*
X0076271Y0053038D02*
X0024071Y0053038D01*
X0024071Y0054636D02*
X0076797Y0054636D01*
X0080746Y0054636D02*
X0191519Y0054636D01*
X0191519Y0053038D02*
X0081271Y0053038D01*
X0078766Y0045045D02*
X0024071Y0045045D01*
X0024071Y0035454D02*
X0072312Y0035454D01*
X0071971Y0033855D02*
X0039062Y0033855D01*
X0041196Y0032257D02*
X0072629Y0032257D01*
X0075101Y0029060D02*
X0043093Y0029060D01*
X0043363Y0027461D02*
X0074439Y0027461D01*
X0074212Y0025863D02*
X0043363Y0025863D01*
X0042934Y0024264D02*
X0074212Y0024264D01*
X0074846Y0022666D02*
X0042271Y0022666D01*
X0040811Y0021067D02*
X0075871Y0021067D01*
X0077891Y0019469D02*
X0038134Y0019469D01*
X0029694Y0016272D02*
X0191313Y0016272D01*
X0191519Y0017870D02*
X0027256Y0017870D01*
X0042431Y0030658D02*
X0076487Y0030658D01*
X0085591Y0030658D02*
X0109951Y0030658D01*
X0108565Y0029060D02*
X0086977Y0029060D01*
X0087640Y0027461D02*
X0089421Y0027461D01*
X0092343Y0027461D02*
X0103200Y0027461D01*
X0100927Y0025863D02*
X0094616Y0025863D01*
X0095381Y0024264D02*
X0100162Y0024264D01*
X0100049Y0022666D02*
X0095493Y0022666D01*
X0095042Y0021067D02*
X0100501Y0021067D01*
X0101745Y0019469D02*
X0093798Y0019469D01*
X0087965Y0019469D02*
X0084187Y0019469D01*
X0086207Y0021067D02*
X0086721Y0021067D01*
X0106122Y0027461D02*
X0107903Y0027461D01*
X0116165Y0032257D02*
X0134297Y0032257D01*
X0133098Y0030658D02*
X0119056Y0030658D01*
X0120442Y0029060D02*
X0132771Y0029060D01*
X0133110Y0027461D02*
X0121104Y0027461D01*
X0121331Y0025863D02*
X0134326Y0025863D01*
X0139216Y0025863D02*
X0156819Y0025863D01*
X0156819Y0024264D02*
X0121331Y0024264D01*
X0120697Y0022666D02*
X0157441Y0022666D01*
X0159149Y0021067D02*
X0119672Y0021067D01*
X0117651Y0019469D02*
X0191519Y0019469D01*
X0191519Y0021067D02*
X0190393Y0021067D01*
X0185949Y0021067D02*
X0183693Y0021067D01*
X0179249Y0021067D02*
X0176993Y0021067D01*
X0172549Y0021067D02*
X0170293Y0021067D01*
X0165849Y0021067D02*
X0163593Y0021067D01*
X0163647Y0029060D02*
X0165795Y0029060D01*
X0170347Y0029060D02*
X0172495Y0029060D01*
X0177047Y0029060D02*
X0179195Y0029060D01*
X0183747Y0029060D02*
X0185895Y0029060D01*
X0206355Y0027461D02*
X0256086Y0027461D01*
X0256086Y0028408D02*
X0256086Y0025300D01*
X0257275Y0022429D01*
X0259472Y0020232D01*
X0262343Y0019043D01*
X0265451Y0019043D01*
X0268322Y0020232D01*
X0270520Y0022429D01*
X0271709Y0025300D01*
X0271709Y0028408D01*
X0270520Y0031279D01*
X0268322Y0033477D01*
X0265451Y0034666D01*
X0262343Y0034666D01*
X0259472Y0033477D01*
X0257275Y0031279D01*
X0256086Y0028408D01*
X0256355Y0029060D02*
X0210057Y0029060D01*
X0210236Y0030658D02*
X0235652Y0030658D01*
X0235652Y0030659D02*
X0236355Y0029955D01*
X0237274Y0029575D01*
X0238269Y0029575D01*
X0239187Y0029955D01*
X0239891Y0030659D01*
X0240271Y0031578D01*
X0240271Y0032572D01*
X0239891Y0033491D01*
X0239187Y0034194D01*
X0238269Y0034575D01*
X0237274Y0034575D01*
X0236355Y0034194D01*
X0235652Y0033491D01*
X0235271Y0032572D01*
X0235271Y0031578D01*
X0235652Y0030659D01*
X0235271Y0032257D02*
X0209036Y0032257D01*
X0206507Y0032257D02*
X0206355Y0032257D01*
X0206355Y0032194D02*
X0206355Y0032194D01*
X0206355Y0033855D02*
X0236016Y0033855D01*
X0235269Y0034575D02*
X0236187Y0034955D01*
X0236891Y0035659D01*
X0237191Y0036383D01*
X0239971Y0039164D01*
X0239971Y0057853D01*
X0240271Y0058578D01*
X0240271Y0059572D01*
X0239891Y0060491D01*
X0239187Y0061194D01*
X0238269Y0061575D01*
X0237274Y0061575D01*
X0236355Y0061194D01*
X0235652Y0060491D01*
X0235271Y0059572D01*
X0235271Y0058578D01*
X0235571Y0057853D01*
X0235571Y0040986D01*
X0234079Y0039494D01*
X0233355Y0039194D01*
X0232652Y0038491D01*
X0232271Y0037572D01*
X0232271Y0036578D01*
X0232652Y0035659D01*
X0233355Y0034955D01*
X0234274Y0034575D01*
X0235269Y0034575D01*
X0236686Y0035454D02*
X0275377Y0035454D01*
X0275377Y0037052D02*
X0237860Y0037052D01*
X0239459Y0038651D02*
X0275377Y0038651D01*
X0275377Y0040249D02*
X0239971Y0040249D01*
X0239971Y0041848D02*
X0275377Y0041848D01*
X0275377Y0043447D02*
X0239971Y0043447D01*
X0239971Y0045045D02*
X0275377Y0045045D01*
X0275377Y0046644D02*
X0239971Y0046644D01*
X0239971Y0048242D02*
X0275377Y0048242D01*
X0275377Y0049841D02*
X0274930Y0049841D01*
X0272956Y0049841D02*
X0272587Y0049841D01*
X0272587Y0051439D02*
X0272956Y0051439D01*
X0272956Y0053038D02*
X0272587Y0053038D01*
X0272587Y0054259D02*
X0268019Y0054259D01*
X0268019Y0054449D01*
X0268136Y0055188D01*
X0268367Y0055899D01*
X0268706Y0056566D01*
X0269146Y0057171D01*
X0269675Y0057700D01*
X0270280Y0058140D01*
X0270947Y0058479D01*
X0271658Y0058711D01*
X0272397Y0058828D01*
X0272587Y0058828D01*
X0272587Y0054259D01*
X0272587Y0054636D02*
X0272956Y0054636D01*
X0272956Y0056235D02*
X0272587Y0056235D01*
X0272587Y0057833D02*
X0272956Y0057833D01*
X0275377Y0059432D02*
X0240271Y0059432D01*
X0239971Y0057833D02*
X0250091Y0057833D01*
X0250192Y0057934D02*
X0248912Y0056654D01*
X0248219Y0054980D01*
X0248219Y0053169D01*
X0248912Y0051496D01*
X0250192Y0050215D01*
X0251866Y0049522D01*
X0253677Y0049522D01*
X0255350Y0050215D01*
X0256631Y0051496D01*
X0257324Y0053169D01*
X0257324Y0054980D01*
X0256631Y0056654D01*
X0255350Y0057934D01*
X0253677Y0058628D01*
X0251866Y0058628D01*
X0250192Y0057934D01*
X0248738Y0056235D02*
X0239971Y0056235D01*
X0239971Y0054636D02*
X0248219Y0054636D01*
X0248273Y0053038D02*
X0239971Y0053038D01*
X0239971Y0051439D02*
X0248969Y0051439D01*
X0251097Y0049841D02*
X0239971Y0049841D01*
X0235571Y0049841D02*
X0206355Y0049841D01*
X0206355Y0051439D02*
X0235571Y0051439D01*
X0235571Y0053038D02*
X0206355Y0053038D01*
X0206355Y0054636D02*
X0235571Y0054636D01*
X0235571Y0056235D02*
X0227467Y0056235D01*
X0227187Y0055955D02*
X0227891Y0056659D01*
X0228271Y0057578D01*
X0228271Y0058572D01*
X0227891Y0059491D01*
X0227187Y0060194D01*
X0226269Y0060575D01*
X0225274Y0060575D01*
X0224355Y0060194D01*
X0223652Y0059491D01*
X0223271Y0058572D01*
X0223271Y0057578D01*
X0223652Y0056659D01*
X0224355Y0055955D01*
X0225274Y0055575D01*
X0226269Y0055575D01*
X0227187Y0055955D01*
X0228271Y0057833D02*
X0235571Y0057833D01*
X0235271Y0059432D02*
X0227915Y0059432D01*
X0223627Y0059432D02*
X0206355Y0059432D01*
X0206355Y0061030D02*
X0236191Y0061030D01*
X0239352Y0061030D02*
X0275377Y0061030D01*
X0275377Y0062629D02*
X0206355Y0062629D01*
X0206355Y0064227D02*
X0275377Y0064227D01*
X0275377Y0065826D02*
X0206355Y0065826D01*
X0206355Y0067424D02*
X0275377Y0067424D01*
X0275377Y0069023D02*
X0206355Y0069023D01*
X0206355Y0075417D02*
X0275377Y0075417D01*
X0275377Y0077015D02*
X0275270Y0077015D01*
X0272956Y0077015D02*
X0272587Y0077015D01*
X0272587Y0078614D02*
X0272956Y0078614D01*
X0272956Y0080212D02*
X0272587Y0080212D01*
X0272587Y0081259D02*
X0268019Y0081259D01*
X0268019Y0081449D01*
X0268136Y0082188D01*
X0268367Y0082899D01*
X0268706Y0083566D01*
X0269146Y0084171D01*
X0269675Y0084700D01*
X0270280Y0085140D01*
X0270947Y0085479D01*
X0271658Y0085711D01*
X0272397Y0085828D01*
X0272587Y0085828D01*
X0272587Y0081259D01*
X0272587Y0081811D02*
X0272956Y0081811D01*
X0272956Y0083409D02*
X0272587Y0083409D01*
X0272587Y0085008D02*
X0272956Y0085008D01*
X0270099Y0085008D02*
X0265173Y0085008D01*
X0265350Y0084934D02*
X0263677Y0085628D01*
X0261866Y0085628D01*
X0260192Y0084934D01*
X0258912Y0083654D01*
X0258219Y0081980D01*
X0258219Y0080169D01*
X0258912Y0078496D01*
X0260192Y0077215D01*
X0261866Y0076522D01*
X0263677Y0076522D01*
X0265350Y0077215D01*
X0266631Y0078496D01*
X0267324Y0080169D01*
X0267324Y0081980D01*
X0266631Y0083654D01*
X0265350Y0084934D01*
X0266732Y0083409D02*
X0268627Y0083409D01*
X0268076Y0081811D02*
X0267324Y0081811D01*
X0267324Y0080212D02*
X0268096Y0080212D01*
X0268691Y0078614D02*
X0266680Y0078614D01*
X0264868Y0077015D02*
X0270273Y0077015D01*
X0275377Y0073818D02*
X0244563Y0073818D01*
X0245271Y0072220D02*
X0275377Y0072220D01*
X0275377Y0070621D02*
X0244853Y0070621D01*
X0250192Y0077215D02*
X0248912Y0078496D01*
X0248219Y0080169D01*
X0248219Y0081980D01*
X0248912Y0083654D01*
X0250192Y0084934D01*
X0251866Y0085628D01*
X0253677Y0085628D01*
X0255350Y0084934D01*
X0256631Y0083654D01*
X0257324Y0081980D01*
X0257324Y0080169D01*
X0256631Y0078496D01*
X0255350Y0077215D01*
X0253677Y0076522D01*
X0251866Y0076522D01*
X0250192Y0077215D01*
X0250675Y0077015D02*
X0206355Y0077015D01*
X0206355Y0078614D02*
X0248863Y0078614D01*
X0248219Y0080212D02*
X0206355Y0080212D01*
X0206355Y0081811D02*
X0213704Y0081811D01*
X0213355Y0081955D02*
X0214274Y0081575D01*
X0215269Y0081575D01*
X0216187Y0081955D01*
X0216891Y0082659D01*
X0217271Y0083578D01*
X0217271Y0084572D01*
X0216891Y0085491D01*
X0216187Y0086194D01*
X0215269Y0086575D01*
X0214274Y0086575D01*
X0213355Y0086194D01*
X0212652Y0085491D01*
X0212271Y0084572D01*
X0212271Y0083578D01*
X0212652Y0082659D01*
X0213355Y0081955D01*
X0212341Y0083409D02*
X0206355Y0083409D01*
X0206355Y0085008D02*
X0212452Y0085008D01*
X0212269Y0086575D02*
X0212993Y0086875D01*
X0236860Y0086875D01*
X0238352Y0085383D01*
X0238652Y0084659D01*
X0239355Y0083955D01*
X0240274Y0083575D01*
X0241269Y0083575D01*
X0242187Y0083955D01*
X0242891Y0084659D01*
X0243271Y0085578D01*
X0243271Y0086572D01*
X0242891Y0087491D01*
X0242187Y0088194D01*
X0241463Y0088494D01*
X0239971Y0089986D01*
X0238683Y0091275D01*
X0212993Y0091275D01*
X0212269Y0091575D01*
X0211274Y0091575D01*
X0210355Y0091194D01*
X0209652Y0090491D01*
X0209271Y0089572D01*
X0209271Y0088578D01*
X0209652Y0087659D01*
X0210355Y0086955D01*
X0211274Y0086575D01*
X0212269Y0086575D01*
X0212345Y0086606D02*
X0237129Y0086606D01*
X0238507Y0085008D02*
X0217091Y0085008D01*
X0217202Y0083409D02*
X0248810Y0083409D01*
X0248219Y0081811D02*
X0215838Y0081811D01*
X0211198Y0086606D02*
X0206355Y0086606D01*
X0206355Y0088205D02*
X0209426Y0088205D01*
X0209367Y0089803D02*
X0206071Y0089803D01*
X0205409Y0091402D02*
X0210857Y0091402D01*
X0212686Y0091402D02*
X0275377Y0091402D01*
X0275377Y0093000D02*
X0203816Y0093000D01*
X0205405Y0091411D02*
X0205405Y0091411D01*
X0194058Y0093000D02*
X0157232Y0093000D01*
X0157187Y0092955D02*
X0157891Y0093659D01*
X0158271Y0094578D01*
X0158271Y0095572D01*
X0157891Y0096491D01*
X0157187Y0097194D01*
X0156269Y0097575D01*
X0155274Y0097575D01*
X0154355Y0097194D01*
X0153652Y0096491D01*
X0153271Y0095572D01*
X0153271Y0094578D01*
X0153652Y0093659D01*
X0154355Y0092955D01*
X0155274Y0092575D01*
X0156269Y0092575D01*
X0157187Y0092955D01*
X0158271Y0094599D02*
X0275377Y0094599D01*
X0275377Y0096197D02*
X0158012Y0096197D01*
X0157187Y0098955D02*
X0156269Y0098575D01*
X0155274Y0098575D01*
X0154355Y0098955D01*
X0153652Y0099659D01*
X0153271Y0100578D01*
X0153271Y0101572D01*
X0153652Y0102491D01*
X0154355Y0103194D01*
X0155274Y0103575D01*
X0156269Y0103575D01*
X0155274Y0103575D01*
X0154355Y0103955D01*
X0153652Y0104659D01*
X0153271Y0105578D01*
X0153271Y0106572D01*
X0153652Y0107491D01*
X0154355Y0108194D01*
X0155274Y0108575D01*
X0156269Y0108575D01*
X0157187Y0108194D01*
X0157891Y0107491D01*
X0158271Y0106572D01*
X0158271Y0105578D01*
X0157891Y0104659D01*
X0157187Y0103955D01*
X0156269Y0103575D01*
X0157187Y0103194D01*
X0157891Y0102491D01*
X0158271Y0101572D01*
X0158271Y0100578D01*
X0157891Y0099659D01*
X0157187Y0098955D01*
X0157627Y0099394D02*
X0255347Y0099394D01*
X0255271Y0099578D02*
X0255652Y0098659D01*
X0256355Y0097955D01*
X0257274Y0097575D01*
X0258269Y0097575D01*
X0259187Y0097955D01*
X0259891Y0098659D01*
X0260271Y0099578D01*
X0260271Y0100572D01*
X0259891Y0101491D01*
X0259187Y0102194D01*
X0258269Y0102575D01*
X0257274Y0102575D01*
X0256355Y0102194D01*
X0255652Y0101491D01*
X0255271Y0100572D01*
X0255271Y0099578D01*
X0255446Y0100993D02*
X0158271Y0100993D01*
X0157790Y0102591D02*
X0275377Y0102591D01*
X0275377Y0100993D02*
X0260097Y0100993D01*
X0260195Y0099394D02*
X0275377Y0099394D01*
X0275377Y0097796D02*
X0258802Y0097796D01*
X0256740Y0097796D02*
X0044760Y0097796D01*
X0044760Y0097753D02*
X0044095Y0096148D01*
X0042867Y0094920D01*
X0041262Y0094255D01*
X0039525Y0094255D01*
X0037920Y0094920D01*
X0036691Y0096148D01*
X0036026Y0097753D01*
X0036026Y0099491D01*
X0036691Y0101096D01*
X0037920Y0102324D01*
X0039525Y0102989D01*
X0041262Y0102989D01*
X0042867Y0102324D01*
X0044095Y0101096D01*
X0044760Y0099491D01*
X0044760Y0097753D01*
X0044760Y0099394D02*
X0153916Y0099394D01*
X0153271Y0100993D02*
X0044138Y0100993D01*
X0042222Y0102591D02*
X0153752Y0102591D01*
X0154121Y0104190D02*
X0031314Y0104190D01*
X0032876Y0102591D02*
X0038565Y0102591D01*
X0036649Y0100993D02*
X0033539Y0100993D01*
X0033608Y0099394D02*
X0036026Y0099394D01*
X0036026Y0097796D02*
X0033200Y0097796D01*
X0032132Y0096197D02*
X0036671Y0096197D01*
X0038695Y0094599D02*
X0024071Y0094599D01*
X0024071Y0096197D02*
X0024796Y0096197D01*
X0024071Y0093000D02*
X0154310Y0093000D01*
X0153271Y0094599D02*
X0042092Y0094599D01*
X0044116Y0096197D02*
X0153530Y0096197D01*
X0157422Y0104190D02*
X0250253Y0104190D01*
X0250192Y0104215D02*
X0251866Y0103522D01*
X0253677Y0103522D01*
X0255350Y0104215D01*
X0256631Y0105496D01*
X0257324Y0107169D01*
X0257324Y0108980D01*
X0256631Y0110654D01*
X0255350Y0111934D01*
X0253677Y0112628D01*
X0251866Y0112628D01*
X0250192Y0111934D01*
X0248912Y0110654D01*
X0248219Y0108980D01*
X0248219Y0107169D01*
X0248912Y0105496D01*
X0250192Y0104215D01*
X0248791Y0105788D02*
X0158271Y0105788D01*
X0157934Y0107387D02*
X0248219Y0107387D01*
X0248221Y0108985D02*
X0136100Y0108985D01*
X0136271Y0108572D02*
X0135891Y0109491D01*
X0135307Y0110075D01*
X0135891Y0110659D01*
X0136271Y0111578D01*
X0136271Y0112572D01*
X0135891Y0113491D01*
X0135187Y0114194D01*
X0134269Y0114575D01*
X0133274Y0114575D01*
X0132550Y0114275D01*
X0114507Y0114275D01*
X0114891Y0114659D01*
X0115271Y0115578D01*
X0115271Y0116572D01*
X0114891Y0117491D01*
X0114187Y0118194D01*
X0113269Y0118575D01*
X0112274Y0118575D01*
X0111355Y0118194D01*
X0110652Y0117491D01*
X0110271Y0116572D01*
X0110271Y0115578D01*
X0110652Y0114659D01*
X0111036Y0114275D01*
X0108683Y0114275D01*
X0106191Y0116767D01*
X0105891Y0117491D01*
X0105187Y0118194D01*
X0104269Y0118575D01*
X0103274Y0118575D01*
X0102355Y0118194D01*
X0101652Y0117491D01*
X0101271Y0116572D01*
X0101271Y0115578D01*
X0101652Y0114659D01*
X0102355Y0113955D01*
X0103079Y0113655D01*
X0103460Y0113275D01*
X0102683Y0113275D01*
X0098971Y0116986D01*
X0097683Y0118275D01*
X0096993Y0118275D01*
X0096269Y0118575D01*
X0095274Y0118575D01*
X0094355Y0118194D01*
X0093652Y0117491D01*
X0093271Y0116572D01*
X0093271Y0115578D01*
X0093652Y0114659D01*
X0094355Y0113955D01*
X0095274Y0113575D01*
X0096160Y0113575D01*
X0100160Y0109575D01*
X0099274Y0109575D01*
X0098355Y0109194D01*
X0097652Y0108491D01*
X0097271Y0107572D01*
X0097271Y0106578D01*
X0097652Y0105659D01*
X0098355Y0104955D01*
X0099274Y0104575D01*
X0100269Y0104575D01*
X0101187Y0104955D01*
X0101891Y0105659D01*
X0102271Y0106578D01*
X0102271Y0107572D01*
X0101891Y0108491D01*
X0101507Y0108875D01*
X0104860Y0108875D01*
X0105860Y0107875D01*
X0113397Y0107875D01*
X0113271Y0107572D01*
X0113271Y0106578D01*
X0113652Y0105659D01*
X0114355Y0104955D01*
X0115274Y0104575D01*
X0116269Y0104575D01*
X0117187Y0104955D01*
X0117891Y0105659D01*
X0118271Y0106578D01*
X0118271Y0107572D01*
X0118146Y0107875D01*
X0130860Y0107875D01*
X0131352Y0107383D01*
X0131652Y0106659D01*
X0132355Y0105955D01*
X0133274Y0105575D01*
X0134269Y0105575D01*
X0135187Y0105955D01*
X0135891Y0106659D01*
X0136271Y0107578D01*
X0136271Y0108572D01*
X0136192Y0107387D02*
X0153609Y0107387D01*
X0153271Y0105788D02*
X0134784Y0105788D01*
X0132758Y0105788D02*
X0117945Y0105788D01*
X0118271Y0107387D02*
X0131348Y0107387D01*
X0135816Y0110584D02*
X0248883Y0110584D01*
X0250791Y0112183D02*
X0136271Y0112183D01*
X0135601Y0113781D02*
X0275377Y0113781D01*
X0275377Y0112183D02*
X0275178Y0112183D01*
X0272956Y0112183D02*
X0272587Y0112183D01*
X0272587Y0112828D02*
X0272397Y0112828D01*
X0271658Y0112711D01*
X0270947Y0112479D01*
X0270280Y0112140D01*
X0269675Y0111700D01*
X0269146Y0111171D01*
X0268706Y0110566D01*
X0268367Y0109899D01*
X0268136Y0109188D01*
X0268019Y0108449D01*
X0268019Y0108259D01*
X0272587Y0108259D01*
X0272587Y0112828D01*
X0272587Y0110584D02*
X0272956Y0110584D01*
X0272956Y0108985D02*
X0272587Y0108985D01*
X0272587Y0107387D02*
X0272956Y0107387D01*
X0272956Y0105788D02*
X0272587Y0105788D01*
X0272587Y0104190D02*
X0272956Y0104190D01*
X0270033Y0104190D02*
X0265289Y0104190D01*
X0265350Y0104215D02*
X0266631Y0105496D01*
X0267324Y0107169D01*
X0267324Y0108980D01*
X0266631Y0110654D01*
X0265350Y0111934D01*
X0263677Y0112628D01*
X0261866Y0112628D01*
X0260192Y0111934D01*
X0258912Y0110654D01*
X0258219Y0108980D01*
X0258219Y0107169D01*
X0258912Y0105496D01*
X0260192Y0104215D01*
X0261866Y0103522D01*
X0263677Y0103522D01*
X0265350Y0104215D01*
X0266752Y0105788D02*
X0268602Y0105788D01*
X0268068Y0107387D02*
X0267324Y0107387D01*
X0267322Y0108985D02*
X0268104Y0108985D01*
X0268720Y0110584D02*
X0266660Y0110584D01*
X0264751Y0112183D02*
X0270364Y0112183D01*
X0275377Y0115380D02*
X0115189Y0115380D01*
X0115103Y0116978D02*
X0116757Y0116978D01*
X0117860Y0115875D02*
X0138550Y0115875D01*
X0139274Y0115575D01*
X0140269Y0115575D01*
X0141187Y0115955D01*
X0141891Y0116659D01*
X0142271Y0117578D01*
X0142271Y0118572D01*
X0141891Y0119491D01*
X0141187Y0120194D01*
X0140269Y0120575D01*
X0139274Y0120575D01*
X0138550Y0120275D01*
X0119683Y0120275D01*
X0117971Y0121986D01*
X0116683Y0123275D01*
X0088993Y0123275D01*
X0088269Y0123575D01*
X0087274Y0123575D01*
X0086355Y0123194D01*
X0085652Y0122491D01*
X0085271Y0121572D01*
X0085271Y0120578D01*
X0085652Y0119659D01*
X0086355Y0118955D01*
X0087274Y0118575D01*
X0088269Y0118575D01*
X0088993Y0118875D01*
X0114860Y0118875D01*
X0117860Y0115875D01*
X0115158Y0118577D02*
X0088273Y0118577D01*
X0087270Y0118577D02*
X0070809Y0118577D01*
X0070807Y0118575D02*
X0070891Y0118659D01*
X0071271Y0119578D01*
X0071271Y0120572D01*
X0070891Y0121491D01*
X0070187Y0122194D01*
X0069269Y0122575D01*
X0068274Y0122575D01*
X0067355Y0122194D01*
X0066652Y0121491D01*
X0066271Y0120572D01*
X0066271Y0119578D01*
X0066652Y0118659D01*
X0066736Y0118575D01*
X0066652Y0118491D01*
X0066271Y0117572D01*
X0066271Y0116578D01*
X0066652Y0115659D01*
X0067355Y0114955D01*
X0068274Y0114575D01*
X0069269Y0114575D01*
X0070187Y0114955D01*
X0070891Y0115659D01*
X0071271Y0116578D01*
X0071271Y0117572D01*
X0070891Y0118491D01*
X0070807Y0118575D01*
X0071271Y0116978D02*
X0093440Y0116978D01*
X0093353Y0115380D02*
X0070612Y0115380D01*
X0066931Y0115380D02*
X0024071Y0115380D01*
X0024071Y0116978D02*
X0066271Y0116978D01*
X0066734Y0118577D02*
X0024071Y0118577D01*
X0024071Y0120175D02*
X0066271Y0120175D01*
X0066935Y0121774D02*
X0024071Y0121774D01*
X0024071Y0123372D02*
X0086785Y0123372D01*
X0088758Y0123372D02*
X0124271Y0123372D01*
X0124271Y0123572D02*
X0124271Y0122578D01*
X0124652Y0121659D01*
X0125355Y0120955D01*
X0126274Y0120575D01*
X0127269Y0120575D01*
X0128187Y0120955D01*
X0128891Y0121659D01*
X0129271Y0122578D01*
X0129271Y0123572D01*
X0128891Y0124491D01*
X0128757Y0124625D01*
X0129459Y0124625D01*
X0129652Y0124159D01*
X0130355Y0123455D01*
X0131274Y0123075D01*
X0132269Y0123075D01*
X0133187Y0123455D01*
X0133891Y0124159D01*
X0134271Y0125078D01*
X0134271Y0126072D01*
X0133995Y0126740D01*
X0138352Y0122383D01*
X0138652Y0121659D01*
X0139355Y0120955D01*
X0140274Y0120575D01*
X0141269Y0120575D01*
X0142187Y0120955D01*
X0142891Y0121659D01*
X0143271Y0122578D01*
X0143271Y0123572D01*
X0142891Y0124491D01*
X0142187Y0125194D01*
X0141463Y0125494D01*
X0136083Y0130875D01*
X0152683Y0130875D01*
X0157463Y0135655D01*
X0158187Y0135955D01*
X0158891Y0136659D01*
X0159271Y0137578D01*
X0159271Y0138572D01*
X0158891Y0139491D01*
X0158187Y0140194D01*
X0157269Y0140575D01*
X0156274Y0140575D01*
X0155355Y0140194D01*
X0154652Y0139491D01*
X0154352Y0138767D01*
X0154271Y0138686D01*
X0154271Y0139572D01*
X0153891Y0140491D01*
X0153187Y0141194D01*
X0152269Y0141575D01*
X0151274Y0141575D01*
X0150355Y0141194D01*
X0149652Y0140491D01*
X0149271Y0139572D01*
X0149271Y0138578D01*
X0149652Y0137659D01*
X0150355Y0136955D01*
X0151274Y0136575D01*
X0152160Y0136575D01*
X0150860Y0135275D01*
X0148021Y0135275D01*
X0148021Y0136072D01*
X0147721Y0136796D01*
X0147721Y0139664D01*
X0156213Y0148155D01*
X0156937Y0148455D01*
X0157641Y0149159D01*
X0158021Y0150078D01*
X0158021Y0151072D01*
X0157641Y0151991D01*
X0156937Y0152694D01*
X0156501Y0152875D01*
X0198562Y0152875D01*
X0198652Y0152659D01*
X0199355Y0151955D01*
X0200274Y0151575D01*
X0201269Y0151575D01*
X0202187Y0151955D01*
X0202891Y0152659D01*
X0203271Y0153578D01*
X0203271Y0154572D01*
X0203146Y0154875D01*
X0203550Y0154875D01*
X0204274Y0154575D01*
X0205269Y0154575D01*
X0206187Y0154955D01*
X0206891Y0155659D01*
X0207271Y0156578D01*
X0207271Y0157572D01*
X0206891Y0158491D01*
X0206187Y0159194D01*
X0205269Y0159575D01*
X0204274Y0159575D01*
X0203550Y0159275D01*
X0149683Y0159275D01*
X0146683Y0162275D01*
X0135993Y0162275D01*
X0135269Y0162575D01*
X0134274Y0162575D01*
X0133355Y0162194D01*
X0132652Y0161491D01*
X0132271Y0160572D01*
X0132271Y0159578D01*
X0132652Y0158659D01*
X0133355Y0157955D01*
X0134274Y0157575D01*
X0135269Y0157575D01*
X0135993Y0157875D01*
X0142397Y0157875D01*
X0142271Y0157572D01*
X0142271Y0156578D01*
X0142652Y0155659D01*
X0143355Y0154955D01*
X0144079Y0154655D01*
X0144571Y0154164D01*
X0145860Y0152875D01*
X0154541Y0152875D01*
X0154105Y0152694D01*
X0153402Y0151991D01*
X0153102Y0151267D01*
X0144610Y0142775D01*
X0143321Y0141486D01*
X0143321Y0136796D01*
X0143021Y0136072D01*
X0143021Y0135275D01*
X0137834Y0135275D01*
X0137641Y0135741D01*
X0136937Y0136444D01*
X0136019Y0136825D01*
X0135024Y0136825D01*
X0134105Y0136444D01*
X0133402Y0135741D01*
X0133021Y0134822D01*
X0133021Y0133828D01*
X0133250Y0133275D01*
X0123993Y0133275D01*
X0123269Y0133575D01*
X0122274Y0133575D01*
X0121355Y0133194D01*
X0120652Y0132491D01*
X0120271Y0131572D01*
X0120271Y0130578D01*
X0120652Y0129659D01*
X0121070Y0129240D01*
X0120355Y0128944D01*
X0119652Y0128241D01*
X0119271Y0127322D01*
X0119271Y0126328D01*
X0119652Y0125409D01*
X0120355Y0124705D01*
X0121274Y0124325D01*
X0122269Y0124325D01*
X0122993Y0124625D01*
X0124786Y0124625D01*
X0124652Y0124491D01*
X0124271Y0123572D01*
X0124604Y0121774D02*
X0118184Y0121774D01*
X0120090Y0124971D02*
X0024071Y0124971D01*
X0024071Y0126569D02*
X0076742Y0126569D01*
X0076652Y0126659D02*
X0077355Y0125955D01*
X0078274Y0125575D01*
X0079269Y0125575D01*
X0080187Y0125955D01*
X0080891Y0126659D01*
X0081271Y0127578D01*
X0081271Y0128572D01*
X0080891Y0129491D01*
X0080187Y0130194D01*
X0079269Y0130575D01*
X0078274Y0130575D01*
X0077355Y0130194D01*
X0076652Y0129491D01*
X0076271Y0128572D01*
X0076271Y0127578D01*
X0076652Y0126659D01*
X0076271Y0128168D02*
X0062400Y0128168D01*
X0062187Y0127955D02*
X0062891Y0128659D01*
X0063271Y0129578D01*
X0063271Y0130572D01*
X0062891Y0131491D01*
X0062187Y0132194D01*
X0061269Y0132575D01*
X0060274Y0132575D01*
X0059355Y0132194D01*
X0058652Y0131491D01*
X0058271Y0130572D01*
X0058271Y0129578D01*
X0058652Y0128659D01*
X0059355Y0127955D01*
X0060274Y0127575D01*
X0061269Y0127575D01*
X0062187Y0127955D01*
X0063271Y0129766D02*
X0076927Y0129766D01*
X0080616Y0129766D02*
X0092559Y0129766D01*
X0092652Y0129991D02*
X0092271Y0129072D01*
X0092271Y0128078D01*
X0092652Y0127159D01*
X0093355Y0126455D01*
X0094274Y0126075D01*
X0095269Y0126075D01*
X0096187Y0126455D01*
X0096891Y0127159D01*
X0097271Y0128078D01*
X0097271Y0129072D01*
X0096891Y0129991D01*
X0096187Y0130694D01*
X0095269Y0131075D01*
X0094274Y0131075D01*
X0093355Y0130694D01*
X0092652Y0129991D01*
X0092271Y0128168D02*
X0081271Y0128168D01*
X0080801Y0126569D02*
X0093242Y0126569D01*
X0096301Y0126569D02*
X0119271Y0126569D01*
X0119622Y0128168D02*
X0097271Y0128168D01*
X0096984Y0129766D02*
X0104607Y0129766D01*
X0104652Y0129659D02*
X0105355Y0128955D01*
X0106274Y0128575D01*
X0107269Y0128575D01*
X0108187Y0128955D01*
X0108891Y0129659D01*
X0109271Y0130578D01*
X0109271Y0131572D01*
X0108891Y0132491D01*
X0108187Y0133194D01*
X0107269Y0133575D01*
X0106807Y0133575D01*
X0107141Y0133909D01*
X0107521Y0134828D01*
X0107521Y0135822D01*
X0107141Y0136741D01*
X0106437Y0137444D01*
X0105519Y0137825D01*
X0104524Y0137825D01*
X0103605Y0137444D01*
X0102902Y0136741D01*
X0102679Y0136203D01*
X0102187Y0136694D01*
X0101269Y0137075D01*
X0100274Y0137075D01*
X0099355Y0136694D01*
X0098652Y0135991D01*
X0098271Y0135072D01*
X0098271Y0134078D01*
X0098652Y0133159D01*
X0099355Y0132455D01*
X0100274Y0132075D01*
X0101269Y0132075D01*
X0102187Y0132455D01*
X0102891Y0133159D01*
X0103114Y0133697D01*
X0103605Y0133205D01*
X0104524Y0132825D01*
X0104986Y0132825D01*
X0104652Y0132491D01*
X0104271Y0131572D01*
X0104271Y0130578D01*
X0104652Y0129659D01*
X0104271Y0131365D02*
X0062943Y0131365D01*
X0058600Y0131365D02*
X0024071Y0131365D01*
X0024071Y0132963D02*
X0098847Y0132963D01*
X0098271Y0134562D02*
X0059697Y0134562D01*
X0059350Y0134215D02*
X0060631Y0135496D01*
X0061324Y0137169D01*
X0061324Y0138980D01*
X0060631Y0140654D01*
X0059350Y0141934D01*
X0057677Y0142628D01*
X0055866Y0142628D01*
X0054192Y0141934D01*
X0052912Y0140654D01*
X0052219Y0138980D01*
X0052219Y0137169D01*
X0052912Y0135496D01*
X0054192Y0134215D01*
X0055866Y0133522D01*
X0057677Y0133522D01*
X0059350Y0134215D01*
X0060906Y0136160D02*
X0098821Y0136160D01*
X0098869Y0138425D02*
X0099788Y0138806D01*
X0100491Y0139509D01*
X0100872Y0140428D01*
X0100872Y0141325D01*
X0101769Y0141325D01*
X0102687Y0141705D01*
X0103391Y0142409D01*
X0103771Y0143328D01*
X0103771Y0144322D01*
X0103391Y0145241D01*
X0102687Y0145944D01*
X0101769Y0146325D01*
X0100774Y0146325D01*
X0099855Y0145944D01*
X0099152Y0145241D01*
X0098771Y0144322D01*
X0098771Y0143425D01*
X0097874Y0143425D01*
X0097150Y0143125D01*
X0096084Y0143125D01*
X0096271Y0143578D01*
X0096271Y0144572D01*
X0095891Y0145491D01*
X0095187Y0146194D01*
X0094269Y0146575D01*
X0093274Y0146575D01*
X0092355Y0146194D01*
X0091652Y0145491D01*
X0091271Y0144572D01*
X0091271Y0143578D01*
X0091459Y0143125D01*
X0080256Y0143125D01*
X0080187Y0143194D01*
X0079269Y0143575D01*
X0078274Y0143575D01*
X0077355Y0143194D01*
X0076652Y0142491D01*
X0076271Y0141572D01*
X0076271Y0140578D01*
X0076652Y0139659D01*
X0077355Y0138955D01*
X0078274Y0138575D01*
X0079269Y0138575D01*
X0079632Y0138725D01*
X0097150Y0138725D01*
X0097874Y0138425D01*
X0098869Y0138425D01*
X0100339Y0139357D02*
X0143321Y0139357D01*
X0143321Y0137759D02*
X0105678Y0137759D01*
X0104364Y0137759D02*
X0061324Y0137759D01*
X0061168Y0139357D02*
X0076953Y0139357D01*
X0076271Y0140956D02*
X0060329Y0140956D01*
X0057854Y0142554D02*
X0076715Y0142554D01*
X0076269Y0147575D02*
X0075274Y0147575D01*
X0074355Y0147955D01*
X0073652Y0148659D01*
X0073271Y0149578D01*
X0073271Y0150572D01*
X0073652Y0151491D01*
X0074355Y0152194D01*
X0075274Y0152575D01*
X0076269Y0152575D01*
X0076993Y0152275D01*
X0108397Y0152275D01*
X0108271Y0152578D01*
X0108271Y0153572D01*
X0108652Y0154491D01*
X0109355Y0155194D01*
X0110274Y0155575D01*
X0111269Y0155575D01*
X0112187Y0155194D01*
X0112891Y0154491D01*
X0113271Y0153572D01*
X0113271Y0152578D01*
X0113146Y0152275D01*
X0113397Y0152275D01*
X0113271Y0152578D01*
X0113271Y0153572D01*
X0113652Y0154491D01*
X0114355Y0155194D01*
X0115273Y0155574D01*
X0115271Y0155578D01*
X0115271Y0156572D01*
X0115652Y0157491D01*
X0116355Y0158194D01*
X0117274Y0158575D01*
X0118269Y0158575D01*
X0118993Y0158275D01*
X0123550Y0158275D01*
X0124274Y0158575D01*
X0125269Y0158575D01*
X0126187Y0158194D01*
X0126891Y0157491D01*
X0127271Y0156572D01*
X0127271Y0155578D01*
X0126891Y0154659D01*
X0126187Y0153955D01*
X0125269Y0153575D01*
X0124274Y0153575D01*
X0123550Y0153875D01*
X0118993Y0153875D01*
X0118270Y0153575D01*
X0118271Y0153572D01*
X0118271Y0152578D01*
X0118146Y0152275D01*
X0133550Y0152275D01*
X0134274Y0152575D01*
X0135269Y0152575D01*
X0136187Y0152194D01*
X0136891Y0151491D01*
X0137271Y0150572D01*
X0137271Y0149578D01*
X0137124Y0149221D01*
X0137187Y0149194D01*
X0137891Y0148491D01*
X0138271Y0147572D01*
X0138271Y0146578D01*
X0137891Y0145659D01*
X0137187Y0144955D01*
X0136269Y0144575D01*
X0135274Y0144575D01*
X0134355Y0144955D01*
X0133652Y0145659D01*
X0133271Y0146578D01*
X0133271Y0147572D01*
X0133397Y0147875D01*
X0076993Y0147875D01*
X0076269Y0147575D01*
X0073532Y0148948D02*
X0024071Y0148948D01*
X0024071Y0147350D02*
X0133271Y0147350D01*
X0133614Y0145751D02*
X0125630Y0145751D01*
X0125891Y0145491D02*
X0125187Y0146194D01*
X0124269Y0146575D01*
X0123274Y0146575D01*
X0122355Y0146194D01*
X0121652Y0145491D01*
X0121271Y0144572D01*
X0121271Y0143578D01*
X0121652Y0142659D01*
X0122355Y0141955D01*
X0123274Y0141575D01*
X0124269Y0141575D01*
X0125187Y0141955D01*
X0125891Y0142659D01*
X0126271Y0143578D01*
X0126271Y0144572D01*
X0125891Y0145491D01*
X0126271Y0144153D02*
X0145988Y0144153D01*
X0147587Y0145751D02*
X0137929Y0145751D01*
X0138271Y0147350D02*
X0149185Y0147350D01*
X0150784Y0148948D02*
X0137433Y0148948D01*
X0137271Y0150547D02*
X0152382Y0150547D01*
X0153556Y0152145D02*
X0136236Y0152145D01*
X0142271Y0156941D02*
X0127119Y0156941D01*
X0127174Y0155342D02*
X0142968Y0155342D01*
X0144991Y0153744D02*
X0125677Y0153744D01*
X0123866Y0153744D02*
X0118677Y0153744D01*
X0114713Y0155342D02*
X0111830Y0155342D01*
X0113200Y0153744D02*
X0113342Y0153744D01*
X0115424Y0156941D02*
X0109271Y0156941D01*
X0109271Y0156578D02*
X0108891Y0155659D01*
X0108187Y0154955D01*
X0107269Y0154575D01*
X0106274Y0154575D01*
X0105355Y0154955D01*
X0104652Y0155659D01*
X0104271Y0156578D01*
X0104271Y0157572D01*
X0104652Y0158491D01*
X0105355Y0159194D01*
X0106274Y0159575D01*
X0107269Y0159575D01*
X0108187Y0159194D01*
X0108891Y0158491D01*
X0109271Y0157572D01*
X0109271Y0156578D01*
X0109713Y0155342D02*
X0108574Y0155342D01*
X0108342Y0153744D02*
X0065251Y0153744D01*
X0065145Y0153489D02*
X0065571Y0154518D01*
X0065571Y0155632D01*
X0065145Y0156661D01*
X0064357Y0157449D01*
X0063328Y0157875D01*
X0052571Y0157875D01*
X0052571Y0162632D01*
X0052145Y0163661D01*
X0051357Y0164449D01*
X0051324Y0164482D01*
X0051324Y0165980D01*
X0050631Y0167654D01*
X0049971Y0168313D01*
X0049971Y0170749D01*
X0056584Y0177362D01*
X0057484Y0178262D01*
X0057971Y0179438D01*
X0057971Y0199875D01*
X0098408Y0199875D01*
X0099584Y0200362D01*
X0100484Y0201262D01*
X0100971Y0202438D01*
X0100971Y0203711D01*
X0100484Y0204887D01*
X0099584Y0205788D01*
X0098408Y0206275D01*
X0054135Y0206275D01*
X0052959Y0205788D01*
X0052059Y0204887D01*
X0051571Y0203711D01*
X0051571Y0181400D01*
X0044059Y0173887D01*
X0043571Y0172711D01*
X0043571Y0168313D01*
X0042912Y0167654D01*
X0042219Y0165980D01*
X0042219Y0164169D01*
X0042912Y0162496D01*
X0044192Y0161215D01*
X0045866Y0160522D01*
X0046971Y0160522D01*
X0046971Y0154518D01*
X0047398Y0153489D01*
X0048185Y0152701D01*
X0049214Y0152275D01*
X0050328Y0152275D01*
X0063328Y0152275D01*
X0064357Y0152701D01*
X0065145Y0153489D01*
X0065571Y0155342D02*
X0104968Y0155342D01*
X0104271Y0156941D02*
X0064865Y0156941D01*
X0059871Y0161736D02*
X0132897Y0161736D01*
X0132271Y0160138D02*
X0052571Y0160138D01*
X0052571Y0161736D02*
X0053671Y0161736D01*
X0054192Y0161215D02*
X0055866Y0160522D01*
X0057677Y0160522D01*
X0059350Y0161215D01*
X0060631Y0162496D01*
X0061324Y0164169D01*
X0061324Y0165980D01*
X0060631Y0167654D01*
X0059350Y0168934D01*
X0057677Y0169628D01*
X0055866Y0169628D01*
X0054192Y0168934D01*
X0052912Y0167654D01*
X0052219Y0165980D01*
X0052219Y0164169D01*
X0052912Y0162496D01*
X0054192Y0161215D01*
X0052564Y0163335D02*
X0052280Y0163335D01*
X0052219Y0164933D02*
X0051324Y0164933D01*
X0051096Y0166532D02*
X0052447Y0166532D01*
X0053388Y0168130D02*
X0050154Y0168130D01*
X0049971Y0169729D02*
X0093902Y0169729D01*
X0094274Y0169575D02*
X0093355Y0169955D01*
X0092652Y0170659D01*
X0092271Y0171578D01*
X0092271Y0172572D01*
X0092652Y0173491D01*
X0093355Y0174194D01*
X0094274Y0174575D01*
X0095269Y0174575D01*
X0096187Y0174194D01*
X0096891Y0173491D01*
X0097271Y0172572D01*
X0097271Y0171578D01*
X0096891Y0170659D01*
X0096187Y0169955D01*
X0095269Y0169575D01*
X0094274Y0169575D01*
X0095641Y0169729D02*
X0100332Y0169729D01*
X0100355Y0169705D02*
X0101274Y0169325D01*
X0102269Y0169325D01*
X0103187Y0169705D01*
X0103891Y0170409D01*
X0104271Y0171328D01*
X0104271Y0172322D01*
X0103891Y0173241D01*
X0103187Y0173944D01*
X0102269Y0174325D01*
X0101274Y0174325D01*
X0100355Y0173944D01*
X0099652Y0173241D01*
X0099271Y0172322D01*
X0099271Y0171328D01*
X0099652Y0170409D01*
X0100355Y0169705D01*
X0099271Y0171327D02*
X0097168Y0171327D01*
X0097125Y0172926D02*
X0099521Y0172926D01*
X0104021Y0172926D02*
X0117418Y0172926D01*
X0117271Y0172572D02*
X0117271Y0171578D01*
X0117652Y0170659D01*
X0118355Y0169955D01*
X0119274Y0169575D01*
X0120269Y0169575D01*
X0121187Y0169955D01*
X0121891Y0170659D01*
X0122271Y0171578D01*
X0122271Y0172572D01*
X0121891Y0173491D01*
X0121187Y0174194D01*
X0120269Y0174575D01*
X0119274Y0174575D01*
X0118355Y0174194D01*
X0117652Y0173491D01*
X0117271Y0172572D01*
X0117375Y0171327D02*
X0104271Y0171327D01*
X0103211Y0169729D02*
X0118902Y0169729D01*
X0120641Y0169729D02*
X0199623Y0169729D01*
X0199652Y0169659D02*
X0200355Y0168955D01*
X0201274Y0168575D01*
X0202269Y0168575D01*
X0203187Y0168955D01*
X0203891Y0169659D01*
X0204271Y0170578D01*
X0204271Y0171572D01*
X0203891Y0172491D01*
X0203187Y0173194D01*
X0202269Y0173575D01*
X0201274Y0173575D01*
X0200355Y0173194D01*
X0199652Y0172491D01*
X0199271Y0171572D01*
X0199271Y0170578D01*
X0199652Y0169659D01*
X0199271Y0171327D02*
X0144560Y0171327D01*
X0144891Y0171659D02*
X0145271Y0172578D01*
X0145271Y0173572D01*
X0144891Y0174491D01*
X0144187Y0175194D01*
X0143269Y0175575D01*
X0142274Y0175575D01*
X0141355Y0175194D01*
X0140652Y0174491D01*
X0140271Y0173572D01*
X0140271Y0172578D01*
X0140652Y0171659D01*
X0141355Y0170955D01*
X0142274Y0170575D01*
X0143269Y0170575D01*
X0144187Y0170955D01*
X0144891Y0171659D01*
X0145271Y0172926D02*
X0200087Y0172926D01*
X0203456Y0172926D02*
X0263578Y0172926D01*
X0263862Y0172242D02*
X0265159Y0170945D01*
X0266854Y0170243D01*
X0268689Y0170243D01*
X0270384Y0170945D01*
X0271681Y0172242D01*
X0272383Y0173937D01*
X0272383Y0175772D01*
X0271681Y0177467D01*
X0270384Y0178764D01*
X0269415Y0179165D01*
X0271079Y0180829D01*
X0272119Y0183339D01*
X0272119Y0186055D01*
X0271079Y0188564D01*
X0269159Y0190485D01*
X0266649Y0191524D01*
X0263933Y0191524D01*
X0261424Y0190485D01*
X0259503Y0188564D01*
X0258463Y0186055D01*
X0258463Y0183339D01*
X0259503Y0180829D01*
X0261424Y0178909D01*
X0263933Y0177869D01*
X0264264Y0177869D01*
X0263862Y0177467D01*
X0263160Y0175772D01*
X0263160Y0173937D01*
X0263862Y0172242D01*
X0264776Y0171327D02*
X0204271Y0171327D01*
X0203920Y0169729D02*
X0275377Y0169729D01*
X0275377Y0171327D02*
X0270767Y0171327D01*
X0271964Y0172926D02*
X0275377Y0172926D01*
X0275377Y0174524D02*
X0272383Y0174524D01*
X0272238Y0176123D02*
X0275377Y0176123D01*
X0275377Y0177721D02*
X0271426Y0177721D01*
X0269570Y0179320D02*
X0275377Y0179320D01*
X0275377Y0180918D02*
X0271116Y0180918D01*
X0271778Y0182517D02*
X0275377Y0182517D01*
X0275377Y0184116D02*
X0272119Y0184116D01*
X0272119Y0185714D02*
X0275377Y0185714D01*
X0275377Y0187313D02*
X0271598Y0187313D01*
X0270732Y0188911D02*
X0275377Y0188911D01*
X0275377Y0190510D02*
X0269099Y0190510D01*
X0275377Y0192108D02*
X0141271Y0192108D01*
X0141271Y0192572D02*
X0140891Y0193491D01*
X0140187Y0194194D01*
X0139269Y0194575D01*
X0138274Y0194575D01*
X0137355Y0194194D01*
X0136652Y0193491D01*
X0136271Y0192572D01*
X0136271Y0191578D01*
X0136652Y0190659D01*
X0137355Y0189955D01*
X0138274Y0189575D01*
X0139269Y0189575D01*
X0140187Y0189955D01*
X0140891Y0190659D01*
X0141271Y0191578D01*
X0141271Y0192572D01*
X0140675Y0193707D02*
X0275377Y0193707D01*
X0275377Y0195305D02*
X0057971Y0195305D01*
X0057971Y0193707D02*
X0136868Y0193707D01*
X0136271Y0192108D02*
X0057971Y0192108D01*
X0057971Y0190510D02*
X0136801Y0190510D01*
X0140742Y0190510D02*
X0261483Y0190510D01*
X0259850Y0188911D02*
X0145664Y0188911D01*
X0145269Y0189075D02*
X0146187Y0188694D01*
X0146891Y0187991D01*
X0147271Y0187072D01*
X0147271Y0186078D01*
X0146891Y0185159D01*
X0146187Y0184455D01*
X0145751Y0184275D01*
X0151550Y0184275D01*
X0152274Y0184575D01*
X0153269Y0184575D01*
X0154187Y0184194D01*
X0154891Y0183491D01*
X0155271Y0182572D01*
X0155271Y0181578D01*
X0154891Y0180659D01*
X0154187Y0179955D01*
X0153269Y0179575D01*
X0152274Y0179575D01*
X0151550Y0179875D01*
X0124146Y0179875D01*
X0124271Y0179572D01*
X0124271Y0178578D01*
X0123891Y0177659D01*
X0123187Y0176955D01*
X0122269Y0176575D01*
X0121274Y0176575D01*
X0120355Y0176955D01*
X0119652Y0177659D01*
X0119271Y0178578D01*
X0119271Y0179572D01*
X0119397Y0179875D01*
X0113683Y0179875D01*
X0113191Y0179383D01*
X0112891Y0178659D01*
X0112187Y0177955D01*
X0111269Y0177575D01*
X0110274Y0177575D01*
X0109355Y0177955D01*
X0108652Y0178659D01*
X0108271Y0179578D01*
X0108271Y0180572D01*
X0108652Y0181491D01*
X0109355Y0182194D01*
X0110079Y0182494D01*
X0110571Y0182986D01*
X0111860Y0184275D01*
X0143791Y0184275D01*
X0143355Y0184455D01*
X0142652Y0185159D01*
X0142271Y0186078D01*
X0142271Y0187072D01*
X0142652Y0187991D01*
X0143355Y0188694D01*
X0144274Y0189075D01*
X0145269Y0189075D01*
X0143879Y0188911D02*
X0057971Y0188911D01*
X0057971Y0187313D02*
X0142371Y0187313D01*
X0142422Y0185714D02*
X0057971Y0185714D01*
X0057971Y0184116D02*
X0111701Y0184116D01*
X0110102Y0182517D02*
X0057971Y0182517D01*
X0057971Y0180918D02*
X0108415Y0180918D01*
X0108378Y0179320D02*
X0057922Y0179320D01*
X0056944Y0177721D02*
X0109920Y0177721D01*
X0111623Y0177721D02*
X0119626Y0177721D01*
X0119271Y0179320D02*
X0113165Y0179320D01*
X0119153Y0174524D02*
X0095390Y0174524D01*
X0094153Y0174524D02*
X0053746Y0174524D01*
X0052148Y0172926D02*
X0092418Y0172926D01*
X0092375Y0171327D02*
X0050549Y0171327D01*
X0046294Y0176123D02*
X0024071Y0176123D01*
X0024071Y0177721D02*
X0047893Y0177721D01*
X0049491Y0179320D02*
X0024071Y0179320D01*
X0024071Y0180918D02*
X0051090Y0180918D01*
X0051571Y0182517D02*
X0024071Y0182517D01*
X0024071Y0184116D02*
X0051571Y0184116D01*
X0051571Y0185714D02*
X0024071Y0185714D01*
X0024071Y0187313D02*
X0051571Y0187313D01*
X0051571Y0188911D02*
X0050046Y0188911D01*
X0050631Y0189496D02*
X0051324Y0191169D01*
X0051324Y0192980D01*
X0050631Y0194654D01*
X0049350Y0195934D01*
X0047677Y0196628D01*
X0045866Y0196628D01*
X0044192Y0195934D01*
X0042912Y0194654D01*
X0042219Y0192980D01*
X0042219Y0191169D01*
X0042912Y0189496D01*
X0044192Y0188215D01*
X0045866Y0187522D01*
X0047677Y0187522D01*
X0049350Y0188215D01*
X0050631Y0189496D01*
X0051051Y0190510D02*
X0051571Y0190510D01*
X0051571Y0192108D02*
X0051324Y0192108D01*
X0051571Y0193707D02*
X0051023Y0193707D01*
X0051571Y0195305D02*
X0049980Y0195305D01*
X0051571Y0196904D02*
X0024071Y0196904D01*
X0024071Y0198502D02*
X0051571Y0198502D01*
X0051571Y0200101D02*
X0024071Y0200101D01*
X0024071Y0201699D02*
X0051571Y0201699D01*
X0051571Y0203298D02*
X0024071Y0203298D01*
X0024071Y0204896D02*
X0052067Y0204896D01*
X0057971Y0198502D02*
X0275377Y0198502D01*
X0275377Y0196904D02*
X0057971Y0196904D01*
X0043563Y0195305D02*
X0040262Y0195305D01*
X0040397Y0195171D02*
X0039868Y0195700D01*
X0039262Y0196140D01*
X0038596Y0196479D01*
X0037884Y0196711D01*
X0037145Y0196828D01*
X0036956Y0196828D01*
X0036956Y0192259D01*
X0041524Y0192259D01*
X0041524Y0192449D01*
X0041407Y0193188D01*
X0041176Y0193899D01*
X0040836Y0194566D01*
X0040397Y0195171D01*
X0041238Y0193707D02*
X0042519Y0193707D01*
X0042219Y0192108D02*
X0036956Y0192108D01*
X0036956Y0192259D02*
X0036956Y0191891D01*
X0041524Y0191891D01*
X0041524Y0191701D01*
X0041407Y0190962D01*
X0041176Y0190250D01*
X0040836Y0189584D01*
X0040397Y0188979D01*
X0039868Y0188450D01*
X0039262Y0188010D01*
X0038596Y0187670D01*
X0037884Y0187439D01*
X0037145Y0187322D01*
X0036956Y0187322D01*
X0036956Y0191890D01*
X0036587Y0191890D01*
X0036587Y0187322D01*
X0036397Y0187322D01*
X0035658Y0187439D01*
X0034947Y0187670D01*
X0034280Y0188010D01*
X0033675Y0188450D01*
X0033146Y0188979D01*
X0032706Y0189584D01*
X0032367Y0190250D01*
X0032136Y0190962D01*
X0032019Y0191701D01*
X0032019Y0191891D01*
X0036587Y0191891D01*
X0036587Y0192259D01*
X0032019Y0192259D01*
X0032019Y0192449D01*
X0032136Y0193188D01*
X0032367Y0193899D01*
X0032706Y0194566D01*
X0033146Y0195171D01*
X0033675Y0195700D01*
X0034280Y0196140D01*
X0034947Y0196479D01*
X0035658Y0196711D01*
X0036397Y0196828D01*
X0036587Y0196828D01*
X0036587Y0192259D01*
X0036956Y0192259D01*
X0036587Y0192108D02*
X0031324Y0192108D01*
X0031051Y0190510D02*
X0032283Y0190510D01*
X0033214Y0188911D02*
X0030046Y0188911D01*
X0031023Y0193707D02*
X0032304Y0193707D01*
X0033280Y0195305D02*
X0029980Y0195305D01*
X0036587Y0195305D02*
X0036956Y0195305D01*
X0036956Y0193707D02*
X0036587Y0193707D01*
X0036587Y0190510D02*
X0036956Y0190510D01*
X0036956Y0188911D02*
X0036587Y0188911D01*
X0040329Y0188911D02*
X0043497Y0188911D01*
X0042492Y0190510D02*
X0041260Y0190510D01*
X0055345Y0176123D02*
X0152271Y0176123D01*
X0152271Y0176572D02*
X0152271Y0175578D01*
X0152652Y0174659D01*
X0153355Y0173955D01*
X0154274Y0173575D01*
X0155269Y0173575D01*
X0156187Y0173955D01*
X0156271Y0174039D01*
X0156355Y0173955D01*
X0157274Y0173575D01*
X0158269Y0173575D01*
X0159187Y0173955D01*
X0159271Y0174039D01*
X0159355Y0173955D01*
X0160274Y0173575D01*
X0161269Y0173575D01*
X0162187Y0173955D01*
X0162271Y0174039D01*
X0162355Y0173955D01*
X0163274Y0173575D01*
X0164269Y0173575D01*
X0165187Y0173955D01*
X0165271Y0174039D01*
X0165355Y0173955D01*
X0166274Y0173575D01*
X0167269Y0173575D01*
X0168187Y0173955D01*
X0168891Y0174659D01*
X0169271Y0175578D01*
X0169271Y0176572D01*
X0168891Y0177491D01*
X0168187Y0178194D01*
X0167269Y0178575D01*
X0166274Y0178575D01*
X0165355Y0178194D01*
X0165271Y0178110D01*
X0165187Y0178194D01*
X0164269Y0178575D01*
X0163274Y0178575D01*
X0162355Y0178194D01*
X0162271Y0178110D01*
X0162187Y0178194D01*
X0161269Y0178575D01*
X0160274Y0178575D01*
X0159355Y0178194D01*
X0159271Y0178110D01*
X0159187Y0178194D01*
X0158269Y0178575D01*
X0157274Y0178575D01*
X0156355Y0178194D01*
X0156271Y0178110D01*
X0156187Y0178194D01*
X0155269Y0178575D01*
X0154274Y0178575D01*
X0153355Y0178194D01*
X0152652Y0177491D01*
X0152271Y0176572D01*
X0152882Y0177721D02*
X0123917Y0177721D01*
X0124271Y0179320D02*
X0261012Y0179320D01*
X0259466Y0180918D02*
X0154998Y0180918D01*
X0155271Y0182517D02*
X0258804Y0182517D01*
X0258463Y0184116D02*
X0170080Y0184116D01*
X0169891Y0183659D02*
X0170271Y0184578D01*
X0170271Y0185572D01*
X0169891Y0186491D01*
X0169187Y0187194D01*
X0168269Y0187575D01*
X0167274Y0187575D01*
X0166355Y0187194D01*
X0165652Y0186491D01*
X0165271Y0185572D01*
X0165271Y0184578D01*
X0165652Y0183659D01*
X0166355Y0182955D01*
X0167274Y0182575D01*
X0168269Y0182575D01*
X0169187Y0182955D01*
X0169891Y0183659D01*
X0170213Y0185714D02*
X0258463Y0185714D01*
X0258984Y0187313D02*
X0168902Y0187313D01*
X0166641Y0187313D02*
X0147172Y0187313D01*
X0147121Y0185714D02*
X0165330Y0185714D01*
X0165463Y0184116D02*
X0154266Y0184116D01*
X0152786Y0174524D02*
X0144857Y0174524D01*
X0140685Y0174524D02*
X0120390Y0174524D01*
X0122125Y0172926D02*
X0140271Y0172926D01*
X0140983Y0171327D02*
X0122168Y0171327D01*
X0124188Y0158539D02*
X0118354Y0158539D01*
X0117188Y0158539D02*
X0108842Y0158539D01*
X0104700Y0158539D02*
X0052571Y0158539D01*
X0046971Y0158539D02*
X0024071Y0158539D01*
X0024071Y0156941D02*
X0046971Y0156941D01*
X0046971Y0155342D02*
X0024071Y0155342D01*
X0024071Y0153744D02*
X0047292Y0153744D01*
X0046971Y0160138D02*
X0024071Y0160138D01*
X0029871Y0161736D02*
X0033671Y0161736D01*
X0034192Y0161215D02*
X0035866Y0160522D01*
X0037677Y0160522D01*
X0039350Y0161215D01*
X0040631Y0162496D01*
X0041324Y0164169D01*
X0041324Y0165980D01*
X0040631Y0167654D01*
X0039350Y0168934D01*
X0037677Y0169628D01*
X0035866Y0169628D01*
X0034192Y0168934D01*
X0032912Y0167654D01*
X0032219Y0165980D01*
X0032219Y0164169D01*
X0032912Y0162496D01*
X0034192Y0161215D01*
X0032564Y0163335D02*
X0030979Y0163335D01*
X0031324Y0164933D02*
X0032219Y0164933D01*
X0032447Y0166532D02*
X0031096Y0166532D01*
X0030154Y0168130D02*
X0033388Y0168130D01*
X0040154Y0168130D02*
X0043388Y0168130D01*
X0043571Y0169729D02*
X0024071Y0169729D01*
X0024071Y0171327D02*
X0043571Y0171327D01*
X0043660Y0172926D02*
X0024071Y0172926D01*
X0024071Y0174524D02*
X0044696Y0174524D01*
X0042447Y0166532D02*
X0041096Y0166532D01*
X0041324Y0164933D02*
X0042219Y0164933D01*
X0042564Y0163335D02*
X0040979Y0163335D01*
X0039871Y0161736D02*
X0043671Y0161736D01*
X0060979Y0163335D02*
X0263716Y0163335D01*
X0263862Y0163687D02*
X0263160Y0161992D01*
X0263160Y0160157D01*
X0263862Y0158462D01*
X0265159Y0157165D01*
X0266854Y0156463D01*
X0268689Y0156463D01*
X0270384Y0157165D01*
X0271681Y0158462D01*
X0272383Y0160157D01*
X0272383Y0161992D01*
X0271681Y0163687D01*
X0270384Y0164984D01*
X0268689Y0165687D01*
X0266854Y0165687D01*
X0265159Y0164984D01*
X0263862Y0163687D01*
X0265108Y0164933D02*
X0181005Y0164933D01*
X0180891Y0164659D02*
X0181271Y0165578D01*
X0181271Y0166572D01*
X0180891Y0167491D01*
X0180187Y0168194D01*
X0179269Y0168575D01*
X0178274Y0168575D01*
X0177355Y0168194D01*
X0176652Y0167491D01*
X0176271Y0166572D01*
X0176271Y0165578D01*
X0176652Y0164659D01*
X0177355Y0163955D01*
X0178274Y0163575D01*
X0179269Y0163575D01*
X0180187Y0163955D01*
X0180891Y0164659D01*
X0181271Y0166532D02*
X0275377Y0166532D01*
X0275377Y0168130D02*
X0180251Y0168130D01*
X0177291Y0168130D02*
X0071251Y0168130D01*
X0071187Y0168194D02*
X0070269Y0168575D01*
X0069274Y0168575D01*
X0068355Y0168194D01*
X0067652Y0167491D01*
X0067271Y0166572D01*
X0067271Y0165578D01*
X0067652Y0164659D01*
X0068355Y0163955D01*
X0069274Y0163575D01*
X0070269Y0163575D01*
X0071187Y0163955D01*
X0071891Y0164659D01*
X0072271Y0165578D01*
X0072271Y0166572D01*
X0071891Y0167491D01*
X0071187Y0168194D01*
X0072271Y0166532D02*
X0176271Y0166532D01*
X0176538Y0164933D02*
X0072005Y0164933D01*
X0067538Y0164933D02*
X0061324Y0164933D01*
X0061096Y0166532D02*
X0067271Y0166532D01*
X0068291Y0168130D02*
X0060154Y0168130D01*
X0074306Y0152145D02*
X0024071Y0152145D01*
X0024071Y0150547D02*
X0073271Y0150547D01*
X0091271Y0144153D02*
X0024071Y0144153D01*
X0024071Y0145751D02*
X0091912Y0145751D01*
X0095630Y0145751D02*
X0099662Y0145751D01*
X0098771Y0144153D02*
X0096271Y0144153D01*
X0100872Y0140956D02*
X0143321Y0140956D01*
X0144390Y0142554D02*
X0125786Y0142554D01*
X0121756Y0142554D02*
X0103451Y0142554D01*
X0103771Y0144153D02*
X0121271Y0144153D01*
X0121912Y0145751D02*
X0102880Y0145751D01*
X0107381Y0136160D02*
X0133821Y0136160D01*
X0133021Y0134562D02*
X0107411Y0134562D01*
X0108419Y0132963D02*
X0121124Y0132963D01*
X0120271Y0131365D02*
X0109271Y0131365D01*
X0108935Y0129766D02*
X0120607Y0129766D01*
X0129271Y0123372D02*
X0130556Y0123372D01*
X0128938Y0121774D02*
X0138604Y0121774D01*
X0137363Y0123372D02*
X0132986Y0123372D01*
X0134227Y0124971D02*
X0135764Y0124971D01*
X0134166Y0126569D02*
X0134065Y0126569D01*
X0137191Y0129766D02*
X0152352Y0129766D01*
X0152271Y0129572D02*
X0152271Y0128578D01*
X0152652Y0127659D01*
X0153355Y0126955D01*
X0154274Y0126575D01*
X0155269Y0126575D01*
X0156187Y0126955D01*
X0156271Y0127039D01*
X0156355Y0126955D01*
X0157274Y0126575D01*
X0158269Y0126575D01*
X0159187Y0126955D01*
X0159271Y0127039D01*
X0159355Y0126955D01*
X0160274Y0126575D01*
X0161269Y0126575D01*
X0162187Y0126955D01*
X0162271Y0127039D01*
X0162355Y0126955D01*
X0163274Y0126575D01*
X0164269Y0126575D01*
X0165187Y0126955D01*
X0165271Y0127039D01*
X0165355Y0126955D01*
X0166274Y0126575D01*
X0167269Y0126575D01*
X0168187Y0126955D01*
X0168891Y0127659D01*
X0169271Y0128578D01*
X0169271Y0129572D01*
X0168891Y0130491D01*
X0168187Y0131194D01*
X0167269Y0131575D01*
X0166274Y0131575D01*
X0165355Y0131194D01*
X0165271Y0131110D01*
X0165187Y0131194D01*
X0164269Y0131575D01*
X0163274Y0131575D01*
X0162355Y0131194D01*
X0162271Y0131110D01*
X0162187Y0131194D01*
X0161269Y0131575D01*
X0160274Y0131575D01*
X0159355Y0131194D01*
X0159271Y0131110D01*
X0159187Y0131194D01*
X0158269Y0131575D01*
X0157274Y0131575D01*
X0156355Y0131194D01*
X0156271Y0131110D01*
X0156187Y0131194D01*
X0155269Y0131575D01*
X0154274Y0131575D01*
X0153355Y0131194D01*
X0152652Y0130491D01*
X0152271Y0129572D01*
X0152441Y0128168D02*
X0138790Y0128168D01*
X0140388Y0126569D02*
X0201260Y0126569D01*
X0201274Y0126575D02*
X0200355Y0126194D01*
X0199652Y0125491D01*
X0199271Y0124572D01*
X0199271Y0123578D01*
X0199652Y0122659D01*
X0200355Y0121955D01*
X0201274Y0121575D01*
X0202269Y0121575D01*
X0203187Y0121955D01*
X0203891Y0122659D01*
X0204271Y0123578D01*
X0204271Y0124572D01*
X0203891Y0125491D01*
X0203187Y0126194D01*
X0202269Y0126575D01*
X0201274Y0126575D01*
X0202282Y0126569D02*
X0275377Y0126569D01*
X0275377Y0124971D02*
X0204106Y0124971D01*
X0204186Y0123372D02*
X0275377Y0123372D01*
X0275377Y0121774D02*
X0202749Y0121774D01*
X0200794Y0121774D02*
X0180938Y0121774D01*
X0180891Y0121659D02*
X0181271Y0122578D01*
X0181271Y0123572D01*
X0180891Y0124491D01*
X0180187Y0125194D01*
X0179269Y0125575D01*
X0178274Y0125575D01*
X0177355Y0125194D01*
X0176652Y0124491D01*
X0176271Y0123572D01*
X0176271Y0122578D01*
X0176652Y0121659D01*
X0177355Y0120955D01*
X0178274Y0120575D01*
X0179269Y0120575D01*
X0180187Y0120955D01*
X0180891Y0121659D01*
X0181271Y0123372D02*
X0199356Y0123372D01*
X0199436Y0124971D02*
X0180411Y0124971D01*
X0179269Y0126575D02*
X0180187Y0126955D01*
X0180891Y0127659D01*
X0181271Y0128578D01*
X0181271Y0129572D01*
X0180891Y0130491D01*
X0180187Y0131194D01*
X0179269Y0131575D01*
X0178274Y0131575D01*
X0177355Y0131194D01*
X0176652Y0130491D01*
X0176271Y0129572D01*
X0176271Y0128578D01*
X0176652Y0127659D01*
X0177355Y0126955D01*
X0178274Y0126575D01*
X0179269Y0126575D01*
X0181102Y0128168D02*
X0275377Y0128168D01*
X0275377Y0129766D02*
X0181191Y0129766D01*
X0179776Y0131365D02*
X0262148Y0131365D01*
X0261424Y0131665D02*
X0263933Y0130625D01*
X0266649Y0130625D01*
X0269159Y0131665D01*
X0271079Y0133585D01*
X0272119Y0136095D01*
X0272119Y0138811D01*
X0271079Y0141320D01*
X0269415Y0142984D01*
X0270384Y0143386D01*
X0271681Y0144683D01*
X0272383Y0146378D01*
X0272383Y0148213D01*
X0271681Y0149908D01*
X0270384Y0151205D01*
X0268689Y0151907D01*
X0266854Y0151907D01*
X0265159Y0151205D01*
X0263862Y0149908D01*
X0263160Y0148213D01*
X0263160Y0146378D01*
X0263862Y0144683D01*
X0264264Y0144280D01*
X0263933Y0144280D01*
X0261424Y0143241D01*
X0259503Y0141320D01*
X0258463Y0138811D01*
X0258463Y0136095D01*
X0259503Y0133585D01*
X0261424Y0131665D01*
X0260125Y0132963D02*
X0154771Y0132963D01*
X0153767Y0131365D02*
X0153172Y0131365D01*
X0155776Y0131365D02*
X0156767Y0131365D01*
X0158776Y0131365D02*
X0159767Y0131365D01*
X0161776Y0131365D02*
X0162767Y0131365D01*
X0164776Y0131365D02*
X0165767Y0131365D01*
X0167776Y0131365D02*
X0177767Y0131365D01*
X0176352Y0129766D02*
X0169191Y0129766D01*
X0169102Y0128168D02*
X0176441Y0128168D01*
X0177132Y0124971D02*
X0142411Y0124971D01*
X0143271Y0123372D02*
X0176271Y0123372D01*
X0176604Y0121774D02*
X0142938Y0121774D01*
X0141207Y0120175D02*
X0275377Y0120175D01*
X0275377Y0118577D02*
X0142270Y0118577D01*
X0142023Y0116978D02*
X0275377Y0116978D01*
X0260791Y0112183D02*
X0254751Y0112183D01*
X0256660Y0110584D02*
X0258883Y0110584D01*
X0258221Y0108985D02*
X0257322Y0108985D01*
X0257324Y0107387D02*
X0258219Y0107387D01*
X0258791Y0105788D02*
X0256752Y0105788D01*
X0255289Y0104190D02*
X0260253Y0104190D01*
X0275377Y0089803D02*
X0240154Y0089803D01*
X0242162Y0088205D02*
X0275377Y0088205D01*
X0275377Y0086606D02*
X0243257Y0086606D01*
X0243035Y0085008D02*
X0250370Y0085008D01*
X0255173Y0085008D02*
X0260370Y0085008D01*
X0258810Y0083409D02*
X0256732Y0083409D01*
X0257324Y0081811D02*
X0258219Y0081811D01*
X0258219Y0080212D02*
X0257324Y0080212D01*
X0256680Y0078614D02*
X0258863Y0078614D01*
X0260675Y0077015D02*
X0254868Y0077015D01*
X0255452Y0057833D02*
X0260091Y0057833D01*
X0260192Y0057934D02*
X0258912Y0056654D01*
X0258219Y0054980D01*
X0258219Y0053169D01*
X0258912Y0051496D01*
X0260192Y0050215D01*
X0261866Y0049522D01*
X0263677Y0049522D01*
X0265350Y0050215D01*
X0266631Y0051496D01*
X0267324Y0053169D01*
X0267324Y0054980D01*
X0266631Y0056654D01*
X0265350Y0057934D01*
X0263677Y0058628D01*
X0261866Y0058628D01*
X0260192Y0057934D01*
X0258738Y0056235D02*
X0256805Y0056235D01*
X0257324Y0054636D02*
X0258219Y0054636D01*
X0258273Y0053038D02*
X0257270Y0053038D01*
X0256574Y0051439D02*
X0258969Y0051439D01*
X0261097Y0049841D02*
X0254446Y0049841D01*
X0264446Y0049841D02*
X0270613Y0049841D01*
X0268812Y0051439D02*
X0266574Y0051439D01*
X0267270Y0053038D02*
X0268124Y0053038D01*
X0268048Y0054636D02*
X0267324Y0054636D01*
X0266805Y0056235D02*
X0268538Y0056235D01*
X0269858Y0057833D02*
X0265452Y0057833D01*
X0267408Y0033855D02*
X0275377Y0033855D01*
X0275377Y0032257D02*
X0269542Y0032257D01*
X0270777Y0030658D02*
X0275377Y0030658D01*
X0275377Y0029060D02*
X0271439Y0029060D01*
X0271709Y0027461D02*
X0275377Y0027461D01*
X0275377Y0025863D02*
X0271709Y0025863D01*
X0271280Y0024264D02*
X0275328Y0024264D01*
X0275022Y0022666D02*
X0270618Y0022666D01*
X0269158Y0021067D02*
X0274503Y0021067D01*
X0273542Y0019469D02*
X0266480Y0019469D01*
X0269754Y0016272D02*
X0240271Y0016272D01*
X0239511Y0017870D02*
X0272192Y0017870D01*
X0261314Y0019469D02*
X0206355Y0019469D01*
X0206355Y0021067D02*
X0246243Y0021067D01*
X0246355Y0020955D02*
X0247274Y0020575D01*
X0248269Y0020575D01*
X0249187Y0020955D01*
X0249891Y0021659D01*
X0250271Y0022578D01*
X0250271Y0023572D01*
X0249891Y0024491D01*
X0249187Y0025194D01*
X0248269Y0025575D01*
X0247274Y0025575D01*
X0246355Y0025194D01*
X0245652Y0024491D01*
X0245271Y0023572D01*
X0245271Y0022578D01*
X0245652Y0021659D01*
X0246355Y0020955D01*
X0245271Y0022666D02*
X0206355Y0022666D01*
X0206355Y0024264D02*
X0245558Y0024264D01*
X0249985Y0024264D02*
X0256515Y0024264D01*
X0256086Y0025863D02*
X0206355Y0025863D01*
X0206355Y0017870D02*
X0236031Y0017870D01*
X0235271Y0016272D02*
X0206560Y0016272D01*
X0206355Y0035454D02*
X0232857Y0035454D01*
X0232271Y0037052D02*
X0206355Y0037052D01*
X0206355Y0038651D02*
X0212660Y0038651D01*
X0212652Y0038659D02*
X0213355Y0037955D01*
X0214274Y0037575D01*
X0215269Y0037575D01*
X0216187Y0037955D01*
X0216891Y0038659D01*
X0217271Y0039578D01*
X0217271Y0040572D01*
X0216891Y0041491D01*
X0216187Y0042194D01*
X0215269Y0042575D01*
X0214274Y0042575D01*
X0213355Y0042194D01*
X0212652Y0041491D01*
X0212271Y0040572D01*
X0212271Y0039578D01*
X0212652Y0038659D01*
X0212271Y0040249D02*
X0206355Y0040249D01*
X0206355Y0041848D02*
X0213009Y0041848D01*
X0216534Y0041848D02*
X0235571Y0041848D01*
X0235571Y0043447D02*
X0206355Y0043447D01*
X0206355Y0045045D02*
X0235571Y0045045D01*
X0235571Y0046644D02*
X0206355Y0046644D01*
X0206355Y0048242D02*
X0235571Y0048242D01*
X0234835Y0040249D02*
X0217271Y0040249D01*
X0216883Y0038651D02*
X0232812Y0038651D01*
X0239526Y0033855D02*
X0260386Y0033855D01*
X0258252Y0032257D02*
X0240271Y0032257D01*
X0239891Y0030658D02*
X0257018Y0030658D01*
X0257177Y0022666D02*
X0250271Y0022666D01*
X0249299Y0021067D02*
X0258637Y0021067D01*
X0224076Y0056235D02*
X0206355Y0056235D01*
X0206355Y0057833D02*
X0223271Y0057833D01*
X0191519Y0057833D02*
X0054271Y0057833D01*
X0054271Y0057578D02*
X0053891Y0056659D01*
X0053187Y0055955D01*
X0052269Y0055575D01*
X0051274Y0055575D01*
X0050355Y0055955D01*
X0049652Y0056659D01*
X0049271Y0057578D01*
X0049271Y0058572D01*
X0049652Y0059491D01*
X0050355Y0060194D01*
X0051274Y0060575D01*
X0052269Y0060575D01*
X0053187Y0060194D01*
X0053891Y0059491D01*
X0054271Y0058572D01*
X0054271Y0057578D01*
X0053467Y0056235D02*
X0191519Y0056235D01*
X0191519Y0059432D02*
X0186428Y0059432D01*
X0187037Y0059684D02*
X0188162Y0060809D01*
X0188771Y0062279D01*
X0188771Y0063870D01*
X0188162Y0065341D01*
X0187037Y0066466D01*
X0185567Y0067075D01*
X0183976Y0067075D01*
X0182506Y0066466D01*
X0181380Y0065341D01*
X0180771Y0063870D01*
X0180771Y0062279D01*
X0181380Y0060809D01*
X0182506Y0059684D01*
X0183976Y0059075D01*
X0185567Y0059075D01*
X0187037Y0059684D01*
X0188254Y0061030D02*
X0191519Y0061030D01*
X0191519Y0062629D02*
X0188771Y0062629D01*
X0188624Y0064227D02*
X0191519Y0064227D01*
X0191519Y0065826D02*
X0187677Y0065826D01*
X0191519Y0067424D02*
X0143291Y0067424D01*
X0142686Y0067675D02*
X0140856Y0067675D01*
X0139166Y0066974D01*
X0137872Y0065680D01*
X0137171Y0063990D01*
X0137171Y0062160D01*
X0137872Y0060469D01*
X0139166Y0059175D01*
X0140856Y0058475D01*
X0142686Y0058475D01*
X0144377Y0059175D01*
X0145671Y0060469D01*
X0146371Y0062160D01*
X0146371Y0063990D01*
X0145671Y0065680D01*
X0144377Y0066974D01*
X0142686Y0067675D01*
X0140251Y0067424D02*
X0036918Y0067424D01*
X0036891Y0067491D02*
X0036187Y0068194D01*
X0035269Y0068575D01*
X0034274Y0068575D01*
X0033355Y0068194D01*
X0032652Y0067491D01*
X0032271Y0066572D01*
X0032271Y0065578D01*
X0032652Y0064659D01*
X0033355Y0063955D01*
X0034274Y0063575D01*
X0035269Y0063575D01*
X0036187Y0063955D01*
X0036891Y0064659D01*
X0037271Y0065578D01*
X0037271Y0066572D01*
X0036891Y0067491D01*
X0037271Y0065826D02*
X0138017Y0065826D01*
X0137270Y0064227D02*
X0036459Y0064227D01*
X0033083Y0064227D02*
X0024071Y0064227D01*
X0024071Y0062629D02*
X0137171Y0062629D01*
X0137639Y0061030D02*
X0024071Y0061030D01*
X0024071Y0059432D02*
X0049627Y0059432D01*
X0049271Y0057833D02*
X0024071Y0057833D01*
X0024071Y0056235D02*
X0050076Y0056235D01*
X0053915Y0059432D02*
X0138909Y0059432D01*
X0144634Y0059432D02*
X0169114Y0059432D01*
X0168506Y0059684D02*
X0169976Y0059075D01*
X0171567Y0059075D01*
X0173037Y0059684D01*
X0174162Y0060809D01*
X0174771Y0062279D01*
X0174771Y0063870D01*
X0174162Y0065341D01*
X0173037Y0066466D01*
X0171567Y0067075D01*
X0169976Y0067075D01*
X0168506Y0066466D01*
X0167380Y0065341D01*
X0166771Y0063870D01*
X0166771Y0062279D01*
X0167380Y0060809D01*
X0168506Y0059684D01*
X0167289Y0061030D02*
X0145903Y0061030D01*
X0146371Y0062629D02*
X0166771Y0062629D01*
X0166919Y0064227D02*
X0146273Y0064227D01*
X0145526Y0065826D02*
X0167865Y0065826D01*
X0173677Y0065826D02*
X0181865Y0065826D01*
X0180919Y0064227D02*
X0174624Y0064227D01*
X0174771Y0062629D02*
X0180771Y0062629D01*
X0181289Y0061030D02*
X0174254Y0061030D01*
X0172428Y0059432D02*
X0183114Y0059432D01*
X0191519Y0069023D02*
X0048042Y0069023D01*
X0047891Y0068659D02*
X0048271Y0069578D01*
X0048271Y0070572D01*
X0047891Y0071491D01*
X0047187Y0072194D01*
X0046269Y0072575D01*
X0045274Y0072575D01*
X0044355Y0072194D01*
X0043652Y0071491D01*
X0043271Y0070572D01*
X0043271Y0069578D01*
X0043652Y0068659D01*
X0044355Y0067955D01*
X0045274Y0067575D01*
X0046269Y0067575D01*
X0047187Y0067955D01*
X0047891Y0068659D01*
X0048251Y0070621D02*
X0191519Y0070621D01*
X0191519Y0072220D02*
X0055119Y0072220D01*
X0054769Y0072075D02*
X0055687Y0072455D01*
X0056391Y0073159D01*
X0056771Y0074078D01*
X0056771Y0075072D01*
X0056391Y0075991D01*
X0055687Y0076694D01*
X0054769Y0077075D01*
X0053774Y0077075D01*
X0052855Y0076694D01*
X0052152Y0075991D01*
X0051771Y0075072D01*
X0051771Y0074078D01*
X0052152Y0073159D01*
X0052855Y0072455D01*
X0053774Y0072075D01*
X0054769Y0072075D01*
X0053424Y0072220D02*
X0047126Y0072220D01*
X0044417Y0072220D02*
X0024071Y0072220D01*
X0024071Y0073818D02*
X0025956Y0073818D01*
X0024120Y0075417D02*
X0024071Y0075417D01*
X0024071Y0070621D02*
X0043292Y0070621D01*
X0043501Y0069023D02*
X0024071Y0069023D01*
X0024071Y0067424D02*
X0032624Y0067424D01*
X0032271Y0065826D02*
X0024071Y0065826D01*
X0030972Y0073818D02*
X0051879Y0073818D01*
X0051914Y0075417D02*
X0041880Y0075417D01*
X0041262Y0075161D02*
X0042867Y0075825D01*
X0044095Y0077054D01*
X0044760Y0078659D01*
X0044760Y0080396D01*
X0044095Y0082001D01*
X0042867Y0083230D01*
X0041262Y0083894D01*
X0039525Y0083894D01*
X0037920Y0083230D01*
X0036691Y0082001D01*
X0036026Y0080396D01*
X0036026Y0078659D01*
X0036691Y0077054D01*
X0037920Y0075825D01*
X0039525Y0075161D01*
X0041262Y0075161D01*
X0038906Y0075417D02*
X0032808Y0075417D01*
X0033480Y0077015D02*
X0036730Y0077015D01*
X0036045Y0078614D02*
X0033608Y0078614D01*
X0033258Y0080212D02*
X0036026Y0080212D01*
X0036612Y0081811D02*
X0033838Y0081811D01*
X0035202Y0083409D02*
X0038353Y0083409D01*
X0035091Y0085008D02*
X0137593Y0085008D01*
X0137872Y0085680D02*
X0137171Y0083990D01*
X0137171Y0082160D01*
X0137872Y0080469D01*
X0139166Y0079175D01*
X0140856Y0078475D01*
X0142686Y0078475D01*
X0144377Y0079175D01*
X0145671Y0080469D01*
X0146371Y0082160D01*
X0146371Y0083990D01*
X0145671Y0085680D01*
X0144377Y0086974D01*
X0142686Y0087675D01*
X0140856Y0087675D01*
X0139166Y0086974D01*
X0137872Y0085680D01*
X0138798Y0086606D02*
X0024071Y0086606D01*
X0024071Y0085008D02*
X0030452Y0085008D01*
X0030341Y0083409D02*
X0029682Y0083409D01*
X0027247Y0083409D02*
X0024071Y0083409D01*
X0024071Y0081811D02*
X0024655Y0081811D01*
X0024071Y0088205D02*
X0191519Y0088205D01*
X0191519Y0086606D02*
X0144745Y0086606D01*
X0145950Y0085008D02*
X0191519Y0085008D01*
X0191519Y0083409D02*
X0146371Y0083409D01*
X0146227Y0081811D02*
X0191519Y0081811D01*
X0191519Y0080212D02*
X0145414Y0080212D01*
X0143022Y0078614D02*
X0191519Y0078614D01*
X0187455Y0077015D02*
X0054912Y0077015D01*
X0053630Y0077015D02*
X0044057Y0077015D01*
X0044742Y0078614D02*
X0140521Y0078614D01*
X0138128Y0080212D02*
X0044760Y0080212D01*
X0044174Y0081811D02*
X0137316Y0081811D01*
X0137171Y0083409D02*
X0042433Y0083409D01*
X0056629Y0075417D02*
X0187338Y0075417D01*
X0188686Y0073818D02*
X0056664Y0073818D01*
X0024071Y0089803D02*
X0191802Y0089803D01*
X0192464Y0091402D02*
X0024071Y0091402D01*
X0024071Y0104190D02*
X0025615Y0104190D01*
X0024071Y0105788D02*
X0097598Y0105788D01*
X0097271Y0107387D02*
X0024071Y0107387D01*
X0024071Y0108985D02*
X0098147Y0108985D01*
X0099151Y0110584D02*
X0024071Y0110584D01*
X0024071Y0112183D02*
X0097552Y0112183D01*
X0094776Y0113781D02*
X0024071Y0113781D01*
X0024071Y0128168D02*
X0059143Y0128168D01*
X0058271Y0129766D02*
X0024071Y0129766D01*
X0026587Y0134562D02*
X0026956Y0134562D01*
X0026956Y0136160D02*
X0026587Y0136160D01*
X0026587Y0137759D02*
X0026956Y0137759D01*
X0026956Y0139357D02*
X0026587Y0139357D01*
X0026587Y0140956D02*
X0026956Y0140956D01*
X0026956Y0142554D02*
X0026587Y0142554D01*
X0025177Y0142554D02*
X0024071Y0142554D01*
X0028365Y0142554D02*
X0035689Y0142554D01*
X0035866Y0142628D02*
X0034192Y0141934D01*
X0032912Y0140654D01*
X0032219Y0138980D01*
X0032219Y0137169D01*
X0032912Y0135496D01*
X0034192Y0134215D01*
X0035866Y0133522D01*
X0037677Y0133522D01*
X0039350Y0134215D01*
X0040631Y0135496D01*
X0041324Y0137169D01*
X0041324Y0138980D01*
X0040631Y0140654D01*
X0039350Y0141934D01*
X0037677Y0142628D01*
X0035866Y0142628D01*
X0037854Y0142554D02*
X0045689Y0142554D01*
X0045866Y0142628D02*
X0044192Y0141934D01*
X0042912Y0140654D01*
X0042219Y0138980D01*
X0042219Y0137169D01*
X0042912Y0135496D01*
X0044192Y0134215D01*
X0045866Y0133522D01*
X0047677Y0133522D01*
X0049350Y0134215D01*
X0050631Y0135496D01*
X0051324Y0137169D01*
X0051324Y0138980D01*
X0050631Y0140654D01*
X0049350Y0141934D01*
X0047677Y0142628D01*
X0045866Y0142628D01*
X0047854Y0142554D02*
X0055689Y0142554D01*
X0053214Y0140956D02*
X0050329Y0140956D01*
X0051168Y0139357D02*
X0052375Y0139357D01*
X0052219Y0137759D02*
X0051324Y0137759D01*
X0050906Y0136160D02*
X0052637Y0136160D01*
X0053846Y0134562D02*
X0049697Y0134562D01*
X0043846Y0134562D02*
X0039697Y0134562D01*
X0040906Y0136160D02*
X0042637Y0136160D01*
X0042219Y0137759D02*
X0041324Y0137759D01*
X0041168Y0139357D02*
X0042375Y0139357D01*
X0043214Y0140956D02*
X0040329Y0140956D01*
X0033214Y0140956D02*
X0030553Y0140956D01*
X0031352Y0139357D02*
X0032375Y0139357D01*
X0032219Y0137759D02*
X0031524Y0137759D01*
X0031130Y0136160D02*
X0032637Y0136160D01*
X0033846Y0134562D02*
X0029980Y0134562D01*
X0070608Y0121774D02*
X0085355Y0121774D01*
X0085438Y0120175D02*
X0071271Y0120175D01*
X0098979Y0116978D02*
X0101440Y0116978D01*
X0101353Y0115380D02*
X0100578Y0115380D01*
X0102176Y0113781D02*
X0102776Y0113781D01*
X0106103Y0116978D02*
X0110440Y0116978D01*
X0110353Y0115380D02*
X0107578Y0115380D01*
X0102271Y0107387D02*
X0113271Y0107387D01*
X0113598Y0105788D02*
X0101945Y0105788D01*
X0102695Y0132963D02*
X0104190Y0132963D01*
X0125354Y0158539D02*
X0132771Y0158539D01*
X0147221Y0161736D02*
X0263160Y0161736D01*
X0263168Y0160138D02*
X0148820Y0160138D01*
X0157486Y0152145D02*
X0199165Y0152145D01*
X0202377Y0152145D02*
X0275377Y0152145D01*
X0275377Y0150547D02*
X0271042Y0150547D01*
X0272078Y0148948D02*
X0275377Y0148948D01*
X0275377Y0147350D02*
X0272383Y0147350D01*
X0272124Y0145751D02*
X0275377Y0145751D01*
X0275377Y0144153D02*
X0271151Y0144153D01*
X0269845Y0142554D02*
X0275377Y0142554D01*
X0275377Y0140956D02*
X0271230Y0140956D01*
X0271892Y0139357D02*
X0275377Y0139357D01*
X0275377Y0137759D02*
X0272119Y0137759D01*
X0272119Y0136160D02*
X0275377Y0136160D01*
X0275377Y0134562D02*
X0271484Y0134562D01*
X0270457Y0132963D02*
X0275377Y0132963D01*
X0275377Y0131365D02*
X0268434Y0131365D01*
X0259098Y0134562D02*
X0156369Y0134562D01*
X0158392Y0136160D02*
X0209444Y0136160D01*
X0209271Y0136578D02*
X0209652Y0135659D01*
X0210355Y0134955D01*
X0211274Y0134575D01*
X0212269Y0134575D01*
X0212993Y0134875D01*
X0239550Y0134875D01*
X0240274Y0134575D01*
X0241269Y0134575D01*
X0242187Y0134955D01*
X0242891Y0135659D01*
X0243271Y0136578D01*
X0243271Y0137572D01*
X0242891Y0138491D01*
X0242187Y0139194D01*
X0241269Y0139575D01*
X0240274Y0139575D01*
X0239550Y0139275D01*
X0212993Y0139275D01*
X0212269Y0139575D01*
X0211274Y0139575D01*
X0210355Y0139194D01*
X0209652Y0138491D01*
X0209271Y0137572D01*
X0209271Y0136578D01*
X0209349Y0137759D02*
X0159271Y0137759D01*
X0158946Y0139357D02*
X0210749Y0139357D01*
X0212794Y0139357D02*
X0239749Y0139357D01*
X0241794Y0139357D02*
X0258690Y0139357D01*
X0258463Y0137759D02*
X0243194Y0137759D01*
X0243098Y0136160D02*
X0258463Y0136160D01*
X0259352Y0140956D02*
X0153426Y0140956D01*
X0154271Y0139357D02*
X0154597Y0139357D01*
X0151745Y0136160D02*
X0147985Y0136160D01*
X0147721Y0137759D02*
X0149611Y0137759D01*
X0149271Y0139357D02*
X0147721Y0139357D01*
X0149014Y0140956D02*
X0150117Y0140956D01*
X0150612Y0142554D02*
X0260737Y0142554D01*
X0263625Y0144153D02*
X0169595Y0144153D01*
X0169771Y0144578D02*
X0169391Y0143659D01*
X0168687Y0142955D01*
X0167769Y0142575D01*
X0166774Y0142575D01*
X0165855Y0142955D01*
X0165152Y0143659D01*
X0164771Y0144578D01*
X0164771Y0145572D01*
X0165152Y0146491D01*
X0165855Y0147194D01*
X0166774Y0147575D01*
X0167769Y0147575D01*
X0168687Y0147194D01*
X0169391Y0146491D01*
X0169771Y0145572D01*
X0169771Y0144578D01*
X0169697Y0145751D02*
X0263419Y0145751D01*
X0263160Y0147350D02*
X0168312Y0147350D01*
X0166231Y0147350D02*
X0155408Y0147350D01*
X0153809Y0145751D02*
X0164846Y0145751D01*
X0164947Y0144153D02*
X0152211Y0144153D01*
X0157430Y0148948D02*
X0263464Y0148948D01*
X0264501Y0150547D02*
X0158021Y0150547D01*
X0143058Y0136160D02*
X0137222Y0136160D01*
X0168757Y0174524D02*
X0176786Y0174524D01*
X0176652Y0174659D02*
X0177355Y0173955D01*
X0178274Y0173575D01*
X0179269Y0173575D01*
X0180187Y0173955D01*
X0180891Y0174659D01*
X0181271Y0175578D01*
X0181271Y0176572D01*
X0180891Y0177491D01*
X0180187Y0178194D01*
X0179269Y0178575D01*
X0178274Y0178575D01*
X0177355Y0178194D01*
X0176652Y0177491D01*
X0176271Y0176572D01*
X0176271Y0175578D01*
X0176652Y0174659D01*
X0176271Y0176123D02*
X0169271Y0176123D01*
X0168660Y0177721D02*
X0176882Y0177721D01*
X0180660Y0177721D02*
X0264116Y0177721D01*
X0263305Y0176123D02*
X0181271Y0176123D01*
X0180757Y0174524D02*
X0263160Y0174524D01*
X0270435Y0164933D02*
X0275377Y0164933D01*
X0275377Y0163335D02*
X0271827Y0163335D01*
X0272383Y0161736D02*
X0275377Y0161736D01*
X0275377Y0160138D02*
X0272375Y0160138D01*
X0271713Y0158539D02*
X0275377Y0158539D01*
X0275377Y0156941D02*
X0269842Y0156941D01*
X0265700Y0156941D02*
X0207271Y0156941D01*
X0206842Y0158539D02*
X0263830Y0158539D01*
X0275377Y0155342D02*
X0206574Y0155342D01*
X0203271Y0153744D02*
X0275377Y0153744D01*
X0275377Y0200101D02*
X0098953Y0200101D01*
X0100665Y0201699D02*
X0275377Y0201699D01*
X0275377Y0203298D02*
X0100971Y0203298D01*
X0100475Y0204896D02*
X0275377Y0204896D01*
X0275377Y0206495D02*
X0024071Y0206495D01*
X0024071Y0208093D02*
X0275377Y0208093D01*
X0275377Y0209692D02*
X0024071Y0209692D01*
X0024071Y0211290D02*
X0177020Y0211290D01*
X0177355Y0210955D02*
X0178274Y0210575D01*
X0179269Y0210575D01*
X0180187Y0210955D01*
X0180891Y0211659D01*
X0181271Y0212578D01*
X0181271Y0213572D01*
X0180891Y0214491D01*
X0180187Y0215194D01*
X0179269Y0215575D01*
X0178274Y0215575D01*
X0177355Y0215194D01*
X0176652Y0214491D01*
X0176271Y0213572D01*
X0176271Y0212578D01*
X0176652Y0211659D01*
X0177355Y0210955D01*
X0176271Y0212889D02*
X0039357Y0212889D01*
X0039976Y0213145D02*
X0042173Y0215343D01*
X0043363Y0218214D01*
X0043363Y0221322D01*
X0042173Y0224193D01*
X0039976Y0226390D01*
X0037105Y0227580D01*
X0033997Y0227580D01*
X0031126Y0226390D01*
X0028928Y0224193D01*
X0027739Y0221322D01*
X0027739Y0218214D01*
X0028928Y0215343D01*
X0031126Y0213145D01*
X0033997Y0211956D01*
X0037105Y0211956D01*
X0039976Y0213145D01*
X0041318Y0214487D02*
X0176650Y0214487D01*
X0176187Y0215955D02*
X0176891Y0216659D01*
X0177271Y0217578D01*
X0177271Y0218572D01*
X0176891Y0219491D01*
X0176187Y0220194D01*
X0175269Y0220575D01*
X0174274Y0220575D01*
X0173355Y0220194D01*
X0172652Y0219491D01*
X0172271Y0218572D01*
X0172271Y0217578D01*
X0172652Y0216659D01*
X0173355Y0215955D01*
X0174274Y0215575D01*
X0175269Y0215575D01*
X0176187Y0215955D01*
X0176318Y0216086D02*
X0200225Y0216086D01*
X0200355Y0215955D02*
X0201274Y0215575D01*
X0202269Y0215575D01*
X0203187Y0215955D01*
X0203891Y0216659D01*
X0204271Y0217578D01*
X0204271Y0218572D01*
X0203891Y0219491D01*
X0203187Y0220194D01*
X0202269Y0220575D01*
X0201274Y0220575D01*
X0200355Y0220194D01*
X0199652Y0219491D01*
X0199271Y0218572D01*
X0199271Y0217578D01*
X0199652Y0216659D01*
X0200355Y0215955D01*
X0199271Y0217684D02*
X0177271Y0217684D01*
X0176977Y0219283D02*
X0199566Y0219283D01*
X0203977Y0219283D02*
X0245271Y0219283D01*
X0245271Y0219572D02*
X0245271Y0218578D01*
X0245652Y0217659D01*
X0246355Y0216955D01*
X0247274Y0216575D01*
X0248269Y0216575D01*
X0249187Y0216955D01*
X0249891Y0217659D01*
X0250271Y0218578D01*
X0250271Y0219572D01*
X0249891Y0220491D01*
X0249187Y0221194D01*
X0248269Y0221575D01*
X0247274Y0221575D01*
X0246355Y0221194D01*
X0245652Y0220491D01*
X0245271Y0219572D01*
X0246042Y0220881D02*
X0180009Y0220881D01*
X0180187Y0220955D02*
X0180891Y0221659D01*
X0181271Y0222578D01*
X0181271Y0223572D01*
X0180891Y0224491D01*
X0180187Y0225194D01*
X0179269Y0225575D01*
X0178274Y0225575D01*
X0177355Y0225194D01*
X0176652Y0224491D01*
X0176271Y0223572D01*
X0176271Y0222578D01*
X0176652Y0221659D01*
X0177355Y0220955D01*
X0178274Y0220575D01*
X0179269Y0220575D01*
X0180187Y0220955D01*
X0181231Y0222480D02*
X0256565Y0222480D01*
X0256086Y0221322D02*
X0256086Y0218214D01*
X0257275Y0215343D01*
X0259472Y0213145D01*
X0262343Y0211956D01*
X0265451Y0211956D01*
X0268322Y0213145D01*
X0270520Y0215343D01*
X0271709Y0218214D01*
X0271709Y0221322D01*
X0270520Y0224193D01*
X0268322Y0226390D01*
X0265451Y0227580D01*
X0262343Y0227580D01*
X0259472Y0226390D01*
X0257275Y0224193D01*
X0256086Y0221322D01*
X0256086Y0220881D02*
X0249500Y0220881D01*
X0250271Y0219283D02*
X0256086Y0219283D01*
X0256305Y0217684D02*
X0249901Y0217684D01*
X0245641Y0217684D02*
X0204271Y0217684D01*
X0203318Y0216086D02*
X0256967Y0216086D01*
X0258130Y0214487D02*
X0180892Y0214487D01*
X0181271Y0212889D02*
X0260091Y0212889D01*
X0267703Y0212889D02*
X0275377Y0212889D01*
X0275377Y0214487D02*
X0269664Y0214487D01*
X0270828Y0216086D02*
X0275377Y0216086D01*
X0275377Y0217684D02*
X0271490Y0217684D01*
X0271709Y0219283D02*
X0275377Y0219283D01*
X0275377Y0220881D02*
X0271709Y0220881D01*
X0271229Y0222480D02*
X0275328Y0222480D01*
X0275131Y0224078D02*
X0270567Y0224078D01*
X0269036Y0225677D02*
X0274702Y0225677D01*
X0274269Y0227275D02*
X0266186Y0227275D01*
X0261609Y0227275D02*
X0120507Y0227275D01*
X0120187Y0226955D02*
X0120891Y0227659D01*
X0121271Y0228578D01*
X0121271Y0229572D01*
X0120891Y0230491D01*
X0120187Y0231194D01*
X0119269Y0231575D01*
X0118274Y0231575D01*
X0117355Y0231194D01*
X0116652Y0230491D01*
X0116271Y0229572D01*
X0116271Y0228578D01*
X0116652Y0227659D01*
X0117355Y0226955D01*
X0118274Y0226575D01*
X0119269Y0226575D01*
X0120187Y0226955D01*
X0121271Y0228874D02*
X0197552Y0228874D01*
X0197355Y0228955D02*
X0198274Y0228575D01*
X0199269Y0228575D01*
X0200187Y0228955D01*
X0200891Y0229659D01*
X0201271Y0230578D01*
X0201271Y0231572D01*
X0200891Y0232491D01*
X0200187Y0233194D01*
X0199269Y0233575D01*
X0198274Y0233575D01*
X0197355Y0233194D01*
X0196652Y0232491D01*
X0196271Y0231572D01*
X0196271Y0230578D01*
X0196652Y0229659D01*
X0197355Y0228955D01*
X0196315Y0230472D02*
X0120898Y0230472D01*
X0116644Y0230472D02*
X0027025Y0230472D01*
X0026102Y0228874D02*
X0116271Y0228874D01*
X0117035Y0227275D02*
X0110992Y0227275D01*
X0111187Y0227194D02*
X0110269Y0227575D01*
X0109274Y0227575D01*
X0108550Y0227275D01*
X0099993Y0227275D01*
X0099269Y0227575D01*
X0098274Y0227575D01*
X0097355Y0227194D01*
X0096652Y0226491D01*
X0096271Y0225572D01*
X0096271Y0224578D01*
X0096652Y0223659D01*
X0097355Y0222955D01*
X0098274Y0222575D01*
X0099269Y0222575D01*
X0099993Y0222875D01*
X0108550Y0222875D01*
X0109274Y0222575D01*
X0110269Y0222575D01*
X0111187Y0222955D01*
X0111891Y0223659D01*
X0112271Y0224578D01*
X0112271Y0225572D01*
X0111891Y0226491D01*
X0111187Y0227194D01*
X0112228Y0225677D02*
X0258759Y0225677D01*
X0257227Y0224078D02*
X0181062Y0224078D01*
X0176481Y0224078D02*
X0169062Y0224078D01*
X0168891Y0224491D02*
X0168187Y0225194D01*
X0167269Y0225575D01*
X0166274Y0225575D01*
X0165355Y0225194D01*
X0165271Y0225110D01*
X0165187Y0225194D01*
X0164269Y0225575D01*
X0163274Y0225575D01*
X0162355Y0225194D01*
X0162271Y0225110D01*
X0162187Y0225194D01*
X0161269Y0225575D01*
X0160274Y0225575D01*
X0159355Y0225194D01*
X0159271Y0225110D01*
X0159187Y0225194D01*
X0158269Y0225575D01*
X0157274Y0225575D01*
X0156355Y0225194D01*
X0156271Y0225110D01*
X0156187Y0225194D01*
X0155269Y0225575D01*
X0154274Y0225575D01*
X0153355Y0225194D01*
X0152652Y0224491D01*
X0152271Y0223572D01*
X0152271Y0222578D01*
X0152652Y0221659D01*
X0153355Y0220955D01*
X0154274Y0220575D01*
X0155269Y0220575D01*
X0156187Y0220955D01*
X0156271Y0221039D01*
X0156355Y0220955D01*
X0157274Y0220575D01*
X0158269Y0220575D01*
X0159187Y0220955D01*
X0159271Y0221039D01*
X0159355Y0220955D01*
X0160274Y0220575D01*
X0161269Y0220575D01*
X0162187Y0220955D01*
X0162271Y0221039D01*
X0162355Y0220955D01*
X0163274Y0220575D01*
X0164269Y0220575D01*
X0165187Y0220955D01*
X0165271Y0221039D01*
X0165355Y0220955D01*
X0166274Y0220575D01*
X0167269Y0220575D01*
X0168187Y0220955D01*
X0168891Y0221659D01*
X0169271Y0222578D01*
X0169271Y0223572D01*
X0168891Y0224491D01*
X0169231Y0222480D02*
X0176312Y0222480D01*
X0177534Y0220881D02*
X0168009Y0220881D01*
X0165534Y0220881D02*
X0165009Y0220881D01*
X0162534Y0220881D02*
X0162009Y0220881D01*
X0159534Y0220881D02*
X0159009Y0220881D01*
X0156534Y0220881D02*
X0156009Y0220881D01*
X0153534Y0220881D02*
X0146009Y0220881D01*
X0146187Y0220955D02*
X0146891Y0221659D01*
X0147271Y0222578D01*
X0147271Y0223572D01*
X0146891Y0224491D01*
X0146187Y0225194D01*
X0145269Y0225575D01*
X0144274Y0225575D01*
X0143355Y0225194D01*
X0142652Y0224491D01*
X0142271Y0223572D01*
X0142271Y0222578D01*
X0142652Y0221659D01*
X0143355Y0220955D01*
X0144274Y0220575D01*
X0145269Y0220575D01*
X0146187Y0220955D01*
X0147231Y0222480D02*
X0152312Y0222480D01*
X0152481Y0224078D02*
X0147062Y0224078D01*
X0142481Y0224078D02*
X0112065Y0224078D01*
X0108551Y0227275D02*
X0099992Y0227275D01*
X0097551Y0227275D02*
X0037839Y0227275D01*
X0040689Y0225677D02*
X0096315Y0225677D01*
X0096478Y0224078D02*
X0078062Y0224078D01*
X0077891Y0224491D02*
X0077187Y0225194D01*
X0076269Y0225575D01*
X0075274Y0225575D01*
X0074355Y0225194D01*
X0073652Y0224491D01*
X0073271Y0223572D01*
X0073271Y0222578D01*
X0073652Y0221659D01*
X0074355Y0220955D01*
X0075274Y0220575D01*
X0076269Y0220575D01*
X0077187Y0220955D01*
X0077891Y0221659D01*
X0078271Y0222578D01*
X0078271Y0223572D01*
X0077891Y0224491D01*
X0078231Y0222480D02*
X0142312Y0222480D01*
X0143534Y0220881D02*
X0077009Y0220881D01*
X0074534Y0220881D02*
X0043363Y0220881D01*
X0043363Y0219283D02*
X0094569Y0219283D01*
X0094355Y0219194D02*
X0093652Y0218491D01*
X0093271Y0217572D01*
X0093271Y0216578D01*
X0093652Y0215659D01*
X0094355Y0214955D01*
X0095274Y0214575D01*
X0096269Y0214575D01*
X0097187Y0214955D01*
X0097891Y0215659D01*
X0098271Y0216578D01*
X0098271Y0217572D01*
X0097891Y0218491D01*
X0097187Y0219194D01*
X0096269Y0219575D01*
X0095274Y0219575D01*
X0094355Y0219194D01*
X0093318Y0217684D02*
X0043143Y0217684D01*
X0042481Y0216086D02*
X0093475Y0216086D01*
X0098068Y0216086D02*
X0173225Y0216086D01*
X0172271Y0217684D02*
X0098225Y0217684D01*
X0096974Y0219283D02*
X0172566Y0219283D01*
X0180522Y0211290D02*
X0275377Y0211290D01*
X0273346Y0228874D02*
X0219991Y0228874D01*
X0220187Y0228955D02*
X0220891Y0229659D01*
X0221271Y0230578D01*
X0221271Y0231572D01*
X0220891Y0232491D01*
X0220187Y0233194D01*
X0219269Y0233575D01*
X0218274Y0233575D01*
X0217355Y0233194D01*
X0216652Y0232491D01*
X0216271Y0231572D01*
X0216271Y0230578D01*
X0216652Y0229659D01*
X0217355Y0228955D01*
X0218274Y0228575D01*
X0219269Y0228575D01*
X0220187Y0228955D01*
X0221228Y0230472D02*
X0272423Y0230472D01*
X0270846Y0232071D02*
X0221065Y0232071D01*
X0216478Y0232071D02*
X0201065Y0232071D01*
X0201228Y0230472D02*
X0216315Y0230472D01*
X0217552Y0228874D02*
X0199991Y0228874D01*
X0196478Y0232071D02*
X0028603Y0232071D01*
X0030555Y0233669D02*
X0268893Y0233669D01*
X0265729Y0235268D02*
X0033719Y0235268D01*
X0033263Y0227275D02*
X0025179Y0227275D01*
X0024746Y0225677D02*
X0030412Y0225677D01*
X0028881Y0224078D02*
X0024318Y0224078D01*
X0024120Y0222480D02*
X0028219Y0222480D01*
X0027739Y0220881D02*
X0024071Y0220881D01*
X0024071Y0219283D02*
X0027739Y0219283D01*
X0027958Y0217684D02*
X0024071Y0217684D01*
X0024071Y0216086D02*
X0028621Y0216086D01*
X0029784Y0214487D02*
X0024071Y0214487D01*
X0024071Y0212889D02*
X0031745Y0212889D01*
X0042883Y0222480D02*
X0073312Y0222480D01*
X0073481Y0224078D02*
X0042221Y0224078D01*
X0190856Y0073818D02*
X0191519Y0073818D01*
X0159095Y0029060D02*
X0140771Y0029060D01*
X0140433Y0027461D02*
X0157432Y0027461D01*
X0111356Y0019469D02*
X0107577Y0019469D01*
X0108821Y0021067D02*
X0109336Y0021067D01*
D17*
X0046771Y0165075D02*
X0046771Y0172075D01*
X0054771Y0180075D01*
X0054771Y0203075D01*
X0097771Y0203075D01*
D18*
X0049771Y0162075D02*
X0049771Y0155075D01*
X0062771Y0155075D01*
X0049771Y0162075D02*
X0046771Y0165075D01*
X0093771Y0040075D02*
X0106771Y0040075D01*
X0109771Y0040075D01*
X0093771Y0040075D02*
X0087771Y0034075D01*
X0077771Y0034075D01*
X0074771Y0034075D01*
D19*
X0133771Y0108075D02*
X0131771Y0110075D01*
X0106771Y0110075D01*
X0105771Y0111075D01*
X0101771Y0111075D01*
X0096771Y0116075D01*
X0095771Y0116075D01*
X0087771Y0121075D02*
X0115771Y0121075D01*
X0118771Y0118075D01*
X0139771Y0118075D01*
X0140771Y0123075D02*
X0132771Y0131075D01*
X0122771Y0131075D01*
X0121771Y0126825D02*
X0130521Y0126825D01*
X0131771Y0125575D01*
X0136771Y0133075D02*
X0135521Y0134325D01*
X0136771Y0133075D02*
X0151771Y0133075D01*
X0156771Y0138075D01*
X0145521Y0135575D02*
X0145521Y0140575D01*
X0155521Y0150575D01*
X0148771Y0157075D02*
X0204771Y0157075D01*
X0200771Y0154075D02*
X0199771Y0155075D01*
X0146771Y0155075D01*
X0144771Y0157075D01*
X0145771Y0160075D02*
X0148771Y0157075D01*
X0145771Y0160075D02*
X0134771Y0160075D01*
X0134771Y0150075D02*
X0075771Y0150075D01*
X0078771Y0141075D02*
X0078921Y0140925D01*
X0098372Y0140925D01*
X0117771Y0156075D02*
X0124771Y0156075D01*
X0110771Y0180075D02*
X0112771Y0182075D01*
X0152771Y0182075D01*
X0109771Y0225075D02*
X0098771Y0225075D01*
X0211771Y0137075D02*
X0240771Y0137075D01*
X0237771Y0089075D02*
X0211771Y0089075D01*
X0206771Y0072075D02*
X0242771Y0072075D01*
X0237771Y0059075D02*
X0237771Y0040075D01*
X0234771Y0037075D01*
X0240771Y0086075D02*
X0237771Y0089075D01*
X0133771Y0112075D02*
X0107771Y0112075D01*
X0103771Y0116075D01*
M02*
