G75*
%MOIN*%
%OFA0B0*%
%FSLAX25Y25*%
%IPPOS*%
%LPD*%
%AMOC8*
5,1,8,0,0,1.08239X$1,22.5*
%
%ADD10C,0.07600*%
%ADD11R,0.06299X0.07087*%
%ADD12R,0.07087X0.06299*%
%ADD13OC8,0.06300*%
%ADD14C,0.06300*%
%ADD15R,0.07087X0.05512*%
%ADD16C,0.05906*%
%ADD17R,0.06299X0.07098*%
%ADD18R,0.07098X0.06299*%
%ADD19R,0.18110X0.03150*%
%ADD20R,0.37008X0.42520*%
%ADD21R,0.01575X0.02756*%
%ADD22R,0.22835X0.25197*%
%ADD23R,0.04724X0.08661*%
%ADD24C,0.10000*%
%ADD25OC8,0.10000*%
%ADD26R,0.06693X0.09843*%
%ADD27R,0.06693X0.03150*%
%ADD28R,0.05000X0.02992*%
%ADD29R,0.03543X0.02362*%
%ADD30R,0.02362X0.01969*%
%ADD31R,0.06890X0.01575*%
%ADD32OC8,0.07087*%
%ADD33C,0.01200*%
%ADD34C,0.02400*%
%ADD35C,0.01000*%
%ADD36C,0.03200*%
%ADD37C,0.02400*%
%ADD38C,0.01600*%
D10*
X0090882Y0019275D02*
X0090882Y0026875D01*
X0104661Y0026875D02*
X0104661Y0019275D01*
X0263971Y0147295D02*
X0271571Y0147295D01*
X0271571Y0161075D02*
X0263971Y0161075D01*
X0263971Y0174854D02*
X0271571Y0174854D01*
D11*
X0193283Y0184075D03*
X0182260Y0184075D03*
X0161283Y0200075D03*
X0161283Y0209075D03*
X0150260Y0209075D03*
X0150260Y0200075D03*
X0182260Y0231075D03*
X0193283Y0231075D03*
X0161283Y0162075D03*
X0161283Y0153075D03*
X0150260Y0153075D03*
X0150260Y0162075D03*
X0182260Y0137075D03*
X0193283Y0137075D03*
X0161283Y0115075D03*
X0161283Y0106075D03*
X0150260Y0106075D03*
X0150260Y0115075D03*
X0112283Y0129075D03*
X0101260Y0129075D03*
X0101260Y0159075D03*
X0112283Y0159075D03*
X0099283Y0040075D03*
X0088260Y0040075D03*
X0157260Y0040075D03*
X0168283Y0040075D03*
D12*
X0188771Y0081563D03*
X0188771Y0092587D03*
X0172771Y0098563D03*
X0172771Y0109587D03*
X0172771Y0118563D03*
X0172771Y0129587D03*
X0172771Y0145563D03*
X0172771Y0156587D03*
X0172771Y0165563D03*
X0172771Y0176587D03*
X0172771Y0192563D03*
X0172771Y0203587D03*
X0172771Y0212563D03*
X0172771Y0223587D03*
X0121771Y0149587D03*
X0121771Y0138563D03*
X0091771Y0138563D03*
X0091771Y0149587D03*
X0054771Y0031587D03*
X0054771Y0020563D03*
D13*
X0136771Y0029075D03*
X0184771Y0063075D03*
D14*
X0170771Y0063075D03*
X0136771Y0043075D03*
D15*
X0086771Y0069382D03*
X0086771Y0082768D03*
D16*
X0056771Y0135122D02*
X0056771Y0141028D01*
X0046771Y0141028D02*
X0046771Y0135122D01*
X0036771Y0135122D02*
X0036771Y0141028D01*
X0026771Y0141028D02*
X0026771Y0135122D01*
X0026771Y0162122D02*
X0026771Y0168028D01*
X0036771Y0168028D02*
X0036771Y0162122D01*
X0046771Y0162122D02*
X0046771Y0168028D01*
X0056771Y0168028D02*
X0056771Y0162122D01*
X0046771Y0189122D02*
X0046771Y0195028D01*
X0036771Y0195028D02*
X0036771Y0189122D01*
X0026771Y0189122D02*
X0026771Y0195028D01*
X0162371Y0030980D02*
X0162371Y0025075D01*
X0169071Y0025075D02*
X0169071Y0030980D01*
X0175771Y0030980D02*
X0175771Y0025075D01*
X0182471Y0025075D02*
X0182471Y0030980D01*
X0189171Y0030980D02*
X0189171Y0025075D01*
X0252771Y0051122D02*
X0252771Y0057028D01*
X0262771Y0057028D02*
X0262771Y0051122D01*
X0272771Y0051122D02*
X0272771Y0057028D01*
X0272771Y0078122D02*
X0272771Y0084028D01*
X0262771Y0084028D02*
X0262771Y0078122D01*
X0252771Y0078122D02*
X0252771Y0084028D01*
X0252771Y0105122D02*
X0252771Y0111028D01*
X0262771Y0111028D02*
X0262771Y0105122D01*
X0272771Y0105122D02*
X0272771Y0111028D01*
D17*
X0188370Y0040075D03*
X0177173Y0040075D03*
X0161370Y0098075D03*
X0150173Y0098075D03*
X0150173Y0123075D03*
X0161370Y0123075D03*
X0161370Y0145075D03*
X0150173Y0145075D03*
X0150173Y0170075D03*
X0161370Y0170075D03*
X0161370Y0192075D03*
X0150173Y0192075D03*
X0150173Y0217075D03*
X0161370Y0217075D03*
X0051370Y0051075D03*
X0040173Y0051075D03*
D18*
X0062771Y0031673D03*
X0062771Y0020476D03*
X0086771Y0050476D03*
X0086771Y0061673D03*
X0059771Y0082476D03*
X0050771Y0082476D03*
X0050771Y0093673D03*
X0059771Y0093673D03*
X0057771Y0185476D03*
X0066771Y0185476D03*
X0066771Y0196673D03*
X0057771Y0196673D03*
X0090771Y0196673D03*
X0099771Y0196673D03*
X0099771Y0185476D03*
X0090771Y0185476D03*
D19*
X0189960Y0193075D03*
X0189960Y0198075D03*
X0189960Y0203075D03*
X0189960Y0208075D03*
X0189960Y0213075D03*
X0189960Y0218075D03*
X0189960Y0223075D03*
X0189960Y0176075D03*
X0189960Y0171075D03*
X0189960Y0166075D03*
X0189960Y0161075D03*
X0189960Y0156075D03*
X0189960Y0151075D03*
X0189960Y0146075D03*
X0189960Y0129075D03*
X0189960Y0124075D03*
X0189960Y0119075D03*
X0189960Y0114075D03*
X0189960Y0109075D03*
X0189960Y0104075D03*
X0189960Y0099075D03*
D20*
X0225984Y0114075D03*
X0225984Y0161075D03*
X0225984Y0208075D03*
D21*
X0081330Y0193618D03*
X0078771Y0193618D03*
X0076212Y0193618D03*
X0076212Y0186531D03*
X0078771Y0186531D03*
X0081330Y0186531D03*
X0042330Y0069618D03*
X0039771Y0069618D03*
X0037212Y0069618D03*
X0037212Y0062531D03*
X0039771Y0062531D03*
X0042330Y0062531D03*
D22*
X0105771Y0059476D03*
D23*
X0096795Y0084280D03*
X0114748Y0084280D03*
D24*
X0141771Y0083075D03*
D25*
X0141771Y0063075D03*
D26*
X0075771Y0065201D03*
X0075771Y0080949D03*
D27*
X0026771Y0055768D03*
X0026771Y0042382D03*
D28*
X0207771Y0025575D03*
X0207771Y0020575D03*
X0237771Y0020575D03*
X0237771Y0025575D03*
D29*
X0026409Y0060760D03*
X0026409Y0071390D03*
D30*
X0027590Y0067650D03*
X0027590Y0064500D03*
D31*
X0039586Y0083957D03*
X0039586Y0086516D03*
X0039586Y0089075D03*
X0039586Y0091634D03*
X0039586Y0094193D03*
D32*
X0028464Y0099803D03*
X0028464Y0078346D03*
D33*
X0023871Y0039207D02*
X0023871Y0035568D01*
X0026969Y0038666D01*
X0026969Y0038666D01*
X0028031Y0039207D01*
X0026959Y0039207D01*
X0026959Y0042194D01*
X0026584Y0042194D01*
X0026584Y0039207D01*
X0023871Y0039207D01*
X0023871Y0038244D02*
X0026547Y0038244D01*
X0026584Y0039442D02*
X0026959Y0039442D01*
X0026959Y0040641D02*
X0026584Y0040641D01*
X0026584Y0041839D02*
X0026959Y0041839D01*
X0026959Y0042194D02*
X0026959Y0042569D01*
X0031718Y0042569D01*
X0031718Y0043017D01*
X0033591Y0041144D01*
X0031718Y0040847D01*
X0031718Y0042194D01*
X0026959Y0042194D01*
X0026584Y0042194D02*
X0023871Y0042194D01*
X0023871Y0042569D01*
X0026584Y0042569D01*
X0026584Y0042194D01*
X0031718Y0041839D02*
X0032896Y0041839D01*
X0035523Y0045435D02*
X0076303Y0045435D01*
X0077501Y0046633D02*
X0055607Y0046633D01*
X0055919Y0046946D02*
X0055099Y0046126D01*
X0047640Y0046126D01*
X0046820Y0046946D01*
X0046820Y0055204D01*
X0047640Y0056024D01*
X0049571Y0056024D01*
X0049571Y0057022D01*
X0049471Y0057122D01*
X0049471Y0059027D01*
X0050819Y0060375D01*
X0052724Y0060375D01*
X0054071Y0059027D01*
X0054071Y0057122D01*
X0053971Y0057022D01*
X0053971Y0056024D01*
X0055099Y0056024D01*
X0055919Y0055204D01*
X0055919Y0046946D01*
X0055919Y0047832D02*
X0078276Y0047832D01*
X0078221Y0047777D02*
X0078221Y0047353D01*
X0066996Y0036128D01*
X0066900Y0036223D01*
X0058642Y0036223D01*
X0058556Y0036136D01*
X0050821Y0036136D01*
X0042683Y0044275D01*
X0036683Y0044275D01*
X0032971Y0047986D01*
X0032971Y0051986D01*
X0031431Y0053526D01*
X0031518Y0053613D01*
X0031518Y0055217D01*
X0033571Y0053164D01*
X0034860Y0051875D01*
X0035623Y0051875D01*
X0035623Y0046946D01*
X0036443Y0046126D01*
X0043902Y0046126D01*
X0044723Y0046946D01*
X0044723Y0055204D01*
X0043902Y0056024D01*
X0038335Y0056024D01*
X0038084Y0056275D01*
X0036683Y0056275D01*
X0035883Y0057075D01*
X0041600Y0057075D01*
X0043159Y0058634D01*
X0044330Y0059805D01*
X0044330Y0060386D01*
X0044518Y0060574D01*
X0044518Y0064075D01*
X0046600Y0064075D01*
X0054800Y0072275D01*
X0055224Y0072275D01*
X0056571Y0073622D01*
X0056571Y0075527D01*
X0056524Y0075575D01*
X0064600Y0075575D01*
X0065771Y0076746D01*
X0067271Y0078246D01*
X0067271Y0081996D01*
X0069571Y0084296D01*
X0069571Y0079986D01*
X0069571Y0078164D01*
X0070860Y0076875D01*
X0071025Y0076875D01*
X0071025Y0075448D01*
X0071845Y0074628D01*
X0079698Y0074628D01*
X0080518Y0075448D01*
X0080518Y0076875D01*
X0086329Y0076875D01*
X0085072Y0075618D01*
X0084228Y0074774D01*
X0083771Y0073672D01*
X0083771Y0073538D01*
X0082648Y0073538D01*
X0081828Y0072718D01*
X0081828Y0066046D01*
X0082147Y0065727D01*
X0081822Y0065403D01*
X0081822Y0057944D01*
X0082642Y0057124D01*
X0089571Y0057124D01*
X0089571Y0055226D01*
X0087371Y0055226D01*
X0087371Y0051076D01*
X0086171Y0051076D01*
X0086171Y0049876D01*
X0081622Y0049876D01*
X0081622Y0048977D01*
X0081474Y0049125D01*
X0079569Y0049125D01*
X0078221Y0047777D01*
X0079474Y0049030D02*
X0055919Y0049030D01*
X0055919Y0050229D02*
X0086171Y0050229D01*
X0086171Y0049876D02*
X0087371Y0049876D01*
X0087371Y0045727D01*
X0089571Y0045727D01*
X0089571Y0045218D01*
X0088860Y0045218D01*
X0088860Y0040675D01*
X0087660Y0040675D01*
X0087660Y0045218D01*
X0084899Y0045218D01*
X0084492Y0045109D01*
X0084128Y0044898D01*
X0083830Y0044601D01*
X0083619Y0044236D01*
X0080761Y0044236D01*
X0081050Y0044525D02*
X0081474Y0044525D01*
X0082747Y0045798D01*
X0083011Y0045727D01*
X0086171Y0045727D01*
X0086171Y0049876D01*
X0086171Y0049030D02*
X0087371Y0049030D01*
X0087371Y0047832D02*
X0086171Y0047832D01*
X0086171Y0046633D02*
X0087371Y0046633D01*
X0087660Y0044236D02*
X0088860Y0044236D01*
X0088860Y0043038D02*
X0087660Y0043038D01*
X0087660Y0041839D02*
X0088860Y0041839D01*
X0087659Y0040675D02*
X0087659Y0039475D01*
X0083510Y0039475D01*
X0083510Y0036321D01*
X0083619Y0035914D01*
X0083830Y0035549D01*
X0084128Y0035251D01*
X0084492Y0035041D01*
X0084899Y0034931D01*
X0087660Y0034931D01*
X0087660Y0039475D01*
X0088860Y0039475D01*
X0088860Y0034931D01*
X0089571Y0034931D01*
X0089571Y0032127D01*
X0088809Y0031879D01*
X0088051Y0031493D01*
X0087364Y0030994D01*
X0086763Y0030393D01*
X0086263Y0029705D01*
X0086263Y0029704D01*
X0084793Y0031174D01*
X0082357Y0032183D01*
X0079721Y0032183D01*
X0077285Y0031174D01*
X0075420Y0029309D01*
X0074412Y0026873D01*
X0074412Y0024237D01*
X0075420Y0021801D01*
X0077285Y0019937D01*
X0079721Y0018928D01*
X0082357Y0018928D01*
X0084793Y0019937D01*
X0085482Y0020625D01*
X0085482Y0018850D01*
X0085615Y0018010D01*
X0085877Y0017202D01*
X0086263Y0016445D01*
X0086763Y0015757D01*
X0087345Y0015175D01*
X0044265Y0015175D01*
X0047363Y0018273D01*
X0049436Y0022343D01*
X0050151Y0026854D01*
X0050023Y0027662D01*
X0050648Y0027037D01*
X0058895Y0027037D01*
X0058981Y0027124D01*
X0066900Y0027124D01*
X0067721Y0027944D01*
X0067721Y0031196D01*
X0081050Y0044525D01*
X0082384Y0045435D02*
X0089571Y0045435D01*
X0087659Y0040675D02*
X0083510Y0040675D01*
X0083510Y0043829D01*
X0083619Y0044236D01*
X0083510Y0043038D02*
X0079563Y0043038D01*
X0078364Y0041839D02*
X0083510Y0041839D01*
X0083510Y0039442D02*
X0075967Y0039442D01*
X0074769Y0038244D02*
X0083510Y0038244D01*
X0083510Y0037045D02*
X0073570Y0037045D01*
X0073819Y0036375D02*
X0072471Y0035027D01*
X0072471Y0033122D01*
X0073819Y0031775D01*
X0075724Y0031775D01*
X0076271Y0032322D01*
X0076819Y0031775D01*
X0078724Y0031775D01*
X0080071Y0033122D01*
X0080071Y0035027D01*
X0078724Y0036375D01*
X0076819Y0036375D01*
X0076271Y0035827D01*
X0075724Y0036375D01*
X0073819Y0036375D01*
X0073290Y0035847D02*
X0072371Y0035847D01*
X0072471Y0034648D02*
X0071173Y0034648D01*
X0069974Y0033449D02*
X0072471Y0033449D01*
X0073342Y0032251D02*
X0068776Y0032251D01*
X0067721Y0031052D02*
X0077164Y0031052D01*
X0076342Y0032251D02*
X0076200Y0032251D01*
X0075965Y0029854D02*
X0067721Y0029854D01*
X0067721Y0028655D02*
X0075150Y0028655D01*
X0074653Y0027457D02*
X0067234Y0027457D01*
X0066900Y0025026D02*
X0058981Y0025026D01*
X0058895Y0025113D01*
X0050648Y0025113D01*
X0049828Y0024292D01*
X0049828Y0016833D01*
X0050648Y0016013D01*
X0058556Y0016013D01*
X0058642Y0015927D01*
X0066900Y0015927D01*
X0067721Y0016747D01*
X0067721Y0017873D01*
X0067819Y0017775D01*
X0069724Y0017775D01*
X0071071Y0019122D01*
X0071071Y0021027D01*
X0069724Y0022375D01*
X0069583Y0022375D01*
X0069194Y0022763D01*
X0067721Y0022763D01*
X0067721Y0024206D01*
X0066900Y0025026D01*
X0067721Y0023861D02*
X0074567Y0023861D01*
X0074412Y0025060D02*
X0058947Y0025060D01*
X0062771Y0031673D02*
X0065370Y0031673D01*
X0080521Y0046825D01*
X0081569Y0049030D02*
X0081622Y0049030D01*
X0081622Y0051076D02*
X0086171Y0051076D01*
X0086171Y0055226D01*
X0083011Y0055226D01*
X0082605Y0055117D01*
X0082240Y0054906D01*
X0081942Y0054608D01*
X0081731Y0054244D01*
X0081622Y0053837D01*
X0081622Y0051076D01*
X0081622Y0051427D02*
X0055919Y0051427D01*
X0055919Y0052626D02*
X0081622Y0052626D01*
X0081622Y0053824D02*
X0055919Y0053824D01*
X0055919Y0055023D02*
X0082441Y0055023D01*
X0082346Y0057420D02*
X0054071Y0057420D01*
X0054071Y0058618D02*
X0081822Y0058618D01*
X0081822Y0059817D02*
X0080650Y0059817D01*
X0080609Y0059662D02*
X0080718Y0060069D01*
X0080718Y0064601D01*
X0076371Y0064601D01*
X0076371Y0058680D01*
X0079328Y0058680D01*
X0079735Y0058789D01*
X0080100Y0058999D01*
X0080398Y0059297D01*
X0080609Y0059662D01*
X0080718Y0061015D02*
X0081822Y0061015D01*
X0081822Y0062214D02*
X0080718Y0062214D01*
X0080718Y0063412D02*
X0081822Y0063412D01*
X0081822Y0064611D02*
X0076371Y0064611D01*
X0076371Y0064601D02*
X0076371Y0065801D01*
X0075171Y0065801D01*
X0075171Y0064601D01*
X0070825Y0064601D01*
X0070825Y0060069D01*
X0070934Y0059662D01*
X0071145Y0059297D01*
X0071442Y0058999D01*
X0071807Y0058789D01*
X0072214Y0058680D01*
X0075171Y0058680D01*
X0075171Y0064601D01*
X0076371Y0064601D01*
X0076371Y0063412D02*
X0075171Y0063412D01*
X0075171Y0062214D02*
X0076371Y0062214D01*
X0076371Y0061015D02*
X0075171Y0061015D01*
X0075171Y0059817D02*
X0076371Y0059817D01*
X0075171Y0064611D02*
X0047136Y0064611D01*
X0048334Y0065809D02*
X0070825Y0065809D01*
X0070825Y0065801D02*
X0075171Y0065801D01*
X0075171Y0071722D01*
X0072214Y0071722D01*
X0071807Y0071613D01*
X0071442Y0071402D01*
X0071145Y0071104D01*
X0070934Y0070740D01*
X0070825Y0070333D01*
X0070825Y0065801D01*
X0070825Y0067008D02*
X0049533Y0067008D01*
X0050731Y0068206D02*
X0070825Y0068206D01*
X0070825Y0069405D02*
X0051930Y0069405D01*
X0053128Y0070603D02*
X0070897Y0070603D01*
X0075171Y0070603D02*
X0076371Y0070603D01*
X0076371Y0071722D02*
X0076371Y0065801D01*
X0080718Y0065801D01*
X0080718Y0070333D01*
X0080609Y0070740D01*
X0080398Y0071104D01*
X0080100Y0071402D01*
X0079735Y0071613D01*
X0079328Y0071722D01*
X0076371Y0071722D01*
X0076371Y0069405D02*
X0075171Y0069405D01*
X0075171Y0068206D02*
X0076371Y0068206D01*
X0076371Y0067008D02*
X0075171Y0067008D01*
X0075171Y0065809D02*
X0076371Y0065809D01*
X0080718Y0065809D02*
X0082065Y0065809D01*
X0081828Y0067008D02*
X0080718Y0067008D01*
X0080718Y0068206D02*
X0081828Y0068206D01*
X0081828Y0069405D02*
X0080718Y0069405D01*
X0080645Y0070603D02*
X0081828Y0070603D01*
X0081828Y0071802D02*
X0054327Y0071802D01*
X0055950Y0073000D02*
X0082111Y0073000D01*
X0083990Y0074199D02*
X0056571Y0074199D01*
X0056571Y0075397D02*
X0071075Y0075397D01*
X0071025Y0076596D02*
X0065621Y0076596D01*
X0066819Y0077794D02*
X0069940Y0077794D01*
X0069571Y0078993D02*
X0067271Y0078993D01*
X0067271Y0080191D02*
X0069571Y0080191D01*
X0069571Y0081390D02*
X0067271Y0081390D01*
X0067863Y0082588D02*
X0069571Y0082588D01*
X0069571Y0083787D02*
X0069062Y0083787D01*
X0065271Y0082825D02*
X0065271Y0079075D01*
X0063771Y0077575D01*
X0054271Y0077575D01*
X0052771Y0079075D01*
X0052771Y0080075D01*
X0050370Y0082476D01*
X0050771Y0082476D01*
X0051091Y0077927D02*
X0046771Y0077927D01*
X0046771Y0076246D01*
X0043121Y0072596D01*
X0043328Y0072596D01*
X0043735Y0072487D01*
X0044100Y0072276D01*
X0044398Y0071978D01*
X0044609Y0071614D01*
X0044718Y0071207D01*
X0044718Y0069618D01*
X0042331Y0069618D01*
X0042331Y0069618D01*
X0044718Y0069618D01*
X0044718Y0068075D01*
X0044943Y0068075D01*
X0051971Y0075103D01*
X0051971Y0075527D01*
X0052731Y0076287D01*
X0051091Y0077927D01*
X0051223Y0077794D02*
X0046771Y0077794D01*
X0046771Y0076596D02*
X0052422Y0076596D01*
X0051971Y0075397D02*
X0045922Y0075397D01*
X0044724Y0074199D02*
X0051067Y0074199D01*
X0049869Y0073000D02*
X0043525Y0073000D01*
X0044500Y0071802D02*
X0048670Y0071802D01*
X0047471Y0070603D02*
X0044718Y0070603D01*
X0044718Y0069405D02*
X0046273Y0069405D01*
X0045074Y0068206D02*
X0044718Y0068206D01*
X0045771Y0066075D02*
X0041271Y0066075D01*
X0039771Y0064575D01*
X0039771Y0062531D01*
X0037212Y0062532D02*
X0037212Y0065509D01*
X0036214Y0065509D01*
X0035807Y0065400D01*
X0035442Y0065190D01*
X0035145Y0064892D01*
X0034934Y0064527D01*
X0034825Y0064120D01*
X0034825Y0062532D01*
X0037212Y0062532D01*
X0037212Y0065509D01*
X0037878Y0065509D01*
X0039208Y0066840D01*
X0035845Y0066840D01*
X0035025Y0067660D01*
X0035025Y0068977D01*
X0034612Y0069390D01*
X0030182Y0069390D01*
X0030262Y0069251D01*
X0030371Y0068845D01*
X0030371Y0067650D01*
X0027590Y0067650D01*
X0027590Y0067650D01*
X0024809Y0067650D01*
X0024809Y0068809D01*
X0024058Y0068809D01*
X0023871Y0068995D01*
X0023871Y0063155D01*
X0024058Y0063341D01*
X0025009Y0063341D01*
X0025009Y0065890D01*
X0024918Y0066048D01*
X0024809Y0066455D01*
X0024809Y0067650D01*
X0027590Y0067650D01*
X0027590Y0067650D01*
X0030371Y0067650D01*
X0030371Y0066455D01*
X0030339Y0066335D01*
X0034825Y0061850D01*
X0034825Y0062531D01*
X0037212Y0062531D01*
X0037212Y0062532D01*
X0037212Y0062532D01*
X0037212Y0063412D02*
X0037212Y0063412D01*
X0037212Y0064611D02*
X0037212Y0064611D01*
X0038177Y0065809D02*
X0030865Y0065809D01*
X0030371Y0067008D02*
X0035677Y0067008D01*
X0035025Y0068206D02*
X0030371Y0068206D01*
X0029346Y0064500D02*
X0027590Y0064500D01*
X0029346Y0064500D02*
X0034771Y0059075D01*
X0040771Y0059075D01*
X0042330Y0060634D01*
X0042330Y0062531D01*
X0044518Y0062214D02*
X0070825Y0062214D01*
X0070825Y0063412D02*
X0044518Y0063412D01*
X0044518Y0061015D02*
X0070825Y0061015D01*
X0070892Y0059817D02*
X0053282Y0059817D01*
X0050261Y0059817D02*
X0044330Y0059817D01*
X0043143Y0058618D02*
X0049471Y0058618D01*
X0049471Y0057420D02*
X0041945Y0057420D01*
X0044723Y0055023D02*
X0046820Y0055023D01*
X0046820Y0053824D02*
X0044723Y0053824D01*
X0044723Y0052626D02*
X0046820Y0052626D01*
X0046820Y0051427D02*
X0044723Y0051427D01*
X0044723Y0050229D02*
X0046820Y0050229D01*
X0046820Y0049030D02*
X0044723Y0049030D01*
X0044723Y0047832D02*
X0046820Y0047832D01*
X0047133Y0046633D02*
X0044410Y0046633D01*
X0042721Y0044236D02*
X0075104Y0044236D01*
X0073906Y0043038D02*
X0043920Y0043038D01*
X0045118Y0041839D02*
X0072707Y0041839D01*
X0071509Y0040641D02*
X0046317Y0040641D01*
X0047515Y0039442D02*
X0070310Y0039442D01*
X0069112Y0038244D02*
X0048714Y0038244D01*
X0049912Y0037045D02*
X0067913Y0037045D01*
X0076252Y0035847D02*
X0076290Y0035847D01*
X0079252Y0035847D02*
X0083658Y0035847D01*
X0080071Y0034648D02*
X0089571Y0034648D01*
X0089571Y0033449D02*
X0080071Y0033449D01*
X0079200Y0032251D02*
X0089571Y0032251D01*
X0087445Y0031052D02*
X0084914Y0031052D01*
X0086113Y0029854D02*
X0086371Y0029854D01*
X0087660Y0035847D02*
X0088860Y0035847D01*
X0088860Y0037045D02*
X0087660Y0037045D01*
X0087660Y0038244D02*
X0088860Y0038244D01*
X0088860Y0039442D02*
X0087660Y0039442D01*
X0087659Y0040641D02*
X0077166Y0040641D01*
X0086171Y0051427D02*
X0087371Y0051427D01*
X0087371Y0052626D02*
X0086171Y0052626D01*
X0086171Y0053824D02*
X0087371Y0053824D01*
X0087371Y0055023D02*
X0086171Y0055023D01*
X0089571Y0056221D02*
X0053971Y0056221D01*
X0049571Y0056221D02*
X0038138Y0056221D01*
X0034109Y0052626D02*
X0032332Y0052626D01*
X0032911Y0053824D02*
X0031518Y0053824D01*
X0031518Y0055023D02*
X0031712Y0055023D01*
X0032971Y0051427D02*
X0035623Y0051427D01*
X0035623Y0050229D02*
X0032971Y0050229D01*
X0032971Y0049030D02*
X0035623Y0049030D01*
X0035623Y0047832D02*
X0033126Y0047832D01*
X0034324Y0046633D02*
X0035936Y0046633D01*
X0025348Y0037045D02*
X0023871Y0037045D01*
X0023871Y0035847D02*
X0024150Y0035847D01*
X0049436Y0022343D02*
X0049436Y0022343D01*
X0049487Y0022663D02*
X0049828Y0022663D01*
X0049828Y0023861D02*
X0049677Y0023861D01*
X0049867Y0025060D02*
X0050595Y0025060D01*
X0050056Y0026258D02*
X0074412Y0026258D01*
X0075063Y0022663D02*
X0069295Y0022663D01*
X0070634Y0021464D02*
X0075757Y0021464D01*
X0076956Y0020266D02*
X0071071Y0020266D01*
X0071017Y0019067D02*
X0079383Y0019067D01*
X0082695Y0019067D02*
X0085482Y0019067D01*
X0085482Y0020266D02*
X0085123Y0020266D01*
X0085661Y0017869D02*
X0069818Y0017869D01*
X0067725Y0017869D02*
X0067721Y0017869D01*
X0067644Y0016670D02*
X0086148Y0016670D01*
X0087048Y0015472D02*
X0044562Y0015472D01*
X0045760Y0016670D02*
X0049991Y0016670D01*
X0049828Y0017869D02*
X0046959Y0017869D01*
X0047363Y0018273D02*
X0047363Y0018273D01*
X0047767Y0019067D02*
X0049828Y0019067D01*
X0049828Y0020266D02*
X0048378Y0020266D01*
X0048989Y0021464D02*
X0049828Y0021464D01*
X0050055Y0027457D02*
X0050228Y0027457D01*
X0051370Y0051075D02*
X0051771Y0051476D01*
X0045771Y0066075D02*
X0054271Y0074575D01*
X0059771Y0082476D02*
X0060771Y0083476D01*
X0060771Y0085075D01*
X0063771Y0085075D01*
X0067521Y0088825D01*
X0067521Y0104825D01*
X0101271Y0138575D01*
X0101271Y0143825D01*
X0098971Y0143713D02*
X0092071Y0143713D01*
X0092371Y0143313D02*
X0092371Y0139163D01*
X0091171Y0139163D01*
X0091171Y0137963D01*
X0086628Y0137963D01*
X0086628Y0135203D01*
X0086737Y0134796D01*
X0086948Y0134431D01*
X0087246Y0134133D01*
X0087610Y0133922D01*
X0088017Y0133813D01*
X0091171Y0133813D01*
X0091171Y0137963D01*
X0092371Y0137963D01*
X0092371Y0133813D01*
X0093682Y0133813D01*
X0067271Y0107403D01*
X0067271Y0115322D01*
X0067819Y0114775D01*
X0069724Y0114775D01*
X0071071Y0116122D01*
X0071071Y0118027D01*
X0070524Y0118575D01*
X0071071Y0119122D01*
X0071071Y0121027D01*
X0069724Y0122375D01*
X0067819Y0122375D01*
X0067271Y0121827D01*
X0067271Y0160746D01*
X0070300Y0163775D01*
X0070724Y0163775D01*
X0072071Y0165122D01*
X0072071Y0167027D01*
X0070724Y0168375D01*
X0068819Y0168375D01*
X0067771Y0167327D01*
X0066724Y0168375D01*
X0064819Y0168375D01*
X0063471Y0167027D01*
X0063471Y0165122D01*
X0064731Y0163863D01*
X0063271Y0162403D01*
X0063271Y0157375D01*
X0061819Y0157375D01*
X0060471Y0156027D01*
X0060471Y0154122D01*
X0061819Y0152775D01*
X0063271Y0152775D01*
X0063271Y0098223D01*
X0055642Y0098223D01*
X0055271Y0097852D01*
X0054900Y0098223D01*
X0046642Y0098223D01*
X0045822Y0097403D01*
X0045822Y0093634D01*
X0044431Y0093634D01*
X0044431Y0095560D01*
X0043828Y0096164D01*
X0043926Y0096262D01*
X0044560Y0097793D01*
X0044560Y0099451D01*
X0043926Y0100982D01*
X0042754Y0102155D01*
X0041222Y0102789D01*
X0039565Y0102789D01*
X0038033Y0102155D01*
X0036861Y0100982D01*
X0036771Y0100766D01*
X0036771Y0101246D01*
X0042600Y0107075D01*
X0043771Y0108246D01*
X0043771Y0131966D01*
X0044306Y0131432D01*
X0044784Y0131234D01*
X0045943Y0130075D01*
X0047943Y0128075D01*
X0059519Y0128075D01*
X0059819Y0127775D01*
X0061724Y0127775D01*
X0063071Y0129122D01*
X0063071Y0131027D01*
X0061724Y0132375D01*
X0060180Y0132375D01*
X0060461Y0132656D01*
X0061124Y0134256D01*
X0061124Y0141893D01*
X0060461Y0143493D01*
X0059237Y0144718D01*
X0057637Y0145380D01*
X0055906Y0145380D01*
X0054306Y0144718D01*
X0053081Y0143493D01*
X0052419Y0141893D01*
X0052419Y0134256D01*
X0053081Y0132656D01*
X0053663Y0132075D01*
X0049880Y0132075D01*
X0050461Y0132656D01*
X0051124Y0134256D01*
X0051124Y0141893D01*
X0050461Y0143493D01*
X0049237Y0144718D01*
X0047637Y0145380D01*
X0045906Y0145380D01*
X0044306Y0144718D01*
X0043771Y0144183D01*
X0043771Y0158966D01*
X0044306Y0158432D01*
X0045906Y0157769D01*
X0047637Y0157769D01*
X0049237Y0158432D01*
X0050461Y0159656D01*
X0051124Y0161256D01*
X0051124Y0168893D01*
X0050461Y0170493D01*
X0049880Y0171075D01*
X0053380Y0171075D01*
X0053299Y0170993D01*
X0052877Y0170414D01*
X0052552Y0169775D01*
X0052331Y0169094D01*
X0052219Y0168386D01*
X0052219Y0165459D01*
X0056387Y0165459D01*
X0056387Y0164691D01*
X0052219Y0164691D01*
X0052219Y0161764D01*
X0052331Y0161056D01*
X0052552Y0160374D01*
X0052877Y0159736D01*
X0053299Y0159156D01*
X0053805Y0158649D01*
X0054385Y0158228D01*
X0055024Y0157903D01*
X0055705Y0157681D01*
X0056387Y0157573D01*
X0056387Y0164690D01*
X0057156Y0164690D01*
X0057156Y0157573D01*
X0057837Y0157681D01*
X0058519Y0157903D01*
X0059158Y0158228D01*
X0059737Y0158649D01*
X0060244Y0159156D01*
X0060665Y0159736D01*
X0060991Y0160374D01*
X0061212Y0161056D01*
X0061324Y0161764D01*
X0061324Y0164691D01*
X0057156Y0164691D01*
X0057156Y0165459D01*
X0061324Y0165459D01*
X0061324Y0168386D01*
X0061212Y0169094D01*
X0060991Y0169775D01*
X0060665Y0170414D01*
X0060244Y0170993D01*
X0060163Y0171075D01*
X0069693Y0171075D01*
X0076771Y0163996D01*
X0076771Y0152327D01*
X0076724Y0152375D01*
X0074819Y0152375D01*
X0073471Y0151027D01*
X0073471Y0149122D01*
X0074819Y0147775D01*
X0076724Y0147775D01*
X0076771Y0147822D01*
X0076771Y0142327D01*
X0076471Y0142027D01*
X0076471Y0140122D01*
X0077819Y0138775D01*
X0079724Y0138775D01*
X0081071Y0140122D01*
X0081071Y0142027D01*
X0080771Y0142327D01*
X0080771Y0165653D01*
X0079600Y0166825D01*
X0071350Y0175075D01*
X0043943Y0175075D01*
X0042771Y0173903D01*
X0039911Y0171043D01*
X0039740Y0171215D01*
X0046600Y0178075D01*
X0062600Y0178075D01*
X0064600Y0180075D01*
X0065452Y0180927D01*
X0070900Y0180927D01*
X0071721Y0181747D01*
X0071721Y0187196D01*
X0071771Y0187246D01*
X0071771Y0188075D01*
X0074025Y0188075D01*
X0074025Y0184574D01*
X0074212Y0184386D01*
X0074212Y0180805D01*
X0075771Y0179246D01*
X0076943Y0178075D01*
X0086021Y0178075D01*
X0086021Y0162496D01*
X0087193Y0161325D01*
X0094382Y0154136D01*
X0087648Y0154136D01*
X0086828Y0153316D01*
X0086828Y0145857D01*
X0087565Y0145121D01*
X0087471Y0145027D01*
X0087471Y0143123D01*
X0087246Y0142993D01*
X0086948Y0142695D01*
X0086737Y0142330D01*
X0086628Y0141923D01*
X0086628Y0139163D01*
X0091171Y0139163D01*
X0091171Y0142222D01*
X0092071Y0143122D01*
X0092071Y0145027D01*
X0092062Y0145037D01*
X0095895Y0145037D01*
X0096715Y0145857D01*
X0096715Y0151803D01*
X0103021Y0145496D01*
X0103021Y0145327D01*
X0102224Y0146125D01*
X0100319Y0146125D01*
X0098971Y0144777D01*
X0098971Y0143225D01*
X0097419Y0143225D01*
X0096703Y0142509D01*
X0096595Y0142695D01*
X0096297Y0142993D01*
X0095932Y0143204D01*
X0095525Y0143313D01*
X0092371Y0143313D01*
X0092371Y0142514D02*
X0091463Y0142514D01*
X0091171Y0141316D02*
X0092371Y0141316D01*
X0092371Y0140117D02*
X0091171Y0140117D01*
X0091171Y0138918D02*
X0079868Y0138918D01*
X0081066Y0140117D02*
X0086628Y0140117D01*
X0086628Y0141316D02*
X0081071Y0141316D01*
X0080771Y0142514D02*
X0086843Y0142514D01*
X0087471Y0143713D02*
X0080771Y0143713D01*
X0080771Y0144911D02*
X0087471Y0144911D01*
X0086828Y0146110D02*
X0080771Y0146110D01*
X0080771Y0147308D02*
X0086828Y0147308D01*
X0086828Y0148507D02*
X0080771Y0148507D01*
X0080771Y0149705D02*
X0086828Y0149705D01*
X0086828Y0150904D02*
X0080771Y0150904D01*
X0080771Y0152102D02*
X0086828Y0152102D01*
X0086828Y0153301D02*
X0080771Y0153301D01*
X0080771Y0154499D02*
X0094019Y0154499D01*
X0092820Y0155698D02*
X0080771Y0155698D01*
X0080771Y0156896D02*
X0091622Y0156896D01*
X0090423Y0158095D02*
X0080771Y0158095D01*
X0080771Y0159293D02*
X0089225Y0159293D01*
X0088026Y0160492D02*
X0080771Y0160492D01*
X0080771Y0161690D02*
X0086828Y0161690D01*
X0086021Y0162889D02*
X0080771Y0162889D01*
X0080771Y0164087D02*
X0086021Y0164087D01*
X0086021Y0165286D02*
X0080771Y0165286D01*
X0079940Y0166484D02*
X0086021Y0166484D01*
X0086021Y0167683D02*
X0078742Y0167683D01*
X0077543Y0168881D02*
X0086021Y0168881D01*
X0086021Y0170080D02*
X0076345Y0170080D01*
X0075146Y0171278D02*
X0086021Y0171278D01*
X0086021Y0172477D02*
X0073948Y0172477D01*
X0072749Y0173675D02*
X0086021Y0173675D01*
X0086021Y0174874D02*
X0071551Y0174874D01*
X0070521Y0173075D02*
X0078771Y0164825D01*
X0078771Y0141075D01*
X0076471Y0141316D02*
X0067271Y0141316D01*
X0067271Y0142514D02*
X0076771Y0142514D01*
X0076771Y0143713D02*
X0067271Y0143713D01*
X0067271Y0144911D02*
X0076771Y0144911D01*
X0076771Y0146110D02*
X0067271Y0146110D01*
X0067271Y0147308D02*
X0076771Y0147308D01*
X0074087Y0148507D02*
X0067271Y0148507D01*
X0067271Y0149705D02*
X0073471Y0149705D01*
X0073471Y0150904D02*
X0067271Y0150904D01*
X0067271Y0152102D02*
X0074546Y0152102D01*
X0076771Y0153301D02*
X0067271Y0153301D01*
X0067271Y0154499D02*
X0076771Y0154499D01*
X0076771Y0155698D02*
X0067271Y0155698D01*
X0067271Y0156896D02*
X0076771Y0156896D01*
X0076771Y0158095D02*
X0067271Y0158095D01*
X0067271Y0159293D02*
X0076771Y0159293D01*
X0076771Y0160492D02*
X0067271Y0160492D01*
X0068215Y0161690D02*
X0076771Y0161690D01*
X0076771Y0162889D02*
X0069414Y0162889D01*
X0071036Y0164087D02*
X0076680Y0164087D01*
X0075482Y0165286D02*
X0072071Y0165286D01*
X0072071Y0166484D02*
X0074283Y0166484D01*
X0073085Y0167683D02*
X0071416Y0167683D01*
X0071886Y0168881D02*
X0061246Y0168881D01*
X0061324Y0167683D02*
X0064127Y0167683D01*
X0063471Y0166484D02*
X0061324Y0166484D01*
X0061324Y0164087D02*
X0064506Y0164087D01*
X0063757Y0162889D02*
X0061324Y0162889D01*
X0061312Y0161690D02*
X0063271Y0161690D01*
X0063271Y0160492D02*
X0061029Y0160492D01*
X0060344Y0159293D02*
X0063271Y0159293D01*
X0063271Y0158095D02*
X0058895Y0158095D01*
X0057156Y0158095D02*
X0056387Y0158095D01*
X0056387Y0159293D02*
X0057156Y0159293D01*
X0057156Y0160492D02*
X0056387Y0160492D01*
X0056387Y0161690D02*
X0057156Y0161690D01*
X0057156Y0162889D02*
X0056387Y0162889D01*
X0056387Y0164087D02*
X0057156Y0164087D01*
X0057156Y0165286D02*
X0063471Y0165286D01*
X0065271Y0161575D02*
X0069771Y0166075D01*
X0068127Y0167683D02*
X0067416Y0167683D01*
X0070688Y0170080D02*
X0060835Y0170080D01*
X0056387Y0165286D02*
X0051124Y0165286D01*
X0051124Y0166484D02*
X0052219Y0166484D01*
X0052219Y0167683D02*
X0051124Y0167683D01*
X0051124Y0168881D02*
X0052297Y0168881D01*
X0052707Y0170080D02*
X0050633Y0170080D01*
X0044771Y0173075D02*
X0070521Y0173075D01*
X0076548Y0178469D02*
X0062994Y0178469D01*
X0064193Y0179668D02*
X0075350Y0179668D01*
X0074212Y0180866D02*
X0065391Y0180866D01*
X0063771Y0182075D02*
X0063771Y0183075D01*
X0064370Y0183075D01*
X0066771Y0185476D01*
X0067173Y0185476D01*
X0069771Y0188075D01*
X0069771Y0189075D01*
X0070771Y0190075D01*
X0079771Y0190075D01*
X0081330Y0188516D01*
X0081330Y0186531D01*
X0078771Y0186531D02*
X0078771Y0183075D01*
X0076212Y0181634D02*
X0077771Y0180075D01*
X0086771Y0180075D01*
X0087646Y0180950D01*
X0088021Y0180575D01*
X0088021Y0163325D01*
X0105021Y0146325D01*
X0105021Y0135325D01*
X0107321Y0135323D02*
X0109571Y0135323D01*
X0109571Y0134218D02*
X0108923Y0134218D01*
X0108516Y0134109D01*
X0108151Y0133898D01*
X0107853Y0133601D01*
X0107643Y0133236D01*
X0107534Y0132829D01*
X0107534Y0129675D01*
X0109571Y0129675D01*
X0109571Y0128475D01*
X0108624Y0128475D01*
X0107724Y0129375D01*
X0105819Y0129375D01*
X0105809Y0129365D01*
X0105809Y0133025D01*
X0105974Y0133025D01*
X0107321Y0134372D01*
X0107321Y0136277D01*
X0107021Y0136577D01*
X0107021Y0147153D01*
X0100043Y0154131D01*
X0104989Y0154131D01*
X0105809Y0154952D01*
X0105809Y0158784D01*
X0105819Y0158775D01*
X0107724Y0158775D01*
X0108624Y0159675D01*
X0109571Y0159675D01*
X0109571Y0158475D01*
X0107534Y0158475D01*
X0107534Y0155321D01*
X0107643Y0154914D01*
X0107853Y0154549D01*
X0108151Y0154251D01*
X0108496Y0154052D01*
X0108471Y0154027D01*
X0108471Y0152122D01*
X0109571Y0151022D01*
X0109571Y0134218D01*
X0108573Y0134124D02*
X0107074Y0134124D01*
X0107560Y0132926D02*
X0105809Y0132926D01*
X0105809Y0131727D02*
X0107534Y0131727D01*
X0106771Y0131075D02*
X0109771Y0131075D01*
X0111771Y0129075D01*
X0112283Y0129075D01*
X0109571Y0129330D02*
X0107768Y0129330D01*
X0107534Y0130529D02*
X0105809Y0130529D01*
X0106771Y0127075D02*
X0103771Y0127075D01*
X0101771Y0129075D01*
X0101260Y0129075D01*
X0094771Y0128575D02*
X0094771Y0125075D01*
X0103771Y0116075D01*
X0104021Y0111825D02*
X0094271Y0111825D01*
X0065271Y0082825D01*
X0062271Y0087075D02*
X0065271Y0090075D01*
X0065271Y0161575D01*
X0061340Y0156896D02*
X0043771Y0156896D01*
X0043771Y0155698D02*
X0060471Y0155698D01*
X0060471Y0154499D02*
X0043771Y0154499D01*
X0043771Y0153301D02*
X0061293Y0153301D01*
X0063271Y0152102D02*
X0043771Y0152102D01*
X0043771Y0150904D02*
X0063271Y0150904D01*
X0063271Y0149705D02*
X0043771Y0149705D01*
X0043771Y0148507D02*
X0063271Y0148507D01*
X0063271Y0147308D02*
X0043771Y0147308D01*
X0043771Y0146110D02*
X0063271Y0146110D01*
X0063271Y0144911D02*
X0058770Y0144911D01*
X0060242Y0143713D02*
X0063271Y0143713D01*
X0063271Y0142514D02*
X0060867Y0142514D01*
X0061124Y0141316D02*
X0063271Y0141316D01*
X0063271Y0140117D02*
X0061124Y0140117D01*
X0061124Y0138918D02*
X0063271Y0138918D01*
X0063271Y0137720D02*
X0061124Y0137720D01*
X0061124Y0136521D02*
X0063271Y0136521D01*
X0063271Y0135323D02*
X0061124Y0135323D01*
X0061070Y0134124D02*
X0063271Y0134124D01*
X0063271Y0132926D02*
X0060573Y0132926D01*
X0062371Y0131727D02*
X0063271Y0131727D01*
X0063271Y0130529D02*
X0063071Y0130529D01*
X0063071Y0129330D02*
X0063271Y0129330D01*
X0063271Y0128132D02*
X0062081Y0128132D01*
X0063271Y0126933D02*
X0043771Y0126933D01*
X0043771Y0125735D02*
X0063271Y0125735D01*
X0063271Y0124536D02*
X0043771Y0124536D01*
X0043771Y0123338D02*
X0063271Y0123338D01*
X0063271Y0122139D02*
X0043771Y0122139D01*
X0043771Y0120941D02*
X0063271Y0120941D01*
X0063271Y0119742D02*
X0043771Y0119742D01*
X0043771Y0118544D02*
X0063271Y0118544D01*
X0063271Y0117345D02*
X0043771Y0117345D01*
X0043771Y0116147D02*
X0063271Y0116147D01*
X0063271Y0114948D02*
X0043771Y0114948D01*
X0043771Y0113750D02*
X0063271Y0113750D01*
X0063271Y0112551D02*
X0043771Y0112551D01*
X0043771Y0111353D02*
X0063271Y0111353D01*
X0063271Y0110154D02*
X0043771Y0110154D01*
X0043771Y0108956D02*
X0063271Y0108956D01*
X0063271Y0107757D02*
X0043282Y0107757D01*
X0042084Y0106559D02*
X0063271Y0106559D01*
X0063271Y0105360D02*
X0040885Y0105360D01*
X0039687Y0104162D02*
X0063271Y0104162D01*
X0063271Y0102963D02*
X0038488Y0102963D01*
X0037643Y0101765D02*
X0037290Y0101765D01*
X0034771Y0102075D02*
X0041771Y0109075D01*
X0041771Y0170075D01*
X0044771Y0173075D01*
X0043742Y0174874D02*
X0043399Y0174874D01*
X0042543Y0173675D02*
X0042200Y0173675D01*
X0041345Y0172477D02*
X0041002Y0172477D01*
X0040146Y0171278D02*
X0039803Y0171278D01*
X0036771Y0171075D02*
X0045771Y0180075D01*
X0061771Y0180075D01*
X0063771Y0182075D01*
X0060771Y0188075D02*
X0060771Y0189075D01*
X0063771Y0192075D01*
X0076212Y0192075D01*
X0076212Y0193618D01*
X0074025Y0194075D02*
X0074025Y0195576D01*
X0074845Y0196396D01*
X0076238Y0196396D01*
X0076171Y0196558D01*
X0076171Y0197592D01*
X0076567Y0198548D01*
X0077299Y0199279D01*
X0078254Y0199675D01*
X0085822Y0199675D01*
X0085822Y0200403D01*
X0086642Y0201223D01*
X0094900Y0201223D01*
X0095271Y0200852D01*
X0095642Y0201223D01*
X0096371Y0201223D01*
X0095471Y0202122D01*
X0095471Y0204027D01*
X0096819Y0205375D01*
X0098724Y0205375D01*
X0100071Y0204027D01*
X0100071Y0202122D01*
X0099172Y0201223D01*
X0103900Y0201223D01*
X0104721Y0200403D01*
X0104721Y0192944D01*
X0103900Y0192124D01*
X0096551Y0192124D01*
X0096771Y0191903D01*
X0098649Y0190026D01*
X0103900Y0190026D01*
X0104721Y0189206D01*
X0104721Y0181747D01*
X0103900Y0180927D01*
X0103771Y0180927D01*
X0103771Y0173077D01*
X0104071Y0172777D01*
X0104071Y0170872D01*
X0102724Y0169525D01*
X0100819Y0169525D01*
X0099471Y0170872D01*
X0099471Y0172777D01*
X0099771Y0173077D01*
X0099771Y0180927D01*
X0095642Y0180927D01*
X0095271Y0181298D01*
X0094900Y0180927D01*
X0090021Y0180927D01*
X0090021Y0174375D01*
X0091724Y0174375D01*
X0093071Y0173027D01*
X0093071Y0171122D01*
X0091724Y0169775D01*
X0090021Y0169775D01*
X0090021Y0164153D01*
X0096710Y0157465D01*
X0096710Y0163198D01*
X0097530Y0164018D01*
X0104989Y0164018D01*
X0105726Y0163282D01*
X0105819Y0163375D01*
X0107723Y0163375D01*
X0107853Y0163601D01*
X0108151Y0163898D01*
X0108516Y0164109D01*
X0108923Y0164218D01*
X0109571Y0164218D01*
X0109571Y0178022D01*
X0108471Y0179122D01*
X0108471Y0181027D01*
X0109571Y0182127D01*
X0109571Y0204164D01*
X0109571Y0205986D01*
X0139954Y0236369D01*
X0060730Y0236369D01*
X0062071Y0235027D01*
X0062071Y0233122D01*
X0061524Y0232575D01*
X0062071Y0232027D01*
X0062071Y0230122D01*
X0061524Y0229575D01*
X0062071Y0229027D01*
X0062071Y0227122D01*
X0061524Y0226575D01*
X0062071Y0226027D01*
X0062071Y0224122D01*
X0060724Y0222775D01*
X0058819Y0222775D01*
X0057471Y0224122D01*
X0057471Y0226027D01*
X0058019Y0226575D01*
X0057471Y0227122D01*
X0057471Y0229027D01*
X0058019Y0229575D01*
X0057471Y0230122D01*
X0057471Y0232027D01*
X0058019Y0232575D01*
X0057471Y0233122D01*
X0057471Y0235027D01*
X0058812Y0236369D01*
X0038504Y0236369D01*
X0036594Y0236243D01*
X0032904Y0235255D01*
X0029596Y0233345D01*
X0028725Y0232474D01*
X0031039Y0233653D01*
X0031039Y0233653D01*
X0035551Y0234368D01*
X0035551Y0234368D01*
X0040063Y0233653D01*
X0040063Y0233653D01*
X0044133Y0231579D01*
X0044133Y0231579D01*
X0047363Y0228349D01*
X0047363Y0228349D01*
X0049436Y0224279D01*
X0049436Y0224279D01*
X0050151Y0219768D01*
X0049436Y0215256D01*
X0049436Y0215256D01*
X0047363Y0211186D01*
X0047363Y0211186D01*
X0044133Y0207956D01*
X0044133Y0207956D01*
X0040063Y0205882D01*
X0040063Y0205882D01*
X0035551Y0205168D01*
X0035551Y0205168D01*
X0031039Y0205882D01*
X0031039Y0205882D01*
X0026969Y0207956D01*
X0026969Y0207956D01*
X0023871Y0211054D01*
X0023871Y0198548D01*
X0024385Y0198921D01*
X0025024Y0199247D01*
X0025705Y0199468D01*
X0026387Y0199576D01*
X0026387Y0192459D01*
X0027156Y0192459D01*
X0031324Y0192459D01*
X0031324Y0195386D01*
X0031212Y0196094D01*
X0030991Y0196775D01*
X0030665Y0197414D01*
X0030244Y0197993D01*
X0029737Y0198500D01*
X0029158Y0198921D01*
X0028519Y0199247D01*
X0027837Y0199468D01*
X0027156Y0199576D01*
X0027156Y0192459D01*
X0027156Y0191691D01*
X0031324Y0191691D01*
X0031324Y0188764D01*
X0031212Y0188056D01*
X0030991Y0187374D01*
X0030665Y0186736D01*
X0030244Y0186156D01*
X0029737Y0185649D01*
X0029158Y0185228D01*
X0028519Y0184903D01*
X0027837Y0184681D01*
X0027156Y0184573D01*
X0027156Y0191690D01*
X0026387Y0191690D01*
X0026387Y0184573D01*
X0025705Y0184681D01*
X0025024Y0184903D01*
X0024385Y0185228D01*
X0023871Y0185602D01*
X0023871Y0171283D01*
X0024306Y0171718D01*
X0024784Y0171916D01*
X0037638Y0184770D01*
X0037637Y0184769D01*
X0035906Y0184769D01*
X0034306Y0185432D01*
X0033081Y0186656D01*
X0032419Y0188256D01*
X0032419Y0195893D01*
X0033081Y0197493D01*
X0034306Y0198718D01*
X0035906Y0199380D01*
X0037637Y0199380D01*
X0039237Y0198718D01*
X0040461Y0197493D01*
X0041124Y0195893D01*
X0041124Y0188256D01*
X0040461Y0186656D01*
X0039880Y0186075D01*
X0043663Y0186075D01*
X0043081Y0186656D01*
X0042419Y0188256D01*
X0042419Y0195893D01*
X0043081Y0197493D01*
X0044306Y0198718D01*
X0045906Y0199380D01*
X0047637Y0199380D01*
X0049237Y0198718D01*
X0050461Y0197493D01*
X0051124Y0195893D01*
X0051124Y0188256D01*
X0050461Y0186656D01*
X0049880Y0186075D01*
X0052822Y0186075D01*
X0052822Y0189206D01*
X0053642Y0190026D01*
X0058894Y0190026D01*
X0059943Y0191075D01*
X0059943Y0191075D01*
X0060992Y0192124D01*
X0053642Y0192124D01*
X0052822Y0192944D01*
X0052822Y0200403D01*
X0053294Y0200875D01*
X0052567Y0201602D01*
X0052171Y0202558D01*
X0052171Y0203592D01*
X0052567Y0204548D01*
X0053299Y0205279D01*
X0054254Y0205675D01*
X0055289Y0205675D01*
X0056244Y0205279D01*
X0058244Y0203279D01*
X0058976Y0202548D01*
X0059371Y0201592D01*
X0059371Y0201223D01*
X0061900Y0201223D01*
X0062271Y0200852D01*
X0062642Y0201223D01*
X0070900Y0201223D01*
X0071721Y0200403D01*
X0071721Y0194075D01*
X0074025Y0194075D01*
X0074025Y0195249D02*
X0071721Y0195249D01*
X0071721Y0196447D02*
X0076217Y0196447D01*
X0076194Y0197646D02*
X0071721Y0197646D01*
X0071721Y0198844D02*
X0076864Y0198844D01*
X0078771Y0197075D02*
X0078771Y0193618D01*
X0081330Y0193618D02*
X0081330Y0192516D01*
X0082771Y0191075D01*
X0094771Y0191075D01*
X0096771Y0189075D01*
X0096771Y0188075D01*
X0099370Y0185476D01*
X0099771Y0185476D01*
X0101771Y0183476D01*
X0101771Y0171825D01*
X0100264Y0170080D02*
X0092029Y0170080D01*
X0093071Y0171278D02*
X0099471Y0171278D01*
X0099471Y0172477D02*
X0093071Y0172477D01*
X0092424Y0173675D02*
X0099771Y0173675D01*
X0099771Y0174874D02*
X0090021Y0174874D01*
X0090021Y0176072D02*
X0099771Y0176072D01*
X0099771Y0177271D02*
X0090021Y0177271D01*
X0090021Y0178469D02*
X0099771Y0178469D01*
X0099771Y0179668D02*
X0090021Y0179668D01*
X0090021Y0180866D02*
X0099771Y0180866D01*
X0103771Y0180866D02*
X0108471Y0180866D01*
X0108471Y0179668D02*
X0103771Y0179668D01*
X0103771Y0178469D02*
X0109124Y0178469D01*
X0109571Y0177271D02*
X0103771Y0177271D01*
X0103771Y0176072D02*
X0109571Y0176072D01*
X0109571Y0174874D02*
X0103771Y0174874D01*
X0103771Y0173675D02*
X0109571Y0173675D01*
X0109571Y0172477D02*
X0104071Y0172477D01*
X0104071Y0171278D02*
X0109571Y0171278D01*
X0109571Y0170080D02*
X0103279Y0170080D01*
X0109571Y0168881D02*
X0090021Y0168881D01*
X0090021Y0167683D02*
X0109571Y0167683D01*
X0109571Y0166484D02*
X0090021Y0166484D01*
X0090021Y0165286D02*
X0109571Y0165286D01*
X0108478Y0164087D02*
X0090087Y0164087D01*
X0091286Y0162889D02*
X0096710Y0162889D01*
X0096710Y0161690D02*
X0092484Y0161690D01*
X0093683Y0160492D02*
X0096710Y0160492D01*
X0096710Y0159293D02*
X0094881Y0159293D01*
X0096080Y0158095D02*
X0096710Y0158095D01*
X0101260Y0159075D02*
X0101771Y0159075D01*
X0103771Y0161075D01*
X0106771Y0161075D01*
X0108242Y0159293D02*
X0109571Y0159293D01*
X0111771Y0159075D02*
X0109771Y0157075D01*
X0106771Y0157075D01*
X0107534Y0156896D02*
X0105809Y0156896D01*
X0105809Y0155698D02*
X0107534Y0155698D01*
X0107903Y0154499D02*
X0105357Y0154499D01*
X0108471Y0153301D02*
X0100874Y0153301D01*
X0102072Y0152102D02*
X0108491Y0152102D01*
X0109571Y0150904D02*
X0103271Y0150904D01*
X0104469Y0149705D02*
X0109571Y0149705D01*
X0109571Y0148507D02*
X0105668Y0148507D01*
X0106866Y0147308D02*
X0109571Y0147308D01*
X0109571Y0146110D02*
X0107021Y0146110D01*
X0107021Y0144911D02*
X0109571Y0144911D01*
X0109571Y0143713D02*
X0107021Y0143713D01*
X0107021Y0142514D02*
X0109571Y0142514D01*
X0109571Y0141316D02*
X0107021Y0141316D01*
X0107021Y0140117D02*
X0109571Y0140117D01*
X0109571Y0138918D02*
X0107021Y0138918D01*
X0107021Y0137720D02*
X0109571Y0137720D01*
X0109571Y0136521D02*
X0107077Y0136521D01*
X0115771Y0135075D02*
X0115771Y0153075D01*
X0112283Y0159075D02*
X0111771Y0159075D01*
X0107534Y0158095D02*
X0105809Y0158095D01*
X0097614Y0150904D02*
X0096715Y0150904D01*
X0096715Y0149705D02*
X0098813Y0149705D01*
X0100011Y0148507D02*
X0096715Y0148507D01*
X0096715Y0147308D02*
X0101210Y0147308D01*
X0100303Y0146110D02*
X0096715Y0146110D01*
X0099105Y0144911D02*
X0092071Y0144911D01*
X0093771Y0144075D02*
X0093771Y0141075D01*
X0091771Y0139075D01*
X0091771Y0138563D01*
X0092371Y0138918D02*
X0097126Y0138918D01*
X0096881Y0139163D02*
X0097419Y0138625D01*
X0098493Y0138625D01*
X0096915Y0137047D01*
X0096915Y0137963D01*
X0092371Y0137963D01*
X0092371Y0139163D01*
X0096881Y0139163D01*
X0096915Y0137720D02*
X0097588Y0137720D01*
X0096708Y0142514D02*
X0096699Y0142514D01*
X0092371Y0137720D02*
X0091171Y0137720D01*
X0091171Y0136521D02*
X0092371Y0136521D01*
X0092371Y0135323D02*
X0091171Y0135323D01*
X0091171Y0134124D02*
X0092371Y0134124D01*
X0092794Y0132926D02*
X0081071Y0132926D01*
X0081071Y0133027D02*
X0079724Y0134375D01*
X0077819Y0134375D01*
X0076471Y0133027D01*
X0076471Y0131122D01*
X0077819Y0129775D01*
X0079724Y0129775D01*
X0081071Y0131122D01*
X0081071Y0133027D01*
X0081071Y0131727D02*
X0091596Y0131727D01*
X0090397Y0130529D02*
X0080478Y0130529D01*
X0077065Y0130529D02*
X0067271Y0130529D01*
X0067271Y0131727D02*
X0076471Y0131727D01*
X0076471Y0132926D02*
X0067271Y0132926D01*
X0067271Y0134124D02*
X0077568Y0134124D01*
X0079974Y0134124D02*
X0087261Y0134124D01*
X0086628Y0135323D02*
X0067271Y0135323D01*
X0067271Y0136521D02*
X0086628Y0136521D01*
X0086628Y0137720D02*
X0067271Y0137720D01*
X0067271Y0138918D02*
X0077675Y0138918D01*
X0076476Y0140117D02*
X0067271Y0140117D01*
X0067271Y0129330D02*
X0089199Y0129330D01*
X0088000Y0128132D02*
X0067271Y0128132D01*
X0067271Y0126933D02*
X0086802Y0126933D01*
X0085603Y0125735D02*
X0067271Y0125735D01*
X0067271Y0124536D02*
X0084405Y0124536D01*
X0083206Y0123338D02*
X0067271Y0123338D01*
X0067271Y0122139D02*
X0067583Y0122139D01*
X0069959Y0122139D02*
X0082007Y0122139D01*
X0080809Y0120941D02*
X0071071Y0120941D01*
X0071071Y0119742D02*
X0079610Y0119742D01*
X0078412Y0118544D02*
X0070555Y0118544D01*
X0071071Y0117345D02*
X0077213Y0117345D01*
X0076015Y0116147D02*
X0071071Y0116147D01*
X0069898Y0114948D02*
X0074816Y0114948D01*
X0073618Y0113750D02*
X0067271Y0113750D01*
X0067271Y0114948D02*
X0067645Y0114948D01*
X0067271Y0112551D02*
X0072419Y0112551D01*
X0071221Y0111353D02*
X0067271Y0111353D01*
X0067271Y0110154D02*
X0070022Y0110154D01*
X0068824Y0108956D02*
X0067271Y0108956D01*
X0067271Y0107757D02*
X0067625Y0107757D01*
X0063271Y0101765D02*
X0043144Y0101765D01*
X0044098Y0100566D02*
X0063271Y0100566D01*
X0063271Y0099368D02*
X0044560Y0099368D01*
X0044560Y0098169D02*
X0046589Y0098169D01*
X0045822Y0096971D02*
X0044220Y0096971D01*
X0044219Y0095772D02*
X0045822Y0095772D01*
X0045822Y0094574D02*
X0044431Y0094574D01*
X0048732Y0092634D02*
X0049771Y0093673D01*
X0050771Y0093673D01*
X0048732Y0091634D02*
X0039586Y0091634D01*
X0039586Y0094193D02*
X0035653Y0094193D01*
X0034771Y0095075D01*
X0034771Y0102075D01*
X0032771Y0102770D02*
X0030595Y0104946D01*
X0029045Y0104946D01*
X0029045Y0100384D01*
X0027883Y0100384D01*
X0027883Y0104946D01*
X0026334Y0104946D01*
X0023871Y0102484D01*
X0023871Y0131866D01*
X0024306Y0131432D01*
X0025906Y0130769D01*
X0027637Y0130769D01*
X0029237Y0131432D01*
X0030461Y0132656D01*
X0031124Y0134256D01*
X0031124Y0141893D01*
X0030461Y0143493D01*
X0029237Y0144718D01*
X0027637Y0145380D01*
X0025906Y0145380D01*
X0024306Y0144718D01*
X0023871Y0144283D01*
X0023871Y0158866D01*
X0024306Y0158432D01*
X0025906Y0157769D01*
X0027637Y0157769D01*
X0029237Y0158432D01*
X0030461Y0159656D01*
X0031124Y0161256D01*
X0031124Y0168893D01*
X0030461Y0170493D01*
X0029740Y0171215D01*
X0040600Y0182075D01*
X0052822Y0182075D01*
X0044943Y0182075D01*
X0043771Y0180903D01*
X0034784Y0171916D01*
X0034306Y0171718D01*
X0033081Y0170493D01*
X0032419Y0168893D01*
X0032419Y0161256D01*
X0033081Y0159656D01*
X0034306Y0158432D01*
X0035906Y0157769D01*
X0037637Y0157769D01*
X0039237Y0158432D01*
X0039771Y0158966D01*
X0039771Y0144466D01*
X0039737Y0144500D01*
X0039158Y0144921D01*
X0038519Y0145247D01*
X0037837Y0145468D01*
X0037156Y0145576D01*
X0037156Y0138459D01*
X0036387Y0138459D01*
X0036387Y0137691D01*
X0032219Y0137691D01*
X0032219Y0134764D01*
X0032331Y0134056D01*
X0032552Y0133374D01*
X0032877Y0132736D01*
X0033299Y0132156D01*
X0033805Y0131649D01*
X0034385Y0131228D01*
X0035024Y0130903D01*
X0035705Y0130681D01*
X0036387Y0130573D01*
X0036387Y0137690D01*
X0037156Y0137690D01*
X0037156Y0130573D01*
X0037837Y0130681D01*
X0038519Y0130903D01*
X0039158Y0131228D01*
X0039737Y0131649D01*
X0039771Y0131684D01*
X0039771Y0109903D01*
X0032771Y0102903D01*
X0032771Y0102770D01*
X0032831Y0102963D02*
X0032578Y0102963D01*
X0031379Y0104162D02*
X0034030Y0104162D01*
X0035228Y0105360D02*
X0023871Y0105360D01*
X0023871Y0104162D02*
X0025549Y0104162D01*
X0024351Y0102963D02*
X0023871Y0102963D01*
X0027883Y0102963D02*
X0029045Y0102963D01*
X0029045Y0101765D02*
X0027883Y0101765D01*
X0027883Y0100566D02*
X0029045Y0100566D01*
X0029045Y0099222D02*
X0029045Y0094660D01*
X0030595Y0094660D01*
X0032771Y0096837D01*
X0032771Y0094246D01*
X0033943Y0093075D01*
X0034741Y0092276D01*
X0034741Y0085519D01*
X0034650Y0085362D01*
X0034541Y0084955D01*
X0034541Y0083957D01*
X0039586Y0083957D01*
X0039586Y0083957D01*
X0034541Y0083957D01*
X0034541Y0082959D01*
X0034650Y0082552D01*
X0034861Y0082187D01*
X0035159Y0081889D01*
X0035524Y0081678D01*
X0035931Y0081569D01*
X0036729Y0081569D01*
X0036226Y0080356D01*
X0036226Y0078699D01*
X0036861Y0077167D01*
X0038033Y0075995D01*
X0039565Y0075361D01*
X0040229Y0075361D01*
X0037771Y0072903D01*
X0037771Y0072396D01*
X0037263Y0072396D01*
X0036269Y0073390D01*
X0030781Y0073390D01*
X0033608Y0076216D01*
X0033608Y0077765D01*
X0029045Y0077765D01*
X0029045Y0078928D01*
X0027883Y0078928D01*
X0027883Y0083490D01*
X0026334Y0083490D01*
X0023871Y0081027D01*
X0023871Y0097122D01*
X0026334Y0094660D01*
X0027883Y0094660D01*
X0027883Y0099222D01*
X0029045Y0099222D01*
X0029045Y0098169D02*
X0027883Y0098169D01*
X0027883Y0096971D02*
X0029045Y0096971D01*
X0029045Y0095772D02*
X0027883Y0095772D01*
X0025222Y0095772D02*
X0023871Y0095772D01*
X0023871Y0094574D02*
X0032771Y0094574D01*
X0032771Y0095772D02*
X0031707Y0095772D01*
X0033643Y0093375D02*
X0023871Y0093375D01*
X0023871Y0092177D02*
X0034741Y0092177D01*
X0034741Y0090978D02*
X0023871Y0090978D01*
X0023871Y0089780D02*
X0034741Y0089780D01*
X0034741Y0088581D02*
X0023871Y0088581D01*
X0023871Y0087383D02*
X0034741Y0087383D01*
X0034741Y0086184D02*
X0023871Y0086184D01*
X0023871Y0084985D02*
X0034550Y0084985D01*
X0034541Y0083787D02*
X0023871Y0083787D01*
X0023871Y0082588D02*
X0025433Y0082588D01*
X0024234Y0081390D02*
X0023871Y0081390D01*
X0027883Y0081390D02*
X0029045Y0081390D01*
X0029045Y0082588D02*
X0027883Y0082588D01*
X0029045Y0083490D02*
X0029045Y0078928D01*
X0033608Y0078928D01*
X0033608Y0080477D01*
X0030595Y0083490D01*
X0029045Y0083490D01*
X0031496Y0082588D02*
X0034641Y0082588D01*
X0032694Y0081390D02*
X0036655Y0081390D01*
X0036226Y0080191D02*
X0033608Y0080191D01*
X0033608Y0078993D02*
X0036226Y0078993D01*
X0036601Y0077794D02*
X0029045Y0077794D01*
X0029045Y0078993D02*
X0027883Y0078993D01*
X0027883Y0080191D02*
X0029045Y0080191D01*
X0033608Y0076596D02*
X0037432Y0076596D01*
X0039476Y0075397D02*
X0032789Y0075397D01*
X0031590Y0074199D02*
X0039067Y0074199D01*
X0037869Y0073000D02*
X0036658Y0073000D01*
X0035441Y0071390D02*
X0037212Y0069618D01*
X0035441Y0071390D02*
X0026409Y0071390D01*
X0024809Y0068206D02*
X0023871Y0068206D01*
X0023871Y0067008D02*
X0024809Y0067008D01*
X0025009Y0065809D02*
X0023871Y0065809D01*
X0023871Y0064611D02*
X0025009Y0064611D01*
X0025009Y0063412D02*
X0023871Y0063412D01*
X0032064Y0064611D02*
X0034982Y0064611D01*
X0034825Y0063412D02*
X0033262Y0063412D01*
X0034461Y0062214D02*
X0034825Y0062214D01*
X0039771Y0069618D02*
X0039771Y0072075D01*
X0044771Y0077075D01*
X0044771Y0086075D01*
X0045771Y0087075D01*
X0062271Y0087075D01*
X0057771Y0090075D02*
X0057771Y0091673D01*
X0059771Y0093673D01*
X0055589Y0098169D02*
X0054954Y0098169D01*
X0057771Y0090075D02*
X0056771Y0089075D01*
X0039586Y0089075D01*
X0024023Y0096971D02*
X0023871Y0096971D01*
X0027883Y0104162D02*
X0029045Y0104162D01*
X0023871Y0106559D02*
X0036427Y0106559D01*
X0037625Y0107757D02*
X0023871Y0107757D01*
X0023871Y0108956D02*
X0038824Y0108956D01*
X0039771Y0110154D02*
X0023871Y0110154D01*
X0023871Y0111353D02*
X0039771Y0111353D01*
X0039771Y0112551D02*
X0023871Y0112551D01*
X0023871Y0113750D02*
X0039771Y0113750D01*
X0039771Y0114948D02*
X0023871Y0114948D01*
X0023871Y0116147D02*
X0039771Y0116147D01*
X0039771Y0117345D02*
X0023871Y0117345D01*
X0023871Y0118544D02*
X0039771Y0118544D01*
X0039771Y0119742D02*
X0023871Y0119742D01*
X0023871Y0120941D02*
X0039771Y0120941D01*
X0039771Y0122139D02*
X0023871Y0122139D01*
X0023871Y0123338D02*
X0039771Y0123338D01*
X0039771Y0124536D02*
X0023871Y0124536D01*
X0023871Y0125735D02*
X0039771Y0125735D01*
X0039771Y0126933D02*
X0023871Y0126933D01*
X0023871Y0128132D02*
X0039771Y0128132D01*
X0039771Y0129330D02*
X0023871Y0129330D01*
X0023871Y0130529D02*
X0039771Y0130529D01*
X0037156Y0131727D02*
X0036387Y0131727D01*
X0036387Y0132926D02*
X0037156Y0132926D01*
X0037156Y0134124D02*
X0036387Y0134124D01*
X0036387Y0135323D02*
X0037156Y0135323D01*
X0037156Y0136521D02*
X0036387Y0136521D01*
X0036387Y0137720D02*
X0031124Y0137720D01*
X0031124Y0138918D02*
X0032219Y0138918D01*
X0032219Y0138459D02*
X0036387Y0138459D01*
X0036387Y0145576D01*
X0035705Y0145468D01*
X0035024Y0145247D01*
X0034385Y0144921D01*
X0033805Y0144500D01*
X0033299Y0143993D01*
X0032877Y0143414D01*
X0032552Y0142775D01*
X0032331Y0142094D01*
X0032219Y0141386D01*
X0032219Y0138459D01*
X0032219Y0140117D02*
X0031124Y0140117D01*
X0031124Y0141316D02*
X0032219Y0141316D01*
X0032467Y0142514D02*
X0030867Y0142514D01*
X0030242Y0143713D02*
X0033095Y0143713D01*
X0034371Y0144911D02*
X0028770Y0144911D01*
X0024773Y0144911D02*
X0023871Y0144911D01*
X0023871Y0146110D02*
X0039771Y0146110D01*
X0039771Y0147308D02*
X0023871Y0147308D01*
X0023871Y0148507D02*
X0039771Y0148507D01*
X0039771Y0149705D02*
X0023871Y0149705D01*
X0023871Y0150904D02*
X0039771Y0150904D01*
X0039771Y0152102D02*
X0023871Y0152102D01*
X0023871Y0153301D02*
X0039771Y0153301D01*
X0039771Y0154499D02*
X0023871Y0154499D01*
X0023871Y0155698D02*
X0039771Y0155698D01*
X0039771Y0156896D02*
X0023871Y0156896D01*
X0023871Y0158095D02*
X0025120Y0158095D01*
X0028423Y0158095D02*
X0035120Y0158095D01*
X0033444Y0159293D02*
X0030098Y0159293D01*
X0030807Y0160492D02*
X0032735Y0160492D01*
X0032419Y0161690D02*
X0031124Y0161690D01*
X0031124Y0162889D02*
X0032419Y0162889D01*
X0032419Y0164087D02*
X0031124Y0164087D01*
X0031124Y0165286D02*
X0032419Y0165286D01*
X0032419Y0166484D02*
X0031124Y0166484D01*
X0031124Y0167683D02*
X0032419Y0167683D01*
X0032419Y0168881D02*
X0031124Y0168881D01*
X0030633Y0170080D02*
X0032910Y0170080D01*
X0033866Y0171278D02*
X0029803Y0171278D01*
X0031002Y0172477D02*
X0035345Y0172477D01*
X0036543Y0173675D02*
X0032200Y0173675D01*
X0033399Y0174874D02*
X0037742Y0174874D01*
X0038940Y0176072D02*
X0034597Y0176072D01*
X0035796Y0177271D02*
X0040139Y0177271D01*
X0041338Y0178469D02*
X0036994Y0178469D01*
X0038193Y0179668D02*
X0042536Y0179668D01*
X0043735Y0180866D02*
X0039391Y0180866D01*
X0040590Y0182065D02*
X0044933Y0182065D01*
X0042997Y0186859D02*
X0040545Y0186859D01*
X0041042Y0188057D02*
X0042501Y0188057D01*
X0042419Y0189256D02*
X0041124Y0189256D01*
X0041124Y0190454D02*
X0042419Y0190454D01*
X0042419Y0191653D02*
X0041124Y0191653D01*
X0041124Y0192852D02*
X0042419Y0192852D01*
X0042419Y0194050D02*
X0041124Y0194050D01*
X0041124Y0195249D02*
X0042419Y0195249D01*
X0042648Y0196447D02*
X0040895Y0196447D01*
X0040309Y0197646D02*
X0043234Y0197646D01*
X0044611Y0198844D02*
X0038932Y0198844D01*
X0034611Y0198844D02*
X0029264Y0198844D01*
X0030497Y0197646D02*
X0033234Y0197646D01*
X0032648Y0196447D02*
X0031097Y0196447D01*
X0031324Y0195249D02*
X0032419Y0195249D01*
X0032419Y0194050D02*
X0031324Y0194050D01*
X0031324Y0192852D02*
X0032419Y0192852D01*
X0032419Y0191653D02*
X0031324Y0191653D01*
X0031324Y0190454D02*
X0032419Y0190454D01*
X0032419Y0189256D02*
X0031324Y0189256D01*
X0031212Y0188057D02*
X0032501Y0188057D01*
X0032997Y0186859D02*
X0030728Y0186859D01*
X0029748Y0185660D02*
X0034077Y0185660D01*
X0036132Y0183263D02*
X0023871Y0183263D01*
X0023871Y0182065D02*
X0034933Y0182065D01*
X0033735Y0180866D02*
X0023871Y0180866D01*
X0023871Y0179668D02*
X0032536Y0179668D01*
X0031338Y0178469D02*
X0023871Y0178469D01*
X0023871Y0177271D02*
X0030139Y0177271D01*
X0028940Y0176072D02*
X0023871Y0176072D01*
X0023871Y0174874D02*
X0027742Y0174874D01*
X0026543Y0173675D02*
X0023871Y0173675D01*
X0023871Y0172477D02*
X0025345Y0172477D01*
X0026771Y0171075D02*
X0039771Y0184075D01*
X0056370Y0184075D01*
X0057771Y0185476D01*
X0060370Y0188075D01*
X0060771Y0188075D01*
X0059323Y0190454D02*
X0051124Y0190454D01*
X0051124Y0189256D02*
X0052872Y0189256D01*
X0052822Y0188057D02*
X0051042Y0188057D01*
X0050545Y0186859D02*
X0052822Y0186859D01*
X0052822Y0182075D02*
X0052822Y0182075D01*
X0045796Y0177271D02*
X0086021Y0177271D01*
X0086021Y0176072D02*
X0044597Y0176072D01*
X0036771Y0171075D02*
X0036771Y0165075D01*
X0038423Y0158095D02*
X0039771Y0158095D01*
X0043771Y0158095D02*
X0045120Y0158095D01*
X0048423Y0158095D02*
X0054647Y0158095D01*
X0053199Y0159293D02*
X0050098Y0159293D01*
X0050807Y0160492D02*
X0052514Y0160492D01*
X0052230Y0161690D02*
X0051124Y0161690D01*
X0051124Y0162889D02*
X0052219Y0162889D01*
X0052219Y0164087D02*
X0051124Y0164087D01*
X0048770Y0144911D02*
X0054773Y0144911D01*
X0053301Y0143713D02*
X0050242Y0143713D01*
X0050867Y0142514D02*
X0052676Y0142514D01*
X0052419Y0141316D02*
X0051124Y0141316D01*
X0051124Y0140117D02*
X0052419Y0140117D01*
X0052419Y0138918D02*
X0051124Y0138918D01*
X0051124Y0137720D02*
X0052419Y0137720D01*
X0052419Y0136521D02*
X0051124Y0136521D01*
X0051124Y0135323D02*
X0052419Y0135323D01*
X0052473Y0134124D02*
X0051070Y0134124D01*
X0050573Y0132926D02*
X0052970Y0132926D01*
X0048771Y0130075D02*
X0046771Y0132075D01*
X0046771Y0138075D01*
X0044773Y0144911D02*
X0043771Y0144911D01*
X0039771Y0144911D02*
X0039172Y0144911D01*
X0037156Y0144911D02*
X0036387Y0144911D01*
X0036387Y0143713D02*
X0037156Y0143713D01*
X0037156Y0142514D02*
X0036387Y0142514D01*
X0036387Y0141316D02*
X0037156Y0141316D01*
X0037156Y0140117D02*
X0036387Y0140117D01*
X0036387Y0138918D02*
X0037156Y0138918D01*
X0032219Y0136521D02*
X0031124Y0136521D01*
X0031124Y0135323D02*
X0032219Y0135323D01*
X0032320Y0134124D02*
X0031070Y0134124D01*
X0030573Y0132926D02*
X0032781Y0132926D01*
X0033727Y0131727D02*
X0029532Y0131727D01*
X0024010Y0131727D02*
X0023871Y0131727D01*
X0043771Y0131727D02*
X0044010Y0131727D01*
X0043771Y0130529D02*
X0045489Y0130529D01*
X0046687Y0129330D02*
X0043771Y0129330D01*
X0043771Y0128132D02*
X0047886Y0128132D01*
X0048771Y0130075D02*
X0060771Y0130075D01*
X0089771Y0144075D02*
X0089771Y0147075D01*
X0091771Y0149075D01*
X0091771Y0149587D01*
X0102239Y0146110D02*
X0102408Y0146110D01*
X0115771Y0135075D02*
X0117771Y0133075D01*
X0117771Y0125575D01*
X0104021Y0111825D01*
X0121771Y0138563D02*
X0121771Y0139075D01*
X0119771Y0141075D01*
X0119771Y0144075D01*
X0123771Y0144075D02*
X0123771Y0147075D01*
X0121771Y0149075D01*
X0121771Y0149587D01*
X0087771Y0181075D02*
X0087771Y0183075D01*
X0088370Y0183075D01*
X0090771Y0185476D01*
X0087771Y0181075D02*
X0087646Y0180950D01*
X0076212Y0181634D02*
X0076212Y0186531D01*
X0074025Y0186859D02*
X0071721Y0186859D01*
X0071721Y0185660D02*
X0074025Y0185660D01*
X0074137Y0184462D02*
X0071721Y0184462D01*
X0071721Y0183263D02*
X0074212Y0183263D01*
X0074212Y0182065D02*
X0071721Y0182065D01*
X0071771Y0188057D02*
X0074025Y0188057D01*
X0071721Y0200043D02*
X0085822Y0200043D01*
X0095471Y0202440D02*
X0059020Y0202440D01*
X0059371Y0201241D02*
X0096352Y0201241D01*
X0095471Y0203638D02*
X0057885Y0203638D01*
X0056686Y0204837D02*
X0096280Y0204837D01*
X0099262Y0204837D02*
X0109571Y0204837D01*
X0109571Y0203638D02*
X0100071Y0203638D01*
X0100071Y0202440D02*
X0109571Y0202440D01*
X0109571Y0201241D02*
X0099190Y0201241D01*
X0104721Y0200043D02*
X0109571Y0200043D01*
X0109571Y0198844D02*
X0104721Y0198844D01*
X0104721Y0197646D02*
X0109571Y0197646D01*
X0109571Y0196447D02*
X0104721Y0196447D01*
X0104721Y0195249D02*
X0109571Y0195249D01*
X0109571Y0194050D02*
X0104721Y0194050D01*
X0104628Y0192852D02*
X0109571Y0192852D01*
X0109571Y0191653D02*
X0097022Y0191653D01*
X0098220Y0190454D02*
X0109571Y0190454D01*
X0109571Y0189256D02*
X0104670Y0189256D01*
X0104721Y0188057D02*
X0109571Y0188057D01*
X0109571Y0186859D02*
X0104721Y0186859D01*
X0104721Y0185660D02*
X0109571Y0185660D01*
X0109571Y0184462D02*
X0104721Y0184462D01*
X0104721Y0183263D02*
X0109571Y0183263D01*
X0109509Y0182065D02*
X0104721Y0182065D01*
X0109620Y0206035D02*
X0040362Y0206035D01*
X0042715Y0207234D02*
X0110819Y0207234D01*
X0112017Y0208432D02*
X0044609Y0208432D01*
X0045807Y0209631D02*
X0113216Y0209631D01*
X0114414Y0210829D02*
X0047006Y0210829D01*
X0047791Y0212028D02*
X0115613Y0212028D01*
X0116811Y0213226D02*
X0048402Y0213226D01*
X0049013Y0214425D02*
X0118010Y0214425D01*
X0119209Y0215623D02*
X0049494Y0215623D01*
X0049684Y0216822D02*
X0120407Y0216822D01*
X0121606Y0218020D02*
X0049874Y0218020D01*
X0050064Y0219219D02*
X0122804Y0219219D01*
X0124003Y0220417D02*
X0050048Y0220417D01*
X0049858Y0221616D02*
X0125201Y0221616D01*
X0126400Y0222814D02*
X0110764Y0222814D01*
X0110724Y0222775D02*
X0112071Y0224122D01*
X0112071Y0226027D01*
X0110724Y0227375D01*
X0108819Y0227375D01*
X0107471Y0226027D01*
X0107471Y0224122D01*
X0108819Y0222775D01*
X0110724Y0222775D01*
X0111962Y0224013D02*
X0127598Y0224013D01*
X0128797Y0225211D02*
X0112071Y0225211D01*
X0111689Y0226410D02*
X0129995Y0226410D01*
X0131194Y0227608D02*
X0062071Y0227608D01*
X0062071Y0228807D02*
X0132392Y0228807D01*
X0133591Y0230005D02*
X0061955Y0230005D01*
X0062071Y0231204D02*
X0134789Y0231204D01*
X0135988Y0232402D02*
X0061696Y0232402D01*
X0062071Y0233601D02*
X0137186Y0233601D01*
X0138385Y0234799D02*
X0062071Y0234799D01*
X0061101Y0235998D02*
X0139583Y0235998D01*
X0161370Y0217075D02*
X0161370Y0209161D01*
X0161283Y0209075D01*
X0163283Y0207075D01*
X0164771Y0207075D01*
X0166771Y0205075D01*
X0166771Y0200575D01*
X0161370Y0199988D02*
X0161370Y0192075D01*
X0161370Y0190075D01*
X0157771Y0190075D01*
X0154771Y0187075D01*
X0145271Y0187075D01*
X0144771Y0186575D01*
X0161283Y0197563D02*
X0161283Y0200075D01*
X0161370Y0199988D01*
X0161283Y0197563D02*
X0161771Y0197075D01*
X0180271Y0202075D02*
X0181771Y0202075D01*
X0182771Y0203075D01*
X0189960Y0203075D01*
X0189960Y0198075D02*
X0189086Y0197201D01*
X0189086Y0197075D01*
X0191971Y0190100D02*
X0199595Y0190100D01*
X0200415Y0190920D01*
X0200415Y0195230D01*
X0200070Y0195575D01*
X0200415Y0195920D01*
X0200415Y0200230D01*
X0200070Y0200575D01*
X0200415Y0200920D01*
X0200415Y0205075D01*
X0205571Y0205075D01*
X0205571Y0186164D01*
X0206860Y0184875D01*
X0242860Y0184875D01*
X0243460Y0184275D01*
X0206860Y0184275D01*
X0205571Y0182986D01*
X0205571Y0164075D01*
X0200415Y0164075D01*
X0200415Y0168230D01*
X0200070Y0168575D01*
X0200415Y0168920D01*
X0200415Y0169075D01*
X0200519Y0169075D01*
X0200819Y0168775D01*
X0202724Y0168775D01*
X0204071Y0170122D01*
X0204071Y0172027D01*
X0202724Y0173375D01*
X0200819Y0173375D01*
X0200519Y0173075D01*
X0200415Y0173075D01*
X0200415Y0173230D01*
X0200212Y0173433D01*
X0200296Y0173518D01*
X0200506Y0173882D01*
X0200615Y0174289D01*
X0200615Y0175887D01*
X0191971Y0175887D01*
X0191971Y0176262D01*
X0200615Y0176262D01*
X0200615Y0177860D01*
X0200506Y0178267D01*
X0200296Y0178632D01*
X0199998Y0178930D01*
X0199633Y0179141D01*
X0199226Y0179250D01*
X0197412Y0179250D01*
X0197415Y0179251D01*
X0197713Y0179549D01*
X0197924Y0179914D01*
X0198033Y0180321D01*
X0198033Y0183475D01*
X0193883Y0183475D01*
X0193883Y0184675D01*
X0192683Y0184675D01*
X0192683Y0189218D01*
X0191971Y0189218D01*
X0191971Y0190100D01*
X0191971Y0189256D02*
X0205571Y0189256D01*
X0205571Y0190454D02*
X0199950Y0190454D01*
X0200415Y0191653D02*
X0205571Y0191653D01*
X0205571Y0192852D02*
X0200415Y0192852D01*
X0200415Y0194050D02*
X0205571Y0194050D01*
X0205571Y0195249D02*
X0200396Y0195249D01*
X0200415Y0196447D02*
X0205571Y0196447D01*
X0205571Y0197646D02*
X0200415Y0197646D01*
X0200415Y0198844D02*
X0205571Y0198844D01*
X0205571Y0200043D02*
X0200415Y0200043D01*
X0200415Y0201241D02*
X0205571Y0201241D01*
X0205571Y0202440D02*
X0200415Y0202440D01*
X0200415Y0203638D02*
X0205571Y0203638D01*
X0205571Y0204837D02*
X0200415Y0204837D01*
X0200415Y0211075D02*
X0200415Y0215230D01*
X0200070Y0215575D01*
X0200415Y0215920D01*
X0200415Y0216075D01*
X0200519Y0216075D01*
X0200819Y0215775D01*
X0202724Y0215775D01*
X0204071Y0217122D01*
X0204071Y0219027D01*
X0202724Y0220375D01*
X0200819Y0220375D01*
X0200519Y0220075D01*
X0200415Y0220075D01*
X0200415Y0220230D01*
X0200212Y0220433D01*
X0200296Y0220518D01*
X0200506Y0220882D01*
X0200615Y0221289D01*
X0200615Y0222887D01*
X0191971Y0222887D01*
X0191971Y0223262D01*
X0200615Y0223262D01*
X0200615Y0224860D01*
X0200506Y0225267D01*
X0200296Y0225632D01*
X0199998Y0225930D01*
X0199633Y0226141D01*
X0199226Y0226250D01*
X0197412Y0226250D01*
X0197415Y0226251D01*
X0197713Y0226549D01*
X0197924Y0226914D01*
X0198033Y0227321D01*
X0198033Y0230475D01*
X0193883Y0230475D01*
X0193883Y0231675D01*
X0192683Y0231675D01*
X0192683Y0236218D01*
X0191971Y0236218D01*
X0191971Y0236369D01*
X0260945Y0236369D01*
X0262854Y0236243D01*
X0266544Y0235255D01*
X0269852Y0233345D01*
X0270723Y0232474D01*
X0268409Y0233653D01*
X0263897Y0234368D01*
X0259386Y0233653D01*
X0255316Y0231579D01*
X0252086Y0228349D01*
X0250912Y0226046D01*
X0246971Y0229986D01*
X0245683Y0231275D01*
X0206860Y0231275D01*
X0205571Y0229986D01*
X0205571Y0211075D01*
X0200415Y0211075D01*
X0200415Y0212028D02*
X0205571Y0212028D01*
X0205571Y0213226D02*
X0200415Y0213226D01*
X0200415Y0214425D02*
X0205571Y0214425D01*
X0205571Y0215623D02*
X0200119Y0215623D01*
X0201771Y0218075D02*
X0189960Y0218075D01*
X0189960Y0213075D02*
X0178771Y0213075D01*
X0197574Y0226410D02*
X0205571Y0226410D01*
X0205571Y0227608D02*
X0198033Y0227608D01*
X0198033Y0228807D02*
X0205571Y0228807D01*
X0205591Y0230005D02*
X0198033Y0230005D01*
X0198033Y0231675D02*
X0198033Y0234829D01*
X0197924Y0235236D01*
X0197713Y0235601D01*
X0197415Y0235898D01*
X0197050Y0236109D01*
X0196643Y0236218D01*
X0193883Y0236218D01*
X0193883Y0231675D01*
X0198033Y0231675D01*
X0198033Y0232402D02*
X0256931Y0232402D01*
X0255316Y0231579D02*
X0255316Y0231579D01*
X0254940Y0231204D02*
X0245754Y0231204D01*
X0246952Y0230005D02*
X0253742Y0230005D01*
X0252543Y0228807D02*
X0248151Y0228807D01*
X0246971Y0229986D02*
X0246971Y0229986D01*
X0249349Y0227608D02*
X0251708Y0227608D01*
X0252086Y0228349D02*
X0252086Y0228349D01*
X0251097Y0226410D02*
X0250548Y0226410D01*
X0259283Y0233601D02*
X0198033Y0233601D01*
X0198033Y0234799D02*
X0267333Y0234799D01*
X0268409Y0233653D02*
X0268409Y0233653D01*
X0268512Y0233601D02*
X0269409Y0233601D01*
X0263897Y0234368D02*
X0263897Y0234368D01*
X0263770Y0235998D02*
X0197243Y0235998D01*
X0193883Y0235998D02*
X0192683Y0235998D01*
X0192683Y0234799D02*
X0193883Y0234799D01*
X0193883Y0233601D02*
X0192683Y0233601D01*
X0192683Y0232402D02*
X0193883Y0232402D01*
X0193883Y0231204D02*
X0206789Y0231204D01*
X0205571Y0225211D02*
X0200521Y0225211D01*
X0200615Y0224013D02*
X0205571Y0224013D01*
X0205571Y0222814D02*
X0200615Y0222814D01*
X0200615Y0221616D02*
X0205571Y0221616D01*
X0205571Y0220417D02*
X0200228Y0220417D01*
X0203880Y0219219D02*
X0205571Y0219219D01*
X0205571Y0218020D02*
X0204071Y0218020D01*
X0203771Y0216822D02*
X0205571Y0216822D01*
X0205571Y0188057D02*
X0197971Y0188057D01*
X0197924Y0188236D02*
X0197713Y0188601D01*
X0197415Y0188898D01*
X0197050Y0189109D01*
X0196643Y0189218D01*
X0193883Y0189218D01*
X0193883Y0184675D01*
X0198033Y0184675D01*
X0198033Y0187829D01*
X0197924Y0188236D01*
X0198033Y0186859D02*
X0205571Y0186859D01*
X0206074Y0185660D02*
X0198033Y0185660D01*
X0198033Y0183263D02*
X0205849Y0183263D01*
X0205571Y0182065D02*
X0198033Y0182065D01*
X0198033Y0180866D02*
X0205571Y0180866D01*
X0205571Y0179668D02*
X0197782Y0179668D01*
X0200390Y0178469D02*
X0205571Y0178469D01*
X0205571Y0177271D02*
X0200615Y0177271D01*
X0200615Y0174874D02*
X0205571Y0174874D01*
X0205571Y0176072D02*
X0191971Y0176072D01*
X0189960Y0171075D02*
X0201771Y0171075D01*
X0204071Y0171278D02*
X0205571Y0171278D01*
X0205571Y0170080D02*
X0204029Y0170080D01*
X0202831Y0168881D02*
X0205571Y0168881D01*
X0205571Y0167683D02*
X0200415Y0167683D01*
X0200415Y0166484D02*
X0205571Y0166484D01*
X0205571Y0165286D02*
X0200415Y0165286D01*
X0200415Y0164087D02*
X0205571Y0164087D01*
X0202519Y0158075D02*
X0200415Y0158075D01*
X0200415Y0156375D01*
X0201724Y0156375D01*
X0203071Y0155027D01*
X0203071Y0153122D01*
X0201724Y0151775D01*
X0200415Y0151775D01*
X0200415Y0148920D01*
X0200070Y0148575D01*
X0200415Y0148230D01*
X0200415Y0143920D01*
X0199595Y0143100D01*
X0191971Y0143100D01*
X0191971Y0142218D01*
X0192683Y0142218D01*
X0192683Y0137675D01*
X0193883Y0137675D01*
X0193883Y0142218D01*
X0196643Y0142218D01*
X0197050Y0142109D01*
X0197415Y0141898D01*
X0197713Y0141601D01*
X0197924Y0141236D01*
X0198033Y0140829D01*
X0198033Y0137675D01*
X0193883Y0137675D01*
X0193883Y0136475D01*
X0198033Y0136475D01*
X0198033Y0133321D01*
X0197924Y0132914D01*
X0197713Y0132549D01*
X0197415Y0132251D01*
X0197412Y0132250D01*
X0199226Y0132250D01*
X0199633Y0132141D01*
X0199998Y0131930D01*
X0200296Y0131632D01*
X0200506Y0131267D01*
X0200615Y0130860D01*
X0200615Y0129262D01*
X0191971Y0129262D01*
X0191971Y0128887D01*
X0200615Y0128887D01*
X0200615Y0127289D01*
X0200506Y0126882D01*
X0200296Y0126518D01*
X0200212Y0126433D01*
X0200415Y0126230D01*
X0200415Y0126075D01*
X0200519Y0126075D01*
X0200819Y0126375D01*
X0202724Y0126375D01*
X0204071Y0125027D01*
X0204071Y0123122D01*
X0202724Y0121775D01*
X0200819Y0121775D01*
X0200519Y0122075D01*
X0200415Y0122075D01*
X0200415Y0121920D01*
X0200070Y0121575D01*
X0200415Y0121230D01*
X0200415Y0117075D01*
X0205571Y0117075D01*
X0205571Y0135986D01*
X0206860Y0137275D01*
X0242860Y0137275D01*
X0243460Y0137875D01*
X0206860Y0137875D01*
X0205571Y0139164D01*
X0205571Y0154775D01*
X0203819Y0154775D01*
X0202471Y0156122D01*
X0202471Y0158027D01*
X0202519Y0158075D01*
X0202471Y0156896D02*
X0200415Y0156896D01*
X0202401Y0155698D02*
X0202896Y0155698D01*
X0203071Y0154499D02*
X0205571Y0154499D01*
X0205571Y0153301D02*
X0203071Y0153301D01*
X0202051Y0152102D02*
X0205571Y0152102D01*
X0205571Y0150904D02*
X0200415Y0150904D01*
X0200415Y0149705D02*
X0205571Y0149705D01*
X0205571Y0148507D02*
X0200138Y0148507D01*
X0200415Y0147308D02*
X0205571Y0147308D01*
X0205571Y0146110D02*
X0200415Y0146110D01*
X0200415Y0144911D02*
X0205571Y0144911D01*
X0205571Y0143713D02*
X0200208Y0143713D01*
X0197878Y0141316D02*
X0205571Y0141316D01*
X0205571Y0142514D02*
X0191971Y0142514D01*
X0192683Y0141316D02*
X0193883Y0141316D01*
X0193883Y0140117D02*
X0192683Y0140117D01*
X0192683Y0138918D02*
X0193883Y0138918D01*
X0193883Y0137720D02*
X0192683Y0137720D01*
X0193883Y0136521D02*
X0206107Y0136521D01*
X0205571Y0135323D02*
X0198033Y0135323D01*
X0198033Y0134124D02*
X0205571Y0134124D01*
X0205571Y0132926D02*
X0197927Y0132926D01*
X0200200Y0131727D02*
X0205571Y0131727D01*
X0205571Y0130529D02*
X0200615Y0130529D01*
X0200615Y0129330D02*
X0205571Y0129330D01*
X0205571Y0128132D02*
X0200615Y0128132D01*
X0200520Y0126933D02*
X0205571Y0126933D01*
X0205571Y0125735D02*
X0203364Y0125735D01*
X0204071Y0124536D02*
X0205571Y0124536D01*
X0205571Y0123338D02*
X0204071Y0123338D01*
X0203089Y0122139D02*
X0205571Y0122139D01*
X0205571Y0120941D02*
X0200415Y0120941D01*
X0200415Y0119742D02*
X0205571Y0119742D01*
X0205571Y0118544D02*
X0200415Y0118544D01*
X0200415Y0117345D02*
X0205571Y0117345D01*
X0205571Y0111075D02*
X0200415Y0111075D01*
X0200415Y0106920D01*
X0200070Y0106575D01*
X0200415Y0106230D01*
X0200415Y0101920D01*
X0200070Y0101575D01*
X0200415Y0101230D01*
X0200415Y0096920D01*
X0199595Y0096100D01*
X0193715Y0096100D01*
X0193715Y0092375D01*
X0194336Y0092996D01*
X0194336Y0092996D01*
X0196555Y0093915D01*
X0201319Y0093915D01*
X0203537Y0092996D01*
X0203537Y0092996D01*
X0205236Y0091298D01*
X0205236Y0091298D01*
X0206155Y0089079D01*
X0206155Y0074375D01*
X0207724Y0074375D01*
X0209071Y0073027D01*
X0209071Y0071122D01*
X0207724Y0069775D01*
X0206155Y0069775D01*
X0206155Y0032135D01*
X0206299Y0032279D01*
X0207254Y0032675D01*
X0208289Y0032675D01*
X0209244Y0032279D01*
X0209976Y0031548D01*
X0210371Y0030592D01*
X0210371Y0028471D01*
X0210471Y0028471D01*
X0210471Y0029777D01*
X0211819Y0031125D01*
X0212243Y0031125D01*
X0237893Y0056775D01*
X0236819Y0056775D01*
X0235471Y0058122D01*
X0235471Y0060027D01*
X0236819Y0061375D01*
X0238724Y0061375D01*
X0240071Y0060027D01*
X0240071Y0058953D01*
X0250771Y0069653D01*
X0250771Y0074239D01*
X0250306Y0074432D01*
X0249081Y0075656D01*
X0248419Y0077256D01*
X0248419Y0084893D01*
X0249081Y0086493D01*
X0250306Y0087718D01*
X0251906Y0088380D01*
X0253637Y0088380D01*
X0255237Y0087718D01*
X0255771Y0087183D01*
X0255771Y0098822D01*
X0255471Y0099122D01*
X0255471Y0101027D01*
X0256819Y0102375D01*
X0258724Y0102375D01*
X0260071Y0101027D01*
X0260071Y0099122D01*
X0259771Y0098822D01*
X0259771Y0087466D01*
X0259805Y0087500D01*
X0260385Y0087921D01*
X0261024Y0088247D01*
X0261705Y0088468D01*
X0262387Y0088576D01*
X0262387Y0081459D01*
X0263156Y0081459D01*
X0267324Y0081459D01*
X0267324Y0084386D01*
X0267212Y0085094D01*
X0266991Y0085775D01*
X0266665Y0086414D01*
X0266244Y0086993D01*
X0265737Y0087500D01*
X0265158Y0087921D01*
X0264519Y0088247D01*
X0263837Y0088468D01*
X0263156Y0088576D01*
X0263156Y0081459D01*
X0263156Y0080691D01*
X0267324Y0080691D01*
X0267324Y0077764D01*
X0267212Y0077056D01*
X0266991Y0076374D01*
X0266665Y0075736D01*
X0266244Y0075156D01*
X0265737Y0074649D01*
X0265158Y0074228D01*
X0264519Y0073903D01*
X0263837Y0073681D01*
X0263156Y0073573D01*
X0263156Y0080690D01*
X0262387Y0080690D01*
X0262387Y0073573D01*
X0261705Y0073681D01*
X0261024Y0073903D01*
X0260385Y0074228D01*
X0259805Y0074649D01*
X0259771Y0074684D01*
X0259771Y0068246D01*
X0252905Y0061380D01*
X0253637Y0061380D01*
X0255237Y0060718D01*
X0256461Y0059493D01*
X0257124Y0057893D01*
X0257124Y0050256D01*
X0256461Y0048656D01*
X0255237Y0047432D01*
X0253637Y0046769D01*
X0251906Y0046769D01*
X0250306Y0047432D01*
X0249081Y0048656D01*
X0248419Y0050256D01*
X0248419Y0055894D01*
X0211671Y0019146D01*
X0211671Y0018499D01*
X0210851Y0017679D01*
X0204691Y0017679D01*
X0203871Y0018499D01*
X0203871Y0022651D01*
X0204295Y0023075D01*
X0203871Y0023499D01*
X0203871Y0024039D01*
X0203537Y0023705D01*
X0203537Y0023705D01*
X0201319Y0022786D01*
X0196555Y0022786D01*
X0195971Y0023027D01*
X0195971Y0015175D01*
X0255184Y0015175D01*
X0252086Y0018273D01*
X0252086Y0018273D01*
X0250012Y0022343D01*
X0250012Y0022343D01*
X0249297Y0026854D01*
X0249297Y0026854D01*
X0250012Y0031366D01*
X0250012Y0031366D01*
X0252086Y0035436D01*
X0252086Y0035436D01*
X0255316Y0038666D01*
X0255316Y0038666D01*
X0259386Y0040740D01*
X0259386Y0040740D01*
X0263897Y0041454D01*
X0263897Y0041454D01*
X0268409Y0040740D01*
X0272479Y0038666D01*
X0275577Y0035568D01*
X0275577Y0047772D01*
X0275237Y0047432D01*
X0273637Y0046769D01*
X0271906Y0046769D01*
X0270306Y0047432D01*
X0269081Y0048656D01*
X0268419Y0050256D01*
X0268419Y0057893D01*
X0269081Y0059493D01*
X0270306Y0060718D01*
X0271906Y0061380D01*
X0273637Y0061380D01*
X0275237Y0060718D01*
X0275577Y0060378D01*
X0275577Y0074772D01*
X0275237Y0074432D01*
X0273637Y0073769D01*
X0271906Y0073769D01*
X0270306Y0074432D01*
X0269081Y0075656D01*
X0268419Y0077256D01*
X0268419Y0084893D01*
X0269081Y0086493D01*
X0270306Y0087718D01*
X0271906Y0088380D01*
X0273637Y0088380D01*
X0275237Y0087718D01*
X0275577Y0087378D01*
X0275577Y0101772D01*
X0275237Y0101432D01*
X0273637Y0100769D01*
X0271906Y0100769D01*
X0270306Y0101432D01*
X0269081Y0102656D01*
X0268419Y0104256D01*
X0268419Y0111893D01*
X0269081Y0113493D01*
X0270306Y0114718D01*
X0271906Y0115380D01*
X0273637Y0115380D01*
X0275237Y0114718D01*
X0275577Y0114378D01*
X0275577Y0121769D01*
X0266853Y0113045D01*
X0266991Y0112775D01*
X0267212Y0112094D01*
X0267324Y0111386D01*
X0267324Y0108459D01*
X0263156Y0108459D01*
X0263156Y0107691D01*
X0267324Y0107691D01*
X0267324Y0104764D01*
X0267212Y0104056D01*
X0266991Y0103374D01*
X0266665Y0102736D01*
X0266244Y0102156D01*
X0265737Y0101649D01*
X0265158Y0101228D01*
X0264519Y0100903D01*
X0263837Y0100681D01*
X0263156Y0100573D01*
X0263156Y0107690D01*
X0262387Y0107690D01*
X0262387Y0100573D01*
X0261705Y0100681D01*
X0261024Y0100903D01*
X0260385Y0101228D01*
X0259805Y0101649D01*
X0259299Y0102156D01*
X0258877Y0102736D01*
X0258552Y0103374D01*
X0258331Y0104056D01*
X0258267Y0104459D01*
X0245971Y0092164D01*
X0244683Y0090875D01*
X0206860Y0090875D01*
X0205571Y0092164D01*
X0205571Y0111075D01*
X0205571Y0110154D02*
X0200415Y0110154D01*
X0200415Y0108956D02*
X0205571Y0108956D01*
X0205571Y0107757D02*
X0200415Y0107757D01*
X0200086Y0106559D02*
X0205571Y0106559D01*
X0205571Y0105360D02*
X0200415Y0105360D01*
X0200415Y0104162D02*
X0205571Y0104162D01*
X0205571Y0102963D02*
X0200415Y0102963D01*
X0200260Y0101765D02*
X0205571Y0101765D01*
X0205571Y0100566D02*
X0200415Y0100566D01*
X0200415Y0099368D02*
X0205571Y0099368D01*
X0205571Y0098169D02*
X0200415Y0098169D01*
X0200415Y0096971D02*
X0205571Y0096971D01*
X0205571Y0095772D02*
X0193715Y0095772D01*
X0193715Y0094574D02*
X0205571Y0094574D01*
X0205571Y0093375D02*
X0202622Y0093375D01*
X0204357Y0092177D02*
X0205571Y0092177D01*
X0205368Y0090978D02*
X0206757Y0090978D01*
X0205865Y0089780D02*
X0255771Y0089780D01*
X0255771Y0090978D02*
X0244786Y0090978D01*
X0245984Y0092177D02*
X0255771Y0092177D01*
X0255771Y0093375D02*
X0247183Y0093375D01*
X0248381Y0094574D02*
X0255771Y0094574D01*
X0255771Y0095772D02*
X0249580Y0095772D01*
X0250778Y0096971D02*
X0255771Y0096971D01*
X0255771Y0098169D02*
X0251977Y0098169D01*
X0253175Y0099368D02*
X0255471Y0099368D01*
X0255471Y0100566D02*
X0254374Y0100566D01*
X0255572Y0101765D02*
X0256209Y0101765D01*
X0256771Y0102963D02*
X0258762Y0102963D01*
X0258314Y0104162D02*
X0257969Y0104162D01*
X0259334Y0101765D02*
X0259690Y0101765D01*
X0260071Y0100566D02*
X0275577Y0100566D01*
X0275577Y0099368D02*
X0260071Y0099368D01*
X0259771Y0098169D02*
X0275577Y0098169D01*
X0275577Y0096971D02*
X0259771Y0096971D01*
X0259771Y0095772D02*
X0275577Y0095772D01*
X0275577Y0094574D02*
X0259771Y0094574D01*
X0259771Y0093375D02*
X0275577Y0093375D01*
X0275577Y0092177D02*
X0259771Y0092177D01*
X0259771Y0090978D02*
X0275577Y0090978D01*
X0275577Y0089780D02*
X0259771Y0089780D01*
X0259771Y0088581D02*
X0275577Y0088581D01*
X0275572Y0087383D02*
X0275577Y0087383D01*
X0269971Y0087383D02*
X0265855Y0087383D01*
X0266782Y0086184D02*
X0268953Y0086184D01*
X0268457Y0084985D02*
X0267229Y0084985D01*
X0267324Y0083787D02*
X0268419Y0083787D01*
X0268419Y0082588D02*
X0267324Y0082588D01*
X0268419Y0081390D02*
X0263156Y0081390D01*
X0263156Y0082588D02*
X0262387Y0082588D01*
X0262387Y0083787D02*
X0263156Y0083787D01*
X0263156Y0084985D02*
X0262387Y0084985D01*
X0262387Y0086184D02*
X0263156Y0086184D01*
X0263156Y0087383D02*
X0262387Y0087383D01*
X0255771Y0087383D02*
X0255572Y0087383D01*
X0255771Y0088581D02*
X0206155Y0088581D01*
X0206155Y0087383D02*
X0249971Y0087383D01*
X0248953Y0086184D02*
X0215915Y0086184D01*
X0215724Y0086375D02*
X0213819Y0086375D01*
X0212471Y0085027D01*
X0212471Y0083122D01*
X0212771Y0082822D01*
X0212771Y0041327D01*
X0212471Y0041027D01*
X0212471Y0039122D01*
X0213819Y0037775D01*
X0215724Y0037775D01*
X0217071Y0039122D01*
X0217071Y0041027D01*
X0216771Y0041327D01*
X0216771Y0082822D01*
X0217071Y0083122D01*
X0217071Y0085027D01*
X0215724Y0086375D01*
X0217071Y0084985D02*
X0248457Y0084985D01*
X0248419Y0083787D02*
X0217071Y0083787D01*
X0216771Y0082588D02*
X0248419Y0082588D01*
X0248419Y0081390D02*
X0216771Y0081390D01*
X0216771Y0080191D02*
X0248419Y0080191D01*
X0248419Y0078993D02*
X0216771Y0078993D01*
X0216771Y0077794D02*
X0248419Y0077794D01*
X0248692Y0076596D02*
X0216771Y0076596D01*
X0216771Y0075397D02*
X0249340Y0075397D01*
X0250771Y0074199D02*
X0243900Y0074199D01*
X0243724Y0074375D02*
X0241819Y0074375D01*
X0240471Y0073027D01*
X0240471Y0071122D01*
X0241819Y0069775D01*
X0243724Y0069775D01*
X0245071Y0071122D01*
X0245071Y0073027D01*
X0243724Y0074375D01*
X0245071Y0073000D02*
X0250771Y0073000D01*
X0250771Y0071802D02*
X0245071Y0071802D01*
X0244553Y0070603D02*
X0250771Y0070603D01*
X0250523Y0069405D02*
X0216771Y0069405D01*
X0216771Y0070603D02*
X0240990Y0070603D01*
X0240471Y0071802D02*
X0216771Y0071802D01*
X0216771Y0073000D02*
X0240471Y0073000D01*
X0241643Y0074199D02*
X0216771Y0074199D01*
X0212771Y0074199D02*
X0207900Y0074199D01*
X0209071Y0073000D02*
X0212771Y0073000D01*
X0212771Y0071802D02*
X0209071Y0071802D01*
X0208553Y0070603D02*
X0212771Y0070603D01*
X0212771Y0069405D02*
X0206155Y0069405D01*
X0206155Y0068206D02*
X0212771Y0068206D01*
X0212771Y0067008D02*
X0206155Y0067008D01*
X0206155Y0065809D02*
X0212771Y0065809D01*
X0212771Y0064611D02*
X0206155Y0064611D01*
X0206155Y0063412D02*
X0212771Y0063412D01*
X0212771Y0062214D02*
X0206155Y0062214D01*
X0206155Y0061015D02*
X0212771Y0061015D01*
X0212771Y0059817D02*
X0206155Y0059817D01*
X0206155Y0058618D02*
X0212771Y0058618D01*
X0212771Y0057420D02*
X0206155Y0057420D01*
X0206155Y0056221D02*
X0212771Y0056221D01*
X0212771Y0055023D02*
X0206155Y0055023D01*
X0206155Y0053824D02*
X0212771Y0053824D01*
X0212771Y0052626D02*
X0206155Y0052626D01*
X0206155Y0051427D02*
X0212771Y0051427D01*
X0212771Y0050229D02*
X0206155Y0050229D01*
X0206155Y0049030D02*
X0212771Y0049030D01*
X0212771Y0047832D02*
X0206155Y0047832D01*
X0206155Y0046633D02*
X0212771Y0046633D01*
X0212771Y0045435D02*
X0206155Y0045435D01*
X0206155Y0044236D02*
X0212771Y0044236D01*
X0212771Y0043038D02*
X0206155Y0043038D01*
X0206155Y0041839D02*
X0212771Y0041839D01*
X0212471Y0040641D02*
X0206155Y0040641D01*
X0206155Y0039442D02*
X0212471Y0039442D01*
X0213350Y0038244D02*
X0206155Y0038244D01*
X0206155Y0037045D02*
X0218163Y0037045D01*
X0216965Y0035847D02*
X0206155Y0035847D01*
X0206155Y0034648D02*
X0215766Y0034648D01*
X0214568Y0033449D02*
X0206155Y0033449D01*
X0206155Y0032251D02*
X0206271Y0032251D01*
X0209272Y0032251D02*
X0213369Y0032251D01*
X0211746Y0031052D02*
X0210181Y0031052D01*
X0210371Y0029854D02*
X0210548Y0029854D01*
X0210471Y0028655D02*
X0210371Y0028655D01*
X0212771Y0028825D02*
X0252771Y0068825D01*
X0252771Y0081075D01*
X0259771Y0074199D02*
X0260443Y0074199D01*
X0259771Y0073000D02*
X0275577Y0073000D01*
X0275577Y0071802D02*
X0259771Y0071802D01*
X0259771Y0070603D02*
X0275577Y0070603D01*
X0275577Y0069405D02*
X0259771Y0069405D01*
X0259731Y0068206D02*
X0275577Y0068206D01*
X0275577Y0067008D02*
X0258533Y0067008D01*
X0257334Y0065809D02*
X0275577Y0065809D01*
X0275577Y0064611D02*
X0256136Y0064611D01*
X0254937Y0063412D02*
X0275577Y0063412D01*
X0275577Y0062214D02*
X0253739Y0062214D01*
X0254518Y0061015D02*
X0260569Y0061015D01*
X0260385Y0060921D02*
X0259805Y0060500D01*
X0259299Y0059993D01*
X0258877Y0059414D01*
X0258552Y0058775D01*
X0258331Y0058094D01*
X0258219Y0057386D01*
X0258219Y0054459D01*
X0262387Y0054459D01*
X0262387Y0053691D01*
X0258219Y0053691D01*
X0258219Y0050764D01*
X0258331Y0050056D01*
X0258552Y0049374D01*
X0258877Y0048736D01*
X0259299Y0048156D01*
X0259805Y0047649D01*
X0260385Y0047228D01*
X0261024Y0046903D01*
X0261705Y0046681D01*
X0262387Y0046573D01*
X0262387Y0053690D01*
X0263156Y0053690D01*
X0263156Y0046573D01*
X0263837Y0046681D01*
X0264519Y0046903D01*
X0265158Y0047228D01*
X0265737Y0047649D01*
X0266244Y0048156D01*
X0266665Y0048736D01*
X0266991Y0049374D01*
X0267212Y0050056D01*
X0267324Y0050764D01*
X0267324Y0053691D01*
X0263156Y0053691D01*
X0263156Y0054459D01*
X0267324Y0054459D01*
X0267324Y0057386D01*
X0267212Y0058094D01*
X0266991Y0058775D01*
X0266665Y0059414D01*
X0266244Y0059993D01*
X0265737Y0060500D01*
X0265158Y0060921D01*
X0264519Y0061247D01*
X0263837Y0061468D01*
X0263156Y0061576D01*
X0263156Y0054459D01*
X0262387Y0054459D01*
X0262387Y0061576D01*
X0261705Y0061468D01*
X0261024Y0061247D01*
X0260385Y0060921D01*
X0259170Y0059817D02*
X0256138Y0059817D01*
X0256824Y0058618D02*
X0258501Y0058618D01*
X0258224Y0057420D02*
X0257124Y0057420D01*
X0257124Y0056221D02*
X0258219Y0056221D01*
X0258219Y0055023D02*
X0257124Y0055023D01*
X0257124Y0053824D02*
X0262387Y0053824D01*
X0263156Y0053824D02*
X0268419Y0053824D01*
X0268419Y0052626D02*
X0267324Y0052626D01*
X0267324Y0051427D02*
X0268419Y0051427D01*
X0268430Y0050229D02*
X0267239Y0050229D01*
X0266815Y0049030D02*
X0268926Y0049030D01*
X0269906Y0047832D02*
X0265920Y0047832D01*
X0263533Y0046633D02*
X0275577Y0046633D01*
X0275577Y0045435D02*
X0237960Y0045435D01*
X0239158Y0046633D02*
X0262010Y0046633D01*
X0262387Y0046633D02*
X0263156Y0046633D01*
X0263156Y0047832D02*
X0262387Y0047832D01*
X0262387Y0049030D02*
X0263156Y0049030D01*
X0263156Y0050229D02*
X0262387Y0050229D01*
X0262387Y0051427D02*
X0263156Y0051427D01*
X0263156Y0052626D02*
X0262387Y0052626D01*
X0262387Y0055023D02*
X0263156Y0055023D01*
X0263156Y0056221D02*
X0262387Y0056221D01*
X0262387Y0057420D02*
X0263156Y0057420D01*
X0263156Y0058618D02*
X0262387Y0058618D01*
X0262387Y0059817D02*
X0263156Y0059817D01*
X0263156Y0061015D02*
X0262387Y0061015D01*
X0264973Y0061015D02*
X0271024Y0061015D01*
X0269405Y0059817D02*
X0266372Y0059817D01*
X0267042Y0058618D02*
X0268719Y0058618D01*
X0268419Y0057420D02*
X0267319Y0057420D01*
X0267324Y0056221D02*
X0268419Y0056221D01*
X0268419Y0055023D02*
X0267324Y0055023D01*
X0274518Y0061015D02*
X0275577Y0061015D01*
X0259623Y0047832D02*
X0255637Y0047832D01*
X0256616Y0049030D02*
X0258728Y0049030D01*
X0258303Y0050229D02*
X0257113Y0050229D01*
X0257124Y0051427D02*
X0258219Y0051427D01*
X0258219Y0052626D02*
X0257124Y0052626D01*
X0249906Y0047832D02*
X0240357Y0047832D01*
X0241555Y0049030D02*
X0248926Y0049030D01*
X0248430Y0050229D02*
X0242754Y0050229D01*
X0243952Y0051427D02*
X0248419Y0051427D01*
X0248419Y0052626D02*
X0245151Y0052626D01*
X0246349Y0053824D02*
X0248419Y0053824D01*
X0248419Y0055023D02*
X0247548Y0055023D01*
X0247771Y0058075D02*
X0247771Y0059075D01*
X0257771Y0069075D01*
X0257771Y0100075D01*
X0262387Y0101765D02*
X0263156Y0101765D01*
X0263156Y0102963D02*
X0262387Y0102963D01*
X0262387Y0104162D02*
X0263156Y0104162D01*
X0263156Y0105360D02*
X0262387Y0105360D01*
X0262387Y0106559D02*
X0263156Y0106559D01*
X0263156Y0107757D02*
X0268419Y0107757D01*
X0268419Y0106559D02*
X0267324Y0106559D01*
X0267324Y0105360D02*
X0268419Y0105360D01*
X0268458Y0104162D02*
X0267229Y0104162D01*
X0266781Y0102963D02*
X0268954Y0102963D01*
X0269973Y0101765D02*
X0265853Y0101765D01*
X0267324Y0108956D02*
X0268419Y0108956D01*
X0268419Y0110154D02*
X0267324Y0110154D01*
X0267324Y0111353D02*
X0268419Y0111353D01*
X0268691Y0112551D02*
X0267063Y0112551D01*
X0267558Y0113750D02*
X0269338Y0113750D01*
X0268756Y0114948D02*
X0270863Y0114948D01*
X0269955Y0116147D02*
X0275577Y0116147D01*
X0275577Y0117345D02*
X0271153Y0117345D01*
X0272352Y0118544D02*
X0275577Y0118544D01*
X0275577Y0119742D02*
X0273550Y0119742D01*
X0274749Y0120941D02*
X0275577Y0120941D01*
X0275577Y0114948D02*
X0274680Y0114948D01*
X0275570Y0101765D02*
X0275577Y0101765D01*
X0268419Y0080191D02*
X0267324Y0080191D01*
X0267324Y0078993D02*
X0268419Y0078993D01*
X0268419Y0077794D02*
X0267324Y0077794D01*
X0267063Y0076596D02*
X0268692Y0076596D01*
X0269340Y0075397D02*
X0266419Y0075397D01*
X0265100Y0074199D02*
X0270868Y0074199D01*
X0274674Y0074199D02*
X0275577Y0074199D01*
X0263156Y0074199D02*
X0262387Y0074199D01*
X0262387Y0075397D02*
X0263156Y0075397D01*
X0263156Y0076596D02*
X0262387Y0076596D01*
X0262387Y0077794D02*
X0263156Y0077794D01*
X0263156Y0078993D02*
X0262387Y0078993D01*
X0262387Y0080191D02*
X0263156Y0080191D01*
X0249324Y0068206D02*
X0216771Y0068206D01*
X0216771Y0067008D02*
X0248126Y0067008D01*
X0246927Y0065809D02*
X0216771Y0065809D01*
X0216771Y0064611D02*
X0245729Y0064611D01*
X0244530Y0063412D02*
X0216771Y0063412D01*
X0216771Y0062214D02*
X0243332Y0062214D01*
X0242133Y0061015D02*
X0239084Y0061015D01*
X0240071Y0059817D02*
X0240935Y0059817D01*
X0236459Y0061015D02*
X0233084Y0061015D01*
X0232724Y0061375D02*
X0230819Y0061375D01*
X0229471Y0060027D01*
X0229471Y0058122D01*
X0230819Y0056775D01*
X0232724Y0056775D01*
X0234071Y0058122D01*
X0234071Y0060027D01*
X0232724Y0061375D01*
X0234071Y0059817D02*
X0235471Y0059817D01*
X0235471Y0058618D02*
X0234071Y0058618D01*
X0233369Y0057420D02*
X0236174Y0057420D01*
X0237339Y0056221D02*
X0216771Y0056221D01*
X0216771Y0055023D02*
X0236141Y0055023D01*
X0234942Y0053824D02*
X0216771Y0053824D01*
X0216771Y0052626D02*
X0233744Y0052626D01*
X0232545Y0051427D02*
X0216771Y0051427D01*
X0216771Y0050229D02*
X0231347Y0050229D01*
X0230148Y0049030D02*
X0216771Y0049030D01*
X0216771Y0047832D02*
X0228950Y0047832D01*
X0227751Y0046633D02*
X0216771Y0046633D01*
X0216771Y0045435D02*
X0226553Y0045435D01*
X0225354Y0044236D02*
X0216771Y0044236D01*
X0216771Y0043038D02*
X0224156Y0043038D01*
X0222957Y0041839D02*
X0216771Y0041839D01*
X0217071Y0040641D02*
X0221759Y0040641D01*
X0220560Y0039442D02*
X0217071Y0039442D01*
X0216193Y0038244D02*
X0219362Y0038244D01*
X0214771Y0040075D02*
X0214771Y0084075D01*
X0212471Y0083787D02*
X0206155Y0083787D01*
X0206155Y0084985D02*
X0212471Y0084985D01*
X0213628Y0086184D02*
X0206155Y0086184D01*
X0206155Y0082588D02*
X0212771Y0082588D01*
X0212771Y0081390D02*
X0206155Y0081390D01*
X0206155Y0080191D02*
X0212771Y0080191D01*
X0212771Y0078993D02*
X0206155Y0078993D01*
X0206155Y0077794D02*
X0212771Y0077794D01*
X0212771Y0076596D02*
X0206155Y0076596D01*
X0206155Y0075397D02*
X0212771Y0075397D01*
X0216771Y0061015D02*
X0230459Y0061015D01*
X0229471Y0059817D02*
X0216771Y0059817D01*
X0216771Y0058618D02*
X0229471Y0058618D01*
X0230174Y0057420D02*
X0216771Y0057420D01*
X0234364Y0041839D02*
X0275577Y0041839D01*
X0275577Y0040641D02*
X0268604Y0040641D01*
X0270956Y0039442D02*
X0275577Y0039442D01*
X0275577Y0038244D02*
X0272901Y0038244D01*
X0274100Y0037045D02*
X0275577Y0037045D01*
X0275577Y0035847D02*
X0275298Y0035847D01*
X0275577Y0043038D02*
X0235563Y0043038D01*
X0236761Y0044236D02*
X0275577Y0044236D01*
X0259191Y0040641D02*
X0233166Y0040641D01*
X0233819Y0039375D02*
X0232471Y0038027D01*
X0232471Y0036122D01*
X0233819Y0034775D01*
X0235724Y0034775D01*
X0237071Y0036122D01*
X0237071Y0038027D01*
X0235724Y0039375D01*
X0233819Y0039375D01*
X0232687Y0038244D02*
X0230769Y0038244D01*
X0231967Y0039442D02*
X0256839Y0039442D01*
X0254893Y0038244D02*
X0236855Y0038244D01*
X0237071Y0037045D02*
X0253695Y0037045D01*
X0252496Y0035847D02*
X0236796Y0035847D01*
X0236819Y0034375D02*
X0235471Y0033027D01*
X0235471Y0031122D01*
X0235571Y0031022D01*
X0235571Y0028471D01*
X0234691Y0028471D01*
X0233871Y0027651D01*
X0233871Y0023499D01*
X0234154Y0023216D01*
X0233991Y0023053D01*
X0233780Y0022688D01*
X0233671Y0022282D01*
X0233671Y0020723D01*
X0237623Y0020723D01*
X0237623Y0020427D01*
X0233671Y0020427D01*
X0233671Y0018868D01*
X0233780Y0018461D01*
X0233991Y0018096D01*
X0234289Y0017798D01*
X0234654Y0017588D01*
X0235061Y0017479D01*
X0237623Y0017479D01*
X0237623Y0020427D01*
X0237919Y0020427D01*
X0237919Y0017479D01*
X0240482Y0017479D01*
X0240889Y0017588D01*
X0241254Y0017798D01*
X0241552Y0018096D01*
X0241762Y0018461D01*
X0241871Y0018868D01*
X0241871Y0020427D01*
X0237919Y0020427D01*
X0237919Y0020723D01*
X0241871Y0020723D01*
X0241871Y0022282D01*
X0241762Y0022688D01*
X0241552Y0023053D01*
X0241389Y0023216D01*
X0241671Y0023499D01*
X0241671Y0027651D01*
X0240851Y0028471D01*
X0239971Y0028471D01*
X0239971Y0031022D01*
X0240071Y0031122D01*
X0240071Y0033027D01*
X0238724Y0034375D01*
X0236819Y0034375D01*
X0235893Y0033449D02*
X0225974Y0033449D01*
X0224776Y0032251D02*
X0235471Y0032251D01*
X0235541Y0031052D02*
X0223577Y0031052D01*
X0222379Y0029854D02*
X0235571Y0029854D01*
X0235571Y0028655D02*
X0221180Y0028655D01*
X0219982Y0027457D02*
X0233871Y0027457D01*
X0233871Y0026258D02*
X0218783Y0026258D01*
X0217585Y0025060D02*
X0233871Y0025060D01*
X0233871Y0023861D02*
X0216386Y0023861D01*
X0215188Y0022663D02*
X0233774Y0022663D01*
X0233671Y0021464D02*
X0213989Y0021464D01*
X0212791Y0020266D02*
X0233671Y0020266D01*
X0233671Y0019067D02*
X0211671Y0019067D01*
X0211041Y0017869D02*
X0234219Y0017869D01*
X0237623Y0017869D02*
X0237919Y0017869D01*
X0237919Y0019067D02*
X0237623Y0019067D01*
X0237623Y0020266D02*
X0237919Y0020266D01*
X0241324Y0017869D02*
X0252490Y0017869D01*
X0251681Y0019067D02*
X0241871Y0019067D01*
X0241871Y0020266D02*
X0251070Y0020266D01*
X0250459Y0021464D02*
X0241871Y0021464D01*
X0241769Y0022663D02*
X0249961Y0022663D01*
X0249771Y0023861D02*
X0241671Y0023861D01*
X0241671Y0025060D02*
X0249582Y0025060D01*
X0249392Y0026258D02*
X0241671Y0026258D01*
X0241671Y0027457D02*
X0249393Y0027457D01*
X0249583Y0028655D02*
X0239971Y0028655D01*
X0239971Y0029854D02*
X0249772Y0029854D01*
X0249962Y0031052D02*
X0240002Y0031052D01*
X0240071Y0032251D02*
X0250463Y0032251D01*
X0251074Y0033449D02*
X0239649Y0033449D01*
X0232747Y0035847D02*
X0228371Y0035847D01*
X0227173Y0034648D02*
X0251684Y0034648D01*
X0232471Y0037045D02*
X0229570Y0037045D01*
X0210271Y0020575D02*
X0207771Y0020575D01*
X0210271Y0020575D02*
X0247771Y0058075D01*
X0203871Y0023861D02*
X0203694Y0023861D01*
X0203883Y0022663D02*
X0195971Y0022663D01*
X0195971Y0021464D02*
X0203871Y0021464D01*
X0203871Y0020266D02*
X0195971Y0020266D01*
X0195971Y0019067D02*
X0203871Y0019067D01*
X0204501Y0017869D02*
X0195971Y0017869D01*
X0195971Y0016670D02*
X0253688Y0016670D01*
X0254887Y0015472D02*
X0195971Y0015472D01*
X0195251Y0093375D02*
X0193715Y0093375D01*
X0183771Y0104075D02*
X0182771Y0103075D01*
X0183771Y0104075D02*
X0189960Y0104075D01*
X0189960Y0109075D02*
X0186771Y0109075D01*
X0185771Y0108075D01*
X0180271Y0108075D01*
X0166771Y0106575D02*
X0166771Y0111075D01*
X0164771Y0113075D01*
X0163456Y0113075D01*
X0161370Y0115161D01*
X0161283Y0115075D01*
X0161370Y0115161D02*
X0161370Y0123075D01*
X0178771Y0119075D02*
X0189960Y0119075D01*
X0189960Y0124075D02*
X0201771Y0124075D01*
X0198033Y0137720D02*
X0243305Y0137720D01*
X0205816Y0138918D02*
X0198033Y0138918D01*
X0198033Y0140117D02*
X0205571Y0140117D01*
X0189960Y0151075D02*
X0189086Y0150201D01*
X0189086Y0150075D01*
X0186771Y0155075D02*
X0187771Y0156075D01*
X0189960Y0156075D01*
X0186771Y0155075D02*
X0180271Y0155075D01*
X0178771Y0166075D02*
X0189960Y0166075D01*
X0200377Y0168881D02*
X0200712Y0168881D01*
X0203622Y0172477D02*
X0205571Y0172477D01*
X0205571Y0173675D02*
X0200387Y0173675D01*
X0193883Y0184462D02*
X0243273Y0184462D01*
X0193883Y0185660D02*
X0192683Y0185660D01*
X0192683Y0186859D02*
X0193883Y0186859D01*
X0193883Y0188057D02*
X0192683Y0188057D01*
X0161370Y0170075D02*
X0161370Y0162161D01*
X0161283Y0162075D01*
X0163283Y0160075D01*
X0164771Y0160075D01*
X0166771Y0158075D01*
X0166771Y0153575D01*
X0161283Y0153075D02*
X0161283Y0150563D01*
X0161771Y0150075D01*
X0161283Y0153075D02*
X0161283Y0145161D01*
X0161370Y0145075D01*
X0167271Y0145075D01*
X0161283Y0106075D02*
X0155771Y0106075D01*
X0161283Y0106075D02*
X0161283Y0098161D01*
X0161370Y0098075D01*
X0163771Y0103075D02*
X0163771Y0103587D01*
X0161283Y0106075D01*
X0086050Y0076596D02*
X0080518Y0076596D01*
X0080468Y0075397D02*
X0084851Y0075397D01*
X0085072Y0075618D02*
X0085072Y0075618D01*
X0026771Y0165075D02*
X0026771Y0171075D01*
X0023871Y0184462D02*
X0037330Y0184462D01*
X0027156Y0185660D02*
X0026387Y0185660D01*
X0026387Y0186859D02*
X0027156Y0186859D01*
X0027156Y0188057D02*
X0026387Y0188057D01*
X0026387Y0189256D02*
X0027156Y0189256D01*
X0027156Y0190454D02*
X0026387Y0190454D01*
X0026387Y0191653D02*
X0027156Y0191653D01*
X0027156Y0192852D02*
X0026387Y0192852D01*
X0026387Y0194050D02*
X0027156Y0194050D01*
X0027156Y0195249D02*
X0026387Y0195249D01*
X0026387Y0196447D02*
X0027156Y0196447D01*
X0027156Y0197646D02*
X0026387Y0197646D01*
X0026387Y0198844D02*
X0027156Y0198844D01*
X0024279Y0198844D02*
X0023871Y0198844D01*
X0023871Y0200043D02*
X0052822Y0200043D01*
X0052822Y0198844D02*
X0048932Y0198844D01*
X0050309Y0197646D02*
X0052822Y0197646D01*
X0052822Y0196447D02*
X0050895Y0196447D01*
X0051124Y0195249D02*
X0052822Y0195249D01*
X0052822Y0194050D02*
X0051124Y0194050D01*
X0051124Y0192852D02*
X0052914Y0192852D01*
X0051124Y0191653D02*
X0060521Y0191653D01*
X0052928Y0201241D02*
X0023871Y0201241D01*
X0023871Y0202440D02*
X0052220Y0202440D01*
X0052190Y0203638D02*
X0023871Y0203638D01*
X0023871Y0204837D02*
X0052856Y0204837D01*
X0049668Y0222814D02*
X0058779Y0222814D01*
X0057581Y0224013D02*
X0049479Y0224013D01*
X0048961Y0225211D02*
X0057471Y0225211D01*
X0057854Y0226410D02*
X0048351Y0226410D01*
X0047740Y0227608D02*
X0057471Y0227608D01*
X0057471Y0228807D02*
X0046905Y0228807D01*
X0045707Y0230005D02*
X0057588Y0230005D01*
X0057471Y0231204D02*
X0044508Y0231204D01*
X0042517Y0232402D02*
X0057846Y0232402D01*
X0057471Y0233601D02*
X0040165Y0233601D01*
X0035678Y0235998D02*
X0058442Y0235998D01*
X0057471Y0234799D02*
X0032116Y0234799D01*
X0030937Y0233601D02*
X0030040Y0233601D01*
X0024096Y0210829D02*
X0023871Y0210829D01*
X0023871Y0209631D02*
X0025295Y0209631D01*
X0026493Y0208432D02*
X0023871Y0208432D01*
X0023871Y0207234D02*
X0028387Y0207234D01*
X0030739Y0206035D02*
X0023871Y0206035D01*
X0060764Y0222814D02*
X0097779Y0222814D01*
X0097819Y0222775D02*
X0099724Y0222775D01*
X0101071Y0224122D01*
X0101071Y0226027D01*
X0099724Y0227375D01*
X0097819Y0227375D01*
X0096471Y0226027D01*
X0096471Y0224122D01*
X0097819Y0222775D01*
X0096581Y0224013D02*
X0061962Y0224013D01*
X0062071Y0225211D02*
X0096471Y0225211D01*
X0096854Y0226410D02*
X0061689Y0226410D01*
X0099764Y0222814D02*
X0108779Y0222814D01*
X0107581Y0224013D02*
X0100962Y0224013D01*
X0101071Y0225211D02*
X0107471Y0225211D01*
X0107854Y0226410D02*
X0100689Y0226410D01*
X0259386Y0233653D02*
X0259386Y0233653D01*
D34*
X0247771Y0219075D03*
X0218771Y0231075D03*
X0201771Y0218075D03*
X0198771Y0231075D03*
X0178771Y0223075D03*
X0174771Y0218075D03*
X0178771Y0213075D03*
X0166771Y0223075D03*
X0163771Y0223075D03*
X0160771Y0223075D03*
X0157771Y0223075D03*
X0154771Y0223075D03*
X0144771Y0223075D03*
X0118771Y0229075D03*
X0109771Y0225075D03*
X0098771Y0225075D03*
X0095771Y0217075D03*
X0097771Y0203075D03*
X0078771Y0197075D03*
X0078771Y0183075D03*
X0090771Y0172075D03*
X0094771Y0172075D03*
X0101771Y0171825D03*
X0106771Y0161075D03*
X0106771Y0157075D03*
X0110771Y0153075D03*
X0115771Y0153075D03*
X0117771Y0156075D03*
X0124771Y0156075D03*
X0134771Y0157075D03*
X0134771Y0160075D03*
X0136771Y0167075D03*
X0142771Y0173075D03*
X0154771Y0176075D03*
X0157771Y0176075D03*
X0160771Y0176075D03*
X0163771Y0176075D03*
X0166771Y0176075D03*
X0167771Y0185075D03*
X0178771Y0176075D03*
X0178771Y0166075D03*
X0201771Y0171075D03*
X0204771Y0157075D03*
X0200771Y0154075D03*
X0178771Y0129075D03*
X0178771Y0119075D03*
X0166771Y0129075D03*
X0163771Y0129075D03*
X0160771Y0129075D03*
X0157771Y0129075D03*
X0154771Y0129075D03*
X0145521Y0135575D03*
X0151771Y0139075D03*
X0156771Y0138075D03*
X0167271Y0145075D03*
X0155521Y0150575D03*
X0144771Y0157075D03*
X0134771Y0150075D03*
X0135771Y0147075D03*
X0123771Y0144075D03*
X0119771Y0144075D03*
X0122771Y0131075D03*
X0121771Y0126825D03*
X0126771Y0123075D03*
X0131771Y0125575D03*
X0140771Y0123075D03*
X0135521Y0134325D03*
X0116771Y0116075D03*
X0112771Y0116075D03*
X0103771Y0116075D03*
X0099771Y0107075D03*
X0115771Y0107075D03*
X0133771Y0112075D03*
X0155771Y0106075D03*
X0155771Y0101075D03*
X0155771Y0095075D03*
X0189771Y0076075D03*
X0206771Y0072075D03*
X0214771Y0084075D03*
X0231771Y0059075D03*
X0237771Y0059075D03*
X0225771Y0058075D03*
X0242771Y0072075D03*
X0257771Y0100075D03*
X0201771Y0124075D03*
X0152771Y0182075D03*
X0144771Y0186575D03*
X0138771Y0192075D03*
X0121771Y0179075D03*
X0119771Y0172075D03*
X0123771Y0172075D03*
X0110771Y0180075D03*
X0075771Y0150075D03*
X0078771Y0141075D03*
X0089771Y0144075D03*
X0093771Y0144075D03*
X0098372Y0140925D03*
X0101271Y0143825D03*
X0105021Y0135325D03*
X0100771Y0134575D03*
X0106771Y0131075D03*
X0106771Y0127075D03*
X0094771Y0128575D03*
X0078771Y0128075D03*
X0078771Y0132075D03*
X0068771Y0120075D03*
X0068771Y0117075D03*
X0060771Y0130075D03*
X0062771Y0155075D03*
X0065771Y0166075D03*
X0069771Y0166075D03*
X0054771Y0203075D03*
X0075771Y0223075D03*
X0059771Y0225075D03*
X0059771Y0228075D03*
X0059771Y0231075D03*
X0059771Y0234075D03*
X0032771Y0084075D03*
X0045771Y0070075D03*
X0054271Y0074575D03*
X0051771Y0058075D03*
X0034771Y0066075D03*
X0024771Y0039075D03*
X0068771Y0020075D03*
X0074771Y0034075D03*
X0077771Y0034075D03*
X0080521Y0046825D03*
X0078771Y0053075D03*
X0106771Y0040075D03*
X0109771Y0040075D03*
X0150771Y0042075D03*
X0154771Y0047075D03*
X0154771Y0050075D03*
X0157771Y0050075D03*
X0157771Y0047075D03*
X0160771Y0047075D03*
X0160771Y0050075D03*
X0163771Y0050075D03*
X0163771Y0047075D03*
X0176771Y0058075D03*
X0190771Y0046075D03*
X0207771Y0030075D03*
X0212771Y0028825D03*
X0214771Y0040075D03*
X0234771Y0037075D03*
X0237771Y0032075D03*
X0247771Y0023075D03*
X0237771Y0016075D03*
X0157771Y0034075D03*
D35*
X0163771Y0103075D02*
X0182771Y0103075D01*
X0180271Y0108075D02*
X0177271Y0105075D01*
X0168271Y0105075D01*
X0166771Y0106575D01*
X0161771Y0150075D02*
X0189086Y0150075D01*
X0180271Y0155075D02*
X0177271Y0152075D01*
X0168271Y0152075D01*
X0166771Y0153575D01*
X0161771Y0197075D02*
X0189086Y0197075D01*
X0180271Y0202075D02*
X0177271Y0199075D01*
X0168271Y0199075D01*
X0166771Y0200575D01*
D36*
X0172771Y0203587D02*
X0172771Y0208075D01*
X0189960Y0208075D01*
X0225984Y0208075D01*
X0193283Y0231075D02*
X0189960Y0227752D01*
X0189960Y0223075D01*
X0178771Y0223075D01*
X0173283Y0223075D01*
X0172771Y0223587D01*
X0172260Y0223075D01*
X0166771Y0223075D01*
X0163771Y0223075D01*
X0160771Y0223075D01*
X0157771Y0223075D01*
X0154771Y0223075D01*
X0152771Y0223075D01*
X0150173Y0220476D01*
X0150173Y0217075D01*
X0150173Y0209161D01*
X0150260Y0209075D01*
X0150260Y0200075D01*
X0150260Y0192161D01*
X0150173Y0192075D01*
X0152771Y0176075D02*
X0150173Y0173476D01*
X0150173Y0170075D01*
X0150173Y0162161D01*
X0150260Y0162075D01*
X0150260Y0153075D01*
X0150260Y0145161D01*
X0150173Y0145075D01*
X0152771Y0129075D02*
X0154771Y0129075D01*
X0157771Y0129075D01*
X0160771Y0129075D01*
X0163771Y0129075D01*
X0166771Y0129075D01*
X0172260Y0129075D01*
X0172771Y0129587D01*
X0173283Y0129075D01*
X0178771Y0129075D01*
X0189960Y0129075D01*
X0189960Y0133752D01*
X0193283Y0137075D01*
X0172771Y0118563D02*
X0172771Y0114075D01*
X0189960Y0114075D01*
X0225984Y0114075D01*
X0172771Y0114075D02*
X0172771Y0109587D01*
X0150260Y0106075D02*
X0150260Y0115075D01*
X0150173Y0115161D01*
X0150173Y0123075D01*
X0150173Y0126476D01*
X0152771Y0129075D01*
X0150260Y0106075D02*
X0150173Y0105988D01*
X0150173Y0098075D01*
X0114748Y0084280D02*
X0114748Y0083098D01*
X0114771Y0083075D01*
X0107771Y0083075D01*
X0100771Y0076075D01*
X0089771Y0076075D01*
X0086771Y0073075D01*
X0086771Y0069382D01*
X0086771Y0061673D01*
X0075771Y0065201D02*
X0075771Y0056075D01*
X0078771Y0053075D01*
X0081370Y0050476D01*
X0086771Y0050476D01*
X0086771Y0041563D01*
X0088260Y0040075D01*
X0088260Y0033587D01*
X0090882Y0030965D01*
X0090882Y0023075D01*
X0075771Y0080949D02*
X0077590Y0082768D01*
X0168283Y0040075D02*
X0177173Y0040075D01*
X0175771Y0038673D01*
X0175771Y0025075D01*
X0189171Y0025075D02*
X0189171Y0039273D01*
X0188370Y0040075D01*
X0172771Y0156587D02*
X0172771Y0161075D01*
X0189960Y0161075D01*
X0225984Y0161075D01*
X0193283Y0184075D02*
X0189960Y0180752D01*
X0189960Y0176075D01*
X0178771Y0176075D01*
X0173283Y0176075D01*
X0172771Y0176587D01*
X0172260Y0176075D01*
X0166771Y0176075D01*
X0163771Y0176075D01*
X0160771Y0176075D01*
X0157771Y0176075D01*
X0154771Y0176075D01*
X0152771Y0176075D01*
X0172771Y0165563D02*
X0172771Y0161075D01*
X0172771Y0208075D02*
X0172771Y0212563D01*
D37*
X0099771Y0196673D02*
X0090771Y0196673D01*
X0090370Y0197075D01*
X0078771Y0197075D01*
X0066771Y0196673D02*
X0057771Y0196673D01*
X0056771Y0197673D01*
X0056771Y0201075D01*
X0054771Y0203075D01*
X0188771Y0081563D02*
X0188771Y0077075D01*
X0189771Y0076075D01*
X0155260Y0042075D02*
X0150771Y0042075D01*
X0155260Y0042075D02*
X0157260Y0040075D01*
X0207771Y0030075D02*
X0207771Y0025575D01*
D38*
X0193771Y0023987D02*
X0193771Y0015375D01*
X0094618Y0015375D01*
X0095459Y0016216D01*
X0096282Y0018201D01*
X0096282Y0027949D01*
X0095459Y0029934D01*
X0094082Y0031312D01*
X0094082Y0031601D01*
X0093594Y0032777D01*
X0091771Y0034600D01*
X0091771Y0034931D01*
X0092072Y0034931D01*
X0093009Y0035869D01*
X0093009Y0044281D01*
X0092072Y0045218D01*
X0091771Y0045218D01*
X0091771Y0046515D01*
X0091921Y0046664D01*
X0091921Y0054289D01*
X0091771Y0054438D01*
X0091771Y0057712D01*
X0091921Y0057861D01*
X0091921Y0065486D01*
X0091771Y0065635D01*
X0091771Y0065820D01*
X0091915Y0065963D01*
X0091915Y0072801D01*
X0091840Y0072875D01*
X0101408Y0072875D01*
X0102584Y0073362D01*
X0103484Y0074262D01*
X0105897Y0076675D01*
X0139976Y0076675D01*
X0140459Y0076475D01*
X0143084Y0076475D01*
X0143567Y0076675D01*
X0185971Y0076675D01*
X0185971Y0076518D01*
X0186398Y0075489D01*
X0188185Y0073701D01*
X0189214Y0073275D01*
X0190328Y0073275D01*
X0191357Y0073701D01*
X0191519Y0073862D01*
X0191519Y0048471D01*
X0191269Y0048575D01*
X0190274Y0048575D01*
X0189355Y0048194D01*
X0188652Y0047491D01*
X0188271Y0046572D01*
X0188271Y0045578D01*
X0188418Y0045224D01*
X0184557Y0045224D01*
X0183620Y0044287D01*
X0183620Y0035863D01*
X0184355Y0035128D01*
X0183377Y0035533D01*
X0181593Y0035533D01*
X0181923Y0035863D01*
X0181923Y0044287D01*
X0180985Y0045224D01*
X0173361Y0045224D01*
X0172725Y0044589D01*
X0172096Y0045218D01*
X0165450Y0045218D01*
X0165891Y0045659D01*
X0166271Y0046578D01*
X0166271Y0047572D01*
X0165891Y0048491D01*
X0165807Y0048575D01*
X0165891Y0048659D01*
X0166271Y0049578D01*
X0166271Y0050572D01*
X0165891Y0051491D01*
X0165187Y0052194D01*
X0164269Y0052575D01*
X0163274Y0052575D01*
X0162355Y0052194D01*
X0162271Y0052110D01*
X0162187Y0052194D01*
X0161269Y0052575D01*
X0160274Y0052575D01*
X0159355Y0052194D01*
X0159271Y0052110D01*
X0159187Y0052194D01*
X0158269Y0052575D01*
X0157274Y0052575D01*
X0156355Y0052194D01*
X0156271Y0052110D01*
X0156187Y0052194D01*
X0155269Y0052575D01*
X0154274Y0052575D01*
X0153355Y0052194D01*
X0152652Y0051491D01*
X0152271Y0050572D01*
X0152271Y0049578D01*
X0152652Y0048659D01*
X0152736Y0048575D01*
X0152652Y0048491D01*
X0152271Y0047572D01*
X0152271Y0046578D01*
X0152652Y0045659D01*
X0153270Y0045041D01*
X0153104Y0044875D01*
X0150214Y0044875D01*
X0149185Y0044449D01*
X0148398Y0043661D01*
X0147971Y0042632D01*
X0147971Y0041518D01*
X0148398Y0040489D01*
X0149185Y0039701D01*
X0150214Y0039275D01*
X0152510Y0039275D01*
X0152510Y0035869D01*
X0153447Y0034931D01*
X0155420Y0034931D01*
X0155271Y0034572D01*
X0155271Y0033578D01*
X0155652Y0032659D01*
X0156355Y0031955D01*
X0157274Y0031575D01*
X0157819Y0031575D01*
X0157819Y0024169D01*
X0158512Y0022496D01*
X0159792Y0021215D01*
X0161466Y0020522D01*
X0163277Y0020522D01*
X0164950Y0021215D01*
X0166231Y0022496D01*
X0166924Y0024169D01*
X0166924Y0031886D01*
X0166231Y0033559D01*
X0164950Y0034840D01*
X0164729Y0034931D01*
X0172096Y0034931D01*
X0172571Y0035407D01*
X0172571Y0034219D01*
X0171912Y0033559D01*
X0171219Y0031886D01*
X0171219Y0024169D01*
X0171912Y0022496D01*
X0173192Y0021215D01*
X0174866Y0020522D01*
X0176677Y0020522D01*
X0178350Y0021215D01*
X0179121Y0021986D01*
X0179892Y0021215D01*
X0181566Y0020522D01*
X0183377Y0020522D01*
X0185050Y0021215D01*
X0185821Y0021986D01*
X0186592Y0021215D01*
X0188266Y0020522D01*
X0190077Y0020522D01*
X0191750Y0021215D01*
X0193031Y0022496D01*
X0193684Y0024074D01*
X0193771Y0023987D01*
X0193771Y0022666D02*
X0193101Y0022666D01*
X0193771Y0021067D02*
X0191393Y0021067D01*
X0193771Y0019469D02*
X0117651Y0019469D01*
X0118371Y0019767D02*
X0120292Y0021688D01*
X0121331Y0024197D01*
X0121331Y0026913D01*
X0120292Y0029423D01*
X0118371Y0031343D01*
X0115862Y0032383D01*
X0113146Y0032383D01*
X0110636Y0031343D01*
X0108716Y0029423D01*
X0107676Y0026913D01*
X0107676Y0024197D01*
X0108716Y0021688D01*
X0110636Y0019767D01*
X0113146Y0018728D01*
X0115862Y0018728D01*
X0118371Y0019767D01*
X0119672Y0021067D02*
X0160149Y0021067D01*
X0158441Y0022666D02*
X0120697Y0022666D01*
X0121331Y0024264D02*
X0157819Y0024264D01*
X0157819Y0025863D02*
X0140277Y0025863D01*
X0141521Y0027107D02*
X0138739Y0024325D01*
X0134804Y0024325D01*
X0132021Y0027107D01*
X0132021Y0031042D01*
X0134804Y0033825D01*
X0138739Y0033825D01*
X0141521Y0031042D01*
X0141521Y0027107D01*
X0141521Y0027461D02*
X0157819Y0027461D01*
X0157819Y0029060D02*
X0141521Y0029060D01*
X0141521Y0030658D02*
X0157819Y0030658D01*
X0156054Y0032257D02*
X0140307Y0032257D01*
X0133236Y0032257D02*
X0116165Y0032257D01*
X0119056Y0030658D02*
X0132021Y0030658D01*
X0132021Y0029060D02*
X0120442Y0029060D01*
X0121104Y0027461D02*
X0132021Y0027461D01*
X0133266Y0025863D02*
X0121331Y0025863D01*
X0112842Y0032257D02*
X0093810Y0032257D01*
X0094735Y0030658D02*
X0109951Y0030658D01*
X0108565Y0029060D02*
X0095821Y0029060D01*
X0096282Y0027461D02*
X0107903Y0027461D01*
X0107676Y0025863D02*
X0096282Y0025863D01*
X0096282Y0024264D02*
X0107676Y0024264D01*
X0108310Y0022666D02*
X0096282Y0022666D01*
X0096282Y0021067D02*
X0109336Y0021067D01*
X0111356Y0019469D02*
X0096282Y0019469D01*
X0096145Y0017870D02*
X0193771Y0017870D01*
X0193771Y0016272D02*
X0095483Y0016272D01*
X0092516Y0033855D02*
X0155271Y0033855D01*
X0152925Y0035454D02*
X0092594Y0035454D01*
X0093009Y0037052D02*
X0152510Y0037052D01*
X0152510Y0038651D02*
X0111883Y0038651D01*
X0111891Y0038659D02*
X0112271Y0039578D01*
X0112271Y0040572D01*
X0111891Y0041491D01*
X0111187Y0042194D01*
X0110269Y0042575D01*
X0109274Y0042575D01*
X0108355Y0042194D01*
X0108271Y0042110D01*
X0108187Y0042194D01*
X0107269Y0042575D01*
X0106274Y0042575D01*
X0105355Y0042194D01*
X0104652Y0041491D01*
X0104271Y0040572D01*
X0104271Y0039578D01*
X0104652Y0038659D01*
X0105355Y0037955D01*
X0106274Y0037575D01*
X0107269Y0037575D01*
X0108187Y0037955D01*
X0108271Y0038039D01*
X0108355Y0037955D01*
X0109274Y0037575D01*
X0110269Y0037575D01*
X0111187Y0037955D01*
X0111891Y0038659D01*
X0112271Y0040249D02*
X0148637Y0040249D01*
X0147971Y0041848D02*
X0111534Y0041848D01*
X0105009Y0041848D02*
X0093009Y0041848D01*
X0093009Y0040249D02*
X0104271Y0040249D01*
X0104660Y0038651D02*
X0093009Y0038651D01*
X0093009Y0043447D02*
X0148309Y0043447D01*
X0152271Y0046644D02*
X0091900Y0046644D01*
X0091921Y0048242D02*
X0152549Y0048242D01*
X0152271Y0049841D02*
X0091921Y0049841D01*
X0091921Y0051439D02*
X0152630Y0051439D01*
X0153266Y0045045D02*
X0092245Y0045045D01*
X0091921Y0053038D02*
X0191519Y0053038D01*
X0191519Y0054636D02*
X0091771Y0054636D01*
X0091771Y0056235D02*
X0175076Y0056235D01*
X0175355Y0055955D02*
X0176274Y0055575D01*
X0177269Y0055575D01*
X0178187Y0055955D01*
X0178891Y0056659D01*
X0179271Y0057578D01*
X0179271Y0058572D01*
X0178891Y0059491D01*
X0178187Y0060194D01*
X0177269Y0060575D01*
X0176274Y0060575D01*
X0175355Y0060194D01*
X0174652Y0059491D01*
X0174271Y0058572D01*
X0174271Y0057578D01*
X0174652Y0056659D01*
X0175355Y0055955D01*
X0174271Y0057833D02*
X0145863Y0057833D01*
X0144505Y0056475D02*
X0148371Y0060341D01*
X0148371Y0065809D01*
X0144505Y0069675D01*
X0139038Y0069675D01*
X0135171Y0065809D01*
X0135171Y0060341D01*
X0139038Y0056475D01*
X0144505Y0056475D01*
X0147462Y0059432D02*
X0167697Y0059432D01*
X0168081Y0059048D02*
X0169827Y0058325D01*
X0171716Y0058325D01*
X0173462Y0059048D01*
X0174798Y0060384D01*
X0175521Y0062130D01*
X0175521Y0064020D01*
X0174798Y0065765D01*
X0173462Y0067102D01*
X0171716Y0067825D01*
X0169827Y0067825D01*
X0168081Y0067102D01*
X0166745Y0065765D01*
X0166021Y0064020D01*
X0166021Y0062130D01*
X0166745Y0060384D01*
X0168081Y0059048D01*
X0166477Y0061030D02*
X0148371Y0061030D01*
X0148371Y0062629D02*
X0166021Y0062629D01*
X0166107Y0064227D02*
X0148371Y0064227D01*
X0148354Y0065826D02*
X0166805Y0065826D01*
X0168859Y0067424D02*
X0146756Y0067424D01*
X0145157Y0069023D02*
X0191519Y0069023D01*
X0191519Y0070621D02*
X0091915Y0070621D01*
X0091915Y0069023D02*
X0138385Y0069023D01*
X0136787Y0067424D02*
X0091915Y0067424D01*
X0091777Y0065826D02*
X0135188Y0065826D01*
X0135171Y0064227D02*
X0091921Y0064227D01*
X0091921Y0062629D02*
X0135171Y0062629D01*
X0135171Y0061030D02*
X0091921Y0061030D01*
X0091921Y0059432D02*
X0136081Y0059432D01*
X0137679Y0057833D02*
X0091893Y0057833D01*
X0091915Y0072220D02*
X0191519Y0072220D01*
X0191475Y0073818D02*
X0191519Y0073818D01*
X0188068Y0073818D02*
X0103040Y0073818D01*
X0104639Y0075417D02*
X0186470Y0075417D01*
X0183628Y0079075D02*
X0118499Y0079075D01*
X0118710Y0079286D01*
X0118710Y0089273D01*
X0117773Y0090210D01*
X0111723Y0090210D01*
X0110786Y0089273D01*
X0110786Y0086275D01*
X0107135Y0086275D01*
X0105959Y0085788D01*
X0099446Y0079275D01*
X0089135Y0079275D01*
X0088652Y0079075D01*
X0071771Y0079075D01*
X0071771Y0086075D01*
X0095321Y0109625D01*
X0104933Y0109625D01*
X0106221Y0110914D01*
X0110451Y0115143D01*
X0110652Y0114659D01*
X0111355Y0113955D01*
X0112274Y0113575D01*
X0113269Y0113575D01*
X0114187Y0113955D01*
X0114771Y0114539D01*
X0115355Y0113955D01*
X0116274Y0113575D01*
X0117269Y0113575D01*
X0118187Y0113955D01*
X0118891Y0114659D01*
X0119271Y0115578D01*
X0119271Y0116572D01*
X0118891Y0117491D01*
X0118187Y0118194D01*
X0117269Y0118575D01*
X0116274Y0118575D01*
X0115355Y0118194D01*
X0114771Y0117610D01*
X0114187Y0118194D01*
X0113703Y0118395D01*
X0118683Y0123375D01*
X0119971Y0124664D01*
X0119971Y0125089D01*
X0120355Y0124705D01*
X0121274Y0124325D01*
X0122269Y0124325D01*
X0123187Y0124705D01*
X0123891Y0125409D01*
X0124271Y0126328D01*
X0124271Y0127322D01*
X0123891Y0128241D01*
X0123472Y0128659D01*
X0124187Y0128955D01*
X0124891Y0129659D01*
X0125271Y0130578D01*
X0125271Y0131572D01*
X0124891Y0132491D01*
X0124187Y0133194D01*
X0123269Y0133575D01*
X0122274Y0133575D01*
X0121355Y0133194D01*
X0120652Y0132491D01*
X0120271Y0131572D01*
X0120271Y0130578D01*
X0120652Y0129659D01*
X0121070Y0129240D01*
X0120355Y0128944D01*
X0119971Y0128560D01*
X0119971Y0133813D01*
X0125977Y0133813D01*
X0126915Y0134751D01*
X0126915Y0142375D01*
X0126108Y0143182D01*
X0126271Y0143578D01*
X0126271Y0144572D01*
X0126108Y0144967D01*
X0126915Y0145774D01*
X0126915Y0153399D01*
X0126273Y0154041D01*
X0126891Y0154659D01*
X0127271Y0155578D01*
X0127271Y0156572D01*
X0126891Y0157491D01*
X0126187Y0158194D01*
X0125269Y0158575D01*
X0124274Y0158575D01*
X0123355Y0158194D01*
X0122652Y0157491D01*
X0122271Y0156572D01*
X0122271Y0155578D01*
X0122652Y0154659D01*
X0122974Y0154336D01*
X0119568Y0154336D01*
X0119891Y0154659D01*
X0120271Y0155578D01*
X0120271Y0156572D01*
X0119891Y0157491D01*
X0119187Y0158194D01*
X0118269Y0158575D01*
X0117274Y0158575D01*
X0117033Y0158475D01*
X0117033Y0163281D01*
X0116096Y0164218D01*
X0111771Y0164218D01*
X0111771Y0177783D01*
X0112187Y0177955D01*
X0112891Y0178659D01*
X0113271Y0179578D01*
X0113271Y0180572D01*
X0112891Y0181491D01*
X0112187Y0182194D01*
X0111771Y0182367D01*
X0111771Y0205075D01*
X0142771Y0236075D01*
X0189328Y0236075D01*
X0188534Y0235281D01*
X0188534Y0230851D01*
X0188148Y0230465D01*
X0188148Y0230465D01*
X0187248Y0229565D01*
X0186760Y0228388D01*
X0186760Y0226275D01*
X0177915Y0226275D01*
X0177915Y0227399D01*
X0176977Y0228336D01*
X0168565Y0228336D01*
X0167628Y0227399D01*
X0167628Y0226275D01*
X0152135Y0226275D01*
X0150959Y0225788D01*
X0147460Y0222289D01*
X0147433Y0222224D01*
X0147125Y0222224D01*
X0147271Y0222578D01*
X0147271Y0223572D01*
X0146891Y0224491D01*
X0146187Y0225194D01*
X0145269Y0225575D01*
X0144274Y0225575D01*
X0143355Y0225194D01*
X0142652Y0224491D01*
X0142271Y0223572D01*
X0142271Y0222578D01*
X0142652Y0221659D01*
X0143355Y0220955D01*
X0144274Y0220575D01*
X0145269Y0220575D01*
X0145423Y0220639D01*
X0145423Y0212863D01*
X0145510Y0212776D01*
X0145510Y0204869D01*
X0145804Y0204575D01*
X0145510Y0204281D01*
X0145510Y0196373D01*
X0145423Y0196287D01*
X0145423Y0189275D01*
X0144360Y0189275D01*
X0144079Y0188994D01*
X0143355Y0188694D01*
X0142652Y0187991D01*
X0142271Y0187072D01*
X0142271Y0186078D01*
X0142652Y0185159D01*
X0143355Y0184455D01*
X0144274Y0184075D01*
X0145269Y0184075D01*
X0146187Y0184455D01*
X0146607Y0184875D01*
X0155683Y0184875D01*
X0157733Y0186926D01*
X0165182Y0186926D01*
X0166119Y0187863D01*
X0166119Y0194975D01*
X0180168Y0194975D01*
X0180242Y0194900D01*
X0188150Y0194900D01*
X0188175Y0194875D01*
X0189771Y0194875D01*
X0189771Y0189218D01*
X0189471Y0189218D01*
X0188534Y0188281D01*
X0188534Y0183851D01*
X0188148Y0183465D01*
X0188148Y0183465D01*
X0187248Y0182565D01*
X0186760Y0181388D01*
X0186760Y0179275D01*
X0177915Y0179275D01*
X0177915Y0180399D01*
X0176977Y0181336D01*
X0168565Y0181336D01*
X0167628Y0180399D01*
X0167628Y0179275D01*
X0152135Y0179275D01*
X0150959Y0178788D01*
X0147460Y0175289D01*
X0147433Y0175224D01*
X0146361Y0175224D01*
X0145423Y0174287D01*
X0145423Y0165863D01*
X0145510Y0165776D01*
X0145510Y0159475D01*
X0145269Y0159575D01*
X0144274Y0159575D01*
X0143355Y0159194D01*
X0142652Y0158491D01*
X0142271Y0157572D01*
X0142271Y0156578D01*
X0142652Y0155659D01*
X0143355Y0154955D01*
X0144274Y0154575D01*
X0145269Y0154575D01*
X0145510Y0154675D01*
X0145510Y0149373D01*
X0145423Y0149287D01*
X0145423Y0140863D01*
X0146361Y0139926D01*
X0149418Y0139926D01*
X0149271Y0139572D01*
X0149271Y0138578D01*
X0149652Y0137659D01*
X0150355Y0136955D01*
X0151274Y0136575D01*
X0152269Y0136575D01*
X0153187Y0136955D01*
X0153891Y0137659D01*
X0154271Y0138578D01*
X0154271Y0139572D01*
X0154084Y0140024D01*
X0154923Y0140863D01*
X0154923Y0148117D01*
X0155024Y0148075D01*
X0156019Y0148075D01*
X0156620Y0148324D01*
X0156620Y0140863D01*
X0156908Y0140575D01*
X0156274Y0140575D01*
X0155355Y0140194D01*
X0154652Y0139491D01*
X0154271Y0138572D01*
X0154271Y0137578D01*
X0154652Y0136659D01*
X0155355Y0135955D01*
X0156274Y0135575D01*
X0157269Y0135575D01*
X0158187Y0135955D01*
X0158891Y0136659D01*
X0159271Y0137578D01*
X0159271Y0138572D01*
X0158891Y0139491D01*
X0158456Y0139926D01*
X0165182Y0139926D01*
X0166119Y0140863D01*
X0166119Y0142846D01*
X0166774Y0142575D01*
X0167769Y0142575D01*
X0168687Y0142955D01*
X0169391Y0143659D01*
X0169771Y0144578D01*
X0169771Y0145572D01*
X0169391Y0146491D01*
X0168687Y0147194D01*
X0167769Y0147575D01*
X0166774Y0147575D01*
X0166119Y0147304D01*
X0166119Y0147975D01*
X0180168Y0147975D01*
X0180242Y0147900D01*
X0188150Y0147900D01*
X0188175Y0147875D01*
X0189771Y0147875D01*
X0189771Y0142218D01*
X0189471Y0142218D01*
X0188534Y0141281D01*
X0188534Y0136851D01*
X0188148Y0136465D01*
X0188148Y0136465D01*
X0187248Y0135565D01*
X0186760Y0134388D01*
X0186760Y0132275D01*
X0177915Y0132275D01*
X0177915Y0133399D01*
X0176977Y0134336D01*
X0168565Y0134336D01*
X0167628Y0133399D01*
X0167628Y0132275D01*
X0152135Y0132275D01*
X0150959Y0131788D01*
X0150059Y0130887D01*
X0147460Y0128289D01*
X0147433Y0128224D01*
X0146361Y0128224D01*
X0145423Y0127287D01*
X0145423Y0118863D01*
X0145510Y0118776D01*
X0145510Y0110869D01*
X0145804Y0110575D01*
X0145510Y0110281D01*
X0145510Y0102373D01*
X0145423Y0102287D01*
X0145423Y0093863D01*
X0146361Y0092926D01*
X0153985Y0092926D01*
X0154185Y0093125D01*
X0154355Y0092955D01*
X0155274Y0092575D01*
X0156269Y0092575D01*
X0157187Y0092955D01*
X0157358Y0093125D01*
X0157557Y0092926D01*
X0165182Y0092926D01*
X0166119Y0093863D01*
X0166119Y0100975D01*
X0180168Y0100975D01*
X0180242Y0100900D01*
X0181835Y0100900D01*
X0181860Y0100875D01*
X0183683Y0100875D01*
X0183708Y0100900D01*
X0189771Y0100900D01*
X0189771Y0086313D01*
X0184565Y0086313D01*
X0183628Y0085375D01*
X0183628Y0079075D01*
X0183628Y0080212D02*
X0118710Y0080212D01*
X0118710Y0081811D02*
X0183628Y0081811D01*
X0183628Y0083409D02*
X0118710Y0083409D01*
X0118710Y0085008D02*
X0183628Y0085008D01*
X0189771Y0086606D02*
X0118710Y0086606D01*
X0118710Y0088205D02*
X0189771Y0088205D01*
X0189771Y0089803D02*
X0118180Y0089803D01*
X0111316Y0089803D02*
X0075500Y0089803D01*
X0073901Y0088205D02*
X0110786Y0088205D01*
X0110786Y0086606D02*
X0072303Y0086606D01*
X0071771Y0085008D02*
X0105179Y0085008D01*
X0103580Y0083409D02*
X0071771Y0083409D01*
X0071771Y0081811D02*
X0101982Y0081811D01*
X0100383Y0080212D02*
X0071771Y0080212D01*
X0077098Y0091402D02*
X0189771Y0091402D01*
X0189771Y0093000D02*
X0165257Y0093000D01*
X0166119Y0094599D02*
X0189771Y0094599D01*
X0189771Y0096197D02*
X0166119Y0096197D01*
X0166119Y0097796D02*
X0189771Y0097796D01*
X0189771Y0099394D02*
X0166119Y0099394D01*
X0157483Y0093000D02*
X0157232Y0093000D01*
X0154310Y0093000D02*
X0154060Y0093000D01*
X0146286Y0093000D02*
X0078697Y0093000D01*
X0080295Y0094599D02*
X0145423Y0094599D01*
X0145423Y0096197D02*
X0081894Y0096197D01*
X0083492Y0097796D02*
X0145423Y0097796D01*
X0145423Y0099394D02*
X0085091Y0099394D01*
X0086689Y0100993D02*
X0145423Y0100993D01*
X0145510Y0102591D02*
X0088288Y0102591D01*
X0089887Y0104190D02*
X0145510Y0104190D01*
X0145510Y0105788D02*
X0117945Y0105788D01*
X0117891Y0105659D02*
X0118271Y0106578D01*
X0118271Y0107572D01*
X0117891Y0108491D01*
X0117187Y0109194D01*
X0116269Y0109575D01*
X0115274Y0109575D01*
X0114355Y0109194D01*
X0113652Y0108491D01*
X0113271Y0107572D01*
X0113271Y0106578D01*
X0113652Y0105659D01*
X0114355Y0104955D01*
X0115274Y0104575D01*
X0116269Y0104575D01*
X0117187Y0104955D01*
X0117891Y0105659D01*
X0118271Y0107387D02*
X0145510Y0107387D01*
X0145510Y0108985D02*
X0117396Y0108985D01*
X0114147Y0108985D02*
X0101396Y0108985D01*
X0101187Y0109194D02*
X0100269Y0109575D01*
X0099274Y0109575D01*
X0098355Y0109194D01*
X0097652Y0108491D01*
X0097271Y0107572D01*
X0097271Y0106578D01*
X0097652Y0105659D01*
X0098355Y0104955D01*
X0099274Y0104575D01*
X0100269Y0104575D01*
X0101187Y0104955D01*
X0101891Y0105659D01*
X0102271Y0106578D01*
X0102271Y0107572D01*
X0101891Y0108491D01*
X0101187Y0109194D01*
X0102271Y0107387D02*
X0113271Y0107387D01*
X0113598Y0105788D02*
X0101945Y0105788D01*
X0105892Y0110584D02*
X0131727Y0110584D01*
X0131652Y0110659D02*
X0132355Y0109955D01*
X0133274Y0109575D01*
X0134269Y0109575D01*
X0135187Y0109955D01*
X0135891Y0110659D01*
X0136271Y0111578D01*
X0136271Y0112572D01*
X0135891Y0113491D01*
X0135187Y0114194D01*
X0134269Y0114575D01*
X0133274Y0114575D01*
X0132355Y0114194D01*
X0131652Y0113491D01*
X0131271Y0112572D01*
X0131271Y0111578D01*
X0131652Y0110659D01*
X0131271Y0112183D02*
X0107490Y0112183D01*
X0109089Y0113781D02*
X0111776Y0113781D01*
X0113766Y0113781D02*
X0115776Y0113781D01*
X0117766Y0113781D02*
X0131942Y0113781D01*
X0135601Y0113781D02*
X0145510Y0113781D01*
X0145510Y0112183D02*
X0136271Y0112183D01*
X0135816Y0110584D02*
X0145795Y0110584D01*
X0145510Y0115380D02*
X0119189Y0115380D01*
X0119103Y0116978D02*
X0145510Y0116978D01*
X0145510Y0118577D02*
X0113884Y0118577D01*
X0115483Y0120175D02*
X0145423Y0120175D01*
X0145423Y0121774D02*
X0142938Y0121774D01*
X0142891Y0121659D02*
X0143271Y0122578D01*
X0143271Y0123572D01*
X0142891Y0124491D01*
X0142187Y0125194D01*
X0141269Y0125575D01*
X0140274Y0125575D01*
X0139355Y0125194D01*
X0138652Y0124491D01*
X0138271Y0123572D01*
X0138271Y0122578D01*
X0138652Y0121659D01*
X0139355Y0120955D01*
X0140274Y0120575D01*
X0141269Y0120575D01*
X0142187Y0120955D01*
X0142891Y0121659D01*
X0143271Y0123372D02*
X0145423Y0123372D01*
X0145423Y0124971D02*
X0142411Y0124971D01*
X0139132Y0124971D02*
X0134227Y0124971D01*
X0134271Y0125078D02*
X0133891Y0124159D01*
X0133187Y0123455D01*
X0132269Y0123075D01*
X0131274Y0123075D01*
X0130355Y0123455D01*
X0129652Y0124159D01*
X0129271Y0125078D01*
X0129271Y0126072D01*
X0129652Y0126991D01*
X0130355Y0127694D01*
X0131274Y0128075D01*
X0132269Y0128075D01*
X0133187Y0127694D01*
X0133891Y0126991D01*
X0134271Y0126072D01*
X0134271Y0125078D01*
X0134065Y0126569D02*
X0145423Y0126569D01*
X0146304Y0128168D02*
X0123921Y0128168D01*
X0124271Y0126569D02*
X0129477Y0126569D01*
X0129316Y0124971D02*
X0128411Y0124971D01*
X0128187Y0125194D02*
X0127269Y0125575D01*
X0126274Y0125575D01*
X0125355Y0125194D01*
X0124652Y0124491D01*
X0124271Y0123572D01*
X0124271Y0122578D01*
X0124652Y0121659D01*
X0125355Y0120955D01*
X0126274Y0120575D01*
X0127269Y0120575D01*
X0128187Y0120955D01*
X0128891Y0121659D01*
X0129271Y0122578D01*
X0129271Y0123572D01*
X0128891Y0124491D01*
X0128187Y0125194D01*
X0129271Y0123372D02*
X0130556Y0123372D01*
X0128938Y0121774D02*
X0138604Y0121774D01*
X0138271Y0123372D02*
X0132986Y0123372D01*
X0125132Y0124971D02*
X0123453Y0124971D01*
X0124271Y0123372D02*
X0118680Y0123372D01*
X0118683Y0123375D02*
X0118683Y0123375D01*
X0119971Y0124971D02*
X0120090Y0124971D01*
X0117081Y0121774D02*
X0124604Y0121774D01*
X0124935Y0129766D02*
X0148937Y0129766D01*
X0150536Y0131365D02*
X0125271Y0131365D01*
X0124419Y0132963D02*
X0133379Y0132963D01*
X0133402Y0132909D02*
X0134105Y0132205D01*
X0135024Y0131825D01*
X0136019Y0131825D01*
X0136937Y0132205D01*
X0137641Y0132909D01*
X0138021Y0133828D01*
X0138021Y0134822D01*
X0137641Y0135741D01*
X0136937Y0136444D01*
X0136019Y0136825D01*
X0135024Y0136825D01*
X0134105Y0136444D01*
X0133402Y0135741D01*
X0133021Y0134822D01*
X0133021Y0133828D01*
X0133402Y0132909D01*
X0133021Y0134562D02*
X0126726Y0134562D01*
X0126915Y0136160D02*
X0133821Y0136160D01*
X0137222Y0136160D02*
X0143058Y0136160D01*
X0143021Y0136072D02*
X0143021Y0135078D01*
X0143402Y0134159D01*
X0144105Y0133455D01*
X0145024Y0133075D01*
X0146019Y0133075D01*
X0146937Y0133455D01*
X0147641Y0134159D01*
X0148021Y0135078D01*
X0148021Y0136072D01*
X0147641Y0136991D01*
X0146937Y0137694D01*
X0146019Y0138075D01*
X0145024Y0138075D01*
X0144105Y0137694D01*
X0143402Y0136991D01*
X0143021Y0136072D01*
X0143235Y0134562D02*
X0138021Y0134562D01*
X0137663Y0132963D02*
X0167628Y0132963D01*
X0166119Y0140956D02*
X0188534Y0140956D01*
X0188534Y0139357D02*
X0158946Y0139357D01*
X0159271Y0137759D02*
X0188534Y0137759D01*
X0187843Y0136160D02*
X0158392Y0136160D01*
X0155150Y0136160D02*
X0147985Y0136160D01*
X0147808Y0134562D02*
X0186832Y0134562D01*
X0186760Y0132963D02*
X0177915Y0132963D01*
X0169595Y0144153D02*
X0189771Y0144153D01*
X0189771Y0145751D02*
X0169697Y0145751D01*
X0168312Y0147350D02*
X0189771Y0147350D01*
X0189771Y0142554D02*
X0166119Y0142554D01*
X0166119Y0147350D02*
X0166231Y0147350D01*
X0156620Y0147350D02*
X0154923Y0147350D01*
X0154923Y0145751D02*
X0156620Y0145751D01*
X0156620Y0144153D02*
X0154923Y0144153D01*
X0154923Y0142554D02*
X0156620Y0142554D01*
X0156620Y0140956D02*
X0154923Y0140956D01*
X0154597Y0139357D02*
X0154271Y0139357D01*
X0154271Y0137759D02*
X0153932Y0137759D01*
X0149611Y0137759D02*
X0146782Y0137759D01*
X0144261Y0137759D02*
X0126915Y0137759D01*
X0126915Y0139357D02*
X0149271Y0139357D01*
X0145423Y0140956D02*
X0126915Y0140956D01*
X0126736Y0142554D02*
X0145423Y0142554D01*
X0145423Y0144153D02*
X0126271Y0144153D01*
X0126892Y0145751D02*
X0133614Y0145751D01*
X0133652Y0145659D02*
X0134355Y0144955D01*
X0135274Y0144575D01*
X0136269Y0144575D01*
X0137187Y0144955D01*
X0137891Y0145659D01*
X0138271Y0146578D01*
X0138271Y0147572D01*
X0137891Y0148491D01*
X0137187Y0149194D01*
X0137124Y0149221D01*
X0137271Y0149578D01*
X0137271Y0150572D01*
X0136891Y0151491D01*
X0136187Y0152194D01*
X0135269Y0152575D01*
X0134274Y0152575D01*
X0133355Y0152194D01*
X0132652Y0151491D01*
X0132271Y0150572D01*
X0132271Y0149578D01*
X0132652Y0148659D01*
X0133355Y0147955D01*
X0133419Y0147929D01*
X0133271Y0147572D01*
X0133271Y0146578D01*
X0133652Y0145659D01*
X0133271Y0147350D02*
X0126915Y0147350D01*
X0126915Y0148948D02*
X0132532Y0148948D01*
X0132271Y0150547D02*
X0126915Y0150547D01*
X0126915Y0152145D02*
X0133306Y0152145D01*
X0134274Y0154575D02*
X0135269Y0154575D01*
X0136187Y0154955D01*
X0136891Y0155659D01*
X0137271Y0156578D01*
X0137271Y0157572D01*
X0136891Y0158491D01*
X0136807Y0158575D01*
X0136891Y0158659D01*
X0137271Y0159578D01*
X0137271Y0160572D01*
X0136891Y0161491D01*
X0136187Y0162194D01*
X0135269Y0162575D01*
X0134274Y0162575D01*
X0133355Y0162194D01*
X0132652Y0161491D01*
X0132271Y0160572D01*
X0132271Y0159578D01*
X0132652Y0158659D01*
X0132736Y0158575D01*
X0132652Y0158491D01*
X0132271Y0157572D01*
X0132271Y0156578D01*
X0132652Y0155659D01*
X0133355Y0154955D01*
X0134274Y0154575D01*
X0132968Y0155342D02*
X0127174Y0155342D01*
X0127119Y0156941D02*
X0132271Y0156941D01*
X0132700Y0158539D02*
X0125354Y0158539D01*
X0124188Y0158539D02*
X0118354Y0158539D01*
X0117188Y0158539D02*
X0117033Y0158539D01*
X0117033Y0160138D02*
X0132271Y0160138D01*
X0132897Y0161736D02*
X0117033Y0161736D01*
X0116979Y0163335D02*
X0145510Y0163335D01*
X0145510Y0164933D02*
X0138134Y0164933D01*
X0138187Y0164955D02*
X0138891Y0165659D01*
X0139271Y0166578D01*
X0139271Y0167572D01*
X0138891Y0168491D01*
X0138187Y0169194D01*
X0137269Y0169575D01*
X0136274Y0169575D01*
X0135355Y0169194D01*
X0134652Y0168491D01*
X0134271Y0167572D01*
X0134271Y0166578D01*
X0134652Y0165659D01*
X0135355Y0164955D01*
X0136274Y0164575D01*
X0137269Y0164575D01*
X0138187Y0164955D01*
X0139252Y0166532D02*
X0145423Y0166532D01*
X0145423Y0168130D02*
X0139040Y0168130D01*
X0141355Y0170955D02*
X0142274Y0170575D01*
X0143269Y0170575D01*
X0144187Y0170955D01*
X0144891Y0171659D01*
X0145271Y0172578D01*
X0145271Y0173572D01*
X0144891Y0174491D01*
X0144187Y0175194D01*
X0143269Y0175575D01*
X0142274Y0175575D01*
X0141355Y0175194D01*
X0140652Y0174491D01*
X0140271Y0173572D01*
X0140271Y0172578D01*
X0140652Y0171659D01*
X0141355Y0170955D01*
X0140983Y0171327D02*
X0126168Y0171327D01*
X0126271Y0171578D02*
X0126271Y0172572D01*
X0125891Y0173491D01*
X0125187Y0174194D01*
X0124269Y0174575D01*
X0123274Y0174575D01*
X0122355Y0174194D01*
X0121771Y0173610D01*
X0121187Y0174194D01*
X0120269Y0174575D01*
X0119274Y0174575D01*
X0118355Y0174194D01*
X0117652Y0173491D01*
X0117271Y0172572D01*
X0117271Y0171578D01*
X0117652Y0170659D01*
X0118355Y0169955D01*
X0119274Y0169575D01*
X0120269Y0169575D01*
X0121187Y0169955D01*
X0121771Y0170539D01*
X0122355Y0169955D01*
X0123274Y0169575D01*
X0124269Y0169575D01*
X0125187Y0169955D01*
X0125891Y0170659D01*
X0126271Y0171578D01*
X0126125Y0172926D02*
X0140271Y0172926D01*
X0140685Y0174524D02*
X0124390Y0174524D01*
X0123153Y0174524D02*
X0120390Y0174524D01*
X0119153Y0174524D02*
X0111771Y0174524D01*
X0111771Y0172926D02*
X0117418Y0172926D01*
X0117375Y0171327D02*
X0111771Y0171327D01*
X0111771Y0169729D02*
X0118902Y0169729D01*
X0120641Y0169729D02*
X0122902Y0169729D01*
X0124641Y0169729D02*
X0145423Y0169729D01*
X0145423Y0171327D02*
X0144560Y0171327D01*
X0145271Y0172926D02*
X0145423Y0172926D01*
X0145661Y0174524D02*
X0144857Y0174524D01*
X0148294Y0176123D02*
X0111771Y0176123D01*
X0111771Y0177721D02*
X0119626Y0177721D01*
X0119652Y0177659D02*
X0120355Y0176955D01*
X0121274Y0176575D01*
X0122269Y0176575D01*
X0123187Y0176955D01*
X0123891Y0177659D01*
X0124271Y0178578D01*
X0124271Y0179572D01*
X0123891Y0180491D01*
X0123187Y0181194D01*
X0122269Y0181575D01*
X0121274Y0181575D01*
X0120355Y0181194D01*
X0119652Y0180491D01*
X0119271Y0179572D01*
X0119271Y0178578D01*
X0119652Y0177659D01*
X0119271Y0179320D02*
X0113165Y0179320D01*
X0113128Y0180918D02*
X0120080Y0180918D01*
X0123463Y0180918D02*
X0150544Y0180918D01*
X0150652Y0180659D02*
X0151355Y0179955D01*
X0152274Y0179575D01*
X0153269Y0179575D01*
X0154187Y0179955D01*
X0154891Y0180659D01*
X0155271Y0181578D01*
X0155271Y0182572D01*
X0154891Y0183491D01*
X0154187Y0184194D01*
X0153269Y0184575D01*
X0152274Y0184575D01*
X0151355Y0184194D01*
X0150652Y0183491D01*
X0150271Y0182572D01*
X0150271Y0181578D01*
X0150652Y0180659D01*
X0150271Y0182517D02*
X0111771Y0182517D01*
X0111771Y0184116D02*
X0144176Y0184116D01*
X0145367Y0184116D02*
X0151277Y0184116D01*
X0154266Y0184116D02*
X0165463Y0184116D01*
X0165652Y0183659D02*
X0166355Y0182955D01*
X0167274Y0182575D01*
X0168269Y0182575D01*
X0169187Y0182955D01*
X0169891Y0183659D01*
X0170271Y0184578D01*
X0170271Y0185572D01*
X0169891Y0186491D01*
X0169187Y0187194D01*
X0168269Y0187575D01*
X0167274Y0187575D01*
X0166355Y0187194D01*
X0165652Y0186491D01*
X0165271Y0185572D01*
X0165271Y0184578D01*
X0165652Y0183659D01*
X0165330Y0185714D02*
X0156522Y0185714D01*
X0155271Y0182517D02*
X0187228Y0182517D01*
X0186760Y0180918D02*
X0177395Y0180918D01*
X0177915Y0179320D02*
X0186760Y0179320D01*
X0188534Y0184116D02*
X0170080Y0184116D01*
X0170213Y0185714D02*
X0188534Y0185714D01*
X0188534Y0187313D02*
X0168902Y0187313D01*
X0166641Y0187313D02*
X0165569Y0187313D01*
X0166119Y0188911D02*
X0189164Y0188911D01*
X0189771Y0190510D02*
X0166119Y0190510D01*
X0166119Y0192108D02*
X0189771Y0192108D01*
X0189771Y0193707D02*
X0166119Y0193707D01*
X0168148Y0180918D02*
X0154998Y0180918D01*
X0149893Y0177721D02*
X0123917Y0177721D01*
X0124271Y0179320D02*
X0167628Y0179320D01*
X0145423Y0190510D02*
X0140742Y0190510D01*
X0140891Y0190659D02*
X0141271Y0191578D01*
X0141271Y0192572D01*
X0140891Y0193491D01*
X0140187Y0194194D01*
X0139269Y0194575D01*
X0138274Y0194575D01*
X0137355Y0194194D01*
X0136652Y0193491D01*
X0136271Y0192572D01*
X0136271Y0191578D01*
X0136652Y0190659D01*
X0137355Y0189955D01*
X0138274Y0189575D01*
X0139269Y0189575D01*
X0140187Y0189955D01*
X0140891Y0190659D01*
X0141271Y0192108D02*
X0145423Y0192108D01*
X0145423Y0193707D02*
X0140675Y0193707D01*
X0136868Y0193707D02*
X0111771Y0193707D01*
X0111771Y0195305D02*
X0145423Y0195305D01*
X0145510Y0196904D02*
X0111771Y0196904D01*
X0111771Y0198502D02*
X0145510Y0198502D01*
X0145510Y0200101D02*
X0111771Y0200101D01*
X0111771Y0201699D02*
X0145510Y0201699D01*
X0145510Y0203298D02*
X0111771Y0203298D01*
X0111771Y0204896D02*
X0145510Y0204896D01*
X0145510Y0206495D02*
X0113191Y0206495D01*
X0114790Y0208093D02*
X0145510Y0208093D01*
X0145510Y0209692D02*
X0116388Y0209692D01*
X0117987Y0211290D02*
X0145510Y0211290D01*
X0145423Y0212889D02*
X0119585Y0212889D01*
X0121184Y0214487D02*
X0145423Y0214487D01*
X0145423Y0216086D02*
X0122782Y0216086D01*
X0124381Y0217684D02*
X0145423Y0217684D01*
X0145423Y0219283D02*
X0125979Y0219283D01*
X0127578Y0220881D02*
X0143534Y0220881D01*
X0142312Y0222480D02*
X0129176Y0222480D01*
X0130775Y0224078D02*
X0142481Y0224078D01*
X0147062Y0224078D02*
X0149249Y0224078D01*
X0147651Y0222480D02*
X0147231Y0222480D01*
X0150848Y0225677D02*
X0132373Y0225677D01*
X0133972Y0227275D02*
X0167628Y0227275D01*
X0177915Y0227275D02*
X0186760Y0227275D01*
X0186961Y0228874D02*
X0135570Y0228874D01*
X0137169Y0230472D02*
X0188155Y0230472D01*
X0188534Y0232071D02*
X0138767Y0232071D01*
X0140366Y0233669D02*
X0188534Y0233669D01*
X0188534Y0235268D02*
X0141964Y0235268D01*
X0136271Y0192108D02*
X0111771Y0192108D01*
X0111771Y0190510D02*
X0136801Y0190510D01*
X0142371Y0187313D02*
X0111771Y0187313D01*
X0111771Y0188911D02*
X0143879Y0188911D01*
X0142422Y0185714D02*
X0111771Y0185714D01*
X0111771Y0168130D02*
X0134503Y0168130D01*
X0134290Y0166532D02*
X0111771Y0166532D01*
X0111771Y0164933D02*
X0135408Y0164933D01*
X0136645Y0161736D02*
X0145510Y0161736D01*
X0145510Y0160138D02*
X0137271Y0160138D01*
X0136842Y0158539D02*
X0142700Y0158539D01*
X0142271Y0156941D02*
X0137271Y0156941D01*
X0136574Y0155342D02*
X0142968Y0155342D01*
X0145510Y0153744D02*
X0126570Y0153744D01*
X0122369Y0155342D02*
X0120174Y0155342D01*
X0120119Y0156941D02*
X0122424Y0156941D01*
X0136236Y0152145D02*
X0145510Y0152145D01*
X0145510Y0150547D02*
X0137271Y0150547D01*
X0137433Y0148948D02*
X0145423Y0148948D01*
X0145423Y0147350D02*
X0138271Y0147350D01*
X0137929Y0145751D02*
X0145423Y0145751D01*
X0121124Y0132963D02*
X0119971Y0132963D01*
X0119971Y0131365D02*
X0120271Y0131365D01*
X0119971Y0129766D02*
X0120607Y0129766D01*
X0098147Y0108985D02*
X0094682Y0108985D01*
X0093084Y0107387D02*
X0097271Y0107387D01*
X0097598Y0105788D02*
X0091485Y0105788D01*
X0048732Y0092634D02*
X0048732Y0091634D01*
X0039586Y0083957D02*
X0030653Y0083957D01*
X0028464Y0081768D01*
X0028464Y0078346D01*
X0029086Y0060760D02*
X0026409Y0060760D01*
X0029086Y0060760D02*
X0035771Y0054075D01*
X0037173Y0054075D01*
X0040173Y0051075D01*
X0041771Y0042075D02*
X0035771Y0042075D01*
X0030771Y0047075D01*
X0030771Y0051075D01*
X0028771Y0053075D01*
X0028771Y0055075D01*
X0027464Y0055075D01*
X0026771Y0055768D01*
X0026771Y0042382D02*
X0024771Y0042382D01*
X0024771Y0039075D01*
X0041771Y0042075D02*
X0050771Y0033075D01*
X0053283Y0033075D01*
X0054771Y0031587D01*
X0062685Y0031587D01*
X0062771Y0031673D01*
X0062685Y0020563D02*
X0054771Y0020563D01*
X0068283Y0020563D01*
X0068771Y0020075D01*
X0062771Y0020476D02*
X0062685Y0020563D01*
X0051771Y0051476D02*
X0051771Y0058075D01*
X0164593Y0021067D02*
X0173549Y0021067D01*
X0171841Y0022666D02*
X0166301Y0022666D01*
X0166924Y0024264D02*
X0171219Y0024264D01*
X0171219Y0025863D02*
X0166924Y0025863D01*
X0166924Y0027461D02*
X0171219Y0027461D01*
X0171219Y0029060D02*
X0166924Y0029060D01*
X0166924Y0030658D02*
X0171219Y0030658D01*
X0171372Y0032257D02*
X0166770Y0032257D01*
X0165935Y0033855D02*
X0172208Y0033855D01*
X0181923Y0037052D02*
X0183620Y0037052D01*
X0183568Y0035454D02*
X0184029Y0035454D01*
X0183620Y0038651D02*
X0181923Y0038651D01*
X0181923Y0040249D02*
X0183620Y0040249D01*
X0183620Y0041848D02*
X0181923Y0041848D01*
X0181923Y0043447D02*
X0183620Y0043447D01*
X0184378Y0045045D02*
X0181164Y0045045D01*
X0188301Y0046644D02*
X0166271Y0046644D01*
X0165994Y0048242D02*
X0189471Y0048242D01*
X0191519Y0049841D02*
X0166271Y0049841D01*
X0165912Y0051439D02*
X0191519Y0051439D01*
X0191519Y0056235D02*
X0178467Y0056235D01*
X0179271Y0057833D02*
X0191519Y0057833D01*
X0191519Y0059432D02*
X0187846Y0059432D01*
X0186739Y0058325D02*
X0189521Y0061107D01*
X0189521Y0065042D01*
X0186739Y0067825D01*
X0182804Y0067825D01*
X0180021Y0065042D01*
X0180021Y0061107D01*
X0182804Y0058325D01*
X0186739Y0058325D01*
X0189444Y0061030D02*
X0191519Y0061030D01*
X0191519Y0062629D02*
X0189521Y0062629D01*
X0189521Y0064227D02*
X0191519Y0064227D01*
X0191519Y0065826D02*
X0188738Y0065826D01*
X0187139Y0067424D02*
X0191519Y0067424D01*
X0182403Y0067424D02*
X0172683Y0067424D01*
X0174738Y0065826D02*
X0180805Y0065826D01*
X0180021Y0064227D02*
X0175435Y0064227D01*
X0175521Y0062629D02*
X0180021Y0062629D01*
X0180098Y0061030D02*
X0175066Y0061030D01*
X0174627Y0059432D02*
X0173846Y0059432D01*
X0178915Y0059432D02*
X0181697Y0059432D01*
X0173182Y0045045D02*
X0172269Y0045045D01*
X0177993Y0021067D02*
X0180249Y0021067D01*
X0184693Y0021067D02*
X0186949Y0021067D01*
X0237771Y0020575D02*
X0237771Y0016075D01*
X0237771Y0025575D02*
X0237771Y0032075D01*
X0243771Y0093075D02*
X0207771Y0093075D01*
X0207771Y0135075D01*
X0243771Y0135075D01*
X0260771Y0152075D01*
X0275377Y0152075D01*
X0275377Y0124680D01*
X0265467Y0114770D01*
X0265350Y0114887D01*
X0263677Y0115580D01*
X0261866Y0115580D01*
X0260192Y0114887D01*
X0258912Y0113606D01*
X0258219Y0111933D01*
X0258219Y0107522D01*
X0257324Y0106628D01*
X0257324Y0111933D01*
X0256631Y0113606D01*
X0255350Y0114887D01*
X0253677Y0115580D01*
X0251866Y0115580D01*
X0250192Y0114887D01*
X0248912Y0113606D01*
X0248219Y0111933D01*
X0248219Y0104216D01*
X0248912Y0102543D01*
X0250192Y0101262D01*
X0251442Y0100745D01*
X0243771Y0093075D01*
X0245295Y0094599D02*
X0207771Y0094599D01*
X0207771Y0096197D02*
X0246894Y0096197D01*
X0248492Y0097796D02*
X0207771Y0097796D01*
X0207771Y0099394D02*
X0250091Y0099394D01*
X0250843Y0100993D02*
X0207771Y0100993D01*
X0207771Y0102591D02*
X0248892Y0102591D01*
X0248230Y0104190D02*
X0207771Y0104190D01*
X0207771Y0105788D02*
X0248219Y0105788D01*
X0248219Y0107387D02*
X0207771Y0107387D01*
X0207771Y0108985D02*
X0248219Y0108985D01*
X0248219Y0110584D02*
X0207771Y0110584D01*
X0207771Y0112183D02*
X0248322Y0112183D01*
X0249086Y0113781D02*
X0207771Y0113781D01*
X0207771Y0115380D02*
X0251381Y0115380D01*
X0254162Y0115380D02*
X0261381Y0115380D01*
X0264162Y0115380D02*
X0266076Y0115380D01*
X0267675Y0116978D02*
X0207771Y0116978D01*
X0207771Y0118577D02*
X0269273Y0118577D01*
X0270872Y0120175D02*
X0207771Y0120175D01*
X0207771Y0121774D02*
X0272470Y0121774D01*
X0274069Y0123372D02*
X0207771Y0123372D01*
X0207771Y0124971D02*
X0275377Y0124971D01*
X0275377Y0126569D02*
X0207771Y0126569D01*
X0207771Y0128168D02*
X0275377Y0128168D01*
X0275377Y0129766D02*
X0207771Y0129766D01*
X0207771Y0131365D02*
X0262148Y0131365D01*
X0261424Y0131665D02*
X0263933Y0130625D01*
X0266649Y0130625D01*
X0269159Y0131665D01*
X0271079Y0133585D01*
X0272119Y0136095D01*
X0272119Y0138811D01*
X0271079Y0141320D01*
X0269159Y0143241D01*
X0266649Y0144280D01*
X0263933Y0144280D01*
X0261424Y0143241D01*
X0259503Y0141320D01*
X0258463Y0138811D01*
X0258463Y0136095D01*
X0259503Y0133585D01*
X0261424Y0131665D01*
X0260125Y0132963D02*
X0207771Y0132963D01*
X0207771Y0134562D02*
X0259098Y0134562D01*
X0258463Y0136160D02*
X0244857Y0136160D01*
X0246455Y0137759D02*
X0258463Y0137759D01*
X0258690Y0139357D02*
X0248054Y0139357D01*
X0249652Y0140956D02*
X0259352Y0140956D01*
X0260737Y0142554D02*
X0251251Y0142554D01*
X0252849Y0144153D02*
X0263625Y0144153D01*
X0266957Y0144153D02*
X0275377Y0144153D01*
X0275377Y0145751D02*
X0254448Y0145751D01*
X0256046Y0147350D02*
X0275377Y0147350D01*
X0275377Y0148948D02*
X0257645Y0148948D01*
X0259243Y0150547D02*
X0275377Y0150547D01*
X0275377Y0155075D02*
X0259771Y0155075D01*
X0244771Y0140075D01*
X0207771Y0140075D01*
X0207771Y0182075D01*
X0244771Y0182075D01*
X0259771Y0167075D01*
X0275377Y0167075D01*
X0275377Y0155075D01*
X0275377Y0155342D02*
X0207771Y0155342D01*
X0207771Y0153744D02*
X0258440Y0153744D01*
X0256842Y0152145D02*
X0207771Y0152145D01*
X0207771Y0150547D02*
X0255243Y0150547D01*
X0253645Y0148948D02*
X0207771Y0148948D01*
X0207771Y0147350D02*
X0252046Y0147350D01*
X0250448Y0145751D02*
X0207771Y0145751D01*
X0207771Y0144153D02*
X0248849Y0144153D01*
X0247251Y0142554D02*
X0207771Y0142554D01*
X0207771Y0140956D02*
X0245652Y0140956D01*
X0269845Y0142554D02*
X0275377Y0142554D01*
X0275377Y0140956D02*
X0271230Y0140956D01*
X0271892Y0139357D02*
X0275377Y0139357D01*
X0275377Y0137759D02*
X0272119Y0137759D01*
X0272119Y0136160D02*
X0275377Y0136160D01*
X0275377Y0134562D02*
X0271484Y0134562D01*
X0270457Y0132963D02*
X0275377Y0132963D01*
X0275377Y0131365D02*
X0268434Y0131365D01*
X0259086Y0113781D02*
X0256456Y0113781D01*
X0257221Y0112183D02*
X0258322Y0112183D01*
X0258219Y0110584D02*
X0257324Y0110584D01*
X0257324Y0108985D02*
X0258219Y0108985D01*
X0258084Y0107387D02*
X0257324Y0107387D01*
X0275377Y0156941D02*
X0207771Y0156941D01*
X0207771Y0158539D02*
X0275377Y0158539D01*
X0275377Y0160138D02*
X0207771Y0160138D01*
X0207771Y0161736D02*
X0275377Y0161736D01*
X0275377Y0163335D02*
X0207771Y0163335D01*
X0207771Y0164933D02*
X0275377Y0164933D01*
X0275377Y0166532D02*
X0207771Y0166532D01*
X0207771Y0168130D02*
X0258716Y0168130D01*
X0257117Y0169729D02*
X0207771Y0169729D01*
X0207771Y0171327D02*
X0255519Y0171327D01*
X0253920Y0172926D02*
X0207771Y0172926D01*
X0207771Y0174524D02*
X0252322Y0174524D01*
X0250723Y0176123D02*
X0207771Y0176123D01*
X0207771Y0177721D02*
X0249125Y0177721D01*
X0247526Y0179320D02*
X0207771Y0179320D01*
X0207771Y0180918D02*
X0245928Y0180918D01*
X0248329Y0182517D02*
X0258804Y0182517D01*
X0258463Y0183339D02*
X0259503Y0180829D01*
X0261424Y0178909D01*
X0263933Y0177869D01*
X0266649Y0177869D01*
X0269159Y0178909D01*
X0271079Y0180829D01*
X0272119Y0183339D01*
X0272119Y0186055D01*
X0271079Y0188564D01*
X0269159Y0190485D01*
X0266649Y0191524D01*
X0263933Y0191524D01*
X0261424Y0190485D01*
X0259503Y0188564D01*
X0258463Y0186055D01*
X0258463Y0183339D01*
X0258463Y0184116D02*
X0246731Y0184116D01*
X0245132Y0185714D02*
X0258463Y0185714D01*
X0258984Y0187313D02*
X0207771Y0187313D01*
X0207771Y0187075D02*
X0207771Y0229075D01*
X0217236Y0229075D01*
X0217355Y0228955D01*
X0218274Y0228575D01*
X0219269Y0228575D01*
X0220187Y0228955D01*
X0220307Y0229075D01*
X0244771Y0229075D01*
X0249778Y0224068D01*
X0249305Y0221077D01*
X0249187Y0221194D01*
X0248269Y0221575D01*
X0247274Y0221575D01*
X0246355Y0221194D01*
X0245652Y0220491D01*
X0245271Y0219572D01*
X0245271Y0218578D01*
X0245652Y0217659D01*
X0246355Y0216955D01*
X0247274Y0216575D01*
X0248269Y0216575D01*
X0249187Y0216955D01*
X0249494Y0217262D01*
X0249822Y0215194D01*
X0251924Y0211069D01*
X0251924Y0211068D02*
X0255198Y0207794D01*
X0259324Y0205692D01*
X0263897Y0204968D01*
X0263897Y0204968D01*
X0268197Y0205649D01*
X0275377Y0198469D01*
X0275377Y0170075D01*
X0260771Y0170075D01*
X0243771Y0187075D01*
X0207771Y0187075D01*
X0207771Y0188911D02*
X0259850Y0188911D01*
X0261483Y0190510D02*
X0207771Y0190510D01*
X0207771Y0192108D02*
X0275377Y0192108D01*
X0275377Y0190510D02*
X0269099Y0190510D01*
X0270732Y0188911D02*
X0275377Y0188911D01*
X0275377Y0187313D02*
X0271598Y0187313D01*
X0272119Y0185714D02*
X0275377Y0185714D01*
X0275377Y0184116D02*
X0272119Y0184116D01*
X0271778Y0182517D02*
X0275377Y0182517D01*
X0275377Y0180918D02*
X0271116Y0180918D01*
X0269570Y0179320D02*
X0275377Y0179320D01*
X0275377Y0177721D02*
X0253125Y0177721D01*
X0254723Y0176123D02*
X0275377Y0176123D01*
X0275377Y0174524D02*
X0256322Y0174524D01*
X0257920Y0172926D02*
X0275377Y0172926D01*
X0275377Y0171327D02*
X0259519Y0171327D01*
X0261012Y0179320D02*
X0251526Y0179320D01*
X0249928Y0180918D02*
X0259466Y0180918D01*
X0275377Y0193707D02*
X0207771Y0193707D01*
X0207771Y0195305D02*
X0275377Y0195305D01*
X0275377Y0196904D02*
X0207771Y0196904D01*
X0207771Y0198502D02*
X0275344Y0198502D01*
X0273746Y0200101D02*
X0207771Y0200101D01*
X0207771Y0201699D02*
X0272147Y0201699D01*
X0270548Y0203298D02*
X0207771Y0203298D01*
X0207771Y0204896D02*
X0268950Y0204896D01*
X0259324Y0205692D02*
X0259324Y0205692D01*
X0257749Y0206495D02*
X0207771Y0206495D01*
X0207771Y0208093D02*
X0254899Y0208093D01*
X0255198Y0207794D02*
X0255198Y0207794D01*
X0253301Y0209692D02*
X0207771Y0209692D01*
X0207771Y0211290D02*
X0251811Y0211290D01*
X0251924Y0211069D02*
X0251924Y0211068D01*
X0250996Y0212889D02*
X0207771Y0212889D01*
X0207771Y0214487D02*
X0250182Y0214487D01*
X0249822Y0215194D02*
X0249822Y0215194D01*
X0249680Y0216086D02*
X0207771Y0216086D01*
X0207771Y0217684D02*
X0245641Y0217684D01*
X0245271Y0219283D02*
X0207771Y0219283D01*
X0207771Y0220881D02*
X0246042Y0220881D01*
X0249527Y0222480D02*
X0207771Y0222480D01*
X0207771Y0224078D02*
X0249768Y0224078D01*
X0248169Y0225677D02*
X0207771Y0225677D01*
X0207771Y0227275D02*
X0246571Y0227275D01*
X0244972Y0228874D02*
X0219991Y0228874D01*
X0217552Y0228874D02*
X0207771Y0228874D01*
M02*
