%
M48
M72
T01C0.01600
T02C0.02953
T03C0.03200
T04C0.03937
T05C0.04000
T06C0.04016
T07C0.04134
T08C0.04724
T09C0.09055
T10C0.11024
%
T01
X24771Y39075
X51771Y58075
X45771Y70075
X54271Y74575
X34771Y66075
X32771Y84075
X68771Y117075
X68771Y120075
X60771Y130075
X78771Y132075
X78771Y128075
X78771Y141075
X89771Y144075
X93771Y144075
X98372Y140925
X101271Y143825
X105021Y135325
X100771Y134575
X106771Y131075
X106771Y127075
X103771Y116075
X112771Y116075
X116771Y116075
X126771Y123075
X131771Y125575
X140771Y123075
X135521Y134325
X145521Y135575
X151771Y139075
X156771Y138075
X157771Y129075
X154771Y129075
X160771Y129075
X163771Y129075
X166771Y129075
X178771Y129075
X178771Y119075
X201771Y124075
X200771Y154075
X204771Y157075
X201771Y171075
X178771Y176075
X178771Y166075
X166771Y176075
X163771Y176075
X160771Y176075
X157771Y176075
X154771Y176075
X152771Y182075
X144771Y186575
X138771Y192075
X121771Y179075
X119771Y172075
X123771Y172075
X110771Y180075
X101771Y171825
X94771Y172075
X90771Y172075
X78771Y183075
X78771Y197075
X97771Y203075
X95771Y217075
X98771Y225075
X109771Y225075
X118771Y229075
X144771Y223075
X154771Y223075
X157771Y223075
X160771Y223075
X163771Y223075
X166771Y223075
X174771Y218075
X178771Y223075
X178771Y213075
X198771Y231075
X201771Y218075
X218771Y231075
X247771Y219075
X167771Y185075
X142771Y173075
X136771Y167075
X134771Y160075
X134771Y157075
X134771Y150075
X135771Y147075
X123771Y144075
X119771Y144075
X115771Y153075
X117771Y156075
X124771Y156075
X110771Y153075
X106771Y157075
X106771Y161075
X75771Y150075
X62771Y155075
X65771Y166075
X69771Y166075
X54771Y203075
X75771Y223075
X59771Y225075
X59771Y228075
X59771Y231075
X59771Y234075
X144771Y157075
X155521Y150575
X167271Y145075
X133771Y112075
X115771Y107075
X99771Y107075
X121771Y126825
X122771Y131075
X94771Y128575
X155771Y106075
X155771Y101075
X155771Y95075
X189771Y76075
X206771Y72075
X214771Y84075
X231771Y59075
X237771Y59075
X225771Y58075
X242771Y72075
X257771Y100075
X190771Y46075
X176771Y58075
X163771Y50075
X160771Y50075
X157771Y50075
X154771Y50075
X154771Y47075
X157771Y47075
X160771Y47075
X163771Y47075
X150771Y42075
X157771Y34075
X109771Y40075
X106771Y40075
X80521Y46825
X78771Y53075
X77771Y34075
X74771Y34075
X68771Y20075
X207771Y30075
X212771Y28825
X214771Y40075
X234771Y37075
X237771Y32075
X247771Y23075
X237771Y16075
T02
X26771Y49075
T03
X136771Y43075
X136771Y29075
X170771Y63075
X184771Y63075
T04
X182471Y25075
X175771Y25075
X169071Y25075
X162371Y25075
X189171Y25075
X252771Y54075
X262771Y54075
X272771Y54075
X272771Y81075
X262771Y81075
X252771Y81075
X252771Y108075
X262771Y108075
X272771Y108075
X56771Y138075
X46771Y138075
X36771Y138075
X26771Y138075
X26771Y165075
X36771Y165075
X46771Y165075
X56771Y165075
X46771Y192075
X36771Y192075
X26771Y192075
T05
X141771Y83075
X141771Y63075
T06
X104661Y23075
X90882Y23075
X267771Y147295
X267771Y161075
X267771Y174854
T07
X40393Y98622
X40393Y79528
T08
X28464Y78346
X28464Y99803
T09
X81039Y25555
X114504Y25555
X265291Y137453
X265291Y184697
T10
X35551Y26854
X263897Y26854
X263897Y219768
X35551Y219768
M30
