G75*
%MOIN*%
%OFA0B0*%
%FSLAX25Y25*%
%IPPOS*%
%LPD*%
%AMOC8*
5,1,8,0,0,1.08239X$1,22.5*
%
%ADD10C,0.09555*%
%ADD11C,0.08100*%
%ADD12R,0.06799X0.07587*%
%ADD13R,0.07587X0.06799*%
%ADD14OC8,0.06800*%
%ADD15C,0.06800*%
%ADD16R,0.07587X0.06012*%
%ADD17C,0.06406*%
%ADD18R,0.06799X0.07598*%
%ADD19R,0.07598X0.06799*%
%ADD20R,0.18610X0.03650*%
%ADD21R,0.37508X0.43020*%
%ADD22R,0.02075X0.03256*%
%ADD23R,0.23335X0.25697*%
%ADD24R,0.05224X0.09161*%
%ADD25C,0.11524*%
%ADD26C,0.10500*%
%ADD27OC8,0.10500*%
%ADD28R,0.07193X0.10343*%
%ADD29R,0.07193X0.03650*%
%ADD30C,0.03453*%
%ADD31R,0.05500X0.03492*%
%ADD32R,0.04043X0.02862*%
%ADD33R,0.02862X0.02469*%
%ADD34R,0.07390X0.02075*%
%ADD35OC8,0.07587*%
%ADD36C,0.04634*%
%ADD37C,0.02900*%
D10*
X0081039Y0025555D03*
X0114504Y0025555D03*
X0265291Y0137453D03*
X0265291Y0184697D03*
D11*
X0263971Y0174854D02*
X0271571Y0174854D01*
X0271571Y0161075D02*
X0263971Y0161075D01*
X0263971Y0147295D02*
X0271571Y0147295D01*
X0104661Y0026875D02*
X0104661Y0019275D01*
X0090882Y0019275D02*
X0090882Y0026875D01*
D12*
X0088260Y0040075D03*
X0099283Y0040075D03*
X0157260Y0040075D03*
X0168283Y0040075D03*
X0161283Y0106075D03*
X0161283Y0115075D03*
X0150260Y0115075D03*
X0150260Y0106075D03*
X0182260Y0137075D03*
X0193283Y0137075D03*
X0161283Y0153075D03*
X0161283Y0162075D03*
X0150260Y0162075D03*
X0150260Y0153075D03*
X0182260Y0184075D03*
X0193283Y0184075D03*
X0161283Y0200075D03*
X0161283Y0209075D03*
X0150260Y0209075D03*
X0150260Y0200075D03*
X0182260Y0231075D03*
X0193283Y0231075D03*
X0112283Y0159075D03*
X0101260Y0159075D03*
X0101260Y0129075D03*
X0112283Y0129075D03*
D13*
X0121771Y0138563D03*
X0121771Y0149587D03*
X0091771Y0149587D03*
X0091771Y0138563D03*
X0172771Y0145563D03*
X0172771Y0156587D03*
X0172771Y0165563D03*
X0172771Y0176587D03*
X0172771Y0192563D03*
X0172771Y0203587D03*
X0172771Y0212563D03*
X0172771Y0223587D03*
X0172771Y0129587D03*
X0172771Y0118563D03*
X0172771Y0109587D03*
X0172771Y0098563D03*
X0188771Y0092587D03*
X0188771Y0081563D03*
X0054771Y0031587D03*
X0054771Y0020563D03*
D14*
X0136771Y0029075D03*
X0184771Y0063075D03*
D15*
X0170771Y0063075D03*
X0136771Y0043075D03*
D16*
X0086771Y0069382D03*
X0086771Y0082768D03*
D17*
X0056771Y0135122D02*
X0056771Y0141028D01*
X0046771Y0141028D02*
X0046771Y0135122D01*
X0036771Y0135122D02*
X0036771Y0141028D01*
X0026771Y0141028D02*
X0026771Y0135122D01*
X0026771Y0162122D02*
X0026771Y0168028D01*
X0036771Y0168028D02*
X0036771Y0162122D01*
X0046771Y0162122D02*
X0046771Y0168028D01*
X0056771Y0168028D02*
X0056771Y0162122D01*
X0046771Y0189122D02*
X0046771Y0195028D01*
X0036771Y0195028D02*
X0036771Y0189122D01*
X0026771Y0189122D02*
X0026771Y0195028D01*
X0162371Y0030980D02*
X0162371Y0025075D01*
X0169071Y0025075D02*
X0169071Y0030980D01*
X0175771Y0030980D02*
X0175771Y0025075D01*
X0182471Y0025075D02*
X0182471Y0030980D01*
X0189171Y0030980D02*
X0189171Y0025075D01*
X0252771Y0051122D02*
X0252771Y0057028D01*
X0262771Y0057028D02*
X0262771Y0051122D01*
X0272771Y0051122D02*
X0272771Y0057028D01*
X0272771Y0078122D02*
X0272771Y0084028D01*
X0262771Y0084028D02*
X0262771Y0078122D01*
X0252771Y0078122D02*
X0252771Y0084028D01*
X0252771Y0105122D02*
X0252771Y0111028D01*
X0262771Y0111028D02*
X0262771Y0105122D01*
X0272771Y0105122D02*
X0272771Y0111028D01*
D18*
X0188370Y0040075D03*
X0177173Y0040075D03*
X0161370Y0098075D03*
X0150173Y0098075D03*
X0150173Y0123075D03*
X0161370Y0123075D03*
X0161370Y0145075D03*
X0150173Y0145075D03*
X0150173Y0170075D03*
X0161370Y0170075D03*
X0161370Y0192075D03*
X0150173Y0192075D03*
X0150173Y0217075D03*
X0161370Y0217075D03*
X0051370Y0051075D03*
X0040173Y0051075D03*
D19*
X0062771Y0031673D03*
X0062771Y0020476D03*
X0086771Y0050476D03*
X0086771Y0061673D03*
X0059771Y0082476D03*
X0050771Y0082476D03*
X0050771Y0093673D03*
X0059771Y0093673D03*
X0057771Y0185476D03*
X0066771Y0185476D03*
X0066771Y0196673D03*
X0057771Y0196673D03*
X0090771Y0196673D03*
X0099771Y0196673D03*
X0099771Y0185476D03*
X0090771Y0185476D03*
D20*
X0189960Y0193075D03*
X0189960Y0198075D03*
X0189960Y0203075D03*
X0189960Y0208075D03*
X0189960Y0213075D03*
X0189960Y0218075D03*
X0189960Y0223075D03*
X0189960Y0176075D03*
X0189960Y0171075D03*
X0189960Y0166075D03*
X0189960Y0161075D03*
X0189960Y0156075D03*
X0189960Y0151075D03*
X0189960Y0146075D03*
X0189960Y0129075D03*
X0189960Y0124075D03*
X0189960Y0119075D03*
X0189960Y0114075D03*
X0189960Y0109075D03*
X0189960Y0104075D03*
X0189960Y0099075D03*
D21*
X0225984Y0114075D03*
X0225984Y0161075D03*
X0225984Y0208075D03*
D22*
X0081330Y0193618D03*
X0078771Y0193618D03*
X0076212Y0193618D03*
X0076212Y0186531D03*
X0078771Y0186531D03*
X0081330Y0186531D03*
X0042330Y0069618D03*
X0039771Y0069618D03*
X0037212Y0069618D03*
X0037212Y0062531D03*
X0039771Y0062531D03*
X0042330Y0062531D03*
D23*
X0105771Y0059476D03*
D24*
X0096795Y0084280D03*
X0114748Y0084280D03*
D25*
X0035551Y0026854D03*
X0263897Y0026854D03*
X0263897Y0219768D03*
X0035551Y0219768D03*
D26*
X0141771Y0083075D03*
D27*
X0141771Y0063075D03*
D28*
X0075771Y0065201D03*
X0075771Y0080949D03*
D29*
X0026771Y0055768D03*
X0026771Y0042382D03*
D30*
X0026771Y0049075D03*
D31*
X0207771Y0025575D03*
X0207771Y0020575D03*
X0237771Y0020575D03*
X0237771Y0025575D03*
D32*
X0026409Y0060760D03*
X0026409Y0071390D03*
D33*
X0027590Y0067650D03*
X0027590Y0064500D03*
D34*
X0039586Y0083957D03*
X0039586Y0086516D03*
X0039586Y0089075D03*
X0039586Y0091634D03*
X0039586Y0094193D03*
D35*
X0028464Y0099803D03*
X0028464Y0078346D03*
D36*
X0040393Y0079528D03*
X0040393Y0098622D03*
D37*
X0032771Y0084075D03*
X0045771Y0070075D03*
X0054271Y0074575D03*
X0051771Y0058075D03*
X0034771Y0066075D03*
X0024771Y0039075D03*
X0068771Y0020075D03*
X0074771Y0034075D03*
X0077771Y0034075D03*
X0080521Y0046825D03*
X0078771Y0053075D03*
X0106771Y0040075D03*
X0109771Y0040075D03*
X0150771Y0042075D03*
X0154771Y0047075D03*
X0154771Y0050075D03*
X0157771Y0050075D03*
X0157771Y0047075D03*
X0160771Y0047075D03*
X0160771Y0050075D03*
X0163771Y0050075D03*
X0163771Y0047075D03*
X0176771Y0058075D03*
X0190771Y0046075D03*
X0207771Y0030075D03*
X0212771Y0028825D03*
X0214771Y0040075D03*
X0234771Y0037075D03*
X0237771Y0032075D03*
X0247771Y0023075D03*
X0237771Y0016075D03*
X0225771Y0058075D03*
X0231771Y0059075D03*
X0237771Y0059075D03*
X0242771Y0072075D03*
X0214771Y0084075D03*
X0206771Y0072075D03*
X0189771Y0076075D03*
X0155771Y0095075D03*
X0155771Y0101075D03*
X0155771Y0106075D03*
X0140771Y0123075D03*
X0131771Y0125575D03*
X0126771Y0123075D03*
X0121771Y0126825D03*
X0122771Y0131075D03*
X0135521Y0134325D03*
X0145521Y0135575D03*
X0151771Y0139075D03*
X0156771Y0138075D03*
X0157771Y0129075D03*
X0154771Y0129075D03*
X0160771Y0129075D03*
X0163771Y0129075D03*
X0166771Y0129075D03*
X0178771Y0129075D03*
X0178771Y0119075D03*
X0201771Y0124075D03*
X0200771Y0154075D03*
X0204771Y0157075D03*
X0201771Y0171075D03*
X0178771Y0176075D03*
X0178771Y0166075D03*
X0166771Y0176075D03*
X0163771Y0176075D03*
X0160771Y0176075D03*
X0157771Y0176075D03*
X0154771Y0176075D03*
X0152771Y0182075D03*
X0144771Y0186575D03*
X0138771Y0192075D03*
X0121771Y0179075D03*
X0119771Y0172075D03*
X0123771Y0172075D03*
X0110771Y0180075D03*
X0101771Y0171825D03*
X0094771Y0172075D03*
X0090771Y0172075D03*
X0078771Y0183075D03*
X0078771Y0197075D03*
X0097771Y0203075D03*
X0095771Y0217075D03*
X0098771Y0225075D03*
X0109771Y0225075D03*
X0118771Y0229075D03*
X0144771Y0223075D03*
X0154771Y0223075D03*
X0157771Y0223075D03*
X0160771Y0223075D03*
X0163771Y0223075D03*
X0166771Y0223075D03*
X0174771Y0218075D03*
X0178771Y0223075D03*
X0178771Y0213075D03*
X0198771Y0231075D03*
X0201771Y0218075D03*
X0218771Y0231075D03*
X0247771Y0219075D03*
X0167771Y0185075D03*
X0142771Y0173075D03*
X0136771Y0167075D03*
X0134771Y0160075D03*
X0134771Y0157075D03*
X0134771Y0150075D03*
X0135771Y0147075D03*
X0123771Y0144075D03*
X0119771Y0144075D03*
X0115771Y0153075D03*
X0117771Y0156075D03*
X0124771Y0156075D03*
X0110771Y0153075D03*
X0106771Y0157075D03*
X0106771Y0161075D03*
X0101271Y0143825D03*
X0098372Y0140925D03*
X0093771Y0144075D03*
X0089771Y0144075D03*
X0078771Y0141075D03*
X0078771Y0132075D03*
X0078771Y0128075D03*
X0068771Y0120075D03*
X0068771Y0117075D03*
X0060771Y0130075D03*
X0075771Y0150075D03*
X0062771Y0155075D03*
X0065771Y0166075D03*
X0069771Y0166075D03*
X0100771Y0134575D03*
X0105021Y0135325D03*
X0106771Y0131075D03*
X0106771Y0127075D03*
X0103771Y0116075D03*
X0112771Y0116075D03*
X0116771Y0116075D03*
X0115771Y0107075D03*
X0099771Y0107075D03*
X0094771Y0128575D03*
X0133771Y0112075D03*
X0167271Y0145075D03*
X0155521Y0150575D03*
X0144771Y0157075D03*
X0075771Y0223075D03*
X0059771Y0225075D03*
X0059771Y0228075D03*
X0059771Y0231075D03*
X0059771Y0234075D03*
X0054771Y0203075D03*
X0157771Y0034075D03*
X0257771Y0100075D03*
M02*
