G75*
%MOIN*%
%OFA0B0*%
%FSLAX25Y25*%
%IPPOS*%
%LPD*%
%AMOC8*
5,1,8,0,0,1.08239X$1,22.5*
%
%ADD10C,0.00000*%
D10*
X0021771Y0024886D02*
X0021771Y0221736D01*
X0030039Y0219768D02*
X0030041Y0219916D01*
X0030047Y0220064D01*
X0030057Y0220212D01*
X0030071Y0220359D01*
X0030089Y0220506D01*
X0030110Y0220652D01*
X0030136Y0220798D01*
X0030166Y0220943D01*
X0030199Y0221087D01*
X0030237Y0221230D01*
X0030278Y0221372D01*
X0030323Y0221513D01*
X0030371Y0221653D01*
X0030424Y0221792D01*
X0030480Y0221929D01*
X0030540Y0222064D01*
X0030603Y0222198D01*
X0030670Y0222330D01*
X0030741Y0222460D01*
X0030815Y0222588D01*
X0030892Y0222714D01*
X0030973Y0222838D01*
X0031057Y0222960D01*
X0031144Y0223079D01*
X0031235Y0223196D01*
X0031329Y0223311D01*
X0031425Y0223423D01*
X0031525Y0223533D01*
X0031627Y0223639D01*
X0031733Y0223743D01*
X0031841Y0223844D01*
X0031952Y0223942D01*
X0032065Y0224038D01*
X0032181Y0224130D01*
X0032299Y0224219D01*
X0032420Y0224304D01*
X0032543Y0224387D01*
X0032668Y0224466D01*
X0032795Y0224542D01*
X0032924Y0224614D01*
X0033055Y0224683D01*
X0033188Y0224748D01*
X0033323Y0224809D01*
X0033459Y0224867D01*
X0033596Y0224922D01*
X0033735Y0224972D01*
X0033876Y0225019D01*
X0034017Y0225062D01*
X0034160Y0225102D01*
X0034304Y0225137D01*
X0034448Y0225169D01*
X0034594Y0225196D01*
X0034740Y0225220D01*
X0034887Y0225240D01*
X0035034Y0225256D01*
X0035181Y0225268D01*
X0035329Y0225276D01*
X0035477Y0225280D01*
X0035625Y0225280D01*
X0035773Y0225276D01*
X0035921Y0225268D01*
X0036068Y0225256D01*
X0036215Y0225240D01*
X0036362Y0225220D01*
X0036508Y0225196D01*
X0036654Y0225169D01*
X0036798Y0225137D01*
X0036942Y0225102D01*
X0037085Y0225062D01*
X0037226Y0225019D01*
X0037367Y0224972D01*
X0037506Y0224922D01*
X0037643Y0224867D01*
X0037779Y0224809D01*
X0037914Y0224748D01*
X0038047Y0224683D01*
X0038178Y0224614D01*
X0038307Y0224542D01*
X0038434Y0224466D01*
X0038559Y0224387D01*
X0038682Y0224304D01*
X0038803Y0224219D01*
X0038921Y0224130D01*
X0039037Y0224038D01*
X0039150Y0223942D01*
X0039261Y0223844D01*
X0039369Y0223743D01*
X0039475Y0223639D01*
X0039577Y0223533D01*
X0039677Y0223423D01*
X0039773Y0223311D01*
X0039867Y0223196D01*
X0039958Y0223079D01*
X0040045Y0222960D01*
X0040129Y0222838D01*
X0040210Y0222714D01*
X0040287Y0222588D01*
X0040361Y0222460D01*
X0040432Y0222330D01*
X0040499Y0222198D01*
X0040562Y0222064D01*
X0040622Y0221929D01*
X0040678Y0221792D01*
X0040731Y0221653D01*
X0040779Y0221513D01*
X0040824Y0221372D01*
X0040865Y0221230D01*
X0040903Y0221087D01*
X0040936Y0220943D01*
X0040966Y0220798D01*
X0040992Y0220652D01*
X0041013Y0220506D01*
X0041031Y0220359D01*
X0041045Y0220212D01*
X0041055Y0220064D01*
X0041061Y0219916D01*
X0041063Y0219768D01*
X0041061Y0219620D01*
X0041055Y0219472D01*
X0041045Y0219324D01*
X0041031Y0219177D01*
X0041013Y0219030D01*
X0040992Y0218884D01*
X0040966Y0218738D01*
X0040936Y0218593D01*
X0040903Y0218449D01*
X0040865Y0218306D01*
X0040824Y0218164D01*
X0040779Y0218023D01*
X0040731Y0217883D01*
X0040678Y0217744D01*
X0040622Y0217607D01*
X0040562Y0217472D01*
X0040499Y0217338D01*
X0040432Y0217206D01*
X0040361Y0217076D01*
X0040287Y0216948D01*
X0040210Y0216822D01*
X0040129Y0216698D01*
X0040045Y0216576D01*
X0039958Y0216457D01*
X0039867Y0216340D01*
X0039773Y0216225D01*
X0039677Y0216113D01*
X0039577Y0216003D01*
X0039475Y0215897D01*
X0039369Y0215793D01*
X0039261Y0215692D01*
X0039150Y0215594D01*
X0039037Y0215498D01*
X0038921Y0215406D01*
X0038803Y0215317D01*
X0038682Y0215232D01*
X0038559Y0215149D01*
X0038434Y0215070D01*
X0038307Y0214994D01*
X0038178Y0214922D01*
X0038047Y0214853D01*
X0037914Y0214788D01*
X0037779Y0214727D01*
X0037643Y0214669D01*
X0037506Y0214614D01*
X0037367Y0214564D01*
X0037226Y0214517D01*
X0037085Y0214474D01*
X0036942Y0214434D01*
X0036798Y0214399D01*
X0036654Y0214367D01*
X0036508Y0214340D01*
X0036362Y0214316D01*
X0036215Y0214296D01*
X0036068Y0214280D01*
X0035921Y0214268D01*
X0035773Y0214260D01*
X0035625Y0214256D01*
X0035477Y0214256D01*
X0035329Y0214260D01*
X0035181Y0214268D01*
X0035034Y0214280D01*
X0034887Y0214296D01*
X0034740Y0214316D01*
X0034594Y0214340D01*
X0034448Y0214367D01*
X0034304Y0214399D01*
X0034160Y0214434D01*
X0034017Y0214474D01*
X0033876Y0214517D01*
X0033735Y0214564D01*
X0033596Y0214614D01*
X0033459Y0214669D01*
X0033323Y0214727D01*
X0033188Y0214788D01*
X0033055Y0214853D01*
X0032924Y0214922D01*
X0032795Y0214994D01*
X0032668Y0215070D01*
X0032543Y0215149D01*
X0032420Y0215232D01*
X0032299Y0215317D01*
X0032181Y0215406D01*
X0032065Y0215498D01*
X0031952Y0215594D01*
X0031841Y0215692D01*
X0031733Y0215793D01*
X0031627Y0215897D01*
X0031525Y0216003D01*
X0031425Y0216113D01*
X0031329Y0216225D01*
X0031235Y0216340D01*
X0031144Y0216457D01*
X0031057Y0216576D01*
X0030973Y0216698D01*
X0030892Y0216822D01*
X0030815Y0216948D01*
X0030741Y0217076D01*
X0030670Y0217206D01*
X0030603Y0217338D01*
X0030540Y0217472D01*
X0030480Y0217607D01*
X0030424Y0217744D01*
X0030371Y0217883D01*
X0030323Y0218023D01*
X0030278Y0218164D01*
X0030237Y0218306D01*
X0030199Y0218449D01*
X0030166Y0218593D01*
X0030136Y0218738D01*
X0030110Y0218884D01*
X0030089Y0219030D01*
X0030071Y0219177D01*
X0030057Y0219324D01*
X0030047Y0219472D01*
X0030041Y0219620D01*
X0030039Y0219768D01*
X0021772Y0221736D02*
X0021777Y0222140D01*
X0021792Y0222544D01*
X0021816Y0222948D01*
X0021850Y0223351D01*
X0021894Y0223753D01*
X0021948Y0224154D01*
X0022011Y0224553D01*
X0022084Y0224951D01*
X0022166Y0225347D01*
X0022258Y0225740D01*
X0022360Y0226132D01*
X0022471Y0226520D01*
X0022591Y0226906D01*
X0022721Y0227289D01*
X0022859Y0227669D01*
X0023007Y0228046D01*
X0023164Y0228418D01*
X0023330Y0228787D01*
X0023505Y0229151D01*
X0023689Y0229512D01*
X0023881Y0229867D01*
X0024082Y0230218D01*
X0024291Y0230564D01*
X0024508Y0230905D01*
X0024734Y0231241D01*
X0024968Y0231571D01*
X0025209Y0231895D01*
X0025458Y0232213D01*
X0025715Y0232525D01*
X0025980Y0232831D01*
X0026252Y0233131D01*
X0026531Y0233423D01*
X0026817Y0233709D01*
X0027109Y0233988D01*
X0027409Y0234260D01*
X0027715Y0234525D01*
X0028027Y0234782D01*
X0028345Y0235031D01*
X0028669Y0235272D01*
X0028999Y0235506D01*
X0029335Y0235732D01*
X0029676Y0235949D01*
X0030022Y0236158D01*
X0030373Y0236359D01*
X0030728Y0236551D01*
X0031089Y0236735D01*
X0031453Y0236910D01*
X0031822Y0237076D01*
X0032194Y0237233D01*
X0032571Y0237381D01*
X0032951Y0237519D01*
X0033334Y0237649D01*
X0033720Y0237769D01*
X0034108Y0237880D01*
X0034500Y0237982D01*
X0034893Y0238074D01*
X0035289Y0238156D01*
X0035687Y0238229D01*
X0036086Y0238292D01*
X0036487Y0238346D01*
X0036889Y0238390D01*
X0037292Y0238424D01*
X0037696Y0238448D01*
X0038100Y0238463D01*
X0038504Y0238468D01*
X0038504Y0238469D02*
X0260945Y0238469D01*
X0260945Y0238468D02*
X0261349Y0238463D01*
X0261753Y0238448D01*
X0262157Y0238424D01*
X0262560Y0238390D01*
X0262962Y0238346D01*
X0263363Y0238292D01*
X0263762Y0238229D01*
X0264160Y0238156D01*
X0264556Y0238074D01*
X0264949Y0237982D01*
X0265341Y0237880D01*
X0265729Y0237769D01*
X0266115Y0237649D01*
X0266498Y0237519D01*
X0266878Y0237381D01*
X0267255Y0237233D01*
X0267627Y0237076D01*
X0267996Y0236910D01*
X0268360Y0236735D01*
X0268721Y0236551D01*
X0269076Y0236359D01*
X0269427Y0236158D01*
X0269773Y0235949D01*
X0270114Y0235732D01*
X0270450Y0235506D01*
X0270780Y0235272D01*
X0271104Y0235031D01*
X0271422Y0234782D01*
X0271734Y0234525D01*
X0272040Y0234260D01*
X0272340Y0233988D01*
X0272632Y0233709D01*
X0272918Y0233423D01*
X0273197Y0233131D01*
X0273469Y0232831D01*
X0273734Y0232525D01*
X0273991Y0232213D01*
X0274240Y0231895D01*
X0274481Y0231571D01*
X0274715Y0231241D01*
X0274941Y0230905D01*
X0275158Y0230564D01*
X0275367Y0230218D01*
X0275568Y0229867D01*
X0275760Y0229512D01*
X0275944Y0229151D01*
X0276119Y0228787D01*
X0276285Y0228418D01*
X0276442Y0228046D01*
X0276590Y0227669D01*
X0276728Y0227289D01*
X0276858Y0226906D01*
X0276978Y0226520D01*
X0277089Y0226132D01*
X0277191Y0225740D01*
X0277283Y0225347D01*
X0277365Y0224951D01*
X0277438Y0224553D01*
X0277501Y0224154D01*
X0277555Y0223753D01*
X0277599Y0223351D01*
X0277633Y0222948D01*
X0277657Y0222544D01*
X0277672Y0222140D01*
X0277677Y0221736D01*
X0277677Y0024886D01*
X0277674Y0024601D01*
X0277663Y0024315D01*
X0277646Y0024030D01*
X0277622Y0023746D01*
X0277591Y0023462D01*
X0277553Y0023179D01*
X0277508Y0022898D01*
X0277457Y0022617D01*
X0277399Y0022337D01*
X0277334Y0022059D01*
X0277262Y0021783D01*
X0277184Y0021509D01*
X0277099Y0021236D01*
X0277007Y0020966D01*
X0276909Y0020698D01*
X0276805Y0020432D01*
X0276694Y0020169D01*
X0276577Y0019909D01*
X0276454Y0019651D01*
X0276324Y0019397D01*
X0276188Y0019146D01*
X0276047Y0018898D01*
X0275899Y0018654D01*
X0275746Y0018413D01*
X0275586Y0018177D01*
X0275421Y0017944D01*
X0275251Y0017715D01*
X0275075Y0017490D01*
X0274893Y0017270D01*
X0274707Y0017054D01*
X0274515Y0016843D01*
X0274318Y0016636D01*
X0274116Y0016434D01*
X0273909Y0016237D01*
X0273698Y0016045D01*
X0273482Y0015859D01*
X0273262Y0015677D01*
X0273037Y0015501D01*
X0272808Y0015331D01*
X0272575Y0015166D01*
X0272339Y0015006D01*
X0272098Y0014853D01*
X0271854Y0014705D01*
X0271606Y0014564D01*
X0271355Y0014428D01*
X0271101Y0014298D01*
X0270843Y0014175D01*
X0270583Y0014058D01*
X0270320Y0013947D01*
X0270054Y0013843D01*
X0269786Y0013745D01*
X0269516Y0013653D01*
X0269243Y0013568D01*
X0268969Y0013490D01*
X0268693Y0013418D01*
X0268415Y0013353D01*
X0268135Y0013295D01*
X0267854Y0013244D01*
X0267573Y0013199D01*
X0267290Y0013161D01*
X0267006Y0013130D01*
X0266722Y0013106D01*
X0266437Y0013089D01*
X0266151Y0013078D01*
X0265866Y0013075D01*
X0207992Y0013075D01*
X0207868Y0013077D01*
X0207745Y0013083D01*
X0207621Y0013092D01*
X0207499Y0013106D01*
X0207376Y0013123D01*
X0207254Y0013145D01*
X0207133Y0013170D01*
X0207013Y0013199D01*
X0206894Y0013231D01*
X0206775Y0013268D01*
X0206658Y0013308D01*
X0206543Y0013351D01*
X0206428Y0013399D01*
X0206316Y0013450D01*
X0206205Y0013504D01*
X0206095Y0013562D01*
X0205988Y0013623D01*
X0205882Y0013688D01*
X0205779Y0013756D01*
X0205678Y0013827D01*
X0205579Y0013901D01*
X0205482Y0013978D01*
X0205388Y0014059D01*
X0205297Y0014142D01*
X0205208Y0014228D01*
X0205122Y0014317D01*
X0205039Y0014408D01*
X0204958Y0014502D01*
X0204881Y0014599D01*
X0204807Y0014698D01*
X0204736Y0014799D01*
X0204668Y0014902D01*
X0204603Y0015008D01*
X0204542Y0015115D01*
X0204484Y0015225D01*
X0204430Y0015336D01*
X0204379Y0015448D01*
X0204331Y0015563D01*
X0204288Y0015678D01*
X0204248Y0015795D01*
X0204211Y0015914D01*
X0204179Y0016033D01*
X0204150Y0016153D01*
X0204125Y0016274D01*
X0204103Y0016396D01*
X0204086Y0016519D01*
X0204072Y0016641D01*
X0204063Y0016765D01*
X0204057Y0016888D01*
X0204055Y0017012D01*
X0204055Y0087878D01*
X0204053Y0088002D01*
X0204047Y0088125D01*
X0204038Y0088249D01*
X0204024Y0088371D01*
X0204007Y0088494D01*
X0203985Y0088616D01*
X0203960Y0088737D01*
X0203931Y0088857D01*
X0203899Y0088976D01*
X0203862Y0089095D01*
X0203822Y0089212D01*
X0203779Y0089327D01*
X0203731Y0089442D01*
X0203680Y0089554D01*
X0203626Y0089665D01*
X0203568Y0089775D01*
X0203507Y0089882D01*
X0203442Y0089988D01*
X0203374Y0090091D01*
X0203303Y0090192D01*
X0203229Y0090291D01*
X0203152Y0090388D01*
X0203071Y0090482D01*
X0202988Y0090573D01*
X0202902Y0090662D01*
X0202813Y0090748D01*
X0202722Y0090831D01*
X0202628Y0090912D01*
X0202531Y0090989D01*
X0202432Y0091063D01*
X0202331Y0091134D01*
X0202228Y0091202D01*
X0202122Y0091267D01*
X0202015Y0091328D01*
X0201905Y0091386D01*
X0201794Y0091440D01*
X0201682Y0091491D01*
X0201567Y0091539D01*
X0201452Y0091582D01*
X0201335Y0091622D01*
X0201216Y0091659D01*
X0201097Y0091691D01*
X0200977Y0091720D01*
X0200856Y0091745D01*
X0200734Y0091767D01*
X0200611Y0091784D01*
X0200489Y0091798D01*
X0200365Y0091807D01*
X0200242Y0091813D01*
X0200118Y0091815D01*
X0197756Y0091815D01*
X0197632Y0091813D01*
X0197509Y0091807D01*
X0197385Y0091798D01*
X0197263Y0091784D01*
X0197140Y0091767D01*
X0197018Y0091745D01*
X0196897Y0091720D01*
X0196777Y0091691D01*
X0196658Y0091659D01*
X0196539Y0091622D01*
X0196422Y0091582D01*
X0196307Y0091539D01*
X0196192Y0091491D01*
X0196080Y0091440D01*
X0195969Y0091386D01*
X0195859Y0091328D01*
X0195752Y0091267D01*
X0195646Y0091202D01*
X0195543Y0091134D01*
X0195442Y0091063D01*
X0195343Y0090989D01*
X0195246Y0090912D01*
X0195152Y0090831D01*
X0195061Y0090748D01*
X0194972Y0090662D01*
X0194886Y0090573D01*
X0194803Y0090482D01*
X0194722Y0090388D01*
X0194645Y0090291D01*
X0194571Y0090192D01*
X0194500Y0090091D01*
X0194432Y0089988D01*
X0194367Y0089882D01*
X0194306Y0089775D01*
X0194248Y0089665D01*
X0194194Y0089554D01*
X0194143Y0089442D01*
X0194095Y0089327D01*
X0194052Y0089212D01*
X0194012Y0089095D01*
X0193975Y0088976D01*
X0193943Y0088857D01*
X0193914Y0088737D01*
X0193889Y0088616D01*
X0193867Y0088494D01*
X0193850Y0088371D01*
X0193836Y0088249D01*
X0193827Y0088125D01*
X0193821Y0088002D01*
X0193819Y0087878D01*
X0193819Y0017012D01*
X0193817Y0016888D01*
X0193811Y0016765D01*
X0193802Y0016641D01*
X0193788Y0016519D01*
X0193771Y0016396D01*
X0193749Y0016274D01*
X0193724Y0016153D01*
X0193695Y0016033D01*
X0193663Y0015914D01*
X0193626Y0015795D01*
X0193586Y0015678D01*
X0193543Y0015563D01*
X0193495Y0015448D01*
X0193444Y0015336D01*
X0193390Y0015225D01*
X0193332Y0015115D01*
X0193271Y0015008D01*
X0193206Y0014902D01*
X0193138Y0014799D01*
X0193067Y0014698D01*
X0192993Y0014599D01*
X0192916Y0014502D01*
X0192835Y0014408D01*
X0192752Y0014317D01*
X0192666Y0014228D01*
X0192577Y0014142D01*
X0192486Y0014059D01*
X0192392Y0013978D01*
X0192295Y0013901D01*
X0192196Y0013827D01*
X0192095Y0013756D01*
X0191992Y0013688D01*
X0191886Y0013623D01*
X0191779Y0013562D01*
X0191669Y0013504D01*
X0191558Y0013450D01*
X0191446Y0013399D01*
X0191331Y0013351D01*
X0191216Y0013308D01*
X0191099Y0013268D01*
X0190980Y0013231D01*
X0190861Y0013199D01*
X0190741Y0013170D01*
X0190620Y0013145D01*
X0190498Y0013123D01*
X0190375Y0013106D01*
X0190253Y0013092D01*
X0190129Y0013083D01*
X0190006Y0013077D01*
X0189882Y0013075D01*
X0033582Y0013075D01*
X0033297Y0013078D01*
X0033011Y0013089D01*
X0032726Y0013106D01*
X0032442Y0013130D01*
X0032158Y0013161D01*
X0031875Y0013199D01*
X0031594Y0013244D01*
X0031313Y0013295D01*
X0031033Y0013353D01*
X0030755Y0013418D01*
X0030479Y0013490D01*
X0030205Y0013568D01*
X0029932Y0013653D01*
X0029662Y0013745D01*
X0029394Y0013843D01*
X0029128Y0013947D01*
X0028865Y0014058D01*
X0028605Y0014175D01*
X0028347Y0014298D01*
X0028093Y0014428D01*
X0027842Y0014564D01*
X0027594Y0014705D01*
X0027350Y0014853D01*
X0027109Y0015006D01*
X0026873Y0015166D01*
X0026640Y0015331D01*
X0026411Y0015501D01*
X0026186Y0015677D01*
X0025966Y0015859D01*
X0025750Y0016045D01*
X0025539Y0016237D01*
X0025332Y0016434D01*
X0025130Y0016636D01*
X0024933Y0016843D01*
X0024741Y0017054D01*
X0024555Y0017270D01*
X0024373Y0017490D01*
X0024197Y0017715D01*
X0024027Y0017944D01*
X0023862Y0018177D01*
X0023702Y0018413D01*
X0023549Y0018654D01*
X0023401Y0018898D01*
X0023260Y0019146D01*
X0023124Y0019397D01*
X0022994Y0019651D01*
X0022871Y0019909D01*
X0022754Y0020169D01*
X0022643Y0020432D01*
X0022539Y0020698D01*
X0022441Y0020966D01*
X0022349Y0021236D01*
X0022264Y0021509D01*
X0022186Y0021783D01*
X0022114Y0022059D01*
X0022049Y0022337D01*
X0021991Y0022617D01*
X0021940Y0022898D01*
X0021895Y0023179D01*
X0021857Y0023462D01*
X0021826Y0023746D01*
X0021802Y0024030D01*
X0021785Y0024315D01*
X0021774Y0024601D01*
X0021771Y0024886D01*
X0030039Y0026854D02*
X0030041Y0027002D01*
X0030047Y0027150D01*
X0030057Y0027298D01*
X0030071Y0027445D01*
X0030089Y0027592D01*
X0030110Y0027738D01*
X0030136Y0027884D01*
X0030166Y0028029D01*
X0030199Y0028173D01*
X0030237Y0028316D01*
X0030278Y0028458D01*
X0030323Y0028599D01*
X0030371Y0028739D01*
X0030424Y0028878D01*
X0030480Y0029015D01*
X0030540Y0029150D01*
X0030603Y0029284D01*
X0030670Y0029416D01*
X0030741Y0029546D01*
X0030815Y0029674D01*
X0030892Y0029800D01*
X0030973Y0029924D01*
X0031057Y0030046D01*
X0031144Y0030165D01*
X0031235Y0030282D01*
X0031329Y0030397D01*
X0031425Y0030509D01*
X0031525Y0030619D01*
X0031627Y0030725D01*
X0031733Y0030829D01*
X0031841Y0030930D01*
X0031952Y0031028D01*
X0032065Y0031124D01*
X0032181Y0031216D01*
X0032299Y0031305D01*
X0032420Y0031390D01*
X0032543Y0031473D01*
X0032668Y0031552D01*
X0032795Y0031628D01*
X0032924Y0031700D01*
X0033055Y0031769D01*
X0033188Y0031834D01*
X0033323Y0031895D01*
X0033459Y0031953D01*
X0033596Y0032008D01*
X0033735Y0032058D01*
X0033876Y0032105D01*
X0034017Y0032148D01*
X0034160Y0032188D01*
X0034304Y0032223D01*
X0034448Y0032255D01*
X0034594Y0032282D01*
X0034740Y0032306D01*
X0034887Y0032326D01*
X0035034Y0032342D01*
X0035181Y0032354D01*
X0035329Y0032362D01*
X0035477Y0032366D01*
X0035625Y0032366D01*
X0035773Y0032362D01*
X0035921Y0032354D01*
X0036068Y0032342D01*
X0036215Y0032326D01*
X0036362Y0032306D01*
X0036508Y0032282D01*
X0036654Y0032255D01*
X0036798Y0032223D01*
X0036942Y0032188D01*
X0037085Y0032148D01*
X0037226Y0032105D01*
X0037367Y0032058D01*
X0037506Y0032008D01*
X0037643Y0031953D01*
X0037779Y0031895D01*
X0037914Y0031834D01*
X0038047Y0031769D01*
X0038178Y0031700D01*
X0038307Y0031628D01*
X0038434Y0031552D01*
X0038559Y0031473D01*
X0038682Y0031390D01*
X0038803Y0031305D01*
X0038921Y0031216D01*
X0039037Y0031124D01*
X0039150Y0031028D01*
X0039261Y0030930D01*
X0039369Y0030829D01*
X0039475Y0030725D01*
X0039577Y0030619D01*
X0039677Y0030509D01*
X0039773Y0030397D01*
X0039867Y0030282D01*
X0039958Y0030165D01*
X0040045Y0030046D01*
X0040129Y0029924D01*
X0040210Y0029800D01*
X0040287Y0029674D01*
X0040361Y0029546D01*
X0040432Y0029416D01*
X0040499Y0029284D01*
X0040562Y0029150D01*
X0040622Y0029015D01*
X0040678Y0028878D01*
X0040731Y0028739D01*
X0040779Y0028599D01*
X0040824Y0028458D01*
X0040865Y0028316D01*
X0040903Y0028173D01*
X0040936Y0028029D01*
X0040966Y0027884D01*
X0040992Y0027738D01*
X0041013Y0027592D01*
X0041031Y0027445D01*
X0041045Y0027298D01*
X0041055Y0027150D01*
X0041061Y0027002D01*
X0041063Y0026854D01*
X0041061Y0026706D01*
X0041055Y0026558D01*
X0041045Y0026410D01*
X0041031Y0026263D01*
X0041013Y0026116D01*
X0040992Y0025970D01*
X0040966Y0025824D01*
X0040936Y0025679D01*
X0040903Y0025535D01*
X0040865Y0025392D01*
X0040824Y0025250D01*
X0040779Y0025109D01*
X0040731Y0024969D01*
X0040678Y0024830D01*
X0040622Y0024693D01*
X0040562Y0024558D01*
X0040499Y0024424D01*
X0040432Y0024292D01*
X0040361Y0024162D01*
X0040287Y0024034D01*
X0040210Y0023908D01*
X0040129Y0023784D01*
X0040045Y0023662D01*
X0039958Y0023543D01*
X0039867Y0023426D01*
X0039773Y0023311D01*
X0039677Y0023199D01*
X0039577Y0023089D01*
X0039475Y0022983D01*
X0039369Y0022879D01*
X0039261Y0022778D01*
X0039150Y0022680D01*
X0039037Y0022584D01*
X0038921Y0022492D01*
X0038803Y0022403D01*
X0038682Y0022318D01*
X0038559Y0022235D01*
X0038434Y0022156D01*
X0038307Y0022080D01*
X0038178Y0022008D01*
X0038047Y0021939D01*
X0037914Y0021874D01*
X0037779Y0021813D01*
X0037643Y0021755D01*
X0037506Y0021700D01*
X0037367Y0021650D01*
X0037226Y0021603D01*
X0037085Y0021560D01*
X0036942Y0021520D01*
X0036798Y0021485D01*
X0036654Y0021453D01*
X0036508Y0021426D01*
X0036362Y0021402D01*
X0036215Y0021382D01*
X0036068Y0021366D01*
X0035921Y0021354D01*
X0035773Y0021346D01*
X0035625Y0021342D01*
X0035477Y0021342D01*
X0035329Y0021346D01*
X0035181Y0021354D01*
X0035034Y0021366D01*
X0034887Y0021382D01*
X0034740Y0021402D01*
X0034594Y0021426D01*
X0034448Y0021453D01*
X0034304Y0021485D01*
X0034160Y0021520D01*
X0034017Y0021560D01*
X0033876Y0021603D01*
X0033735Y0021650D01*
X0033596Y0021700D01*
X0033459Y0021755D01*
X0033323Y0021813D01*
X0033188Y0021874D01*
X0033055Y0021939D01*
X0032924Y0022008D01*
X0032795Y0022080D01*
X0032668Y0022156D01*
X0032543Y0022235D01*
X0032420Y0022318D01*
X0032299Y0022403D01*
X0032181Y0022492D01*
X0032065Y0022584D01*
X0031952Y0022680D01*
X0031841Y0022778D01*
X0031733Y0022879D01*
X0031627Y0022983D01*
X0031525Y0023089D01*
X0031425Y0023199D01*
X0031329Y0023311D01*
X0031235Y0023426D01*
X0031144Y0023543D01*
X0031057Y0023662D01*
X0030973Y0023784D01*
X0030892Y0023908D01*
X0030815Y0024034D01*
X0030741Y0024162D01*
X0030670Y0024292D01*
X0030603Y0024424D01*
X0030540Y0024558D01*
X0030480Y0024693D01*
X0030424Y0024830D01*
X0030371Y0024969D01*
X0030323Y0025109D01*
X0030278Y0025250D01*
X0030237Y0025392D01*
X0030199Y0025535D01*
X0030166Y0025679D01*
X0030136Y0025824D01*
X0030110Y0025970D01*
X0030089Y0026116D01*
X0030071Y0026263D01*
X0030057Y0026410D01*
X0030047Y0026558D01*
X0030041Y0026706D01*
X0030039Y0026854D01*
X0025295Y0049075D02*
X0025297Y0049152D01*
X0025303Y0049228D01*
X0025313Y0049304D01*
X0025327Y0049379D01*
X0025344Y0049454D01*
X0025366Y0049527D01*
X0025391Y0049600D01*
X0025421Y0049671D01*
X0025453Y0049740D01*
X0025490Y0049807D01*
X0025529Y0049873D01*
X0025572Y0049936D01*
X0025619Y0049997D01*
X0025668Y0050056D01*
X0025721Y0050112D01*
X0025776Y0050165D01*
X0025834Y0050215D01*
X0025894Y0050262D01*
X0025957Y0050306D01*
X0026022Y0050347D01*
X0026089Y0050384D01*
X0026158Y0050418D01*
X0026228Y0050448D01*
X0026300Y0050474D01*
X0026374Y0050496D01*
X0026448Y0050515D01*
X0026523Y0050530D01*
X0026599Y0050541D01*
X0026675Y0050548D01*
X0026752Y0050551D01*
X0026828Y0050550D01*
X0026905Y0050545D01*
X0026981Y0050536D01*
X0027057Y0050523D01*
X0027131Y0050506D01*
X0027205Y0050486D01*
X0027278Y0050461D01*
X0027349Y0050433D01*
X0027419Y0050401D01*
X0027487Y0050366D01*
X0027553Y0050327D01*
X0027617Y0050285D01*
X0027678Y0050239D01*
X0027738Y0050190D01*
X0027794Y0050139D01*
X0027848Y0050084D01*
X0027899Y0050027D01*
X0027947Y0049967D01*
X0027992Y0049905D01*
X0028033Y0049840D01*
X0028071Y0049774D01*
X0028106Y0049706D01*
X0028136Y0049635D01*
X0028164Y0049564D01*
X0028187Y0049491D01*
X0028207Y0049417D01*
X0028223Y0049342D01*
X0028235Y0049266D01*
X0028243Y0049190D01*
X0028247Y0049113D01*
X0028247Y0049037D01*
X0028243Y0048960D01*
X0028235Y0048884D01*
X0028223Y0048808D01*
X0028207Y0048733D01*
X0028187Y0048659D01*
X0028164Y0048586D01*
X0028136Y0048515D01*
X0028106Y0048444D01*
X0028071Y0048376D01*
X0028033Y0048310D01*
X0027992Y0048245D01*
X0027947Y0048183D01*
X0027899Y0048123D01*
X0027848Y0048066D01*
X0027794Y0048011D01*
X0027738Y0047960D01*
X0027678Y0047911D01*
X0027617Y0047865D01*
X0027553Y0047823D01*
X0027487Y0047784D01*
X0027419Y0047749D01*
X0027349Y0047717D01*
X0027278Y0047689D01*
X0027205Y0047664D01*
X0027131Y0047644D01*
X0027057Y0047627D01*
X0026981Y0047614D01*
X0026905Y0047605D01*
X0026828Y0047600D01*
X0026752Y0047599D01*
X0026675Y0047602D01*
X0026599Y0047609D01*
X0026523Y0047620D01*
X0026448Y0047635D01*
X0026374Y0047654D01*
X0026300Y0047676D01*
X0026228Y0047702D01*
X0026158Y0047732D01*
X0026089Y0047766D01*
X0026022Y0047803D01*
X0025957Y0047844D01*
X0025894Y0047888D01*
X0025834Y0047935D01*
X0025776Y0047985D01*
X0025721Y0048038D01*
X0025668Y0048094D01*
X0025619Y0048153D01*
X0025572Y0048214D01*
X0025529Y0048277D01*
X0025490Y0048343D01*
X0025453Y0048410D01*
X0025421Y0048479D01*
X0025391Y0048550D01*
X0025366Y0048623D01*
X0025344Y0048696D01*
X0025327Y0048771D01*
X0025313Y0048846D01*
X0025303Y0048922D01*
X0025297Y0048998D01*
X0025295Y0049075D01*
X0038326Y0079528D02*
X0038328Y0079619D01*
X0038334Y0079709D01*
X0038344Y0079800D01*
X0038358Y0079889D01*
X0038376Y0079978D01*
X0038397Y0080067D01*
X0038423Y0080154D01*
X0038452Y0080240D01*
X0038486Y0080324D01*
X0038522Y0080407D01*
X0038563Y0080489D01*
X0038607Y0080568D01*
X0038654Y0080646D01*
X0038705Y0080721D01*
X0038759Y0080794D01*
X0038816Y0080864D01*
X0038876Y0080932D01*
X0038939Y0080998D01*
X0039005Y0081060D01*
X0039074Y0081119D01*
X0039145Y0081176D01*
X0039219Y0081229D01*
X0039295Y0081279D01*
X0039373Y0081326D01*
X0039453Y0081369D01*
X0039534Y0081408D01*
X0039618Y0081444D01*
X0039703Y0081476D01*
X0039789Y0081505D01*
X0039876Y0081529D01*
X0039965Y0081550D01*
X0040054Y0081567D01*
X0040144Y0081580D01*
X0040234Y0081589D01*
X0040325Y0081594D01*
X0040416Y0081595D01*
X0040506Y0081592D01*
X0040597Y0081585D01*
X0040687Y0081574D01*
X0040777Y0081559D01*
X0040866Y0081540D01*
X0040954Y0081518D01*
X0041040Y0081491D01*
X0041126Y0081461D01*
X0041210Y0081427D01*
X0041293Y0081389D01*
X0041374Y0081348D01*
X0041453Y0081303D01*
X0041530Y0081254D01*
X0041604Y0081203D01*
X0041677Y0081148D01*
X0041747Y0081090D01*
X0041814Y0081029D01*
X0041878Y0080965D01*
X0041940Y0080899D01*
X0041999Y0080829D01*
X0042054Y0080758D01*
X0042107Y0080683D01*
X0042156Y0080607D01*
X0042202Y0080529D01*
X0042244Y0080448D01*
X0042283Y0080366D01*
X0042318Y0080282D01*
X0042349Y0080197D01*
X0042376Y0080110D01*
X0042400Y0080023D01*
X0042420Y0079934D01*
X0042436Y0079845D01*
X0042448Y0079755D01*
X0042456Y0079664D01*
X0042460Y0079573D01*
X0042460Y0079483D01*
X0042456Y0079392D01*
X0042448Y0079301D01*
X0042436Y0079211D01*
X0042420Y0079122D01*
X0042400Y0079033D01*
X0042376Y0078946D01*
X0042349Y0078859D01*
X0042318Y0078774D01*
X0042283Y0078690D01*
X0042244Y0078608D01*
X0042202Y0078527D01*
X0042156Y0078449D01*
X0042107Y0078373D01*
X0042054Y0078298D01*
X0041999Y0078227D01*
X0041940Y0078157D01*
X0041878Y0078091D01*
X0041814Y0078027D01*
X0041747Y0077966D01*
X0041677Y0077908D01*
X0041604Y0077853D01*
X0041530Y0077802D01*
X0041453Y0077753D01*
X0041374Y0077708D01*
X0041293Y0077667D01*
X0041210Y0077629D01*
X0041126Y0077595D01*
X0041040Y0077565D01*
X0040954Y0077538D01*
X0040866Y0077516D01*
X0040777Y0077497D01*
X0040687Y0077482D01*
X0040597Y0077471D01*
X0040506Y0077464D01*
X0040416Y0077461D01*
X0040325Y0077462D01*
X0040234Y0077467D01*
X0040144Y0077476D01*
X0040054Y0077489D01*
X0039965Y0077506D01*
X0039876Y0077527D01*
X0039789Y0077551D01*
X0039703Y0077580D01*
X0039618Y0077612D01*
X0039534Y0077648D01*
X0039453Y0077687D01*
X0039373Y0077730D01*
X0039295Y0077777D01*
X0039219Y0077827D01*
X0039145Y0077880D01*
X0039074Y0077937D01*
X0039005Y0077996D01*
X0038939Y0078058D01*
X0038876Y0078124D01*
X0038816Y0078192D01*
X0038759Y0078262D01*
X0038705Y0078335D01*
X0038654Y0078410D01*
X0038607Y0078488D01*
X0038563Y0078567D01*
X0038522Y0078649D01*
X0038486Y0078732D01*
X0038452Y0078816D01*
X0038423Y0078902D01*
X0038397Y0078989D01*
X0038376Y0079078D01*
X0038358Y0079167D01*
X0038344Y0079256D01*
X0038334Y0079347D01*
X0038328Y0079437D01*
X0038326Y0079528D01*
X0038326Y0098622D02*
X0038328Y0098713D01*
X0038334Y0098803D01*
X0038344Y0098894D01*
X0038358Y0098983D01*
X0038376Y0099072D01*
X0038397Y0099161D01*
X0038423Y0099248D01*
X0038452Y0099334D01*
X0038486Y0099418D01*
X0038522Y0099501D01*
X0038563Y0099583D01*
X0038607Y0099662D01*
X0038654Y0099740D01*
X0038705Y0099815D01*
X0038759Y0099888D01*
X0038816Y0099958D01*
X0038876Y0100026D01*
X0038939Y0100092D01*
X0039005Y0100154D01*
X0039074Y0100213D01*
X0039145Y0100270D01*
X0039219Y0100323D01*
X0039295Y0100373D01*
X0039373Y0100420D01*
X0039453Y0100463D01*
X0039534Y0100502D01*
X0039618Y0100538D01*
X0039703Y0100570D01*
X0039789Y0100599D01*
X0039876Y0100623D01*
X0039965Y0100644D01*
X0040054Y0100661D01*
X0040144Y0100674D01*
X0040234Y0100683D01*
X0040325Y0100688D01*
X0040416Y0100689D01*
X0040506Y0100686D01*
X0040597Y0100679D01*
X0040687Y0100668D01*
X0040777Y0100653D01*
X0040866Y0100634D01*
X0040954Y0100612D01*
X0041040Y0100585D01*
X0041126Y0100555D01*
X0041210Y0100521D01*
X0041293Y0100483D01*
X0041374Y0100442D01*
X0041453Y0100397D01*
X0041530Y0100348D01*
X0041604Y0100297D01*
X0041677Y0100242D01*
X0041747Y0100184D01*
X0041814Y0100123D01*
X0041878Y0100059D01*
X0041940Y0099993D01*
X0041999Y0099923D01*
X0042054Y0099852D01*
X0042107Y0099777D01*
X0042156Y0099701D01*
X0042202Y0099623D01*
X0042244Y0099542D01*
X0042283Y0099460D01*
X0042318Y0099376D01*
X0042349Y0099291D01*
X0042376Y0099204D01*
X0042400Y0099117D01*
X0042420Y0099028D01*
X0042436Y0098939D01*
X0042448Y0098849D01*
X0042456Y0098758D01*
X0042460Y0098667D01*
X0042460Y0098577D01*
X0042456Y0098486D01*
X0042448Y0098395D01*
X0042436Y0098305D01*
X0042420Y0098216D01*
X0042400Y0098127D01*
X0042376Y0098040D01*
X0042349Y0097953D01*
X0042318Y0097868D01*
X0042283Y0097784D01*
X0042244Y0097702D01*
X0042202Y0097621D01*
X0042156Y0097543D01*
X0042107Y0097467D01*
X0042054Y0097392D01*
X0041999Y0097321D01*
X0041940Y0097251D01*
X0041878Y0097185D01*
X0041814Y0097121D01*
X0041747Y0097060D01*
X0041677Y0097002D01*
X0041604Y0096947D01*
X0041530Y0096896D01*
X0041453Y0096847D01*
X0041374Y0096802D01*
X0041293Y0096761D01*
X0041210Y0096723D01*
X0041126Y0096689D01*
X0041040Y0096659D01*
X0040954Y0096632D01*
X0040866Y0096610D01*
X0040777Y0096591D01*
X0040687Y0096576D01*
X0040597Y0096565D01*
X0040506Y0096558D01*
X0040416Y0096555D01*
X0040325Y0096556D01*
X0040234Y0096561D01*
X0040144Y0096570D01*
X0040054Y0096583D01*
X0039965Y0096600D01*
X0039876Y0096621D01*
X0039789Y0096645D01*
X0039703Y0096674D01*
X0039618Y0096706D01*
X0039534Y0096742D01*
X0039453Y0096781D01*
X0039373Y0096824D01*
X0039295Y0096871D01*
X0039219Y0096921D01*
X0039145Y0096974D01*
X0039074Y0097031D01*
X0039005Y0097090D01*
X0038939Y0097152D01*
X0038876Y0097218D01*
X0038816Y0097286D01*
X0038759Y0097356D01*
X0038705Y0097429D01*
X0038654Y0097504D01*
X0038607Y0097582D01*
X0038563Y0097661D01*
X0038522Y0097743D01*
X0038486Y0097826D01*
X0038452Y0097910D01*
X0038423Y0097996D01*
X0038397Y0098083D01*
X0038376Y0098172D01*
X0038358Y0098261D01*
X0038344Y0098350D01*
X0038334Y0098441D01*
X0038328Y0098531D01*
X0038326Y0098622D01*
X0076511Y0025555D02*
X0076513Y0025689D01*
X0076519Y0025823D01*
X0076529Y0025957D01*
X0076543Y0026091D01*
X0076561Y0026224D01*
X0076582Y0026356D01*
X0076608Y0026488D01*
X0076638Y0026619D01*
X0076671Y0026749D01*
X0076708Y0026877D01*
X0076750Y0027005D01*
X0076794Y0027132D01*
X0076843Y0027257D01*
X0076895Y0027380D01*
X0076951Y0027502D01*
X0077011Y0027623D01*
X0077074Y0027741D01*
X0077140Y0027858D01*
X0077210Y0027972D01*
X0077283Y0028085D01*
X0077360Y0028195D01*
X0077440Y0028303D01*
X0077523Y0028408D01*
X0077609Y0028511D01*
X0077698Y0028611D01*
X0077790Y0028709D01*
X0077885Y0028804D01*
X0077983Y0028896D01*
X0078083Y0028985D01*
X0078186Y0029071D01*
X0078291Y0029154D01*
X0078399Y0029234D01*
X0078509Y0029311D01*
X0078622Y0029384D01*
X0078736Y0029454D01*
X0078853Y0029520D01*
X0078971Y0029583D01*
X0079092Y0029643D01*
X0079214Y0029699D01*
X0079337Y0029751D01*
X0079462Y0029800D01*
X0079589Y0029844D01*
X0079717Y0029886D01*
X0079845Y0029923D01*
X0079975Y0029956D01*
X0080106Y0029986D01*
X0080238Y0030012D01*
X0080370Y0030033D01*
X0080503Y0030051D01*
X0080637Y0030065D01*
X0080771Y0030075D01*
X0080905Y0030081D01*
X0081039Y0030083D01*
X0081173Y0030081D01*
X0081307Y0030075D01*
X0081441Y0030065D01*
X0081575Y0030051D01*
X0081708Y0030033D01*
X0081840Y0030012D01*
X0081972Y0029986D01*
X0082103Y0029956D01*
X0082233Y0029923D01*
X0082361Y0029886D01*
X0082489Y0029844D01*
X0082616Y0029800D01*
X0082741Y0029751D01*
X0082864Y0029699D01*
X0082986Y0029643D01*
X0083107Y0029583D01*
X0083225Y0029520D01*
X0083342Y0029454D01*
X0083456Y0029384D01*
X0083569Y0029311D01*
X0083679Y0029234D01*
X0083787Y0029154D01*
X0083892Y0029071D01*
X0083995Y0028985D01*
X0084095Y0028896D01*
X0084193Y0028804D01*
X0084288Y0028709D01*
X0084380Y0028611D01*
X0084469Y0028511D01*
X0084555Y0028408D01*
X0084638Y0028303D01*
X0084718Y0028195D01*
X0084795Y0028085D01*
X0084868Y0027972D01*
X0084938Y0027858D01*
X0085004Y0027741D01*
X0085067Y0027623D01*
X0085127Y0027502D01*
X0085183Y0027380D01*
X0085235Y0027257D01*
X0085284Y0027132D01*
X0085328Y0027005D01*
X0085370Y0026877D01*
X0085407Y0026749D01*
X0085440Y0026619D01*
X0085470Y0026488D01*
X0085496Y0026356D01*
X0085517Y0026224D01*
X0085535Y0026091D01*
X0085549Y0025957D01*
X0085559Y0025823D01*
X0085565Y0025689D01*
X0085567Y0025555D01*
X0085565Y0025421D01*
X0085559Y0025287D01*
X0085549Y0025153D01*
X0085535Y0025019D01*
X0085517Y0024886D01*
X0085496Y0024754D01*
X0085470Y0024622D01*
X0085440Y0024491D01*
X0085407Y0024361D01*
X0085370Y0024233D01*
X0085328Y0024105D01*
X0085284Y0023978D01*
X0085235Y0023853D01*
X0085183Y0023730D01*
X0085127Y0023608D01*
X0085067Y0023487D01*
X0085004Y0023369D01*
X0084938Y0023252D01*
X0084868Y0023138D01*
X0084795Y0023025D01*
X0084718Y0022915D01*
X0084638Y0022807D01*
X0084555Y0022702D01*
X0084469Y0022599D01*
X0084380Y0022499D01*
X0084288Y0022401D01*
X0084193Y0022306D01*
X0084095Y0022214D01*
X0083995Y0022125D01*
X0083892Y0022039D01*
X0083787Y0021956D01*
X0083679Y0021876D01*
X0083569Y0021799D01*
X0083456Y0021726D01*
X0083342Y0021656D01*
X0083225Y0021590D01*
X0083107Y0021527D01*
X0082986Y0021467D01*
X0082864Y0021411D01*
X0082741Y0021359D01*
X0082616Y0021310D01*
X0082489Y0021266D01*
X0082361Y0021224D01*
X0082233Y0021187D01*
X0082103Y0021154D01*
X0081972Y0021124D01*
X0081840Y0021098D01*
X0081708Y0021077D01*
X0081575Y0021059D01*
X0081441Y0021045D01*
X0081307Y0021035D01*
X0081173Y0021029D01*
X0081039Y0021027D01*
X0080905Y0021029D01*
X0080771Y0021035D01*
X0080637Y0021045D01*
X0080503Y0021059D01*
X0080370Y0021077D01*
X0080238Y0021098D01*
X0080106Y0021124D01*
X0079975Y0021154D01*
X0079845Y0021187D01*
X0079717Y0021224D01*
X0079589Y0021266D01*
X0079462Y0021310D01*
X0079337Y0021359D01*
X0079214Y0021411D01*
X0079092Y0021467D01*
X0078971Y0021527D01*
X0078853Y0021590D01*
X0078736Y0021656D01*
X0078622Y0021726D01*
X0078509Y0021799D01*
X0078399Y0021876D01*
X0078291Y0021956D01*
X0078186Y0022039D01*
X0078083Y0022125D01*
X0077983Y0022214D01*
X0077885Y0022306D01*
X0077790Y0022401D01*
X0077698Y0022499D01*
X0077609Y0022599D01*
X0077523Y0022702D01*
X0077440Y0022807D01*
X0077360Y0022915D01*
X0077283Y0023025D01*
X0077210Y0023138D01*
X0077140Y0023252D01*
X0077074Y0023369D01*
X0077011Y0023487D01*
X0076951Y0023608D01*
X0076895Y0023730D01*
X0076843Y0023853D01*
X0076794Y0023978D01*
X0076750Y0024105D01*
X0076708Y0024233D01*
X0076671Y0024361D01*
X0076638Y0024491D01*
X0076608Y0024622D01*
X0076582Y0024754D01*
X0076561Y0024886D01*
X0076543Y0025019D01*
X0076529Y0025153D01*
X0076519Y0025287D01*
X0076513Y0025421D01*
X0076511Y0025555D01*
X0109976Y0025555D02*
X0109978Y0025689D01*
X0109984Y0025823D01*
X0109994Y0025957D01*
X0110008Y0026091D01*
X0110026Y0026224D01*
X0110047Y0026356D01*
X0110073Y0026488D01*
X0110103Y0026619D01*
X0110136Y0026749D01*
X0110173Y0026877D01*
X0110215Y0027005D01*
X0110259Y0027132D01*
X0110308Y0027257D01*
X0110360Y0027380D01*
X0110416Y0027502D01*
X0110476Y0027623D01*
X0110539Y0027741D01*
X0110605Y0027858D01*
X0110675Y0027972D01*
X0110748Y0028085D01*
X0110825Y0028195D01*
X0110905Y0028303D01*
X0110988Y0028408D01*
X0111074Y0028511D01*
X0111163Y0028611D01*
X0111255Y0028709D01*
X0111350Y0028804D01*
X0111448Y0028896D01*
X0111548Y0028985D01*
X0111651Y0029071D01*
X0111756Y0029154D01*
X0111864Y0029234D01*
X0111974Y0029311D01*
X0112087Y0029384D01*
X0112201Y0029454D01*
X0112318Y0029520D01*
X0112436Y0029583D01*
X0112557Y0029643D01*
X0112679Y0029699D01*
X0112802Y0029751D01*
X0112927Y0029800D01*
X0113054Y0029844D01*
X0113182Y0029886D01*
X0113310Y0029923D01*
X0113440Y0029956D01*
X0113571Y0029986D01*
X0113703Y0030012D01*
X0113835Y0030033D01*
X0113968Y0030051D01*
X0114102Y0030065D01*
X0114236Y0030075D01*
X0114370Y0030081D01*
X0114504Y0030083D01*
X0114638Y0030081D01*
X0114772Y0030075D01*
X0114906Y0030065D01*
X0115040Y0030051D01*
X0115173Y0030033D01*
X0115305Y0030012D01*
X0115437Y0029986D01*
X0115568Y0029956D01*
X0115698Y0029923D01*
X0115826Y0029886D01*
X0115954Y0029844D01*
X0116081Y0029800D01*
X0116206Y0029751D01*
X0116329Y0029699D01*
X0116451Y0029643D01*
X0116572Y0029583D01*
X0116690Y0029520D01*
X0116807Y0029454D01*
X0116921Y0029384D01*
X0117034Y0029311D01*
X0117144Y0029234D01*
X0117252Y0029154D01*
X0117357Y0029071D01*
X0117460Y0028985D01*
X0117560Y0028896D01*
X0117658Y0028804D01*
X0117753Y0028709D01*
X0117845Y0028611D01*
X0117934Y0028511D01*
X0118020Y0028408D01*
X0118103Y0028303D01*
X0118183Y0028195D01*
X0118260Y0028085D01*
X0118333Y0027972D01*
X0118403Y0027858D01*
X0118469Y0027741D01*
X0118532Y0027623D01*
X0118592Y0027502D01*
X0118648Y0027380D01*
X0118700Y0027257D01*
X0118749Y0027132D01*
X0118793Y0027005D01*
X0118835Y0026877D01*
X0118872Y0026749D01*
X0118905Y0026619D01*
X0118935Y0026488D01*
X0118961Y0026356D01*
X0118982Y0026224D01*
X0119000Y0026091D01*
X0119014Y0025957D01*
X0119024Y0025823D01*
X0119030Y0025689D01*
X0119032Y0025555D01*
X0119030Y0025421D01*
X0119024Y0025287D01*
X0119014Y0025153D01*
X0119000Y0025019D01*
X0118982Y0024886D01*
X0118961Y0024754D01*
X0118935Y0024622D01*
X0118905Y0024491D01*
X0118872Y0024361D01*
X0118835Y0024233D01*
X0118793Y0024105D01*
X0118749Y0023978D01*
X0118700Y0023853D01*
X0118648Y0023730D01*
X0118592Y0023608D01*
X0118532Y0023487D01*
X0118469Y0023369D01*
X0118403Y0023252D01*
X0118333Y0023138D01*
X0118260Y0023025D01*
X0118183Y0022915D01*
X0118103Y0022807D01*
X0118020Y0022702D01*
X0117934Y0022599D01*
X0117845Y0022499D01*
X0117753Y0022401D01*
X0117658Y0022306D01*
X0117560Y0022214D01*
X0117460Y0022125D01*
X0117357Y0022039D01*
X0117252Y0021956D01*
X0117144Y0021876D01*
X0117034Y0021799D01*
X0116921Y0021726D01*
X0116807Y0021656D01*
X0116690Y0021590D01*
X0116572Y0021527D01*
X0116451Y0021467D01*
X0116329Y0021411D01*
X0116206Y0021359D01*
X0116081Y0021310D01*
X0115954Y0021266D01*
X0115826Y0021224D01*
X0115698Y0021187D01*
X0115568Y0021154D01*
X0115437Y0021124D01*
X0115305Y0021098D01*
X0115173Y0021077D01*
X0115040Y0021059D01*
X0114906Y0021045D01*
X0114772Y0021035D01*
X0114638Y0021029D01*
X0114504Y0021027D01*
X0114370Y0021029D01*
X0114236Y0021035D01*
X0114102Y0021045D01*
X0113968Y0021059D01*
X0113835Y0021077D01*
X0113703Y0021098D01*
X0113571Y0021124D01*
X0113440Y0021154D01*
X0113310Y0021187D01*
X0113182Y0021224D01*
X0113054Y0021266D01*
X0112927Y0021310D01*
X0112802Y0021359D01*
X0112679Y0021411D01*
X0112557Y0021467D01*
X0112436Y0021527D01*
X0112318Y0021590D01*
X0112201Y0021656D01*
X0112087Y0021726D01*
X0111974Y0021799D01*
X0111864Y0021876D01*
X0111756Y0021956D01*
X0111651Y0022039D01*
X0111548Y0022125D01*
X0111448Y0022214D01*
X0111350Y0022306D01*
X0111255Y0022401D01*
X0111163Y0022499D01*
X0111074Y0022599D01*
X0110988Y0022702D01*
X0110905Y0022807D01*
X0110825Y0022915D01*
X0110748Y0023025D01*
X0110675Y0023138D01*
X0110605Y0023252D01*
X0110539Y0023369D01*
X0110476Y0023487D01*
X0110416Y0023608D01*
X0110360Y0023730D01*
X0110308Y0023853D01*
X0110259Y0023978D01*
X0110215Y0024105D01*
X0110173Y0024233D01*
X0110136Y0024361D01*
X0110103Y0024491D01*
X0110073Y0024622D01*
X0110047Y0024754D01*
X0110026Y0024886D01*
X0110008Y0025019D01*
X0109994Y0025153D01*
X0109984Y0025287D01*
X0109978Y0025421D01*
X0109976Y0025555D01*
X0258385Y0026854D02*
X0258387Y0027002D01*
X0258393Y0027150D01*
X0258403Y0027298D01*
X0258417Y0027445D01*
X0258435Y0027592D01*
X0258456Y0027738D01*
X0258482Y0027884D01*
X0258512Y0028029D01*
X0258545Y0028173D01*
X0258583Y0028316D01*
X0258624Y0028458D01*
X0258669Y0028599D01*
X0258717Y0028739D01*
X0258770Y0028878D01*
X0258826Y0029015D01*
X0258886Y0029150D01*
X0258949Y0029284D01*
X0259016Y0029416D01*
X0259087Y0029546D01*
X0259161Y0029674D01*
X0259238Y0029800D01*
X0259319Y0029924D01*
X0259403Y0030046D01*
X0259490Y0030165D01*
X0259581Y0030282D01*
X0259675Y0030397D01*
X0259771Y0030509D01*
X0259871Y0030619D01*
X0259973Y0030725D01*
X0260079Y0030829D01*
X0260187Y0030930D01*
X0260298Y0031028D01*
X0260411Y0031124D01*
X0260527Y0031216D01*
X0260645Y0031305D01*
X0260766Y0031390D01*
X0260889Y0031473D01*
X0261014Y0031552D01*
X0261141Y0031628D01*
X0261270Y0031700D01*
X0261401Y0031769D01*
X0261534Y0031834D01*
X0261669Y0031895D01*
X0261805Y0031953D01*
X0261942Y0032008D01*
X0262081Y0032058D01*
X0262222Y0032105D01*
X0262363Y0032148D01*
X0262506Y0032188D01*
X0262650Y0032223D01*
X0262794Y0032255D01*
X0262940Y0032282D01*
X0263086Y0032306D01*
X0263233Y0032326D01*
X0263380Y0032342D01*
X0263527Y0032354D01*
X0263675Y0032362D01*
X0263823Y0032366D01*
X0263971Y0032366D01*
X0264119Y0032362D01*
X0264267Y0032354D01*
X0264414Y0032342D01*
X0264561Y0032326D01*
X0264708Y0032306D01*
X0264854Y0032282D01*
X0265000Y0032255D01*
X0265144Y0032223D01*
X0265288Y0032188D01*
X0265431Y0032148D01*
X0265572Y0032105D01*
X0265713Y0032058D01*
X0265852Y0032008D01*
X0265989Y0031953D01*
X0266125Y0031895D01*
X0266260Y0031834D01*
X0266393Y0031769D01*
X0266524Y0031700D01*
X0266653Y0031628D01*
X0266780Y0031552D01*
X0266905Y0031473D01*
X0267028Y0031390D01*
X0267149Y0031305D01*
X0267267Y0031216D01*
X0267383Y0031124D01*
X0267496Y0031028D01*
X0267607Y0030930D01*
X0267715Y0030829D01*
X0267821Y0030725D01*
X0267923Y0030619D01*
X0268023Y0030509D01*
X0268119Y0030397D01*
X0268213Y0030282D01*
X0268304Y0030165D01*
X0268391Y0030046D01*
X0268475Y0029924D01*
X0268556Y0029800D01*
X0268633Y0029674D01*
X0268707Y0029546D01*
X0268778Y0029416D01*
X0268845Y0029284D01*
X0268908Y0029150D01*
X0268968Y0029015D01*
X0269024Y0028878D01*
X0269077Y0028739D01*
X0269125Y0028599D01*
X0269170Y0028458D01*
X0269211Y0028316D01*
X0269249Y0028173D01*
X0269282Y0028029D01*
X0269312Y0027884D01*
X0269338Y0027738D01*
X0269359Y0027592D01*
X0269377Y0027445D01*
X0269391Y0027298D01*
X0269401Y0027150D01*
X0269407Y0027002D01*
X0269409Y0026854D01*
X0269407Y0026706D01*
X0269401Y0026558D01*
X0269391Y0026410D01*
X0269377Y0026263D01*
X0269359Y0026116D01*
X0269338Y0025970D01*
X0269312Y0025824D01*
X0269282Y0025679D01*
X0269249Y0025535D01*
X0269211Y0025392D01*
X0269170Y0025250D01*
X0269125Y0025109D01*
X0269077Y0024969D01*
X0269024Y0024830D01*
X0268968Y0024693D01*
X0268908Y0024558D01*
X0268845Y0024424D01*
X0268778Y0024292D01*
X0268707Y0024162D01*
X0268633Y0024034D01*
X0268556Y0023908D01*
X0268475Y0023784D01*
X0268391Y0023662D01*
X0268304Y0023543D01*
X0268213Y0023426D01*
X0268119Y0023311D01*
X0268023Y0023199D01*
X0267923Y0023089D01*
X0267821Y0022983D01*
X0267715Y0022879D01*
X0267607Y0022778D01*
X0267496Y0022680D01*
X0267383Y0022584D01*
X0267267Y0022492D01*
X0267149Y0022403D01*
X0267028Y0022318D01*
X0266905Y0022235D01*
X0266780Y0022156D01*
X0266653Y0022080D01*
X0266524Y0022008D01*
X0266393Y0021939D01*
X0266260Y0021874D01*
X0266125Y0021813D01*
X0265989Y0021755D01*
X0265852Y0021700D01*
X0265713Y0021650D01*
X0265572Y0021603D01*
X0265431Y0021560D01*
X0265288Y0021520D01*
X0265144Y0021485D01*
X0265000Y0021453D01*
X0264854Y0021426D01*
X0264708Y0021402D01*
X0264561Y0021382D01*
X0264414Y0021366D01*
X0264267Y0021354D01*
X0264119Y0021346D01*
X0263971Y0021342D01*
X0263823Y0021342D01*
X0263675Y0021346D01*
X0263527Y0021354D01*
X0263380Y0021366D01*
X0263233Y0021382D01*
X0263086Y0021402D01*
X0262940Y0021426D01*
X0262794Y0021453D01*
X0262650Y0021485D01*
X0262506Y0021520D01*
X0262363Y0021560D01*
X0262222Y0021603D01*
X0262081Y0021650D01*
X0261942Y0021700D01*
X0261805Y0021755D01*
X0261669Y0021813D01*
X0261534Y0021874D01*
X0261401Y0021939D01*
X0261270Y0022008D01*
X0261141Y0022080D01*
X0261014Y0022156D01*
X0260889Y0022235D01*
X0260766Y0022318D01*
X0260645Y0022403D01*
X0260527Y0022492D01*
X0260411Y0022584D01*
X0260298Y0022680D01*
X0260187Y0022778D01*
X0260079Y0022879D01*
X0259973Y0022983D01*
X0259871Y0023089D01*
X0259771Y0023199D01*
X0259675Y0023311D01*
X0259581Y0023426D01*
X0259490Y0023543D01*
X0259403Y0023662D01*
X0259319Y0023784D01*
X0259238Y0023908D01*
X0259161Y0024034D01*
X0259087Y0024162D01*
X0259016Y0024292D01*
X0258949Y0024424D01*
X0258886Y0024558D01*
X0258826Y0024693D01*
X0258770Y0024830D01*
X0258717Y0024969D01*
X0258669Y0025109D01*
X0258624Y0025250D01*
X0258583Y0025392D01*
X0258545Y0025535D01*
X0258512Y0025679D01*
X0258482Y0025824D01*
X0258456Y0025970D01*
X0258435Y0026116D01*
X0258417Y0026263D01*
X0258403Y0026410D01*
X0258393Y0026558D01*
X0258387Y0026706D01*
X0258385Y0026854D01*
X0260763Y0137453D02*
X0260765Y0137587D01*
X0260771Y0137721D01*
X0260781Y0137855D01*
X0260795Y0137989D01*
X0260813Y0138122D01*
X0260834Y0138254D01*
X0260860Y0138386D01*
X0260890Y0138517D01*
X0260923Y0138647D01*
X0260960Y0138775D01*
X0261002Y0138903D01*
X0261046Y0139030D01*
X0261095Y0139155D01*
X0261147Y0139278D01*
X0261203Y0139400D01*
X0261263Y0139521D01*
X0261326Y0139639D01*
X0261392Y0139756D01*
X0261462Y0139870D01*
X0261535Y0139983D01*
X0261612Y0140093D01*
X0261692Y0140201D01*
X0261775Y0140306D01*
X0261861Y0140409D01*
X0261950Y0140509D01*
X0262042Y0140607D01*
X0262137Y0140702D01*
X0262235Y0140794D01*
X0262335Y0140883D01*
X0262438Y0140969D01*
X0262543Y0141052D01*
X0262651Y0141132D01*
X0262761Y0141209D01*
X0262874Y0141282D01*
X0262988Y0141352D01*
X0263105Y0141418D01*
X0263223Y0141481D01*
X0263344Y0141541D01*
X0263466Y0141597D01*
X0263589Y0141649D01*
X0263714Y0141698D01*
X0263841Y0141742D01*
X0263969Y0141784D01*
X0264097Y0141821D01*
X0264227Y0141854D01*
X0264358Y0141884D01*
X0264490Y0141910D01*
X0264622Y0141931D01*
X0264755Y0141949D01*
X0264889Y0141963D01*
X0265023Y0141973D01*
X0265157Y0141979D01*
X0265291Y0141981D01*
X0265425Y0141979D01*
X0265559Y0141973D01*
X0265693Y0141963D01*
X0265827Y0141949D01*
X0265960Y0141931D01*
X0266092Y0141910D01*
X0266224Y0141884D01*
X0266355Y0141854D01*
X0266485Y0141821D01*
X0266613Y0141784D01*
X0266741Y0141742D01*
X0266868Y0141698D01*
X0266993Y0141649D01*
X0267116Y0141597D01*
X0267238Y0141541D01*
X0267359Y0141481D01*
X0267477Y0141418D01*
X0267594Y0141352D01*
X0267708Y0141282D01*
X0267821Y0141209D01*
X0267931Y0141132D01*
X0268039Y0141052D01*
X0268144Y0140969D01*
X0268247Y0140883D01*
X0268347Y0140794D01*
X0268445Y0140702D01*
X0268540Y0140607D01*
X0268632Y0140509D01*
X0268721Y0140409D01*
X0268807Y0140306D01*
X0268890Y0140201D01*
X0268970Y0140093D01*
X0269047Y0139983D01*
X0269120Y0139870D01*
X0269190Y0139756D01*
X0269256Y0139639D01*
X0269319Y0139521D01*
X0269379Y0139400D01*
X0269435Y0139278D01*
X0269487Y0139155D01*
X0269536Y0139030D01*
X0269580Y0138903D01*
X0269622Y0138775D01*
X0269659Y0138647D01*
X0269692Y0138517D01*
X0269722Y0138386D01*
X0269748Y0138254D01*
X0269769Y0138122D01*
X0269787Y0137989D01*
X0269801Y0137855D01*
X0269811Y0137721D01*
X0269817Y0137587D01*
X0269819Y0137453D01*
X0269817Y0137319D01*
X0269811Y0137185D01*
X0269801Y0137051D01*
X0269787Y0136917D01*
X0269769Y0136784D01*
X0269748Y0136652D01*
X0269722Y0136520D01*
X0269692Y0136389D01*
X0269659Y0136259D01*
X0269622Y0136131D01*
X0269580Y0136003D01*
X0269536Y0135876D01*
X0269487Y0135751D01*
X0269435Y0135628D01*
X0269379Y0135506D01*
X0269319Y0135385D01*
X0269256Y0135267D01*
X0269190Y0135150D01*
X0269120Y0135036D01*
X0269047Y0134923D01*
X0268970Y0134813D01*
X0268890Y0134705D01*
X0268807Y0134600D01*
X0268721Y0134497D01*
X0268632Y0134397D01*
X0268540Y0134299D01*
X0268445Y0134204D01*
X0268347Y0134112D01*
X0268247Y0134023D01*
X0268144Y0133937D01*
X0268039Y0133854D01*
X0267931Y0133774D01*
X0267821Y0133697D01*
X0267708Y0133624D01*
X0267594Y0133554D01*
X0267477Y0133488D01*
X0267359Y0133425D01*
X0267238Y0133365D01*
X0267116Y0133309D01*
X0266993Y0133257D01*
X0266868Y0133208D01*
X0266741Y0133164D01*
X0266613Y0133122D01*
X0266485Y0133085D01*
X0266355Y0133052D01*
X0266224Y0133022D01*
X0266092Y0132996D01*
X0265960Y0132975D01*
X0265827Y0132957D01*
X0265693Y0132943D01*
X0265559Y0132933D01*
X0265425Y0132927D01*
X0265291Y0132925D01*
X0265157Y0132927D01*
X0265023Y0132933D01*
X0264889Y0132943D01*
X0264755Y0132957D01*
X0264622Y0132975D01*
X0264490Y0132996D01*
X0264358Y0133022D01*
X0264227Y0133052D01*
X0264097Y0133085D01*
X0263969Y0133122D01*
X0263841Y0133164D01*
X0263714Y0133208D01*
X0263589Y0133257D01*
X0263466Y0133309D01*
X0263344Y0133365D01*
X0263223Y0133425D01*
X0263105Y0133488D01*
X0262988Y0133554D01*
X0262874Y0133624D01*
X0262761Y0133697D01*
X0262651Y0133774D01*
X0262543Y0133854D01*
X0262438Y0133937D01*
X0262335Y0134023D01*
X0262235Y0134112D01*
X0262137Y0134204D01*
X0262042Y0134299D01*
X0261950Y0134397D01*
X0261861Y0134497D01*
X0261775Y0134600D01*
X0261692Y0134705D01*
X0261612Y0134813D01*
X0261535Y0134923D01*
X0261462Y0135036D01*
X0261392Y0135150D01*
X0261326Y0135267D01*
X0261263Y0135385D01*
X0261203Y0135506D01*
X0261147Y0135628D01*
X0261095Y0135751D01*
X0261046Y0135876D01*
X0261002Y0136003D01*
X0260960Y0136131D01*
X0260923Y0136259D01*
X0260890Y0136389D01*
X0260860Y0136520D01*
X0260834Y0136652D01*
X0260813Y0136784D01*
X0260795Y0136917D01*
X0260781Y0137051D01*
X0260771Y0137185D01*
X0260765Y0137319D01*
X0260763Y0137453D01*
X0260763Y0184697D02*
X0260765Y0184831D01*
X0260771Y0184965D01*
X0260781Y0185099D01*
X0260795Y0185233D01*
X0260813Y0185366D01*
X0260834Y0185498D01*
X0260860Y0185630D01*
X0260890Y0185761D01*
X0260923Y0185891D01*
X0260960Y0186019D01*
X0261002Y0186147D01*
X0261046Y0186274D01*
X0261095Y0186399D01*
X0261147Y0186522D01*
X0261203Y0186644D01*
X0261263Y0186765D01*
X0261326Y0186883D01*
X0261392Y0187000D01*
X0261462Y0187114D01*
X0261535Y0187227D01*
X0261612Y0187337D01*
X0261692Y0187445D01*
X0261775Y0187550D01*
X0261861Y0187653D01*
X0261950Y0187753D01*
X0262042Y0187851D01*
X0262137Y0187946D01*
X0262235Y0188038D01*
X0262335Y0188127D01*
X0262438Y0188213D01*
X0262543Y0188296D01*
X0262651Y0188376D01*
X0262761Y0188453D01*
X0262874Y0188526D01*
X0262988Y0188596D01*
X0263105Y0188662D01*
X0263223Y0188725D01*
X0263344Y0188785D01*
X0263466Y0188841D01*
X0263589Y0188893D01*
X0263714Y0188942D01*
X0263841Y0188986D01*
X0263969Y0189028D01*
X0264097Y0189065D01*
X0264227Y0189098D01*
X0264358Y0189128D01*
X0264490Y0189154D01*
X0264622Y0189175D01*
X0264755Y0189193D01*
X0264889Y0189207D01*
X0265023Y0189217D01*
X0265157Y0189223D01*
X0265291Y0189225D01*
X0265425Y0189223D01*
X0265559Y0189217D01*
X0265693Y0189207D01*
X0265827Y0189193D01*
X0265960Y0189175D01*
X0266092Y0189154D01*
X0266224Y0189128D01*
X0266355Y0189098D01*
X0266485Y0189065D01*
X0266613Y0189028D01*
X0266741Y0188986D01*
X0266868Y0188942D01*
X0266993Y0188893D01*
X0267116Y0188841D01*
X0267238Y0188785D01*
X0267359Y0188725D01*
X0267477Y0188662D01*
X0267594Y0188596D01*
X0267708Y0188526D01*
X0267821Y0188453D01*
X0267931Y0188376D01*
X0268039Y0188296D01*
X0268144Y0188213D01*
X0268247Y0188127D01*
X0268347Y0188038D01*
X0268445Y0187946D01*
X0268540Y0187851D01*
X0268632Y0187753D01*
X0268721Y0187653D01*
X0268807Y0187550D01*
X0268890Y0187445D01*
X0268970Y0187337D01*
X0269047Y0187227D01*
X0269120Y0187114D01*
X0269190Y0187000D01*
X0269256Y0186883D01*
X0269319Y0186765D01*
X0269379Y0186644D01*
X0269435Y0186522D01*
X0269487Y0186399D01*
X0269536Y0186274D01*
X0269580Y0186147D01*
X0269622Y0186019D01*
X0269659Y0185891D01*
X0269692Y0185761D01*
X0269722Y0185630D01*
X0269748Y0185498D01*
X0269769Y0185366D01*
X0269787Y0185233D01*
X0269801Y0185099D01*
X0269811Y0184965D01*
X0269817Y0184831D01*
X0269819Y0184697D01*
X0269817Y0184563D01*
X0269811Y0184429D01*
X0269801Y0184295D01*
X0269787Y0184161D01*
X0269769Y0184028D01*
X0269748Y0183896D01*
X0269722Y0183764D01*
X0269692Y0183633D01*
X0269659Y0183503D01*
X0269622Y0183375D01*
X0269580Y0183247D01*
X0269536Y0183120D01*
X0269487Y0182995D01*
X0269435Y0182872D01*
X0269379Y0182750D01*
X0269319Y0182629D01*
X0269256Y0182511D01*
X0269190Y0182394D01*
X0269120Y0182280D01*
X0269047Y0182167D01*
X0268970Y0182057D01*
X0268890Y0181949D01*
X0268807Y0181844D01*
X0268721Y0181741D01*
X0268632Y0181641D01*
X0268540Y0181543D01*
X0268445Y0181448D01*
X0268347Y0181356D01*
X0268247Y0181267D01*
X0268144Y0181181D01*
X0268039Y0181098D01*
X0267931Y0181018D01*
X0267821Y0180941D01*
X0267708Y0180868D01*
X0267594Y0180798D01*
X0267477Y0180732D01*
X0267359Y0180669D01*
X0267238Y0180609D01*
X0267116Y0180553D01*
X0266993Y0180501D01*
X0266868Y0180452D01*
X0266741Y0180408D01*
X0266613Y0180366D01*
X0266485Y0180329D01*
X0266355Y0180296D01*
X0266224Y0180266D01*
X0266092Y0180240D01*
X0265960Y0180219D01*
X0265827Y0180201D01*
X0265693Y0180187D01*
X0265559Y0180177D01*
X0265425Y0180171D01*
X0265291Y0180169D01*
X0265157Y0180171D01*
X0265023Y0180177D01*
X0264889Y0180187D01*
X0264755Y0180201D01*
X0264622Y0180219D01*
X0264490Y0180240D01*
X0264358Y0180266D01*
X0264227Y0180296D01*
X0264097Y0180329D01*
X0263969Y0180366D01*
X0263841Y0180408D01*
X0263714Y0180452D01*
X0263589Y0180501D01*
X0263466Y0180553D01*
X0263344Y0180609D01*
X0263223Y0180669D01*
X0263105Y0180732D01*
X0262988Y0180798D01*
X0262874Y0180868D01*
X0262761Y0180941D01*
X0262651Y0181018D01*
X0262543Y0181098D01*
X0262438Y0181181D01*
X0262335Y0181267D01*
X0262235Y0181356D01*
X0262137Y0181448D01*
X0262042Y0181543D01*
X0261950Y0181641D01*
X0261861Y0181741D01*
X0261775Y0181844D01*
X0261692Y0181949D01*
X0261612Y0182057D01*
X0261535Y0182167D01*
X0261462Y0182280D01*
X0261392Y0182394D01*
X0261326Y0182511D01*
X0261263Y0182629D01*
X0261203Y0182750D01*
X0261147Y0182872D01*
X0261095Y0182995D01*
X0261046Y0183120D01*
X0261002Y0183247D01*
X0260960Y0183375D01*
X0260923Y0183503D01*
X0260890Y0183633D01*
X0260860Y0183764D01*
X0260834Y0183896D01*
X0260813Y0184028D01*
X0260795Y0184161D01*
X0260781Y0184295D01*
X0260771Y0184429D01*
X0260765Y0184563D01*
X0260763Y0184697D01*
X0258385Y0219768D02*
X0258387Y0219916D01*
X0258393Y0220064D01*
X0258403Y0220212D01*
X0258417Y0220359D01*
X0258435Y0220506D01*
X0258456Y0220652D01*
X0258482Y0220798D01*
X0258512Y0220943D01*
X0258545Y0221087D01*
X0258583Y0221230D01*
X0258624Y0221372D01*
X0258669Y0221513D01*
X0258717Y0221653D01*
X0258770Y0221792D01*
X0258826Y0221929D01*
X0258886Y0222064D01*
X0258949Y0222198D01*
X0259016Y0222330D01*
X0259087Y0222460D01*
X0259161Y0222588D01*
X0259238Y0222714D01*
X0259319Y0222838D01*
X0259403Y0222960D01*
X0259490Y0223079D01*
X0259581Y0223196D01*
X0259675Y0223311D01*
X0259771Y0223423D01*
X0259871Y0223533D01*
X0259973Y0223639D01*
X0260079Y0223743D01*
X0260187Y0223844D01*
X0260298Y0223942D01*
X0260411Y0224038D01*
X0260527Y0224130D01*
X0260645Y0224219D01*
X0260766Y0224304D01*
X0260889Y0224387D01*
X0261014Y0224466D01*
X0261141Y0224542D01*
X0261270Y0224614D01*
X0261401Y0224683D01*
X0261534Y0224748D01*
X0261669Y0224809D01*
X0261805Y0224867D01*
X0261942Y0224922D01*
X0262081Y0224972D01*
X0262222Y0225019D01*
X0262363Y0225062D01*
X0262506Y0225102D01*
X0262650Y0225137D01*
X0262794Y0225169D01*
X0262940Y0225196D01*
X0263086Y0225220D01*
X0263233Y0225240D01*
X0263380Y0225256D01*
X0263527Y0225268D01*
X0263675Y0225276D01*
X0263823Y0225280D01*
X0263971Y0225280D01*
X0264119Y0225276D01*
X0264267Y0225268D01*
X0264414Y0225256D01*
X0264561Y0225240D01*
X0264708Y0225220D01*
X0264854Y0225196D01*
X0265000Y0225169D01*
X0265144Y0225137D01*
X0265288Y0225102D01*
X0265431Y0225062D01*
X0265572Y0225019D01*
X0265713Y0224972D01*
X0265852Y0224922D01*
X0265989Y0224867D01*
X0266125Y0224809D01*
X0266260Y0224748D01*
X0266393Y0224683D01*
X0266524Y0224614D01*
X0266653Y0224542D01*
X0266780Y0224466D01*
X0266905Y0224387D01*
X0267028Y0224304D01*
X0267149Y0224219D01*
X0267267Y0224130D01*
X0267383Y0224038D01*
X0267496Y0223942D01*
X0267607Y0223844D01*
X0267715Y0223743D01*
X0267821Y0223639D01*
X0267923Y0223533D01*
X0268023Y0223423D01*
X0268119Y0223311D01*
X0268213Y0223196D01*
X0268304Y0223079D01*
X0268391Y0222960D01*
X0268475Y0222838D01*
X0268556Y0222714D01*
X0268633Y0222588D01*
X0268707Y0222460D01*
X0268778Y0222330D01*
X0268845Y0222198D01*
X0268908Y0222064D01*
X0268968Y0221929D01*
X0269024Y0221792D01*
X0269077Y0221653D01*
X0269125Y0221513D01*
X0269170Y0221372D01*
X0269211Y0221230D01*
X0269249Y0221087D01*
X0269282Y0220943D01*
X0269312Y0220798D01*
X0269338Y0220652D01*
X0269359Y0220506D01*
X0269377Y0220359D01*
X0269391Y0220212D01*
X0269401Y0220064D01*
X0269407Y0219916D01*
X0269409Y0219768D01*
X0269407Y0219620D01*
X0269401Y0219472D01*
X0269391Y0219324D01*
X0269377Y0219177D01*
X0269359Y0219030D01*
X0269338Y0218884D01*
X0269312Y0218738D01*
X0269282Y0218593D01*
X0269249Y0218449D01*
X0269211Y0218306D01*
X0269170Y0218164D01*
X0269125Y0218023D01*
X0269077Y0217883D01*
X0269024Y0217744D01*
X0268968Y0217607D01*
X0268908Y0217472D01*
X0268845Y0217338D01*
X0268778Y0217206D01*
X0268707Y0217076D01*
X0268633Y0216948D01*
X0268556Y0216822D01*
X0268475Y0216698D01*
X0268391Y0216576D01*
X0268304Y0216457D01*
X0268213Y0216340D01*
X0268119Y0216225D01*
X0268023Y0216113D01*
X0267923Y0216003D01*
X0267821Y0215897D01*
X0267715Y0215793D01*
X0267607Y0215692D01*
X0267496Y0215594D01*
X0267383Y0215498D01*
X0267267Y0215406D01*
X0267149Y0215317D01*
X0267028Y0215232D01*
X0266905Y0215149D01*
X0266780Y0215070D01*
X0266653Y0214994D01*
X0266524Y0214922D01*
X0266393Y0214853D01*
X0266260Y0214788D01*
X0266125Y0214727D01*
X0265989Y0214669D01*
X0265852Y0214614D01*
X0265713Y0214564D01*
X0265572Y0214517D01*
X0265431Y0214474D01*
X0265288Y0214434D01*
X0265144Y0214399D01*
X0265000Y0214367D01*
X0264854Y0214340D01*
X0264708Y0214316D01*
X0264561Y0214296D01*
X0264414Y0214280D01*
X0264267Y0214268D01*
X0264119Y0214260D01*
X0263971Y0214256D01*
X0263823Y0214256D01*
X0263675Y0214260D01*
X0263527Y0214268D01*
X0263380Y0214280D01*
X0263233Y0214296D01*
X0263086Y0214316D01*
X0262940Y0214340D01*
X0262794Y0214367D01*
X0262650Y0214399D01*
X0262506Y0214434D01*
X0262363Y0214474D01*
X0262222Y0214517D01*
X0262081Y0214564D01*
X0261942Y0214614D01*
X0261805Y0214669D01*
X0261669Y0214727D01*
X0261534Y0214788D01*
X0261401Y0214853D01*
X0261270Y0214922D01*
X0261141Y0214994D01*
X0261014Y0215070D01*
X0260889Y0215149D01*
X0260766Y0215232D01*
X0260645Y0215317D01*
X0260527Y0215406D01*
X0260411Y0215498D01*
X0260298Y0215594D01*
X0260187Y0215692D01*
X0260079Y0215793D01*
X0259973Y0215897D01*
X0259871Y0216003D01*
X0259771Y0216113D01*
X0259675Y0216225D01*
X0259581Y0216340D01*
X0259490Y0216457D01*
X0259403Y0216576D01*
X0259319Y0216698D01*
X0259238Y0216822D01*
X0259161Y0216948D01*
X0259087Y0217076D01*
X0259016Y0217206D01*
X0258949Y0217338D01*
X0258886Y0217472D01*
X0258826Y0217607D01*
X0258770Y0217744D01*
X0258717Y0217883D01*
X0258669Y0218023D01*
X0258624Y0218164D01*
X0258583Y0218306D01*
X0258545Y0218449D01*
X0258512Y0218593D01*
X0258482Y0218738D01*
X0258456Y0218884D01*
X0258435Y0219030D01*
X0258417Y0219177D01*
X0258403Y0219324D01*
X0258393Y0219472D01*
X0258387Y0219620D01*
X0258385Y0219768D01*
M02*
